<?xml version="1.0" encoding="utf-8"?>
<!-- Generator: Adobe Illustrator 16.0.0, SVG Export Plug-In . SVG Version: 6.00 Build 0)  -->
<!DOCTYPE svg PUBLIC "-//W3C//DTD SVG 1.1//EN" "http://www.w3.org/Graphics/SVG/1.1/DTD/svg11.dtd">
<svg version="1.1" id="Layer_1" xmlns="http://www.w3.org/2000/svg" xmlns:xlink="http://www.w3.org/1999/xlink" x="0px" y="0px"
	 width="600px" height="600px" viewBox="0 0 600 600" enable-background="new 0 0 600 600" xml:space="preserve">
<g id="Layer_7">
</g>
<g id="Layer_1_1_">
	<polygon fill="#F39C12" points="140.463,319.813 142.661,316.698 147.883,314.059 156.403,312.021 163.134,309.266 
		170.967,306.508 179.624,303.39 189.102,300.392 197.896,297.035 208.339,292.959 218.37,288.523 231.148,282.769 242.552,277.733 
		253.132,272.699 264.948,266.584 275.529,260.111 284.185,255.075 293.803,248.002 296.276,244.645 298.611,242.248 
		298.611,458.282 295.313,456.603 289.542,452.406 284.322,448.331 279.375,444.136 275.939,441.379 271.817,438.262 
		267.284,434.545 262.613,431.188 265.91,417.041 269.07,403.133 271.406,391.027 274.567,380.117 274.155,373.763 270.856,372.085 
		264.125,369.326 256.292,367.649 243.101,363.571 230.324,359.857 219.743,356.859 206.966,352.423 194.187,348.707 
		185.532,346.069 175.912,342.593 166.844,340.914 167.257,345.71 169.043,352.784 171.377,358.537 172.753,363.571 
		173.165,366.689 176.326,368.968 184.157,374.122 194.187,379.158 203.806,383.833 216.997,390.306 224.827,394.983 
		233.484,399.057 238.98,402.775 243.101,406.49 244.887,408.889 245.85,413.926 246.262,420.398 247.224,431.188 248.599,439.941 
		249.422,450.851 251.208,467.756 254.918,486.695 257.253,500.841 260.001,517.387 264.536,532.971 269.07,547.477 
		272.779,557.668 276.352,570.854 282.812,587.4 285.833,594.473 288.993,599.866 288.993,602.984 284.047,597.829 273.192,583.683 
		262.201,570.137 251.208,555.631 238.43,539.447 229.361,525.538 215.621,507.317 200.508,484.538 192.402,472.789 
		180.447,453.129 168.631,431.908 160.386,414.644 153.93,398.697 148.982,384.553 144.86,370.407 142.112,358.897 140.463,346.67 
		139.227,336.597 139.227,328.446 139.227,323.05 	"/>
	<path fill="#F39C12" d="M298.611,177.149c0,0-17.587,0.48-25.556,1.679c-12.367,2.039-34.076,7.434-58.121,14.626
		c-52.762,15.705-83.677,62.581-83.677,67.257c0,4.675,7.007,71.332,7.007,71.332l160.347-75.529V177.149z"/>
</g>
<g id="Layer_2">
	<polygon fill="#E08B10" points="459.919,319.813 457.308,316.698 451.947,314.059 443.294,312.021 436.425,309.266 
		428.591,306.508 419.938,303.39 410.317,300.392 401.661,297.035 391.219,292.959 381.188,288.523 368.409,282.769 
		357.006,277.733 346.428,272.699 334.611,266.584 324.03,260.111 315.373,255.075 305.755,248.002 302.183,244.645 
		298.611,242.248 298.611,458.282 303.146,456.603 309.604,452.168 314.822,448.331 319.909,444.256 323.618,441.379 
		327.74,438.262 332.273,434.545 336.807,431.188 333.647,417.041 330.487,403.133 328.152,391.027 324.994,380.117 
		325.403,373.763 328.703,372.085 335.436,369.326 343.267,367.649 356.457,363.571 369.234,359.857 379.679,356.859 
		392.591,352.423 405.372,348.707 414.026,346.069 423.646,342.593 432.713,340.914 432.301,345.71 430.516,352.784 428.18,358.537 
		426.807,363.571 426.393,366.689 423.234,368.968 415.402,374.122 405.372,379.158 395.752,383.833 382.562,390.306 
		374.729,394.983 366.074,399.057 360.578,402.775 356.457,406.49 354.67,408.889 353.707,413.926 353.296,420.398 352.336,431.188 
		350.96,439.941 350.135,450.851 348.212,467.756 344.639,486.695 342.306,500.841 339.558,517.387 335.023,532.971 
		330.487,547.477 326.777,557.668 323.205,570.854 316.748,587.4 312.627,594.473 308.227,599.866 308.227,602.984 314.274,597.829 
		325.815,583.683 337.082,570.137 348.075,555.631 360.991,539.447 370.196,525.538 383.936,507.317 398.912,484.538 
		407.156,472.789 419.112,453.129 430.926,431.908 439.172,414.644 445.491,398.697 450.575,384.553 454.697,370.407 
		457.444,358.897 459.919,346.67 462.116,336.597 462.116,328.446 462.116,323.05 	"/>
	<path fill="#E08B10" d="M297.236,177.149c0,0,18.688,0.48,26.659,1.679c12.364,2.039,34.485,7.434,58.667,14.626
		c52.762,15.705,83.953,62.581,83.953,67.257c0,4.675-5.358,67.614-5.358,67.614l-163.92-71.572V177.149z"/>
</g>
<g id="Layer_3">
	<polygon fill="#F39C12" points="253.269,177.629 261.788,174.992 268.521,172.713 274.979,171.514 281.299,170.555 
		287.895,169.356 293.115,169.356 297.236,169.356 297.236,140.943 290.503,142.861 283.086,144.9 274.704,147.657 263.712,152.093 
		258.489,154.611 252.582,157.368 243.24,161.564 235.682,165.88 	"/>
</g>
<g id="Layer_6">
	<polygon fill="#E08B10" points="341.892,177.629 333.373,174.992 326.642,172.713 320.318,171.514 313.862,170.555 
		307.267,169.356 302.183,169.356 297.236,169.356 297.236,140.943 304.245,142.861 311.939,144.9 320.457,147.657 331.449,152.093 
		336.671,154.611 342.578,157.368 351.924,161.564 359.479,165.88 	"/>
</g>
<g id="Layer_4">
	<polygon fill="#E74C3C" points="229.911,154.25 241.315,147.537 251.894,142.861 265.085,136.628 274.84,133.511 283.634,131.713 
		291.466,129.794 297.236,129.794 297.236,1.037 285.969,4.273 278.138,8.109 284.458,56.663 274.429,10.388 262.338,17.221 
		248.736,25.493 275.254,89.752 246.398,27.292 241.865,31.367 236.369,36.163 229.911,42.997 221.118,52.348 211.087,63.378 
		245.988,93.949 208.477,66.134 200.233,76.086 193.501,85.915 180.859,107.136 169.455,126.077 161.486,141.903 147.197,172.474 
		154.479,168.998 160.386,165.161 166.57,162.163 172.341,159.646 181.821,156.05 195.286,151.733 209.713,149.575 219.058,150.295 
		225.79,151.733 	"/>
</g>
<g id="Layer_5">
	<polygon fill="#C0392B" points="366.76,154.25 355.222,147.537 344.639,142.861 331.312,136.628 321.557,133.511 312.762,131.713 
		304.795,129.794 297.236,129.794 297.236,1.037 309.468,4.273 317.711,8.109 313.038,48.272 321.832,10.388 334.062,17.221 
		347.8,25.493 321.557,98.145 350.273,27.292 354.67,31.367 360.303,36.163 366.76,42.997 375.557,52.348 385.586,63.378 
		359.479,86.755 388.334,66.134 396.579,76.086 403.31,85.915 416.088,107.136 427.631,126.077 435.601,141.903 450.027,172.474 
		442.605,168.998 436.697,165.161 430.516,162.163 424.609,159.646 415.127,156.05 401.523,151.733 387.097,149.575 
		377.616,150.295 370.884,151.733 	"/>
</g>
</svg>
