<?xml version="1.0" encoding="utf-8"?>
<!-- Generator: Adobe Illustrator 16.0.0, SVG Export Plug-In . SVG Version: 6.00 Build 0)  -->
<!DOCTYPE svg PUBLIC "-//W3C//DTD SVG 1.1//EN" "http://www.w3.org/Graphics/SVG/1.1/DTD/svg11.dtd">
<svg version="1.1" xmlns="http://www.w3.org/2000/svg" xmlns:xlink="http://www.w3.org/1999/xlink" x="0px" y="0px" width="600px"
	 height="600px" viewBox="0 0 600 600" style="enable-background:new 0 0 600 600;" xml:space="preserve">
<g id="Layer_1">
	<polygon style="fill:#F39C12;" points="190.9,304.5 192.5,301.9 196.3,299.7 202.5,298 207.4,295.7 213.1,293.4 219.4,290.8 
		226.3,288.3 232.7,285.5 240.3,282.1 247.6,278.4 256.9,273.6 265.2,269.4 272.9,265.2 281.5,260.1 289.2,254.7 295.5,250.5 
		302.5,244.6 304.3,241.8 306,239.8 306,420 303.6,418.6 299.4,415.1 295.6,411.7 292,408.2 289.5,405.9 286.5,403.3 283.2,400.2 
		279.8,397.4 282.2,385.6 284.5,374 286.2,363.9 288.5,354.8 288.2,349.5 285.8,348.1 280.9,345.8 275.2,344.4 265.6,341 
		256.3,337.9 248.6,335.4 239.3,331.7 230,328.6 223.7,326.4 216.7,323.5 210.1,322.1 210.4,326.1 211.7,332 213.4,336.8 214.4,341 
		214.7,343.6 217,345.5 222.7,349.8 230,354 237,357.9 246.6,363.3 252.3,367.2 258.6,370.6 262.6,373.7 265.6,376.8 266.9,378.8 
		267.6,383 267.9,388.4 268.6,397.4 269.6,404.7 270.2,413.8 271.5,427.9 274.2,443.7 275.9,455.5 277.9,469.3 281.2,482.3 
		284.5,494.4 287.2,502.9 289.8,513.9 294.5,527.7 296.7,533.6 299,538.1 299,540.7 295.4,536.4 287.5,524.6 279.5,513.3 
		271.5,501.2 262.2,487.7 255.6,476.1 245.6,460.9 234.6,441.9 228.7,432.1 220,415.7 211.4,398 205.4,383.6 200.7,370.3 
		197.1,358.5 194.1,346.7 192.1,337.1 190.9,326.9 190,318.5 190,311.7 190,307.2 	"/>
	<path style="fill:#F39C12;" d="M306,185.5c0,0-12.8,0.4-18.6,1.4c-9,1.7-24.8,6.2-42.3,12.2c-38.4,13.1-60.9,52.2-60.9,56.1
		s5.1,59.5,5.1,59.5l116.7-63V185.5z"/>
</g>
<g id="Layer_2">
	<polygon style="fill:#E08B10;" points="423.4,304.5 421.5,301.9 417.6,299.7 411.3,298 406.3,295.7 400.6,293.4 394.3,290.8 
		387.3,288.3 381,285.5 373.4,282.1 366.1,278.4 356.8,273.6 348.5,269.4 340.8,265.2 332.2,260.1 324.5,254.7 318.2,250.5 
		311.2,244.6 308.6,241.8 306,239.8 306,420 309.3,418.6 314,414.9 317.8,411.7 321.5,408.3 324.2,405.9 327.2,403.3 330.5,400.2 
		333.8,397.4 331.5,385.6 329.2,374 327.5,363.9 325.2,354.8 325.5,349.5 327.9,348.1 332.8,345.8 338.5,344.4 348.1,341 
		357.4,337.9 365,335.4 374.4,331.7 383.7,328.6 390,326.4 397,323.5 403.6,322.1 403.3,326.1 402,332 400.3,336.8 399.3,341 
		399,343.6 396.7,345.5 391,349.8 383.7,354 376.7,357.9 367.1,363.3 361.4,367.2 355.1,370.6 351.1,373.7 348.1,376.8 346.8,378.8 
		346.1,383 345.8,388.4 345.1,397.4 344.1,404.7 343.5,413.8 342.1,427.9 339.5,443.7 337.8,455.5 335.8,469.3 332.5,482.3 
		329.2,494.4 326.5,502.9 323.9,513.9 319.2,527.7 316.2,533.6 313,538.1 313,540.7 317.4,536.4 325.8,524.6 334,513.3 342,501.2 
		351.4,487.7 358.1,476.1 368.1,460.9 379,441.9 385,432.1 393.7,415.7 402.3,398 408.3,383.6 412.9,370.3 416.6,358.5 419.6,346.7 
		421.6,337.1 423.4,326.9 425,318.5 425,311.7 425,307.2 	"/>
	<path style="fill:#E08B10;" d="M305,185.5c0,0,13.6,0.4,19.4,1.4c9,1.7,25.1,6.2,42.7,12.2c38.4,13.1,61.1,52.2,61.1,56.1
		s-3.9,56.4-3.9,56.4L305,251.9V185.5z"/>
</g>
<g id="Layer_3">
	<polygon style="fill:#F39C12;" points="273,185.9 279.2,183.7 284.1,181.8 288.8,180.8 293.4,180 298.2,179 302,179 305,179 
		305,155.3 300.1,156.9 294.7,158.6 288.6,160.9 280.6,164.6 276.8,166.7 272.5,169 265.7,172.5 260.2,176.1 	"/>
</g>
<g id="Layer_6">
	<polygon style="fill:#E08B10;" points="337.5,185.9 331.3,183.7 326.4,181.8 321.8,180.8 317.1,180 312.3,179 308.6,179 305,179 
		305,155.3 310.1,156.9 315.7,158.6 321.9,160.9 329.9,164.6 333.7,166.7 338,169 344.8,172.5 350.3,176.1 	"/>
</g>
<g id="Layer_7">
</g>
<g id="Layer_4">
	<polygon style="fill:#E74C3C;" points="256,166.4 264.3,160.8 272,156.9 281.6,151.7 288.7,149.1 295.1,147.6 300.8,146 305,146 
		305,38.6 296.8,41.3 291.1,44.5 295.7,85 288.4,46.4 279.6,52.1 269.7,59 289,112.6 268,60.5 264.7,63.9 260.7,67.9 256,73.6 
		249.6,81.4 242.3,90.6 267.7,116.1 240.4,92.9 234.4,101.2 229.5,109.4 220.3,127.1 212,142.9 206.2,156.1 195.8,181.6 
		201.1,178.7 205.4,175.5 209.9,173 214.1,170.9 221,167.9 230.8,164.3 241.3,162.5 248.1,163.1 253,164.3 	"/>
</g>
<g id="Layer_5">
	<polygon style="fill:#C0392B;" points="355.6,166.4 347.2,160.8 339.5,156.9 329.8,151.7 322.7,149.1 316.3,147.6 310.5,146 
		305,146 305,38.6 313.9,41.3 319.9,44.5 316.5,78 322.9,46.4 331.8,52.1 341.8,59 322.7,119.6 343.6,60.5 346.8,63.9 350.9,67.9 
		355.6,73.6 362,81.4 369.3,90.6 350.3,110.1 371.3,92.9 377.3,101.2 382.2,109.4 391.5,127.1 399.9,142.9 405.7,156.1 416.2,181.6 
		410.8,178.7 406.5,175.5 402,173 397.7,170.9 390.8,167.9 380.9,164.3 370.4,162.5 363.5,163.1 358.6,164.3 	"/>
</g>
</svg>
