<?xml version="1.0" encoding="utf-8"?>
<!-- Generator: Adobe Illustrator 16.0.0, SVG Export Plug-In . SVG Version: 6.00 Build 0)  -->
<!DOCTYPE svg PUBLIC "-//W3C//DTD SVG 1.1//EN" "http://www.w3.org/Graphics/SVG/1.1/DTD/svg11.dtd">
<svg version="1.1" id="Layer_1" xmlns="http://www.w3.org/2000/svg" xmlns:xlink="http://www.w3.org/1999/xlink" x="0px" y="0px"
	 width="600px" height="600px" viewBox="0 0 600 600" style="enable-background:new 0 0 600 600;" xml:space="preserve">
<g>
	<g>
		<defs>
			<rect id="SVGID_1_" x="9.8" width="579.3" height="600"/>
		</defs>
		<clipPath id="SVGID_2_">
			<use xlink:href="#SVGID_1_"  style="overflow:visible;"/>
		</clipPath>
		<path style="clip-path:url(#SVGID_2_);fill:#454545;" d="M469.2,392l-89.7,89.7c-1.2,1.2-1.2,3.1,0,4.3l26.8,26.8
			c1.2,1.2,3.1,1.2,4.3,0l13.7-13.7c1.2-1.2,3.1-1.2,4.3,0l73.1,73.1c36.7,36.7,38.9,34.5,65.7,7.7c26.7-26.8,29-29-7.7-65.7
			l-73.1-73.1c-1.2-1.2-1.2-3.1,0-4.3l13.7-13.7c1.2-1.2,1.2-3.1,0-4.3L473.5,392C472.4,390.8,470.4,390.8,469.2,392L469.2,392z
			 M537.6,524.4l-25.7,25.7c-3.3,3.3-8.7,3.3-12,0c-3.3-3.3-3.3-8.7,0-12l25.7-25.7c3.3-3.3,8.7-3.3,12,0
			C540.9,515.7,540.9,521.1,537.6,524.4L537.6,524.4z M500.6,487.4l-25.7,25.7c-3.3,3.3-8.7,3.3-12,0c-3.3-3.3-3.3-8.7,0-12
			l25.7-25.7c3.3-3.3,8.7-3.3,12,0C503.9,478.7,503.9,484.1,500.6,487.4L500.6,487.4z M500.6,487.4"/>
		<path style="clip-path:url(#SVGID_2_);fill:#9F9F9F;" d="M369.9,342.1c-18.4,16-34.5,29.3-51.6,43.1c-0.8,0.7-2.2,2.4-0.5,3.6
			c29.4,23.2,50.7,38.9,61.3,46.6c3.9,2.9,6.1,4.4,8.7,1.8c8.8-8.8,25.8-25.8,35.3-35.3c2.6-2.6,2-4.8-0.6-7.6
			c-7.7-8.3-26-28.1-48.4-52.3C373.5,341.3,372.3,340.1,369.9,342.1L369.9,342.1z M369.9,342.1"/>
		<path style="clip-path:url(#SVGID_2_);fill:#9F9F9F;" d="M225.6,308c19.6-21.2,37.3-40.2,56.9-61.4c1-1.3,0.1-3.4-0.7-4.2
			c-15.1-16.3-28.4-30.5-37.8-40.6C198.3,153,80.6,4.4,80.6,4.4S72.4-6.5,69.4,5.7C64.4,26,55.2,72.6,77,136.4
			c16.6,48.5,79.2,113.8,143.6,171.3C221.6,308.5,223.7,309.6,225.6,308L225.6,308z M225.6,308"/>
		<path style="clip-path:url(#SVGID_2_);fill:#B7B7B7;" d="M527.8,5.7c-3-12.2-11.2-1.3-11.2-1.3S398.8,153,353.1,201.9
			c-41.1,44-155.8,167.9-178.5,192.4c-2.5,2.7-3.2,4.9-0.6,7.6c9.5,9.5,26.5,26.5,35.3,35.3c2.6,2.6,4.8,1.1,8.7-1.8
			c40.2-29.4,268-199.4,302-299.1C541.9,72.6,532.8,26,527.8,5.7L527.8,5.7z M527.8,5.7"/>
		<path style="clip-path:url(#SVGID_2_);fill:#454545;" d="M123.6,392l-26.8,26.8c-1.2,1.2-1.2,3.1,0,4.3l13.7,13.7
			c1.2,1.2,1.2,3.1,0,4.3l-73.1,73.1C0.8,550.9,3,553.2,29.7,579.9c26.8,26.8,29,29,65.7-7.7l73.1-73.1c1.2-1.2,3.1-1.2,4.3,0
			l13.7,13.7c1.2,1.2,3.1,1.2,4.3,0l26.8-26.8c1.2-1.2,1.2-3.1,0-4.3L127.9,392C126.7,390.8,124.8,390.8,123.6,392L123.6,392z
			 M59.5,512.4c3.3-3.3,8.7-3.3,12,0l25.7,25.7c3.3,3.3,3.3,8.7,0,12c-3.3,3.3-8.7,3.3-12,0l-25.7-25.7
			C56.2,521.1,56.2,515.7,59.5,512.4L59.5,512.4z M96.5,475.4c3.3-3.3,8.7-3.3,12,0l25.7,25.7c3.3,3.3,3.3,8.7,0,12
			c-3.3,3.3-8.7,3.3-12,0l-25.7-25.7C93.2,484.1,93.2,478.7,96.5,475.4L96.5,475.4z M96.5,475.4"/>
	</g>
</g>
</svg>
