<?xml version="1.0" encoding="utf-8"?>
<!-- Generator: Adobe Illustrator 16.0.0, SVG Export Plug-In . SVG Version: 6.00 Build 0)  -->
<!DOCTYPE svg PUBLIC "-//W3C//DTD SVG 1.1//EN" "http://www.w3.org/Graphics/SVG/1.1/DTD/svg11.dtd">
<svg version="1.1" xmlns="http://www.w3.org/2000/svg" xmlns:xlink="http://www.w3.org/1999/xlink" x="0px" y="0px" width="600px"
	 height="600px" viewBox="0 0 600 600" style="enable-background:new 0 0 600 600;" xml:space="preserve">
<g id="Layer_2">
	<path style="fill:#F39C12;" d="M300,26.7c-2.6,0-5.2,1.5-6.6,4.6L259,105.4L180.9,274c-2.1,4.5-7,6-10.7,3.3l-158.2-117
		c-5.5-4.1-12.5,1.4-11.5,8.9l52.5,371.1c0.6,4.3,3.8,7.4,7.5,7.4L300,573.3h0V26.7z"/>
</g>
<g id="Layer_3">
	<path style="fill:#E08B10;" d="M300,26.7c2,0,5,1.5,6.4,4.6l34.2,74.1l78,168.6c2.1,4.5,6.9,6,10.6,3.3l158.2-117
		c5.5-4.1,12.5,1.4,11.5,8.9l-52.5,371.1c-0.6,4.3-3.8,7.3-7.5,7.3L299.8,573h0.2V26.7z"/>
</g>
</svg>
