<?xml version="1.0" encoding="utf-8"?>
<!-- Generator: Adobe Illustrator 16.0.0, SVG Export Plug-In . SVG Version: 6.00 Build 0)  -->
<!DOCTYPE svg PUBLIC "-//W3C//DTD SVG 1.1//EN" "http://www.w3.org/Graphics/SVG/1.1/DTD/svg11.dtd">
<svg version="1.1" xmlns="http://www.w3.org/2000/svg" xmlns:xlink="http://www.w3.org/1999/xlink" x="0px" y="0px" width="600px"
	 height="600px" viewBox="0 0 600 600" style="enable-background:new 0 0 600 600;" xml:space="preserve">
<g id="Layer_2" style="display:none;">
	<g style="display:inline;">
		<g style="opacity:0.4;">
			
				<image style="overflow:visible;" width="608" height="81" xlink:href="E178910C.png"  transform="matrix(0.9892 0 0 0.9892 0.4644 499.2529)">
			</image>
		</g>
		<path style="fill:#E1E2E2;" d="M167.3,442.4L26.8,544.2c0,0,36.7-9.2,78.7-7.6c42,1.6,85.5,7.6,85.5,7.6l60.8-101.9H167.3z"/>
		<path style="fill:#EEEFEF;" d="M251.9,442.4l-60.8,101.9c0,0,33.4-5.9,65-5.9c31.6,0,56,5.9,56,5.9V442.4H251.9z"/>
		<path style="fill:#E1E2E2;" d="M312.1,442.4v101.9c0,0,28.9-6.4,57.9-6.4s51.9,6.4,51.9,6.4l-51.9-101.9H312.1z"/>
		<path style="fill:#EEEFEF;" d="M443.8,442.4h-73.8l51.9,101.9c32.3-5.4,32.2-6.4,69.4-6.4c37.2,0,81.6,6.4,81.6,6.4L443.8,442.4z"
			/>
		<linearGradient id="SVGID_1_" gradientUnits="userSpaceOnUse" x1="98.7261" y1="456.8496" x2="204.166" y2="525.3231">
			<stop  offset="0" style="stop-color:#7FB8BE"/>
			<stop  offset="2.653172e-002" style="stop-color:#81BBC1"/>
			<stop  offset="0.1667" style="stop-color:#8BC9D0"/>
			<stop  offset="0.9032" style="stop-color:#8BC9D0"/>
			<stop  offset="1" style="stop-color:#7FB8BE"/>
		</linearGradient>
		<path style="fill:url(#SVGID_1_);" d="M170.4,444.1L47.8,535.3c0,0,19-4.9,58.1-5.4c39.1-0.5,90.2,7.9,90.2,7.9l54.9-93.7H170.4z"
			/>
		<linearGradient id="SVGID_2_" gradientUnits="userSpaceOnUse" x1="190.8979" y1="499.875" x2="316.5418" y2="486.6693">
			<stop  offset="0" style="stop-color:#83B7BD"/>
			<stop  offset="0.1235" style="stop-color:#8EC8CE"/>
			<stop  offset="0.2581" style="stop-color:#98D6DD"/>
			<stop  offset="0.7957" style="stop-color:#98D6DD"/>
			<stop  offset="1" style="stop-color:#83B7BD"/>
		</linearGradient>
		<path style="fill:url(#SVGID_2_);" d="M250.9,444.1l-56,93.7c0,0,23.5-5.9,63.5-5.9c40,0,53.7,4.7,53.7,4.7v-92.5H250.9z"/>
		<linearGradient id="SVGID_3_" gradientUnits="userSpaceOnUse" x1="309.8291" y1="493.8809" x2="416.0066" y2="488.3163">
			<stop  offset="0" style="stop-color:#7FB8BE"/>
			<stop  offset="0.1344" style="stop-color:#8BC9D0"/>
			<stop  offset="0.9032" style="stop-color:#8BC9D0"/>
			<stop  offset="1" style="stop-color:#7FB8BE"/>
		</linearGradient>
		<path style="fill:url(#SVGID_3_);" d="M312.1,444.1v92.5c0,0,26.4-4.7,55.8-4.7c29.5,0,50.7,5.9,50.7,5.9l-47.8-93.7H312.1z"/>
		<linearGradient id="SVGID_4_" gradientUnits="userSpaceOnUse" x1="413.5176" y1="531.5537" x2="498.2902" y2="462.9062">
			<stop  offset="0" style="stop-color:#83B7BD"/>
			<stop  offset="0.1235" style="stop-color:#8EC8CE"/>
			<stop  offset="0.2581" style="stop-color:#98D6DD"/>
			<stop  offset="0.7957" style="stop-color:#98D6DD"/>
			<stop  offset="1" style="stop-color:#83B7BD"/>
		</linearGradient>
		<path style="fill:url(#SVGID_4_);" d="M440.6,444.1h-69.8l47.8,93.7c0,0,30.7-5.7,66.3-5.7c35.6,0,73,4.5,73,4.5L440.6,444.1z"/>
		<polygon style="fill:#9DBF71;" points="408,503.1 410,503.3 410.2,503.6 407.8,503.6 408.9,504.4 424.9,504.7 418.7,503.4 
			412.3,503.4 411,502 412.2,502.2 414.6,502.1 413.3,500.8 406.6,500.9 404,499.9 403.7,499.3 398.1,497.6 399.2,499.7 		"/>
		<polygon style="fill:#9DBF71;" points="391.4,496.8 399.2,499.7 398.1,497.6 393,496.1 		"/>
		<polygon style="fill:#9DBF71;" points="417.4,502.2 425,502.2 425.1,501.2 426.2,500.6 425.8,500.1 426.6,499.8 423.6,496.4 
			422.5,496.2 421,495.1 419.6,495.1 419.5,496.2 418.8,496.6 411.7,498.6 413.2,500.6 		"/>
		<polygon style="fill:#9DBF71;" points="429.8,503.5 432.2,503.5 430.4,501.9 432.4,502.1 433.5,503.3 435.3,503.2 432.1,499.8 
			428.3,500.5 428.7,500.9 427.6,500.9 		"/>
		<polygon style="fill:#9DBF71;" points="484.3,513.2 477.4,511.6 473.5,508.5 468,506.4 465.1,506.3 468.2,510.2 462.4,510 
			460.5,509.7 458.7,508.1 461.9,508.4 463.3,507.4 456.9,506.2 450.8,506.2 448.9,508.6 447.1,508.6 446.3,507.9 441.2,508 
			436.1,511.7 431.6,511.7 427.6,513.1 431.8,518.8 429.5,519.9 430.3,520.9 444.2,519 456.6,518.8 464.8,522.5 479.5,522.7 
			488.1,518 488.1,515.2 		"/>
		<polygon style="fill:#9DBF71;" points="469.6,525.3 475,525.5 478.4,524.7 477.3,523.6 472.5,523.4 		"/>
		<polygon style="fill:#9DBF71;" points="513.2,520.3 511.3,520.4 509,518.7 505.3,518.8 508.2,521.5 505.8,522.3 499.8,522.6 
			492.5,525.2 491.3,525.7 492.3,526.6 497.4,526.3 507.2,523.5 509.8,522.6 513,522 515.8,521.2 		"/>
		<polygon style="fill:#9DBF71;" points="474.5,505.1 472.2,505.1 468.9,502.7 455.6,500.6 453.3,501.3 450.4,501.3 449.4,500.1 
			446,499.4 443.8,501 447.7,502.3 453.7,502.7 457.6,503.3 458.4,504 456.3,504 457.7,505.3 464.6,505.1 465.9,504 468.4,503.9 
			470.7,505.9 475.5,505.9 		"/>
		<polygon style="fill:#90B264;" points="370.4,494.2 368.9,495.5 370.5,496.7 373.9,496.1 373.5,494.5 		"/>
		<polygon style="fill:#9DBF71;" points="327,509.3 321.4,509 321.5,510.7 323.6,511.6 322.1,512.5 319.9,513.5 320,515.3 
			323.3,516.5 326.1,514.8 331.3,511.7 333.2,506.8 329.9,506.8 		"/>
		<polygon style="fill:#9DBF71;" points="437.4,504.7 437.2,504.1 435.5,504.1 435.8,504.5 		"/>
		<polygon style="fill:#9DBF71;" points="430.2,505.2 429.8,504.7 427.7,504.7 428.1,505.2 		"/>
		<polygon style="fill:#9DBF71;" points="433.5,505.5 433.3,505.2 434.6,505.2 434.2,504.8 435.1,504.7 434.7,504.3 432.7,504.3 
			432.2,504.7 431.3,505.2 431.7,505.6 		"/>
		<polygon style="fill:#9DBF71;" points="439.3,505.9 439,505.5 441.1,505.5 440.7,505.1 442.2,505.2 441.3,504.4 439.1,504.6 
			439.3,505 436.7,505.2 436.6,505.2 437.3,505.9 		"/>
		<path style="fill:#9DBF71;" d="M167.4,468.1l-1.8-0.2c-0.1,0.1-1.7,1.3-1.5,1.3c0.2,0,1.5,0,1.5,0L167.4,468.1z"/>
		<polygon style="fill:#9DBF71;" points="271.8,468.2 271.7,468.8 269.8,469 269,470.5 271.3,470.5 274.4,470.3 276.3,469.3 
			274.7,469 274,468.4 273.1,467.3 273.1,465.6 270.5,465.9 269.6,466.5 269.3,467.1 270.3,467.6 		"/>
		<polygon style="fill:#9DBF71;" points="269.5,468.7 270,467.8 268.6,467.5 266.4,467.7 264.3,469.1 263.9,469.9 265.7,469.9 		"/>
		<polygon style="fill:#9DBF71;" points="313.4,511.2 318.5,508.5 317.2,504.3 315,502.8 324.2,499 333.4,492.9 331.5,492.5 
			321.3,493.4 318.6,492.9 312.1,487.4 312.1,511.8 		"/>
		<polygon style="fill:#9DBF71;" points="395.3,491.7 401.9,494.1 404.7,494.2 407.5,493.2 405.7,491.6 398.4,489.5 396.8,487.7 
			397.7,486.7 400.8,487.1 401.3,488 403.8,489.1 404.9,488.6 403.1,487.3 410,486 412.3,484.6 409.7,482.2 400.3,478.9 398,476.2 
			400.8,476.2 412.6,479.5 414.8,479.2 412.2,478.1 406.2,476.7 404.6,474.5 410,474.6 408,471.9 404.7,470.5 405.3,469.8 
			409.1,471.2 409.4,470.6 404.3,468.6 395.8,468.1 393.8,467 394.6,465.2 397,465.9 402.6,466.2 406.9,463.7 408.8,464.5 
			408.6,465.8 409.9,467.1 419.1,469.9 420.6,469.3 417.8,467.4 411,465.2 416.5,464.9 415.5,464 417.9,463.7 414.9,462.9 
			414.3,462.2 420.6,462.8 421.1,462.2 411.4,460.3 383.2,459.5 380,458.7 378.2,458.6 395.3,492.2 		"/>
		<polygon style="fill:#9DBF71;" points="409,499.9 409,499.1 396,493.6 397.4,496.3 		"/>
		<path style="fill:#90B264;" d="M396,493.6l-0.6-0.2l-0.1-1.1l-17.1-33.6l-2.5-0.2l-3.1-0.1L371,460l-1.2-0.1l-4.7-1.6h-10.7
			l-5.7-1.8l-9.6,0.4l-6.9,2l0.6,2.4l-2.3,0.4l-1-2.4l-1-0.8l-2.7-0.4l-0.4,1.4l1,1.1l-9.5-0.4l-4.5,1.2l-0.2-0.4v24.3l7,3.8
			l0.4,1.8l2.5,1.1l5-0.1l9.7-3.3l3-0.9l-0.3-1.1l-3.4-0.2c0,0-12-2.5-12-2.6c0-0.1-0.2-2.2-0.2-2.2h2.5l0.6,1.5l5.5,1.4l6.1,0.1
			l13.6,1l3.5,0.9l0.5,1.4l0.3,1.9l9.3,5.2l2.5,0.2l1.7-1.5l-0.7-4.2l1.2-2.3l3.4-0.6l6.7,0.3l10.4,3.3l3.1,4.8l3.5,1.1L396,493.6z
			 M328.1,478.4l-2.2-0.1l-0.5-0.3l-3.5-0.1l0.2-0.6l1.7-0.8l-0.1-0.7l-3.6-1.3l-0.3-1.6l0.6-0.8l2.7-0.1l2.4,0.5l0.2,0.8l-3.3-0.1
			l-0.1,0.8l4.4,1.4l0.2,1l2,0.7l0.1,0.7L328.1,478.4z"/>
		<path style="fill:#9DBF71;" d="M311.6,460.4l-1.1,0.2l-0.8,1.3l-2.4,1.1l-5.9-0.1l-0.2-0.7l6.2-0.2l1.3-0.6l-7.2-2l-8.8,0.2
			l-5.3,1.5l-2.4,2l-3.6,0.8l-1.7,0.9l0,1l1.8,0.1l0.7,1.5l3.3-0.7l0,2h-1l-2.6-0.2l-3,0.3l-3.5,2.1l-4.2,0.3l-1.3,1.9l1.7,0.2
			l-0.9,1.2l-4-0.4l-4,0.4l-1.3,1.1l-0.3,2.3l2.1,0.5l3.9,0l2.7-0.1l1.2-1l5-2.7l2.6,0.3l2.9-1.2l0.2,0.9l6,2.2l-0.9,0.5l-2.9-0.1
			l1,0.8l1.8,0.2l2.2-0.4l0.2-1.3l1-0.2l-0.7-0.4l-4-1.2l-0.7-1.6h3.5l1,0.6l2.8,1.3l-0.1,1.6l3,1.7l1.5-2.4l2.3-0.6l0.2,1.9
			l2.1,1.2l6.7-0.1l2,0.7l0,1.7l-2.5,1.1h-7l-4.1-1.5l-4.5,0.2l-0.2,1.3h-1.4l-1.4-0.5l-7.5-0.9l0.6-2.4l-9.6,0.4l-3.3,0.8h-3.8
			l-1.8-0.1l-5.2,1.3l-1.1,2.4l-11.6,3.3l0.1,1.4h2.1l-1.3,1.4l-1.6,0.2l-2,3.6l7,4.6h4.1l0.4-0.3h7.4l2.4-0.8h4.2l2,1l6.2,0.3
			l-1.8,3.5l6.1,5.2l-4.6,3l-0.1,1.4l2.9,1.2l-0.7,3.3l3.9,2.2l-0.5,2.8h13.2l10-3.7l3.1-2l3.8-0.3l0-1.7l1.1-0.5v-24.4L308,484
			l0.7-0.4l3.4,1.8v-24.3L311.6,460.4z M297.2,462.1l-3.8,1.3l-0.1,0.8l2,0.5l0,1.1l-3.4,2.5l-5.3,0l-0.2-0.6l3.5-0.9l0.7-3.4
			l5.7-2.1h1.1L297.2,462.1z M308,476.6l-5.4-0.1l-1.6,0.1l0.2-1.8l1.2-0.7l1.3-0.2l2.8-0.2l0.6-0.5l1.1,0.3l0.1,1.7l3.1,0.6
			l0.3,0.8H308z"/>
		<path style="fill:#9DBF71;" d="M219.9,474.1l1.5-0.1l1.1-0.3l0.7-0.6l1.2-0.1l0.8-0.5l-1-0.1l-0.9,0l-1,0.6H220l-0.5,0.6h0.6
			C220,473.8,219.9,473.9,219.9,474.1z"/>
		<polygon style="fill:#9DBF71;" points="218.2,473.6 217.6,473.2 216.4,473.7 215.8,474.3 217.5,474.2 		"/>
		<polygon style="fill:#9DBF71;" points="213.1,512.2 217.8,507.2 223.8,504.9 225.5,503.4 221.7,502.9 220.2,501.1 216.8,501.1 
			210.5,512.2 		"/>
		<path style="fill:#90B264;" d="M205,500l1.3-2.1l-0.9-1.7l-6.2,0l-1.5-2.4l-2.5-0.7l-0.8,0.7l-5.9,0.1l-0.9-1.3l-5.4-0.5l-7.4,2.5
			l-7.1-0.6l3.7-3.8l-5-0.4l4.3-1.8l0.6-1.1l-9.6,2.1l-4.2-0.2l0.4-1.6l3-1.6l4.9-2l7-1.3l10.4,0l-1.7,1.5l2.9,0.8l2.4-2.6l4-1.3
			l7-1.7l1.5-1.2l7.7-2.7l6.8-1.5l-0.3-0.2l5.1-1.7l1.1,0.2l0.3,0.4l2-0.8l0.4-0.1l-1.4-0.1l-1.3-0.3l0.7-0.8l1.1-0.3h1.7l0.6,0.2
			l0.1,0.7l0.9-0.1l0.1-0.1l0.2,0l2.6-0.2l0.8-0.6l1.2,0.2l-0.5,0.7l-1.7,0.5h0l-0.4,0.7l3.9,0.7c0,0,0,0,0,0l1.1,0l0.8-1l-2.9-0.8
			l0.2-0.5l3.3-0.5l1.2-1.5l-2.2-1l1.7-2.5l-4.8,1.1h-1.4l1.9-1.9l-4.7-0.7l-3,0.9l-2.5,2.9l-4.7,0.7l-3.4,1.9l-2,0.2l2.3-2.4
			l-3.5-0.3l-1.2-0.7l0.8-1.5l8.8-2.2l3.7-0.6l-0.8,1.2l1.8-0.1l0.7-0.6l2-0.2l0.2-0.2l-0.6-0.2l0.4-0.7l2.4-0.1l2.1-0.8l0.1-0.1
			l0,0l0.6-0.2l5-0.3l1.3,1l-6.9,1.7l6.4,1l2-1.4h3.1l0.6-0.4l0.5-0.9l-1.1-0.2l1.1-1.5l-5.2-1.7l-4.8,0.3l-3.3,0.8l-1.5,1.9
			l-2.5-0.2l0.6-1.1l3.8-1.4l-4.5-0.1l-1.6,0.2l-1.5,0.9l1.6,0.2l-1.3,1l-3.1,0.1l-1.2,0.7l-4.5,0.1c0,0,1.4-1.5,1.2-1.5
			c-0.2,0,3.5,0,3.5,0l4-1.5l-1-0.4l-2.9,1.1l-3-0.1l-0.2-1.5H210l-6.2,1.8h3.8l-0.4,0.7l-1.6,0.6l4.2,0.1l-0.3,0.9l-4.7-0.1
			l0.5-0.7l-2.6-0.4l-1-0.5l-7.1,0l-3.8,1.3l-1.4-0.1l-0.9-0.6l-3.7-0.9h-8.9l-8.3,2.1l-4,0.3l-2.8,0.7l2.2,0.2l-0.9,0.6h-5.5
			l-3.5,0.9l0.7,1.3l7.6,0l2-0.6h6.4l0.7,1.2l-2.6,1.8l0.6,1l-2.6,0.6l-2.9,2.3l-11.9,3.9l-5.4,3.7l2.4,0.8l-4.7,3.3l-0.4,2.9
			l2.7,0.2l1.7-1l0-2.5l2.7-2.4h1.9l-2.6,2.5l0.4,3.4l-2.8,1.1l0.3,2.3l7.1,0.9l0.7-0.6l3,0.2l-1.6,1l2.4,0.2l3.5,0.5l2.5,2.9
			l7.2,0.2l-2,2.6l-6.9,1.5l-2.8,2.3l-2.4,1.4l3.7,4l-0.8,1.4c0,0,2.6,0.3,3,0.3c0.4,0,4.9,1.8,4.9,1.8l-7,7.2l2.2,0.2l-4.9,3.3
			l2.3,1.9l-3.9,3.3l2.5,3.4l1.5,2.2l7.5,0l1.4-0.8L170,530l1-0.8l1.8-0.9l1-1l-3.6,0l-1.1-0.8l3.8-1l1-0.7l-3-0.3l0.8-0.7l4.9-0.3
			l8.1-1.2l3.6-1.5l9.8-3.3l0.3-2.6l3.2-1.4l6.4,0.1l2.6-1.3l6.2-11.1l-5.5,0L205,500z M200,475.4l-1.8,0.6h-2.6l1.4-0.9l1.3-0.1
			l0.6-0.3l2-0.1L200,475.4z M199,474.3c0,0,1.3-1.3,1.4-1.4h2.7l-0.8,0.8l-1.6,0.4L199,474.3z M204.9,475.1h-2.6l-0.2-0.5l0.8-0.8
			h0.2l2.6,0.5L204.9,475.1z M205.5,472.8l0.9,0.4l-1.4,0.4l-0.6-0.4L205.5,472.8z M203.1,471.6l0.9,0.8l-1.9,0.2L203.1,471.6z
			 M202,471.2l-0.5,0.5h0.7l-0.9,0.9h-4.8l-1.5-0.3l1.1-0.6l2.8-0.5H202z M194.3,470l0.3-1.4l2.6-0.5l1.6,0.2l-2.1,1.3L194.3,470z
			 M195.6,461.8L195.6,461.8l1.7-0.1l0.5-0.3h2.6l-0.8,0.7l-1.4,0.6h-3.6L195.6,461.8z M195.8,463.8c0,0,1.8-0.2,1.9-0.2
			c0.1,0-1.1,0.9-1.1,0.9l-3.8,0.1l-0.1-0.5L195.8,463.8z M193.1,474l3-1h2.7l-6.1,2.5l-1-0.4L193.1,474z"/>
		<polygon style="fill:#9DBF71;" points="242.2,461.3 240.9,461.1 239.9,462.6 240.4,462.6 		"/>
		<g>
			<g>
				
					<image style="overflow:visible;" width="151" height="11" xlink:href="E178910D.png"  transform="matrix(0.9892 0 0 0.9892 327.8955 452.7598)">
				</image>
			</g>
		</g>
		<g>
			<g>
				
					<image style="overflow:visible;" width="108" height="8" xlink:href="E1789102.png"  transform="matrix(0.9892 0 0 0.9892 396.1523 504.2002)">
				</image>
			</g>
		</g>
		<g>
			<g>
				
					<image style="overflow:visible;" width="189" height="13" xlink:href="E1789103.png"  transform="matrix(0.9892 0 0 0.9892 97.4082 454.7383)">
				</image>
			</g>
		</g>
		<g>
			<g>
				
					<image style="overflow:visible;" width="374" height="26" xlink:href="E1789104.png"  transform="matrix(0.9892 0 0 0.9892 134.0093 497.2744)">
				</image>
			</g>
		</g>
	</g>
</g>
<g id="Layer_1">
	<g>
		<g>
			<path style="fill:#F9521E;" d="M505.8,127.2C467.4,52.5,390.4-0.4,300-0.4c-90.4,0-231.1,76-231.1,232.8
				c0,37.9,9.2,73.6,25.4,105.2C132.6,412.3,300,600.4,300,600.4s231.1-240.5,231.1-368C531.1,194.5,522,158.8,505.8,127.2z
				 M300,348.4c-63.9,0-116-52-116-116c0-48.4,29.8-89.9,71.9-107.3c13.6-5.6,28.5-8.7,44-8.7c64,0,116,50.4,116,114.3
				c0,48.4-29.8,91.6-71.9,108.9C330.4,345.3,315.6,348.4,300,348.4z M473,254.1c0.2-0.3,0.4-0.7,0.6-1c0,0.1-0.1,0.1-0.1,0.2
				C473.4,253.5,473.2,253.8,473,254.1z M470.6,257.7c0.1-0.2,0.2-0.3,0.3-0.5C470.9,257.4,470.7,257.6,470.6,257.7z"/>
		</g>
		<path style="fill:#E03905;" d="M300,131.9c55.5,0,100.6,43.7,100.6,99.1c0,41.9-25.8,79.4-62.4,94.5c-11.8,4.9-24.7,7.6-38.2,7.6
			c-55.4,0-100.6-45.1-100.6-100.6c0-41.9,25.8-77.9,62.4-93C273.6,134.5,286.5,131.9,300,131.9 M300,101c-17.2,0-34,3.3-49.9,9.9
			c-49.5,20.4-81.5,68.1-81.5,121.5c0,72.5,58.9,131.4,131.4,131.4c17.2,0,34-3.3,50-9.9c48.7-20.1,81.5-69.5,81.5-123
			C431.4,159.3,372.5,101,300,101L300,101z"/>
	</g>
</g>
</svg>
