<?xml version="1.0" encoding="utf-8"?>
<!-- Generator: Adobe Illustrator 16.0.0, SVG Export Plug-In . SVG Version: 6.00 Build 0)  -->
<!DOCTYPE svg PUBLIC "-//W3C//DTD SVG 1.1//EN" "http://www.w3.org/Graphics/SVG/1.1/DTD/svg11.dtd">
<svg version="1.1" id="Layer_1" xmlns="http://www.w3.org/2000/svg" xmlns:xlink="http://www.w3.org/1999/xlink" x="0px" y="0px"
	 width="600px" height="600px" viewBox="0 0 600 600" style="enable-background:new 0 0 600 600;" xml:space="preserve">
<g>
	<g>
		<defs>
			<rect id="SVGID_1_" x="2" y="1.9" width="598" height="598.1"/>
		</defs>
		<clipPath id="SVGID_2_">
			<use xlink:href="#SVGID_1_"  style="overflow:visible;"/>
		</clipPath>
		<path style="clip-path:url(#SVGID_2_);fill:#454545;" d="M599.3,598.6l-15.9-44.7L445.2,415.7c10.4-17.7,19.5-37,27.1-57.7
			c19.7-53.7,29.7-117.2,29.7-188.7v-18.4h-18.4c-1.3,0-2.6,0-3.9,0l42-42c1.4,1.1,2.8,2.3,4.1,3.6c12.5,12.5,15,31.1,7.7,46.1
			c14.9,6.8,33,4.2,45.3-8.1c12.2-12.2,14.9-30.4,8.1-45.3c-15,7.3-33.6,4.8-46.1-7.7c-1.3-1.3-2.5-2.6-3.5-4l32.8-32.8
			c9.2,6.4,25.4,0.7,28.2-2.1c4.4-4.4-4.4-20.4-19.8-35.8C563,7.5,547-1.4,542.6,3c-2.9,2.9-8.6,19-2.1,28.2L507.7,64
			c-1.4-1.1-2.8-2.3-4.1-3.5c-12.5-12.5-15-31.1-7.7-46.1c-14.8-6.8-33-4.2-45.3,8.1c-12.2,12.2-14.9,30.4-8.1,45.3
			c15-7.4,33.6-4.8,46.1,7.7c1.3,1.3,2.5,2.6,3.5,4.1l-64.4,64.4C340.2,121,300.6,50.1,300.6,50.1s-38.7,71.2-127.1,93.9L109,79.5
			c1.1-1.4,2.3-2.8,3.5-4.1c12.5-12.5,31.1-15,46.1-7.7c6.8-14.9,4.2-33-8.1-45.3c-12.2-12.2-30.4-14.9-45.3-8.1
			c7.4,15,4.8,33.6-7.7,46.1c-1.3,1.3-2.6,2.5-4,3.5L60.8,31.3C67.2,22,61.5,5.9,58.7,3c-4.4-4.4-20.4,4.4-35.8,19.8
			C7.6,38.1-1.3,54.2,3.1,58.6c2.9,2.9,19,8.6,28.2,2.1l32.8,32.8c-1.1,1.4-2.3,2.8-3.5,4c-12.5,12.5-31.1,15-46.1,7.7
			c-6.8,14.9-4.2,33,8.1,45.3c12.2,12.2,30.4,14.9,45.3,8.1c-7.4-15-4.8-33.6,7.7-46.1c1.3-1.3,2.6-2.5,4-3.6l42,42
			c-1.3,0-2.6,0-3.9,0H99.2v18.4c0,71.5,10,135,29.7,188.7c7.6,20.7,16.7,40,27.1,57.7L17.9,553.9L2,598.6l45.3-15.3l132.6-132.6
			c5,6.4,10.3,12.5,15.8,18.3c49,52,98.7,63.9,100.8,64.4l4.1,1l4.1-1c2.1-0.5,51.8-12.4,100.8-64.4c5.5-5.8,10.8-11.9,15.8-18.3
			l132.6,132.6L599.3,598.6z M378.7,443.8c-33.2,35.2-66.5,48.6-78.1,52.5c-11.6-3.9-45-17.3-78.1-52.5
			c-24.9-26.4-44.7-59.5-59-98.5c-16.6-45.2-25.7-98.3-27.3-158.2c80.5-5.4,134-45,164.6-77.3c30.8,32.1,84.5,71.8,164.2,77.2
			c-1.5,59.9-10.6,113-27.3,158.2C423.5,384.3,403.6,417.4,378.7,443.8L378.7,443.8z M378.7,443.8"/>
	</g>
</g>
</svg>
