<?xml version="1.0" encoding="utf-8"?>
<!-- Generator: Adobe Illustrator 16.0.0, SVG Export Plug-In . SVG Version: 6.00 Build 0)  -->
<!DOCTYPE svg PUBLIC "-//W3C//DTD SVG 1.1//EN" "http://www.w3.org/Graphics/SVG/1.1/DTD/svg11.dtd">
<svg version="1.1" id="Layer_1" xmlns="http://www.w3.org/2000/svg" xmlns:xlink="http://www.w3.org/1999/xlink" x="0px" y="0px"
	 width="600px" height="600px" viewBox="0 0 600 600" style="enable-background:new 0 0 600 600;" xml:space="preserve">
<g>
	<path style="fill:#231F20;" d="M301.2,160.2c30,8.3,52.5,12.2,52.5,12.2c-12.9-12.9-24.4-26.2-34.4-38.7
		c17.4-24.7,31.2-41.7,31.2-41.7c-18.5,4.1-36,9.1-51.7,14.2c-14.9-21.4-23-36.4-23-36.4c-4.3,16-6.5,32.1-7.2,47.2
		c-24.9,9.6-40.4,17.5-40.4,17.5c13.4,6.1,27.4,11.3,40.9,15.9c2.2,29,8.1,49.2,8.1,49.2C284.7,186.1,293,172.8,301.2,160.2"/>
	<path style="fill:#231F20;" d="M438.4,152.6c-4.1,6.4-10.3,11-17.7,14.2c-1-20.5-4.1-38.7-4.1-38.7c-6.2,16.9-12.9,31.8-19.3,44.7
		c-22,2.8-43.6-0.4-43.6-0.4c11.9,14.2,21.1,22.7,28.5,28.4C371,219.6,363,229.6,363,229.6c15.6-3.6,28-9.5,37.9-16.5
		c4,2.8,7.5,5.9,10.9,11.1c0,0,6.4-9,8.5-29.9C436,173.7,438.4,152.6,438.4,152.6"/>
	<path style="fill:#231F20;" d="M431.2,95.7C424.2,79.9,414,68,403,59c-9.4-19.8-20.2-28.9-20.2-28.9c0.9,4.6,0.2,9.7-1.5,15
		c-23.4-11.6-44.8-13.2-44.8-13.2c13.6,8.9,25.7,20,36.1,31.4C363,78.9,350.4,92,350.4,92c16.7-3.8,30.1-5.3,40.8-5.6
		c16.5,22.7,25.3,41.7,25.3,41.7c0.3-15.3-1.2-28.7-3.8-40.2C426.8,90.5,431.2,95.7,431.2,95.7"/>
	<path style="fill:#231F20;" d="M336.5,31.9c-11.4-5.7-22.2-9.7-32.4-12.4C317,8.6,329,5.9,329,5.9c-20.7-0.8-38.5,2.9-53.3,8.6
		c-22.2-1.8-36.4,2.1-36.4,2.1c3.3,2.5,6.1,7,9,12.4C229.5,41.8,220,55.2,220,55.2c11.3-5.6,23.3-9.9,35.2-13.1
		c1.3,2.4,2.6,4.7,4.1,7.1c7.8,12.2,16.5,20.7,16.5,20.7c3.1-14.6,8.4-26,14.4-34.9C316.6,31.3,336.5,31.9,336.5,31.9"/>
	<path style="fill:#231F20;" d="M193.8,77c7.1-6.9,15.7-14.2,26.1-21.8c0,0-9.6,0-19.8,2.6c6.7-16.3,14.2-25.4,14.2-25.4
		s-42.9,30.5-51,85.3c0,0,3.6-9.9,15.8-24.9c4.9,10.9,10.4,17.7,10.4,17.7C189.7,98.1,191.4,86.8,193.8,77"/>
	<path style="fill:#231F20;" d="M228.2,134.5c-14.9,0.5-26.6,1.8-35.6,3.4c-2.6-15.9-3-27.4-3-27.4c-7.3,11.2-12.1,22-15,32.1
		c-10.4,3.8-13,7.6-13,7.6c1.6,5.5,4.8,10.9,8.9,15.9c-1.3,23.9,6.4,39.6,6.4,39.6c1.7-8.4,5.2-16.5,9.5-24.1
		c12.7,10.2,25.3,16.8,25.3,16.8c-5.9-10.6-10.3-22.5-13.5-34C212.5,146.6,228.2,134.5,228.2,134.5"/>
	<path style="fill:#231F20;" d="M301.8,256.4c0,0-12.5-5-30.4-15.1c0.6-10.8,2.3-24.4,5.7-41.8c0,0-14.2,14.1-32.6,25
		c-10.7-7.4-21.9-16-32.8-26c0,0,5.3,16.4,15.5,34.4c-9.7,3.6-19.7,5.3-28.9,3.1c0,0,10.8,13.5,44.1,19.2c9.2,11,20.5,20,33.6,23.2
		c0,0-4-4.4-4.8-20.7C280.5,257.9,290.6,257.5,301.8,256.4"/>
	<path style="fill:#231F20;" d="M362.2,255.1c2.9-13.2,0.7-25.4,0.7-25.4c-8.4,12.1-16.7,21.4-24.4,28.4
		c-20.6,1.1-36.7-1.6-36.7-1.6s9.2,9.2,19.8,14.5c-14,8.7-23.4,9.4-23.4,9.4c61.4,1.3,98.2-38.8,98.2-38.8
		C386.1,248.5,374.1,252.6,362.2,255.1"/>
	<path style="fill:#231F20;" d="M234,418.3c15.5-17.8,38.3-29,63.8-29c26.2,0,49.6,11.9,65.1,30.5l4.1-3.8
		c-16.5-19.7-41.4-32.2-69.1-32.2c-27,0-51.2,11.9-67.8,30.7L234,418.3"/>
	<polyline style="fill:#231F20;" points="290.6,373.5 265.8,378.6 259.5,348.6 284,343.5 285.1,349 269.1,352.4 270.4,358.7 
		285.7,355.5 286.8,361 271.5,364.2 273,371.4 289.4,368 290.6,373.5 	"/>
	<polyline style="fill:#231F20;" points="337.8,354.1 323.1,351 321.7,357.7 336.4,360.8 335.3,366.3 320.5,363.2 317.9,375.5 
		309.5,373.7 315.9,343.7 339,348.6 337.8,354.1 	"/>
	<path style="fill:#231F20;" d="M373.6,405.4l-7.3-6.9l1.2-6.6l-12.6-8.8l-5.6,3.5l-8.4-4.7l29.8-17.8l8.1,5.7L373.6,405.4
		 M371,372.6l-11.3,7.1l8.9,6.2L371,372.6z"/>
	<path style="fill:#231F20;" d="M237.4,393.1c-5.5,4.4-14.8,7.9-21.6-0.1l-9.8-12.6l6.6-5.2l9.7,12.4c3.5,4.1,7.9,3.3,11.3,0.6
		c3.5-2.7,5.3-6.8,2.1-11.2l-9.7-12.4l6.6-5.2l9.8,12.6C248.2,380.1,244.6,387.4,237.4,393.1"/>
	<path style="fill:#231F20;" d="M403.7,375.5c-26.4-27.8-63.7-45.1-105.1-45.1c-41.8,0-79.5,17.7-106,46.1l-4.5-4.5
		c27.8-29.1,67-47.2,110.4-47.2c43.1,0,82,17.8,109.7,46.5L403.7,375.5"/>
	<path style="fill:#231F20;" d="M433.4,497.3c-18.3,0-29.5-15.4-29.5-32.2c0-17.5,13-30.2,29.9-30.2c18.8,0,30.1,14.9,30.1,31.3
		C464,485.6,449.9,497.3,433.4,497.3 M432.3,443.7c-11.4,0-14.8,10.9-14.8,18.2c0,10.8,4.8,26.5,18,26.5c9.4,0,14.8-8.4,14.8-18.4
		C450.3,459.4,446.2,443.7,432.3,443.7z"/>
	<path style="fill:#231F20;" d="M321.1,488.6c0,3.3,0.6,4.5,6,5.5v2.3c-5.8-0.3-9.4-0.6-12.8-0.6c-3.4,0-7,0.3-11.1,0.6v-2.3
		c3.6-0.7,4.2-2.2,4.2-6.5v-45c0-2.6-1.1-3.8-4.2-3.9v-2.6h27.3c17.1,0,23.2,8.1,23.2,18.8c0,11.4-8.7,18.4-20.6,18.4
		c-4.5,0-11.1-2.3-11.1-4.2c0-0.8,0.5-0.8,1.4-0.8c0.8,0,2,0.3,3.2,0.3c9.7,0,13.5-5.4,13.5-13.1c0-8.3-5.2-11.2-13.3-11.2l-5.7,0.6
		V488.6"/>
	<path style="fill:#231F20;" d="M371.5,442c0-2.6-1.1-3.8-4.3-3.9v-2.4c4.1,0.3,7.7,0.6,11.1,0.6c3.4,0,7-0.3,11-0.6v2.4
		c-3.1,0.1-4.2,1.3-4.2,3.9v48.3c0,2.6,1.1,3.8,4.2,3.9v2.3c-4.1-0.3-7.6-0.5-11-0.6c-3.4,0-7,0.3-11.1,0.6v-2.3
		c3.1-0.1,4.3-1.3,4.3-3.9V442"/>
	<path style="fill:#231F20;" d="M482.4,441.9c0-2.6-1.1-3.8-4.2-3.9v-2.4c4,0.3,7.6,0.5,11.1,0.6c2.5,0,5.3,0,8.1-0.6l25.4,41.2h0.2
		v-33.6c0-4.8-3-5.2-5.5-5.2v-2.4c3,0.3,6,0.6,8.8,0.6c3,0,6.1-0.3,9-0.6v2.4c-3.1,0.1-4.2,1.3-4.2,3.9v54.5h-9.8l-30.6-47.6h-0.2
		v40.1c0,4.8,3.1,5.2,5.5,5.2v2.3c-3-0.3-6-0.6-8.8-0.6c-3,0-6.1,0.3-9,0.6v-2.3c3.1-0.1,4.2-1.3,4.2-3.9V441.9"/>
	<path style="fill:#231F20;" d="M554.2,475.5c1.9,10.3,8.7,15.2,18.8,15.2c5.6,0,13.7-1.6,13.7-8.7c0-5.7-5.9-7.2-10.2-8.5l-6.7-2
		c-9.7-2.8-19.3-6.9-19.3-18.1c0-14.7,14.2-19.2,28.4-19.2c6,0,12.2,1,17.7,3c0,6.8,0.4,12.6,0.8,17.5h-2.4
		c-2-8.7-9.1-12.8-17.6-12.8c-4.7,0-12.7,1.5-12.7,8.1c0,5.2,4.6,6.7,8.4,7.9l10,2.9c9.6,2.7,18.5,6.3,18.5,18.6
		c0,12.5-12.6,19.2-28.1,19.2c-6.9,0-14.2-1.1-20.6-3.4c0-7.5-0.3-14-0.7-19.5H554.2"/>
	<path style="fill:#231F20;" d="M75,441.9c0-2.6-1.1-3.8-4.2-3.9v-2.4c4.1,0.3,7.6,0.6,11,0.6c3.4,0,7-0.3,11.1-0.6v2.4
		c-3.1,0.1-4.2,1.3-4.2,3.9v18.3H111v-18.3c0-2.6-1.1-3.8-4.3-3.9v-2.4c4.1,0.3,7.7,0.6,11.1,0.6c3.4,0,7-0.3,11.1-0.6v2.4
		c-3.1,0.1-4.2,1.3-4.2,3.9l0,48.3c0,2.6,1.1,3.8,4.3,3.9v2.3c-4.1-0.3-7.7-0.5-11.1-0.5c-3.4,0-7,0.3-11.1,0.5v-2.3
		c3.1-0.1,4.3-1.3,4.3-3.9V469H88.7v21.2c0,2.6,1.1,3.8,4.2,3.9v2.3c-4.1-0.3-7.6-0.5-11.1-0.5c-3.4,0-7,0.3-11.1,0.5v-2.3
		c3.1-0.1,4.2-1.3,4.2-3.9V441.9"/>
	<path style="fill:#231F20;" d="M163,470c2.4-6.5,5.3-13.8,7.5-21.2h0.2c1.8,9.3,3.4,15.2,5.3,21.2H163 M140.7,496.4
		c3.2-0.3,6.4-0.6,9.6-0.6c3.1,0,6.4,0.3,9.5,0.6v-2.3c-3-0.2-4.3-1.3-4.3-3c0-0.9,0.3-1.9,0.7-3.2l4.1-10.9h18l2.9,8.9
		c0.5,1.2,0.9,3.3,0.9,4.6c0,2.1-1.2,2.9-4.6,3.5v2.3c4-0.3,7.9-0.6,11.9-0.6c3.9,0,7.8,0.3,11.7,0.6v-2.3c-2.8-0.7-4.1-1.9-5.5-6
		l-17-52.5c-2.9,0.3-5.8,0.6-8.7,0.6c-2.9,0-5.7-0.3-8.7-0.6v2.4c2.5,0,3.5,1.5,3.5,2.4c0,0.9-0.6,2.2-1.2,3.6l-18.1,45.8
		c-0.9,2.4-2.1,3.9-4.8,4.3V496.4z"/>
	<path style="fill:#231F20;" d="M219.6,450.6c0.1-2.6,0.3-5.2,0.3-8.8c0-2.9-0.6-3.2-4.1-3.7v-2.4c2.8,0.3,6.1,0.6,9.4,0.6
		c3.3,0,6.6-0.3,9.9-0.6l16.1,42.7l14.5-42.7c3.2,0.3,6.4,0.6,9.6,0.6c3.2,0,6.5-0.3,9.6-0.6v2.4c-3.2,0.3-3.7,1.3-3.7,3.8
		c0,2.6,0.4,6.7,0.6,9.9l2.9,39.3c0.2,2.4,2.9,2.8,4.7,3v2.3c-4-0.3-8-0.6-12-0.6c-4.1,0-8,0.3-11.8,0.6v-2.3
		c4.5-0.6,5.7-1.4,5.7-5.6c0-2.2-0.3-6.4-0.5-9.4l-2.1-27.5h-0.2l-15.4,45.3h-7.8l-17.6-45.8h-0.2l-0.7,27c-0.1,4.8-0.3,7.3-0.3,9.8
		c0,4.6,0.5,5.6,6,6.3v2.3c-3.7-0.3-7.1-0.6-10.6-0.6c-3.4,0-6.8,0.3-9.7,0.6v-2.3c3.6-0.3,5.1-1.1,5.3-5L219.6,450.6"/>
	<path style="fill:#231F20;" d="M56.9,493c-6.3,4.8-15.4,6.8-21.3,6.8c-22,0-34.4-17-34.4-34.5c0-17.9,12.4-35.1,36.2-35.1
		c8.4,0,14.3,1.6,16.7,2.5c0,7,0.4,13.7,0.9,20.4h-2.7c-1.6-8.5-7.6-13-16.1-13c-11.6,0-20.5,9.1-20.5,24.6c0,11.6,9.6,24.7,23,24.7
		c5.7,0,13.9-3.1,19.4-7.7L56.9,493"/>
	<path style="fill:#231F20;" d="M156.7,529.7c0-2-0.9-2.9-3.3-3v-1.9c3.1,0.2,5.9,0.4,8.5,0.4c3,0,7.3-0.2,9.4-0.4v1.9
		c-3.6,0.1-4.1,1.9-4.1,3.9v34.8h13.2c4.7,0,6.6-2.1,7.8-7.6h2.3c-0.9,4.6-1.6,9.2-1.7,13.8h-35.4v-1.9c2.4-0.1,3.3-1,3.3-3V529.7"
		/>
	<path style="fill:#231F20;" d="M202,530c0-2-0.8-2.9-3.3-3v-2h35.9c0.1,3.9,0.2,7.1,0.6,11h-2c-0.7-3.9-1.7-5.3-5.5-5.3h-15.2v13.7
		h9.4c3.2,0,3.7-1.1,4.1-3.6h1.9c-0.2,1.8-0.4,4.8-0.4,6.8c0,1.9,0.2,5,0.4,6.8h-1.9c-0.4-2.6-0.9-3.6-4.1-3.6h-9.4v14.8h16
		c3.8,0,5-1.3,6.3-7.3h2.4c-0.6,5.8-0.8,9.6-0.8,13.5h-37.6v-1.9c2.4-0.1,3.3-1,3.3-3V530"/>
	<path style="fill:#231F20;" d="M245.6,569.8c2.1-0.3,3-1.4,3.7-3.3l13.9-35.3c0.4-1.1,0.9-2.1,0.9-2.8c0-0.7-0.8-1.8-2.7-1.8v-1.9
		c2.3,0.2,4.5,0.4,6.7,0.4c2.2,0,4.5-0.2,6.7-0.4l13.1,40.5c1.1,3.1,2.1,4,4.3,4.6v1.9c-3-0.2-6-0.4-9-0.4c-3.1,0-6.1,0.2-9.2,0.4
		v-1.9c2.6-0.5,3.6-1.1,3.6-2.7c0-1-0.4-2.6-0.7-3.6l-2.3-6.9h-13.9l-3.1,8.4c-0.4,1-0.6,1.8-0.6,2.5c0,1.3,1,2.1,3.3,2.3v1.9
		c-2.4-0.2-4.9-0.4-7.3-0.4c-2.5,0-4.9,0.2-7.4,0.4V569.8 M272.9,551.3c-1.5-4.6-2.7-9.2-4.1-16.3h-0.1c-1.6,5.7-3.9,11.3-5.8,16.3
		H272.9z"/>
	<path style="fill:#231F20;" d="M330.3,555.1c0-2.9-1.3-3-4.5-3.1v-2.4c2.9,0.2,5.8,0.4,8.8,0.4c3.2,0,6.3-0.2,9.5-0.4v2.2
		c-2.5,0.1-3.8,0.7-3.8,3.9v15.9h-4.1l-1.6-4.8c-4.5,4.2-9.2,5.7-14,5.7c-13.4,0-21.9-11-21.9-23.8c0-15.4,10.3-24.8,25.7-24.8
		c4.9,0,10.2,0.9,14,3.3c0,3.5,0.1,7.5,0.4,12.4h-2c-0.9-6.3-6.9-9.5-12.8-9.5c-9.9,0-14.7,7.6-14.7,16.7c0,8.8,5,18.8,13.2,18.8
		c5.1,0,7.8-2.4,7.8-5.6V555.1"/>
	<path style="fill:#231F20;" d="M358.5,529.7c0-2-0.8-2.9-3.3-3v-1.9c2.3,0.2,5.2,0.4,8.2,0.4c3.7,0,6.6-0.2,9.5-0.4v1.9
		c-3.1,0.1-3.8,0.7-3.8,3.5v26.6c0,8,3.3,9.6,9.1,9.6c5.8,0,9.1-1.7,9.1-9.6v-26.6c0-2.8-0.8-3.3-3.8-3.5v-1.9
		c2.8,0.2,5.8,0.4,9.5,0.4c3,0,5.9-0.2,8.2-0.4v1.9c-2.4,0.1-3.3,1-3.3,3v25.6c0,13.2-6.8,17.4-19.6,17.4
		c-12.8,0-19.7-4.2-19.7-16.4V529.7"/>
	<path style="fill:#231F20;" d="M416.1,530c0-2-0.9-2.9-3.3-3v-2h35.9c0.1,3.9,0.2,7.1,0.6,11h-1.9c-0.7-3.9-1.7-5.3-5.6-5.3h-15.2
		v13.5h9.5c3.2,0,3.7-1.1,4.1-3.6h1.9c-0.2,1.8-0.4,4.8-0.4,6.8c0,1.9,0.2,5.1,0.4,6.8h-1.9c-0.4-2.6-0.9-3.6-4.1-3.6h-9.5v15h16
		c3.8,0,5.1-1.3,6.3-7.3h2.4c-0.6,5.8-0.8,9.6-0.9,13.5h-37.6v-1.9c2.4-0.1,3.3-1,3.3-3V530"/>
	<path style="fill-rule:evenodd;clip-rule:evenodd;fill:#231F20;" d="M462.3,590.9c4.6,0,8.6-3.6,8.6-8.5c0-4.9-4-8.5-8.6-8.5
		c-4.7,0-8.6,3.6-8.6,8.5C453.7,587.3,457.6,590.9,462.3,590.9 M455.4,582.4c0-4,3-7.1,6.9-7.1c3.8,0,6.9,3,6.9,7.1
		c0,4.1-3,7.1-6.9,7.1C458.4,589.5,455.4,586.5,455.4,582.4z M460.5,583.1h1.7l2.6,4.2h1.7l-2.8-4.3c1.4-0.2,2.5-0.9,2.5-2.7
		c0-1.9-1.2-2.8-3.5-2.8H459v9.8h1.5V583.1z M460.5,581.8v-3h2c1,0,2.1,0.2,2.1,1.4c0,1.5-1.1,1.6-2.4,1.6H460.5z"/>
</g>
</svg>
