<?xml version="1.0" encoding="utf-8"?>
<!-- Generator: Adobe Illustrator 16.0.0, SVG Export Plug-In . SVG Version: 6.00 Build 0)  -->
<!DOCTYPE svg PUBLIC "-//W3C//DTD SVG 1.1//EN" "http://www.w3.org/Graphics/SVG/1.1/DTD/svg11.dtd">
<svg version="1.1" id="Layer_1" xmlns="http://www.w3.org/2000/svg" xmlns:xlink="http://www.w3.org/1999/xlink" x="0px" y="0px"
	 width="600px" height="600px" viewBox="0 0 600 600" style="enable-background:new 0 0 600 600;" xml:space="preserve">
<g>
	<path style="fill-rule:evenodd;clip-rule:evenodd;fill:#231F20;" d="M375.4,241.4c0,43.4-35.5,79-79,79c-43.7,0-79.2-35.6-79.2-79
		c0-43.7,35.5-79.2,79.2-79.2C339.9,162.1,375.4,197.6,375.4,241.4L375.4,241.4z"/>
	<path style="fill-rule:evenodd;clip-rule:evenodd;fill:#FFFFFF;" d="M270.8,230.8l23.5-16.8v-26.6l-22-17.2
		c-14.1,4.9-27.1,14.1-36,26.1l9.4,26.3L270.8,230.8L270.8,230.8z"/>
	<path style="fill-rule:evenodd;clip-rule:evenodd;fill:#FFFFFF;" d="M346.8,222.7l9.2-26.3c-8.9-12-21.7-21.2-35.8-26.1l-22,17.2
		V214l23.3,16.8L346.8,222.7L346.8,222.7z"/>
	<path style="fill-rule:evenodd;clip-rule:evenodd;fill:#FFFFFF;" d="M281.8,264.4l-15.6,21.5l7.9,26.6c6.7,2.3,14.9,3.3,22.2,3.3
		c7.1,0,15.3-1,22-3.3l7.9-26.6l-15.6-21.5H281.8L281.8,264.4z"/>
	<path style="fill-rule:evenodd;clip-rule:evenodd;fill:#FFFFFF;" d="M269.8,234.5l-25.3-8.2l-23,15.8c0.3,14.8,5.1,29.9,13.8,42.2
		l27.9-0.8l15.6-21.5L269.8,234.5L269.8,234.5z"/>
	<path style="fill-rule:evenodd;clip-rule:evenodd;fill:#FFFFFF;" d="M322.7,234.5l-9,27.6l15.6,21.5l27.9,0.8
		c8.7-12.3,13.6-27.4,13.6-42.2l-22.8-15.8L322.7,234.5L322.7,234.5z"/>
	<path style="fill-rule:evenodd;clip-rule:evenodd;fill:#DE3948;" d="M472.3,74.9C437.5,47.4,394.3,32,349.6,32
		c-14.6,0-29.4,1.8-43.7,4.8l21.7,96.1c29.4-6.7,60.1,0.3,83.3,18.9L472.3,74.9L472.3,74.9z"/>
	<path style="fill-rule:evenodd;clip-rule:evenodd;fill:#F7E04D;" d="M493.2,295.8h-98.6c0,29.9-13.5,58.3-36.8,77l61.3,77
		C465.9,412.4,493.2,355.6,493.2,295.8L493.2,295.8z"/>
	<path style="fill-rule:evenodd;clip-rule:evenodd;fill:#EDA667;" d="M535.9,275.3h-98.4c0-30.2-13.5-58.3-37-77.2l61.3-76.9
		C508.6,158.8,535.9,215.3,535.9,275.3L535.9,275.3z"/>
	<path style="fill-rule:evenodd;clip-rule:evenodd;fill:#6BAB4A;" d="M209.8,467c14.3,3.3,29.1,5.1,43.7,5.1c44.7,0,88-15.4,123-43
		l-61.6-76.9c-23.2,18.7-53.9,25.6-83.1,18.9L209.8,467L209.8,467z"/>
	<path style="fill-rule:evenodd;clip-rule:evenodd;fill:#77A3C7;" d="M221,325c-29.2-6.6-53.7-26.1-66.7-53.2l-88.7,42.7
		c26.1,54.2,75.4,93.3,133.7,106.6L221,325L221,325z"/>
	<path style="fill-rule:evenodd;clip-rule:evenodd;fill:#2F65A0;" d="M95,277.1l88.7-42.6c-12.8-26.9-12.8-58.3,0.2-85.4l-89-42.7
		c-12.8,26.3-19.4,55.8-19.4,85.4c0,29.6,6.7,59.1,19.7,85.6L95,277.1L95,277.1z"/>
	<path style="fill-rule:evenodd;clip-rule:evenodd;fill:#A9418B;" d="M297.9,95.9L276.2-0.2c-58.3,13.2-107.4,52.4-133.4,106.3
		l88.5,42.9c13-27.1,37.8-46.5,66.9-53.2H297.9L297.9,95.9z"/>
</g>
<g>
	<path style="fill-rule:evenodd;clip-rule:evenodd;fill:#0A4EA1;" d="M478.6,524c5.8,0,6.9,1.5,8.9,7.6l22.4,66.3h-20l-4.9-15.9
		h-26.8l-4.9,15.9h-11.5l22.6-73.9H478.6L478.6,524z M481.8,571.2h-20.3l10.1-33.7L481.8,571.2L481.8,571.2z"/>
	<path style="fill-rule:evenodd;clip-rule:evenodd;fill:#0A4EA1;" d="M365.6,597.9h-31V524h32.1c15.1,0,20.3,12.3,12.7,23.6
		l-3.7,5.4C401,566.1,392.8,597.9,365.6,597.9L365.6,597.9z M361.8,556.5l6.2-9.2c1.6-2.3,1.8-3.8,1.8-5.4c0-4.5-3.9-8.3-8.5-8.3
		h-9.4V588h5.2c8.8,0,15.5-4.8,15.5-15.8C372.6,563,368.3,558.1,361.8,556.5L361.8,556.5z"/>
	<path style="fill-rule:evenodd;clip-rule:evenodd;fill:#0A4EA1;" d="M303.1,597.9h-30.9V524h32.1c15,0,20.3,12.3,12.6,23.6
		l-3.6,5.4C338.6,566.1,330.3,597.9,303.1,597.9L303.1,597.9z M299.4,556.5l6.1-9.2c1.6-2.3,1.9-3.8,1.9-5.4c0-4.5-3.9-8.3-8.5-8.3
		h-9.5V588h5.3c8.8,0,15.4-4.8,15.4-15.8C310.1,563,305.8,558.1,299.4,556.5L299.4,556.5z"/>
	<path style="fill-rule:evenodd;clip-rule:evenodd;fill:#0A4EA1;" d="M438.9,524h11.6L428,597.9h-17.7L386.2,524h13.1
		c5,0,6.3,1.3,9,9.7l14,46.4L438.9,524L438.9,524z"/>
	<path style="fill-rule:evenodd;clip-rule:evenodd;fill:#0A4EA1;" d="M98,543.4h16c0,0-9.5,29.9-10.4,34.9c-0.9,5-0.4,6.7,7.4,7.1
		c7.8,0.4,19.2-1.7,19.2-1.7l-3.8,13.4c0,0-10.4,1.8-22.9,1.1c-12.5-0.7-19.5-2.3-16.1-18.9C90.7,562.7,98,543.4,98,543.4L98,543.4z
		"/>
	<polygon style="fill-rule:evenodd;clip-rule:evenodd;fill:#0A4EA1;" points="131.7,597.7 147.7,597.7 164,543.4 148,543.4 
		131.7,597.7 	"/>
	<path style="fill-rule:evenodd;clip-rule:evenodd;fill:#0A4EA1;" d="M212.9,543.3l-3.6,13.1c0,0-17.1,0-22.6,0
		c-5.6,0-6.8,3.8-9.7,13c-2.8,9.1-4.4,16.2,1,16.4c5.4,0.1,9.3,0,9.3,0l4.1-12.8h15.4l-7.8,24.4c0,0-10.3,1.7-22.8,1.6
		c-12.5-0.1-19.7-1.6-19.2-15.9c0.2-6.2,3.4-16.8,6.5-24c4.1-9.7,9.4-15.4,19-15.4C199.4,543.4,212.9,543.3,212.9,543.3L212.9,543.3
		z"/>
	<path style="fill-rule:evenodd;clip-rule:evenodd;fill:#0A4EA1;" d="M201.5,597.7h16.8l6.3-11.3h16.9v11.3h14.7v-54.1
		c0,0-9.5,0-14.4,0c-4.8,0-9.5,2.4-14,9.7C223.4,560.5,201.5,597.7,201.5,597.7L201.5,597.7z M230.1,576.6l11.4-20.4v20.4H230.1
		L230.1,576.6z"/>
</g>
</svg>
