<?xml version="1.0" encoding="utf-8"?>
<!-- Generator: Adobe Illustrator 16.0.0, SVG Export Plug-In . SVG Version: 6.00 Build 0)  -->
<!DOCTYPE svg PUBLIC "-//W3C//DTD SVG 1.1//EN" "http://www.w3.org/Graphics/SVG/1.1/DTD/svg11.dtd">
<svg version="1.1" id="Layer_1" xmlns="http://www.w3.org/2000/svg" xmlns:xlink="http://www.w3.org/1999/xlink" x="0px" y="0px"
	 width="600px" height="600px" viewBox="0 0 600 600" enable-background="new 0 0 600 600" xml:space="preserve">
<g>
	<path fill="#FFFFFF" d="M583.089,74.7c7.994,0,14.507,6.506,14.507,14.501c0,1.301-0.431,3.487-0.845,4.949
		c-0.007,0.012-0.441,0.422-112.711,422.979l-0.083,0.234c-3.888,11.445-12.48,20.672-23.573,25.314l-0.513,0.207
		c-0.006,0-153.114,54.588-160.21,57.113c-7.103-2.525-160.21-57.113-160.217-57.113l-0.514-0.207
		c-11.091-4.643-19.68-13.869-23.572-25.314l-0.078-0.234C3.005,94.573,2.567,94.163,2.567,94.15
		c-0.413-1.462-0.849-3.648-0.849-4.949c0-7.996,6.513-14.501,14.505-14.501H583.089z"/>
	<path fill="#2E3191" d="M16.229,78.935c-5.662,0-10.276,4.586-10.276,10.27c0,0.917,0.125,1.811,0.36,2.669l112.583,422.832
		c3.269,10.895,11.16,19.662,21.661,24.049l0.389,0.166l158.714,56.584l158.708-56.584l0.388-0.166
		c10.501-4.387,18.399-13.154,21.668-24.049L593,91.874c0.229-0.858,0.361-1.752,0.361-2.669c0-5.684-4.614-10.27-10.272-10.27
		H16.229z"/>
	<path fill="#FFFFFF" d="M558.951,94.682c6.885,0,12.476,5.575,12.476,12.477c0,1.104-0.136,2.17-0.413,3.185L465.34,510.186
		c-1.904,6.357-6.607,11.52-12.658,14.047l-153.028,54.553l-153.025-54.553c-6.046-2.527-10.743-7.689-12.648-14.047L28.305,110.344
		c-0.282-1.015-0.417-2.082-0.417-3.185c0-6.902,5.591-12.477,12.475-12.477H558.951z"/>
	<path fill="#FFFFFF" d="M199.283,3.3L199.283,3.3c0,0-9.397,11.042-10.176,11.96c-0.82-0.87-9.929-10.515-9.929-10.515
		c-0.915-0.979-2.29-1.377-3.586-1.047c-1.299,0.327-2.313,1.341-2.656,2.639c0,0.012-1.008,3.915-1.115,4.357
		c-0.951-1.257-2.996-3.97-2.996-3.97c-1.175-1.436-3.232-1.793-4.796-0.837c-1.092,0.664-1.759,1.866-1.759,3.153l0.307,1.466
		c1.51,3.427,6.577,15.429,8.542,26.242c-0.007-0.042,0.064,0.139,0.135,0.306c-0.79,0.408-3.732,1.93-3.732,1.93
		c-0.708,0.468-1.152,1.212-1.392,2.035c-0.551-0.103-1.428-0.277-1.428-0.277c-4.461-0.287-7.805,1.483-10.017,5.254
		c-1.132,1.928-1.865,4.651-1.865,6.94l0.189,1.941c0.373,1.805,1.215,2.79,2.012,3.353c-3.65,4.521-5.544,11.749-7.19,18.204
		l-0.961,3.71c-2.112,7.893-6.708,14.515-11.711,16.872c-1.446,0.681-2.336,2.058-2.336,3.598l0.16,1.118
		c0.884,2.879,5.487,4.772,9.781,5.722c-4.689,6.583-7.114,14.877-7.114,24.734c0,3.31,0.26,6.813,0.777,10.424l0.096,0.696
		c0.406,4.317,3.204,4.872,4.059,4.931c0.449,0.03,1.652-0.059,2.789-1.026c-0.058,0.625-0.259,3.096-0.259,3.096
		c0,12.365,3.709,23.131,6.052,27.024c0.798,1.338,2.229,2.064,3.735,1.894c0.595-0.059,1.104-0.277,1.574-0.584
		c0,0.047,0.012,0.176,0.012,0.176c0,4.886-1.186,11.114-4.505,13.852c-0.944,0.768-1.492,1.887-1.492,3.067l0.139,1.015
		c0.203,0.684,1.004,2.648,3.753,2.908c1.934,0.188,7.274-0.838,12.17-4.749c0.047,0.826,0.101,1.747,0.101,1.747
		c0,12.293-5.822,22.688-9.504,26.351c-0.755,0.778-1.168,1.78-1.168,2.82l0.153,1.09c0.541,1.758,1.982,2.809,4.287,3.221
		c3.4,0.638,8.803,0.083,13.592-2.431c1.954,19.427,6.677,27.732,9.226,32.198l0.95,1.711c1.621,3.256,1.781,5.633,1.97,8.636
		l0.035,0.566c1.093,16.86,4.194,26.198,6.046,31.773l1.076,3.479c0.673,2.621,1.007,4.814,1.007,6.496l-0.217,1.854
		c-0.06,0.168-0.106,0.299-1.787,0.453l-0.544,0.053c0.041-0.006-3.299,0.053-3.299,0.053c-2.428-0.066-4.96-0.141-8.292,1.25
		c-8.572,3.611-11.886,14.596-11.42,18.5c0.413,3.326,2.702,5.404,5.975,5.404h48.253c1.605,0,3.055-1.092,3.521-2.637
		c0,0,0.149-0.98,0.149-0.986c0-1.332-0.626-2.479-1.676-3.148c-10.505-6.855-17.302-20.838-17.302-35.62
		c0-14.329,7.015-26.97,19.733-35.641c1.68,0.707,3.917,1.062,6.741,0.984c0.136,0.065,0.231,0.125,0.424,0.202
		c1.014,0.454,2.744,1.219,5.818,1.219l2.294,0.061l5.08,0.118c2.76,0,4.217-0.708,5.42-1.77c0.578,0.507,1.311,1.05,2.39,1.451
		c3.511,1.227,14.399-0.035,14.493-0.047c2.613-0.412,4.789-2.206,6.195-5.014c2.76-0.2,7.386-0.607,9.704-1.12
		c2.453-0.542,3.585-0.656,4.094-0.656c0.242,0.597,1.924,4.767,1.924,4.767c0.004,0.024,0.223,0.449,0.223,0.449
		c2.542,4.677,8.371,13.184,12.724,17.03c8.271,7.255,17.221,14.359,19.69,15.856c0.343,0.201,0.792,0.602,0.792,1.782l-0.172,1.439
		c-0.36,1.747-2.673,9.68-5.487,13.319c-2.189,2.846-3.297,3.717-5.968,3.611c-3.742-0.158-10.532,0.025-14.005,3.098
		c-7.096,6.211-7.463,13.385-7.463,14.752l0.046,0.744c0.132,2.24,1.859,5.566,6.018,5.566h27.212c3.479,0,5.06-1.295,6.241-2.707
		l0.172-0.199l1.014-1.246l2.083-2.539c0,0-0.066,0.025-0.088,0.045c0.271-0.205,0.783-0.668,2.104-1.854
		c1.368-1.143,3.091-2.576,4.194-4.086c1.179-1.615,1.812-3.527,2.372-5.223c0,0-0.082,0.055-0.125,0.086
		c0.213-0.35,0.521-1.15,1.269-3.145c1.063-2.266,6.766-10.643,11.847-17.729c1.779-2.482,3.344-5.338,3.344-8.771
		c0-2.596-0.88-5.51-3.227-8.849c-0.012-0.012-1.709-2.183-1.709-2.183c-3.041-3.764-9.352-11.585-10.23-17.726
		c-0.012-0.023-0.047-0.324-0.047-0.324c-0.007-0.007-0.355-3.375-0.355-3.375c0-1.427,0.342-2.678,1.356-4.956
		c-0.004,0.019,0.456-0.919,0.456-0.919c0.631-1.38,1.09-2.124,1.346-2.23c1.102-0.041,5.408,5.628,7.475,8.341
		c2.988,3.94,6.698,8.836,11.473,13.763c4.252,4.381,7.927,8.464,12.263,13.626c3.092,3.651,10.093,18.345,11.413,22.138
		c1.012,2.844,1.098,5.551,0.858,6.285c-0.385,1.221-1.011,2.25-1.742,3.461l-1.452,2.479c-2.175,4.07-2.122,9.486-1.102,13.061
		c1.44,5.102,5.499,4.953,7.675,4.879l1.209-0.031h24.669c5.162,0,6.014-3.893,6.288-5.178l0.055-0.271
		c0-0.018,0.277-2.625,0.277-2.625c0-3.73-1.347-7.709-3.604-10.65c-0.024-0.021-1.934-2.086-1.934-2.086
		c-1.795-1.76-3.995-3.918-5.476-8.543c-2.472-7.691-3.096-14.104-3.697-20.304c0.004,0.053-0.054-0.566-0.054-0.566l-1.274-9.958
		c-0.733-3.976-1.988-6.124-3.322-8.388c-0.872-1.475-1.776-2.997-2.702-5.445c-0.631-1.787-1.635-18.411-1.635-25.401l0.097-6.094
		c0-12.165-1.5-22.11-4.407-29.672c16.115-5.592,26.922-17.437,26.922-29.667l-0.028-1.126c-1.41-26.517-43.13-27.384-55.882-27.023
		l-1.004,0.034c-22.799,0.762-28.627-2.524-30.072-3.969c-0.459-0.461-0.555-0.802-0.555-1.168c0.036-1.345,4.078-3.811,6.756-4.477
		c2.41,1.929,6.364,4.901,13.474,3.851c6.955-1.049,12.982-6.488,16.812-10.866c2.294-2.63,5.899-6.217,10.796-7.067
		c3.451-0.602,4.192-2.631,4.347-3.787c0.105-0.931,0.02-3.251-3.263-4.684c-6.547-2.843-16.576-4.896-25.376-2.395
		c-0.107-0.265-0.207-0.53-0.207-0.53c-0.933-1.275-2.308-1.841-3.753-1.646c-12.423,1.709-16.352,9.385-17.867,12.506
		c-11.616,4.313-18.282,11.52-18.282,19.826l0.031,0.596c0.736,21.36,34.562,20.888,47.304,20.711h0.42
		c13.738-0.201,34.714,2.495,36.253,10.719c0.007,0.018,0.089,0.879,0.089,0.879c-0.006,1.186-0.52,2.472-1.545,3.788
		c-2.843,3.639-9.026,6.548-15.433,7.303c-4.281-4.13-9.508-8.193-24.456-12.483h0.007c0-0.006-0.396-0.083-6.72-1.345
		c-9.892-1.722-26.436-4.601-38.251-12.895c-17.903-12.565-25.766-16.836-35.73-22.246l-2.094-1.125
		c-5.957-3.245-11.049-7.191-15.325-11.657c2.029-0.213,3.817-0.649,5.185-1.428c1.069-0.608,1.758-1.71,1.834-2.944v-0.005
		c0-1.369-0.512-2.466-1.451-3.173c-5.291-4.012-7.503-7.928-9.94-14.203c-1.503-3.846-2.925-6.71-4.512-9.276
		c0.253-0.091,0.509-0.184,0.509-0.184c0.99-0.675,1.581-1.805,1.581-3.02c-0.031-9.684-5.636-16.659-8.985-20.82l-1.27-1.631
		c-1.179-1.504-2.14-4.029-2.14-5.625l0.195-1.026h-0.007c0.136-0.265,0.296-0.549,0.296-0.549l0.808-1.619l0.359-1.439v-0.071
		c0-0.599-0.277-1.094-0.555-1.601c0.95-0.641,1.599-1.517,1.669-2.567c0-0.02,0.042-1.203,0.042-1.203l-0.201-2.622
		c-0.543-3.521-3.451-9.454-8.938-10.583c-2.44-0.507-3.969-0.092-5.096,0.387c-0.367-0.308-1.18-0.978-1.657-1.366
		c0.431-0.497,0.891-0.977,0.998-1.582c1.922-10.778,7.019-22.796,8.521-26.224c0-0.007,0.321-1.485,0.321-1.485
		c0-1.273-0.684-2.482-1.763-3.146c-1.564-0.951-3.617-0.599-4.779,0.819c-0.013,0.012-1.93,2.564-3.015,4.006
		c-0.385-1.463-1.14-4.375-1.14-4.375c-0.325-1.291-1.332-2.306-2.642-2.639c-1.297-0.331-2.672,0.068-3.594,1.047
		c0.078-0.074,0.072-0.074-4.522,4.802c0,0-4.619,4.899-5.387,5.713c-0.785-0.918-10.171-11.96-10.171-11.96
		c-0.701-0.821-1.723-1.298-2.813-1.298C201.004,2.002,199.978,2.479,199.283,3.3"/>
	<path fill="#2E3191" d="M228.843,20.404l-1.518-11.88l-13.402,13.405L201.925,6.952l-11.985,14.978L176.548,8.524l-1.528,11.88
		c0,0-6.926-7.119-8.995-9.677c3.333,7.545,7.208,18.523,8.777,26.316c8.193-2.599,18.403-3.342,27.123-3.342
		c8.732,0,18.949,0.743,27.143,3.342c1.569-7.793,5.444-18.771,8.77-26.316C235.78,13.285,228.843,20.404,228.843,20.404
		 M179.745,32.082l0.235-8.486l8.282,7.038C185.047,30.981,182.123,31.515,179.745,32.082 M201.925,29.96
		c-2.523,0-4.991,0.068-7.338,0.201l7.338-8.474l7.357,8.474C206.933,30.028,204.468,29.96,201.925,29.96 M215.606,30.633
		l8.282-7.038l0.235,8.486C221.741,31.515,218.819,30.981,215.606,30.633"/>
	<path fill="#2E3191" d="M417.299,322.377c-1.682-2.217-5.592-4.398-7.924-11.662c-3.97-12.345-3.343-21.454-5.106-31.069
		c-1.051-5.71-3.416-6.807-5.794-13.06c-1.067-2.772-2.101-17.651-1.848-27.725c0.231-8.578,0.238-25.266-5.508-36.504
		c17.779-4.684,28.558-15.833,27.908-28.056c-1.01-18.959-25.969-24.115-51.692-23.408c-7.723,0.213-35.943,1.534-35.136-8.907
		c0.35-4.542,7.504-7.763,10.505-7.934c2.515,1.905,6.425,4.973,12.861,3.853c13.644-2.36,14.772-16.848,28.897-18.011
		c-5.686-4.695-21.412-6.577-29.976-1.168c0-1.657,0.605-3.191,1.285-4.282c-11.44,1.575-13.798,8.418-15.35,11.527
		c-12.324,4.123-17.574,10.682-17.339,17.366c0.62,17.875,32.464,17.091,43.66,17.042c11.691-0.035,37.321,1.416,39.618,13.621
		c1.546,8.229-9.564,15.757-21.686,16.405c-16.875-18.935-44.962-9.827-71.235-28.551c-30.392-21.637-46.326-23.466-57.658-41.146
		c2.738,1.175,8.512,1.971,11.939,0c-5.964-4.512-8.482-9.031-11.067-15.685c-3.138-8.022-5.487-11.551-9.893-15.479
		c2.643-0.106,5.47,1.111,7.239,1.775c-0.031-9.634-6.767-16.4-9.432-20.061c-2.29-3.158-4.578-7.907-1.234-12.509
		c-3.504-3.86-6.77-1.547-8.145-0.356c-1.186,1.027-2.143,0.846-1.446-1.499c0.73-2.464,3.179-5.866,6.146-5.733
		c2.666,0.115,4.006,2.404,4.566,3.244c0.583-5.661-1.528-9.766-5.292-10.491c-2.223-0.426-4.324,0.277-5.916,1.354
		c-1.327-2.194-2.449-3.814-6.413-5.174c-1.663-0.566-7.52-1.891-12.064-2.376c-3.189,2.475-6.637,6.162-9.467,10.624
		c-0.313-2.125,0.313-6.825,1.624-11.205c-11.345-0.387-28.522,0.688-36.574,5.961c1.621,1.522,2.565,3.583,2.707,4.87
		c0.165,1.752-0.496,1.463-1.197,0.749c-0.737-0.721-2.92-3.384-6.413-3.643c-7.355-0.561-8.499,8.462-6.847,11.429
		c0.695-2.183,2.175-3.963,4.494-4.074c3.618-0.162,6.178,4.38,6.602,6.755c0.324,1.71-0.544,1.843-1.67,0.784
		c-1.499-1.407-3.015-1.885-4.932-1.54c-6.847,1.227-9.354,13.089-11.715,23.395c-2.248,9.811-7.539,16.576-14.005,19.305
		c1.428,2.022,7.467,4.489,13.787,3.833c-13.822,12.118-11.462,33.459-9.617,39.719c0.722-2.525,4.365-12.324,10.938-15.25
		c-8.984,18.257-2.784,40.142,0.766,45.989c0.591-2.554,2.041-5.475,3.628-7.15c3.415,5.503,3.457,21.189-3.881,27.431
		c4.43,0.212,11-1.346,14.884-9.274c4.352,16.818-3.729,33.294-9.24,38.787c1.576,0.854,11.491,2.494,17.227-4.855
		c1.539,26.723,8.193,34.751,10.263,38.898c2.076,4.165,2.229,7.067,2.389,10.594c1.192,25.638,9.91,35.913,7.709,44.467
		c-0.73,2.844-3.764,3.008-5.438,3.191c-3.871,0.418-4.926-0.23-9.031,1.037c-7.788,2.414-9.486,11.865-9.18,14.482
		c0.2,1.658,1.037,2.148,2.325,2.148h35.966c2.624,0,3.479-1.428,4.312-4.709c-8.029-8.518-13.125-19.99-13.125-32.615
		c0-17.704,9.674-33.394,24.015-41.605c0,0,0.88,2.359,6.11,2.183c2.147-0.071,2.343-1.369,3.635-1.251
		c1.948,0.17,1.016,1.906,4.267,2.49c1.916,0.342,3.739,0.442,5.921,0.418c2.542-0.03,3.416-0.92,3.993-1.622
		c0.85-1.062,2.183-0.891,2.82,0.024c0.502,0.719,1.127,1.362,2.383,1.734c1.97,0.578,9.445,0.625,12.353-0.047
		c2.142-0.489,2.814-1.776,3.538-3.327c0.413-0.873,0.722-1.888,2.277-1.876c4.926,0.058,9.764-0.932,12.595-1.545
		c3.963-0.862,5.032,0.79,5.741,2.914c5.556,16.701,24.243,29.107,32.421,35.223c2.411,1.794,2.953,3.935,2.294,7.021
		c-0.406,2.024-2.81,10.518-6.124,14.741c-2.902,3.719-4.271,4.65-9.066,5.1c-2.325,0.211-8.736,0.115-11.815,2.758
		c-5.002,4.271-5.645,10.996-5.545,12.006c0,0,0.094,2.059,2.318,2.059h26.021c2.431,0,3.639-0.436,4.564-1.594
		c0.651-0.809,1.806-2.266,3.068-3.732c1.232-1.469,4.253-3.092,6.012-5.67c1.328-1.953,1.904-5.039,3.102-7.811
		c2.082-4.813,7.421-11.656,12.117-18.204c3.067-4.294,3.426-7.698,0.09-13.262c-2.419-4.022-19.107-19.619-10.395-33.871
		c1.78-2.915,4.832-4.797,7.367-2.36c2.671,2.59,3.551,8.389,28.65,33.512c3.17,3.156,4.135,4.738,5.229,6.814
		c3.385,6.454,7.545,15.628,8.759,18.558c1.705,4.061,1.421,6.889,0.887,8.555c-0.792,2.477-2.154,4.129-3.447,6.535
		c-1.652,3.092-1.681,7.627-0.779,10.357c0.691,2.102,2.35,2.158,5.292,2.158h24.486c2.349,0,2.438-1.225,2.726-2.539
		C420.478,330.4,419.923,325.771,417.299,322.377 M174.407,66.543c0.701-0.454,2.625-1.601,5.26-2.513
		c3.464-1.227,3.854-2.236,3.233-5.798c-0.271-1.625,0.839-2.316,2.648-2.979c1.265-0.454,5.274-1.572,7.958-2.145
		c1.293,0.808,5.922,7.006,8.455,10.624c2.523-3.618,7.149-9.816,8.439-10.624c3.841,0.767,7.67,1.92,10.855,3.008
		c2.921,1.01,4.224,2.168,5.626,5.984c1.069,2.98,1.482,6.398,1.482,6.398s-1.948,0.41-4.786,0.085
		c-3.248-0.381-5.089-1.414-6.7-1.071c-2.772,0.557-6.222,4.056-6.542,5.48c-0.589,2.977,0.484,5.366,0.696,6.132
		c0.873-3.244,2.601-5.48,4.744-5.613c0.884-0.062,2.058,0.554,3.711,0.761c0.965,0.116,1.94,0.075,2.801-0.513
		c2.029-1.366,3.334-2.991,4.66-3.684c0,0,1.901,3.436,2.802,6.451c0.631,2.151-0.399,3.854-4.011,5.592
		c-2.077,0.99-4.921,2.737-6.697,4.333c-1.774,1.581-1.392,3.498-0.499,4.947c1.649,2.675,3.066,6.403,3.266,9.435
		c0.088,1.39-0.431,2.431-1.479,3.032c-1.375,0.791-3.67,1.334-6.583,1.199c-3.133-0.154-7.133-3.994-10.319-5.014l0.627-5.008
		c0,0,4.907-3.08,7.763-5.644c0.666-0.598,0.358-1.822,0.284-2.634c-2.561-0.843-6.716-1.465-10.088-1.465
		c-2.62,0.005-5.716,0.445-8.158,0.958c0.713-3.328,1.509-9.598,0.317-13.326c-0.424-1.413-5.138-4.89-7.909-5.472
		c-1.623-0.321-3.446,0.714-6.701,1.089c-2.838,0.312-5.452-0.408-5.452-0.408S174.212,66.677,174.407,66.543 M200.469,118.544
		c0.2,1.085,0.378,4.966-1.074,7.138c-0.277,0.424-0.603,0.483-1.086,0c-1.038-1.027-3.343-3.427-6.257-4.507
		c-1.298-0.501-6.541-1.145-4.892-8.966c0.154-0.761,0.42-1.333,1.67-1.688c1.57-0.442,3.664-1.521,6.385-4.377
		c0.684-0.731,2.094-1.268,3.643-0.773c1.21,0.384,2.061,0.596,3.116,0.596c1.043,0,1.887-0.212,3.097-0.596
		c1.551-0.495,2.967,0.042,3.651,0.773c2.708,2.855,4.802,3.858,6.644,4.46c1.15,0.39,1.256,1.416,0.873,2.106
		c-0.42,0.773-1.051,2.271-1.335,3.515c-0.264,1.246-0.684,3.475-3.02,5.15c-0.99,0.708-3.785,2.135-5.844,4.407
		c-0.413,0.442-0.862,0.572-0.915-0.1c-0.06-0.672-0.196-5.558-3.422-7.976C200.847,117.069,200.249,117.399,200.469,118.544
		 M183.584,103.843c-1.043-0.602-1.563-1.644-1.474-3.038c0.272-4.006,2.648-9.233,4.896-11.648
		c0.348-0.357,3.428-1.269,4.956,0.104c2.895,2.592,7.892,5.751,7.892,5.751l0.632,5.008c-3.179,1.025-7.186,4.866-10.312,5.002
		C187.243,105.177,184.955,104.634,183.584,103.843 M173.81,80.637c-1.314-0.882-2.247-3.89,1.015-10.967
		c1.328,0.685,4.013,2.69,6.035,4.029c0.891,0.593,1.841,0.628,2.796,0.522c1.658-0.2,2.837-0.834,3.728-0.77
		c2.468,0.166,2.503,5.625,2.532,6.303c0.042,0.687-0.277,0.711-0.72,0.331c-1.115-0.894-2.129-0.883-2.914-0.883
		c-1.081,0.007-3.664,1.04-4.75,1.337C180.442,80.828,176.082,82.183,173.81,80.637 M182.818,175.162
		c-9.337-18.411,10.85-22.663,17.776-31.063C199.312,153.3,185.51,157.483,182.818,175.162 M209.834,207.224
		c2.307-4.373,8.161-16.294,2.856-32.357c-5.587,3.057-10.996,11.309-12.941,19.584c-6.082-23.654,12.086-31.889,16.239-52.476
		c5.345,9.484-7.485,22.25,2.673,33.329c6.37-26.209,31.069-16.854,29.673-48.892c11.149,25.797-5.134,32.717-8.709,52.171
		c-3.355-5.829-3.633-13.072-0.413-21.16C222.975,165.299,231.81,199.431,209.834,207.224 M388.039,232.631
		c-0.725,3.326-3.668,4.188-5.232,1.981c-2.861-4.023-4.069-24.834-26.61-35.453c-3.415-1.592-4.507,0.313-3.64,2.307
		c3.545,7.84,5.043,15.225,4.018,22.587c-0.324,2.383-1.887,3.593-3.279,1.015c-1.24-2.313-3.847-6.755-5.923-8.737
		c-3.876-3.722-9.043-3.688-13.609-3.086c-4.554,0.608-23.727,6.442-27.921,1.229c-2.583-3.21-6.259-9.929-4.2-18.075
		c0.544-2.16-1.386-2.879-3.626-1.357c-6.819,4.642-4.159,20.659-3.7,23.667c0.523,3.47,0.73,6.277-2.336,9.208
		c-4.679,4.484-12.224,12.595-15.261,14.707c-3.038,2.124-6.193,1.717-8.283,3.764c-1.61,1.569-1.545,5.722-4.241,6.513
		c-1.327,0.395-4.287,0.566-6.429,0.271c-2.1-0.301-3.162-0.59-3.435-3.976c-0.112-1.262-0.972-1.71-2.081-0.058
		c-0.862,1.256-1.669,2.596-3.535,3.09c-2.147,0.591-5.05,0.821-7.646,0.26c-1.876-0.413-2.688-0.938-2.688-2.749
		c0-0.803,0.04-1.51-0.012-2.006c-0.066-0.649-0.643-0.702-1.375-0.212c-1.274,0.843-1.811,2.938-4.467,3.032
		c-1.511,0.048-5.755,0.048-4.495-4.713c0.715-2.659,2.454-10.353,11.77-12.187c3.681-0.714,13.763,0.395,17.102-0.23
		c3.68-0.696,6.441-2.879,6.441-5.304s-7.58-1.858-8.029-4.136c-0.873-4.294,12.637-7.55,11.939-11.927
		c-0.523-3.339-4.283-3.41-4.879-5.828c-0.625-2.431,4.131-9.032,4.131-14.566c0-7.355-4.131-11.538-5.286-17.277
		c-1.102-5.498,0.13-12.877,2.559-16.588c1.713-2.625,2.956-3.398,6.834-3.816c13.459-1.457,30.513,12.316,35.063,15.143
		c14.889,9.232,23.228,11.102,41.765,14.458c11.107,2.029,23.571,3.104,32.939,16.251
		C385.255,206.709,390.193,222.938,388.039,232.631"/>
	<path fill="#EC1A3B" d="M264.804,272.497c-6.814-0.359-15.558,1.321-20.524,4.259c-0.034,7.055-0.755,14.234-2.094,20.434
		c4.625,3.404,14.236,7.451,19.687,8.625c4.264-3.117,9.733-9.551,12.664-14.465C272.819,284.33,269.5,276.991,264.804,272.497
		 M261.357,280.159c-5.598-1.463-14.187-1.486-14.187-1.486c4.804-1.646,10.868-3.009,16.224-2.886
		c3.357,3.646,5.616,8.672,7.638,14.382C271.031,290.169,266.096,283.81,261.357,280.159"/>
	<path fill="#EC1A3B" d="M271.545,261.689c-0.035-0.036-1.037,1.699-5.852,1.923c0.592,0.742,1.5,2.399,1.764,3.374
		c0,0,5.629,0.395,9.28,1.328c3.97,3.55,6.951,7.722,9.061,12.83c-0.005,0.035-2.453,5.156-5.374,10.193
		c2.437,5.014,5.208,11.409,5.674,17.235c-2.735,7.045-7.575,13.057-13.745,17.24c0.845-2.008,1.771-4.742,2.354-7.598
		c-3.486-0.295-9.579-1.553-12.747-2.586c-3.722,4.637-8.277,7.789-14.046,10.654c0.838,1.883,2.603,4.566,3.788,5.84
		c-9.421,0-18.028-3.525-24.546-9.344c0,0,4.696,0.639,8.891-0.152c-0.968-5.229-1.339-14.283-0.891-18.926
		c-6.59-1.869-12.542-4.423-17.298-7.391c-0.877,1.734-1.856,4.087-2.455,5.518c-1.491-8.484-0.171-17.192,4.255-24.873
		c0.606,0.956,1.215,1.965,1.699,2.82c4.406-3.02,10.44-6.135,16.893-8.199c0.291-2.608,0.95-6.372,1.5-8.807
		c0,0-2.443-0.23-3.493-1.316c-0.518-0.518-1.132-0.477-1.592-0.271c-2.212,1.038-5.434,0.354-6.075,0.046
		c-12.395,7.321-20.949,21-20.949,36.457c0,23.254,18.836,42.094,42.096,42.094c23.242,0,42.096-18.84,42.096-42.094
		C291.833,282.413,283.704,269.063,271.545,261.689 M268.094,329.211c-0.242-2.207-0.584-4.863-0.708-6.295
		c-1.959-1.742-3.704-3.27-5.149-4.43c2.385,0.695,6.441,1.65,9.137,2.193C270.957,322.566,268.992,327.682,268.094,329.211
		 M284.772,290.494l2.229-4.961c0,0,3.214,10.655,0.142,19.553C287.144,305.086,287.144,297.626,284.772,290.494"/>
	<path fill="#2E3191" d="M147.011,350.729h-19.184c2.325,1.361,3.497,6.068,3.497,9.355v46.945c0,4.193-1.926,8.252-3.378,9.469
		h15.998v-22.754c0,0,1.357,0.072,2.525,0.072c15.885,0,25.571-10.1,25.571-22.783C172.04,358.232,163.087,351,147.011,350.729
		 M145.892,383.232c-1.164,0-1.948-0.047-1.948-0.047v-22.168c0,0,1.175,0.035,2.72,0.035c8.529,0,12.304,4.166,12.304,10.746
		C158.968,378.867,153.636,383.137,145.892,383.232"/>
	<path fill="#2E3191" d="M210.786,391.242c-1.735-3.102-3.31-3.922-3.31-3.922c6.471-2.094,12.1-8.566,12.1-18.256
		c0-13.369-9.297-18.406-23.738-18.406l-20.705,0.012c2.329,1.377,3.491,6.074,3.491,9.361v46.932c0,4.219-1.923,8.271-3.374,9.486
		h16.01v-26.953l1.691,0.014c3.127,0,3.7,2.217,4.276,3.277l11.104,23.662h15.604L210.786,391.242z M194.185,380.342h-2.938v-19.449
		h3.333c8.089,0,11.817,3.133,11.817,9.445C206.397,376.436,201.748,380.342,194.185,380.342"/>
	<path fill="#2E3191" d="M459.216,391.242c-1.74-3.102-3.314-3.922-3.314-3.922c6.471-2.094,12.093-8.566,12.093-18.256
		c0-13.369-9.302-18.406-23.737-18.406l-20.693,0.012c2.312,1.377,3.481,6.074,3.481,9.361v46.932c0,4.219-1.932,8.271-3.377,9.486
		h16.018v-26.953l1.688,0.014c3.133,0,3.704,2.217,4.283,3.277l11.101,23.662h15.593L459.216,391.242z M442.615,380.342h-2.941
		v-19.449h3.32c8.094,0,11.829,3.133,11.829,9.445C454.823,376.436,450.162,380.342,442.615,380.342"/>
	<path fill="#2E3191" d="M290.766,350.693l14.581,25.055c1.923,3.271,3.038,5.184,3.854,7.389h0.086
		c0.868-2.264,2.055-4.086,4.055-7.414l14.629-25.006h12.542v65.781h-12.689c0,0,0.02-44.219,0-44.166h-0.141
		c-0.855,2.771-2.596,5.674-3.575,7.314l-11.833,19.361h-5.965l-11.857-19.361c-0.82-1.238-2.212-4.012-3.297-7.314l-0.224,0.012
		v44.088h-15.885c1.445-1.209,3.368-5.264,3.368-9.473v-46.934c0-3.289-1.168-7.957-3.493-9.332H290.766z"/>
	<path fill="#2E3191" d="M366.673,416.432H350.67c1.439-1.203,3.373-5.264,3.373-9.473V360.02c0-3.283-1.172-7.982-3.49-9.355
		l16.113-0.014L366.673,416.432z"/>
	<path fill="#2E3191" d="M229.226,416.445c1.445-1.217,3.374-5.264,3.374-9.475v-46.945c0-3.281-1.172-7.988-3.497-9.355
		l37.499,0.047v10.678h-21.336v15.873h18.813v10.529h-18.813v17.887h22.86l-4.483,10.818L229.226,416.445z"/>
	<path fill="#2E3191" d="M378.047,416.445c1.438-1.217,3.375-5.264,3.375-9.475v-46.945c0-3.281-1.168-7.988-3.5-9.355l37.496,0.047
		v10.678h-21.332v15.873h18.818v10.529h-18.818v17.887h22.87l-4.49,10.818L378.047,416.445z"/>
	<path fill="#2E3191" d="M186.688,495.242c1.445-1.203,3.368-5.266,3.368-9.473v-46.943c0-3.279-1.163-7.982-3.481-9.344
		l37.502,0.021v10.689h-21.35v15.881h18.825v10.537h-18.825v17.885h22.872l-4.495,10.813L186.688,495.242z"/>
	<path fill="#2E3191" d="M416.579,495.242c1.445-1.203,3.379-5.266,3.379-9.473v-46.943c0-3.279-1.168-7.982-3.49-9.344
		l37.504,0.021v10.689h-21.347v15.881h18.817v10.537h-18.817v17.885h22.863l-4.487,10.813L416.579,495.242z"/>
	<path fill="#2E3191" d="M145.276,495.242c1.459-1.203,3.375-5.266,3.375-9.473v-46.943c0-3.279-1.161-7.982-3.497-9.344
		l16.164-0.025v55.039h21.872l-4.484,10.813L145.276,495.242z"/>
	<path fill="#2E3191" d="M332.756,483.646v-11.398c0-4.199-1.891-8.305-3.341-9.516h15.786l0.07,28.063
		c-5.486,3.045-14.535,5.32-22.381,5.32c-20.723,0-32.776-13.33-32.776-33.281c0-20.553,13.18-34.061,36.363-34.061
		c6.104,0,11.939,1.416,15.714,3.014l0.012,12.477c-3.839-2.277-10.387-4.246-16.504-4.246c-12.874,0-21.933,7.479-21.933,22.764
		c0,13.857,7.314,21.986,20.582,21.986C327.446,484.768,330.673,484.355,332.756,483.646"/>
	<path fill="#2E3191" d="M284.719,486.043c-0.894-2.48-19.161-56.42-19.161-56.42h-12.854c0,0-18.274,53.969-19.165,56.441
		c-1.463,4.023-3.227,7.912-5.085,9.203h14.917l4.23-13.367h22.97l4.32,13.342h14.924
		C287.946,493.951,286.175,490.051,284.719,486.043 M250.582,471.93l5.49-16.664c1.168-3.781,2.173-7.072,2.885-10.943h0.082
		c0.755,3.871,1.63,7.15,2.798,10.736l5.668,16.871H250.582z"/>
	<path fill="#2E3191" d="M356.29,439.096c0-4.213-1.893-8.305-3.327-9.521l15.65,0.043v41.947c0,8.613,3.068,14.047,13.314,14.047
		c9.515,0,13.514-5.412,13.514-13.977v-42.018h12.277v42.609c0,13.459-7.852,23.832-26.646,23.832
		c-19.521,0-24.823-10.514-24.823-23.727L356.29,439.096z"/>
</g>
</svg>
