<?xml version="1.0" encoding="utf-8"?>
<!-- Generator: Adobe Illustrator 16.0.0, SVG Export Plug-In . SVG Version: 6.00 Build 0)  -->
<!DOCTYPE svg PUBLIC "-//W3C//DTD SVG 1.1//EN" "http://www.w3.org/Graphics/SVG/1.1/DTD/svg11.dtd">
<svg version="1.1" id="Layer_1" xmlns="http://www.w3.org/2000/svg" xmlns:xlink="http://www.w3.org/1999/xlink" x="0px" y="0px"
	 width="600px" height="600px" viewBox="0 0 600 600" style="enable-background:new 0 0 600 600;" xml:space="preserve">
<g>
	<path style="fill:#9C824A;stroke:#9C824A;stroke-width:0.793;stroke-miterlimit:282;" d="M299.9,0C239.1,0,127,15.7,69.9,48.9
		c-75.2,266.5,27.1,447.7,230,550.6c202.9-102.9,305.2-285,230-550.6C472.7,15.7,360.6,0,299.9,0L299.9,0z"/>
	<path style="fill:#023474;stroke:#023474;stroke-width:0.793;stroke-miterlimit:282;" d="M299.9,17.1c-59.7,0-127,7.6-215.1,43.6
		C19.2,293.3,95.3,479.8,299.9,581.4c204.6-101.6,280.6-288.1,215-520.7C426.8,24.8,359.6,17.1,299.9,17.1L299.9,17.1z"/>
	<path style="fill:#FFFFFF;stroke:#FFFFFF;stroke-width:0.793;stroke-miterlimit:282;" d="M299.6,16.9c-59.4,0-123.3,8.8-180.9,30.6
		C59,285.7,103,459.6,299.9,581.2L299.6,16.9L299.6,16.9z M299.9,581.2C496.8,459.6,540.8,285.7,481.1,47.5
		c-57.6-21.8-121.4-30.6-180.8-30.6L299.9,581.2L299.9,581.2z"/>
	<path style="fill:#EF0107;stroke:#EF0107;stroke-width:0.793;stroke-miterlimit:282;" d="M299.9,16.9c-59.8,0-120.3,9-169.5,26.2
		C68.6,292.7,118.3,461.2,300,576.5L299.9,16.9L299.9,16.9z"/>
	<path style="fill:#DB0007;stroke:#DB0007;stroke-width:0.793;stroke-miterlimit:282;" d="M300,16.9c59.8,0,120.3,9,169.5,26.2
		c61.9,249.6,12.2,418.2-169.6,533.4L300,16.9L300,16.9z"/>
	<path style="fill:#FFFFFF;" d="M222.7,393.6c-26.4,18.1-47.4,24.6-71.7,31.1l-14.7-22.9c22.4-11.3,45.6-27.1,68.9-50
		C207.1,374,217.4,389.7,222.7,393.6L222.7,393.6z"/>
	<path style="fill:#9C824A;" d="M219.1,392.6c-25,17.2-59.9,29.2-99.8,35l-8.1-12.4c34.2-12.8,67.2-31.9,92.8-58.8
		C207.8,373.7,213.7,385.1,219.1,392.6L219.1,392.6z"/>
	<path style="fill:#FFFFFF;" d="M152.4,287.6c0,9.6-7.7,17.4-17.3,17.4c-9.6,0-17.4-7.8-17.4-17.4l0,0c0-9.6,7.8-17.4,17.4-17.4
		C144.6,270.3,152.4,278,152.4,287.6L152.4,287.6z"/>
	<path style="fill:#FFFFFF;" d="M150.5,253.4v65.5h51.6c3.4-22,15.8-45.3,44.1-65.5H150.5"/>
	<path style="fill:#FFFFFF;" d="M152.6,318.9c-11.5,0.2-21-14.3-21.2-32.4c-0.1-18.1,9.1-32.9,20.7-33.1c0.1,0,0.2,0,0.4,0"/>
	<path style="fill:#9C824A;" d="M145.1,287.6c0,7.4-5.4,13.4-12,13.4c-6.6,0-12-6-12-13.4l0,0c0-7.4,5.4-13.4,12-13.4
		C139.7,274.2,145.1,280.2,145.1,287.6L145.1,287.6z"/>
	<path style="fill:#9C824A;" d="M151.9,256.8v58.9h51.2c4-19.5,14-40.3,38.8-58.9H151.9"/>
	<path style="fill:#9C824A;" d="M153.8,315.7c-10.8,0.2-19.7-12.8-19.9-29c-0.1-16.2,8.6-29.6,19.4-29.8c0.1,0,0.2,0,0.3,0"/>
	<path style="fill:#FFFFFF;" d="M397.8,334.2c0,54.7-44.2,98.9-98.9,98.9c-54.6,0-98.9-44.3-98.9-98.9l0,0
		c0-54.7,44.3-98.9,98.9-98.9C353.6,235.3,397.8,279.6,397.8,334.2L397.8,334.2L397.8,334.2z"/>
	<path style="fill:#9C824A;" d="M392.7,334.2c0,51.8-41.9,93.8-93.7,93.8c-51.7,0-93.6-42-93.6-93.8l0,0c0-51.7,41.9-93.8,93.6-93.8
		C350.7,240.5,392.7,282.4,392.7,334.2L392.7,334.2L392.7,334.2z"/>
	<path style="fill:#FFFFFF;" d="M377.1,334.2c0,43.2-35,78.2-78.1,78.2c-43.1,0-78.1-35-78.1-78.2l0,0c0-43.2,35-78.2,78.1-78.2
		C342.1,256,377.1,291,377.1,334.2L377.1,334.2L377.1,334.2z"/>
	<path style="fill:#9C824A;" d="M371.9,334.2c0,40.3-32.7,73-73,73c-40.3,0-72.9-32.6-72.9-73l0,0c0-40.3,32.7-73,72.9-73
		C339.3,261.3,371.9,293.9,371.9,334.2L371.9,334.2L371.9,334.2z"/>
	<path style="fill:#FFFFFF;" d="M329.4,334.2c0.1,16.8-13.6,30.4-30.4,30.5c-16.8,0-30.5-13.6-30.5-30.4v-0.1
		c0-16.8,13.6-30.4,30.4-30.4C315.7,303.7,329.4,317.4,329.4,334.2C329.4,334.2,329.4,334.2,329.4,334.2L329.4,334.2z"/>
	<path style="fill:#9C824A;" d="M325.8,334.2c0,14.8-12,26.9-26.8,26.9c-14.8,0-26.8-12-26.9-26.8v-0.1c0-14.8,12-26.8,26.8-26.8
		C313.8,307.4,325.8,319.4,325.8,334.2L325.8,334.2L325.8,334.2z"/>
	<path style="fill:#FFFFFF;" d="M312.8,334.2c0,7.6-6.2,13.8-13.8,13.8c-7.6,0-13.8-6.2-13.8-13.8l0,0c0-7.6,6.2-13.8,13.8-13.8
		C306.6,320.4,312.8,326.6,312.8,334.2L312.8,334.2L312.8,334.2z"/>
	<path style="fill:#9C824A;" d="M308.9,334.2c0,5.5-4.4,10-10,10c-5.5,0-10-4.4-10-10l0,0c0-5.5,4.5-10,10-10
		C304.5,324.2,308.9,328.7,308.9,334.2L308.9,334.2L308.9,334.2z"/>
	<rect x="288.5" y="259.6" style="fill:#FFFFFF;" width="20.8" height="48.5"/>
	<rect x="291.7" y="252.6" style="fill:#9C824A;" width="14.3" height="61.6"/>
	<polygon style="fill:#FFFFFF;" points="356.8,286.9 368.2,304.4 327.5,330.8 316.2,313.3 	"/>
	<polygon style="fill:#9C824A;" points="364.4,285.9 372.2,297.9 320.6,331.5 312.8,319.4 	"/>
	<polygon style="fill:#FFFFFF;" points="269.8,338.2 280.9,355.7 240,381.6 228.9,364.1 	"/>
	<polygon style="fill:#9C824A;" points="276.8,337.2 284.5,349.3 232.5,382.3 224.8,370.1 	"/>
	<rect x="288.5" y="362" style="fill:#FFFFFF;" width="20.8" height="48.5"/>
	<rect x="291.7" y="355.1" style="fill:#9C824A;" width="14.3" height="61.6"/>
	<path style="fill:#EF0107;stroke:#EF0107;stroke-width:0.3115;stroke-miterlimit:282;" d="M278.7,356.9c2.8,2.4,5.9,4.5,9.8,6.1
		l-0.1,43.3c-19.6-2.5-34.4-12.2-45.6-25.9L278.7,356.9"/>
	<path style="fill:#DB0007;stroke:#DB0007;stroke-width:0.3115;stroke-miterlimit:282;" d="M319.2,357c-2.9,2.3-5.9,4.5-9.8,6.1
		l0.1,43.3c19.6-2.5,34.4-12.2,45.6-26L319.2,357"/>
	<path style="fill:#DB0007;" d="M329,338.9l42.9-5.2c0.3,10.7-2.2,20.2-5.9,29.2l-37.1-24"/>
	<path style="fill:#FFFFFF;stroke:#FFFFFF;stroke-width:0.3115;stroke-miterlimit:282;" d="M329,338.7c0.2-0.7,0.1-1.3,0.4-3.3
		l42.3-5.5c0.2,2,0.1,2.7,0,3.6L329,338.7L329,338.7z"/>
	<path style="fill:#FFFFFF;" d="M391.7,303.1h55.5c-1.7,6.6-3.4,13.3-11.4,16.2c-12.7,4.8-39.2,9.4-39.2,9.4
		C396.1,321.4,394.5,311.6,391.7,303.1L391.7,303.1z"/>
	<path style="fill:#FFFFFF;" d="M353,252.5l145.1,0.2l-5.1,53l-99.1,5.2C388.5,287.1,370.5,264.5,353,252.5L353,252.5z"/>
	<path style="fill:#9C824A;" d="M358.2,256.2l185.2,0.2l-7.1,43.2l-143.7,7.1C386.9,285.2,374,269.5,358.2,256.2L358.2,256.2z"/>
	<path style="fill:#9C824A;" d="M391.7,303.1h51.1c-1.7,5.8-2.9,11.2-10.4,13.8c-12,4.3-36,7.6-36,7.6
		C395.4,317.5,393.9,310.4,391.7,303.1L391.7,303.1z"/>
	<path style="fill:#9C824A;" d="M335.6,175.4c0,2.4-0.5,8.8-0.8,10.6h28.7c-1.7-7.6-2.5-18.3-2.8-26.5c0,0.6-0.5-16.5-0.5-16.5
		c0-1.2,0.5-3,1.2-3.5c1-1.2,2-1.2,3.3-1.2c1.2-0.6,3.5-0.6,3.8,4.1l0.7,17.6c0.3,8.3,0.3,19.4-0.7,25.9h27.7c-0.2-2.4-1-8.3-1.2-10
		c3.5,7.6,11,11.7,21,11.7c6,0,10.5-2.3,14-4.7c0,0.6,1.5,2.9,1.5,2.9h51.4c-2.2-7.6-3.7-18.3-4.5-26.5l-7.2-57.6l-26.4-4.7
		c2.2,7.6,3.8,18.8,4.7,26.5l4,37.1c0.7,6.5,1.2,13.5,1.2,21.2v0.6l-1-2.4c-2-4.7-3-10.6-3.8-19.4l-1-11.8
		c-1.5-18.8-11.7-27-34.2-27c-3.7,0-13.2,0.6-19,2.4l1.5,21.1l6-3.5c5-3,8.7-4.2,13.2-4.2c3.5,0,5.8,1.2,6.8,3.5
		c-4.3,0.6-9,1.8-14.3,4.1c-8,3.5-13,8.9-15.2,14.7v-0.6l-0.8-19.4c-0.4-12.4-8.5-20.6-20.7-20.6c-5.4,0-10.4,1.7-14.9,4.7
		c-0.3-0.6-0.5-1.2-0.8-1.8l-1-2.4l-23-1.2c1,4.2,2.5,15.9,2.8,20c-1.2-5.8-4.5-12.3-10.5-17c-4.7-3-10.7-4.7-16.9-4.7
		c-8.5,0-17.2,3.5-23,9.4c-6,5.8-9,14.1-9.3,23.5c-2.2-2.4-5.2-4.7-8.7-5.8l-10.5-5.3h-0.5c-2.5-1.2-2.8-1.7-2.8-2.3
		c0.3-1.2,2.8-2.4,6-2.4c4.5,0,10.7,2.4,15.7,5.3l0.5-18.8c-3.8-1.8-9-2.9-16.5-2.9c-4,0-11.5,0.6-18,4.1c-1.7,1.2-3.3,2.4-4.7,3.5
		l0.2-5.3c-6-1.1-12.5-1.1-20.4,6.5c-0.3-0.6-0.8-3.5-1.3-4.7l-24.7,1.2c1.7,7,2,17,1.5,25.8l-0.5,9.4v1.2c-0.3,4.7-0.5,10-1,14.7
		c-2-6.5-4.2-15.3-6-22.4l-12.2-55.3l-34.9,5.3c0.2,0.6,0.7,2.4,1,4.1c0.2,2.4,0.2,7.1-3,17.1c-5.7,15.8-13.7,40-21.4,57
		c-1,2.4-3,5.9-3,5.9h27.2c0.5-4.1,2.2-11.2,4-16.5c3.8,0,13.5,0,18-0.6c1,4.2,2,9.4,2.3,13l0.4,4.1h54.5
		c-1.2-8.8-0.7-20.6-0.3-27.1c0.5-7.6,2-12.9,5.3-15.8c2.5-3,5.2-3.5,7.2-3.5c-0.3,10.6,6.5,15.3,12.5,18.2l10.7,5.3
		c3.8,2.4,3.8,2.9,3.8,4.1c-0.2,1.7-3.3,2.4-6,2.4c-5.7,0-13.5-3.5-21.9-12.9l-0.5,24.7c6.7,3.5,15.2,5.3,22.7,5.3
		c12.5,0,25.7-5.8,29.2-17c6.2,11.7,18.5,17,30.5,17C320.6,186.6,328.5,183.1,335.6,175.4L335.6,175.4z M148.1,151.3
		c1.5-4.1,2.7-7.6,5-14.1c1.5,6.5,2.2,10.6,3,13.5C153.1,151.3,151.5,151.3,148.1,151.3L148.1,151.3z M300.9,144.9
		c0-8.2,3-11.7,5.9-11.7c1,0,3.3-0.6,4.3,3.5c0.5,1.7,0.7,2.9,0.7,3.5c0,2.4-1.2,3-2.8,3v0.6c0,0-4.2,1.2-8.2,3
		C300.9,146.1,300.9,145.5,300.9,144.9L300.9,144.9z M329.3,162c-5.3,4.7-9,7.6-15.3,7.6c-5-0.6-8-3.5-9.7-7.6
		c5.2-1.8,25.4-9.4,31.2-11.8c0,4.7,0.2,10,0.2,10v10L329.3,162L329.3,162z M422.4,170.2c-4.7,0-5.7-3.5-6-5.8
		c0.2-2.4,1-5.9,8.5-8.3c0.2,2.9,0.5,5.3,0.5,5.3v2.4c0.2,1.8,0.2,3.5,0.4,5.3C424.9,169.6,423.7,169.6,422.4,170.2"/>
	<path style="fill:#FFFFFF;" d="M271.1,123.7c-2.5-0.6-6.2-1.7-12.2-1.7c-4.7,0-10.9,1.2-15.7,3.5c-5.5,3.5-9.5,8.2-9.7,13.5
		c-0.5,8.2,3.8,11.7,10,14.7c4.2,2.4,8.3,4.7,10.7,5.9c3.3,1.7,6.2,3.5,6,7.6c-0.3,4.1-4,7.1-10.3,7.1c-5.2,0-12.7-3.5-18-8.3
		l-0.2,12.4c4.5,2.4,11.7,3.5,18.5,3.5c11.5,0,25.7-5.3,25.9-18.3c0.3-10-6.7-13.5-10.9-15.8c-4.3-1.8-8.5-4.2-10.5-4.7
		c-2-1.2-6-2.4-5.7-7.1c0.4-4.1,5.2-5.9,10.2-5.9c4.2,0,8.5,1.2,11.7,3"/>
	<path style="fill:#FFFFFF;" d="M168.6,102l-26.5,3.5c0.5,3.5-0.5,10.6-3.3,18.8c-5.4,15.8-14.4,42.3-21.4,57.6h16.5
		c1-5.3,2.2-10,4.7-16.5l24.5-0.6c1,4.7,2.8,12.4,3,17.1h22.2c-2.8-6.5-6.2-20-8.5-29.4L168.6,102L168.6,102z M142.1,155.4l12-34.7
		l7.2,34.1"/>
	<path style="fill:#FFFFFF;" d="M231.9,123.7l-0.5,11.8c-4-0.6-9,0.6-13,4.7c-3.5,3.5-5.7,8.8-6.2,18.3c-0.5,7.6-0.7,16.5-0.3,23.5
		h-18.7c1.2-7.1,1.7-15.3,2-23l0.5-9.4c0.5-7.6,0.5-15.3-0.7-22.4l16.5-0.6c0.7,2.4,1.2,6.5,1,10.6
		C219.7,126.1,226.7,123.7,231.9,123.7"/>
	<path style="fill:#FFFFFF;" d="M467.4,105.5l-17-3c1.7,7.7,2.2,13,3.3,20.6l4,37c0.8,7.6,1.5,14.7,1.3,21.8h18.5
		c-1.8-7.1-2.5-14.2-3.3-21.8"/>
	<path style="fill:#FFFFFF;" d="M391.2,182c-1-7.1-1.5-14.2-1.7-21.8l-0.7-19.4c-0.5-10.6-6.5-16.5-16.5-16.5
		c-5.4,0-12,1.7-17.5,8.8c-0.2-1.8-1-6.5-2-8.8l-14.9-0.6c1.2,7.1,1.7,14.1,2,21.7l0.3,14.7c0.2,7.6,0,14.7-0.5,21.8h18.7
		c-1-7.1-1.5-14.2-1.7-21.8l-0.5-16.5c-0.2-5.9,4.3-10,8.8-10c5.2,0,7.7,3.5,8,8.8l0.8,17.6c0.2,7.6,0.2,14.7-0.3,21.8"/>
	<path style="fill:#FFFFFF;" d="M449.6,182c-2.2-5.9-3.5-13-4-20.6l-1-11.7c-1-14.1-7-23.5-30-23.5c-4,0-9.7,0.6-14.4,1.7l0.7,10.6
		c4.7-2.9,9.5-5.3,15.5-5.3c6.2,0,11.5,2.9,12,11.7c-6,0.6-11.5,1.7-17.7,4.7c-7,2.9-14.2,8.8-13.5,18.2
		c0.7,10.6,8.8,15.3,18.7,15.3c7.7,0,13-3.5,15.9-7.1c0.5,2.4,1.3,4.1,2,5.9H449.6L449.6,182L449.6,182z M422.4,174.3
		c-5.5,0-10-3-10.2-9.4c0-6.5,4-11.7,16.7-13.5l0.7,10c0.3,3.5,0.3,5.9,0.8,8.8C428.6,172.5,425.7,173.7,422.4,174.3"/>
	<path style="fill:#FFFFFF;" d="M322.3,125.5c-4.3-3-9.3-4.2-14.5-4.2c-12.2,0-28.5,8.8-28,31.2c0.2,22.9,17.7,30,30,30
		c10.7,0,17.2-4.1,22.5-9.4l-3.8-5.3c-2.7,2.4-7.2,5.9-14.5,5.9c-7.7-0.6-12.7-5.9-15.4-14.1l33.9-12.4
		C331.5,136.1,327.5,129.6,322.3,125.5L322.3,125.5z M310.6,147.2l-13.5,5.3c-0.3-2.4-0.5-4.7-0.5-7.6c0-13.5,7.5-15.9,10-15.9
		c4-0.6,7.5,1.8,8.8,6.5C316.8,140.8,316.3,145.5,310.6,147.2"/>
	<polygon style="fill:#FFFFFF;" points="230.7,300.4 242.1,283 282.6,309.5 271.2,326.9 	"/>
	<polygon style="fill:#9C824A;" points="226.9,294.4 234.8,282.4 286.3,316.1 278.4,328.2 	"/>
	<polygon style="fill:#FFFFFF;" points="317.2,355.6 328.6,338.2 369.1,364.8 357.7,382.2 	"/>
	<polygon style="fill:#9C824A;" points="313.4,349.7 321.3,337.7 372.8,371.4 364.9,383.4 	"/>
</g>
</svg>
