<?xml version="1.0" encoding="utf-8"?>
<!-- Generator: Adobe Illustrator 16.0.0, SVG Export Plug-In . SVG Version: 6.00 Build 0)  -->
<!DOCTYPE svg PUBLIC "-//W3C//DTD SVG 1.1//EN" "http://www.w3.org/Graphics/SVG/1.1/DTD/svg11.dtd">
<svg version="1.1" id="Layer_1" xmlns="http://www.w3.org/2000/svg" xmlns:xlink="http://www.w3.org/1999/xlink" x="0px" y="0px"
	 width="600px" height="600px" viewBox="0 0 600 600" style="enable-background:new 0 0 600 600;" xml:space="preserve">
<g>
	<defs>
		<rect id="SVGID_1_" x="32.4" width="534.3" height="600"/>
	</defs>
	<clipPath id="SVGID_2_">
		<use xlink:href="#SVGID_1_"  style="overflow:visible;"/>
	</clipPath>
	<g style="clip-path:url(#SVGID_2_);">
		<defs>
			<rect id="SVGID_3_" x="103.9" y="23.5" width="406.5" height="568.4"/>
		</defs>
		<clipPath id="SVGID_4_">
			<use xlink:href="#SVGID_3_"  style="overflow:visible;"/>
		</clipPath>
		<path style="clip-path:url(#SVGID_4_);fill:none;stroke:#FFFFFF;stroke-width:3.828;stroke-miterlimit:6;" d="M317.4,555.6
			c5.9-4.6,10.1-6.8,19.9-10.4c52.5-19.2,154.5-30.7,154.5-101V42.2H122.5v401.9c0,69.1,99.4,82.8,153.2,100.5c0,0,12,4.8,16.9,8.2
			c7.1,4.8,14.1,12.3,14.1,12.3S313.4,558.7,317.4,555.6z"/>
		<path style="clip-path:url(#SVGID_4_);fill:#93BDE4;" d="M317.4,555.6c5.9-4.6,10.1-6.8,19.9-10.4c52.5-19.2,154.5-30.7,154.5-101
			V42.2H122.5v401.9c0,69.1,99.4,82.8,153.2,100.5c0,0,12,4.8,16.9,8.2c7.1,4.8,14.1,12.3,14.1,12.3S313.4,558.7,317.4,555.6"/>
		<path style="clip-path:url(#SVGID_4_);fill:none;stroke:#7A003C;stroke-width:1.4287;stroke-miterlimit:6;" d="M317.4,555.6
			c5.9-4.6,10.1-6.8,19.9-10.4c52.5-19.2,154.5-30.7,154.5-101V42.2H122.5v401.9c0,69.1,99.4,82.8,153.2,100.5c0,0,12,4.8,16.9,8.2
			c7.1,4.8,14.1,12.3,14.1,12.3S313.4,558.7,317.4,555.6z"/>
		<polyline style="clip-path:url(#SVGID_4_);fill:#FFFFFF;" points="206.3,169 212.3,181.3 225.7,183.3 216,192.8 218.3,206.3 
			206.3,199.9 194.4,206.3 196.7,192.8 187.1,183.3 200.4,181.3 		"/>
		<path style="clip-path:url(#SVGID_4_);fill:#7A003C;" d="M183.2,83c0.5-2,1.1-4.1,1.8-6.4c0.7-2.3,1.6-3.9,2.7-4.7L193,68
			c0.7-0.6,1.1-0.8,1.4-0.8c0.2,0,0.5,0.5,0.9,1.4l24.5,61c1.2,3.1,2.4,5.2,3.4,6.3c1,1,2.8,1.7,5.4,2.1c0.9,0.2,1.3,0.5,1.3,1.1
			v1.6c0,0.9-0.4,1.3-1.1,1.3c-1.2,0-3.2-0.1-6.2-0.3c-2.9-0.2-5.3-0.3-7-0.3c-1.4,0-4.2,0.1-8.3,0.3c-4.1,0.2-6.5,0.3-7.3,0.3
			c-0.6,0-0.9-0.3-0.9-0.8v-1.8c0-1,0.6-1.4,1.6-1.4c4.1,0,6.2-1.3,6.2-3.9c0-0.8-0.2-1.6-0.5-2.4c-0.3-0.9-1-2.7-2.2-5.5l-4.9-11.9
			h-21.1l-5,14.5c-0.8,2.3-1.2,3.9-1.2,5.1c0,2.8,2.4,4.1,7.2,4.1c0.9,0,1.3,0.4,1.3,1.2v2c0,0.6-0.6,0.9-1.9,0.9
			c-0.8,0-2.4-0.1-5-0.3c-2.5-0.2-4.4-0.3-5.7-0.3s-3.3,0.1-6,0.3c-2.7,0.2-4.3,0.3-4.8,0.3c-0.8,0-1.1-0.3-1.1-0.9v-1.7
			c0-0.9,0.5-1.4,1.6-1.4c2.9,0,5.1-1.1,6.6-3.4c1.5-2.3,3.2-6,5-11.4 M180.3,109.2L180.3,109.2l17,0v0L187.7,86h-0.1L180.3,109.2z"
			/>
		<path style="clip-path:url(#SVGID_4_);fill:#7A003C;" d="M272.4,125.3L272.4,125.3l16.1-42.1c0.7-1.8,1.1-3.5,1.1-5.1
			c0-1.5-0.5-2.4-1.6-2.9c-1-0.5-2.9-0.7-5.8-0.7c-1.1,0-1.7-0.4-1.7-1.3v-1.6c0-0.8,0.4-1.1,1.2-1.1c0.6,0,2.5,0.1,5.7,0.3
			c3.2,0.2,5.5,0.3,6.9,0.3c1,0,2.5-0.1,4.6-0.3c2.1-0.2,3.5-0.3,4.2-0.3c0.8,0,1.1,0.4,1.1,1.3v1.5c0,0.9-0.4,1.3-1.3,1.3
			c-2.3,0-3.9,0.6-4.7,1.7c-0.8,1.1-2,3.5-3.3,7l-23.7,59.2c-0.2,0.6-0.5,1-0.8,1.2c-0.3,0.2-0.8,0.2-1.4,0.2h-1.7
			c-0.8,0-1.4-0.1-1.7-0.3c-0.3-0.2-0.6-0.7-0.8-1.4l-24.1-59.5c-1.3-3.1-2.7-5.3-4.2-6.4c-1.5-1.1-3.6-1.7-6.4-1.7
			c-1.1,0-1.6-0.4-1.6-1.1v-1.8c0-0.8,0.4-1.1,1.2-1.1c0.7,0,2.7,0.1,5.9,0.3c3.2,0.2,5.8,0.3,7.8,0.3c1.7,0,4.8-0.1,9.2-0.3
			c4.4-0.2,7.1-0.3,7.9-0.3c1.1,0,1.6,0.4,1.6,1.3v1.7c0,0.8-0.5,1.2-1.4,1.2c-2.5,0-4.3,0.2-5.4,0.7c-1,0.4-1.6,1.1-1.6,2
			c0,0.9,0.4,2.5,1.3,4.8"/>
		<path style="clip-path:url(#SVGID_4_);fill:#7A003C;" d="M342,101.2h15.1c3.1,0,5.2-0.4,6.2-1.3c1-0.9,1.8-2.7,2.4-5.5
			c0.1-0.7,0.4-1.1,0.9-1.1h2.1c0.7,0,1,0.4,1,1.1c0,0.6-0.1,2.2-0.2,4.6c-0.1,2.4-0.2,4.3-0.2,5.7c0,1,0.1,2.5,0.2,4.8
			c0.2,2.2,0.2,3.6,0.2,4.3c0,1-0.2,1.5-0.7,1.5h-2.1c-0.6,0-1-0.4-1.1-1.3c-0.7-3-1.7-5.1-3.2-6.3c-1.4-1.3-3.6-1.9-6.6-1.9h-14
			v23.5c0,3.2,0.6,5.5,1.9,6.8c1.2,1.3,3.2,1.9,5.9,1.9c1.1,0,1.6,0.3,1.6,0.8v2.4c0,0.6-0.6,0.9-1.6,0.9c-0.6,0-2.5-0.1-5.9-0.3
			c-3.3-0.2-5.7-0.3-7.2-0.3c-1.3,0-4.1,0.1-8.4,0.3c-4.3,0.2-6.8,0.3-7.4,0.3c-1.2,0-1.8-0.4-1.8-1.1V139c0-0.7,0.6-1,1.7-1
			c2.6,0,4.6-0.7,5.8-2.2c1.3-1.5,1.9-3.6,1.9-6.5V84.8c0-3.9-0.5-6.6-1.5-8.1c-1-1.5-3-2.2-6-2.2c-1.3,0-2-0.4-2-1.1v-1.9
			c0-0.7,0.6-1,1.8-1c0.7,0,3.3,0.1,8,0.3c4.7,0.2,8.5,0.3,11.5,0.3c2.4,0,8.4-0.1,17.9-0.3c9.5-0.2,14.8-0.3,15.8-0.3
			c0.7,0,1.1,0.4,1.1,1.1v14c0,0.9-0.3,1.3-1,1.3h-1.5c-0.7,0-1.2-0.5-1.5-1.5l-1.1-3c-1-2.7-2.4-4.6-4.3-5.7
			c-1.8-1.1-5.5-1.6-10.8-1.6h-3.1c-3.8,0-6.4,0.4-7.8,1.3c-1.4,0.9-2,2.5-2,5.1"/>
		<path style="clip-path:url(#SVGID_4_);fill:#7A003C;" d="M453.7,89.1c0,0.3-0.5,0.5-1.5,0.7c-1,0.2-1.7,0.3-2.2,0.3
			c-0.3,0-0.6-0.1-0.7-0.3c-0.1-0.2-0.2-0.6-0.4-1.2c-1.2-3.9-3.5-7.3-6.9-10.3c-3.4-3-7.7-4.5-13.1-4.5c-7.9,0-14.3,3-19.2,9.1
			c-4.9,6-7.4,13.7-7.4,22.9c0,9.3,2.6,17.1,7.9,23.5c5.3,6.3,11.9,9.5,19.9,9.5c5.8,0,10.1-1.1,12.9-3.4c2.8-2.3,5.3-5.9,7.5-10.9
			c0.6-1.4,1.1-2.1,1.5-2.1c0.4,0,1.2,0.2,2.3,0.6c1,0.4,1.6,0.7,1.6,1.1c0,0.2-0.1,0.7-0.3,1.5l-3.1,12.8
			c-6.9,3.5-14.8,5.3-23.8,5.3c-11.6,0-21.4-3.4-29.2-10.1c-7.8-6.7-11.8-16.4-11.8-28.9c0-10,3.9-18.5,11.7-25.5
			c7.8-7,17.5-10.6,28.9-10.6c5.2,0,10.3,0.9,15.3,2.7c5,1.8,7.8,3.3,8.3,4.5c0.2,0.5,0.5,2.8,1,6.8
			C453.5,86.5,453.7,88.6,453.7,89.1"/>
		<path style="clip-path:url(#SVGID_4_);fill:#7A003C;" d="M229.1,482.1v26h3.8v-13.6c0,0,10.4-2.4,10.4-8.5
			C243.3,479.9,229.1,482.1,229.1,482.1 M232.9,490.8v-6c0,0,6.5-0.8,6.5,1.1C239.4,489.4,232.9,490.8,232.9,490.8z"/>
		<path style="clip-path:url(#SVGID_4_);fill:#7A003C;" d="M288.7,482.1v26h3.8v-13.6c0,0,10.4-2.4,10.4-8.5
			C303,479.9,288.7,482.1,288.7,482.1 M292.5,490.8v-6c0,0,6.6-0.8,6.6,1.1C299.1,489.4,292.5,490.8,292.5,490.8z"/>
		<path style="clip-path:url(#SVGID_4_);fill:#7A003C;" d="M248,482.1v26h3.8v-13.6c0,0,10.5-2.4,10.5-8.5
			C262.2,479.9,248,482.1,248,482.1 M251.8,490.8v-6c0,0,6.5-0.8,6.5,1.1C258.3,489.4,251.8,490.8,251.8,490.8z"/>
		<path style="clip-path:url(#SVGID_4_);fill:#7A003C;" d="M261.7,508c0,0-0.5-3.6-2.5-8.3c-2-4.8-3.5-7.1-3.5-7.1l2.9-1.7
			c0,0,2.7,4,4.3,8.2c1.7,4.2,2.5,9,2.5,9"/>
		<path style="clip-path:url(#SVGID_4_);fill:#7A003C;" d="M327.4,482.1v26h3.8v-13.6c0,0,10.5-2.4,10.5-8.5
			C341.7,479.9,327.4,482.1,327.4,482.1 M331.2,490.8v-6c0,0,6.6-0.8,6.6,1.1C337.8,489.4,331.2,490.8,331.2,490.8z"/>
		<path style="clip-path:url(#SVGID_4_);fill:#7A003C;" d="M341.1,508c0,0-0.5-3.6-2.5-8.3c-2-4.8-3.5-7.1-3.5-7.1l2.9-1.7
			c0,0,2.7,4,4.3,8.2c1.7,4.2,2.5,9,2.5,9"/>
		<rect x="271" y="482.1" style="clip-path:url(#SVGID_4_);fill:#7A003C;" width="3.8" height="25.9"/>
		<rect x="271" y="482.1" style="clip-path:url(#SVGID_4_);fill:#7A003C;" width="11.4" height="2.9"/>
		<rect x="271" y="505.1" style="clip-path:url(#SVGID_4_);fill:#7A003C;" width="11.4" height="2.9"/>
		<rect x="271" y="490.2" style="clip-path:url(#SVGID_4_);fill:#7A003C;" width="8.9" height="2.9"/>
		<rect x="349.2" y="482.1" style="clip-path:url(#SVGID_4_);fill:#7A003C;" width="3.8" height="25.9"/>
		<rect x="349.2" y="482.1" style="clip-path:url(#SVGID_4_);fill:#7A003C;" width="11.5" height="2.9"/>
		<rect x="349.2" y="505.1" style="clip-path:url(#SVGID_4_);fill:#7A003C;" width="11.5" height="2.9"/>
		<rect x="349.2" y="490.2" style="clip-path:url(#SVGID_4_);fill:#7A003C;" width="8.9" height="2.9"/>
		<polyline style="clip-path:url(#SVGID_4_);fill:#7A003C;" points="302.3,508 310.4,482 313.7,482 306.3,508 		"/>
		<polyline style="clip-path:url(#SVGID_4_);fill:#7A003C;" points="323.8,508 315.7,482 312.5,482 319.8,508 		"/>
		<rect x="308.6" y="490.2" style="clip-path:url(#SVGID_4_);fill:#7A003C;" width="8.9" height="2.9"/>
		<rect x="366.8" y="482.1" style="clip-path:url(#SVGID_4_);fill:#7A003C;" width="3.8" height="25.9"/>
		<path style="clip-path:url(#SVGID_4_);fill:#7A003C;" d="M370.6,508c0,0,12.6,0.2,12.6-15.9c0-13.3-16.4-10-16.4-10l3.3,3.1
			c0,0,9.3-2.1,9.3,7.2c0,13.8-9.8,13.2-9.8,13.2"/>
		<path style="clip-path:url(#SVGID_4_);fill-rule:evenodd;clip-rule:evenodd;fill:#FFE600;" d="M447.6,216.5
			c0,0-7.4,10.1-15.3,11.8c-5.6,1.2-9.4,0.6-9.4,0.6s2.1-0.2,3.7-1.4c1.8-1.4,2.9-3.8,2.9-3.8s-3.3,1.7-8.9,0.2
			c-2.5-0.7-8-1.2-12.4,0.4c-3.3,1.2-7.3,4.6-7.3,4.6s1.3-1.3,1.9-2.9c0.8-2,0.4-4.2,0.4-4.2s-0.4,2.1-3.2,3.3
			c-1.6,0.7-5.2,2.2-6.7,4.6c-2.1,3.1-1.9,6.9-2.6,7.8c-0.6,0.7-20.8,9.9-22.2,28.4c-1.4,18.5,12.5,32.8,17,38.1
			c4.5,5.3,23.7,27.6,26.8,32.6c2.5,4,4.6,8.2,2.2,13.4c-1.4,3-6.3,6.6-13.4,3.3c-7.2-3.4-12.2-8.1-19.8-11.5
			c-6.1-2.7-13.1-4.7-14.8-5.7c-1.2-0.8-11.7-7.6-12.8-19.9c-0.8-9.6,3-24.5,3.6-34.9c0.8-14.3-3.3-20.5-3.4-21
			c-0.1-1,3.6,0.2,5.2,3c2.2,3.9,2,5.5,2,5.5s4.9-9.1,2.8-20.7c-2.3-13.1-10.4-14.7-10.5-15.7c0-0.8,2.4-1.3,5-0.5
			c7.1,2.2,8.4,9.1,8.4,9.1s3.1-9.6-1.2-19.4c-3.9-8.9-9.6-9.8-9.8-10.8c-0.1-0.5,1.8-1.4,5.6-0.4c5.9,1.5,7.2,6.5,7.2,6.5
			s1.4-8.4-1.1-15.5c-4.5-12.8-13.7-14-13.8-15.1c0-0.6,2.6-1.3,5.3-0.6c4.5,1.2,5,2.6,5,2.6s-0.2-3.1-2.7-7.8
			c-2.7-5.1-9.2-11.9-11.9-13.5c-14.9-9-23.1-7.2-25.8-7.4c-0.7-0.1-2.3-1.4-1.6-3.5c1-3.3,3.3-4.5,3.3-4.5s-6.3-0.2-12,1.9
			c-6.7,2.5-10.1,6.2-10.9,6.2c-0.7,0-1.5-1.2-1.5-2.8c0-2.4,0.8-3.2,0.8-3.2s-7.8,2.6-11.6,5.4c-2.6,1.9-6.7,5-8.7,9.8
			c-1.6,3.8-2.5,8.7-2.5,8.7s-1.8-1.3-4.3,0.5c-2.6,1.9-5.4,5.5-6.8,7.6c-1.3,2-3.4,4.2-4.7,4.8c-1.5,0.6-10.4,3.7-12.1,4.8
			c-1.5,0.9-2.2,4.2-1.9,5.5c0.1,0.6,0.7,2.1,2.1,3.6c0.8,0.8,1.2,0.1,1.7-0.8c0.2-0.5,0.6-0.8,0.9-0.7c1.8,0.9,0.2,5.2,0.7,6.4
			c0.6,1.5,2,2.8,3.5,3.8c2,1.3,6,2.6,6,2.6s-0.6-1.8,0.1-2.9c0.6-0.9,2.3-2.2,4-2.4c3.2-0.4,8.1-0.2,10.6,2c3.5,3,3.1,7,3.1,7
			s-6.3,2.4-9.3,2.9c-3,0.5-5.4,0.4-7.6-0.4c-2.2-0.8-4.2-3.1-4.2-3.1s-0.7,3.5-1,4c-0.2,0.3-1.9,1.1-1.7,2.1c0.3,2,3.1,2.2,3.4,2.7
			c0.4,0.7-1.7,2.7-0.3,5.8c0.8,1.7,2.5,3.1,4.1,4c1.8,1,3.4,1.4,3.4,1.4s-0.6-2.5,0.8-4.3c0.8-1,2.3-1.3,2.5-1.2
			c0.4,0.2,0.5,1.1,2.2,2.1c1.9,1.1,4.2,0.7,4.2,0.7s-1.8-2.2-0.2-4.2c1.1-1.3,3.4-1.8,3.9-1.7c0.5,0.1,2.5,2.5,7.4,4
			c2.3,0.7,5.8,0.9,7.5,0c4.1-2.2,4.2-4,8.3-4.8c0,0-2.2,1.1-4.4,6.4c-1.9,4.7-7.1,6.5-10.4,7.5c-4,1.3-8.4,2.1-12.4,4
			c-2.7,1.3-6.1,3.4-9.1,6.1c-3,2.7-5.8,7.1-7.4,8c-1.6,0.9-15.1,2.6-27.7-1.7c-12.6-4.2-17.4-10.7-22.7-17.6
			c-5.6-7.2-10.7-12.4-14.2-13.7c-3.3-1.2-5.4-1.8-8.4-1.2c-2.2,0.5-4,1.8-4.6,3.9c-1,3.3-0.3,5,0.5,6c0.9,1.2,3.8,2.2,3.8,2.2
			s-3.4-0.6-5.3,1.3c-1.9,1.8-2.4,7.7,0.3,9.9c2.2,1.8,4.4,1.9,4.4,1.9s-1.4,0.1-2,1.1c-0.9,1.7-1.7,4.5-0.4,6.3
			c3.2,4.7,6.4,2.9,9.8,3.6c4.8,1,6.7,1.3,10.2,3c5.4,2.7,10.7,7.7,15.9,12.8c6.2,6.1,11.4,9.3,13.1,10.6c14,11.3,28.4,10,28.4,10
			s-1.1-0.5-3-1.5c-1.4-0.8-2.4-1.7-2-1.7c1-0.1,4.2,0.9,8.7,0.7c4.4-0.2,6.4-1.3,6.9-1.2c0.7,0.1-0.5,7.5-5.3,11.9
			c-4.7,4.3-7.7,5.2-13,5.5c-4.4,0.3-19.9,2.2-23.4,1.6c-3.4-0.5-9-3.1-11.3-3.5c-2.3-0.4-4-0.8-6.5,1.3c-2.4,2.1-4.7,7.6-3.5,10.3
			c1.2,2.7,5.1,3,5.1,3s-5.3,0-7.3,2.8c-1.6,2.4-2.6,5.4-0.5,10.2c1.2,2.7,4.3,5,6.5,4.7c2-0.3,4.7-2.4,4.7-2.4s-3,3.7-1.7,5.7
			c1.3,2,5.3,3.9,8.7,3.7c3.3-0.2,6.6-5.1,8.7-8.2c2.3-3.4,5.6-4.6,9.3-6.1c4.1-1.7,29.7-4.9,33.6-4.2c4.1,0.7,4,0.9,6.3,1.4
			c0,0-0.2-1.3-1.2-2.8c-1.2-2-2.3-2.9-2.1-3.3c0.4-0.5,5.9-0.5,10.3,0.5c5.2,1.2,9.4,4.5,9.4,4.5s-3.7-1.1-7.5-0.8
			c-2.5,0.2-4.7,0.9-4.7,0.9c0.4,0.6,0.4,1,0.7,1.7c0.6,1.8,1.2,4.2,0.9,4.2c-0.5,0-2.6-0.7-5.1-1.2c-3.1-0.6-4.2-1.1-6.9-0.9
			c-1.7,0.1-19.5,4.6-25,14.9c-5.2,9.8-2.5,15.4-0.9,18.4c1.6,3,6.6,7.3,8.2,8.6c2.5,2,11.4,6,11.3,6.9c0,0.8-5.8,2.9-12.4,3.6
			c-6.6,0.7-16.1-1.7-19-5c-1.9-2.2-5.9-8.9-8.3-11.6c-2.4-2.7-8.5-5.5-12.3-3.9c-2.6,1-3.9,3.2-4.9,5.3c-1,2.1-0.1,4,0.6,4.7
			c0.5,0.5,2,1.4,2,1.4s-1.7-0.5-3.5,1.1c-1.6,1.3-2.6,2.9-2.9,6.6c-0.3,3.2,0.7,5.2,2.2,6.5c1.5,1.3,3.5,0.9,3.5,0.9s-3,1-3.1,3.2
			c-0.1,2.2,1.3,5.8,4.1,7.2c2.8,1.4,12.8-0.3,17.3-0.8c3.3-0.4,9.3,0.4,12.5,2.5c2.1,1.4,3.7,3.8,5.6,5.3c1.4,1.1,4,1.4,5.7,0.1
			c1.5-1.1,1.5-2.3,2.5-3.1c0.9-0.7,1.5-1.2,8.1-1.7c5.5-0.4,7.8,1.8,8.6,3.1c0.3,0.6,0.5,0,0.7,1.7c0.3,2.5-0.5,3.5-0.5,3.5
			s3.1-0.2,5.4-1.6c1.3-0.8,3.1-2.2,3.4-2.5c0.4-0.4,1.3-0.8,1.6,0.4c0.4,1.5-0.2,2-0.2,2s3-0.4,5.2-1.8c2.6-1.6,3.3-2.6,4.1-2.7
			c0.5-0.1,0.8,0.5,0.4,2.3c0,0,9.8-1.9,8.8-12.7c-1.4-14.2-2.9-19.9-1.5-25.6c1.4-5.7,6.5-11.3,6.5-11.3l2.2,3.3
			c0,0-3.8,5.3-4.3,12.2c-0.3,4.2,1,12.5,2.3,16.3c1.6,4.6,4.1,8.5,5.3,10c2.5,3.1,4.4,3.3,4.4,3.3s0-0.8,0.4-2.2
			c0.3-1,1.2-1.1,1.3-1.1c0.4,0.1,0.7,1.6,2.5,3.1c1.9,1.6,7,2.4,7,2.4s-0.4-0.7-0.3-1.9c0.1-1.1,0.8-1.9,1.1-1.9
			c0.5,0.2,0,1,3.1,2.5c2.9,1.4,5.9,0.7,5.9,0.7s-0.6-0.8-0.6-1.6c0-1,0.6-1.9,0.9-1.9c0.4-0.1-0.2,0.4,3.5,1.2
			c3.4,0.7,5.6-1.5,5.6-1.5s-1.5-1.4-2.3-3c-0.5-0.9-0.3-1.9,0.2-2.5c0.5-0.6,5.1-0.7,7.2,2.4c1.9,2.7,3.4,15,2.8,21.8
			c-0.5,5-5.2,14-12,18.2c-5.9,3.6-8,2.1-10,0.6c-2.4-1.8-6.7-5.4-9.4-5.8c-2.7-0.4-5.5-0.4-7.7,0.1c-1.8,0.4-0.9,0.1-4.2,1
			c-2.2,0.6-5.9,1.8-7.4,4.6c-1.3,2.5-1.2,7,1,8.6c2,1.5,3.9,1.9,4.9,1c0,0-1.1,0.9-2,2.4c-1.2,2.2-1.2,4.1,0.8,7.3
			c1.8,2.7,4.7,3.8,6.1,3.9c2.2,0.1,3.5-0.5,3.5-0.5s0.5-0.2,1.7-1.6c0,0-2.6,3.8-1.1,6.5c0.7,1.3,3.1,2.6,5.8,2.7
			c3.7,0,7.1-0.6,8.7-1.5c2.6-1.5,4.9-3.2,6.8-4.9c3.5-3,6.6-6.7,11.3-9.7c2.5-1.6,12.6-7,17.4-8c2.7-0.6,4-0.8,5.7-2.3
			c1.6-1.5,3.1-5.4,1.5-8.9c-1.6-3.5-0.3-8.4,1-15c1.3-6.6,3-11,5.1-12.6c2.1-1.5,4.5-1.3,8.7-4.1c4.5-2.9,4-7.8,4-7.8
			s-1.2,0.6-4.7-1.2c-2.9-1.5-2.5-3.2-2.4-3.9c0.1-0.8,0.9-0.7,3.4-2.9c2.9-2.6,2.1-8.9,2.1-8.9s-1,1.3-4,1.3
			c-2.1,0-4.2-0.2-4.6-2.1c-0.4-1.9,1.2-2.3,1.6-4.9c0.5-3.3-1.3-5.4-1.3-5.4s-1.3,2.2-6.7,2.6c-3.4,0.2-5.1-0.3-6.6-0.9
			c-2.1-0.9-4.4-3.4-4.9-6.1c-1-5.2,0.9-7.6,1.4-8.2c2-2.2,6.7-1.2,12.6,2.9c6.7,4.6,19.7,11.2,30.2,6.8c9.8-4,18.7-21.6,8.4-36.5
			c-9.1-13.3-35.3-41.4-38.2-46c-2.6-4.1-6.8-11.1-5.9-17.9c0.8-5.8,3.4-9.6,6.1-11.9c2.6-2.2,5.8-3.7,6.8-3.9
			c0.9-0.1,8.1,4.2,14.2,4.9c5.8,0.7,11.1-1.9,15.2-4.2c3.3-1.9,6.3-1.5,6.3-1.5c-1.5-0.9-1-1-2.6-1.6c-1-0.4-3.2-0.3-3.2-0.3
			s9.1-2.7,13.9-8.1C446.3,231.2,447.6,216.5,447.6,216.5 M287.7,189.6c-0.8,2-2.8,3.9-5,4.5c-1.9,0.5-3.5,0.4-4.8,0
			c-3.3-1.2-4-3.5-4-3.5l3.6-1.7c0.6,1.8,1.8,2.8,3.4,2.9c1.5,0,2.6-0.7,3-1.9c0.3-0.8,0.1-1.9,0.1-1.9s-0.4,1-1.4,1
			c-0.6,0-1.7-0.5-1.3-2l8-3.8C289.3,183.1,289.1,186.4,287.7,189.6z M317.9,179.8c-2.1,3.3-7.7,5.4-7.7,5.4s-1.3,0-0.3-2.4
			c0.9-2.1,1.2-3.1,1.2-3.1l-4.5,1.6c0,0,1.5-1.4,2.2-3.7c0.6-2.3,0.5-3.8,0.5-3.8s-0.6,2-2.8,2.9c-1.8,0.7-5.3,1.1-5.3,1.1
			s4.3-8.9,11-8.3C318.8,170.2,320,176.5,317.9,179.8z"/>
	</g>
</g>
</svg>
