<?xml version="1.0" encoding="utf-8"?>
<!-- Generator: Adobe Illustrator 16.0.0, SVG Export Plug-In . SVG Version: 6.00 Build 0)  -->
<!DOCTYPE svg PUBLIC "-//W3C//DTD SVG 1.1//EN" "http://www.w3.org/Graphics/SVG/1.1/DTD/svg11.dtd">
<svg version="1.1" id="Layer_1" xmlns="http://www.w3.org/2000/svg" xmlns:xlink="http://www.w3.org/1999/xlink" x="0px" y="0px"
	 width="600px" height="600px" viewBox="0 0 600 600" style="enable-background:new 0 0 600 600;" xml:space="preserve">
<g>
	<path style="fill-rule:evenodd;clip-rule:evenodd;fill:#FDDE00;" d="M190.7,3.3l-3.3,3h0l-61.2,55.9l6.5,6.6
		c0.2,0.2,23.3,24.1,24.5,41.4c0.1,1.4,0.2,2.9,0.2,4.4c0,17.6-6.9,37-12.1,51.4l-4.6,13.8c-3.5,12.5-7.4,31.3-7.4,52
		c0,17.3,2.8,36,10.9,53.5c17.8,38.1,49.8,56.2,73.6,64.7c7.4,2.7,13.3,4.4,21.5,6.9l23.8,7.3c3.9,1.2,7.4,2.6,10.6,3.9
		c-5.1,1.4-9.4,3.3-12.7,5.5c-7,4.9-8.5,11.1-8.5,15.5c0,3.9,1.2,8.1,3.5,11.8l0-0.1l0.1,0.4c-14.2-2.5-34.5-7.4-57.3-17.1
		c-24.5-10.5-49.1-28.4-61.2-37.7c1.8-2.1,4-4.5,6.7-7.5c3-3.2,4.8-8.9,4.8-15.3c0-5.4-1.3-10.5-3.7-14.4l-0.1-0.2l-0.3-0.4
		l-0.2-0.2c-16-21.4-39.5-32.9-67.8-33.5c-31.9-0.6-33.1,20.9-33.6,30.1c-0.5,9.4-4.9,30.1-8,39.8c-1.6,5-2.8,6.4-3.5,7.2l-0.3,0.3
		l-2.6,5l-0.1,0.7c-1,9.2,4.8,15.8,8.2,19.7l0.7,0.8c2.7,3.1,7.2,6.4,13.8,10.3c2.7,1.6,6,2.2,9.3,1.9l3.4,2.9
		c1.7,1.5,43.2,36.7,89.2,58c48.5,22.4,79.4,32.3,134.6,32.3h8.9c0,0,0.2-26.8,0.2-32c0.7-0.1,1.4-0.1,2.4-0.1h2.8
		c1,0,1.7,0.1,2.4,0.1c0,5.2,0.2,31.9,0.2,31.9l8.9,0.1c55.2,0,86.1-10,134.6-32.3c45.9-21.2,87.5-56.5,89.2-58l3.4-2.9
		c3.3,0.3,6.6-0.4,9.3-1.9c6.6-3.8,11.1-7.2,13.8-10.3l0.7-0.8c3.2-3.6,8.4-9.4,8.4-17.4c0-0.7,0-1.4-0.1-2.1
		c-0.1-0.8-0.1-0.9-2.5-5.5l-0.2-0.4l-0.3-0.3c-0.7-0.8-1.9-2.3-3.5-7.2c-3.1-9.7-7.5-30.4-8-39.8c-0.5-9.2-1.8-30.7-33.6-30.1
		c-28.3,0.5-51.8,12.1-67.8,33.5l-0.1,0.2l-0.3,0.4l-0.1,0.2c-2.4,3.9-3.7,9-3.7,14.4c0,6.3,1.8,12,4.8,15.3c2.8,3,4.9,5.4,6.7,7.5
		c-12,9.3-36.7,27.2-61.2,37.7c-22.8,9.8-43,14.7-57.3,17.1l0.1-0.4l-0.1,0.1c2.2-3.7,3.5-7.9,3.5-11.8c0-4.4-1.5-10.6-8.5-15.5
		c-3.6-2.5-8.6-4.4-14.4-5.9c3-1.2,6.1-2.4,9.6-3.5l23.8-7.3c8.1-2.5,14.1-4.2,21.5-6.9c23.8-8.5,55.8-26.6,73.6-64.7
		c17.9-38.4,9.9-82.5,3.6-105.3l-4.7-14c-5.6-15.7-13.3-37.1-12-55.8c1.2-17.4,24.3-41.2,24.5-41.4l6.5-6.6L406.2,1l-7.3,6.1
		c-10.7,9-25.3,21.2-47.2,23.3c-22.2,2.2-39.1-3.2-46-9.6l-6-5.5l-6,5.5c-6.9,6.3-23.8,11.7-45.9,9.6c-21.9-2.1-36.5-14.4-47.2-23.3
		L193.2,1L190.7,3.3L190.7,3.3z"/>
	<path style="fill-rule:evenodd;clip-rule:evenodd;fill:#0F4D92;" d="M534.3,373.1c-2.5,0.7-5,1.5-7.6,2.5
		c3.1,6.5,5.3,11.4,5.3,11.4s-41.6,35.6-87.1,56.6c-45.5,21-75.6,31.5-130.8,31.5c0-4.5-0.2-29-0.2-29s-1.2-3.1-11.3-3.1h-2.8
		c-10.1,0-11.3,3.1-11.3,3.1s-0.2,24.5-0.2,29c-55.2,0-85.3-10.5-130.8-31.5c-45.5-21-87.1-56.6-87.1-56.6s2.3-5,5.4-11.7
		c-2.7-1-5-1.8-7.6-2.4c-0.6,3.5-1.2,5.9-2.8,7.3c-2.7,2.3-6.6,2.5-9.1,1c-2.5-1.4-8.6-5.2-11.5-8.4c-2.9-3.3-7.4-7.8-6.8-13.4
		c0.2-1.4,3.1-2.1,6.2-11.7c3.1-9.7,7.8-31.3,8.4-42C53.1,295,54.8,283.6,77,284c22.2,0.4,44.7,8.4,60.8,29.9
		c3.7,6.2,2.7,16.1,0,18.9c-2.7,2.9-10.7,11.5-12.6,15.3c17.7,14.4,45.1,33.6,70,44.3c26.1,11.2,51.3,17.1,70.3,19.4
		c0-3.9,0.4-11.7-1.9-15.5c-2.3-3.7-4.3-10.5,2.5-15.2c6.8-4.7,20.1-7.2,33.6-7.2h2.8c13.4,0,26.8,2.5,33.6,7.2
		c6.8,4.8,4.7,11.5,2.5,15.2c-2.3,3.7-1.8,11.5-1.8,15.5c18.9-2.3,44.1-8.1,70.2-19.4c24.9-10.7,52.3-29.9,70-44.3
		c-1.8-3.7-9.9-12.4-12.6-15.3c-2.7-2.9-3.7-12.8,0-18.9c16.1-21.4,38.5-29.4,60.8-29.9c22.3-0.4,23.9,10.9,24.5,21.6
		c0.6,10.7,5.4,32.3,8.5,42c3.1,9.7,6,10.3,6.2,11.7c0.6,5.6-3.9,10.1-6.8,13.4c-2.9,3.3-9.1,7-11.5,8.4c-2.5,1.4-6.4,1.2-9.1-1
		C535.3,378.9,534.9,376.6,534.3,373.1L534.3,373.1z"/>
	<path style="fill-rule:evenodd;clip-rule:evenodd;fill:#FFFFFF;" d="M69.3,366.4c3,0.7,6.1,1.7,9.2,3c6.3-13.4,14.4-30.7,17.9-38
		c6-12.6,13.7-7.9,26.8-6c8.8,1.3,10.5-4.7,4.7-12.2c-5.8-7.4-20.6-16.5-29.1-19.4c-8.4-2.9-32.3-6.8-36,1.4
		c-3.7,8.2,6.6,16.3,12.2,19.8c5.6,3.5,10.7,6,15,5.4c0,0-17.1,33.8-20,43.5C69.8,364.7,69.5,365.7,69.3,366.4L69.3,366.4z"/>
	<path style="fill-rule:evenodd;clip-rule:evenodd;fill:#1C468A;" d="M119.4,597.2H46.2l11.1-11.1v-81.7l-11.1-11.1h73.3v24.8
		L105.4,504H78.9v32.6h18.3l11.1-11.3v33.1l-11.1-11.1H78.9v39.1h26.4l14.1-14.1V597.2L119.4,597.2z M118.9,524.1h44.7l-10.2,10.2
		l14.6,39.3l14.6-39.3l-10.2-10.2h32.2l-10.4,10.4l-25.9,62.7h-13.2l-25.9-62.7L118.9,524.1L118.9,524.1z M232.3,528.9
		c6.9,0,13,8.6,13,15c0,1.9-0.7,4.4-1.8,6h-22.5C221.1,539.4,223.9,528.9,232.3,528.9L232.3,528.9z M232.3,519.7
		c-21.3,0-36.6,19-36.6,40.2c0,21,16.4,39.6,36.6,39.6c19.7,0,28.4-7.2,34.5-14.6l-5.6-5.8c-2.6,3.5-7.7,10.6-21.7,10.6
		c-17.8,0-18.5-10.2-18.5-30.6h47.7C268.8,535,252.6,519.7,232.3,519.7L232.3,519.7z M306.1,528.7c3.4-3.9,10.6-7.8,18.7-7.8
		c1.2,0,4.9,0.5,7.2,1v29.8l-18.1-18.1l-14.1,15.5v37.7l10.4,10.4h-42.6l10.6-10.4v-44.5l-10.2-10l31.9-10.9v14.3L306.1,528.7
		L306.1,528.7z M379.6,582.6l5.1,5.1c-5.3,10.9-15.7,12.7-20.4,12.7c-12.9,0-21.3-8.1-21.3-19.2v-43.5h-6l0-7.3l27.7-27.7v20.8h20.6
		v9.2h-20.6v57.6C371,590.2,375.6,587.9,379.6,582.6L379.6,582.6z M411,559.9c0-13.9,1.6-31.7,14.8-31.7c13.2,0,15,17.8,15,31.7
		c0,13.9-1.8,31.7-15,31.7C412.5,591.6,411,573.8,411,559.9L411,559.9z M425.7,600.2c22.2,0,40.3-18.1,40.3-40.3
		c0-22.2-18.2-40.2-40.3-40.2c-22,0-40.1,18-40.1,40.2C385.6,582.1,403.7,600.2,425.7,600.2L425.7,600.2z M506.9,529.4
		c7.8-7.6,15.2-9.9,20.3-9.9c13.9,0,21.1,11.6,21.1,19l0,48.2l10.4,10.4h-32.2v-56.4c0-2.8-1.8-7.6-7.4-7.6c-3,0-6.7,1.8-11.3,6.5
		l-7.2,7.2v39.8l10.4,10.4h-42.6l10.6-10.4v-44.5l-10.2-10l31.9-10.9v14.4L506.9,529.4L506.9,529.4z"/>
	<path style="fill-rule:evenodd;clip-rule:evenodd;fill:#0D4E96;" d="M442.5,281c-15.5,33.2-43.7,49.1-64.7,56.6l-21.1,6.7
		l-24.7,7.6c-15.7,5-25.6,10.7-31.9,16c-6.3-5.3-16.2-10.9-31.9-16l-24.7-7.6l-21.1-6.7c-21-7.5-49.3-23.4-64.7-56.6
		c-7-15.1-9.4-31.6-9.4-47c0-20.3,4.1-38.5,6.8-48.1l4.4-13c5.8-16.1,13.5-37.7,13.5-59c0-1.9-0.1-3.9-0.2-5.8
		c-1.3-17.8-15.2-36.7-23.9-47c9.4-8.5,34.3-31.3,42.6-38.9c12,9.7,29,21.6,53.5,24c24.9,2.4,43.6-3,55-9.9
		c11.4,7,30.2,12.4,55.2,9.9c24.5-2.4,41.5-14.3,53.5-24c8.3,7.6,33.3,30.3,42.6,38.9c-8.7,10.2-22.6,29.2-23.9,47
		c-0.1,1.9-0.2,3.9-0.2,5.8c0,21.3,7.8,42.9,13.5,59L445,186c2.7,9.6,6.8,27.8,6.8,48.1C451.8,249.4,449.5,265.9,442.5,281
		L442.5,281z"/>
	<g>
		<defs>
			<polyline id="SVGID_1_" points="148.1,368 148.1,22.3 451.8,22.3 451.8,368 148.1,368 			"/>
		</defs>
		<defs>
			<path id="SVGID_2_" d="M300,368c-6.3-5.3-16.2-10.9-31.9-16l-24.7-7.6l-21.1-6.7c-21-7.5-49.3-23.4-64.7-56.6
				c-7-15.1-9.4-31.6-9.4-47c0-20.3,4.1-38.5,6.8-48.1l4.4-13c5.8-16.1,13.5-37.7,13.5-59c0-1.9-0.1-3.9-0.2-5.8
				c-1.3-17.8-15.2-36.7-23.9-47c9.4-8.5,34.3-31.3,42.6-38.9c12,9.7,29,21.6,53.5,24c1.1,0.1,2.2,0.2,3.3,0.3l0.4,0l1.8,0.1l0.1,0
				c0.7,0,1.5,0.1,2.2,0.1l0.3,0c1,0,1.9,0.1,2.9,0.1l0.1,0h0.1h0.2l0.5,0h0.2l0.4,0l0.8,0h0.1l1.9,0l0.8,0l0.2,0l0.8,0l0.1,0l0.8,0
				c1.5-0.1,2.9-0.2,4.4-0.3l0.6-0.1l0.1,0l0.7-0.1l0.2,0l0.8-0.1l1.5-0.2l0.2,0l0.6-0.1l0.3,0c0.7-0.1,1.5-0.2,2.2-0.4l0.8-0.1
				l1.1-0.2l1.4-0.3l0,0c0.9-0.2,1.9-0.4,2.8-0.6l0,0l0.6-0.2l0.2-0.1l0.3-0.1l1.1-0.3c1.7-0.5,3.3-1,4.9-1.5l0,0l1.1-0.4l0.2-0.1
				c0.7-0.3,1.4-0.5,2.1-0.8l0.3-0.1l0.1,0l0.6-0.2l0.9-0.4l0.2-0.1c0.8-0.4,1.6-0.7,2.4-1.1l0.3-0.2l0.2-0.1l0.2-0.1
				c0.6-0.3,1.1-0.6,1.7-0.9l0.8-0.4l0.3-0.2l0.9-0.5l0.9,0.5l0.4,0.2l0.2,0.1l0.4,0.2l0.3,0.2l0.2,0.1l0.5,0.3l0.9,0.5l0.2,0.1
				l0.1,0.1l0.6,0.3l0.5,0.2l0.2,0.1l0.6,0.3l0.6,0.3l0.1,0l0.5,0.2l0.1,0.1l0.5,0.2l0.3,0.1l0.1,0.1l1.1,0.4l1.2,0.5l1.1,0.4
				l0.2,0.1l1.1,0.4c0.6,0.2,1.2,0.4,1.8,0.6l0.3,0.1c1,0.3,1.9,0.6,2.9,0.8l0.2,0.1l0.5,0.1l0.2,0.1c1.6,0.4,3.2,0.8,4.8,1.1l0.2,0
				l0.6,0.1l0.3,0.1c0.6,0.1,1.2,0.2,1.8,0.3l0.2,0l0.6,0.1l0.3,0.1l0.4,0.1l1.6,0.2c1.7,0.2,3.5,0.4,5.4,0.5l0.6,0l0.5,0l0.4,0
				l0.3,0l0.7,0l0.3,0l0.5,0l0.5,0l0.7,0l0.6,0l0.5,0l0.6,0l0.6,0h0l0.9,0l0.4,0h0.2l0.5,0h0.2h0l0.2,0l1.6,0l0.9,0l0.3,0l0.4,0
				l0.7,0l0.2,0l0.1,0l0.2,0l1,0l0.2,0l1.7-0.1l0.4,0l0.4,0l0.8-0.1l0.8-0.1l0.2,0l1.2-0.1c24.5-2.4,41.5-14.3,53.5-24
				c8.3,7.6,33.3,30.3,42.6,38.9c-8.7,10.2-22.6,29.2-23.9,47c-0.1,1.9-0.2,3.9-0.2,5.8c0,21.3,7.8,42.9,13.5,59L445,186
				c2.7,9.6,6.8,27.8,6.8,48.1c0,15.3-2.3,31.9-9.4,47c-15.5,33.2-43.7,49.1-64.7,56.6l-21.1,6.7l-24.7,7.6
				C316.2,357.1,306.2,362.7,300,368L300,368z M172.8,113.9L172.8,113.9L172.8,113.9z M191.4,22.3L191.4,22.3L191.4,22.3z
				 M408.6,22.3L408.6,22.3L408.6,22.3z M427.1,113.9L427.1,113.9L427.1,113.9z"/>
		</defs>
		<clipPath id="SVGID_3_">
			<use xlink:href="#SVGID_1_"  style="overflow:visible;"/>
		</clipPath>
		<clipPath id="SVGID_4_" style="clip-path:url(#SVGID_3_);">
			<use xlink:href="#SVGID_2_"  style="overflow:visible;"/>
		</clipPath>
		<g transform="matrix(1 0 0 1 -1.525879e-005 0)" style="clip-path:url(#SVGID_4_);">
			
				<image style="overflow:visible;" width="78" height="88" xlink:href="612C3749.jpg"  transform="matrix(3.8939 0 0 -3.9283 148.1055 367.9863)">
			</image>
		</g>
	</g>
	<path style="fill-rule:evenodd;clip-rule:evenodd;fill:#1C468A;" d="M75,126.5l-6.7,6.7v34.9l6.7,6.8H47.4l6.7-6.8v-34.9l-6.7-6.7
		H75L75,126.5z M107.7,142c6.9,0,10.2,7.8,10.2,14.9c0,6.9-3.5,14-10.2,14c-6.5,0-10.1-7.1-10.1-14C97.7,149.7,100.9,142,107.7,142
		L107.7,142z M130.3,123.7c0-10.3-11.1-17.7-22.5-17.7c-11.3,0-22.4,7.4-22.4,17.7c0,6.4,3.9,12.1,9.5,15.2
		c-7.6,3.2-11.7,9.6-11.7,18c0,12.3,12.6,19.6,24.6,19.6c12.1,0,24.7-7.2,24.7-19.6c0-8.3-4.1-14.8-11.8-18.2
		C126.4,135.8,130.3,130.1,130.3,123.7L130.3,123.7z M107.7,136.5c-5.1,0-7.7-6.4-7.7-11.5c0-6.6,1.8-13.4,7.7-13.4
		c5.9,0,7.8,6.7,7.8,13.4C115.5,130.1,113,136.5,107.7,136.5L107.7,136.5z"/>
	<path style="fill-rule:evenodd;clip-rule:evenodd;fill:#1C468A;" d="M459.9,146v-19h42l-21.2,60.5v6.5h-14l23.8-54.9h-23.9
		L459.9,146L459.9,146z M531,142c6.9,0,10.2,7.8,10.2,14.9c0,6.9-3.6,14-10.2,14c-6.5,0-10.1-7.1-10.1-14
		C521,149.7,524.2,142,531,142L531,142z M553.6,123.7c0-10.3-11.1-17.7-22.5-17.7c-11.3,0-22.4,7.4-22.4,17.7
		c0,6.4,3.9,12.1,9.5,15.2c-7.5,3.2-11.7,9.6-11.7,18c0,12.3,12.6,19.6,24.6,19.6c12.1,0,24.7-7.2,24.7-19.6
		c0-8.3-4.1-14.8-11.8-18.2C549.7,135.8,553.6,130.1,553.6,123.7L553.6,123.7z M531,136.5c-5.1,0-7.7-6.4-7.7-11.5
		c0-6.6,1.8-13.4,7.7-13.4c6,0,7.8,6.7,7.8,13.4C538.8,130.1,536.3,136.5,531,136.5L531,136.5z"/>
	<path style="fill-rule:evenodd;clip-rule:evenodd;fill:#FFFFFF;" d="M544.1,304.5c0,0-3.1,6.3-10.6,11.7c-7.4,5.5-13.9,8-13.9,8
		s5.3,9.8,7.6,15.3c2.4,5.5,10.5,23.5,11.5,31.1c1.4,9.6,2.4,8,6.7,5.5c5.3-3.1,10.2-7,14.5-15.6c-2.2-2-5.3-8.6-8-17.8
		C549.2,333.5,544.1,307.7,544.1,304.5L544.1,304.5z"/>
	<path style="fill-rule:evenodd;clip-rule:evenodd;fill:#FFFFFF;" d="M495.6,333.1c0,0-1.4-4.1-6.1-2.7c-6.1,1.8-11,2.9-13.5,2.2
		c1.6,2.5,7,10.4,7,10.4c3.2-2,3.2-2,5.3-3.7C491.3,336.6,495.6,333.1,495.6,333.1L495.6,333.1z"/>
	<path style="fill-rule:evenodd;clip-rule:evenodd;fill:#0F4D92;" d="M541.8,313.1c0,0-5.1,5.1-8.2,7.2c-3.1,2.2-6.3,4.3-7.2,4.9
		c-1,0.6-0.2,1.8,0.4,2.7c0.6,1,9.2,19.4,11.2,25c2,5.7,4.9,17,5.1,18c0.8,0.2,2.9-0.2,4.7-1.4c1.8-1.2,6.9-4.7,8.6-7.8
		c0.2-0.8-0.2-2.7-1-4.1c-0.8-1.4-10.3-26.6-11.3-32.3C542.3,317.3,541.8,313.1,541.8,313.1L541.8,313.1z"/>
	<path style="fill-rule:evenodd;clip-rule:evenodd;fill:#FFFFFF;" d="M501.7,334.2c0,0-45,39.2-82,57.3
		c-38.3,18.8-72.8,25.4-99.7,25.4c-1.2,1.9-1,48-0.6,54c20.7,1,68.5-3.1,123.1-31.2c54.6-28.1,83.3-53,83.8-54
		C523.4,379.2,501.7,334.2,501.7,334.2L501.7,334.2z"/>
	<path style="fill-rule:evenodd;clip-rule:evenodd;fill:#0F4D92;" d="M521.9,385c-6.5,5.7-36.6,30.2-81.8,52.4
		c-57.9,28.5-103.6,30.7-117.8,30.5c-0.1-4.3-0.2-12-0.2-20.1c0-11.2,0.1-22.4,0.5-27.2c21.8-0.9,57.5-6,98.4-26.2
		c31.4-15.5,68.9-45.4,79.6-54.4C505.3,349.7,517.9,376.3,521.9,385L521.9,385z"/>
	<path style="fill-rule:evenodd;clip-rule:evenodd;fill:#FFFFFF;" d="M327.5,401.5c0,0-0.7,8.4-0.6,10.9c-2.8,0.2-9.1,0.3-8.9-4.4
		C318.1,403.5,323.4,404.9,327.5,401.5L327.5,401.5z"/>
	<path style="fill-rule:evenodd;clip-rule:evenodd;fill:#FFFFFF;" d="M302.5,434c0,0,8.4,0.6,10.7,1c0.3-4.2,0.1-17.6,0.4-19
		c-1.7-1.3-4.3-4-4.3-8.8c0-5.2,4.2-10,9.4-11.6c5.5-1.8,12.6-3.7,12.6-6.5c0-3.1-11.7-6.4-28.9-6.4h-2.8c-17.1,0-28.9,3.3-28.9,6.4
		c0,2.8,7.1,4.7,12.6,6.5c5.2,1.7,9.4,6.4,9.4,11.6c0,4.8-2.6,7.5-4.3,8.8c0.3,1.4,0.1,14.9,0.4,19c2.4-0.4,10.7-1,10.7-1H302.5
		L302.5,434z"/>
	<path style="fill-rule:evenodd;clip-rule:evenodd;fill:#FFFFFF;" d="M100.5,334.2c0,0,45,39.2,82,57.3
		c38.3,18.8,72.8,25.4,99.7,25.4c1.2,1.9,1,48,0.6,54c-20.7,1-68.5-3.1-123.1-31.2c-54.6-28.1-83.3-53-83.8-54
		C78.8,379.2,100.5,334.2,100.5,334.2L100.5,334.2z"/>
	<path style="fill-rule:evenodd;clip-rule:evenodd;fill:#0F4D92;" d="M80.3,385c6.5,5.7,36.7,30.2,81.8,52.4
		c57.9,28.5,103.6,30.7,117.8,30.5c0.1-4.3,0.2-12,0.2-20.1c0-11.2-0.1-22.4-0.5-27.2c-21.8-0.9-57.5-6-98.4-26.2
		c-31.4-15.5-68.9-45.4-79.6-54.4C96.9,349.7,84.3,376.3,80.3,385L80.3,385z"/>
	<path style="fill-rule:evenodd;clip-rule:evenodd;fill:#FFFFFF;" d="M110,393.4l2.4-9.4c0.4-1.4,1-3.3,1.6-4.9
		c-0.5,0.9-1.8,2.9-3.6,5.5l-4.3,5.9l-4.1-3l15.3-20.9l4.1,3l-2.2,9.4c-0.3,1.5-0.9,3.3-1.5,5c0.8-1.3,2.3-3.4,3.3-4.8l4.7-6.5
		l4.1,3l-15.3,20.9L110,393.4L110,393.4z"/>
	<polygon style="fill-rule:evenodd;clip-rule:evenodd;fill:#FFFFFF;" points="121.3,401.2 135.5,379.6 140.1,382.6 125.8,404.2 
		121.3,401.2 	"/>
	<polygon style="fill-rule:evenodd;clip-rule:evenodd;fill:#FFFFFF;" points="142.2,414.3 132.4,408.4 145.8,386.2 150.4,389 
		139.9,406.5 145.9,410.1 142.2,414.3 	"/>
	<path style="fill-rule:evenodd;clip-rule:evenodd;fill:#FFFFFF;" d="M168.2,428.6c-2.8-1.4-4.6-3.3-5.9-5.4l3.9-3.9
		c0.9,1.6,2.4,3.5,4.3,4.4c1.9,0.9,3,0.4,3.7-0.9c0.5-1,0.1-1.8-1-2.8l-1.9-1.8c-2.3-2.2-3.2-4.9-1.3-9c2.2-4.6,6.8-6.2,10.9-4.2
		c2.6,1.2,4.6,3.3,5.6,5.5l-4.4,3.2c-0.8-1.7-2.1-3.1-3.4-3.7c-1.2-0.6-2.3-0.2-2.7,0.8c-0.4,0.8-0.3,1.7,0.9,2.8l1.6,1.5
		c1.7,1.6,4,4.1,1.8,8.8C177.8,429.5,173,430.9,168.2,428.6L168.2,428.6z"/>
	<path style="fill-rule:evenodd;clip-rule:evenodd;fill:#FFFFFF;" d="M194.4,428.7l-2.5-1l2.4-3.6c1-1.5,1.7-2.7,2.1-3.6
		c-0.3,0.9-0.8,2.4-1,3.5L194.4,428.7L194.4,428.7z M197.9,441l4-26.4l-5.1-2.1l-16,21.5l5.2,2.1l2.9-4.2l4.5,1.9l-0.9,5L197.9,441
		L197.9,441z"/>
	<polygon style="fill-rule:evenodd;clip-rule:evenodd;fill:#FFFFFF;" points="221.5,427.6 217,426.1 210.4,445.4 205.3,443.6 
		211.9,424.3 207.3,422.7 209.1,417.5 223.9,422.6 221.5,427.6 	"/>
	<polygon style="fill-rule:evenodd;clip-rule:evenodd;fill:#FFFFFF;" points="220.8,448.7 228,423.8 233.2,425.3 226,450.2 
		220.8,448.7 	"/>
	<path style="fill-rule:evenodd;clip-rule:evenodd;fill:#FFFFFF;" d="M238.1,453.8c-3-0.7-5.2-2.2-6.9-4l3-4.6
		c1.2,1.4,3.1,2.9,5.2,3.4c2,0.5,3.1-0.3,3.4-1.7c0.3-1.1-0.3-1.7-1.5-2.5l-2.2-1.3c-2.7-1.7-4.2-4.1-3.2-8.5c1.2-5,5.2-7.5,9.8-6.5
		c2.8,0.7,5.2,2.2,6.6,4.2l-3.6,4c-1.1-1.4-2.7-2.5-4.1-2.8c-1.3-0.3-2.2,0.3-2.5,1.3c-0.2,0.8,0.1,1.8,1.5,2.6l1.9,1.1
		c2,1.2,4.8,3.2,3.7,8.2C247.7,452.6,243.3,455,238.1,453.8L238.1,453.8z"/>
	<path style="fill-rule:evenodd;clip-rule:evenodd;fill:#FFFFFF;" d="M342.5,458.5l-4.7-8.5c-0.7-1.3-1.6-3-2.2-4.6
		c0.2,1,0.7,3.3,1.1,6.5l0.9,7.2l-5,0.6l-3.1-25.7l5.1-0.6l4.8,8.4c0.8,1.3,1.6,3,2.3,4.7c-0.3-1.5-0.7-4-0.9-5.7l-1-8l5-0.6
		l3.2,25.7L342.5,458.5L342.5,458.5z"/>
	<polygon style="fill-rule:evenodd;clip-rule:evenodd;fill:#FFFFFF;" points="352.2,457 347.8,431.5 353.1,430.6 357.6,456.1 
		352.2,457 	"/>
	<path style="fill-rule:evenodd;clip-rule:evenodd;fill:#FFFFFF;" d="M367.8,454.5c-3,0.7-5.6,0.3-8-0.6l0.7-5.5
		c1.7,0.7,4.1,1.2,6.1,0.8c2-0.5,2.6-1.6,2.3-3c-0.3-1.1-1-1.5-2.5-1.6l-2.6-0.2c-3.1-0.3-5.6-1.9-6.6-6.2c-1.1-5,1.4-9.1,6-10.1
		c2.8-0.6,5.6-0.3,7.8,0.9l-1.5,5.2c-1.6-0.8-3.6-1.1-5-0.7c-1.3,0.3-1.9,1.3-1.6,2.3c0.2,0.8,0.8,1.6,2.5,1.7l2.2,0.2
		c2.3,0.2,5.7,0.7,6.9,5.8C375.9,449.3,373,453.3,367.8,454.5L367.8,454.5z"/>
	<polygon style="fill-rule:evenodd;clip-rule:evenodd;fill:#FFFFFF;" points="380,451.1 373.1,426.1 378.4,424.6 385.2,449.6 
		380,451.1 	"/>
	<path style="fill-rule:evenodd;clip-rule:evenodd;fill:#FFFFFF;" d="M403.1,438.8c-2.1,0.7-3.8-0.4-6.1-6.6c-1.7-4.7-1.8-8,0.5-8.8
		c2.2-0.8,3.6,0.4,5.8,6.4C405.5,436.2,405.2,438.1,403.1,438.8L403.1,438.8z M404.8,443.8c7-2.5,6.4-9.7,3.9-16.7
		c-1.9-5.4-6.1-11-12.8-8.6c-5.2,1.8-7.3,7.8-4.2,16.4C394.3,442.2,399.1,445.8,404.8,443.8L404.8,443.8z"/>
	<path style="fill-rule:evenodd;clip-rule:evenodd;fill:#FFFFFF;" d="M415.2,417.2c1.2-0.5,2.1-0.5,3,1.5c1.1,2.6,0.6,3.4-0.9,4.1
		l-1.4,0.6l-2.4-5.5L415.2,417.2L415.2,417.2z M423.5,416.4c-2.3-5.4-6-6.2-10.9-4.1l-6.2,2.7l10.2,23.8l4.9-2.1l-3.6-8.5l1.5-0.7
		C425.7,424.9,425,420,423.5,416.4L423.5,416.4z"/>
	<polygon style="fill-rule:evenodd;clip-rule:evenodd;fill:#FFFFFF;" points="437.7,406.4 433.4,408.6 442.7,426.8 437.8,429.2 
		428.6,411 424.3,413.2 421.9,408.3 435.8,401.2 437.7,406.4 	"/>
	<polygon style="fill-rule:evenodd;clip-rule:evenodd;fill:#FFFFFF;" points="450.6,422.5 437.9,400 442.7,397.3 455.4,419.9 
		450.6,422.5 	"/>
	<path style="fill-rule:evenodd;clip-rule:evenodd;fill:#FFFFFF;" d="M472.3,409.5l-6-8.6c-0.9-1.3-1.7-2.4-2.9-4.3l0,0
		c1,2,1.5,3.2,2,4.5l3.6,10.5l-3.8,2.4l-7.5-7.7c-1-1.1-2-2.2-3.4-4l0,0c1.2,1.9,2,3.1,2.8,4.6l5.2,9l-4.5,2.9l-12.1-23l5.5-3.5
		l7.2,7.6c1,1.1,1.9,2.1,3.2,3.8l0,0c-0.9-1.8-1.4-3-2.1-4.9l-3.5-9.5l5.3-3.4l15.4,20.9L472.3,409.5L472.3,409.5z"/>
	<path style="fill-rule:evenodd;clip-rule:evenodd;fill:#FFFFFF;" d="M486.6,389.6c1.3,1.8,1.9,2.6,2.1,3.7c0.6,2.3-0.1,5.2-3.4,7.7
		c-2.6,1.9-5.1,2.4-7.4,1.4c-1.5-0.7-2-1-4.1-3.8l-10.4-14.2l4.3-3.2l10,13.7c1.4,1.9,2.8,2.9,4.3,1.8c1.5-1.1,1.2-2.5-0.3-4.6
		l-10.1-13.7l4.3-3.2L486.6,389.6L486.6,389.6z"/>
	<path style="fill-rule:evenodd;clip-rule:evenodd;fill:#FFFFFF;" d="M507,382.9l-7.2-7.6c-1.1-1.2-2-2.2-3.5-3.8l0,0
		c1.3,1.8,2,2.9,2.6,4.2l5.1,9.8l-3.4,3L492,382c-1.2-0.9-2.3-1.9-3.9-3.5l0,0c1.5,1.7,2.4,2.8,3.4,4.1l6.4,8.1l-4,3.5l-15.4-20.9
		l4.9-4.3l8.2,6.5c1.2,0.9,2.2,1.8,3.7,3.3l0,0c-1.2-1.6-1.8-2.7-2.8-4.5l-4.8-8.9l4.8-4.1l18.4,18.4L507,382.9L507,382.9z"/>
	<path style="fill-rule:evenodd;clip-rule:evenodd;fill:#FFFFFF;" d="M58.1,304.5c0,0,3.1,6.3,10.6,11.7c7.4,5.5,13.9,8,13.9,8
		s-5.3,9.8-7.6,15.3c-2.3,5.5-10.5,23.5-11.5,31.1c-1.4,9.6-2.4,8-6.6,5.5c-5.3-3.1-10.2-7-14.5-15.6c2.1-2,5.3-8.6,8-17.8
		C53,333.5,58.1,307.7,58.1,304.5L58.1,304.5z"/>
	<path style="fill-rule:evenodd;clip-rule:evenodd;fill:#FFFFFF;" d="M106.6,333.1c0,0,1.4-4.1,6.1-2.7c6.1,1.8,11,2.9,13.5,2.2
		c-1.6,2.5-7,10.4-7,10.4c-3.2-2-3.2-2-5.3-3.7C110.9,336.6,106.6,333.1,106.6,333.1L106.6,333.1z"/>
	<path style="fill-rule:evenodd;clip-rule:evenodd;fill:#0F4D92;" d="M60.4,313.1c0,0,5.1,5.1,8.2,7.2c3.1,2.2,6.3,4.3,7.2,4.9
		c1,0.6,0.2,1.8-0.4,2.7c-0.6,1-9.2,19.4-11.1,25c-2,5.7-4.9,17-5.1,18c-0.8,0.2-2.9-0.2-4.7-1.4c-1.8-1.2-6.8-4.7-8.6-7.8
		c-0.2-0.8,0.2-2.7,1-4.1c0.8-1.4,10.3-26.6,11.3-32.3C59.9,317.3,60.4,313.1,60.4,313.1L60.4,313.1z"/>
	<path style="fill-rule:evenodd;clip-rule:evenodd;fill:#FFFFFF;" d="M274.7,401.5c0,0,0.7,8.4,0.6,10.9c2.8,0.2,9.1,0.3,8.9-4.4
		C284.1,403.5,278.8,404.9,274.7,401.5L274.7,401.5z"/>
	<path style="fill-rule:evenodd;clip-rule:evenodd;fill:#FFFFFF;" d="M227.6,139c1.3,0,1.6,0.2,1.6,0.2c1.6,0.1,4,2.3,4.5,1.5
		c0.6-0.8-0.6-1.5-1.2-2.6c-0.6-1-0.9-2.5-0.9-4.3V127c0,0,5.7,0.8,7-1.5c1.3-2.3,2.5-7.2,2.4-8.1c-0.1-0.9-1.2-1.6-2.4-0.5
		c-2.3,2.1-5.7,5.2-7.1,5.2c-1.3,0-1.5-1.2-2.8-1.8l-2.3,0.1c-1.3,0.7-1.2,1.7-2.9,1.7c-1.4,0-4.8-3.2-7.1-5.2
		c-1.2-1.1-2.3-0.4-2.4,0.5c-0.1,0.9,1.1,5.8,2.4,8.1c1.3,2.3,7,1.5,7,1.5v6.9c0,1.7-0.3,3.3-0.9,4.3c-0.6,1-1.8,1.8-1.2,2.6
		c0.6,0.8,2.9-1.4,4.5-1.5C225.7,139.3,226.3,139,227.6,139L227.6,139z"/>
	<path style="fill-rule:evenodd;clip-rule:evenodd;fill:#FFFFFF;" d="M205,128.5c-0.8-0.1-1,0.4-0.3,1.3c1,1.1,4.5,4.5,9.6,4.5
		c4.7,0,4.5-2.5,4.5-3.3c0-0.8-0.8-2.8-3.5-2.9C212.8,127.9,211.3,129.5,205,128.5L205,128.5z"/>
	<path style="fill-rule:evenodd;clip-rule:evenodd;fill:#FFFFFF;" d="M199.3,124.9c-1.7-1-4.8-4.4-5.2-6.5c-0.2-1.4,0.2-1.5,1-0.9
		c1.3,0.9,3.9,1.9,6.4,2.1c2.9,0.3,5.1,1.5,4.5,4.3C205.4,126.7,201.5,126.1,199.3,124.9L199.3,124.9z"/>
	<path style="fill-rule:evenodd;clip-rule:evenodd;fill:#FFFFFF;" d="M209.2,122.1c-1.9,0.1-3.4-1.6-3.3-4.1c0-2.5,1.6-7.3,2.3-8.6
		c0.7-1.3,1-1,1.2,0.3c0.4,3.4,1.9,5.4,2.4,6.4C212.8,118,212.6,121.8,209.2,122.1L209.2,122.1z"/>
	<path style="fill-rule:evenodd;clip-rule:evenodd;fill:#FFFFFF;" d="M193.3,111.4c-1.5-1.5-2.4-5.8-2.6-7.5
		c-0.1-1.7,0.5-0.8,1.4,0.2c0.7,0.9,2.5,2.4,4.4,2.8c1.8,0.4,4.6,1.3,4.1,4.2C200,113.9,195.9,114,193.3,111.4L193.3,111.4z"/>
	<path style="fill-rule:evenodd;clip-rule:evenodd;fill:#FFFFFF;" d="M201.6,103.7c0.7-2.3,3.1-4.8,4.7-5.6c1-0.5,0.7,0.1,0.7,0.8
		c0,0.8-0.1,3.6,0,5.5c0.1,1.2,0.3,5.2-2.9,5.2C200.6,109.7,200.9,105.9,201.6,103.7L201.6,103.7z"/>
	<path style="fill-rule:evenodd;clip-rule:evenodd;fill:#FFFFFF;" d="M196.1,98.9c-1.3,1-3.7,1-4.8-1.1c-1.2-2-0.5-6.7-0.5-7.5
		c0.1-0.8,0.8-1.1,1.4-0.3c1.4,2,4.1,3.4,4.7,5.1C197.2,96.1,197.3,98,196.1,98.9L196.1,98.9z"/>
	<path style="fill-rule:evenodd;clip-rule:evenodd;fill:#FFFFFF;" d="M200.1,97.2c-1-1.2-0.8-2.8,1-4.5c1.7-1.6,5.9-3.4,6.8-3.7
		c1-0.3,0.7,0.5,0.4,1c-1.3,2.1-2.5,5.8-3.9,7.3C203.7,98,201.5,98.9,200.1,97.2L200.1,97.2z"/>
	<path style="fill-rule:evenodd;clip-rule:evenodd;fill:#FFFFFF;" d="M193.4,82.6c0-2,0.7-4.5,1.2-5.5c0.5-1,0.9-1,1.5,0.2
		c0.9,2,3.1,5,3.1,7.1c-0.1,2.9-2.1,3.7-4.1,2.7C193.1,86,193.4,82.6,193.4,82.6L193.4,82.6z"/>
	<path style="fill-rule:evenodd;clip-rule:evenodd;fill:#FFFFFF;" d="M201.7,85.5c-0.2-1.5,0.6-2.8,2.2-3.1c1.6-0.3,5.5-0.9,7-1.3
		c1-0.3,1.3,0.2,0.6,1.5c-0.6,1.1-2.1,4.2-5.9,4.7C203,87.6,201.9,86.6,201.7,85.5L201.7,85.5z"/>
	<path style="fill-rule:evenodd;clip-rule:evenodd;fill:#FFFFFF;" d="M201.5,76c-1.8-0.3-3.2-3.2-1.3-6.3c1.4-2.2,2.7-2.8,3-2.9
		c0.8-0.3,1.1,0.2,1,1.6c-0.1,1.5,0.4,4.3,0,5.9C203.9,75.2,203,76.3,201.5,76L201.5,76z"/>
	<path style="fill-rule:evenodd;clip-rule:evenodd;fill:#FFFFFF;" d="M207.1,75.4c-0.5-2.2,1.5-3.2,2.5-3.4c1.1-0.2,4.4-0.7,6.3-1.6
		c0.8-0.4,1.7-0.5,1,1.3c-0.8,1.8-3.6,4.7-5.6,5.2C209.6,77.2,207.5,77,207.1,75.4L207.1,75.4z"/>
	<path style="fill-rule:evenodd;clip-rule:evenodd;fill:#FFFFFF;" d="M210.6,66.4c-1-0.9-0.5-3.1,1.4-4.4c1.9-1.3,4.7-2,5.6-2.2
		c0.9-0.1,2.7-0.4,1.2,1.2C216.8,63.1,213.6,69.1,210.6,66.4L210.6,66.4z"/>
	<path style="fill-rule:evenodd;clip-rule:evenodd;fill:#FFFFFF;" d="M250.6,128.5c0.8-0.1,1,0.4,0.3,1.3c-1,1.1-4.5,4.5-9.6,4.5
		c-4.7,0-4.6-2.5-4.6-3.3c0-0.8,0.8-2.8,3.5-2.9C242.7,127.9,244.2,129.5,250.6,128.5L250.6,128.5z"/>
	<path style="fill-rule:evenodd;clip-rule:evenodd;fill:#FFFFFF;" d="M256.2,124.9c1.7-1,4.8-4.4,5.2-6.5c0.2-1.4-0.1-1.5-1-0.9
		c-1.3,0.9-3.9,1.9-6.4,2.1c-2.9,0.3-5.1,1.5-4.5,4.3C250.2,126.7,254,126.1,256.2,124.9L256.2,124.9z"/>
	<path style="fill-rule:evenodd;clip-rule:evenodd;fill:#FFFFFF;" d="M246.3,122.1c1.9,0.1,3.4-1.6,3.3-4.1c0-2.5-1.6-7.3-2.3-8.6
		c-0.7-1.3-1-1-1.2,0.3c-0.4,3.4-1.9,5.4-2.4,6.4C242.7,118,242.9,121.8,246.3,122.1L246.3,122.1z"/>
	<path style="fill-rule:evenodd;clip-rule:evenodd;fill:#FFFFFF;" d="M262.3,111.4c1.5-1.5,2.4-5.8,2.6-7.5c0.1-1.7-0.5-0.8-1.4,0.2
		c-0.7,0.9-2.5,2.4-4.4,2.8c-1.8,0.4-4.6,1.3-4.1,4.2C255.5,113.9,259.6,114,262.3,111.4L262.3,111.4z"/>
	<path style="fill-rule:evenodd;clip-rule:evenodd;fill:#FFFFFF;" d="M253.9,103.7c-0.7-2.3-3.1-4.8-4.7-5.6c-1-0.5-0.7,0.1-0.7,0.8
		c0,0.8,0.1,3.6,0,5.5c-0.1,1.2-0.3,5.2,2.9,5.2C254.9,109.7,254.6,105.9,253.9,103.7L253.9,103.7z"/>
	<path style="fill-rule:evenodd;clip-rule:evenodd;fill:#FFFFFF;" d="M259.4,98.9c1.3,1,3.7,1,4.8-1.1c1.2-2,0.5-6.7,0.5-7.5
		c0-0.8-0.8-1.1-1.4-0.3c-1.4,2-4,3.4-4.7,5.1C258.3,96.1,258.2,98,259.4,98.9L259.4,98.9z"/>
	<path style="fill-rule:evenodd;clip-rule:evenodd;fill:#FFFFFF;" d="M255.4,97.2c0.9-1.2,0.8-2.8-1-4.5c-1.6-1.6-5.9-3.4-6.8-3.7
		c-1-0.3-0.7,0.5-0.4,1c1.3,2.1,2.5,5.8,3.9,7.3C251.8,98,254,98.9,255.4,97.2L255.4,97.2z"/>
	<path style="fill-rule:evenodd;clip-rule:evenodd;fill:#FFFFFF;" d="M262.2,82.6c0-2-0.7-4.5-1.2-5.5c-0.5-1-0.9-1-1.4,0.2
		c-0.9,2-3.1,5-3.1,7.1c0.1,2.9,2.1,3.7,4.1,2.7C262.5,86,262.2,82.6,262.2,82.6L262.2,82.6z"/>
	<path style="fill-rule:evenodd;clip-rule:evenodd;fill:#FFFFFF;" d="M253.8,85.5c0.2-1.5-0.6-2.8-2.2-3.1c-1.6-0.3-5.5-0.9-7-1.3
		c-1-0.3-1.3,0.2-0.6,1.5c0.6,1.1,2.1,4.2,5.9,4.7C252.6,87.6,253.7,86.6,253.8,85.5L253.8,85.5z"/>
	<path style="fill-rule:evenodd;clip-rule:evenodd;fill:#FFFFFF;" d="M254,76c1.8-0.3,3.2-3.2,1.3-6.3c-1.4-2.2-2.7-2.8-3-2.9
		c-0.8-0.3-1,0.2-1,1.6c0.1,1.5-0.4,4.3,0,5.9C251.6,75.2,252.5,76.3,254,76L254,76z"/>
	<path style="fill-rule:evenodd;clip-rule:evenodd;fill:#FFFFFF;" d="M248.4,75.4c0.5-2.2-1.5-3.2-2.5-3.4c-1.1-0.2-4.4-0.7-6.3-1.6
		c-0.7-0.4-1.7-0.5-1,1.3c0.8,1.8,3.6,4.7,5.6,5.2C245.9,77.2,248,77,248.4,75.4L248.4,75.4z"/>
	<path style="fill-rule:evenodd;clip-rule:evenodd;fill:#FFFFFF;" d="M244.9,66.4c1-0.9,0.5-3.1-1.4-4.4c-1.9-1.3-4.7-2-5.6-2.2
		c-0.9-0.1-2.7-0.4-1.2,1.2C238.7,63.1,241.9,69.1,244.9,66.4L244.9,66.4z"/>
	<path style="fill-rule:evenodd;clip-rule:evenodd;fill:#FFFFFF;" d="M371.4,139c1.3,0,1.6,0.2,1.6,0.2c1.6,0.1,4,2.3,4.5,1.5
		c0.6-0.8-0.6-1.5-1.2-2.6c-0.6-1-0.9-2.5-0.9-4.3V127c0,0,5.7,0.8,7-1.5c1.3-2.3,2.5-7.2,2.4-8.1c-0.1-0.9-1.2-1.6-2.4-0.5
		c-2.3,2.1-5.7,5.2-7.1,5.2c-1.3,0-1.5-1.2-2.8-1.8l-2.3,0.1c-1.3,0.7-1.2,1.7-2.9,1.7c-1.4,0-4.8-3.2-7.1-5.2
		c-1.2-1.1-2.3-0.4-2.4,0.5c-0.1,0.9,1.1,5.8,2.4,8.1c1.3,2.3,7,1.5,7,1.5l0,6.9c0,1.7-0.3,3.3-0.9,4.3c-0.6,1-1.8,1.8-1.2,2.6
		c0.6,0.8,2.9-1.4,4.5-1.5C369.5,139.3,370,139,371.4,139L371.4,139z"/>
	<path style="fill-rule:evenodd;clip-rule:evenodd;fill:#FFFFFF;" d="M348.7,128.5c-0.8-0.1-1,0.4-0.3,1.3c1,1.1,4.5,4.5,9.6,4.5
		c4.7,0,4.6-2.5,4.6-3.3c0-0.8-0.8-2.8-3.5-2.9C356.6,127.9,355.1,129.5,348.7,128.5L348.7,128.5z"/>
	<path style="fill-rule:evenodd;clip-rule:evenodd;fill:#FFFFFF;" d="M343.1,124.9c-1.7-1-4.8-4.4-5.2-6.5c-0.2-1.4,0.2-1.5,1-0.9
		c1.3,0.9,3.9,1.9,6.4,2.1c2.9,0.3,5.1,1.5,4.5,4.3C349.2,126.7,345.3,126.1,343.1,124.9L343.1,124.9z"/>
	<path style="fill-rule:evenodd;clip-rule:evenodd;fill:#FFFFFF;" d="M353,122.1c-1.9,0.1-3.4-1.6-3.3-4.1c0-2.5,1.6-7.3,2.3-8.6
		c0.7-1.3,1-1,1.2,0.3c0.4,3.4,1.9,5.4,2.4,6.4C356.6,118,356.4,121.8,353,122.1L353,122.1z"/>
	<path style="fill-rule:evenodd;clip-rule:evenodd;fill:#FFFFFF;" d="M337.1,111.4c-1.5-1.5-2.4-5.8-2.6-7.5
		c-0.1-1.7,0.5-0.8,1.4,0.2c0.7,0.9,2.5,2.4,4.4,2.8c1.8,0.4,4.5,1.3,4.1,4.2C343.8,113.9,339.7,114,337.1,111.4L337.1,111.4z"/>
	<path style="fill-rule:evenodd;clip-rule:evenodd;fill:#FFFFFF;" d="M345.4,103.7c0.7-2.3,3.1-4.8,4.7-5.6c1-0.5,0.7,0.1,0.7,0.8
		c0,0.8-0.2,3.6,0,5.5c0.1,1.2,0.3,5.2-2.9,5.2C344.4,109.7,344.7,105.9,345.4,103.7L345.4,103.7z"/>
	<path style="fill-rule:evenodd;clip-rule:evenodd;fill:#FFFFFF;" d="M339.9,98.9c-1.4,1-3.7,1-4.8-1.1c-1.2-2-0.5-6.7-0.5-7.5
		c0-0.8,0.8-1.1,1.4-0.3c1.4,2,4,3.4,4.7,5.1C341,96.1,341.1,98,339.9,98.9L339.9,98.9z"/>
	<path style="fill-rule:evenodd;clip-rule:evenodd;fill:#FFFFFF;" d="M343.9,97.2c-0.9-1.2-0.8-2.8,1-4.5c1.7-1.6,5.9-3.4,6.8-3.7
		c1-0.3,0.7,0.5,0.4,1c-1.3,2.1-2.5,5.8-3.9,7.3C347.5,98,345.3,98.9,343.9,97.2L343.9,97.2z"/>
	<path style="fill-rule:evenodd;clip-rule:evenodd;fill:#FFFFFF;" d="M337.1,82.6c0-2,0.7-4.5,1.2-5.5c0.5-1,0.9-1,1.5,0.2
		c0.9,2,3.1,5,3.1,7.1c-0.1,2.9-2.1,3.7-4.1,2.7C336.9,86,337.1,82.6,337.1,82.6L337.1,82.6z"/>
	<path style="fill-rule:evenodd;clip-rule:evenodd;fill:#FFFFFF;" d="M345.5,85.5c-0.2-1.5,0.6-2.8,2.2-3.1c1.6-0.3,5.5-0.9,7-1.3
		c1-0.3,1.3,0.2,0.6,1.5c-0.6,1.1-2.1,4.2-5.9,4.7C346.7,87.6,345.6,86.6,345.5,85.5L345.5,85.5z"/>
	<path style="fill-rule:evenodd;clip-rule:evenodd;fill:#FFFFFF;" d="M345.3,76c-1.8-0.3-3.2-3.2-1.3-6.3c1.3-2.2,2.7-2.8,3-2.9
		c0.8-0.3,1.1,0.2,1,1.6c-0.1,1.5,0.4,4.3,0,5.9C347.7,75.2,346.8,76.3,345.3,76L345.3,76z"/>
	<path style="fill-rule:evenodd;clip-rule:evenodd;fill:#FFFFFF;" d="M350.9,75.4c-0.5-2.2,1.4-3.2,2.5-3.4c1.1-0.2,4.4-0.7,6.3-1.6
		c0.8-0.4,1.8-0.5,1,1.3c-0.8,1.8-3.6,4.7-5.6,5.2C353.4,77.2,351.3,77,350.9,75.4L350.9,75.4z"/>
	<path style="fill-rule:evenodd;clip-rule:evenodd;fill:#FFFFFF;" d="M354.4,66.4c-1-0.9-0.5-3.1,1.3-4.4c1.9-1.3,4.7-2,5.6-2.2
		c0.9-0.1,2.7-0.4,1.2,1.2C360.6,63.1,357.4,69.1,354.4,66.4L354.4,66.4z"/>
	<path style="fill-rule:evenodd;clip-rule:evenodd;fill:#FFFFFF;" d="M394.4,128.5c0.8-0.1,1,0.4,0.3,1.3c-1,1.1-4.5,4.5-9.7,4.5
		c-4.7,0-4.6-2.5-4.6-3.3c0-0.8,0.8-2.8,3.5-2.9C386.5,127.9,388,129.5,394.4,128.5L394.4,128.5z"/>
	<path style="fill-rule:evenodd;clip-rule:evenodd;fill:#FFFFFF;" d="M400,124.9c1.7-1,4.8-4.4,5.2-6.5c0.2-1.4-0.1-1.5-1-0.9
		c-1.3,0.9-3.9,1.9-6.4,2.1c-2.9,0.3-5.1,1.5-4.5,4.3C394,126.7,397.8,126.1,400,124.9L400,124.9z"/>
	<path style="fill-rule:evenodd;clip-rule:evenodd;fill:#FFFFFF;" d="M390.1,122.1c1.9,0.1,3.4-1.6,3.3-4.1
		c-0.1-2.5-1.6-7.3-2.3-8.6c-0.7-1.3-1.1-1-1.2,0.3c-0.4,3.4-1.9,5.4-2.4,6.4C386.5,118,386.7,121.8,390.1,122.1L390.1,122.1z"/>
	<path style="fill-rule:evenodd;clip-rule:evenodd;fill:#FFFFFF;" d="M406.1,111.4c1.5-1.5,2.4-5.8,2.6-7.5c0.1-1.7-0.5-0.8-1.4,0.2
		c-0.7,0.9-2.5,2.4-4.4,2.8c-1.8,0.4-4.6,1.3-4.1,4.2C399.3,113.9,403.4,114,406.1,111.4L406.1,111.4z"/>
	<path style="fill-rule:evenodd;clip-rule:evenodd;fill:#FFFFFF;" d="M397.7,103.7c-0.7-2.3-3.1-4.8-4.7-5.6c-1-0.5-0.7,0.1-0.7,0.8
		c0,0.8,0.2,3.6,0,5.5c-0.1,1.2-0.3,5.2,2.9,5.2C398.7,109.7,398.4,105.9,397.7,103.7L397.7,103.7z"/>
	<path style="fill-rule:evenodd;clip-rule:evenodd;fill:#FFFFFF;" d="M403.2,98.9c1.3,1,3.7,1,4.9-1.1c1.2-2,0.5-6.7,0.5-7.5
		c0-0.8-0.8-1.1-1.4-0.3c-1.4,2-4,3.4-4.7,5.1C402.1,96.1,402,98,403.2,98.9L403.2,98.9z"/>
	<path style="fill-rule:evenodd;clip-rule:evenodd;fill:#FFFFFF;" d="M399.2,97.2c0.9-1.2,0.8-2.8-1-4.5c-1.6-1.6-5.9-3.4-6.8-3.7
		c-1-0.3-0.7,0.5-0.4,1c1.3,2.1,2.5,5.8,3.9,7.3C395.6,98,397.8,98.9,399.2,97.2L399.2,97.2z"/>
	<path style="fill-rule:evenodd;clip-rule:evenodd;fill:#FFFFFF;" d="M406,82.6c0-2-0.7-4.5-1.2-5.5c-0.5-1-0.9-1-1.4,0.2
		c-0.9,2-3.1,5-3.1,7.1c0,2.9,2.1,3.7,4.1,2.7C406.3,86,406,82.6,406,82.6L406,82.6z"/>
	<path style="fill-rule:evenodd;clip-rule:evenodd;fill:#FFFFFF;" d="M397.6,85.5c0.2-1.5-0.6-2.8-2.2-3.1c-1.6-0.3-5.5-0.9-7-1.3
		c-1-0.3-1.3,0.2-0.6,1.5c0.6,1.1,2.1,4.2,5.9,4.7C396.4,87.6,397.5,86.6,397.6,85.5L397.6,85.5z"/>
	<path style="fill-rule:evenodd;clip-rule:evenodd;fill:#FFFFFF;" d="M397.8,76c1.8-0.3,3.2-3.2,1.3-6.3c-1.3-2.2-2.7-2.8-3-2.9
		c-0.8-0.3-1.1,0.2-1,1.6c0.1,1.5-0.4,4.3,0,5.9C395.4,75.2,396.3,76.3,397.8,76L397.8,76z"/>
	<path style="fill-rule:evenodd;clip-rule:evenodd;fill:#FFFFFF;" d="M392.2,75.4c0.5-2.2-1.5-3.2-2.5-3.4c-1.1-0.2-4.3-0.7-6.3-1.6
		c-0.8-0.4-1.7-0.5-1,1.3c0.8,1.8,3.6,4.7,5.6,5.2C389.7,77.2,391.8,77,392.2,75.4L392.2,75.4z"/>
	<path style="fill-rule:evenodd;clip-rule:evenodd;fill:#FFFFFF;" d="M388.7,66.4c1-0.9,0.5-3.1-1.4-4.4c-1.9-1.3-4.7-2-5.6-2.2
		c-0.9-0.1-2.7-0.4-1.2,1.2C382.5,63.1,385.7,69.1,388.7,66.4L388.7,66.4z"/>
	<path style="fill-rule:evenodd;clip-rule:evenodd;fill:#FFFFFF;" d="M271.5,181.6c-2,0.1-5.9,1.8-6.3,2l-0.5,1.2l1.2,0.5
		c1.1-0.5,4.3-1.7,5.7-1.8l0.9-1L271.5,181.6L271.5,181.6z"/>
	<path style="fill-rule:evenodd;clip-rule:evenodd;fill:#FFFFFF;" d="M280.4,304.5c-7.3,0.8-12,1.9-12.2,2l-0.8,1.5l1.5,0.8
		c0,0,4.7-1.2,11.8-1.9l1-1.3L280.4,304.5L280.4,304.5z"/>
	<path style="fill-rule:evenodd;clip-rule:evenodd;fill:#FFFFFF;" d="M298,303.7c-7.3-0.1-10.5,0.4-10.7,0.5l-0.9,1.4l1.4,0.9
		c0.1,0,3.1-0.6,10.2-0.4l1.2-1.1L298,303.7L298,303.7z"/>
	<path style="fill-rule:evenodd;clip-rule:evenodd;fill:#FFFFFF;" d="M306.8,304.8l1.1,1.2c0.1,0,8.9,0.3,13,0.9l1.3-1l-1-1.3
		c-4.2-0.7-12.9-0.9-13.3-0.9L306.8,304.8L306.8,304.8z"/>
	<path style="fill-rule:evenodd;clip-rule:evenodd;fill:#FFFFFF;" d="M327.9,306.6l1,1.3c0.1,0,6.4,0.8,10.9,2.2l1.5-0.8l-0.8-1.5
		c-4.7-1.5-11-2.2-11.3-2.3L327.9,306.6L327.9,306.6z"/>
	<path style="fill-rule:evenodd;clip-rule:evenodd;fill:#FFFFFF;" d="M291.2,291.2l-1.2,1.4l1.4,1.2c0.1,0,12.4-0.6,20.8-0.1
		l1.4-1.2l-1.2-1.4C303.8,290.6,291.3,291.2,291.2,291.2L291.2,291.2z"/>
	<path style="fill-rule:evenodd;clip-rule:evenodd;fill:#FFFFFF;" d="M285.2,281.6l-1.1,1.3l1.3,1.1c0.1,0,2-0.3,6.7-0.1l1.2-1.2
		l-1.2-1.2C287.8,281.2,285.3,281.6,285.2,281.6L285.2,281.6z"/>
	<path style="fill-rule:evenodd;clip-rule:evenodd;fill:#FFFFFF;" d="M270.8,282.8l-0.9,1.2l1.2,0.9c0.1,0,1.7-0.3,5.4-0.3l1-1.1
		l-1.1-1C273.1,282.3,270.8,282.8,270.8,282.8L270.8,282.8z"/>
	<path style="fill-rule:evenodd;clip-rule:evenodd;fill:#FFFFFF;" d="M289.1,129.4l-0.8,1l1,0.8c0.1,0,1.5-0.2,4.8-0.1l1-0.9l-0.9-1
		C291.2,129,289.1,129.3,289.1,129.4L289.1,129.4z"/>
	<path style="fill-rule:evenodd;clip-rule:evenodd;fill:#FFFFFF;" d="M288.3,140.1l-0.8,0.9l0.9,0.8c0.1,0,1.4-0.2,4.4-0.1l0.9-0.8
		l-0.8-0.9C290.2,139.8,288.4,140.1,288.3,140.1L288.3,140.1z"/>
	<path style="fill-rule:evenodd;clip-rule:evenodd;fill:#FFFFFF;" d="M275.1,141.5l-0.8,1l0.9,0.8c0.1,0,1.4-0.2,4.4-0.1l0.9-0.8
		l-0.8-0.9C277,141.2,275.2,141.5,275.1,141.5L275.1,141.5z"/>
	<path style="fill-rule:evenodd;clip-rule:evenodd;fill:#FFFFFF;" d="M294.2,150.8l-0.7,0.9l0.9,0.7c0.1,0,1.3-0.2,4-0.2l0.8-0.8
		l-0.8-0.8C296,150.4,294.3,150.8,294.2,150.8L294.2,150.8z"/>
	<path style="fill-rule:evenodd;clip-rule:evenodd;fill:#FFFFFF;" d="M295.8,119.4l-0.5,0.9l0.7,0.7c0,0,1-0.2,3.1-0.1l0.6-0.8
		l-0.6-0.8C297.2,119.1,295.9,119.4,295.8,119.4L295.8,119.4z"/>
	<path style="fill-rule:evenodd;clip-rule:evenodd;fill:#FFFFFF;" d="M291.1,111.7l-0.6,0.9l0.8,0.7c0,0,1.1-0.2,3.6-0.1l0.7-0.8
		l-0.7-0.8C292.7,111.3,291.2,111.7,291.1,111.7L291.1,111.7z"/>
	<path style="fill-rule:evenodd;clip-rule:evenodd;fill:#FFFFFF;" d="M294.8,103.2l-0.6,0.9l0.8,0.7c0.1,0,1.1-0.2,3.6-0.1l0.7-0.8
		l-0.7-0.8C296.4,102.9,294.9,103.2,294.8,103.2L294.8,103.2z"/>
	<path style="fill-rule:evenodd;clip-rule:evenodd;fill:#FFFFFF;" d="M352.5,263.8c-0.3-31.2-0.6-69.4-0.8-84.8
		c2.6-1,4.9-2.9,5.3-5.9c0.3-2.8-2.8-7-9.9-10.4l-42.3-85.1c1.5-3.2,2.5-5.1,2.7-5.4c1-1.9,1.7-4.8-1.4-6.2
		c-3.1-1.4-5.6,1.9-5.6,1.9l-0.2,0.5l-0.2-0.5c0,0-2.5-3.3-5.6-1.9c-3.1,1.4-2.3,4.2-1.4,6.2c0.1,0.3,1.1,2.3,2.7,5.4l-41.9,85.5
		c-8.4,4.3-10.2,9.8-8.5,13.4c0,0,1,2.6,4.7,3.6c0,5.6,0.1,13.5,0.2,22.6c-9,5.4-13.2,25.1-5.6,46.8c1.6,4.6,2.9,5.9,6,7.8
		c0.2,26,0.3,49.6,0.3,52.3c0,5-0.4,6.1-0.4,6.1c6.6-1.2,8.9-1.7,8.9-1.7l-0.6-52c8,4.8,18.7,9.6,26.6,13.2
		c11.9,5.4,43.3,17.5,50.1,20.9c4.8,2.4,8.1,4.3,9.8,6.8l0.1,12c0,0,0.8,0,1.8-0.2c9.1-0.3,12.5-7.5,12.5-22.4
		C359.7,280.4,357.8,271.5,352.5,263.8L352.5,263.8z M349.6,284.3l0.4-0.3l0.7,0.4l0.4,0.7v1.1l-0.4,0.3l-0.8-0.4l-0.4-0.8V284.3
		L349.6,284.3z M300.2,86.8c1.4,2.9,3,6.1,4.7,9.5c-1.5,0.1-4.4,0.3-6.2,0.7c-1.1,0.2-1.3,0.6-1.3,1c0,0.3,0.4,1,1.5,0.9
		c2.3-0.1,5.6,0.2,7.3,0.3c0.5,1,1,2,1.5,3.1c-1.2,0.3-3,0.8-3.4,1c-0.8,0.3-1.6,0.6-1.5,1.1l1.6,0.6c1.4,0.2,3.6,0.3,4.9,0.3
		c0.8,1.7,1.7,3.5,2.6,5.2c-0.5,0.4-1.3,0.8-2.7,0.9c-1.6,0.1-5.7,0.1-7.7,0.3c-0.8,0.1-1.1,0.5-1.1,0.9c0,0.4,0.6,0.7,1.3,0.8
		c2.8,0.2,6.3,0.4,8.1,0.8c1.5,0.3,3.2,0.6,4.4,1.1c0.5,1.1,1,2.2,1.6,3.2l-1.2,1c-1,0.2-5.8-0.2-8.3,0c-1.1,0.1-1.3,0.4-1.3,0.9
		c0,0.4,0.2,0.6,1.3,0.8c2,0.3,6,0.5,7.3,0.7c1.3,0.2,3.1,0.7,4.5,1.2c0.9,1.8,1.7,3.5,2.6,5.3l-0.9,0.4l-10,0.2
		c-0.9,0.1-1.8,0.3-2,1c-0.1,0.5,0.6,1.3,2.6,1.4c2,0.1,9.4,0.5,13.3,3.2c1,2.1,2.1,4.2,3,6.2c-2.9-0.3-13-1.1-17.6-0.9
		c-4,0.1-5.6,0-5.8,0.8c-0.1,0.8,0.7,1.1,3.2,1.4c2.4,0.2,15.5,1,22.5,3.6c1.4,2.8,2.6,5.3,3.6,7.4c-3.7-0.7-12.2-1.9-17.3-2
		c-2,0-2.8,0.4-2.8,1.2c0,0.8,1.8,0.9,3,1c6.5,0.6,15.5,2.7,19.1,4c0.4,0.8,0.7,1.4,0.9,1.8c-11.7-2.3-28.4-3.5-35.8-3.5
		c-7.3,0-23,1-34.8,3.7C268.3,152.4,289,109.9,300.2,86.8L300.2,86.8z M251,218.1l0.5-0.3l1.2,0.7l0.5,0.9v2.1l-0.5,0.3l-1.2-0.7
		l-0.5-0.9V218.1L251,218.1z M253.3,247.1l-0.5,0.3l-1.2-0.8l-0.5-1v-2.3l0.5-0.3l1.2,0.8l0.5,1V247.1L253.3,247.1z M253.3,234.2
		l-0.5,0.3l-1.2-0.8l-0.5-0.9v-2.1l0.5-0.3l1.2,0.7l0.5,0.9V234.2L253.3,234.2z M267.8,255.6l-0.5,0.3l-6.9-3.9l-0.5-0.9v-4l0.5-0.3
		l6.9,3.8l0.5,0.9V255.6L267.8,255.6z M267.8,242.7l-0.5,0.3l-6.9-3.9l-0.5-0.9v-3.1l0.5-0.3l6.9,3.8l0.5,0.9V242.7L267.8,242.7z
		 M267.8,230.8l-0.5,0.3l-6.9-3.9l-0.5-0.9v-4.4l0.5-0.3l6.9,3.8l0.5,0.9V230.8L267.8,230.8z M282.4,262.2l-0.6,0.4l-6.9-3.2
		l-0.6-0.9v-4l0.6-0.4l6.9,3.2l0.6,0.9V262.2L282.4,262.2z M282.4,249.2l-0.6,0.4l-6.9-3.1l-0.6-0.9v-3.1l0.6-0.4l6.9,3l0.6,0.9
		V249.2L282.4,249.2z M282.4,237.6l-0.5,0.3l-6.9-3.9l-0.5-0.9v-4.4l0.5-0.3l6.9,3.8l0.5,0.9V237.6L282.4,237.6z M298.6,269.8
		l-0.6,0.4l-7.9-3.5l-0.6-0.9v-4.7l0.6-0.4l7.8,3.4l0.6,0.9V269.8L298.6,269.8z M298.7,256.2l-0.6,0.4l-8-3.5l-0.6-0.9v-3.3l0.6-0.4
		l8,3.4l0.6,0.9V256.2L298.7,256.2z M298.7,244.5l-0.6,0.4l-7.9-3.8l-0.6-0.9v-3.9l0.6-0.3l7.9,3.7l0.6,0.9V244.5L298.7,244.5z
		 M314.2,277.2l-0.6,0.4l-6.7-3.3l-0.6-0.9v-4.7l0.6-0.3l6.7,3.2l0.6,0.9V277.2L314.2,277.2z M314.2,263.6l-0.6,0.3l-6.5-3.4
		l-0.6-0.9v-3.3l0.6-0.3l6.5,3.3l0.6,0.9V263.6L314.2,263.6z M314.3,251.8l-0.5,0.3l-6.9-3.8l-0.5-0.9v-3.3l0.5-0.3l6.9,3.7l0.5,0.9
		V251.8L314.3,251.8z M329.7,285.7l-0.5,0.3l-7.1-4.2l-0.5-0.9v-4.4l0.5-0.3l7.1,4.1l0.5,0.9V285.7L329.7,285.7z M321.4,255.1v-2.9
		l0.5-0.3l6.9,3.8l0.5,0.9v2.9l-0.5,0.3L322,256L321.4,255.1L321.4,255.1z M330,271.9l-0.5,0.3l-7.4-4.7l-0.5-0.9v-2.7l0.5-0.3
		l7.4,4.6l0.5,1V271.9L330,271.9z M342.9,293.7l-0.5,0.3l-5.5-3.7l-0.5-1v-3.6l0.5-0.3l5.5,3.7l0.5,1V293.7L342.9,293.7z M343,280.3
		l-0.5,0.3l-5.6-4l-0.5-1v-2.6l0.5-0.3l5.6,3.9l0.5,1V280.3L343,280.3z M336.4,264.2v-2.5l0.5-0.3l5.4,3.3l0.5,0.9v2.6l-0.5,0.3
		l-5.5-3.4L336.4,264.2L336.4,264.2z M288.2,228.3c-19.9-8-23.5-12.9-26.1-15.8c-1.9-2.1-3.5-4.6-4.1-7.4l-0.3-25.9
		c1.4-1,2.4-2.2,4.6-2.8c2.1-0.5,15.3-3.3,37.4-3.3c22.1,0,37.6,2.3,41.5,4.1c0.9,0.4,1.7,0.8,2.5,1.3l0,4.1
		c-3.8-0.5-18-2.4-24.1-2.8c-7.7-0.5-21.9-0.6-23-0.6c-1.1,0-2,0.1-2,0.9c0,0.7,0.7,1.1,1.9,1.1c5.6,0,16.7,0.6,25.1,1.7
		c6,0.8,17.2,2.7,22.1,4.6l0.1,4c-2.4-0.5-7.6-1.6-11.1-2.1c-4.8-0.6-8.5-0.6-9.3-0.5c-0.8,0.1-1.8,0.2-1.8,1c0,0.7,0.8,0.9,1.6,0.9
		c0.8,0,14.6,0.4,20.7,5.2l0.1,5.5c-3.9-0.9-12.9-2.8-23.4-3.8c-2.8-0.3-5.6-0.4-8.3-0.5l-0.1-12.2c0,0-16.8,0.2-21.2,0.2l-0.8,0.8
		c0,0,0,6.5,0,11.7c-0.8,0-1.4,0.1-1.9,0.1c-3.9,0.3-19.4,2.3-20.5,2.7c-1,0.3-1.8,0.7-1.6,1.2c0.2,0.8,1.3,0.5,2.5,0.4
		c5.4-0.7,14.1-1.3,21.6-1.6c0,1.5,0.1,2.7,0.1,3.3c4.9-0.3,22,0,22,0l0-2.9c11.1,0.9,25.6,3,31.8,6.6l0.1,4.3
		c-3.7-0.7-13-2.6-16.4-2.9c-4.3-0.3-6.3-0.1-7.1,0l-1.2,1c0.1,0.5,0.7,0.8,1.6,0.9c0.9,0.1,14.7,0.6,23.1,6.1l0.1,4.4
		c-4.9-0.9-21-3.9-32.2-4.4c-14.7-0.7-32.9,1-34.3,1.2c-1.4,0.2-2.1,0.6-2,1.3c0.1,0.7,0.3,1.1,2.4,0.9c1.4-0.1,28-1,42,0.9
		c11.4,1.6,19.2,3.4,24.3,5.7l0.1,5.5c-4.5-0.9-14.4-2.7-19.4-3.1c-6.7-0.5-17.1-0.7-18.2-0.7c-1,0-1.5,0.5-1.4,1.1
		c0,0.8,0.8,0.8,1.5,0.8c0.7,0,9.1,0.3,17.6,1.5c5.6,0.8,14.2,2.1,20,5l0.1,5.6c-3-0.3-8.9-1-11.4-1c-3.4-0.1-6.2,0-7.3,0.2l-1,1
		l1.2,0.7c0.7,0,5.7,0.3,9.5,0.9c3,0.5,6.6,1.5,9,2.6l0.1,8.1C333.2,246.3,306.5,235.6,288.2,228.3L288.2,228.3z M308,195.4
		c0,1.5-1.3,1.9-2.3,1.9c-1,0-2.3-0.6-2.3-1.9c0-1.3,1.3-2,2.3-1.8C307.2,193.8,308,193.9,308,195.4L308,195.4z M347.4,173.8
		c-0.9,1.4-3,1-4.7,0c-1.7-1-17.2-6.1-43-6.1c-25.8,0-39.8,4.8-41.7,5.3c-1.9,0.4-4.4,1.9-5.9-0.7c-0.9-1.7,0.3-3.3,3.2-4.4
		c2.9-1.2,23.7-5.5,44.4-5.7c20.7-0.2,40.5,4.1,46.1,7.6C347.2,170.5,348.3,172.4,347.4,173.8L347.4,173.8z M351.4,299.5l-0.5,0.3
		l-0.9-0.6l-0.6-0.9V297l0.6-0.3l0.9,0.5l0.5,0.9V299.5L351.4,299.5z"/>
	<path style="fill-rule:evenodd;clip-rule:evenodd;fill:#FFFFFF;" d="M523.7,369.7c3.1-1.3,6.2-2.3,9.2-3.1l-0.7-2.6
		c-2.9-9.7-20-43.5-20-43.5c4.3,0.6,9.5-1.9,15-5.4c5.6-3.5,15.9-11.5,12.2-19.8c-3.7-8.2-27.6-4.3-36-1.4
		c-8.4,2.9-23.3,11.9-29,19.4c-5.8,7.4-4.1,13.5,4.7,12.2c13-1.9,20.8-6.6,26.8,6C509.2,338.6,517.4,356.4,523.7,369.7L523.7,369.7z
		"/>
	<path style="fill-rule:evenodd;clip-rule:evenodd;fill:#0F4D92;" d="M432.7,110.5c1.5-21.1,27.1-47.1,27.1-47.1l-54.3-49.6
		c-11.6,9.7-27.8,24-53.4,26.5c-27,2.6-45.3-5-52.9-11.9c-7.6,6.9-25.8,14.5-52.8,11.9c-25.6-2.5-41.8-16.8-53.4-26.5l-54.3,49.6
		c0,0,25.6,26,27.1,47.1c1.9,27.3-12.8,57.9-17,72.8c-3.7,13.5-15.2,60,3.1,99.1c18.5,39.6,53.7,54.8,68.4,60.1
		c12.8,4.6,21.6,6.6,45,14.1c22.7,7.2,31.1,15.4,34,20.5c2.9-5.1,11.3-13.3,34-20.5c23.4-7.5,32.2-9.5,45-14.1
		c14.8-5.3,50-20.4,68.5-60.1c18.3-39.2,6.8-85.6,3-99.1C445.5,168.5,430.8,137.8,432.7,110.5L432.7,110.5z M438.2,278.6
		c-15.1,32.4-42.7,47.9-63.2,55.2l-20.6,6.6l-24.1,7.4c-15.4,4.9-25,10.4-31.1,15.6c-6.1-5.1-15.8-10.7-31.1-15.6l-24.1-7.4
		l-20.5-6.6c-20.5-7.3-48.1-22.9-63.2-55.2c-6.9-14.7-9.1-30.9-9.1-45.8c0-19.8,4-37.5,6.6-46.9l4.3-12.7
		c5.6-15.7,13.2-36.8,13.2-57.6c0-1.9-0.1-3.8-0.2-5.7c-1.2-17.4-14.8-35.8-23.3-45.8c9.1-8.3,33.4-30.5,41.6-37.9
		c11.7,9.5,28.3,21.1,52.2,23.4c24.3,2.4,42.6-2.9,53.7-9.7c11.1,6.8,29.5,12.1,53.8,9.7c23.9-2.3,40.5-13.9,52.2-23.4
		c8.1,7.4,32.4,29.6,41.6,37.9c-8.5,10-22.1,28.4-23.3,45.8c-0.1,1.9-0.2,3.8-0.2,5.7c0,20.8,7.5,41.8,13.2,57.6l4.3,12.7
		c2.6,9.4,6.6,27.1,6.6,46.9C447.4,247.7,445.1,263.8,438.2,278.6L438.2,278.6z"/>
</g>
</svg>
