<?xml version="1.0" encoding="utf-8"?>
<!-- Generator: Adobe Illustrator 16.0.0, SVG Export Plug-In . SVG Version: 6.00 Build 0)  -->
<!DOCTYPE svg PUBLIC "-//W3C//DTD SVG 1.1//EN" "http://www.w3.org/Graphics/SVG/1.1/DTD/svg11.dtd">
<svg version="1.1" id="Layer_1" xmlns="http://www.w3.org/2000/svg" xmlns:xlink="http://www.w3.org/1999/xlink" x="0px" y="0px"
	 width="600px" height="600px" viewBox="0 0 600 600" style="enable-background:new 0 0 600 600;" xml:space="preserve">
<g>
	<polygon style="fill-rule:evenodd;clip-rule:evenodd;fill:#FFFFFF;" points="0,1.6 598.1,1.6 598.1,599.8 0,599.8 0,1.6 	"/>
	<path style="fill-rule:evenodd;clip-rule:evenodd;fill:#EF3E33;stroke:#231F20;stroke-width:2.0517;stroke-miterlimit:2.6131;" d="
		M339.8,444.4c-20.4,14.7-41.4,19.2-62.7,13.7c-11.2-2.7-21.8-8.5-31.6-17.2c-10.8-9.4-18.3-20.2-22.4-32.1
		c-4.4-12.2-4.8-24.8-0.9-38c3.7-13.3,11.9-26.8,24.7-40.1c10.3-10.5,21.1-18.6,32-24.1c5-2.5,9.8-4.4,14.9-5.7h-0.2l-20.1-20.2
		l-46.7,45.1l-23.8-23.6l90-92.6l-18.5-20.2l-47.2,46.3L204,210.6L313.5,99l79.7,78.4l-20.4,21.3l-53.6-53.9l-23.4,24.1l98,99.5
		l-21.5,19.9l-54.7-52.7L294,258.5l41.9,43.1l0,0c10.3,3.2,19.7,8.9,28.4,16.7c9.8,8.5,16.7,18.1,20.8,28.6c8.7,21.3,6,41-8.2,59.1
		L351,383.4c4.6-8,6.2-16,4.8-24.1c-1.6-7.8-5.3-14.4-11.4-19.9c-9.6-8.5-21.1-11.7-33.7-8.9c-12.8,2.5-25,9.9-36.6,22
		c-10.3,10.3-16.5,21.1-19.2,32.3c-3.4,13.5-0.2,25,10.3,34.1c15.1,13.5,31.6,14.4,49,2.8L339.8,444.4L339.8,444.4z"/>
	<path style="fill:none;stroke:#231F20;stroke-width:2.0517;stroke-miterlimit:2.6131;" d="M107.2,64.7
		C171.3,50,239.3,42.2,302.9,42.4c64.6,0.2,124.8,8.5,188.6,24.1v288.3c-36.2,92.1-93.9,166.4-190,204.2
		c-99.1-31.4-160.7-109.8-196.7-204.2L107.2,64.7L107.2,64.7z"/>
	
		<path style="fill-rule:evenodd;clip-rule:evenodd;fill:#231F20;stroke:#231F20;stroke-width:3.783162e-003;stroke-miterlimit:2.6131;" d="
		M107.2,64.7l37.5-7.6l41.2-6.6l-0.2,438.6c-31.8-33-57.7-79.7-81-132.9L107.2,64.7L107.2,64.7z"/>
	
		<path style="fill-rule:evenodd;clip-rule:evenodd;fill:#231F20;stroke:#231F20;stroke-width:3.783162e-003;stroke-miterlimit:2.6131;" d="
		M490.7,66l-38.2-7.8l-42.4-6.4l-0.2,436.3c32.5-33.2,59.8-77.5,83.6-130.6L490.7,66L490.7,66z"/>
</g>
</svg>
