<?xml version="1.0" encoding="utf-8"?>
<!-- Generator: Adobe Illustrator 16.0.0, SVG Export Plug-In . SVG Version: 6.00 Build 0)  -->
<!DOCTYPE svg PUBLIC "-//W3C//DTD SVG 1.1//EN" "http://www.w3.org/Graphics/SVG/1.1/DTD/svg11.dtd">
<svg version="1.1" id="Layer_1" xmlns="http://www.w3.org/2000/svg" xmlns:xlink="http://www.w3.org/1999/xlink" x="0px" y="0px"
	 width="600px" height="600px" viewBox="0 0 600 600" style="enable-background:new 0 0 600 600;" xml:space="preserve">
<g>
	<g>
		<g>
			<path style="fill:#231F20;" d="M390,20.4c-2.2-1.9-4.8-1.7-7.4-0.8c0-0.1,0.1-0.2,0.1-0.3c0-4-2.2-8.3-4-10.6
				c-19-18.1-49.7,12.2-51,13.5l-0.5,0.5l-0.2,0.6c-1.4,3.4-1.3,6.4,0.1,9.1c3.4,6.3,14.4,9.7,37.8,15.1c17,3.9,23.9-1.9,26.7-7.4
				C395.2,33.1,393.2,23.2,390,20.4z M365.8,24c0.2-0.1,0.3-0.3,0.4-0.4c0.2,0.2,0.6,0.4,0.9,0.6C366.6,24.1,366,24.1,365.8,24z
				 M229.1,3h-0.2l-0.2,0c-6.4,1-9.3,7.4-9.8,13.1c0,0.5-0.1,1.2-0.1,1.8c-5-0.3-9.2,1.4-11.5,4.7c-3.1,4.4-2.8,11.2,1.1,20.1
				c1.5,3.5,5,7.8,13,8.9c16.4,2.2,44.2-11,51.6-20.3l1.6-2l-1.5-2C272.3,26.3,253.9,2.6,229.1,3z M315.9,7.9
				c-3-2.7-12-8.4-19.1-7.6c-2.8,0.3-5.1,1.6-6.7,3.7c-1,1.4-1.5,2.7-1.5,3.9c0,0.6,0.1,1.2,0.4,1.8c1,2.2,3.1,2.6,5.1,2.9
				c-2.3,1.5-5.2,2.3-6,1.8l-3.9-5.1l-1.8,5.9l-1.3,4.7c-1.4,4.6-2.5,8.3,1.4,12.1c2.8,2.8,16.3,3.8,40.1,3l4-0.1l-1-3.9
				C324.6,27.8,320.5,12,315.9,7.9z"/>
			<path style="fill:#FFF100;" d="M229.1,6.3C221,7.5,221,22,223.5,22.9c2.4,0.8,13-8.1,14.2-4.1c1.2,4.1-17.4,15.4-19,2.4
				c-5.7-0.4-15,2.4-7.3,20.3c7.7,17.8,50.6-1.6,59.1-12.2C270.4,29.3,252.6,5.8,229.1,6.3z M292.7,5.8c-4.4,6.1,9.6,1.6,6.6,6.5
				c-3,4.9-12.7,7.3-13.9,3.6c-2,8.1-4,10.5-0.8,13.8c3.2,3.2,37.6,2,37.6,2s-4.4-17.8-8.5-21.5C309.7,6.7,297.2-0.2,292.7,5.8z
				 M387.9,22.9c-3.3-2.8-9.7,3.2-15.8,4.4c-6.1,1.2-12.2-0.4-8.5-5.7c3.6-5.3,3.2,1.6,10.9,2c7.7,0.4,4.9-8.9,1.6-13
				c-16.6-15.8-46.2,13.8-46.2,13.8c-3.6,9.3,5.3,13,35.6,19.9C395.9,51.2,391.1,25.7,387.9,22.9z"/>
		</g>
		<path style="fill:#231F20;" d="M356.5,538.8c-16,0-29,10.6-30.6,24.1c-4.4-8.5-13.6-14.4-24.2-14.4c-11.9,0-21.8,7.3-25.5,17.3
			c0,0,0-0.1,0-0.1c0-14.9-13.9-26.9-31-26.9c-17.1,0-31,12.1-31,26.9c0,14.8,13.9,26.9,31,26.9c13.8,0,25.4-8,29.4-18.9
			c0,0.1,0,0.3,0,0.4c0,14.2,12.2,25.7,27.1,25.7c14,0,25.3-10.1,26.8-22.9c4.9,9.2,15.6,15.6,28,15.6c17.1,0,31-12.1,31-26.9
			C387.4,550.9,373.5,538.8,356.5,538.8z"/>
		<path style="fill:#FFF100;" d="M245.1,543.6c-14.4,0-26.1,9.9-26.1,22.1c0,12.2,11.7,22.1,26.1,22.1c14.4,0,26.1-9.9,26.1-22.1
			C271.2,553.5,259.6,543.6,245.1,543.6z M267.5,564.2c0,0-5.9,16.2-17.8,15.1c2.7-4.8,14-10.2,14.6-17.8
			C264.8,553.9,267.5,564.2,267.5,564.2z M301.6,553.4c-12.3,0-22.3,9.3-22.3,20.8c0,11.5,10,20.8,22.3,20.8
			c12.3,0,22.3-9.3,22.3-20.8C323.9,562.7,313.9,553.4,301.6,553.4z M304.2,583.6c1.6-5.4,12.4-7.6,10.3-19.4
			c-2.2-11.9,2.7,0.5,2.7,0.5S323.1,584.1,304.2,583.6z M356.5,543.6c-14.4,0-26.1,9.9-26.1,22.1c0,12.2,11.7,22.1,26.1,22.1
			c14.4,0,26.1-9.9,26.1-22.1C382.6,553.5,370.9,543.6,356.5,543.6z M333.9,566.8c16.2,14.6,17.8,0.5,31.3-4.8
			C349,591.7,333.9,566.8,333.9,566.8z"/>
		<path style="fill:#231F20;" d="M542.5,391.5l-0.3-0.4c-10.6-16.2-27.4-19-36.4-19.2c-12.6-0.3-24.3,3.9-29.1,10.4
			c-44.1,58.7-109.5,92.4-179.2,92.4c-66.5,0-129.8-31.2-173.8-85.6c-3-3.6-18.6-20.7-43.1-16c-11.8,2.3-22.4,11-28.2,23.3
			c-4.7,10-10.2,31.2,5.9,60.9c54.1,76,143.7,121,239.9,121c94.6,0,183.2-43.7,237-117c0.1-0.2,1.7-2.6,1.7-2.6
			C537.2,458.8,562.9,426.6,542.5,391.5z"/>
		<path style="fill:#FFF100;" d="M538.3,394l-0.1-0.2c-9.4-14.4-24.4-16.9-32.5-17c-10.9-0.3-21.2,3.2-25,8.4
			c-45.1,60-111.8,94.4-183.1,94.4c-68,0-132.7-31.8-177.6-87.4c-0.5-0.6-14.7-18.9-38.4-14.3c-10.3,2-19.5,9.7-24.7,20.6
			c-4.3,9.1-9.3,28.6,5.8,56.6c53,74.4,141,118.5,235.6,118.5c93,0,180.2-43,233.1-115c0.1-0.2,1.6-2.4,1.6-2.4
			C533.8,455.2,556.8,425.6,538.3,394z"/>
		<g>
			<path style="fill:#ED3024;" d="M534.2,396.4c-13.8-21.1-44.2-15.7-49.5-8.4c0,0,0,0,0,0c-44.2,58.8-111.5,96.4-187,96.4
				c-72.3,0-137.2-34.5-181.3-89.2l0,0c0,0-12.7-16.7-33.6-12.6c-17.9,3.5-37.3,29.9-15.5,70.1c49.9,69.9,134.9,116,231.3,116
				c95.1,0,179-44.8,229.2-113l1.4-2.2C529.1,453.4,551.2,425.6,534.2,396.4z"/>
		</g>
		<polygon style="fill:#231F20;" points="183,156.5 183,414.8 298.8,496 415.4,414.9 415.4,156.5 		"/>
		<polygon style="fill:#FFF100;" points="187.8,161.3 187.8,412.3 298.8,490.1 410.5,412.3 410.5,161.3 		"/>
		<path style="fill:#231F20;" d="M574.1,201.1l-0.3-8.6c0,0-6.8-0.6-7.8-0.7c-2.7-1.3-10.6-9-23.7-23c-0.1-0.1-8.1-8.5-8.1-8.5
			c0-0.1-4.8-6.4-4.8-6.4C468.4,69.4,393.9,26.5,308.1,26.5c-150.9,0-213.4,93.9-233.9,124.8l-0.9,1.4
			c-16.1,24.2-43.8,40.1-44.1,40.3l-5.1,2.9l0.2,5.9c0.9,33.5,12.9,60.3,31.4,70c18,9.4,55.7,3.5,83.4-39.5
			c51.1-62.7,90.1-104,161.3-104c86.7,0,136.7,71.4,158,101.9c30,42.8,56.7,46,66.8,45.4c13.6-0.8,48.9-14.9,48.9-70
			C574.2,205.5,574.1,201.1,574.1,201.1z"/>
		<path style="fill:#FFF100;" d="M570,201.2l-0.1-4.3c0,0-3.8-0.3-4.4-0.4c-4.2-1.1-19-16.9-26.1-24.5l-8-8.5l-5.1-6.8
			c-60-83.2-133.2-125.4-217.3-125.4C160.6,31.3,99.2,123.6,79.1,154l-0.9,1.4c-16.9,25.4-45.4,41.6-45.7,41.8l-2.5,1.4l0.1,2.9
			c0.9,31.7,11.9,57,28.8,65.9c16.3,8.6,51,2.5,77.1-37.8c52.1-64,92-106.3,165.4-106.3c89.2,0,140.2,72.9,162,104
			c28.5,40.8,53.3,43.9,62.6,43.3c12.6-0.7,44.3-14,44.3-65.1C570.1,204.1,570.1,202.7,570,201.2z"/>
		<path style="fill:#ED3024;" d="M34,201.4c0,0,29.6-16.6,47.4-43.3c17.8-26.7,78.5-121.9,226.7-121.9
			c140.9,0,210.1,121.9,219,130.8c8.9,8.9,30.8,34.4,37.2,34.4c1.6,48.4-25.9,63.6-39.7,64.4c-13.8,0.8-35.6-8.9-58.3-41.3
			c-22.7-32.4-75.3-106.1-166-106.1c-78.5,0-121.2,49.1-169.5,108.5c-23.5,36.5-55.3,44.3-70.7,36.2C44.8,255,34.8,230.9,34,201.4z"
			/>
		<path style="fill:#ED3024;" d="M194.1,249.8h210.5v-14.6H194.1V249.8z M273.1,221.2v-9.7h-14.3v-24.8c0,0-8.6,18.9-15.7,34.5
			C243.2,221.2,255.9,221.2,273.1,221.2z M194.1,172.1v59.1h29.7v-19.2c0.8,1.9,2.7,3.4,5.1,4.7l30-30h14.3v-8.1h2.7v8.1H288v24.8
			h-12.2v9.7H308v-9.7h-10.8v-24.8H308v-8.1h2.7v8.1h15.7v24.8h-15.7v9.7h33.5v-9.7h-13.5v-24.8h13.5v-8.1h2.7v8.1h13v24.8h-13v9.7
			h18c0,1.5-2.4,6.4-4.3,10h44.1v-59.1H194.1z M228.8,216.7c5.9,3.1,14.4,4.5,14.4,4.5C240.5,213.4,228.8,216.7,228.8,216.7z"/>
		<path style="fill:#FFF100;" d="M427.3,464.2l-23.2,13.4l25.4,44.1l23.6-13.6c5.7-4.6,15.9-16.2,6-33.2
			C447.1,453.8,427.3,464.2,427.3,464.2z M443.8,504.5l-7.9,4.6l-17.6-30.5l8.2-4.7c8.2-4.7,16.2-0.7,21.9,9.2
			C456.9,497.8,443.8,504.5,443.8,504.5z"/>
		<polygon style="fill:#FFF100;" points="255.6,494.8 247.6,528.7 227.9,488.4 227.9,488.3 227.8,488.3 227.8,488.2 227.8,488.2 
			217.6,485.9 205.9,535.8 217.3,538.5 225.1,505.2 243.9,544.7 255.3,547.4 267,497.5 		"/>
		<polygon style="fill:#FFF100;" points="351,498.7 308.7,504.7 309.6,511.5 325,509.3 331.2,553.3 342.8,551.6 336.6,507.7 
			351.9,505.5 		"/>
		<polygon style="fill:#FFF100;" points="387.8,532.4 381.4,517.3 397.4,510.6 394.7,504.2 378.7,511 373.2,497.9 389.2,491.2 
			386.5,484.8 359.7,496.2 379.7,543.4 410.2,530.4 407.5,524.1 		"/>
		<path style="fill:#FFF100;" d="M194.3,478.5l-16.5,30.2l-0.1,0c-3.3,6-10,7.1-15.5,4.1c-5.5-3-8.3-9.2-5-15.2l-0.1,0l16.5-30.2
			l-10.3-5.6l-17.7,32.5l0,0c-3.7,7.1,2.4,17.7,13.7,23.9c11.4,6.2,23.7,5.5,27.6-1.6l17.6-32.4L194.3,478.5z"/>
		<rect x="284.1" y="503.5" style="fill:#FFF100;" width="11.7" height="50.9"/>
		<path style="fill:#231F20;" d="M73.9,108.8c-5-1.6-9.6-0.3-12.9,3.2l-0.1-0.6l-6.8,6.4C54,118,34.9,136,21.5,151.1l-0.7,0.8
			l-0.3,1c-2.5,8.3-2,14.9,1.5,19.5c4.5,5.8,11.7,5.7,12.5,5.7l2-0.1l3.1-3.5l1.3,16.7l7.5-7.9c3.6-3.7,35-37,40-50.5l0.3-0.7l0-0.8
			C89.2,121.7,82.5,111.6,73.9,108.8z"/>
		<path style="fill:#231F20;" d="M578.7,152.9l-0.3-1l-0.7-0.8C564.2,136,545.2,118,545,117.8l-6.8-6.4l-0.1,0.6
			c-3.4-3.5-8-4.9-12.9-3.2c-8.6,2.8-15.3,12.9-14.9,22.5l0,0.8l0.3,0.7c5.1,13.5,36.5,46.8,40,50.5l7.5,7.9l1.3-16.7l3.2,3.5l2,0.1
			c0.8,0,8,0.1,12.5-5.7C580.8,167.7,581.3,161.2,578.7,152.9z"/>
		<g>
			<g>
				<path style="fill:#FFF100;" d="M66.7,137.6l-32.4,35.6c0,0-15.1,0.5-9.2-18.9c13.5-15.1,32.4-32.9,32.4-32.9
					S59.4,134.3,66.7,137.6z"/>
				<path style="fill:#FFF100;" d="M44.9,179.9l-0.8-10.5l29.2-33.2c0,0-16.3-10-9.8-19.7c6.5-9.7,21,2.2,20.5,14.6
					C79.1,144,44.9,179.9,44.9,179.9z"/>
			</g>
			<g>
				<path style="fill:#FFF100;" d="M532.5,137.6l32.4,35.6c0,0,15.1,0.5,9.2-18.9c-13.5-15.1-32.4-32.9-32.4-32.9
					S539.8,134.3,532.5,137.6z"/>
				<path style="fill:#FFF100;" d="M554.2,179.9l0.8-10.5l-29.2-33.2c0,0,16.3-10,9.9-19.7c-6.5-9.7-21.1,2.2-20.5,14.6
					C520.1,144,554.2,179.9,554.2,179.9z"/>
			</g>
		</g>
		<g>
			<path style="fill:#231F20;" d="M109.7,326.9c0,29.8-24.1,53.9-53.8,53.9C26.1,380.8,2,356.7,2,326.9C2,297.1,26.1,273,55.9,273
				C85.6,273,109.7,297.1,109.7,326.9z"/>
			<path style="fill:#FFF100;" d="M105.3,326.9c0,27.3-22.1,49.4-49.4,49.4c-27.3,0-49.4-22.1-49.4-49.4c0-27.3,22.1-49.4,49.4-49.4
				C83.1,277.5,105.3,299.6,105.3,326.9z"/>
			<path style="fill:#ED3024;" d="M99.6,326.9c0,24.2-19.6,43.7-43.7,43.7c-24.1,0-43.7-19.6-43.7-43.7c0-24.1,19.6-43.7,43.7-43.7
				C80,283.2,99.6,302.7,99.6,326.9z"/>
			<path style="fill:#FFF100;" d="M57.1,334.7c15.4-0.3,28.4-10.4,32.9-24.4c-2.4-4.9-5.8-9.1-9.9-12.6c-4.5,2.9-9.6,4.8-15.1,5.6
				C60.4,312,57.5,322.8,57.1,334.7z M91.6,313.9c-5.6,13.7-19,23.3-34.6,23.5c0,0,0,0,0,0c0,9.8,1.7,19.1,4.8,27
				c18.2-2.8,32.2-18.5,32.2-37.6C93.9,322.3,93.1,318,91.6,313.9z M77.8,295.9c-6.2-4.4-13.7-7.1-21.9-7.1c-6.5,0-12.6,1.7-18,4.6
				c6,4.7,13.6,7.6,21.8,7.6C66.3,301,72.5,299.1,77.8,295.9z M61.4,303.6c-0.6,0-1.2,0.1-1.8,0.1c-7.4,0-14.2-2.2-20-5.8
				c-6.9,9.9-11.3,23.9-11.3,39.5c0,6.2,0.7,12.1,1.9,17.6C37,361.2,46,365,55.9,365c1,0,1.9-0.1,2.9-0.1
				c-2.8-8.2-4.5-17.5-4.5-27.4C54.2,324.8,57,313.1,61.4,303.6z M35.3,294.9c-5.4,3.4-9.8,8.2-12.9,13.8c1.1,3.9,2.9,7.5,5.1,10.7
				c1.9-8.9,5.2-16.9,9.5-23.3C36.4,295.7,35.8,295.3,35.3,294.9z M20.7,312.3c-1.9,4.5-2.9,9.4-2.9,14.6c0,9.4,3.4,17.9,9,24.5
				c-0.7-4.5-1.1-9.2-1.1-14c0-5,0.4-9.8,1.2-14.4C24.3,319.9,22.1,316.3,20.7,312.3z"/>
		</g>
		<g>
			<path style="fill:#231F20;" d="M492.4,326.9c0,29.8,24.1,53.9,53.9,53.9c29.7,0,53.8-24.1,53.8-53.9c0-29.7-24.1-53.9-53.8-53.9
				C516.5,273,492.4,297.1,492.4,326.9z"/>
			<path style="fill:#FFF100;" d="M496.9,326.9c0,27.3,22.1,49.4,49.4,49.4c27.3,0,49.4-22.1,49.4-49.4c0-27.3-22.1-49.4-49.4-49.4
				C519,277.5,496.9,299.6,496.9,326.9z"/>
			<path style="fill:#ED3024;" d="M502.6,326.9c0,24.2,19.6,43.7,43.7,43.7c24.1,0,43.7-19.6,43.7-43.7c0-24.1-19.6-43.7-43.7-43.7
				C522.1,283.2,502.6,302.7,502.6,326.9z"/>
			<path style="fill:#FFF100;" d="M537.2,303.3c-5.5-0.8-10.7-2.7-15.2-5.6c-4.1,3.4-7.5,7.7-9.9,12.6c4.5,14,17.5,24.1,32.9,24.4
				C544.6,322.8,541.8,312,537.2,303.3z M508.2,326.9c0,19,14,34.8,32.2,37.6c3-8,4.7-17.2,4.7-27c0,0,0,0,0,0
				c-15.6-0.2-29-9.8-34.6-23.5C509.1,318,508.2,322.3,508.2,326.9z M542.5,301c8.2,0,15.8-2.8,21.8-7.6c-5.4-2.9-11.5-4.6-18-4.6
				c-8.2,0-15.7,2.7-21.9,7.1C529.7,299.1,535.9,301,542.5,301z M547.9,337.4c0,9.9-1.6,19.2-4.5,27.4c0.9,0.1,1.9,0.1,2.8,0.1
				c9.9,0,18.8-3.8,25.6-9.9c1.2-5.5,1.9-11.4,1.9-17.6c0-15.6-4.4-29.6-11.3-39.5c-5.8,3.6-12.7,5.8-20,5.8c-0.6,0-1.2-0.1-1.8-0.1
				C545.2,313.1,547.9,324.8,547.9,337.4z M565.2,296.1c4.3,6.5,7.6,14.4,9.5,23.3c2.2-3.2,4-6.8,5.1-10.7
				c-3.1-5.6-7.5-10.3-12.9-13.8C566.3,295.3,565.7,295.7,565.2,296.1z M575.3,323.1c0.8,4.6,1.2,9.4,1.2,14.4c0,4.8-0.4,9.5-1.2,14
				c5.6-6.6,9-15.2,9-24.5c0-5.2-1-10.1-2.9-14.6C580,316.3,577.9,319.9,575.3,323.1z"/>
		</g>
		<g>
			<polygon style="fill:#FFF100;" points="100.2,165.1 114.1,204.5 77.1,187.4 66.4,197.8 102,234.7 108.9,228 82.8,200.9 
				120.3,216.7 125.5,211.7 113.2,176.1 137.1,200.8 145.5,192.7 110,155.8 			"/>
			<polygon style="fill:#FFF100;" points="194.8,76.5 213.4,105.9 170.9,91.8 170.8,91.7 170.7,91.7 170.7,91.7 170.7,91.8 
				161.9,97.3 189.3,140.7 199.2,134.4 181,105.5 222.2,119.9 232.2,113.6 204.8,70.2 			"/>
			<polygon style="fill:#FFF100;" points="319.2,51.8 319.2,73.4 295.8,73.4 295.8,51.8 284.1,51.8 284.1,103 295.8,103 295.8,79.3 
				319.2,79.3 319.2,103 330.9,103 330.9,51.8 			"/>
			<polygon style="fill:#FFF100;" points="472.5,128.4 441.3,99.1 436.6,104.2 447.9,114.8 417.5,147.2 426.1,155.2 456.4,122.8 
				467.7,133.4 			"/>
			<polygon style="fill:#FFF100;" points="356,99.7 361.8,84.4 378,90.4 380.4,83.9 364.2,77.9 369.1,64.6 385.3,70.7 387.8,64.2 
				360.6,54.1 342.6,102.1 373.6,113.7 376,107.2 			"/>
			<polygon style="fill:#FFF100;" points="457.5,174.6 469.7,163.6 481.3,176.5 486.4,171.8 474.8,159 485.3,149.5 496.9,162.3 
				502,157.7 482.6,136.2 444.5,170.6 466.7,195.1 471.8,190.5 			"/>
			<path style="fill:#FFF100;" d="M271.1,93.4c-2.3,2.9-5.5,5.2-9.3,6.5c-10.4,3.3-21.5-2.6-24.9-13.2c-3.4-10.6,2.3-21.9,12.7-25.2
				c3.8-1.2,7.7-1.2,11.3-0.1l2.3-7.1c-5.9-1.9-12.4-2-18.9,0c-15.8,5.1-24.8,21.3-20,36.4c4.8,15.1,21.5,23.2,37.4,18.2
				c6.9-2.2,12.4-6.5,16.1-11.9L271.1,93.4z"/>
			<path style="fill:#FFF100;" d="M426.5,100.8l7.2-1.7c0,0-0.5-8.7-9.7-14.5c-9.2-5.7-21.8-5.7-26.6,1.9
				c-4.7,7.6,1.4,17.5,3.5,20.6c2.1,3.1,4,8.4,4,8.4s2.3,5.9-3.3,8.7c-4.7,2.3-14.9-4.7-15.3-12.9c-5.5,2.2-7.3,3.4-7.3,3.4
				s0.3,7.3,12.2,14.8c11.9,7.4,22.4,2.6,25.5-2.4c3.1-5,3.5-9.9,0.9-15.6c-1.9-4.1-6.7-13.4-6.7-13.4s-2.9-6.2,1.7-8.5
				c3.4-1.7,9.8,2.1,11.7,5.6C426.1,98.3,426.5,100.8,426.5,100.8z"/>
			<path style="fill:#FFF100;" d="M132.6,124.1l-8.4,8.8l23,50.2l7-7.4l-6.9-13.1l12.3-12.9l13.8,5.9l9.8-10.3L132.6,124.1z
				 M144.7,157.4l-9.5-18.2l19,8.1L144.7,157.4z"/>
			<path style="fill:#FFF100;" d="M508,214.4c3.2,2.6,11.3,3.9,18.3-2.7c10.9-10.4-1.7-23.7-1.7-23.7l-15.9-16.6l-37,35.5l8.1,8.5
				l14.1-13.5l5.4,5.6l-8.5,19.4l11.2,11.7C502.1,238.5,506.6,222.5,508,214.4z M502.8,201.5l-4.1-4.3l13.5-12.9l3.5,3.6
				c1.3,1.4,5.8,8.6-0.4,14.5C509,208.5,502.8,201.5,502.8,201.5z"/>
		</g>
		<path style="fill:#ED3024;" d="M367.7,263.5l-7.2,16.5h2.7v16.3h-9.6v-16.3h4l-8.3-16.5l-7.2,16.5h3v16.3h-9.6v-16.3h3.9
			l-8.3-16.5l-7.2,16.5h3.1v29.3h18v8.6c-7.4-0.6-14.7,1.9-16.4,3.8c-3,3.4-18.8,6.8-10.9,0c7.9-6.8,12-6.8,5.3-10.1
			c-6.8-3.4-8.3-7.1-8.3-7.1l0.7-22.9l9.8-16.1h-11.6l-7.1-14.3l-7.4,14.3H289l-7.1-14.3l-7.4,14.3H262l19.9,38.3L270.2,315
			c0,0-2.6,10.1,3.4,16.5c6,6.4,7.5,10.1,3,16.5c-4.5,6.4-4.9,9-4.9,9s-6.4,9.8-7.1-2.6c-0.8-12.4-3-32.3-3-32.3l10.5-19.2
			c0,0-14.6-3.8-17.6-34.1c-7.1,9.7-14.3,4.5-18.4,1.1c-4.5,13.9-11.6,23.3-15.4,19.9c-3.8-3.4-9.4-4.9-9.4-4.9s10.5,17.6,6,27.8
			c12.4-12.4,22.5-16.9,26.7-14.3c4.1,2.6,4.9,6-6.4,16.2c8.5,3.7,10.2,3.7,10.5,3.3v56.7c0,0-2.3,20.3,12.8,20.3
			c8.6,0,10.1,0,10.1,0l-3,33c0,0,1.1,6,2.6,9c1.5,3,7.9,9.8,7.9,9.8s1.9,3,1.1,6.4c-0.7,3.4-3.4,14.6,3.4,16.5
			c6.8,1.9,19.1-6,21.8-7.5c2.6-1.5,6.4-5.3,0-12.8c-6.4-7.5-12-18.4-6-21.4c6-3,10.9-4.9,5.6-14.3c-5.3-9.4-15-32.7-7.1-23.6
			l34.5,38.3c0,0,5.3,5.6,6,1.5c-0.4-4.9-3.5-35.8-0.8-39c2.8-3.3-1.1-7.1-9.4-6.4c-0.7-7.9,1.5-11.2,1.9-14.3
			c0.4-3-5.6-3.8-14.3,1.9c-4.5,1.9,0.8-9,3.4-12c2.6-3,4.1-6,4.1-6l21.8,10.9c0,0,0.2,0,0.6,0v65.3h0c0.2,2.2,2,3.9,4.2,3.9
			c2.2,0,4-1.7,4.2-3.9h0v-66.5c6-1.9,11.7-6.5,4.8-17.9c3.8-3,8.3-5.6,1.1-19.1c-1.5-2.8-3.5-4.8-5.9-6.1v-11.1h18v-29.3h4.3
			L367.7,263.5z M285.6,285.7l-0.8-12l6.4,9.8L285.6,285.7z M296.5,312.7l-5.6-12.4c1.5,0,11.6,0,11.6,0L296.5,312.7z M305.9,285.7
			l-5.6-2.2l6.4-9.8L305.9,285.7z"/>
	</g>
</g>
</svg>
