<?xml version="1.0" encoding="utf-8"?>
<!-- Generator: Adobe Illustrator 16.0.0, SVG Export Plug-In . SVG Version: 6.00 Build 0)  -->
<!DOCTYPE svg PUBLIC "-//W3C//DTD SVG 1.1//EN" "http://www.w3.org/Graphics/SVG/1.1/DTD/svg11.dtd">
<svg version="1.1" id="Layer_1" xmlns="http://www.w3.org/2000/svg" xmlns:xlink="http://www.w3.org/1999/xlink" x="0px" y="0px"
	 width="600px" height="600px" viewBox="0 0 600 600" style="enable-background:new 0 0 600 600;" xml:space="preserve">
<g>
	<g>
		<g>
			<g>
				<path d="M250.3,190.9c0.1-2.1-1-3.5,0.4-5.4c0.3-0.7,2.1-0.9,3.2,0.1c0.9,1.2,2.1,2.4,2.7,3.5c1.5,0.3,2.9-1.2,4.2-1.5
					c1.5-1.5,4.5-1.7,6.5-1.2c5.1,1.2,9.7,3.7,12.9,7.5c-4.5-1.6-6.5-1.7-10.8-2l-3.4-0.2l-15.7-0.2c-0.9,0.1-5.9,0.3-5.9,0.3
					c-8.3-0.6-18.4,0.6-24.7-5.3l-1,0.9c0.2,3.4,3.4,5.7,6.3,7.2c0.6,1.2,3,1.2,4.1,2.4c6.6,1.9,14.3,2.3,20.6,2.1
					c0,0,3.1,0.3,4.2,0.6c2.3,1.1,6.5,0.3,9.1,0.9c5.3,0,9.8,1.5,14.9,2.1l0.3,0.2c-2.7,0.8-6.7,0.2-9.3,0.6
					c-5.4,1.2-10.8-0.9-15-3.5c0,0-2.7-0.7-3.7-0.1c-0.1,0.6-0.6,1.3-0.5,1.9c0.4,2.3,1.6,3.6,3,4.9c0,1.8,2.7,2.1,3.4,3.2
					c2.1,0.8,3.6,2.9,6.3,2.4c2.4,1.8,5.2,0.9,7.9,1.3c2.5,1.2,6.2,1.4,9.3,1.5c0.6,0.4,2.8,0.4,3.9,0.8v0.3
					c1.5,0.6,4.2-0.4,4.7,1.7c1.5,2.5-1.2,5.1-2.6,6.9c-4.5,1.6-9,0-12.8,2.8c-3.1,1.4-5.5,3.6-8.2,5.7c-3,3,2.1,2.5,2.9,4.4
					c-3,1.3-6.6,2.5-9.6,4.6c-3.2,3.5-7.2,6-7.6,11.2c0.3,0.7,1.6,1.3,2.2,1.6l96.3,0.1c-0.1-0.5-0.3-1-0.4-1.5
					c1.8,0.3,3,0.9,4.8,0.9c0.2-0.9,1.6-1.5,1.1-2.5h0.2l0.3-7l0.3-0.3c-0.3-3-0.7-6.4-1.6-9.4c-0.5-3.2-1.8-5.1-2.3-8.1
					c1.8,1.4,4.4,0.4,5.9,1.5c2-0.9,0.9-3.3,1.6-5.2c0-0.5-0.9-0.5-0.3-1.1c-0.2-5.8-1.9-11.7-3.9-16.9c-0.8-1.8-2.7-2.9-2.9-4.6
					l3.2-0.8c0.1-0.9-0.6-1.8,0-2.5c-0.8-1.5-1.1-3.6-1.7-5c-0.3-2.8-1.9-4.9-2.4-7.6c-2.3-1.9-3.2-6-6.3-7.2l0.8-0.6
					c3.6-1,5.1-3.7,7.3-6.1c2.3-3.6,4.9-8.7,2.6-12.6c-0.6,0.7-2.4,1.2-2.4,1.2c-5.9,2.4-14.9,2.5-20.7-0.2
					c-19.1-5.3-38.6-15.9-59.9-12.9c-8.1,2.1-15.9,4.4-21.5,10.5c-1.5,2.7-5.4,3-7.5,4.5c-2.1,1.7-4.2,4.1-5.7,6.9
					c-3,7.7,0.3,16.2,5.7,21.6c0.2,0.6,1.3,0.6,1.5,1.1C244.5,191,250.1,192.1,250.3,190.9c-0.1,0.2-0.1,0.3-0.1,0.5"/>
				<path d="M406.2,351.8c1.1,2.2,2.2,4.4,3.6,6.3c1.1,1.5,2.6,1.7,3.6,3.6c0.7,0,2.9,0.9,2.7-0.7c3-1.9,3-5.3,5-8.2
					c0.4-2.4,1.8-4.5,2.1-7c0.2,1.2,1.2,2.2,0.9,3.1c0.3,7.7,2.1,13,2.7,20.7c1,7.8,2.7,13.1,4.2,20.4c1.8,7.2,4.6,12.7,7.8,18.7
					c2.5,4.5,5.8,8.2,8.4,12.8c1,0.3,1.9,2.6,3.3,1.5c-0.8-12.3,1.3-22.1,1.6-34.5c0.9,3.5,2.1,7.4,2.8,11c0.6,1.6-0.4,4.2,0.9,5.5
					c0.9,6.1,2.7,12,3.6,17.9c2.1,10.5,7,19,12.3,27.7c1.4,0.9,2.3,2.5,3.5,3.7c0.4,2.6,3.2,3.2,4,5.6c6.3,5.4,12.9,11.7,19.6,16
					c2.5,0.8,3.9,3,6.3,3.4c-0.9-1.7-0.2-3.4-2-4.4c-0.3-2.9-3.6-4.4-3.6-7.6c-1.2,0-0.6-1.6-1.2-2.1c-0.3-1.2-1.8-1.4-1.3-2.9
					c-1.4-3-3.3-5.5-3.2-9c-0.9-1.3-2.1-3.1-1.8-4.6l-0.7-0.9c-1.7-6-2.7-13-3.3-18.9h-0.3c-0.2-7.7-1.1-15.3-2-22.4
					c0.2-0.2,0.2,0,0.3,0.2c5.5,9.7,9.5,21,19.6,27.1c1.2,0.8,2.1,1.6,3,2.4c0.5,0.8,1.8,0.4,1.7,1.6h0.9c9,5.9,20.4,6.9,28.8,14
					c1.2,0,1,1.5,2.4,0.9c-3.6-12.3-13.6-20.3-20.5-29.9c-0.9-2.3-2.4-4.2-3.6-6.3c-2.4-4.5-3.3-9.3-5.4-14.1
					c-0.9-0.9,1.1-2.9-0.9-2.9c-0.3-1.9-0.8-4.5-1.8-6.5c-0.4-3.9-2-8.8-2.2-12.6h0.3c-0.1-4.2-1.2-6.7-1.5-11.1
					c1-0.6-0.8-1.5,0.3-1.8c3.3,4,5.7,9.2,10.5,11.4c6,5.7,14.3,7.9,21.9,10.6c4.6-0.7,8.4,2.3,12.6,0.9c-0.6-1.3-2.1-2.5-3.7-3
					c-1.9-3.2-6.1-4-7.6-7.6c-5.3-6-8-14-9.7-21.9c-1.2-2.4-1.1-5.7-2.4-8c-0.5-2.8-1.2-5.7-1.8-9c-0.6,0-0.4-0.7-0.4-1.2
					c-1.2-6.8-2.9-12.9-3.5-20l-0.6-0.5c0-6-1.4-12.4-1.7-18.4l0.5-0.4c4.8,0.3,10.6,0.6,15.3-1.7c2-0.9,4.5-2.4,4.5-4.8
					c-2.4-0.3-5.9-0.4-7.3-2.4c-3-2-5.7-5.4-7.1-8.7c-1.3-8.2-5.3-15.1-6.3-23.1c-0.9-0.3,0.2-1.8-1-1.9c-1.5-8.1-4.8-17.1-5.2-25.7
					c-0.3-1.7-0.6-4.5-0.8-6.6c3.3-1.1,7.2-1.3,9.7-3.8c0.5-0.7,0-1.6-0.4-2.2c-2.7-0.4-4.7-2.1-6.6-3.9c-1.9-2.4-4-6.5-4.6-9.3
					c-3.3-3.7-4.4-9.1-5.9-13.9c-0.9-2.5-1.6-5-2.8-7.3c-0.5-4.1-3.3-6.8-3.8-10.8c-0.4-1-1.9-1.5-1.6-3
					c-4.4-10.9-10.7-20.8-19.9-27.9c-2.4-3.6-7.8-5.1-10.8-8.1c-2.9-1.9-6.6-2.4-10-3.1c-5.5-0.6-11,0.9-15.6,3.3
					c-1.8,0.2-3,1.5-4.5,2.3c0,1-1,0.9-1.6,1.2c-6.6,6.9-11.1,16.8-15.4,25.7l-3.1,10.5c-1,0.9-0.2,2.6-1.3,3.4
					c-2.3,8.2-4.7,15.6-8.1,23.7c-1.5,1.8-1.8,3.8-2.6,5.7c-1,1.2-1.6,2.9-2.4,4.2c-0.3,2.4-1.3,4.1-2.7,5.7
					c-1.9,4.7-4.7,8.9-7.2,13.1c-1.4,0.9-1.4,3.9-3.2,4.8c-0.7,0.3-0.1,1.9-1.3,1.8c-3.4,6.6-8.4,12.3-13.9,17.5l33-0.2L406.2,351.8
					"/>
				<path d="M184.8,363.2c-1.1,0.1-1.7,0.2-1.9,0.4c-2.4,1.2-1.2-1.9-3-2.1c-2.4-5.5-6.1-10.7-7.9-16.7c-1.5,13.9-0.2,27.6-1.8,41.4
					c-1.2,1.2-0.2,2.7-0.9,3.8l-0.2,1.6h-0.3c-0.8,3.8-2.4,7.8-4,11.3c-0.3,1.4-1.7,2.7-1.7,4.5c-2,4.2-4,7.2-5.7,11.7H157l-5.3,7.5
					c0.5,1.1-0.9,0.9-1.2,1.6c-1.9,4.1-3.9,7.2-6.9,10.4c-0.3-3.7,0-8.6-0.5-12.3c0.5-6,0-13.7-1-20.2c-1.5,9.5-4.9,18.1-6.9,27.6
					c-1,2.6-2.5,5.1-2.9,8.1c-1.9,3.4-2.8,7-5.4,10v1.1c-1.7,0.7-2,3.4-3.3,4.5c-1.7-0.1-0.3,2.4-2.1,2.4
					c-4.4,7.8-13.7,12.3-21.1,17c-3.9,3.4-8.6,6.3-10.8,11.4c-1.3,0.2-0.7-1.7-1.3-2.4c0.4-4.5,0.7-9.9,3.9-13.2
					c4.3-6.9,9-15.3,11.7-23.4c-0.6-1.3,1.1-1.8,1.1-3.3c1.6-2.8,1.5-6.7,2.3-10.2c1.7-4,1-9,2.5-13.5c0.9-7,2.1-13.5,3.1-21h-0.8
					c-2.2,6.1-6,13.4-9.1,19c-4.5,3.9-8.8,9.9-14.5,11.7c-5.1,2.8-10.6,3.7-14.3,8.5c-2.4,1.2-3.1,3.4-4.9,5.1v0.6
					c-1.2,0.6-1.8,2.6-3.3,2.7c-0.8-6.5,1.8-11.7,3.4-16.9c0.9-0.9,1.2-2.4,1.8-3.6c1.1-1.8,3-3,3.8-5.1c1.5,0.1,0.7-1.5,2.1-1.7
					c4.2-7.3,7.5-16,9.7-24.5c2.3-5.4,3-12.9,4.2-18.9c1.1-2.2,0.8-4.5,2-7c0.5-2.9,1.3-5.1,1-8.1c-0.9,0.5-0.3,1.4-0.5,2.1
					c-2.1,0.9-1.5,3.2-3.1,4.5c-0.5,2.2-2,3.4-2.9,5.4c-2.5,4.2-7,6.5-11.4,9c-4.7,0.7-8.4,2.8-13.5,3v0.3c-3.7-0.3-7,2.1-9.9,3.9
					h-0.6c1.4-6.1,5.1-11.2,9.6-15.6c3.4-3.9,5.9-9,7.6-14.1c1.4-5.1,3.8-10.2,4.1-15.2c1.3-4.4,2.1-9.7,4-13.9
					c1.3-3.6,1.7-8.2,3.1-11.8c-0.4-2.7,1.9-4.7,1.6-7.5c1.3-3.2,1.7-7,2.6-10.5c-3,1.2-5.4,3.4-9,4.2c-3.5-0.3-8.1,0.6-10.8-1.5
					c-0.6-5.1,6.1-6.9,7.2-10.8c3.6-7.2,7.5-14.2,9.1-22.3c3.3-8.2,4.2-17.7,7.1-26.5l-0.1-0.9c1-0.6-0.6-1.5,0.7-2.4
					c0.4-3,1.5-7.3,2.7-10.9c-1.5-0.5-2.6,1-3.9,1.2c-3,0-5.9,2.4-9,0.8c-1.3-0.9-1-2.4-0.3-3.6c1.2-0.2-0.3-2.1,1.5-1.9
					c3.9-7.7,7.8-15.2,9.5-24.1c5-15.3,6.9-31.5,17.1-44.7c0-1.8,2.1-2.4,2.4-4.2c5.1-7.6,11.4-13.8,19-18.6c6.4-5.1,17.4-4.6,25-1
					c1.1,0.9,3,0.6,3.6,2.2c1.6,0.8,3.1,1.8,4.8,2.9c1.6,3,5.4,5.4,6.7,9c1.8,0.9,0.9,2.4,2.1,3.6c7.2,13.4,10.4,27.8,17.4,41.3
					c3.1,5,3.9,11,7.8,15.6c0.4,1.7,1.5,3.4,2.4,4.6c0.8,0.6,0.3,2.3,1.8,2.3c0.3,2,2.1,3.9,2.7,5.9c1.2,1.4,1.3,3,2.8,3.8
					c0,2.1,2,2.5,2.6,4.4c3.3,4.2,7.6,9.7,11.1,13.6c2.5,3.4,4.8,5.5,7.8,8.1c0.8,0.9,1.7,1.8,2.7,2.5l-45,0.3L184.8,363.2"/>
				<path style="fill:#FDC56F;" d="M406.3,266c0.7-1.2,1.2-2.4,1.7-3.6c2.6-4.1,0.8-7.6-0.4-11.7c0.2-0.3,0.3-0.6,0.6-0.4
					c1.2,1.8,3.4,2.8,3.6,5.3c0.8-1.1,3-1.8,3.3-3.5c0.2-0.8,1.2-2,0.6-2.5c0.6-2,1.7-3.8,1.3-6.3c0.2-2.4-2.2-4.8-0.9-6.9
					c2.5,1.7,2.5,5.5,3.4,8.2c4.1-3,5.7-7.9,7.5-12.4c1.2-4.5-1-7.3-1.5-11.4c2.8,0.3,3.4,4.3,4,6.9c3.2-4.4,5-10.1,4.4-15.6
					c0.2-2.4-1.6-4.3-1.2-6.3c2.7,0.4,2.7,3.6,3.3,6h0.6c0.4-0.3,0.6-1,0.8-1.8c2.2-4.4,3.7-9.7,2.8-15.3c0.3-2.4-4.4-3.9-1.5-5.5
					l0.4,0.7c1.8,0.3,1.5,2,2.6,2.8c0.3,1.2,0.6,3.2,1.8,3.2c3-4.9,5.4-11.8,3.3-17.7c-0.2-1.5-2.4-3-1.4-4.6c1.8,0.3,3,2.4,3.4,4.4
					c0.6,0.9,0.2,2.7,1.1,3c3.7-5.4,2.5-13.5,1.8-20.1c-1.1-1.3-3.2-2.5-2.7-4.8c0.9-1.3,1.6-3.2,3.9-2.4c2.4,0.9,5.5,2.1,7,4.5
					c0.8-0.2,0.9,0.6,1,1c6.6,7.5,7,18.1,11.6,26.4l0.6-6.4c1-1.8,0.6-5,2.4-6.3l0.3,0.2c-0.9,5.4-1.2,12.9,1.5,17.8
					c1.2,1.9,1.3,4.8,3.4,6c0.9,2.1,2.4,4.4,4.6,5.4c0.2-3.3-1-7,0.4-9.9c0.5-0.2,0.9,0,1.2,0.4c-1.2,2.1,0.5,4,0.5,6.3
					c1.4,3.4,2,7.6,4.8,10.1c1,3.1,3.9,4.4,5.5,7c1.5,0,1.3,2.1,2.9,1.8c1.8,1.8,4,2.7,6.1,3.8c4.4,1.8,8.7,2.3,13.2,0.4
					c-1-1-3.2-0.7-4-2.4c-3.7-0.7-5.3-4.9-7.2-7.6c-2.1-4.9-4.4-10.2-6.3-15c0-2.2-2-3.1-1.8-5.4c-1.1-1.9-2-4.8-2.7-7.4
					c-1.2-1.7-0.8-4.5-2.4-6c0.5-2.4-2.2-3.1-1.8-5.5c-1.2-0.3-0.9-2.2-1.7-2.8c-2.2-5.1-5.2-9.2-8.1-13.7c-1.3,0.2-1-1.5-1.6-2.3
					c-2.3-1.5-2.9-4-5.4-5.4c-7.8-6.5-15.4-13.2-26.9-12.5c-3.3,1.2-6.6,2.1-9.5,3.6c-4,2.7-8.2,6.4-10.3,10.6
					c-1.1,1.5-1.4,3.6-2.6,4.9c0.3,2.4-2.6,3-2.3,5.5c-1.5,1.9-2.1,4.2-2.7,6.8c-4.4,9.3-6.5,20.4-10.8,29.5l-0.4,0.2
					c-0.3,2.7-1.5,4-2.7,6.3c-1.8,4.8-3.3,9.9-5.9,14.2c-1.7,1.9-2.5,5.1-4,7.2c-2.3,3.7-4.4,8.1-6.8,11.8
					c-4.4,6.2-9.1,12.2-13.9,18.3l27.9-0.1L406.3,266"/>
				<path style="fill:#FDC56F;" d="M224.7,255c-5.2-4.8-9.7-10.1-14.5-15.6l-0.2-0.9c-6.9-8.7-13.3-18.4-18.1-29.1
					c-1.5-3.6-4.2-6-4.7-10.2c-3.4-5.1-4-11.2-8-16.2c0-3-1.8-5.4-2.7-7.8c-0.3-1.2-0.7-2.6-1.2-3.3c-6.7-15.6-15.1-36-35.5-36.3
					c-3.3,0.2-6.5,1.6-9.3,2.4c-3.4,1.9-6.3,3.6-9.1,5.9c-0.2,1.2-1.5,1.3-1.7,2.1c-3.8,2.9-5.9,6.8-8.6,10.4
					c-0.9,0.7-1.5,2.5-2.2,3.3c-3.3,6.4-6.3,13.5-8.6,20.4c-0.7,1.1-1.3,2.9-1.8,4.4c-3.3,8.4-4,18.3-8.1,26.6
					c-1.2,6.1-4.4,11.8-7.5,16.8c-1.1,0.1-0.6,1-0.8,1.8c2.9,0.5,6.2-0.6,8.7-1.8c7.1-4.2,13.7-12.2,18.3-19.1
					c1.3-5.5,4.5-10.1,3.6-17c0-0.6-0.1-1.8,0.9-1.7c1.3,1.8,0.8,4.7,1.5,6.7c0.5-0.7,1.5-1.2,1.7-2.2c3.6-3.6,5.2-9.3,4.5-15.1
					c0.1-1.2-2.3-2.7,0-3.3c1.8,2.9,2.1,6.4,2.2,10.2c0.8-0.6,2.1-0.2,2.9-1.1c0.9-0.1,0-1.4,0.9-1c-0.2-1.7,1.4-2.1,1.4-3.6
					c0-9,1.3-17.4,5.4-24.8c1.2-1,1.9-2.2,3.1-3.6c1.8-2.5,4.2-0.5,6.3,0.1c0.9,1.2-0.2,2.6,0.9,3.6c-1.5,2.9-3.9,4.5-5.5,7.1
					c-0.4,5-0.2,10.5,2.9,13.6c1.3-0.6,1.3-2.3,1.8-3.6c1.2-0.8,1.7-2.5,3.3-1.9v0.7c-2.1,1.7-2.1,5-3,7.2c1.2,0.4-0.9,0.9,0.3,1.5
					c0,2.7,1.2,5.4,1.8,8.1c1.2,2.1,2.7,4.2,3.9,6.3c1.2-1.6,1.2-3.4,3.5-4.2l0.6,1.2c-1.9,0.3,0.2,2.1-1.3,2.4
					c-1.8,4.8-0.6,9.9,1.8,13.8c1.4,1.5,2.4,4,4.5,4c0.6-2.2,0.8-5.7,3.5-6.1c0.3,1.2-0.6,3.4-1.1,5.1c0.3,4.4,1.2,8.7,3.6,11.8
					c0.3,2.4,2.5,3.8,4.5,4.8c0.2-1.6,1.6-3,1.6-4.6c0.8-0.2,1.2-1.5,2-0.3c-0.4,1.7-1.3,3.1-1.2,5.1c0.2,0,0.3,0,0.5,0.3l-0.5,0.4
					c0,3.6,2.5,6.9,4.5,9.6c0.7,3.3,4.5,5.1,6.7,7.2l1.5-3.6l0.9,0.3c-0.4,4.4-0.3,8.4,2,11.7c0.3,0.1,0.8-0.2,0.9,0.1
					c-0.2,0.4-0.2,0.8-0.1,0.9H224.7"/>
				<path style="fill:#FDC56F;" d="M299,150.9c1,1.9,4,0.3,5.2,2.1c5.7,1.3,10.7,4.3,16.4,5.7c1.9,1.8,4.4,1.3,6.9,2.4
					c7.2,1.8,16.7,6.1,24.3,1.5c-0.3,4.9-4.1,10-8.7,12c-6.5,1.7-13.4,0-19.8-1.8l-2.6-0.2c3,2,7.2,2.7,11.2,3.9
					c4.8,1.1,10,2.1,13.7,5.4c2.5,4.6,4.8,9.9,5.4,15.1c-2.7,0.5-5.5-0.3-7.7,0.8c-0.1,1,1.5,0.7,1.7,1.6c2.5,2.4,5.4,5.7,6.8,9.2
					c1.6,4.7,3.3,9.3,2.7,14.8c0.7,0.5-0.2,1.1,0,1.5c-3.6,0-6.2-1.8-8.7-3.4c-4.4,0.4-3.3-4.2-5.7-6.3c-2.4-4-5.3-7.6-8.9-10.3
					c0.3,3.4,4.5,5.7,5.5,9.1c1,2.3,3.9,4,3.6,7.2c-3,0-4.6-2.2-7.2-2.7c-1.8-1.1-3.8-2.7-5.7-1.8c2.4,3.8,7.4,4.5,9.3,9
					c0.6,1.2,1.7,2,1.8,3.6c1.8,2.5,1.5,6.3,2.4,9.5l-1.2,5.1c-1.8-0.1-2.5-1.3-4.2-2c-1.7-1.3-2.7-1.7-4-3.1l-1.2-0.3
					c-2.8-3.3-6.7-5.5-9.6-9.1c-2.1-1.2-2.7-3.5-4.8-4.4c-0.5,1.3,1.5,1.8,1.2,3.3c0.6,1.5,2.5,3,2.4,5c1.2,1.5,1.3,3.4,1.2,5.4
					c0.8,4.4,0,10.1-3.6,12.6c-0.8,1.6-2.1,2.7-3.7,4l-5.2-0.2l-0.1-3h0.2c0.3-5.9-3-10.2-3.3-16.3c-0.7-1.2-1.6,0-2.2,0.3
					c-1.8,4.2-5.1,8.3-8.6,10.8c-1.9,0.4-3.4,2.2-5.3,2.1c-4,2.6-8.2,2.3-13.3,3c-0.6-1.6,0.9-3.3,1.5-4.8c1.4-4,3.9-7.3,7.2-10.2
					v-0.5c-2.7-0.4-5.4,0.8-8.4-0.2c-2.4-0.3-5-0.7-6.6-2.4c0.7-0.2,0.6-0.9,0.9-1.5c4.2-1.8,7.6-4,12.8-3.9c2.8-1,6.3-1.9,7.8-5.1
					c0.3-1.6,0.9-3.7-0.2-5.4c1,0.2,1.7,1.7,3,1.7c0.9,2.5,2.7,5.1,2.7,7.6c1.8-1.5,1-5.1,0.7-7.2c-0.3-0.3-0.4-0.6-0.7-0.6v-0.3
					c3,1.1,5.2,4.7,6.5,8.1c1.3-2.6-0.8-5.4-2.1-7.6c2.1-0.7,3.6,1.8,5.5,2.7c0.9,0.5,1,2.9,1.9,2.3c0.5-1.2-0.6-2.9-1.2-3.9
					c-1.8-2.3-4.6-3.9-7.6-4.5c-4.7-1.3-10.2-3.4-16.2-3.9c-8.2-1.2-16.8-1-24-3.6c-2.5-1.5-3.6-3.6-5.2-5.4
					c13.1,7.8,27.9,0.6,41.7,2.8c3.5-0.4,7.2,2.4,10.5,2.4c0,0.9,1,0.3,1.6,0.5v0.6c2.6,0.6,6.3,2,8.3,4.6c0.7,0.3,0.7-0.4,0.9-0.9
					v-0.8c-5.9-4.3-9.4-7.2-15.8-10.1c-0.4-1.4-2.4-0.9-3.3-1.9c-3.6-2.3-8.9-4.6-12.2-7.8c-2.2-1.2-4.8-3-7-4.8
					c-3.6-2.7-8.7-5.4-13.8-5.5c-2.2-0.1-3.6,0.8-5.4,1.7c-3,0.1-3.3-4.8-6.9-3.6l-0.2-0.1c-1.8,0.8-4,0.3-5,2.7
					c-0.6,0.3-0.6,0.9-0.6,0.9c-0.6,1.3-0.6,3.4,0,4.8c-1.8-0.3-1.9-2.6-3.6-3.3c-1.2-3-3.6-5.5-2.7-9.6c-0.7-1.5,0.5-3.5,0-4.8
					c0.8-1.5,1.2-3.4,2.6-5.1c0.1-0.2,0.8-0.7,0.8-0.7c3.6-2.6,8.9-3.4,10.8-8.3c0.6-0.9,1.3-1.4,2-1.8c1.5-1.5,3.9-2.2,5.7-3.3
					c7.4-3,16.2-4.1,24.5-3.3C290.6,148.9,294.7,150.7,299,150.9"/>
				<path d="M264.6,155.1c-0.3,1.9-2.4,1.2-3.3,2.5c-1.8,1.5-3.6,3.3-3.9,5.4c1.8,2.4,5.4,4,8.5,5c5.5-1,11.4-3.6,17-5.4
					c1.2,0.3,3-0.6,4-0.9c2.9-0.6,6-0.9,9.2-0.3v0.6c-6-0.3-10.4,3.2-15.8,4.6c7.5,0.8,13.8,3.8,18.6,9.2c-0.2,0.5-0.6,0.2-0.9,0.3
					c-1.9-2.4-5.2-3.6-7.9-4.8c0.8,2.4-0.2,5.1-2.2,6.8l-3,1c10.9,6.7,16,20.1,29.5,24.3c3.6,1.3,7.7,1.3,11.2,0.7
					c0.8-0.7-0.5-1.2-0.6-1.9c-1.6-0.2-1.1-1.9-2.7-2.1c-1.8-2.1-4.2-2.7-6.1-4.5c-0.6-0.6-2.1-0.6-2.2-1.8c1,0,2.6,0.9,4,0.9
					c2,0.6,3.6,2.5,5.4,2.5c1.9,1.5,5.2,2.3,7.3,2.9c2.7,0.9,5.1,0.3,7.5-0.9c-1-1.2-1-2.7-2.3-3.6c-2.4-3.7-6.1-6.3-9.9-8.4
					c-1.4-1-3.3-1.7-5.4-1.7c-0.3-0.3-0.2-0.7-0.2-1.2c4.4,1.2,9.6,1.8,13.8,1.8c1.6-1.2-0.5-1.9-0.6-3.3c-1.5,0-1.5-2.3-3-2
					c-2.1-2.8-6.9-4-10.2-5.7v-0.6c5.3-0.2,7.6,2.7,11.8,5.1c3.3,1.9,4.3,7.1,9,8.1c1.9,1.6,3.7,2.3,4.9,4.6l-5.7-3.7
					c-1.3-0.6-2.9-2.1-4.5-0.9c-1.2,0.2-2.4,1.1-3.9,0.4l-0.3,0.5c1.9,1.8,4.2,3.7,6.3,6.5c0.3,2.3,2.7,3.9,1.8,6.5
					c-1.3,0.6-2.7,0.3-4.1,0.6c4.1,3.1,9.8,6.5,12.2,11.3c0.5,0.4,0.6,1.5,1.1,2.2c-6-6.6-13.3-12-22.2-14.3c-0.5,1.8,2.5,3,1.5,5
					c-7.8,2.3-15.6-1.8-22.2-5.4c0-0.7-0.9-1.1-1.3-1.2c-11.1-5.8-14.2-22-29.7-20.5c-0.9-0.3-1.5-1.2-2.6-0.9
					c-2.5-1.4-3.9-4-5.4-6.4c0.3-0.2,0.3-0.6,0-0.7c-1.2,0-2.9-0.4-4.1-1.1c-1.5,0.3,0.3,1.8-0.1,2.9c0.6,1.5-0.3,3.1,0.8,4
					c5.5,0,9.9,3.3,13.6,6.3c-1.2-0.3-3.1-1.7-4.8-2.4c-1.5,0.3-1.9-1.5-3.6-1c-1.7-0.9-3.9-1.4-5.4-0.8c-1-0.6-3.5,1.3-3.3-0.9
					c0.6-2.5,0.5-4.9-0.4-7.5c-1.3-2.7-4.6-5.5-8-5.4l-2.4,1.3c-0.6-0.1-0.3-0.7-0.3-1.2c1.5-2.8,6.3-0.3,5.9-4.4
					c1.7-1.6,3.2-3,5-4.4c0.3,0,0.9,0.2,1-0.3C262.3,156.1,263.5,155.5,264.6,155.1"/>
				<path style="fill:#FDC56F;" d="M140,156.4c-4,3.9-5.7,10.9-4,16.6c1.2,3.3,2.3,6.2,5.4,8c-0.1,3-0.3,4.8-0.4,8h-0.3
					c-0.2,2.7-0.3,5.2-1.2,7.9c-0.5,5.1-2.5,10.4-4.2,15.4c-1.2,4.3-2,7.7-3.6,12c-2,5.7-3.3,10.9-4.8,16.6
					c-0.7-0.2-0.9,0.8-0.6,1.2l0.3,0.5c0.8-0.8,1.3-1.8,1.3-3h0.3c1-3.4,2.3-6.6,3.3-10.5c1.1-0.4,0.2-1.9,0.9-2.5
					c0.7-2.8,2-4.5,2.5-7.4c-1.3-0.9,0.7-0.9,0.5-1.8c1.2-4.4,3.4-9.1,4.4-14.3c0.7-1.6,0.6-3.1,1.6-4.5c0.3-2.3,0.8-5,1.1-7.4
					c1,2.4,3,4.8,4.8,7.2c0.4,2.7-1.2,5.1-1.3,7.8h-0.2c-1.6,3.8-1.8,9-4.2,12.3c-0.7,6.3-3.4,12.6-4.6,18.8
					c-1.2,1.2-1.2,3.9-1.7,5.5c-1,1.8-0.9,5.3-2.1,6.6c-0.7,2.4-1.3,5.7-3.1,7.6c-0.5,1-0.6,3-1.8,3.6c-1.5,2.4-3,4-4.4,6.3
					c-0.2,0.3-0.7,0-1.1,0.3c-0.6,2.9-3.6,3.8-4.6,6c-3.1-8.5-2.5-19.2-3.5-28c1.1-3.8,2.3-8,3.6-11.4c1.2-3.7,2.1-7.6,3.3-11.7
					c1.2-3,2.5-6.3,3-9.3c2.7-7.7,4.7-16.1,7.4-23.7c1.2-2.4,0-5,1.4-7.7c-1.5-6,0.6-12.1,0.7-18.5c0.9-1.7,1.4-4.4,3.2-4.9
					c-0.4-1.7,1.1-1.7,1.9-2.6C139.9,155.4,139.9,156.1,140,156.4"/>
				<path style="fill:#FDC56F;" d="M460.8,168c2.2,6.4,3.6,12.9,7.9,18.6c0.9,1.9,2.4,4.4,2.9,6.7c0.6,2.3,0.7,3.9,1.8,6.2
					c0.2,1.8,1.3,3.4,1.2,5.5c0.9,3,2.6,5.6,2.4,9.2c1.6,3.7,1.8,8.1,3.4,11.8c0.5,0.9,1.2,2.4,0.6,3.4c0.1,0.3,1.3,1.1,0.5,1.5
					c0.9,1,1,2.5,1.2,4.5c2.2,2.4,1.5,5.9,2.7,9c1.2,4.6,2.1,9.3,3.6,13.5c-0.6-8.7-3.4-18.3-5.2-26.5c-1.4-2.5-0.5-5.9-2.4-8.5
					c0.2-3.8-1.8-7.5-3-11.1c-0.3-0.8,0.9-1.2-0.3-1.5c-1.5-4.1-2.1-8.4-3-12.3c-1.2-1.3-0.9-3.7-1.7-5.1h0.5
					c0.4,4,3.8,7.2,5.4,10.3c2.7,3.3,6.9,4.5,6.9,9.3c0.8,3.3,2.1,7.2,2.4,10.5c1.1,0.2,0,1.4,0.9,1.8c3.2,10.2,4,22.5,7.7,32
					c0.4,1-0.9,1,0,1.6c0.6,6.9,0,12.8-1.8,19l-1.2,1.7c-4.2-4.4-8.7-9-11.7-14.6c-3-5.5-3.6-13-5.4-19.6c-1.7-8.9-4.2-17.9-6-26.9
					c-1.7-2.1-1.8-5.5-2.7-7.6c0.6-3.3-2.4-5.1-2.1-8.6c-2.4-8.1-5.2-16.4-7.9-24.4c-1.3-0.9-1.2-2.5-2-3.9c-0.1-4.5-1-7.8-1.3-12.5
					c-0.6-1.2-1.3-2.3-2.1-3.4c0.7-0.3,1.5,0.5,2.4,0.7C458.3,160.8,459.3,165,460.8,168"/>
				<path style="fill:#FDC56F;" d="M278,171.1c0,0.4-0.2,1-0.6,1l-1.7-0.1c0.2-0.2,0-0.3-0.1-0.3c-0.8-0.5-0.6,0.6-0.9,0.9
					c0,1.5,1.7,1.8,2.4,2.7c2,0.6,3-1.1,4.5-1.5l0.5-3.8c1.9,0.3,4.5-0.1,5.2,1.8c-0.4,1.7-0.3,3.9-2.4,4.5
					c-3.3,1.7-8.3,1.5-11.4-0.6c-1.7-1.5-3.6-2.4-3.4-4.9C272.2,169.8,276,168.6,278,171.1"/>
				<path d="M255.7,171.7c0.4,1-0.8,1.5-0.6,2.5c-2.1,0.9-6.6-1.5-8.1,2c-0.2-0.3-0.3-0.2-0.5-0.2c0.2-1.9,1.5-2.5,2.3-4
					c1.1-0.8,1.8-1.8,3.3-2.1C253.6,170.1,254.9,170.2,255.7,171.7"/>
				<path style="fill:#FDC56F;" d="M458.6,189.1c0.6,1.4,1.3,4,1.8,6.1c0.9,3.9,3.6,6.5,3.3,10.8c1.5,2.5,0.8,4,2.1,6.6
					c1.6,5.7,3.3,10.9,4.2,16.8c1.1,2.5,1.5,5.7,2.4,8.4c1.8,9.5,3.6,16.8,5.4,26.1c-0.1,3.3-1.4,5.9-1.2,9.5
					c-1.1,1-0.6,1.5-1.1,2.9c-1.5,1.7-0.6,4.7-2.8,5.4c-6-7.4-11.7-14.3-12.6-24.6c-0.6-1.4-1.2-3.8-0.9-5c-1.5-1.8-0.7-4-1.8-6.1
					c-0.2-4.6-2.5-8.3-3.3-12.7c-0.9-1.4-0.2-4.5-1.3-5.4c-1.3-9.9-5.1-18.3-7.2-28.2c1.5-3,3.8-5.9,3.9-9.5c0.9,0.2,1.2,1.8,1.4,3
					c0.8,3.9,2.7,6.7,3,10.9c1.3,4,2.5,8.4,3.3,12.4c1.5,3.2,1,6.3,2.7,9.6c0.4,3.3,1.1,6.9,2.1,10.2c1.4,4.8,2.4,10.1,3.9,14.4
					c1.2,1.5,0,4.9,1.6,5.4c-0.7-9.7-4.6-20.7-5.6-29.1c-1.1-2.7-1.8-5.1-2.4-8.5c-1.2-2.7-1.3-5.5-2.5-8.2c0.3-2.4-0.9-4.2-1.2-6.6
					c0-3.3-2.7-5.2-2-9.1c-0.7-1.2-0.9-2.6-1.3-4c0.3-1.8-2.1-3.3-0.2-4.5c0.2-1.2,1.9-1.5,1.5-3.1c1.3-0.3,0.6-1.8,1.7-2.6
					C456.5,183.1,458.3,185.8,458.6,189.1"/>
				<path style="fill:#FDC56F;" d="M119.2,219.9c0.6,0.7-1.1,1.3-0.7,2.4c-0.8,2.4-1.2,5.4-2.3,7.8c-1.8,5.1-3,11.2-4.9,16.5
					c-0.3,4.2-2.8,7.5-3.2,11.7c-1.8,1.2-1,4.1-2.7,5.6c-2.9,10.6-9,21-15.8,29.5c-0.5,0.7-1.9,1.3-2.1,2.4
					c-4,3.5-10.7,10.3-17.7,6.6l-0.1-0.1c0.6-1.5,3-0.8,3.1-2.9c1.5-0.4,1.5-2.1,2.4-3c2.6-1.7,2.7-5.4,4.5-7.4
					c6.6-18.1,9.8-35.9,14.9-54.4c1.6-2.1,0.7-6,3.2-6.9c3.9-3.9,7.6-6.2,10.2-11c2.6-4,4.7-8.7,6.3-13.2
					c-2.4,9.9-5.4,19.5-8.6,29.4c-3.6,12.2-6.7,23.1-11.8,34.5c-1.2,3.6-1.6,7.2-3.3,10.5c3.6-5,5.5-12.3,8-18.6
					c2.1-7.5,5.3-14.8,7-22.3c1.7-1.8,1-4.8,2.7-6.7c0.9-4.5,2.5-7.8,3.4-12.3c2.1-5.4,3.6-11.4,4.8-16.9c2.3-2.9,6.6-4.1,6.7-8.6
					c-0.1-3.6,4.7-1.9,6.3-4.2C126.4,198.6,122,209.4,119.2,219.9"/>
				<path style="fill:#FDC56F;" d="M232.1,193.3c2.4,0,5.7,0.4,8.2,0.4c14-1,25.8,0.3,39.6,2.4c2.4,1,5,0.3,7,2.9
					c1.7,1.2,3.3,3,5.5,3.4c-5.2-0.3-9.3-2.8-15.1-2.7c-4-1.8-9.7-0.9-14.2-2.1c-5.7-0.8-14.3,0.2-20.1-1.2
					c-1.8,0.3-4.7,0.4-6.2-0.2c-5,0-9.8-1.9-13.7-5.2C226.2,192.3,228.8,192.4,232.1,193.3"/>
				<path style="fill:#FDC56F;" d="M450,228.7c-0.3,2.1,1.5,4.2,0.9,6.2c1.3,0.9,0.9,3.1,1,4.5h0.3c1.3,3,1.2,5.4,2.2,8.2
					c-0.4,1.2,0.4,1.1,0.4,1.8c0.2,3.2,2.3,5.2,1.7,8.8l0.8,1.1c0.1,5.1,3.3,11,0.9,15.7c0.4,4.8-1.3,9.6-2.6,14
					c-0.8,0.4-0.3,2.9-2.1,1.7c-0.4-1-1.7-1.4-1.9-2.7c-5.5-4.4-8-12-10.8-18.3c-0.3-1.7-0.2-3.5-0.9-5.1
					c-1.9-8.4-2.7-17.1-4.9-25.5c0.1-3.4-2.3-6.6-1.4-9.9c2.6-3.3,2.4-7.9,3.8-11.5c1,1.6,1.5,5.7,2.5,8c0.7,3,2.5,6.1,2.1,10.1
					c1.2,1.8,1.3,4.2,1.9,6.3c0.5,3.5,2.1,6.8,2.4,10.1c0.9,1.2,0.2,3.3,1.2,4.4c0,2.9,1.2,3.5,1.5,6.2c0.6,3.7,0.8,5.2,1.9,8.7
					l0.3-0.3c-1.2-6.1-1.8-11.9-2.9-18c-2.1-6-3-12.3-4.8-18.6c0-4.2-2.3-8.4-2.3-12.3c-1.6-1.8-0.3-4.9-1.8-6.9
					c1.7-3.8,2.9-7.6,3.9-11.1C445.4,212.4,447.6,221.1,450,228.7"/>
				<path style="fill:#FDC56F;" d="M151.7,211.8c0.5,6.5-1,10.2-2.1,16c-1,3.6-2,6.9-2.6,10.8l-0.4,0.4c1,0.5-0.8,0.6,0.2,1.4
					c-1.3,0.3,0.4,1.6-0.9,2.3c-0.9,4.9-2.7,10.8-4.1,15.7c1.5-0.2,0.9-2.4,2.1-3.2c2.4-7.3,3.3-15.4,6.5-22.5c0.8-3.3,2-7,2.5-10.4
					c0.9-2.2,1.1-5.1,1.5-7.3c0.6,0.1,1.4,1.5,2.3,1.6c0.7,0.5,1.9,0.5,2.2,1.2c0,0.5,0.3,2.4-0.3,3.3c0.5,1.3-0.7,2.4-0.3,4.4H158
					c-0.6,2.8-1.3,6.3-2.3,9c0.9,3-1.8,5.1-1.1,7.8c-0.8,0.9-0.5,1.7-0.8,2.6c-0.3,4-2.4,6-2.4,10.5c-0.4,0.6-1.2,2.1-1.3,3
					c-0.4,3.2-1.2,6-3,8.9c-1.2,3.3-3,6.7-4.6,9.9c-2.6,2.1-2.8,5.4-5.6,6.5c-2.1-1.5-0.4-4.8-2.1-6.3c-0.7-7.8-2.1-18.3,0.5-25.3
					c-0.2-0.4-0.2-0.9,0.4-1.2c0.2-4.8,1.5-8.4,3-13.1c-0.4-1.6,1.3-2.2,0.8-3.7c1.2-2.4,1.7-5.5,2.7-8.2c3-7.1,3.4-14.7,6.4-21.6
					C149.5,207.1,150.7,209.1,151.7,211.8"/>
				<path style="fill:#FDC56F;" d="M495.8,220.6c1.8,1.6,5.6,2.7,5.1,5.4c1,1.9,0.9,4.2,2.2,6c-0.4,1.5,0.8,2.4,1.1,4.4
					c1.5,6,2.4,12.8,4.6,18.3c1.1,7.8,3.6,12.8,5,20.4l1.2,1.2c-0.5-4-1.5-8.7-2.4-12.6c-1-3.6-1.9-6.2-2.2-10.2
					c-2.9-7.7-3-15.3-5-22.2c-0.4-2.1-1-3.9-1.8-6.2c1.2,0.2,3.3,0.3,4.8,0.8c0.8,3.9,1.8,7.5,2.4,11.1c-0.2,1.9,0.5,3.3,0.9,5.1
					c1.2,6.3,3,11.1,3.9,17.3c0.6,0.6,0.8,1.5,0.6,2.4c1.7,6.5,3.9,12.6,5.9,18.7c1.5,1.1,0.6,3.6,2.1,4.8c0.8,0.9,0.6,3.3,2.3,3.9
					c-0.2,1,1.5,1.7,1.5,2.5c1.9,1.9,3.9,3.6,6.7,4.2c-2,1.8-4.4,2.4-7,2.3c-2.3,0.4-5-0.3-6.2-1.8c-2.2,0.6-1.9-2-3.6-2.3
					c-1.5-1.6-4.2-3.6-5-6.4c-1.2-0.6-1.4-1.8-2.4-2.7c0.3-2.1-2.2-2.5-1.8-4.8c-1.1-1.8-2.3-2.9-2.4-4.9c-1.2-0.6-0.5-2.3-1.2-3.2
					c-1.8-7.5-4.4-14.4-6.2-21.6c0.3-1.8-0.4-3.3-0.9-4.7c-0.9-1.4-1.2-3.1-1.8-4.9c-0.6-2.5-0.8-5.1-1.8-7.5
					c0.6-1.2-0.7-2.2-0.3-3.7c-1.9-5.5-2.7-9.6-4.4-15.4C491.6,216.3,494.1,218,495.8,220.6"/>
				<path d="M335,234.9c-4.3-3.5-6.5-9-11-12c-0.3-0.6-1.3-1.5-0.6-2.1C328.4,224.4,332.4,229.1,335,234.9"/>
				<path style="fill:#FDC56F;" d="M346.8,227.4c2,3.8,3,8,4.2,12c-0.4,0.3-0.2,1.3,0.2,1.7c0.3,3.1-0.6,5.7-0.3,8.9
					c-0.3,0.6-1.4,0.3-0.9,1.2c-2.7-0.6-5.4-2.9-7.5-4.4c2.9-7.7,0.2-16.8-4-23.3C341.6,224.1,346.1,223.4,346.8,227.4"/>
				<path style="fill:#FDC56F;" d="M166.4,231.9c0,4.4-2.1,9.6-1.8,14.5c-1,1.9-1,3.7-1.5,5.9l-0.6,0.4l0.6,0.3
					c-2,5.7-1.8,11.5-3.8,17.7c0.4,1.3-1.6,3.5-0.4,4.5c1-3.8,2.4-7.2,3.2-10.9c-0.3-2.7,2-3.9,1.3-6.8c1.8-5.2,2.4-9.6,3.6-15.3
					c1.6-2.5,0.8-7,2.3-9.7c0,4.2,2.7,6,3,9.7c-1.8,5.5-1.2,11.1-3.8,16c-0.7,2.1,0.3,3.5-0.7,5.6c-0.5,4.5-1.1,8.5-2.8,12.1
					c0.7,3.8-2.9,6.3-3.6,9.6c-1.2,2.1-2.6,3.9-4.4,5.4c-1.6-2.6-3.2-6-3.6-9.6c-0.6-0.8-0.5-2.6-1.3-3.3c0-3.1-0.2-5.7-0.6-8.4
					c0.9-8.5,3.9-18.6,5.1-27c0.9-6,3.2-11.9,4.2-17.4C162.5,227.7,164.5,230.1,166.4,231.9"/>
				<path d="M312.2,231.4c0.6,4.8,1.8,11.1,0.3,15.4c0.6-5.9-1.6-10.4-2.1-16.2l0.4-0.9L312.2,231.4"/>
				<path style="fill:#FDC56F;" d="M431,232.8c1.9,12.6,5.3,23.2,6.7,35.7c1.6,3.8,1.2,7.8,2.4,11.1c0.6,4.1,0.6,8.4-0.8,12
					c0,3.6-1.8,7.2-3.4,10.1c-1-0.3-1-1.7-2.1-2.3c-2.8-4.6-6.1-9.5-7.6-14.9c-2.3-12.6-4.7-21.5-6.9-33.7c1.9-1.7,3.8-3.3,4.9-5.1
					c1.4,0.1,1,2.1,1.4,2.8c1.5,9,4,16.7,6,25.1c0.2,5.1,2.8,9,2.5,14.4c0.2,0,0.3,0.1,0.5,0.1c0.3-7.5-2-13.2-3-20.1
					c-0.4-1.8-0.4-3.6-0.6-5.5c-2-4.4-1.6-9.9-3.4-13.8c-0.2-1.5-0.2-3.2-0.6-4.7c-2.2-1.7,1.7-2.9,1.1-5
					C429.4,237.1,429.2,234.1,431,232.8"/>
				<path style="fill:#FDC56F;" d="M345.1,255.1c-1.4-3.8-3.9-7-7.3-8.5c-0.3-0.4-1.2,0.2-1-0.8c-2.1-0.3-3.2-2.1-4.8-2.8
					c0.7,0.9,0.4,2.6,1.8,2.8c0.9,3.2,2.5,5.7,3.7,8.6c-0.2,1.2,0,0.9,0,0.9l-1.5-0.2c-1.8-4.8-4-7.5-6.4-12.3
					c-2.4-2.1-3-6.3-6.5-7.6c1.4,6.3,1.1,13.5-3.3,17.9c-0.6,1-0.7,1.5-1.5,2.1l-0.2,0.3l-11.8-0.3c1.3-6.1-1.7-8.7-2.6-14.2
					c-0.7,5.3-3.1,9.6-4.5,14.4c-1.7-0.3,0.1-1-0.6-1.6c1.3-3.5,2.4-7.6,3.2-11.7c-2.3,2-3.6,5.1-6.8,6.2c-2.8,2.3-6.1,2.8-9.6,4.6
					c-5-0.1-4.1,1.9-6.6,2.4c-1.5,0.2,0,0,0,0H276c0,0-0.2,0.3,0,0c0,0,0,0,1.7-1.2h-1.5c-1-0.6-3.5,0.7-3.3-1.2
					c0.6-2.8,2.3-6.6,3.4-9.1c-1.2,0.6-2.5,0.8-2.9,2c-0.3,0-0.4,0-0.6-0.2c-2.6,1.4-6.2,1.9-8.9,3c4.5-2.8,10.5-5,14.4-8.8
					l-4.9-0.2l-0.4,0.3c-0.9-1.2-2.3,0.2-3.2-0.3c-1.8,1.3-3.9,0.9-5.7,2.5c-5,1.2-8.1,6-10.8,10.1c2.4,1.7,5.3,3.5,8.1,2.7
					c1.9,0.2,4.3-1.2,5.3,0.3L345.1,255.1"/>
				<path style="fill:#FDC56F;" d="M176,245.5c1.5,1.5,4.8,3.3,3.9,5.4c0,5.7-0.7,13.4-1.5,18.5c-1.6,0.6,0.2,1.8-0.3,2.5
					c-0.6,5.4-1.9,9.6-2.4,15l0.3-0.2c0.3-4,2.3-7.8,2.5-11.5l0.8-0.5c-1-5.4,2.6-7.9,2-13.2c0.7-3.2,1.5-7.1,1.5-10.3l1.7,5.4
					l2.8,3.8c0.2,4.2-0.9,8.2-1.5,12.3c-0.3,0-0.3,0.3-0.5,0.3c0.8,2.1-1,4.2-0.7,6h0.2c-1.8,0.9,1.3,2.1-0.8,2.9l0.5,0.9
					c-0.6,2.4-0.3,5.1-1.7,7c-0.3,1.3-0.2,4.1-0.9,5.4c-1.2,1.2-1,3.6-3.2,4.2c-0.4,1.5-1.7,2.9-2.7,4.5c-0.6-0.2-1.2,1.4-1.8,0.3
					c-1-0.9-1.3-3.3-2.8-4.2c-2.1-2.2-1.4-5.7-3-8.1c-2.9-11.4,1.6-23.8,3.6-34.8h0.2c0.6-4,1.2-9.1,2.5-13
					C175.3,244.3,176.6,244.3,176,245.5"/>
				<path style="fill:#FDC56F;" d="M418.7,260.8c-0.5,1.8,1.7,2.4,0.3,4.1c1.4,5,2.5,11.9,3.3,17.1c0.2,1.2,0.9,3,1.1,4.4
					c0.7,4,0.7,9.6,0.7,13.9c-1.2,2.9-1.8,6.5-3.6,9.3c-4.5-3.3-8.1-7.8-10.7-12.6c-0.7-4.2-1-8.7-2.7-12.6c0.3-3.4-2.2-5.9-2.1-9.6
					c2.1-2.4,4.2-4.5,5-7.8c1.3,1.3,1.2,4.2,1.6,6c1.4,6.8,2.3,13.7,4.2,20.6h0.3c0.4-4.1-1.5-7.5-0.9-11.6
					c-0.9-6.3-2.6-13.2-2.7-19c0.9-1.5,2.8-2.9,3.4-4.4c0.3-0.3,1-0.8,0.6-1.3c0.3-0.2,0.6-0.8,1.1-0.2
					C417.5,258.4,418.5,259.6,418.7,260.8"/>
				<path style="fill:#FDC56F;" d="M112.7,259.8c1,5.7,0.6,11.7,2.5,17.5c-1.3,2.1-1,5.1-2.4,7.2c-0.6,5-1.2,10.9-3.1,15.3l-0.3,2.4
					c-0.1-0.2-0.3,0.1-0.4,0.3c-1.2,7-3.3,14-5,20.8c-0.7,1.9-0.6,4.2-1.9,5.9c-0.9,4.8-2.1,9.5-3.8,13.9c-0.1,3.5-1.7,6.5-3,9.3
					c-0.4,1.5-1,3-1.8,4.2c0.3,0.9-0.6,2.7-1.2,3.6c-3.6,8.3-8.8,18-18.6,20.6c-4.8,3.2-11.1,2.1-16,4.4c3.3-5.9,9.4-10.4,12.1-16.5
					c0.2-1.4,1.5-1.8,1.2-3.3c1.2-0.6,0.3-2.4,1.3-3.3c2-7.1,4.8-13.5,6-20.7c0.3-1.1,0.9-2.5,0.9-4h0.3c0.8-2.6,0.6-4.8,2.3-6.9
					c-0.6-1.6,0.7-3.6,0.9-5.5c1.3-4.1,2.4-8,3.2-12.4c1.3-4.4,2.5-8.7,3.6-13.1c1.5-3.6,4.2-6.6,6.5-9.9c4.5-7.5,9-15,12-23.2
					c-0.6,4.2-2.5,9.3-3.3,13.8l-0.8,0.5c0.9,1.8-1.2,4.6-1,7.2l-0.3,0.3c0.9,1-0.9,2.1-0.6,3.7c-1.5,3.9-1.9,8.2-3.7,12.2
					c-1.5,7.2-3.8,14.5-5.3,21.6c-1.8,1.2-0.3,4.9-2,6c0.5,1.9-1,3.6-0.7,5.7c-1.3,1.3-1.2,3.6-2.1,5.4c-0.2,0.5,0.2,1.4-0.6,1.4
					c-1,3.5-1.9,7-2.4,10.8c0.9-0.4,1-2.4,2.1-3.1c1.2-4.2,2.3-8.4,3.3-12.5c2.1-3.9,2.5-8.1,4.4-11.7c-0.3-1.8,0.4-4.7,0.9-6.5
					c2.5-5.7,2.5-9.9,4.6-15.7c-0.1-3,1.9-6.9,1.8-10c1.3-1,1.2-4,1.8-5.8c1.5-2.4,0.9-5.8,2.5-7.8c1.2-5.5,2.3-10.6,3.7-15.4
					c1.4-0.6,0.5-2.4,1.5-3.3C111.1,262,112.4,260.5,112.7,259.8"/>
				<path style="fill:#FDC56F;" d="M126.8,277c-0.9,2.7-0.3,6.7-2.1,9.1c-0.2,0.6,0.4,1.5-0.4,1.7c0.3,2.1-0.5,5.1-0.8,7
					c-0.3,0.9,0,2.3-0.9,3c0,1.8,0,4.1-0.8,5.7c1.3,0.8-0.9,1.5-0.2,2.4c-0.8,7.4-2.7,15-4.2,20.8c1,2.8-0.9,5.9-1.8,8.7
					c0.4,0.6,0.4,1.3,0.4,2.1c-1.2,1.2-0.6,2.6-1.3,4.1c0.4,4.4-2,7.5-2.1,11.7c-2.1,1,0.5,3.3-1.5,4.6c-0.3,2.4-0.5,4.9-1.8,6.6
					c1.1,1.9-1.3,3.8-0.9,6.3c-0.6,4.5-2.3,8-2.8,12.8c-0.6,0.6-0.2,1.5-0.3,2.2c0.8,0.5,0.8-0.9,1.2-1c0.5-3.8,1.8-6.1,2.5-10.2
					c1.1-3.9,1.8-7,3-10.8c-0.6-2,1.1-3.8,0.9-6.3c1.2-3.4,1.4-8,2.7-10.8c-1.5-0.9,1.5-1.4,0-2.3c0.7-1.8,0.9-3.3,1.5-5.1
					c-0.9-2.7,1.5-4.8,1.5-7.6c0.3-0.5,0.3-0.9,0-1.4c0.9-1.8,0.2-5.1,1.9-6.7c-0.1-2.3,0.8-4.8,0.8-7c1.7-4.1,0.9-8.5,2.9-12.2
					c-1.1-0.6,0.3-1.2,0.2-2.1c-0.3-2.7,1-4.5,1-7.4c0.7-5.1,1.8-9.9,3.2-14.8c0.4-2.9,1.6-7.5,1.9-10.1c1.1,3.2,0,7.7,2.1,10.5
					c-0.2,2.5,1.8,4.2,1.8,6.6c-0.6,3-0.9,7-1.8,9.8c-0.9,7.2-3.3,13.2-3.8,19.9c-1.2,5-2.2,11.4-3.3,16.4c-0.8,1.6,0.4,3.8-1.2,4.8
					c-0.5,11.2-3.8,21-5.5,32.5c-1.7,8.9-5.3,18.9-8,26.5c-1.5,2.8-2.5,6.2-4.5,8.7c0,1.8-1.3,3-1.7,4.5c-1.5,2-3.3,4.7-4.6,6.6
					c-1.8,3.2-4.8,6.3-7.9,8.6c-3.2,3.5-8.7,4.8-12.8,6.8c-1.2,0.9-2.4,1.3-3.6,2.4c-2.4,0.7-3.9,2.5-5.7,4.2
					c0-5.7,5.7-10.4,8.7-15.6c1.4-1.5,2.1-3.1,3.4-5.1c1.1-1.3,1.8-2.7,2.3-4.4c1.6-3.1,2.5-6.9,4.2-10.3c-0.3-2.1,1.2-4.4,1.4-6.6
					h0.3c0.6-2.9,1-5.5,2.4-8.1c0.5-5.7,2.5-10,3-16c0-0.8,0-2.1,0.7-2.9c0.8-7,2.6-13.9,4.7-20.8c1.5-6.8,2.9-13.3,5-20
					c1.1-1,0-2.8,0.9-3.9c1.5-3.4,2.1-7.5,2.9-11.2c0.3-0.7,0.8-2.2,1.2-3.1c0.3-3.6,2.4-6.8,2.4-10.5c0.9-3.6,1.7-6.6,2.8-9.9
					c-0.4-2.3,0.6-3.9,1.2-5.4l-0.3-0.9c1.2-2.1,0.3-5.4,2.4-6.8l0.2-1c3.1-3.8,5.9-7,8.9-10.7C128.8,269.9,127.4,273.3,126.8,277"
					/>
				<path style="fill:#FDC56F;" d="M504.2,283.7c0.4,2.7,1.3,5.4,1.2,8.1c1.1,2.2,1.1,4.8,1.5,7c0.9,4.2,1.9,8.4,2.5,12.6l0.3,0.5
					c-0.6,0.4,0.2,0.7,0.4,1.3c2.7,15.7,5.1,29.7,9,44.7c-0.7-15-6.5-29.7-7.7-44.8c-1-2.7-0.6-6.2-1.8-8.7
					c-0.3-6.3-2.1-12.3-2.7-18.9l-0.3-0.9h0.2l-0.3-1.3c0.6,1.2,2,2.5,2.3,4c1.3,1.3,2.5,3.2,3.2,5.3c2.7,2.6,5.1,5,4.8,9.5
					c1.5,14.7,4.6,28.5,7.3,42.4c0.4,2.7,1.3,5.1,1.6,7.5c0.8,1.6,1,4.3,2.1,6c-0.8,1.7,1.4,2.7,0.7,4.5c1.7,1.2,0.5,4.2,2.3,5.7
					l-0.4,0.7c2.7,4.2,3.9,10.2,8,13.7c1.2,0.3,0.7,1.6,1.8,1.9c0.8,1.2,2.1,1.2,2.4,2.5c-1.4,0.2-2.1-0.3-3.4-0.4
					c-6-0.9-11.9-4.5-17-7.6c-0.8-1.9-2.7-1.9-4.2-3.4c-5.5-6.5-12.3-13-12.9-22.8c-2.7-14.8-3.9-26.4-5.7-41.3
					c-1.5-8.6-1.5-18-3.5-26.9c1.5,0.2-0.2-1.8,1.3-1.9c1.2-2.4,1.4-5.4,2.7-7.1c0.4-2.1,0.8-4.8,0.6-6.9
					C502.8,272.9,503.6,278.4,504.2,283.7"/>
				<path style="fill:#FDC56F;" d="M493.1,283.5c1.2,5.2,1,11.7,2.1,17.1l0.3,0.2c0.9,21.3,5.1,42.7,7.6,63
					c-1.2,0.9,0.3,2.1,0.3,3.1c0.9,7.5,1.7,12.9,2.8,20c-0.5,1.2,0.9,3,0.9,4.6l3.5,14.1c3.2,9.7,6.4,19.2,14.1,26.7
					c3.4,4.5,9.1,8.4,11.6,13.9c-6.3-4-13.5-5.4-20.1-9c-2.5-2.1-6.2-2.8-7.8-5.9c-1.2,0.6-0.9-0.9-1.5-1.2
					c-1.5-0.8-2.1-2.1-3.8-2.9c-3.1-3.6-6.3-6.5-7.8-10.7c-7.8-11.8-12.1-24.9-12.9-39.9c-1.5-3.9-0.9-7.9-1.8-11.7
					c-1.2-6.1-0.6-12.4-2.2-17.8c-0.9-5.1-0.2-11.3-1.4-16.4c-1.1-0.9-0.2-2.1-0.9-3.1c-1.8-13.7-3-28.1-4.9-41.4
					c1.4-1,2.4,1.9,3.9,0.9c1.5-3.7,4.4-7,5-11.1c1.5,3.3,0.8,7,2,10.6c0.4,5.4,1.2,10.4,2.2,15.8c1.6,7.5,1.9,16,3.2,23.8
					c0.2,4.1,1.4,7.1,1.2,11.2c0.6,0.5,0.4,1.5,0.3,2l0.6,5.3c-0.3,0.6-0.5,1,0.3,1.3c0.9,10.5,1.7,21.2,2.9,31.7
					c0.1,3.3,0.3,7.6,1.4,10.8l0.1,4.4h0.8c0.6-2.7-0.6-3.6-0.4-6.2c1.3-0.3-0.3-0.9,0-1.6c-0.4-10.8-1.2-20.9-2.1-32.1l-0.6-0.9
					c-1.5-11.7-2.4-22.9-3.4-34.8l-0.5-0.8c0-1,0.6-2.5,0.2-3.3c0-0.8-0.9-1.7-0.3-2.7c-2.1-7.8-1.3-17.9-3.3-25.5
					c0.2-1.8-0.2-4-0.6-5.5c0.3-2.3-0.9-5.7-1-7.8C486,275.8,489.3,279.7,493.1,283.5"/>
				<path style="fill:#FDC56F;" d="M467,282l0.4,0.6l0.8,8.1c1,1.2-0.2,2.3,0.9,3.5h-0.1l0.8,4.8h-0.3c0.3,2.9,0.2,6.2,1.5,8.5
					l-0.3,0.3c2.3,16.2,3.3,33.7,6,48.9c0.3,2,0,3.9,0.6,5.9c-0.2,0.2-0.6,0.4-0.2,0.7l0.3,0.3c1.4,13.5,3,27.4,4.2,40.3h-0.2
					c0.7,6,1,12.6,2.4,18.8c0.3,1-0.9,2,0.4,2.7c0.3,8.2,1.8,15.4,3.6,23.4c0.9,3.4,3,6.5,3.7,10.2c1.4,0.3,0.3,1.8,0.9,2.5
					c1.9,1.3,1.3,3.7,2.8,4.9c0,1.7,2.1,2.5,1.8,4.1c-8.7-4.4-14.3-12.2-20.7-18.6c0.3-1.1-0.8-1.3-1.2-1.8
					c-0.9-1.8-2.7-2.7-2.8-4.9c-0.9-1.3-2-2.4-2.5-4.1c0-0.7-1.7-1.6-0.8-2.2c-1.2-0.6-1.2-2.3-2.1-3c0.6-3-2.7-3.9-2.1-6.9
					c-1-2-1.2-4.4-2.1-6.6c-0.3-6.8-3.6-11.3-3.5-18.3c-2.1-13.1-5.8-25.6-7.2-38.8c0.7-10.2-2-18.2-2.6-27.9
					c0.9-0.5-0.2-0.9-0.2-1.4c-0.7-4.5-0.1-9.9-1.6-13.9l0.4-0.5c-1.2-7.2-0.6-15.6-2.5-23.1c-0.5-5.1-0.6-8.4-1.2-13.5
					c1.7,4.3,6.1,7.9,10.2,10.8c0.4,0.3,1.2,0,1.8,0.2c-0.2-0.9,0.9-1.3,1.5-1.8c2.1,6.6,1.7,15.4,3,21.9c0.5,0.8,0.6,2.4,0.6,3.7
					h-0.3c0.5,7.8,1.9,17.3,3,25.8l-0.5,0.3c1.5,10.1,2.2,19.7,3.3,29.3c1.2,3.3,0.4,7.8,1.3,11.2c1,9.6,2.1,18.1,4,26.8
					c0-5.2-0.9-9.1-0.9-14.2c-0.3-5-1.5-9.3-1.3-13.9c-2-18.9-4.8-37.6-5.9-56.5c-1.5-3.2-0.4-7.8-1.8-11.4
					c-0.8-9.3-1.2-18.9-3.2-28.2c1.8-4.8,2.6-8.9,3-14.1C463.8,276.9,466.8,279.1,467,282"/>
				<path style="fill:#FDC56F;" d="M144.8,299.1c-0.5,1.9-0.6,4.3-1.3,6c-1.2,11.2-3.6,22.5-5.2,33.4c-1.1,0.6-0.5,2.1-0.6,2.9
					c-0.6,1.8-0.4,4.4-0.9,5.9c-1.9,2.8-1.7,7-2.4,10.2c-0.2,6-2.3,12.3-3,18c-0.2,5.2-1.8,8.7-2.3,13.9h-0.2
					c-0.3,4.4-2.1,8.1-2.4,12.7c-0.9,1.5-0.3,3.6-1,5.5l0.4,0.3c1.6-2.1,1.5-5.5,2.3-8.4c1.3-6,3-11.6,4.2-17.9
					c-1.2-1.4,0.7-2.1,0.3-3.6l0.6-4.5l0.5-0.3l0.7-7.4l0.8-0.9c-0.3-5.2,2.5-9.4,2.5-15.3c0.6-0.6,0.5-1.5,0.5-2.3
					c0.3,0.2,0.5-0.1,0.6-0.3c-0.3-4.7,2.1-10.2,2.1-14.9c1.2-6.7,2.9-12.1,3.6-18.6c1-1.2,0.3-3.3,0.9-4.8
					c1.5-8.1,2.2-16.8,4.2-25.5c1,0,0.3,1.3,0.7,1.8c1.5,5.2,6.8,9.6,4.5,16.3c-1.2,5.1-1.2,10.7-2.8,15.4c0.3,5.1-1.2,7.8-1.7,12.4
					c-1.2,14-4.8,26.6-6,40.7l-0.4,0.4c-0.9,10.2-2.7,19.6-4,30c-0.8,4.8-2.7,8.7-2.9,13.6c-1.5,2.5-1,6.2-2.1,9
					c-0.1,0.6-1,0.3-0.7,0.9c0.4,1.5-0.8,3.3-1.1,5c-2.5,6.4-4.2,13.5-8.1,19.6c-1.2,1.1-1.3,2.9-2.7,3.9c-1.2,3-3.3,5.7-6,8.1
					c0.5,1.7-1.5,0.9-1.5,2.5c-6,5.1-12.2,8.9-19.2,12c-0.4,1.4-2.1,1.5-2.7,1.8c1.5-5.5,6-9.7,8.7-14.4c2.2-4.1,4-8.4,5.1-13.1
					c2.3-4.9,3.3-10.8,4-16.2c0.8-4.4,1.7-9,2.9-13.5c-0.4-3.4,2.3-6.3,1-8.8c1.2-4.5,2-9.6,2.9-14.6c-1.2-1,0.9-1.5,0.4-2.6
					c0-4.8,2.1-8.8,2.2-13.9c1.7-1.8,0.6-5.1,1.7-7.3c2.9-7.8,2.2-17.6,5-25.7c0-3.9,1.2-7.5,1.3-11.2c0.5-0.2,0.5-0.6,0.2-0.9
					c1.3-3.4,1.2-7.9,3-11.2c-0.6-4.5,1.8-8,1.9-12.4c0.9-2.3,0.9-5.1,1.1-7.7c0.9-0.3,0.6-2.1,0.9-3.1c0.8-2.6,1-6.2,2.1-8.5
					c-0.2-6.1,7-8.7,8.8-14.1c0.9,0,0.9-1,1.1-1.7C146.9,284.1,145.9,291.7,144.8,299.1"/>
				<polyline points="175.6,288.8 175.9,287.1 175.7,288.8 175.6,288.8 				"/>
				<path style="fill:#FDC56F;" d="M164.6,287.8c1.1,6-1.3,10.3,0,16c-1.9,0.9,0.6,2.9-0.9,4c-0.4,3.3-0.3,7.8-1.3,11.7
					c0.4,0.6,0,1.8-0.3,2.6c0.2,6.6-2.4,14-2.4,20.7l-0.3,0.2c-0.3,7.3-1.5,13.5-2.5,20.7c-0.9,10.1-1.9,20.4-2.6,30.3
					c-0.1,0.3-0.3,0.9-0.4,1.1c0,0.2-0.4,1.4,0.4,1c0.3-6.3,2.6-12,2.7-18.9l0.6-0.7c-1-0.3,0.6-0.8,0.3-1.4c-0.6-3.6,1.2-6,0.6-9.6
					c1.3-5.3,1-10.4,1.6-16.4c0.4-1.2,0.3-2.4,0.9-3.7c0.6-5.1,0.6-10.8,2.1-16.1c-1-0.9,0.8-1.5,0.2-2.5c1.5-9.1,2.1-18.3,3.6-27.3
					c2.4,2.4,2.7,6.1,6,7.9c-0.7,13-3.6,26.2-3.7,39.8c-0.7,0.2-0.3,1.5-1.2,1.9c0.1,13.1-0.6,25.2-2.1,37.7
					c-0.6,2.3-0.9,5.5-1.8,8.1c-2.9,10.2-8.5,18.9-13.8,27.3c0.3,1.5-2,2.1-2.1,3.4l-1.1,1.7c-0.6-16.1-1.9-33.7-0.2-49.5
					c-0.1-11.1,2.1-22.2,3.6-32.9c1.3-2.4,1.2-5.8,1.5-9c1.3-7.6,2.8-14.4,3.6-22.2c0.9-1.9,0.5-3.6,1.1-5.7
					c-0.2-3.8,1.5-6.5,1.2-10.2c0.4-0.3,0.3-1,0.6-1.8C161.3,293.8,161.6,289.6,164.6,287.8"/>
				<path style="fill:#FDC56F;" d="M431.3,300.7c4.4,27.3,5.1,55,10.5,83.7h0.3c0.3-2.4-0.4-5.9-0.6-8h-0.1
					c-0.7-9.2-1.8-16.4-2.7-25.3c-1.3-5.4-1-11.4-1.7-16.5c-1.5-5.1-0.4-12.2-1.5-17.8c-0.4-0.8,0.2-1.7-0.6-2.6
					c-0.8-1.7,0.7-4-0.6-5.7c1-0.4-0.3-0.6-0.2-1.4V304c0.8,0.6,1.4,1.8,2.6,1.1c3.2-2.1,3.3-5.3,5.4-8.5c1.5,15.4,3.8,30.2,4.3,45
					l0.5,0.6c0.3,11.6,2.5,22.8,1.7,35.4c0.4,0.6-1.7,1.7-0.2,2l-0.6,0.3c1.3,0.9,0,2.4,0.6,3.6c-0.3,2.7-0.2,5.2-0.8,7.9
					c0.3,0.9,0.3,2.1,0,2.9c-0.7,3.8-0.3,7.9-1.4,11.5c-0.1,2.4,1.4,4.9,0.3,7.4c-1.5-1.7-3.3-3.8-4.5-6.2c-1.8-1.9-2.4-4-3.6-6.4
					c-2.2-4.4-3-9.9-4.7-14.6c-1.9-5.1-1.3-10.2-3.3-15c-1.7-4.7-0.9-10.1-2.7-15.3c-0.1-3.3-0.9-6.1-1.4-9.5
					c-1.4-12.1-2.4-22.2-3.4-34.2c1.8-1.6,1-3.7,2.6-5.4c-0.3-1.2,0.3-2.9,0.4-4.4c0.4-2.7,0.8-6.6,0.4-8.7
					C427.7,296.5,429.5,298.9,431.3,300.7"/>
				<path style="fill:#FDC56F;" d="M183.1,305.6l0.8,0.6l-0.2,12h-0.2c-0.4,8.9-1.5,17.4-1.8,26.6c2.7-9.3,2.7-20.1,4-29.6
					c-0.5-0.3,0.2-1.3,0.2-1.8c1.8,3.1,1.9,6.6,4.8,8.9l3-1.6c1.2,5.4-1.6,8.5-1.5,13.8c-1.2,6.1-3.6,13-6,18.6l-3.5,5.7
					c-1.3-0.4-1.9-2.1-2.3-3.3c-0.7-0.5-1.3-1.9-1.8-3c-1.2-0.9-0.7-3-2.1-3.6c-2.6-8-3.7-15.2-3.3-24c0.9-5.3,1.2-10.5,1.8-16
					c3-1.8,5.8-4.7,7.5-7.4C182.8,302.8,183.5,304.5,183.1,305.6"/>
				<path style="fill:#FDC56F;" d="M419.7,313.2c1.4,8.2,3.2,17.9,0.5,27.3c-0.2,3.1-1.1,5.6-1.7,8.5c-0.7,1.4-1.6,3.1-2,4.6
					c-1.3,0.7-1.6,2.1-2.1,3.5c-4.4-5-8.2-10.7-9.1-17.9c0-4.5-1.4-8.9-0.9-13.2c-1.8-4,2.7-6.9,2.9-10.8c1.1-0.6,0.9-2.7,1.7-3.9
					c-0.5-1.8,1.7-3,0.9-4.8c1.2,0.8,0,1.8,0.8,2.9c1,3.6,0.8,8.4,1.9,12.2c1,7.9,1.5,15.8,3.1,23.7c0.5-4.7-0.1-9-0.3-13.2h-0.1
					c-0.5-8.7-1.8-16.8-3-25.3l-0.7-1.6C414.2,307.8,416.3,310.9,419.7,313.2"/>
				<polyline points="519.3,358.5 519.5,358.5 519.6,359.1 519.5,359.1 519.3,358.5 				"/>
				<polyline points="442.1,384.5 442.2,384.5 442.4,386.3 442.2,386.3 442.1,384.5 				"/>
				<polyline points="472.7,414.2 472.8,414.2 473.3,416.9 472.9,416.9 472.7,414.2 				"/>
				<path style="fill:#00B4DB;" d="M295.4,535.2c0,0,106.5-34.5,110.7-112.4l0.3-167.7h-222l0.3,167.7
					C188.9,500.8,295.4,535.2,295.4,535.2"/>
				<path style="fill:#FFFFFF;" d="M309.3,529.9l-96.4-126.6h29.9l88.3,116C331.1,519.3,323.4,523.9,309.3,529.9"/>
				<path style="fill:#FFFFFF;" d="M351.5,506.7l-78.7-103.4h28.9l68.3,88.6C370,491.9,364,498.1,351.5,506.7"/>
				<path style="fill:#FFFFFF;" d="M386.4,474l-53.8-70.7h29.9l36.8,48.4C399.4,451.7,396.8,460.1,386.4,474"/>
				<line style="fill:none;stroke:#000000;stroke-width:2.12;" x1="184.7" y1="375.1" x2="406.7" y2="375.1"/>
				<path style="fill:#FDC56F;" d="M202.6,391.7v-2c1.8-0.1,2.8-0.2,3.1-0.4c0.2-0.1,0.4-0.2,0.5-0.3c0.2-0.2,0.2-0.5,0.3-0.9
					c0.1-0.9,0.2-2.8,0.3-5.9c0.1-1.4,0.1-3.9,0.1-7.5c0-3.2,0-6-0.1-8.4c0-2.4-0.1-3.9-0.3-4.4c-0.1-0.3-0.2-0.4-0.3-0.5
					c-0.1-0.1-0.4-0.2-0.8-0.3c-1-0.2-1.9-0.3-2.8-0.3v-2c3.2,0.1,5.4,0.1,6.7,0.1c1.6,0,3.2-0.1,4.9-0.1l2,4.6l1.7,3.5l7.5,15.3
					c1.6-3.1,2.8-5.4,3.6-7.2l3.1-6.5c1.7-3.6,2.7-5.9,3.2-6.7c0.4-0.9,0.8-1.9,1.3-3.2c2,0.1,3.3,0.2,3.9,0.2l6.9-0.2v2H247
					c-1.6,0-2.6,0.2-3,0.6c-0.4,0.4-0.6,1.1-0.6,2.2c0,1.3,0,2.3,0,3l-0.1,6.6v8.2c0,2,0,3.2,0,3.5c0.1,2,0.2,3.2,0.3,3.7
					c0.1,0.2,0.2,0.4,0.3,0.5c0.1,0.1,0.3,0.2,0.5,0.3c0.2,0.1,1.2,0.2,2.9,0.3v2l-7.5-0.2l-7.3,0.2v-2c1.9-0.1,3-0.2,3.3-0.3
					c0.3-0.2,0.5-0.5,0.6-1.1c0.1-0.5,0.2-2.5,0.2-5.8v-17l-5.4,11l-2.6,5.5c-0.7,1.4-1.7,3.5-2.9,6.2c-0.8,1.7-1.3,3-1.8,4h-1.6
					c-0.6-1.3-1.4-3.1-2.4-5.4c-1.8-3.9-3.2-6.8-4.1-8.7l-6.1-12.6v11.5c0,1.9,0,4.2,0.1,6.9c0.1,2.6,0.1,4.1,0.2,4.5
					c0.1,0.4,0.2,0.6,0.3,0.8c0.1,0.2,0.4,0.3,0.7,0.4c0.3,0.1,1.3,0.2,2.8,0.3v2c-1.8-0.1-3.5-0.2-5.3-0.2
					C205.9,391.6,204,391.6,202.6,391.7"/>
				<path style="fill:#FDC56F;" d="M254.8,384.9c1,0,1.9,0.4,2.6,1c0.7,0.7,1.1,1.6,1.1,2.6c0,1-0.4,1.9-1.1,2.6
					c-0.7,0.7-1.6,1.1-2.6,1.1c-1,0-1.9-0.4-2.6-1.1c-0.7-0.7-1.1-1.6-1.1-2.6c0-1,0.3-1.9,1.1-2.6
					C253,385.3,253.8,384.9,254.8,384.9"/>
				<path style="fill:#FDC56F;" d="M291.6,387.3l0.6,0.5l-1.1,2.4c-2,1-3.7,1.7-5.2,2.1c-1.6,0.4-3.5,0.6-5.9,0.6
					c-3.3,0-6.2-0.5-8.8-1.6c-2-0.9-3.7-2-5.1-3.4c-1.3-1.4-2.4-2.9-3.2-4.5c-1.2-2.4-1.7-5.1-1.7-8c0-5,1.7-8.9,5.1-12.1
					c3.4-3.1,8.1-4.7,14.3-4.7c2.1,0,4,0.2,5.7,0.5c1.7,0.3,3.6,0.9,5.8,1.7l0.1,0.3c-0.3,0.8-0.4,1.7-0.6,2.8
					c-0.3,1.8-0.4,3.4-0.5,4.9h-1.8c-0.1-1.7-0.1-3.1-0.3-4.1c-1-1.1-2.2-1.9-3.5-2.4c-1.3-0.5-3-0.8-5-0.8c-3.7,0-6.6,1.1-8.8,3.5
					c-2.2,2.3-3.3,5.5-3.3,9.7c0,2.5,0.4,4.7,1.1,6.6c0.8,1.9,1.7,3.4,3,4.6c1.2,1.2,2.4,2.1,3.7,2.7c1.7,0.8,3.8,1.1,6.2,1.1
					c1.6,0,3.1-0.2,4.5-0.6C288.4,388.8,290,388.2,291.6,387.3"/>
				<path style="fill:#FDC56F;" d="M299.1,384.9c1,0,1.9,0.4,2.6,1c0.7,0.7,1.1,1.6,1.1,2.6c0,1-0.3,1.9-1.1,2.6
					c-0.7,0.7-1.6,1.1-2.6,1.1c-1,0-1.9-0.4-2.6-1.1c-0.7-0.7-1.1-1.6-1.1-2.6c0-1,0.4-1.9,1.1-2.6
					C297.2,385.3,298.1,384.9,299.1,384.9"/>
				<path style="fill:#FDC56F;" d="M327.9,380.3H326c-0.1-1.9-0.2-3.1-0.4-3.5c-0.1-0.2-0.4-0.3-0.8-0.4c-1.2-0.2-3-0.3-5.5-0.3
					c-0.4,0-1,0.1-1.9,0.1v2.6c0,3.7,0.1,6.3,0.1,7.8c0.1,1.5,0.2,2.4,0.4,2.6c0.1,0.2,0.3,0.3,0.6,0.4c0.3,0.1,1.5,0.2,3.7,0.4v1.8
					l-9.2-0.2c-1.3,0-3.4,0.1-6.3,0.2v-1.9c1.8,0,2.8-0.1,3.1-0.2c0.2,0,0.3-0.1,0.4-0.3c0.1-0.2,0.2-0.6,0.3-1.2
					c0.1-0.4,0.1-1.5,0.2-3.4c0.1-1.9,0.1-3.3,0.1-4.1v-9.7c0-0.2-0.1-2.4-0.2-6.6c0-1.2-0.1-2-0.2-2.5c-0.1-0.2-0.1-0.3-0.2-0.4
					c-0.1-0.1-0.4-0.2-0.7-0.2c-0.4-0.1-1.2-0.2-2.7-0.3v-2l8.3,0.1l11.2-0.2c1.6,0,3.1,0.1,4.5,0.2l0.2,0.3
					c-0.2,0.9-0.3,2.1-0.4,3.4c-0.1,1.4-0.2,2.6-0.2,3.6h-1.9c0-0.4-0.1-1.2-0.1-2.5c0-0.7-0.1-1.1-0.2-1.2
					c-0.1-0.1-0.1-0.2-0.2-0.3c-0.3-0.2-0.9-0.4-2-0.5c-1-0.2-2.2-0.3-3.6-0.3c-0.3,0-1,0.1-2.2,0.1c-1.2,0.1-2,0.1-2.5,0.1
					c-0.2,1.6-0.3,4.4-0.3,8.5v3.3c2,0.1,3.4,0.1,4.1,0.1c2,0,3.3-0.1,3.8-0.3c0.2-0.1,0.4-0.2,0.5-0.5c0.1-0.4,0.2-1.3,0.3-2.7h2
					C327.9,372.8,327.9,376.2,327.9,380.3"/>
				<path style="fill:#FDC56F;" d="M337.8,384.9c1,0,1.9,0.4,2.6,1c0.7,0.7,1.1,1.6,1.1,2.6c0,1-0.4,1.9-1.1,2.6
					c-0.7,0.7-1.6,1.1-2.6,1.1c-1,0-1.9-0.4-2.6-1.1c-0.7-0.7-1.1-1.6-1.1-2.6c0-1,0.3-1.9,1.1-2.6
					C335.9,385.3,336.7,384.9,337.8,384.9"/>
				<path style="fill:#FDC56F;" d="M376.6,387l0.6,0.5l-1.1,2.4c-2,1-3.7,1.7-5.2,2.1c-1.6,0.4-3.5,0.6-5.9,0.6
					c-3.3,0-6.2-0.5-8.8-1.6c-2-0.9-3.7-2-5.1-3.3c-1.4-1.4-2.4-2.9-3.2-4.5c-1.1-2.5-1.7-5.1-1.7-8c0-4.9,1.7-8.9,5.1-12
					c3.4-3.1,8.1-4.7,14.3-4.7c2.1,0,4,0.2,5.7,0.4c1.7,0.3,3.6,0.9,5.8,1.7l0.1,0.3c-0.2,0.7-0.4,1.7-0.6,2.8
					c-0.2,1.8-0.4,3.4-0.4,4.9h-1.8c-0.1-1.7-0.2-3.1-0.3-4.1c-1-1.1-2.2-1.9-3.5-2.4c-1.3-0.6-3-0.8-5-0.8c-3.6,0-6.6,1.2-8.8,3.5
					c-2.2,2.3-3.3,5.6-3.3,9.7c0,2.5,0.4,4.7,1.1,6.6c0.8,1.9,1.8,3.4,3,4.7c1.2,1.2,2.5,2.1,3.8,2.7c1.7,0.7,3.8,1.1,6.2,1.1
					c1.6,0,3.1-0.2,4.5-0.5C373.4,388.5,375,387.8,376.6,387"/>
				<path style="fill:#FDC56F;" d="M384.4,384.9c1,0,1.9,0.4,2.6,1c0.7,0.7,1.1,1.6,1.1,2.6c0,1-0.4,1.9-1.1,2.6
					c-0.7,0.7-1.6,1.1-2.6,1.1c-1,0-1.9-0.4-2.6-1.1c-0.7-0.7-1.1-1.6-1.1-2.6c0-1,0.4-1.9,1.1-2.6
					C382.5,385.3,383.4,384.9,384.4,384.9"/>
				<path style="fill:#FDC56F;" d="M303,263.2c0,3.5,0.2,6.9,0.1,10.4c3.8,0.1,7.4,0.5,10.6,1.5l3,10.1c-3.7-1.7-9.2-3-13.2-0.9
					c-0.3,0.3-0.1,0.7-0.2,1c5.6,0.1,11,0.6,15.8,2.2l4.1,14.3c-5.4-2.4-13.9-4.5-19.5-1c-0.4,0.2-0.2,0.6-0.2,0.9
					c6.7,0.1,13.3,0.9,19.1,2.8l5.1,17.9c-6.7-3-16.7-5.5-23.9-1.5l-0.1,2.2l26,0.4l0.2-0.5l0.4-43.1h1v0.8c2.1-0.3,4.9-1.1,6.8,0.2
					c1.2,0.8,2,2.3,3.7,2.5c1.9,0.2,3.8-0.1,5.6-0.4c-2.7,1.2-5.4,3.6-8.9,2.6c-1.3-0.7-2.6-1.5-4.3-1.5c-0.9,0.2-1.9,0.3-2.7,0.7
					l0.1,5.3c1.7,0.7,3.8,1.1,5.8,1.5c7.4,1.5,15.8,0.5,21.9-2.3c-5.9,8.6-4.9,21.1,1.3,29.3l1.4,0.5l-8.6,12.5
					c4.5,0.9,10.8,3.7,14.8,0.1c2.7-2.3,6.6-3.4,10.4-2.5l-1,1.9c-4.6-0.6-8.2,1.6-11.4,4c-6.6,1.5-11.8-2-18.2-2
					c-6.2-0.8-10.2,2.4-15.6,3.1c-6.8,0.7-11.8-3.8-18.7-2.3c-4.7,1.1-8.9,3.8-14.3,2.6c-4.3-1.5-8.4-3.6-13.7-2.9
					c-4.2,0.5-7.9,1.8-12.1,2.5c-8.2,0.4-15.2-5.5-23.4-1.8c-4.2,2.5-10.9,2.8-15.8,1.2c-3.6-0.7-6.6-3.3-10.7-2.4l-8.5,2l-1-1.9
					l10.8-2.4c3.5,0.1,6,2,9.2,2.6c2.9,0.8,6.1,1.4,9.4,0.9c-4-3.9-8.2-7.8-12.5-11.8l-25.1-10.7l0.4-0.9l25.3,9.5
					c2.2,0.3,4.6,0.5,6.8,0.9l-0.4-0.5l-13.4-11.9c3.4-9.2,15.4-17.7,27.4-19.9c2.7-0.5,5.9-0.7,8.9-0.5l3.1,2.3
					c0.2-2.4,0.1-5,0.1-7.4c-1.5-0.7-3.6-1-5.2-0.4c-1.3,0.6-2.5,1.6-4.3,1.3c-2.6-0.2-4.4-1.8-6.6-2.7c1.9,0.2,4.9,0.8,6.9-0.2
					c1.5-1.6,3.3-3.1,6-2.7l3.1,0.5l0.1-1l1-0.1l0.4,15.9v0.2c2.3,0.3,4.4,1,6.3,2.1l2.5,8.6c-2.6-1.4-5.5-2.3-8.7-2.5v1.6
					c3.4,0.4,6.5,1.2,9.2,2.8l3.1,11.1c-3.5-2-7.5-3.1-11.9-3.4l0.1,8.3l0.6,0.1l33.6,0.5c0.2-0.6,0.1-1.4,0.1-2.1
					c-7-4.3-17.2-1.6-23.9,1.3l6.6-17.9c5.5-1.6,11.4-2.4,17.6-2.7l0.1-1.3c-5.6-3.1-13.5-1-18.7,1.3l5.2-14.3
					c4.3-1.2,8.9-1.9,13.6-2.1c0.1-0.4,0.3-0.6,0.1-1c-3.9-2.4-9.4-0.9-13.2,0.7l3.6-9.9c3-0.9,6.3-1.5,9.8-1.5
					c0.1-1.7,0.3-3.5,0.1-5.3c-1.6-0.7-3.9-0.8-5.5-0.1c-1.1,0.6-2.2,1.3-3.7,1.1c-2.7-0.1-4.6-1.8-6.8-2.9c2.1,0.4,4.6,0.7,6.7,0.2
					c1.5-1.4,3.2-3.2,5.8-3c1.2,0.1,2.3,0.6,3.5,0.6l0.2-1.2H303"/>
				<path style="fill:#00B4DB;" d="M332.3,314.7l-0.6-24.1C335.4,297.7,336.3,307.5,332.3,314.7"/>
				<path style="fill:#00B4DB;" d="M264.2,294c-3.7,0.2-7,1.1-9.8,2.9l-1.8,8.6c3.4-1.8,7.1-3.1,11.4-3.3v1.6
					c-4.5,0.2-8.5,1.6-11.8,3.8l-2.2,10.9c4.1-2.1,8.7-3.8,13.8-4.1v8.2l-15.7-0.2l-9.2-1.3c0.9-9.9,5.3-18.8,13.8-26.3
					c3.2-2.5,6.7-4.5,11.3-4.2V294"/>
				<path style="fill:#00B4DB;" d="M360.5,318.7l-7.7,5.1l-20.4-0.3l-0.2-8.3c6.3-2.8,15.6-2.2,21.6,0.7L360.5,318.7"/>
				<path style="fill:#FDC56F;" d="M379.4,333.8l-1.2,2.5c-4.7-1.2-7,3.2-11,4.1c-9.4,1.7-17.1-4.8-26.2-1
					c-4.5,1.9-10.9,2.9-15.8,1.1c-2.8-0.8-5.4-2-8.7-1.8c-6.2,1.2-12.6,5-19.3,2.1c-3.4-1.2-6.6-2.9-10.8-2.1
					c-5.7,0.7-10.8,3.4-17,2.2c-4.5-0.8-8.3-2.7-13.1-2.8c-4.5,0.5-7.8,3.3-12.5,3.4c-6.6,0.4-12-1.7-17.5-3.6l-10.2,2.2l-1.1-2.5
					l10.6-2.3c3.6,0.1,6.3,1.9,9.6,2.7c4.2,1.2,9.7,1.4,13.6-0.4c4.2-2.4,10.8-2.5,15.4-0.7c3.5,1,7.3,2.4,11.4,1.5
					c6.2-1.3,13.8-3.9,20-0.9c3.7,2.2,9.6,2.4,13.7,0.6c3.4-1.2,7.4-2.6,11.5-1.5c4.7,1,9.4,3.5,14.7,1.9c4.3-1.1,8.1-3.3,13.4-2.7
					c6.2,0.1,11.2,3.4,17.7,2.2c2.5-1.1,4.5-3.5,7.5-3.9C375.6,333.4,377.8,333.2,379.4,333.8"/>
				<path style="fill:none;stroke:#000000;stroke-width:0.242;" d="M295.4,535.2c0,0,106.5-34.5,110.7-112.4l0.3-167.7h-222
					l0.3,167.7C188.9,500.8,295.4,535.2,295.4,535.2z"/>
				<path d="M156.1,468.6c3.4,2.9,7.7,5.4,11.8,7.5c2.5,3,6.4,3.9,9.5,6.1c5.6,3.1,11.4,5.9,17.6,8.4c4.6,1,8.9,3.1,13.3,4.7
					c2.4,0.5,4.6,1.8,7,1.8c4.1,2.2,9.4,2.1,13.4,4.2c9.2,2,18.8,4.7,28.5,5.6c12.2,1.7,23.7,1.4,35.7,2.9
					c6.7-0.3,13.8,0.5,20.8-0.4c4.6,0.1,9.4-1.2,13.8-1.3c1.4-0.5,2.7,0.6,4.1-0.3c9.1-1.2,17.2-2.1,25.9-3.7
					c11.7-2.2,23.4-5.3,34.8-8.3c5.1-2.4,10.5-3.6,15.3-6.5c1.8-0.4,3.6-1.1,5.3-1.6c1.5-0.5,2.9-1.1,4.4-1.6
					c8-4.4,16.6-8,24.1-13.5c1.9-0.1,3.2-1.6,4.9-2.2c5.9-1.6,14-4.4,19.2-0.5c3.3,0.6,3.1,3.9,3.7,6.6c-0.6,4-1.4,8.2-1.3,12.5
					c-0.4,2-0.2,4-0.2,6l0.3,4.5c1.5,0.2-0.1,1.1,0.2,1.8c0.7,3.3,1.1,6.6,2.5,9.8c0.8,1.3-0.5,2.6,1.3,3.3
					c9.8-2.3,19.9,0.5,29.4,2.6c3,1.5,6.3,2.8,9.3,3.9c1.4-0.1,1.8,1.2,3.1,1.4c9.8,4.5,19,10.7,26.9,18.2c1.2,1.7,3.7,3.8,2.8,5.7
					c-5.8-2.8-11.8-3.3-18.2-4.5c-2.1,1-4.2-0.3-6.1,1.2c-3.6-0.4-6.9,1.7-10.4,2c-3.7,1.4-7.2,3.2-10.6,5.1v0.6
					c5.6,5.5,11.8,10.1,16.4,16.4c1.8,2.2,4.2,4.4,5.9,6.8v0.4c3.2,3,4.8,7.1,7.8,10.2h0.3c-0.1,1.2,1.2,1.8,1.7,2.8
					c2.2,3.8,4.6,7.7,5.5,11.7c-1.6,0.6-2.2-1.8-3.6-2.3c-2.1-0.6-4.1-2.8-6-3.5c-2.7-1.9-5.8-3.3-8.6-5.3
					c-17.3-9.4-39.1-11.2-58.7-7.9c-9.5,1.1-19.6,1.6-29.2,1.5c-4.2-0.3-8.6-0.9-11.9-3.7c-1.9-2.6-3.1-5.6-3.9-8.4
					c-0.5-2.5-1.1-5.2-2-7.6c-0.8-0.4,0.3-1.1-0.4-1.4c-2.3,0.2-4.1,2-6.4,2.1c-2.8,1.9-5.9,2.3-9.1,3.6c-7.9,2.7-15.6,4.7-23.7,7.1
					c-2.6-0.5-3.9,2-6.5,1.1c-1.6,1.1-3.8,0.8-5.5,1.3c-8.6,2.8-18.1,1.9-27.3,3.8c-1.2-0.1-2.1-0.4-3.4,0.1c-8.4-0.4-16.7,1-25-0.3
					c-2-0.2-3.2,0.8-5.3-0.1c-2.7,0.2-4.8-0.5-7.2,0.3c-1.2-0.6-3.4-0.3-5-0.8c-3.7,0.5-7.5-1.6-11.2-0.6c-0.8-1-3-0.5-4.1-1.1
					c-0.9-0.5-1.7-0.2-2.6-0.1c-5.8-1.1-10.8-1.3-16.4-2.8c-13.1-2.2-24.2-5.4-36.7-9.2c-0.6-0.9-1.8,0.2-2.2-0.9
					c-5.3-1.9-11.2-3.1-16.6-4.9c-4.9-1.7-10.1-3.5-15.1-4.9c-1.2,3.9-2.2,8.1-3.2,12.2c-0.7,2.3,0.1,4.9-1.6,7
					c-1.3,1.2-1.8,3.2-3.9,3c-2.6,2.1-6.7,2.4-9.8,2.2c-11.8,0.8-22-1.7-32.8-2.7c-1,0.2-2.4-1.1-3.5-0.4c-1.7-1.1-3.6-0.1-5.2-0.8
					c-1.6-0.1-3,0.8-4.3-0.2c-2.5,0.2-4.8-0.3-7,0.3c-2.8-0.4-6.3,0.9-9,1c-5,1-9.7,1.7-14.3,3.4c-2.9,0.1-5.3,1.8-7.9,2.5
					c-1.8,0.7-3,1.8-4.7,2.1c0,1.1-0.9-0.1-1.2,0.7c-1.5,0.9-3.2,1.4-4.7,2.3c-3,1.5-5.4,3.8-8.3,5.8c-0.6,0.1-0.8-0.3-1.1-0.6
					c0-2.7,1.2-5.5,3-7.8c2.9-5.4,8-10.8,11.6-15.3c-0.1-1.1,1.3-1.1,1.4-2c6-7.8,13.7-14.4,20.3-20.7c-3.8-4.3-10.2-4.8-14.9-7
					c-1.2-0.6-3.3-0.3-4.7-1.2c-2.3,0-4.6-0.5-6.7-0.3c-1.7-0.2-3.9-0.2-5.7,0c-1.4,0.8-2.5,0.7-4.2,1c-3.2,1.1-6.5,2.3-9.5,3.5
					c-0.8,0.3-1.4,0.5-2.3,0.4c-0.2-0.9,1.2-2.1,1.8-2.9c0.5-1.7,2.8-2.5,3.8-3.8c1.6-1.4,3.3-2.9,4.4-4.6c2.3-0.9,3.5-3,5.5-4
					c0.6-1.2,1.4-1.4,2.5-1.8c2.6-1.5,5-3.7,7.7-4.9c1.8-0.1,3-1.6,4.7-1.9c0.9-0.5,2.4-0.9,3.3-1.6c3.1-2.3,7.1-2.4,10.4-4.2
					c2.3-0.4,4.4-1,6.7-1.5c1.5-0.9,3.5-0.5,5.3-0.7c3-0.5,6.1-0.5,9.2-0.5c2.4-1.1,5.4,1,8.2,0.2c0.8,1,2.5,0.4,3.4,0.5
					c1.5-1.7,1.3-4,2.6-6c1.1-6,3.3-11.8,3.2-18.1l-0.1-4.2c0.7-0.5-0.1-1,0.2-1.6c1.7-4.6,1.3-9.9,3.3-14.3c3.6-2.7,8.8-2,13-1.6
					C150.2,465.7,153.3,467,156.1,468.6"/>
				<path style="fill:#FFFFFF;" d="M148.6,469c8.4,3.8,15.9,9.2,23.9,14.3c1-0.3,1.2,0.9,2,0.9c5.5,3.4,12,5.5,17.7,8.9
					c1.1-0.1,1.7,1.3,2.9,0.8c5.8,2.7,12,4.1,17.6,6.8c0.5-0.2,1.4,0,1.9,0.4c4.5,1.3,9.1,2.8,13.8,3.3c0.2,0.8,0.8-0.1,1.3,0.4
					c2,0.7,4.4,0.9,6.2,2c3.2,0.2,6.3,0.9,9,2.4c1.9-0.6,3.6,0.4,5.3,0.7c3.7,0,7.4,1,11,1.1c0.5,1,1.3-0.1,1.8,0.4l5.2,0.8v0.1
					c3.5,0.3,6.7,0.5,10.3,0.9c3.7,0.4,7.9,0.1,11.6,0.2c2.5,0.1,6,0.5,8.8,0c6.1,0.6,12.8,0,19.2-0.7c1.3,0.9,2.4-0.6,3.8-0.1
					c4.7,0.1,8.7-1.2,13.2-1c0.5-1.1,1.8-0.3,2.6-0.8c3-0.6,6.9-0.5,9.7-1.6c3.6-0.2,6.9-1.3,10.5-1.6c0.4,0.6,0.8,0.1,1.1-0.1
					c5.8-1.1,10.7-1.5,16.3-2.7c0.7-0.4,1.5-1,2.3-0.5c4.5-2.4,9.8-2.6,14.6-4.5c4.8-1.7,9.7-3.8,14.7-5.2c2.5-1.3,5.4-2.1,7.9-3.3
					c6.3-2.9,12.6-6.1,18.5-9.7c1-0.1,1.4-1.2,2.6-1.1c2.9-2.2,6.5-3.2,9.5-5.5c5.7-2.4,14.4-6.3,19.9-0.6c0.2,3,0,5.6-0.1,8.7
					c-0.5,0.2,0,0.7,0,1c-0.1,0.9-0.4,2.2-0.3,3.1h-0.1c-0.3,2,0.1,4.6,0.1,6.7c0.2,5.8,0.3,10.4,2.5,15.4c0.3,1.2,0.4,2.4,1,3.8
					c0.1,1.4,1.7,2.4,1.5,4.2c1.5,2,1.1,4.6,2.8,6.5c-0.5,1,0.9,1.4,0.5,2.6c1.7,2.7,1.9,5.8,2.4,9c-0.1,0.3-0.4,0.5-0.5,0.6
					c-3.8-4.6-10.5-2.7-15.1-1.7c-18,6.7-34.3,17.1-52,24.6c-7.5,3.9-15.5,5.6-23.4,8.3c-16.1,4-32.5,6.9-49.3,8.6
					c-21.8,1.5-43.4,0.3-65.3-1.9c-7.2-0.6-13.9-2-20.9-3.7c-1.9,0.2-3.9-0.9-5.7-1.1c-9.9-2-19.4-5.1-29.2-7.8
					c-6.8-2.2-13.5-4.4-20.4-6.6c-8.9-2.6-17.6-5.3-26.4-8.9c-5.3-2.4-10.2-4.2-15.7-6.4c-4.9-1.4-9.4-4.4-14.7-5.3l-0.2-0.4
					c-1,1-1.4-0.8-2.5-0.3c-4.1-1.4-8.2-1.8-12.2-0.1c-0.9-0.2-0.4-1.3-0.3-1.8c0.8-3.2,1.9-5.9,2.9-9c1.1-0.9,1.2-2.1,1.6-3.1
					c5.1-12.2,8.1-25,8.4-38.8c0.4-1.4,0-3.1,0.8-4.4c-0.3-1.5,0.5-3,0.2-4.7c1-0.5,1.6-3.3,3.8-3.3c1.6-0.1,3.7-0.4,5.2,0.1
					C146.2,467.5,147.3,468.6,148.6,469"/>
				<path style="fill:#FFFFFF;" d="M123,514.6c0.3,0.2,0.4-0.4,0.8,0c-0.6,1.3-1.5,2.4-1.7,3.8c-2.3,6.5-5.8,14.1-5.2,21.5
					c1,1.4,0.3,3.5,1.6,4.7c2.1,8.3,11.8,11.9,19.6,12.9c7.3,1.7,14,3.3,21.4,4.6c1.1,0.4,2.4,0.9,3.5,0.3c2.5,1,5.1,1.7,7.2,3.2
					c0.8,0.2,1.2,1.1,2.2,0.8c1.3,1.5,3.1,2.9,2.9,5c-0.5,2.2-3.1,2.7-4.8,3.4c-2,0.4-3.2,0.1-5,0.7c-12.1,1.3-24.4-2-36.2-3.1
					c-0.8,0-2.3-1.4-2.9,0c-5.7-1.1-10.9-0.1-16.2-0.8c-2.5,0.4-4.6,0.1-7,0.8c-5.2,0.5-10.7,1.8-15.6,3.9c-1.2,0.9-2.8-0.1-3.9,1.2
					c-5.2,1.9-10.5,4.1-15.2,7c-1.2-0.2-1.7,1.4-2.8,1.4c1.3-4.2,5.3-7,7.8-10.9c3.4-2.1,4.8-5.8,7.8-8.2c1-1.8,3.2-3.2,3.9-5.1
					c0.8-0.6,1.5-1.3,1.9-1.9l0.1,0.1c0.6-1.7,2.7-2.2,3.1-3.8c1.5-1.1,2.6-1.9,3.8-3.2l0.2-0.6l7.1-6.1c0.4-1-0.4-1.6-1.3-2
					c-3.2-1.3-5.8-3.8-9.2-4.7c-0.2-0.8-1.1-0.3-1.2-1c-2.1-0.2-4.4-1.3-6.6-2.1c-1.7-0.6-4-0.6-5.7-1.4c-0.9,1-1.4-1.1-2.3,0
					c-1.6-0.7-3.2,0-4.8-1c-4.1,0.5-8.1,0.4-12,1.6l0.2-0.5c3.6-2.1,6.2-5.4,10-6.8c3-2,6.5-4.1,9.6-5.6c10.2-5.6,21.9-9,33.5-9.6
					C115.5,513.4,119.2,513.3,123,514.6"/>
				<path style="fill:#FFFFFF;" d="M494.7,517.9c8.1,2.3,15.5,6.2,23.1,9.6c5.7,3.3,11.9,6.7,16.8,11.5c0.5,0.2,1.1,0.7,1.4,1.2
					c-12.2-2.6-25.5-0.5-36.1,5.7c-2.3,0.4-4.4,1.8-6,3.6v0.6c1.9,1.6,3.7,3.4,5.1,5.1c8.1,6.8,14.9,14.4,21.2,21.9
					c1.7,2.5,3.5,4.2,4.9,7c1.1,2.3,2.7,4.4,4.1,6.5c-1.4,0.6-1.8-1.5-3-1.7c-11.5-6.2-23.5-11.3-36.5-13.2
					c-10.5-0.7-19.4-0.7-29.5,0.5c-1.8,0.3-4,0-5.9,0.7c-1-0.3-2.2,0.5-3.5,0.2c-1.2,0.8-2.6-0.1-3.9,0.5
					c-6.4,0.1-13.7,0.9-19.9,0.3c-2.9-1.4-6.6-1.6-8.4-4.7c0.5-1.6,0.3-4.1,2.6-4.4c5.7-4.3,14-4.2,21-6.1c9.8-1.3,19.3-2,27-8.5
					c2.4-3.4,6.4-5.8,7-10c1.5-4,2.6-8.1,1.9-12.3c0.2-1.7-0.9-3.5-1.6-5.3c-1.4-3.3-2.2-6.7-4-9.8
					C480,515.6,487.2,517.5,494.7,517.9"/>
				<path style="fill:#B3B3B3;" d="M131.7,535.3c3.9,1.4,8.1,2.5,12.2,3.6c5.5,2.2,11.6,5.3,17.4,7.4c4.4,1.7,8.7,4,13.5,5.1
					c0.5,0.9,2,0.5,2.6,1.3c0.7-0.2,1.4,0.4,2.1,0.7c-0.5,1.8-1.1,3.6-1.8,5.5c0.2,2.2-1.2,3.5-1.3,5.8c-0.2,0.1-0.1,0.4-0.1,0.6
					c-3.3-3.7-8.6-4.6-12.9-6.3c-10.7-1.7-21.3-3.1-31.6-6.3c-0.1-0.9-1.3-0.3-1.9-0.7c-2.8-2.1-7-4.1-8.1-8c-0.5-1.2-1.9-2.5-1.1-4
					c1.2-1.4,1.2-4.1,3.3-4.1c0.8-1.1,2.7-0.3,3.8-1.1C129.1,535.4,130.4,535.6,131.7,535.3"/>
				<path style="fill:#B3B3B3;" d="M473.6,538.9c0,2.3,1.4,4.1-1,5.5c-0.9,1.5-0.2,2.8-1.4,4.3c-1.9,3-5.2,4.8-8.4,6.2
					c-1.9,1.7-4.5,2.5-7.1,2.9c-1.6,0.6-3.9,1.1-6,1.3c-9.6,2.3-20.5,1.7-29.3,7c-1.4,0-2.3,1-3.3,1.6l-0.4-0.6
					c-0.4-2.7-1.4-5.3-1.5-8.4c3-0.9,4.9-2.8,8-3.7c1.8-1.2,4.1-2.6,6.4-3.2c5-3.4,10.9-5,15.8-8.2c1.1-0.1,1.9-1.3,3-1.5
					c4.3-1.1,6.8-4,11.4-4.2c3.7-1.5,7.7-2.5,11.5-1.6L473.6,538.9"/>
				<polyline style="fill:#FFFFFF;" points="473.1,544.9 473.2,544.9 472.9,545.6 472.8,545.6 473.1,544.9 				"/>
				<path d="M163.8,500.9l-0.3-0.1c-0.2-0.1-0.3-0.6-0.3-1.3c0-0.7,0-1.4-0.1-1.9c-0.1-0.5-0.3-1.1-0.8-1.8
					c-0.3-0.4-0.6-0.8-1.1-1.1c-0.5-0.3-0.9-0.5-1.3-0.6c-0.6-0.1-1.2-0.1-1.8,0.1c-0.6,0.2-1.2,0.5-1.7,1c-0.5,0.5-0.9,1.2-1,2
					c-0.2,0.7-0.1,1.4,0.1,2.2c0.2,0.8,0.5,1.5,0.9,2.2c0.4,0.7,0.8,1.4,1.3,2.2c0.5,0.7,1,1.4,1.5,2.1c0.9,1.4,1.6,2.6,2,3.8
					c0.4,1.1,0.5,2.3,0.2,3.7c-0.3,1.6-1.1,3-2.4,4.1c-1.2,1.2-2.7,2-4.4,2.5c-1.7,0.5-3.2,0.6-4.7,0.3c-2-0.4-3.6-1-4.7-1.9
					c-1.1-0.9-1.9-1.6-2.2-2.4c-0.4-0.8-0.5-1.2-0.5-1.5c0.1-0.3,0.2-0.6,0.6-0.9c0.3-0.4,0.8-1,1.6-1.7c0.8-0.8,1.2-1.2,1.3-1.4
					c0.5,0.1,0.8,0.3,0.9,0.7c0.1,0.4,0.1,0.9,0,1.6c-0.4,3.4,0.8,5.5,3.5,6c0.9,0.2,1.8,0.2,2.7-0.1c0.9-0.3,1.7-0.8,2.3-1.5
					c0.6-0.6,1-1.4,1.1-2.2c0.1-0.6,0.1-1.2-0.1-1.8c-0.2-0.7-0.4-1.3-0.8-1.9c-0.4-0.6-0.8-1.3-1.3-2.1c-0.5-0.8-1.1-1.6-1.6-2.4
					c-0.9-1.3-1.5-2.6-1.8-3.9c-0.3-1.2-0.3-2.5-0.1-3.8c0.3-1,0.8-2.1,1.6-3.2c0.8-1.1,2-2,3.4-2.7c1.5-0.6,3.1-0.8,5.1-0.4
					c1.3,0.3,2.5,0.7,3.4,1.4c0.9,0.6,1.6,1.3,2,2c0.4,0.7,0.6,1.2,0.5,1.5c-0.1,0.3-0.4,0.8-0.9,1.2
					C165.6,499.4,164.8,500.1,163.8,500.9"/>
				<path d="M175.9,518.8l5.2-7.3l5.5,0.6c-0.2,0.3-0.6,0.8-1.1,1.6c-0.6,0.8-1.3,1.8-2.2,3.1c-0.9,1.2-1.6,2.4-2.3,3.4
					c-0.6,1-1,1.8-1.2,2.2c-0.4,1.2-0.2,2,0.6,2.2c0.5,0.1,1,0.1,1.7-0.1c0.6-0.2,1.4-0.5,2.1-0.9c0.7-0.4,1.3-0.7,1.8-0.9l-0.7,2.2
					c-1.9,0.9-3.6,1.6-5,2.1c-1.5,0.5-2.6,0.5-3.6,0.2c-0.6-0.2-1.1-0.5-1.5-1c-0.4-0.5-0.7-1.1-0.7-1.9c-0.1-0.7,0.1-1.6,0.4-2.5
					l-0.1-0.1c-3.6,2.2-6.3,2.9-8.3,2.3c-1-0.3-1.6-1-2-1.9c-0.4-0.9-0.3-2.2,0.2-3.9c0.4-1.2,1.1-2.7,2.2-4.4
					c1.1-1.8,2.4-3.7,4.1-5.7l5.4,0.7l-4.1,5.7c-0.5,0.7-1,1.6-1.7,2.6c-0.6,1.1-1,1.8-1.2,2.2c-0.4,1.3-0.2,2.2,0.8,2.5
					c0.4,0.1,1,0,1.7-0.3c0.8-0.3,1.6-0.7,2.3-1.3C175,519.7,175.6,519.2,175.9,518.8"/>
				<path d="M192,519c-1.2,0.9-2.4,1.7-3.6,2.5c-1.2,0.8-2.3,1.4-3.2,1.7l-0.7,1.6l0.4,0.2c0.5-0.2,1.1-0.4,1.7-0.7
					c0.6-0.3,1.1-0.6,1.6-0.9c0.4-0.3,1-0.6,1.6-1l0.1,0.1c-3.8,5.1-7.4,10.5-10.8,16l5,1.1c0.9-1.5,1.7-2.7,2.4-3.9
					c0.7-1.1,1.9-2.7,3.3-4.8c0.1,0.2,0.2,0.4,0.3,0.6c0.1,0.2,0.2,0.4,0.4,0.6c0.2,0.2,0.4,0.4,0.7,0.7c0.3,0.2,0.6,0.4,1.1,0.6
					c1,0.5,2.2,0.6,3.5,0.5c1.3-0.2,2.6-0.6,3.9-1.2c1.3-0.7,2.5-1.6,3.6-2.6c1.1-1.1,1.9-2.3,2.5-3.6c0.7-1.6,0.8-3,0.5-4.3
					c-0.4-1.3-1.1-2.2-2.3-2.7c-0.9-0.4-1.8-0.5-2.9-0.4c-1,0.1-2.2,0.6-3.6,1.3l-0.1-0.1l2-2.8l-4.5-1
					C194.2,517.2,193.2,518.1,192,519 M203.3,533.5c-1.1,0.3-1.9,0.6-2.6,0.7c-0.6,0.2-1,0.3-1,0.3c0,0.1-0.1,0.3-0.1,0.7
					c0.1,0.4,0.1,0.6,0.2,0.6c0.2,0.1,0.9,0,2.3-0.4c1.4-0.4,2.7-0.8,4.2-1.3l0.9-2.1C205.7,532.7,204.4,533.2,203.3,533.5z
					 M196.2,522.6c0.5-0.5,1-0.8,1.5-1c1-0.4,1.7-0.5,2.3-0.2c0.5,0.2,0.8,0.6,1,1c0.2,0.4,0.2,0.9,0.2,1.5
					c-0.1,0.6-0.2,1.1-0.5,1.7c-0.4,1-1.1,2.1-2.1,3.2c-1,1.1-2,2.1-3.2,2.7c-1.1,0.6-2.2,0.8-3,0.4c-0.5-0.2-0.8-0.5-1-0.8
					c-0.2-0.4-0.3-0.9-0.5-1.7l3.2-4.3C195.1,523.8,195.7,523,196.2,522.6z"/>
				<path d="M216.4,539.4c-1,0.2-1.9,0.1-2.9-0.3c-1-0.4-1.7-1.1-2.1-2.1c-0.4-1-0.5-2-0.2-3.2c1.3,0.2,2.7,0.3,4.1,0.3
					c1.4,0,2.7-0.2,4-0.6c1.3-0.5,2.2-1.2,2.7-2.4c0.2-0.5,0.3-1.1,0.3-1.7c-0.1-0.6-0.3-1.2-0.7-1.8c-0.4-0.6-1.1-1-2-1.4
					c-1-0.4-2.1-0.6-3.4-0.5c-1.2,0.1-2.5,0.5-3.8,1.1c-1.3,0.6-2.5,1.4-3.5,2.5c-1.1,1.1-1.9,2.2-2.4,3.5c-0.8,1.8-0.8,3.5-0.2,5
					c0.6,1.5,1.7,2.6,3.3,3.2c1,0.4,2,0.7,3,0.7c1,0.1,2.1,0,3.3-0.3c1.2-0.3,2.5-0.7,4.1-1.3l0.9-2.1
					C218.9,538.8,217.4,539.2,216.4,539.4 M213.6,529.3c0.8-0.8,1.5-1.4,2.3-1.8c0.8-0.4,1.5-0.5,2.1-0.2c0.9,0.4,1,1.1,0.5,2.3
					c-0.5,1.1-1.3,2-2.5,2.5c-1.2,0.6-2.6,0.7-4.3,0.4l0.2-0.4C212.3,531.1,212.9,530.2,213.6,529.3z"/>
				<path d="M221.9,539.3l-2,0.8l0.7-2c1.7-0.8,3.3-1,4.2-1.8c-0.9-0.9-1.2-1.8-0.8-2.9c0.1-0.3,0.4-0.8,0.9-1.4
					c0.5-0.7,1.1-1.2,1.9-1.7c0.8-0.5,1.7-0.5,2.6-0.1c1,0.3,1.2,1,0.9,2.1c-0.3,0.8-1,1.8-2,3c2.2,0.5,4.6-0.4,7.2-2.9l1.7,0.6
					l-3.5,4.2c-0.1,0.1-0.5,0.6-1.2,1.4c-0.7,0.8-1.2,1.5-1.8,2.2c-0.5,0.7-0.8,1.3-1,1.8c-0.2,0.6-0.2,1.1-0.1,1.5
					c0.2,0.4,0.4,0.6,0.8,0.8c0.4,0.2,0.9,0.2,1.5,0.1c0.5-0.2,1.2-0.4,2.1-0.8c0.9-0.4,1.4-0.6,3.4-1.7l-0.8,2.1
					c-3.1,1.5-4.3,2-5.4,2.4c-1.1,0.4-2.1,0.6-3,0.7c-0.9,0.1-1.6,0-2.3-0.2c-0.8-0.3-1.3-0.8-1.6-1.7c-0.3-0.9-0.3-1.8,0.1-2.8
					c0.3-0.9,1-1.9,2-3c1-1.1,2.1-2,3.4-2.9l-0.1-0.1c-1,0.2-2.1,0.2-3.4-0.1C225.2,538,224.5,538,221.9,539.3"/>
				<path d="M245.3,529.9c-1.3,1.6-2.6,3.4-3.9,5.4c-1.3,2-2.4,3.9-3.4,5.6c-0.9,1.8-1.6,3.3-1.9,4.7c-0.3,1-0.4,1.9-0.2,2.8
					c0.2,0.9,0.4,1.6,0.9,2.2c0.5,0.6,1.1,1,1.9,1.1c0.7,0.2,1.5,0.3,2.3,0.2c0.8-0.1,1.7-0.4,2.7-0.9c1.1-0.5,2.2-1.2,3.5-2
					c0.5,0.7,0.9,1.2,1.3,1.5c0.4,0.4,0.9,0.6,1.5,0.7c0.7,0.2,1.3,0.2,2,0.1c0.6-0.1,1.2-0.4,3.1-1.8l0.6-2.2
					c-1.8,1.4-2.2,1.6-2.5,1.8c-0.4,0.2-0.7,0.4-1.2,0.6c-0.5,0.2-1,0.2-1.5,0.1c-1-0.3-1.7-0.9-2.2-2c0.9-0.8,1.8-1.7,2.6-2.6
					c0.8-0.9,1.5-1.8,2.1-2.7c0.6-0.9,1-1.7,1.1-2.4c0.2-0.7,0.2-1.3,0-1.8c-0.1-0.5-0.5-0.8-1-0.9c-0.8-0.2-1.6,0-2.5,0.5
					c-1,0.6-1.8,1.4-2.6,2.4c-0.8,1-1.3,2.2-1.6,3.4c-0.3,1.2-0.3,2.5,0.1,3.7c-0.8,0.6-1.5,1-2.2,1.3c-0.6,0.3-1.3,0.4-2,0.2
					c-0.6-0.1-1-0.5-1.2-1c-0.2-0.5-0.2-1.2,0-1.9c0.3-1.4,1.3-3.4,2.8-5.9l3.2-1.9c0.7-0.4,1.5-0.9,2.5-1.6c1-0.7,1.9-1.5,2.8-2.2
					c0.9-0.8,1.8-1.7,2.5-2.6c0.8-0.9,1.2-1.8,1.5-2.7c0.2-0.8,0.2-1.6,0.1-2.2c-0.2-0.6-0.5-0.9-1-0.9l-6.9,0.1
					C247.6,527,246.5,528.2,245.3,529.9 M254.6,529.5c-0.1,0.5-0.5,1.1-1,1.8c-0.6,0.7-1.3,1.4-2.2,2.2c-0.9,0.8-1.8,1.5-2.7,2.2
					c-1,0.6-1.9,1.3-2.9,1.8l-0.1-0.1c2-3.4,3.7-5.8,5.2-7.4c1.4-1.5,2.5-2.2,3.2-2C254.7,528.1,254.8,528.6,254.6,529.5z"/>
				<path d="M263.2,531c0.3,0.2,0.5,0.4,0.8,0.6c0.2,0.2,0.5,0.4,0.7,0.5c0.3,0.2,0.6,0.3,0.9,0.3c0.6,0.1,1.4,0,2.2-0.4
					c-0.2,1.6-0.7,2.8-1.6,3.4c-0.8,0.7-1.8,0.9-2.8,0.7c-1.2-0.2-2.1-0.7-2.8-1.5C261.6,533.6,262.5,532.5,263.2,531 M259.5,539.7
					l5.2-0.2l0.2,0l-3,5.9c-0.2,0.4-0.4,0.8-0.7,1.4c-0.3,0.5-0.5,1-0.6,1.2c-0.2,0.3-0.3,0.6-0.5,1.2c-0.2,0.5-0.3,1-0.4,1.5
					c-0.1,0.4,0,0.7,0.1,1c0.1,0.3,0.3,0.5,0.7,0.6c0.6,0.1,1.2,0,1.9-0.4c0.7-0.4,1.5-1,4-3l-0.4,2.2c-3.1,2.5-4.6,3.4-6,4.1
					c-1.4,0.6-2.4,0.9-3.1,0.8c-0.8-0.2-1.4-0.7-1.9-1.5c-0.5-0.9-0.6-2.1-0.4-3.6c0.3-1.9,1-3.8,1.9-5.7
					C257.5,543.2,258.5,541.4,259.5,539.7z"/>
				<path d="M285.5,553.9c-0.6,0.5-1.1,0.9-1.6,1.2c-0.5,0.3-0.8,0.4-1.1,0.3c-0.9-0.1-1.3-0.8-1.1-2c0.1-0.6,0.3-1.5,0.8-2.8
					c0.4-1.3,0.8-2.3,1.2-3.1l2.3-5.6l-1.1-0.1l-4.3,1.8c-0.4-1.6-1.6-2.5-3.4-2.7c-1-0.1-2.1,0.1-3.3,0.6c-1.2,0.5-2.4,1.3-3.7,2.3
					c-1.2,1-2.3,2.2-3,3.5c-0.8,1.4-1.2,2.8-1.4,4.4c-0.2,1.7,0.1,3.1,0.9,4.2c0.8,1.1,1.7,1.7,2.7,1.8c1,0.1,1.9-0.1,2.8-0.5
					c0.9-0.5,1.8-1.1,2.5-1.8c0.8-0.8,1.6-1.6,2.3-2.5l0.1,0c-0.2,1.1-0.2,2.1-0.1,3c0.2,0.9,0.4,1.6,0.9,2c0.4,0.5,1,0.8,1.7,0.8
					c0.5,0.1,1.2-0.1,1.8-0.3c0.7-0.2,1.3-0.6,1.9-1c0.6-0.4,1.3-0.9,2-1.4c0.8-0.6,1.3-1,1.7-1.4l0.3-2.3
					C286.7,552.9,286.2,553.4,285.5,553.9 M278.6,543.4c0.3,0.4,0.4,1.1,0.3,1.9c-0.1,0.8-0.3,1.7-0.7,2.7c-0.4,1.1-0.9,2.1-1.6,3.1
					c-0.6,1-1.3,1.8-2,2.4c-0.8,0.6-1.5,0.9-2.2,0.8c-0.5,0-1-0.3-1.3-0.8c-0.3-0.5-0.4-1.1-0.4-1.8c0.1-1.2,0.5-2.5,1.2-4
					c0.7-1.5,1.5-2.7,2.5-3.7c1-1,1.9-1.5,2.8-1.4C277.9,542.7,278.3,543,278.6,543.4z"/>
				<path d="M310.7,530.9c0.7,0,1.5,0.2,2.4,0.5c0.9,0.3,1.7,0.5,2.4,0.5c0.6,0.1,1.1-0.2,1.7-0.5c0.5-0.3,0.8-0.5,1-0.5
					c0.2,0,0.5,0.1,0.8,0.3c0.3,0.2,0.5,0.4,0.5,0.7c0,0-0.1,0.1-0.1,0.3c-0.1,0.1-0.2,0.3-0.4,0.5c-0.2,0.2-0.4,0.5-0.7,0.8
					c-0.8,0.8-1.4,1.8-1.8,2.9c-0.5,1.1-0.9,2.8-1.2,4.9c-0.3,2.2-0.6,4-0.8,5.3c-0.3,1.4-0.5,2.7-0.9,4c-0.3,1.3-0.8,2.4-1.4,3.5
					c-0.6,1.1-1.4,2.1-2.3,3c-0.8,0.8-1.8,1.5-3,2c-1.3,0.6-2.6,0.9-4.2,0.9c-1.6,0-2.8-0.3-3.9-0.7c-1-0.5-1.8-1-2.3-1.7
					c-0.5-0.7-0.8-1.2-0.8-1.7c0-0.6,0.4-1.1,1.1-1.8c0.3-0.1,0.6-0.4,0.9-0.7c0.3-0.3,0.6-0.5,0.8-0.6c0.2-0.1,0.3-0.2,0.5-0.2
					c0.5,0,0.7,0.1,0.8,0.4c0.1,0.3,0.1,0.8,0.1,1.5c0,0.9,0.2,1.8,0.7,2.6c0.4,0.8,1.2,1.2,2.2,1.2c0.6,0,1-0.1,1.5-0.4
					c0.4-0.2,0.8-0.5,1-0.8c0.6-0.5,1.1-1.2,1.4-2.1c0.4-0.8,0.6-1.7,0.9-2.7c0.2-1,0.4-2.1,0.7-3.3c0.2-1.2,0.4-2.1,0.5-2.8
					c0.4-1.6,0.8-2.9,1.2-3.9c0.4-1.1,0.9-2,1.4-2.9c0.5-0.8,1.2-1.6,1.9-2.4c0.8-0.8,1.7-1.7,2.9-2.8l-0.1-0.1
					c-0.7,0.3-1.3,0.5-2,0.6c-0.6,0.1-1.1,0.2-1.5,0.2c-0.4,0-0.7-0.1-1.1-0.2c-0.4-0.1-0.9-0.2-1.2-0.4c-0.4-0.1-0.8-0.2-1-0.3
					c-0.3-0.1-0.5-0.1-0.8-0.1c-1.1,0-2,0.4-2.7,1.2c-0.7,0.8-1.1,1.6-1.1,2.5c0,0.6,0.1,1.1,0.4,1.4c0.2,0.3,0.5,0.6,1,0.9
					c0.4,0.3,0.6,0.6,0.6,0.8c0,0.4-0.3,0.9-0.8,1.5c-0.5,0.6-1,0.8-1.5,0.8c-0.5,0-1-0.4-1.5-1.1c-0.4-0.7-0.7-1.6-0.6-2.6
					c0-0.9,0.2-1.8,0.8-2.9c0.5-1,1.2-2,2-2.9c0.9-0.9,1.8-1.7,2.8-2.2C308.7,531.2,309.7,530.9,310.7,530.9"/>
				<path d="M321.2,543.2l4.8-1.2c-0.4,1.2-0.7,2.4-1,3.6c-0.3,1.1-0.5,2.1-0.6,3l0.1,0.1c1-1.3,1.8-2.4,2.6-3.3
					c0.7-0.9,1.6-1.8,2.6-2.5c1-0.8,1.9-1.2,2.8-1.3c0.5,0,0.9,0.1,1.3,0.3c0.4,0.2,0.7,0.5,0.9,0.9c0.2,0.4,0.4,0.9,0.4,1.4
					c0.1,0.6,0,1.4-0.2,2.4c-0.2,1-0.5,2.1-0.9,3.5c-0.4,1.3-0.6,2.3-0.8,3c-0.2,0.7-0.3,1.2-0.3,1.6c0.1,0.8,0.5,1.2,1.1,1.1
					c0.5-0.1,1.1-0.5,2-1.4c0.8-0.8,1.6-1.8,2.4-2.8l0.2,2.2c-1.1,1.4-2.4,2.7-3.7,3.8c-1.3,1.1-2.6,1.7-3.9,1.7
					c-0.8,0.1-1.5-0.2-2.2-0.6c-0.6-0.5-1-1.4-1.1-2.7c-0.1-0.7,0.1-1.6,0.3-2.7c0.3-1.1,0.6-2.4,1.1-4.1c0.5-1.6,0.7-2.6,0.7-2.9
					c0-0.4-0.2-0.7-0.6-0.6c-0.8,0.1-2.6,2.1-5.4,6.1c-0.2,1.5-0.3,2.7-0.3,3.7c0,1,0.1,2.1,0.1,3.3l-4.4,1.4
					c-0.3-1.5-0.4-2.9-0.5-4.1c-0.2-2.2,0-4.3,0.4-6.3C319.8,547.5,320.4,545.4,321.2,543.2"/>
				<path d="M363.6,528.6c0.1-0.1,0.3,0,0.6,0.2c0.3,0.2,0.5,0.3,0.7,0.5c-0.5,0.7-0.8,1.4-1,2.1c-0.2,0.7-0.3,1.7-0.3,2.8
					c0,1.2,0.1,2.7,0.3,4.7c0.2,1.8,0.3,3.4,0.2,4.9c-0.1,1.5-0.3,2.7-0.6,3.9c-0.3,1.1-0.8,2.2-1.5,3.2c-0.8,1.2-1.8,2.3-3.1,3.3
					c-1.3,1-2.9,1.7-4.6,2.1c-1.8,0.4-3.2,0.3-4.4-0.4c-1.1-0.7-1.8-1.6-2.1-2.7c-0.1-0.5-0.1-0.9,0.2-1.2c0.3-0.5,0.8-1,1.7-1.8
					c0.8-0.7,1.3-1.1,1.6-1.2c0.2,0,0.4,0,0.7,0c0.2,0.1,0.3,0.3,0.4,0.5c0.1,0.2,0.1,0.6,0.2,1.5c0.1,0.8,0.1,1.4,0.2,1.6
					c0.4,1.5,1.2,2.2,2.6,1.9c0.4-0.1,0.8-0.3,1.3-0.8c0.4-0.4,0.8-0.7,1-1.1c0.7-1.2,1.1-2.6,1.2-4.4c0.1-1.8,0.1-3.6-0.2-5.4
					c-0.2-1.9-0.3-3.6-0.3-4.9c0.1-1.3,0.2-2.5,0.4-3.3c0.2-0.9,0.6-1.7,1-2.5c0.7-1,1.4-1.9,2.2-2.4
					C362.8,529,363.3,528.7,363.6,528.6 M360.2,525c1.6-0.4,3-0.5,4.1-0.3c1.2,0.1,2.3,0.4,3.2,1c0.9,0.5,1.6,1.1,2.2,1.9
					c0.5,0.8,0.9,1.6,1.1,2.5c0.3,1.2,0.3,2.3,0.2,3.2c-0.2,1-0.5,1.8-1,2.7c-0.3,0.5-0.7,1-1.2,1.4c-0.5,0.5-0.9,0.7-1.2,0.8
					c-0.6,0.1-1.1,0-1.8-0.4c-0.2-0.1-0.3-0.3-0.3-0.4c-0.1-0.2,0-0.4,0.2-0.6c0.1-0.3,0.3-0.6,0.4-0.9c1.1-2,1.4-4,0.9-5.8
					c-0.2-1-0.7-1.8-1.3-2.4c-0.7-0.6-1.5-1-2.4-1.2c-0.9-0.1-1.8-0.1-2.8,0.1c-1.8,0.4-3.4,1.2-4.8,2.3c-1.4,1.1-2.4,2.4-3.1,3.7
					c-0.6,1.4-0.9,2.6-0.6,3.7c0.2,0.9,0.6,1.5,1.1,1.8c0.3,0.2,0.6,0.3,1,0.3c0.4,0.1,0.6,0.2,0.8,0.2c0.1,0.1,0.2,0.3,0.3,0.6
					c0.1,0.3-0.3,0.8-1.2,1.5c-0.9,0.7-1.5,1-1.8,1.1c-0.6,0.1-1.3-0.1-2-0.8c-0.6-0.7-1.1-1.5-1.3-2.4c-0.3-1-0.3-2.1,0-3.3
					c0.2-1.1,0.7-2.4,1.6-3.6c1-1.6,2.3-3,3.9-4.2C355.8,526.4,357.8,525.6,360.2,525z"/>
				<path d="M374.4,546.2l-0.4,0.1l-0.5-1.6c0.8-1.7,1.3-3.1,1.5-4.3c-1.2-0.1-2-0.6-2.4-1.7c-0.1-0.3-0.2-0.9-0.2-1.7
					c-0.1-0.8,0.1-1.6,0.5-2.5c0.4-0.9,1-1.4,1.9-1.8c1-0.3,1.6,0.1,2,1.1c0.3,0.8,0.3,2,0.3,3.6c2-0.9,3.3-3.2,3.9-6.7l1.7-0.7
					l-0.1,5.5c0,0.2,0,0.8,0,1.8c0,1.1,0,2,0.1,2.9c0.1,0.9,0.2,1.5,0.3,2c0.2,0.6,0.5,1,0.9,1.2c0.4,0.2,0.7,0.2,1.1,0.1
					c0.4-0.1,0.8-0.4,1.1-0.9c0.4-0.4,0.7-1.1,1.2-2c0.4-0.9,0.7-1.4,1.4-2.8l0.7,2.2c-1.2,2.5-1.9,3.7-2.5,4.7
					c-0.6,1-1.2,1.8-1.8,2.4c-0.6,0.6-1.2,1-1.8,1.2c-0.8,0.3-1.6,0.2-2.4-0.3c-0.7-0.5-1.3-1.2-1.7-2.3c-0.3-0.9-0.4-2.1-0.3-3.6
					c0.1-1.4,0.4-2.9,0.8-4.4l-0.1,0c-0.7,0.8-1.6,1.5-2.6,2C376.4,541.5,375.7,543.6,374.4,546.2"/>
				<path d="M404.9,533.4c-0.1,0.3-0.2,0.6-0.3,0.8c-0.1,0.3-0.3,0.5-0.5,0.7c-0.2,0.2-0.5,0.4-0.9,0.6c-0.8,0.3-1.7,0.3-2.5-0.1
					c0-1.9-0.2-3.6-0.4-5.2c-0.3-1.5-0.6-2.8-1.1-3.9c-0.3-0.6-0.5-1.1-0.7-1.4c-0.2-0.3-0.7-0.4-1.3-0.4c-0.7,0-1.6,0.2-2.8,0.7
					c-1,0.4-2,1.1-3,2.1c-1,0.9-1.8,2-2.4,3.3c-0.6,1.3-1,2.7-1.1,4.4c-0.1,1.6,0.2,3.2,0.9,4.8c0.5,1.3,1.2,2.3,2.1,3
					c0.8,0.7,1.7,1,2.6,1.1c0.9,0.1,1.7,0,2.5-0.3c1.2-0.5,2.2-1.3,3-2.5c0.7-1.2,1.3-2.5,1.5-4.1c0.8,0.1,1.5,0.2,1.9,0.1
					c0.5,0,1-0.2,1.4-0.3c0.6-0.2,1.1-0.6,1.4-1c0.4-0.5,0.7-1,1.2-2.3l-0.9-2.1C405.2,532.6,405,533.1,404.9,533.4 M398.3,538.9
					c-0.3,0.6-0.6,1-1.1,1.2c-0.8,0.3-1.5,0.2-2.2-0.4c-0.7-0.6-1.2-1.4-1.7-2.4c-0.6-1.5-1-3.1-1.2-4.5c-0.2-1.5,0-2.8,0.5-3.9
					c0.5-1.1,1.2-1.9,2.3-2.3c0.4-0.2,0.7-0.3,0.9-0.2c-1.1,2.1-1.3,4.1-0.5,6.2c0.7,1.8,1.9,3.1,3.7,4
					C398.8,537.5,398.6,538.3,398.3,538.9z"/>
				<path d="M417.4,529.8c-0.5,0.9-1.2,1.5-2.2,1.9c-1,0.4-2,0.5-3,0.1c-1-0.4-1.8-1-2.4-2c1-0.9,2-1.8,3-2.8c1-1,1.7-2.2,2.3-3.4
					c0.6-1.2,0.6-2.4,0.1-3.6c-0.3-0.5-0.6-1-1.1-1.4c-0.5-0.4-1.1-0.6-1.8-0.6c-0.7-0.1-1.5,0.1-2.4,0.5c-1,0.4-1.9,1.1-2.6,2.1
					c-0.8,1-1.4,2.1-1.8,3.5c-0.4,1.3-0.6,2.8-0.6,4.2c0.1,1.5,0.4,2.9,1,4.1c0.8,1.8,2,3,3.5,3.6c1.5,0.5,3.1,0.5,4.6-0.2
					c0.9-0.4,1.8-1,2.5-1.7c0.8-0.7,1.4-1.6,2-2.6c0.6-1,1.2-2.3,1.8-3.9l-0.9-2.1C418.6,527.6,418,528.9,417.4,529.8 M408.1,525
					c-0.1-1.1,0-2.1,0.2-2.9c0.3-0.8,0.7-1.4,1.3-1.7c0.8-0.4,1.6,0,2.1,1.2c0.5,1.1,0.5,2.3,0.2,3.6c-0.4,1.2-1.3,2.4-2.7,3.4
					l-0.2-0.4C408.5,527.2,408.2,526.2,408.1,525z"/>
				<path d="M416.6,508.5c0,1.7,0.1,3.7,0.3,5.9c0.2,2.2,0.5,4.4,0.9,6.5c0.4,2.2,1,4,1.7,5.7c0.7,1.7,1.6,2.8,2.5,3.4
					c0.9,0.6,1.8,0.9,2.5,0.8c0.8-0.1,1.4-0.2,2-0.4c0.9-0.4,1.9-1.2,2.8-2.5c1-1.3,2-3.1,3-5.5l-0.9-2.1c-0.7,1.9-1.4,3.3-1.9,4.2
					c-0.5,0.9-1.1,1.6-2,2c-0.7,0.3-1.3,0.2-2-0.3c-0.6-0.5-1.2-1.2-1.6-2.2c-0.4-0.9-0.8-1.9-1-2.7c0.4-1.4,0.9-2.8,1.2-4.3
					c0.4-1.5,0.6-3.1,0.7-4.6c0.2-1.5,0.1-3-0.1-4.6c-0.2-1.6-0.6-3.1-1.3-4.5c-0.4-1-0.9-1.7-1.4-2.1c-0.5-0.4-1-0.4-1.4,0
					l-3.9,3.8C416.7,505.5,416.6,506.7,416.6,508.5 M422.4,504.7c0.4,0.9,0.7,1.9,0.8,3.2c0.2,1.2,0.2,2.5,0.1,3.8
					c-0.1,1.4-0.2,2.6-0.4,3.7c-0.2,1.1-0.5,2.1-0.7,2.8l-0.1-0.1c-0.7-2.8-1.1-5.4-1.4-7.6c-0.3-2.2-0.4-3.9-0.3-5.1
					c0.1-1.2,0.3-1.9,0.5-2C421.5,503.3,421.9,503.7,422.4,504.7z"/>
				<path d="M428.6,501.5c0.3,0.1,0.7,0.1,0.9,0.1c0.3,0,0.6,0,0.9,0c0.3,0,0.6-0.1,0.9-0.2c0.6-0.3,1.2-0.8,1.6-1.6
					c0.7,1.5,0.9,2.7,0.6,3.7c-0.3,1-1,1.7-1.9,2.1c-1.1,0.5-2.1,0.6-3.2,0.3C428.8,504.5,428.8,503,428.6,501.5 M430.3,510.7l4.3-3
					l0.2-0.1l0.7,6.6c0.1,0.4,0.1,0.9,0.2,1.5c0.1,0.6,0.1,1,0.2,1.3c0.1,0.3,0.1,0.7,0.3,1.3c0.1,0.6,0.3,1.1,0.4,1.4
					c0.2,0.4,0.4,0.7,0.6,0.9c0.3,0.2,0.6,0.2,0.9,0.1c0.6-0.3,1.1-0.7,1.4-1.4c0.3-0.7,0.7-1.7,1.1-3l0.9,2.1
					c-0.6,2-1.4,3.6-2.2,4.9c-0.9,1.3-1.5,2.1-2.2,2.4c-0.7,0.3-1.5,0.2-2.4-0.2c-0.9-0.4-1.7-1.4-2.3-2.8c-0.8-1.7-1.3-3.7-1.5-5.8
					C430.6,514.7,430.4,512.7,430.3,510.7z"/>
				<path d="M456.8,510.8c-0.1,0.3-0.2,0.6-0.3,0.8c-0.1,0.3-0.3,0.5-0.5,0.7c-0.2,0.2-0.5,0.4-0.9,0.5c-0.8,0.4-1.7,0.4-2.5,0
					c0-1.9-0.2-3.7-0.4-5.2c-0.3-1.5-0.6-2.8-1.1-3.9c-0.3-0.6-0.5-1.1-0.7-1.3c-0.2-0.3-0.7-0.4-1.3-0.4c-0.6-0.1-1.6,0.2-2.8,0.7
					c-1,0.4-2,1.1-3,2c-1,1-1.8,2-2.4,3.3c-0.6,1.3-1,2.8-1.1,4.3c-0.1,1.6,0.2,3.2,0.9,4.9c0.5,1.3,1.2,2.3,2.1,3
					c0.8,0.7,1.7,1,2.6,1.1c0.9,0.1,1.7,0,2.5-0.3c1.2-0.5,2.3-1.3,3-2.5c0.8-1.1,1.3-2.5,1.6-4.1c0.8,0.1,1.4,0.2,1.9,0.1
					c0.5,0,0.9-0.1,1.4-0.3c0.6-0.2,1.1-0.6,1.5-1c0.4-0.5,0.7-1,0.9-1.7l-0.9-2.1C457.1,510.1,456.9,510.5,456.8,510.8
					 M450.2,516.3c-0.3,0.6-0.7,1-1.1,1.1c-0.8,0.3-1.5,0.2-2.2-0.4c-0.7-0.6-1.2-1.4-1.7-2.4c-0.6-1.6-1-3.1-1.2-4.6
					c-0.2-1.5,0-2.8,0.5-3.9c0.5-1.2,1.2-1.9,2.3-2.4c0.4-0.2,0.7-0.2,0.9-0.2c-1.2,2.1-1.3,4.1-0.5,6.2c0.7,1.8,1.9,3.1,3.7,4
					C450.8,514.9,450.5,515.7,450.2,516.3z"/>
				<polygon style="fill:#FDC56F;" points="136,41 150,-0.2 164.1,41 207.7,41.7 172.9,67.8 185.7,109.4 150,84.3 114.5,109.4 
					127.3,67.8 92.5,41.7 				"/>
				<polygon style="fill:none;stroke:#000000;stroke-width:8.100000e-002;" points="136,41 150,-0.2 164.1,41 207.7,41.7 
					172.9,67.8 185.7,109.4 150,84.3 114.5,109.4 127.3,67.8 92.5,41.7 				"/>
				<path style="fill:none;stroke:#000000;stroke-width:8.100000e-002;" d="M150,84.3c0.2-0.8,0-23.9,0-23.9l22.8,7.4 M164.1,41
					L150,60.4V-0.2 M92.5,41.7L150,60.4l-22.8,7.4 M185.7,109.4l-35.6-49l57.6-18.7 M136,41l14,19.4l-35.6,49"/>
				<polygon style="fill:#FDC56F;" points="281.3,41 295.4,-0.2 309.5,41 353,41.7 318.2,67.8 331,109.4 295.4,84.3 259.8,109.4 
					272.6,67.8 237.8,41.7 				"/>
				<polygon style="fill:none;stroke:#000000;stroke-width:8.100000e-002;" points="281.3,41 295.4,-0.2 309.5,41 353,41.7 
					318.2,67.8 331,109.4 295.4,84.3 259.8,109.4 272.6,67.8 237.8,41.7 				"/>
				<path style="fill:none;stroke:#000000;stroke-width:8.100000e-002;" d="M295.4,84.3c0.1-0.8,0-23.9,0-23.9l22.8,7.4 M309.5,41
					l-14.1,19.4V-0.2 M237.8,41.7l57.6,18.7l-22.8,7.4 M331,109.4l-35.6-49L353,41.7 M281.3,41l14.1,19.4l-35.6,49"/>
				<polygon style="fill:#FDC56F;" points="425.4,41 439.5,-0.2 453.5,41 497,41.7 462.2,67.8 475.1,109.4 439.5,84.3 403.9,109.4 
					416.7,67.8 381.9,41.7 				"/>
				<polygon style="fill:none;stroke:#000000;stroke-width:8.100000e-002;" points="425.4,41 439.5,-0.2 453.5,41 497,41.7 
					462.2,67.8 475.1,109.4 439.5,84.3 403.9,109.4 416.7,67.8 381.9,41.7 				"/>
				<path style="fill:none;stroke:#000000;stroke-width:8.100000e-002;" d="M439.5,84.3c0.2-0.8,0-23.9,0-23.9l22.8,7.4 M453.5,41
					l-14.1,19.4V-0.2 M381.9,41.7l57.6,18.7l-22.8,7.4 M475.1,109.4l-35.6-49L497,41.7 M425.4,41l14.1,19.4l-35.6,49"/>
				<polyline points="486.2,488.2 501.9,488.2 501.9,490.5 495.3,490.5 495.3,507.5 492.7,507.5 492.7,490.5 486.2,490.5 
					486.2,488.2 				"/>
				<path d="M520.3,507.5v-11.4c0-0.6,0.1-3,0.1-4.8h-0.1l-5.4,16.3h-2.6l-5.4-16.2h0c0,1.8,0,4.2,0,4.8v11.4h-2.5v-19.4h3.7
					l5.5,16.3h0l5.5-16.3h3.8v19.4H520.3"/>
			</g>
		</g>
	</g>
</g>
</svg>
