<?xml version="1.0" encoding="utf-8"?>
<!-- Generator: Adobe Illustrator 16.0.0, SVG Export Plug-In . SVG Version: 6.00 Build 0)  -->
<!DOCTYPE svg PUBLIC "-//W3C//DTD SVG 1.1//EN" "http://www.w3.org/Graphics/SVG/1.1/DTD/svg11.dtd">
<svg version="1.1" id="Layer_1" xmlns="http://www.w3.org/2000/svg" xmlns:xlink="http://www.w3.org/1999/xlink" x="0px" y="0px"
	 width="600px" height="600px" viewBox="0 0 600 600" style="enable-background:new 0 0 600 600;" xml:space="preserve">
<path style="fill-rule:evenodd;clip-rule:evenodd;fill:#231F20;" d="M79.4,430c-3.4,9.1-7.6,20.2-7.6,20.2
	c2.8,2.1,15.2,4.2,15.2,4.2c6.2-5.5,13.8-3.5,17.7-3.1c3.8,0.3,13.8,8,14.9,8c1,0,15.2-0.3,29.8,1.7c14.5,2.1,20.1,11.8,20.8,14.9
	c0.7,3.1-2.9,10.1-3.5,13.2c-0.2,1-0.1,3.7-0.1,3.7c86.4,25.4,135.2,22.6,135.2,22.6s0-0.8-9.9-11.7c-9.9-10.9-31.9-23.6-50.6-34.3
	c-18.7-10.6-29.6-20.5-38.4-31.9c-1.7-2.2-3.1-4.8-4.3-7.4h0l0,0c-4.7-10.7-5-22.7-5-22.7l-0.9,0.1c0.5,4.4-1.6,6.9-2.3,10.8
	c-1.5,2.1-1.7,5.2-3.2,7.5c-0.4,1.9-1.9,2.8-2.9,4.4c0,0.1-0.1,0.1-0.1,0.2l0.2,0.3c-2.2,2.8-5.1,4.3-8,6.2
	c-1.1,0.1-1.5,1.1-2.5,1.6c-4.1,1.8-8.6,3.8-12.6,4.3l-0.5,0.5c-4.4,0-9.3,1.2-14.4-0.2c0.1-0.3-0.2-0.4-0.3-0.5
	c0,1-1.3,0.7-1.8,0.5c-0.5-0.5-1.6-0.2-2.3-0.5c-1,0.5-2-1.1-3-0.7l-0.7-0.7l-0.2,0.3c-2.2-0.5-3.5-2.3-5.7-2.3
	c-1.2-1.9-4-1.8-5.2-3.7c-2.1-1.4-4.1-3.2-5.9-5.2h0l0,0c-3.5-3.9-6.4-8.7-8.8-13.3c-3.8-7.1-4.4-15.4-6.2-23.3
	c-1.3-1.9-4.1-2.6-4.1-5.3c2.3-1.9,4.1-4.6,3-7.5c-1.1-2.5-2.5-5-5.7-5.2c-0.5-0.7-1.2-1.5-0.9-2.5c1.4-0.5,2.6-1.6,3.9-2.3
	c3.1-2,4-6.5,3.9-9.4c-0.2-3.2-3.3-5.3-5.2-7.3l0.2-2c2.5,0.7,5.4-1,7.1-3c-0.6-2.4-3.4-1.1-4.4-2.8c-1.1,0.8-2.5-1.6-3.2,0.5
	c0.2-0.4-0.3-0.6-0.5-0.9c-5.5-0.1-9.5-1-15.1,0.4c-1.1-0.1-1.7,1-3,0.7c-0.6,0.7-1.7,1.4-2.7,1.6c-1.1,1.3-2.8,2.1-3.2,3.8
	c-1.9,1.2-2.4,3.4-3.2,5.3l-0.5,0.4c-1.5,4.8-0.2,9.3,0.7,14c2.4,7.8,6.4,19,0.9,26.9c-1.1-2.1-0.5-5.4-2.3-7.5
	c-3.7-5.6-9.4-7.7-13.2-12.8c-0.1-0.3,0.2-0.8-0.3-0.9c-0.5-0.1-0.8,0.1-1.1,0.5c-0.2,0.8,0.4,1.9-0.5,2.5c-2-1.4-1.7-4.3-2-6.6
	c0.6-2.9,0.5-5.8-0.5-8.5c0.2-1.4-1.1-2.8-1.6-4.2c-0.9-0.3-2.2,0.4-2.7,1.1c-1.1-0.3-0.7-1.6-0.9-2.5c3.5-3.2,3.6-7.8,4.3-12.1
	c0.5-1.9-1.6-0.8-2-2.3c0,0.7-0.9,0.4-1.1,0.2c-0.2-0.3-0.5-0.2-0.7-0.2c-0.7-1.9,1.5-1.5,2.1-2.5c4.6-5.2,5.2-13.3,12.4-15.7
	c0.3-0.3,0.5-0.7,0.9-0.7l0.3,0.3L66,326c-3.3-3.3-4.1-7.8-7.1-11v-1.6c1.8-0.1,4.4-0.3,5.5-1.8c1.6-0.1,3-0.6,4.4-1.4
	c-0.6-2.6-2.2-5.5-3.2-8.2c-1.7-7-1.6-12.9-1.8-19.9c1.5-0.3,0.8,2.8,2.3,1.4c0.5-5.6,0.6-10.9,2.5-16.5c0.9-0.1,0.9,0.9,1.4,1.4
	c0.1,0.6-0.3,1.3,0.5,1.6c1.3,0.1,0.6-1.5,1.1-2.1c2.3-5.5,4.2-11.1,8.9-15.5l1.4-0.7c1.1,1-0.3,3.4,1.1,3.9c1.2-2.6,4.6-4.4,5-7.3
	c1.1-0.8,0.6-2.4,1.3-3.4c0.5-1,0.7-2.3,0.9-3.4c1.7,0.3,1.4,3.1,2,4.6c0,5.3,0,10.4-0.9,15.6c-1.1,2-0.5,4.8-1.1,7.1
	c-0.2,9.2-1.1,18.1,2.5,26.3c0.7,2.5,1.9,4.9,2.8,7.3c1.9,1.8,1.8,3.9,3.6,5.7c0.4,1.3,1.4,2.4,1.9,3.4c3.7,4.3,9.3,8.9,14.6,11.9
	c0.8,0.1,0.8,1.2,1.8,1.1c1.4-1.9,0.5-4.7-0.2-6.6c-0.1-2.4-3.7-4-1.6-6.4c1.4,0,2.2-1.1,3.4-1.3c1.7-1,3.5-2.6,4.4-4.6
	c0.6-4.3-1.7-7.7-4.8-10.3c-0.2-1.1,1.1-1.5,1.9-1.8c4.1-0.2,6.3-4.8,7.5-8.3c1.3-4.2-0.1-9-3.4-12.1c-0.5-1.8,1.5-1.1,2.3-1.6
	c4.4-1.4,6.7-6,7.5-10.1c1.2-4.1,0.4-8.7-1.1-12.8c-1.3-5.8-5.2-11.1-10-14.2c-5.5-3.7-14.5-8.5-15.6-16.7c-0.2-1.6,0.4-3.8-0.7-5
	l-0.5,0.4c-2.8,0.8-5.7-0.2-7.3-1.8v-0.7c0.9-0.1,1.5-0.3,2.5-0.2c-0.2-1.8,2.1-0.7,1.8-2.5c1.8-2.5,1.2-6,2.3-8.9
	c-0.3-0.2-0.5-0.6-0.9-0.4l-0.7,0.7c-0.4-0.7-0.7,0.3-1.1,0.2c-1.8,0.5-3.6-0.7-5.2-1.3v-1.8c0.8,1.6,1.9-0.1,2.7-0.5
	c0.5-1.4,2.6-1.7,2.8-3.4c-1.5-0.7-5,1.2-5.8-1.4c-0.2-1.2,0.8-1.1,1.6-1.6c1.3-2,2-4.5,3-6.4c-0.5-0.2-0.8-0.6-1.1-0.9l-0.5,0.9
	l-0.9-0.7l-0.5,0.7c-0.9-0.8-1.2-2.2-0.5-3.2c0.9-0.9,2-1.7,1.9-3c-0.2-0.4-0.6-0.2-0.9-0.2c-0.5-0.5-1.9-0.7-1.3-2.1
	c2.6-1.4,4.9-3.3,4.6-6.4c0.8-1.6,2.6-2.3,4.1-3.4l-0.2-0.2c1.1-0.7-0.7-1.8-0.7-2.8c0-1.3,1.7-2.1,2.5-2.5c0.9-1.6,0.6-4,3.2-3.9
	c0.5,0,0.9-0.1,1.1-0.5c-0.4-1.5-1.6-3-1.1-4.6c1.5-1.2,1.7-0.3,3.2-1.1c0.1,0.1,0.2,0.3,0.5,0.2c0.3-1.4-0.7-3,0-4.6
	c1,0.1,1.8-0.2,3,0.3c1.6-1-0.2-2.6,0.7-3.9c0.5-0.2,0.8-0.8,1.1,0c0.9-1,2.1,0,3.2,0l0.9,0.9c1.2-1.2,0.2-2.3,0.2-3.8
	c0-0.5,0-0.9-0.5-1.1c-0.1-1,0.4-3.3,2.1-2.3c0.6,0.7,1.2-0.4,1.3,0.7l0.5-0.5c0.3,1.2,1.8,0.4,2.3,1.6c0.9-1.3-1.1-3.2,0.2-4.4
	v-0.7l2.3,0.2l-0.2,0.3c1.1,0.6,2.6,0.6,3.9,0.9c0.2,0.8,1.3,1.2,2,1.8c1.5-1.5,1.6-4.4,3.7-5.5c0.5-0.9,1.3-1.5,2.3-1.8
	c0.8-1,2-1,3.2-0.9c1.1,1.6-1.1,2.7-1.1,4.4c-0.4,1.7-0.9,4.6,0.9,5.9c1.1,0.5,1.4,1.8,2.5,1.8c0.7-1.1,1.2-2.6,2.3-3.2
	c0.4-0.9,0.9-2.1,2-2.3l-0.2-0.3c0.3,0.2,1.2-1.1,1.8-1.3c1.5-2.1,2.5-4,4.1-6c1.8,1.1,0.6,2.7,1.6,4.2c-0.6,1.1,0.2,2.3,0.2,3.4
	l-0.4,0.4c0.8,1.6-0.8,3.3,0.4,4.8c1.5-1.3,2.1-1.6,3.9-2.1c0.3-0.8,1.5-0.7,2.3-0.7c1.5,3.4,1.5,7.6-0.9,10.5
	c-0.8,1.8-3,2.4-3.4,4.3c3.6,2.5,6.6,6.5,8.5,10.3l0.9,0.9l-0.2,0.2c3,2.9,6.6,6.1,10.3,8.9c1.5,2,2.9,3.8,4.8,5.2
	c2.4,3.1,4.9,5.9,5.7,9.9c-0.7,3.9,4.8,8.7-1.1,11.4c-0.5,0.3-1.5,0-1.6,0.9c-1.3-2-2,0.9-3.7,0.3c-0.2,0.8-1.9-0.8-2.3,0.7
	c0.5,1,1.3,2.3,2.3,2.8c1.2-0.3,2-3.2,3.7-1.8c2,0.9,2,3.5,1.6,5.5c-0.2,1.7-2.6,1.7-2.7,3.2h-0.9c-0.1-0.3,0.1-0.4,0.2-0.5
	c-0.2-0.6-1-0.6-1.4-0.2l-0.2,0.2l0.2,0.2c0.3-0.2-0.5,0.5-0.9,0.3l0.5-0.5c-0.8-0.9-2.4-0.1-3.4-0.7c-1.7-1-2.9-3.8-4.8-2.5
	c-2.9,0.3-7.3-0.2-9.9-2.3c-1.3-0.5-2-2.1-3-3.2c-3.6-2.1-5.2-7-10.5-5.5c-1,0.1-0.5,1.1-1.1,1.6c0.7,1.2,1.9,1.9,2.5,3
	c0.9,0,1,0.9,1.8,1.1c1.7,0.9,3.4,2.2,5,2.8c1.5,0.7,2.3,2.2,4.1,2.5c1.5,1.3,2.8,2.5,4.6,3l-0.2,0.7c1.8-0.2,2.3,1.4,3.6,2
	c0.3,0.8,2,1.1,3,2.3c8.6,7.3,15.6,17,18.9,27.9l0.5,0.5c4-5.2,5.6-11.8,8-17.8c2.2-4.4,5.6-9.4,10.1-10.3l0.2-0.3l6.9,0.3
	c-0.3,1,0.8,0.5,1.1,0.9c1.5-0.7,1.3,1.4,2.5,0.7c1.2,0.9,2.6,1.9,3.8,2c0.2,1.1,2,0.9,2.1,2.1c0.1-0.1,0.3-0.3,0.2-0.5
	c0.8-0.4,1,1.2,1.6,0.5l0.9,0.9c0.1-0.3,0.5-0.2,0.7-0.2c-0.1,0.4,0.3,0.5,0.5,0.7c2.8,0.3,4.5,2.2,6.9,2.8c4.6,1,9,4.2,11.4,8.9
	c2.1,0.5,2.3,2.7,4.1,3.2c2.8,1.2,5.6,3.1,8,4.6c3.2,2.5,5.7,6,8.3,9.2c0.1,0.2,0.2,1.1-0.5,1.3c-0.9-1.1-1.9,0.2-3,0.2
	c-1,1.4-2.7,2.2-4.2,3c-1.1-0.2-3-2-4.1,0c-1.2,0.2-2.6,2.4-4.1,1.4c-2.1,0.7-4.1-1.4-6.2,0c-1.3-0.1-3.5-0.7-4.6-1.1
	c-1.2,0.2-2.4-0.4-3.6,0.5c-0.3-1.1-2.3-1.5-1.6-3c1-1.6,1-3.9,0.9-5.7c-0.1-2.2-0.5-4.5-1.8-6c-0.1,0.8-0.9,0-1.3,0.7
	c-3.8-0.6-4.9-4.5-7.8-6.2c-1.2-1.7-3.5-1.8-5-3.4c-1.9-0.4-4-1-5.7-1.4c-2.1,0.7-3.2,2.9-4.3,4.8c0,2.6-2,5-0.9,7.6h0.2
	c0,0,4.9-9.9,17.6-3.4c0,0,4.4,1.3,6,12.2l-1.8,6.5c0,0,9.6,4.4,21,2.3c11.4-2.1,20-7.3,20-7.3s0.8-2.3,1.6-3.1
	c0.8-0.8-0.8-2.6-1.6-4.4c-0.8-1.8-0.5-6.2,0.5-9.1c0,0,2.1-1-1.8-0.3c-3.9,0.8-12.7,2.1-16.4-0.3c-3.6-2.3-10.1-7.8-4.4-14
	c0,0,2.3-1,3.1-1.6c0.8-0.5,0.3,0.3,0.5-3.4c0.3-3.6,0-88.8,0-88.8s-2.1-4.2,0.5-7V83.6c0,0-2.1-4.4,1-8.6l-0.7-51
	c-8.7-4.7-6.7-8-6.9-12.3c-0.2-4.3,4-9.9,11.4-10c7.4-0.2,10.4,7.6,11.3,10.7c0.9,3.1,0,2.9,0,2.9c3.8-1.6,5-1.9,16.3-2.3
	c11.2-0.3,21.5,3.8,30.3,7.8c8.8,4,20.9,8.8,29.8,11.4c8.8,2.6,16.6,3.5,22,4.2c5.4,0.7,9.5,1,23.9,0.3c14.4-0.7,24.4-6.4,24.4-6.4
	l0.5,1c-11.1,23.2-34.3,26.7-52.1,29.2c-17.8,2.6-32.2-0.9-38.1-1.6c-5.9-0.7-31.5-5.5-44.3-6.1c-12.8-0.5-20.4,5.5-20.4,5.5l0,0
	c-0.4,4.4-1.6,9.3,1.8,12.8c3.3,2.5,2,7.3,4.6,10.3c3,3.9,6.7,6.7,9.4,11c1.2,0.4,1.2,1.7,1.8,2.5c1.5-1.8,2.6-4.5,3.2-7.1
	c0.9-2.5,3.7-4.2,6.4-5.2c1.1-1.4-0.3-3.5,1.1-5c0.6-2.5,2.1-4.7,3.2-7.1c0.3-0.1,0.4,0.3,0.7,0.5c-0.3,0.9,0.5,1.1,0.9,1.6
	c0.9-3.2,4.5-4.9,6.4-7.3c1.1-0.1,1.1-1.4,2.3-1.1c0.7-1.1,0.9-2.4,2.5-2.5l-0.2-0.2l0.9,0.9c1.9-1.2,2.5,3.1,4.2,0.3
	c0.6-0.3,0.4,0.4,0.7,0.7c3.3-0.2,5.6,2.4,6.9,5.2c-0.2,0.5,0.3,0.8,0.5,1.1c0.2,0,0.6,0.1,0.7-0.2c-0.2-0.7,0.2-0.7,0.7-0.9
	c1.5,2.3,3.8,3,3.7,6c-0.4,2.3-2.5,4.7-0.7,7.1c0.3,1.8-1.2,3.8-2.5,4.8c-1.2,0.4-2.3,0.9-3.2,2c-0.5,1.2,0.8,2,1.6,2.3
	c0.3-0.1,0.2-0.5,0.2-0.7c0.8,0.2,1.3-0.5,2.1-0.2c0.3,2.8-2.8,4.5-4.4,6.4c0.4,2.9-0.2,5.1-2.3,7.3c-4,1.7-5.9,6.3-9.1,8.7
	c-3.5,6.4-2,13.9-1.3,20.6c0.6,2.3,1.5,4.8,2.7,6.6c0.4,0.4,1.1,0.2,1.6,0.2c1.7-1.9-0.8-6.3,2.3-6.2c1-1.3,0-3.7,0-5.2
	c-0.6-5.9,1.5-11.9,6.6-15.1c0.8,0.2,1.5-0.6,2.1-0.3c1.8-1.5,1.9-4.5,4.4-5.4l0.2-0.7c-0.1-0.4,0.1,0.9,0.7,0.5
	c0.3-1,1.5-0.8,2.3-1.1c0,0.3,0.1,0.4,0.3,0.5c0.4-1.9,3.6-1.1,5-1.6c1.5-0.9,3.6-0.7,4.4-2.7c0.1-1.1,0.2-2.5-1.1-3.2
	c-0.8,0.3-0.8-0.5-1.1-0.9c0.4-1.3,2.5-0.9,3.6-0.7c0.3,0.4,0.7,0.5,1.1,0.5c1.9,1.3,3.7,2.8,4.6,4.8c0.7,1.9-0.4,3.8-0.3,5.5
	c1.6-0.7,1.7-2.9,2.5-4.4c-0.3-1,0.9-1.3,1.1-2c0.2,0,0.6,0.1,0.7-0.3v-0.5c0.9-0.1,2.1,0,2.5-0.9l2.3,0.2l-0.2,0.3
	c0.6,0.2,1.4-0.6,2.3,0c0.3,0.6,1.7-0.1,1.6,1.1c-0.4,1.6-2.4,1.9-3,3.4c-3.6,4.4,1.8,11.5-4.6,14.2c-2.6,1-4.4,1.8-7.3,1.4
	c-1.2,1,0.4,2.3-0.4,3.4c-0.4,0.5-0.2,1.5-0.3,1.8c-0.7,0.5-0.5,1.4-0.9,2.1c-1.9,1.3-2.7,4.1-5.3,3.6v0.5l-4.6-0.2
	c0.5-0.1,1,0.2,1.4-0.3c-2.7,0.4-3.8-2.2-5.2-3.6c-1-2.2-2.1-4.9-1.4-7.3c-0.1-0.4,0.3-0.5,0.5-0.7l-0.2-0.3h0.9
	c1.8,2,1.8,5.3,4.6,6.2c0.8-1.6,2.6,0.3,2.8-1.8c0.5-2.9-1.5-5.3-3.4-6.6c-2.4-0.8-4.7-0.6-6.9,0.7c-3,0.4-4.4,4-5,6.6
	c-0.1,2.2-1.1,6.5,0.9,8.7l0.4-0.2l8.8-0.3c0,0,0.9,0.2,0.9,1.6c0,1.4-0.7,10.7-1.6,11.4l-3.5,0.3c0,0-3.8,5.5-5.2,6.6
	c-1.4,1-2.8,1.4-2.8,1.4s-0.4,0.5-0.7,1.2c-0.3,0.7,1.2,0.7,1,2.1c-0.2,1.4-1.6,1.7-1.9,3.6c-0.3,1.9,0.3,25.8,0.3,26.8
	c0,1,0.7,3.1,2.9,3.1c0,0-0.3,2.8,0,5c0.4,2.2,0.4,8.1,1.7,8.7c1.4,0.5,1.4,0.5,1.4,0.5s0.9,4.5,2.1,12.8c0,0,2.2,1.7,4.2,1.6
	c0,0,0.9,1.4,1.7,1.2c0.9-0.2,4.2-2.6,10-1.9c1.2,0.1,1.7,0.1,2.6,0.7c0.4,0.3,1.3,0.7,2.1,1.1c2.3,1.5,3.8,3.9,3.8,6.7
	c0,3.1-1.8,5.8-4.4,7.1c-1.2,0.5-2.6,1-4,1.2c-4.1,1.4-11.5,0.3-15-0.4c-3.9-0.8-1.8,0.3-1.8,0.3c1,2.9,1.3,7.3,0.5,9.1
	c-0.8,1.8-2.3,3.6-1.6,4.4c0.8,0.8,1.6,3.1,1.6,3.1s8.6,5.2,20,7.3c11.4,2.1,21-2.3,21-2.3l-1.8-6.5c1.6-10.9,6-12.2,6-12.2
	c12.7-6.5,17.6,3.4,17.6,3.4h0.2v-3.5c-0.4-1.3-1-2.7-0.9-4.1c-1.1-1.9-2.2-4-4.3-4.8c-1.7,0.4-3.8,1-5.7,1.4
	c-1.5,1.6-3.8,1.7-5,3.4c-2.9,1.7-3.9,5.6-7.8,6.2c-0.5-0.7-1.2,0.1-1.3-0.7c-1.3,1.5-1.7,3.8-1.8,6c-0.1,1.8-0.1,4.1,0.9,5.7
	c0.7,1.5-1.3,1.9-1.6,3c-1.2-0.9-2.4-0.3-3.6-0.5c-1.1,0.5-3.2,1.1-4.6,1.1c-2.1-1.4-4.1,0.7-6.2,0c-1.5,1.1-2.8-1.2-4.1-1.4
	c-1.1-2-3-0.2-4.1,0c-1.5-0.8-3.1-1.7-4.2-3c-1-0.1-2-1.4-3-0.2c-0.6-0.2-0.5-1.1-0.5-1.4c2.5-3.2,5-6.7,8.3-9.2
	c2.4-1.5,5.2-3.3,8-4.6c1.8-0.5,2-2.7,4.1-3.2c0.5-1.1,1.2-2,1.9-2.9l0.1,0l0-0.2l0,0c1.7-1.4,3.6-3.4,5.9-4c1-0.3,2.4-1.1,3.4-1.1
	c1.2-1.6,3.6-1.1,5-2.5c1.9,0.4,2.9-1.9,4.6-1.4l0.5-0.7l0.4,0.2c0.1-0.2,0.2-0.4,0.4-0.5l0,0c0,0,0-0.1,0-0.1c1-1,2.8-1,3.7-2.1
	c2.7-0.5,4.4-2.7,7.1-3c3.4-0.6,7.8-0.3,10.3,2.3c7.3,6.9,7.8,16.9,12.8,24.9c0.6,0.4,0,1.6,1.1,1.4c2.6-5.3,3.6-11.4,8-15.8
	c2.2-4.2,5.7-7.4,8.9-11c1-0.7,1.7-1.5,3-2.1c0.7-0.6,2-1.4,2.7-2.1l1.2-0.7l-0.3-0.2c2-0.4,2.2-1.9,4.1-2.3c0.2-0.6,0.5-1,1.1-1.1
	c1,0.2,0.8-1.1,1.6-1.1c3.3-1.6,6.7-3.6,9.6-5.7c1.4-0.6,3.4-1.9,3.9-3.7c-0.9-2.1-3.4-0.7-5-1.1c-1,0.4-1.8,1-2.8,1.8l-4.3,3.7
	c-0.8,1.5-2.4,2.9-3.7,3.9c-0.7-0.1-1.4,0.1-1.8,0.7c-1.6,0.3-4,0.3-5.5,0.9c0,1.1,0.1-0.5-0.5-0.5c-0.7,0.1-1.4,0-1.8-0.7
	c-0.1,0.4-0.6,0.8-1.1,0.7c-0.7,1.3-2.4,1.2-2.7,2.5c-1.3,0-2.7,0.7-3.8,0.5l-0.5,0.9c-0.1-2.2-4.6-0.3-4.4-3.4
	c0-0.5,0.1-1.1-0.5-1.4c0-1.8,1-3.3,2.1-4.3c1.9-1.2,4.6,4.7,5.7-0.3c-0.4-1.9-3.4-0.9-4.6-1.8c-1.1,1-2.4-0.9-3.4-1.1
	c-1.4-0.5-1.2-2-1.8-3c1.7-5,0.9-11,5-14.8c0.6-1.5,2.5-1.9,3-3.5c2.4-1.5,3.5-4.2,5.9-5.5c2.5-1.9,4.8-4.4,7.1-6.6l-0.3-0.2
	c3.4-1.5,3.2-5.8,6.4-7.8v-0.5l4.3-4.1c0.1-2.1-2.6-3-3.4-5c-0.8-1.7-1.6-3.4-1.6-5.4c0.8-1.6,0.3-4.2,1.9-4.6h0.4
	c0,0.2,0,0.6,0.3,0.7c0.2,0,0.6,0.1,0.7-0.3h-0.2v-0.4h0.2c0.4,1.6,2.1,1.5,3.2,2.3c0,0.4,0.4,0.6,0.7,0.9h0.5
	c-0.5-3.6,0-7.3,0.4-10.7c0.3-0.7,0.9-1.9,1.6-1.8c2.2,1.7,2,5.1,4.6,6.4c1.5,2,3.9,3.8,4.8,6.2l-0.3,0.3c0.3,0.4,0.8,0.2,1.1,0.2
	c-0.4-0.6,0.6-1,1.1-1.1c2-1.5,2.1-4.3,1.6-6.6c0.1-1.7-2-2.8-1.3-4.3c3.2-0.9,5.1,2.4,7.1,4.1c0,1.1,1.1,1.7,1.4,2.8
	c-0.2,0.7,0.6,0.9,0.7,1.6c1.8-0.8,3.7-3.2,5.5-2.3c0.3-0.1,0.2-0.4,0.2-0.7h2.5c1.1,1.7-1.2,3.1,0.3,4.6c1.3-1,3.2-1.7,4.8-1.8
	l0.7,0c1,2.4-0.8,4.9-0.2,6.9c1.2,0.9,2.2-1.8,3.4-0.2c0.1-0.9,1.2-0.3,1.8-0.5c0.9,0.8,0.3,2.5,0.5,3.9c1.3,0.5,2.4-1,3.6,0.5
	c0,1.7,0.1,2.4-0.4,3.8c0.4,0.9,1.3,0.3,2,0.5v0.3c0.8-0.3,1.9,0.4,2.3,1.1c0.4,1.9-3.2,3.3-1.1,4.8c0.6-0.5,1.9-0.1,2.5,0.5
	c0.4,1.6,0.9,3.2,2.3,4.1c1.1-0.1,0.9,0.9,1.4,1.6l-1.1,2.3c1.5,2.1,3.8,2.4,4.4,4.8c-0.4,2.5,1.8,3.9,3.4,5c0.6-0.2,1,0.3,1.1,0.7
	c0.8,2.8-4.2,1-2.1,3.9c0.6,0.9,2.6,1.6,1.8,3.2c-0.7,1.3-2.3,1.3-3.4,0.9l-0.2-0.3l-0.5,0.7c1.6,2.3,1.8,5.9,4.6,7.1l0.3,1.6
	c-0.9,0.4-2.3,0.1-2.8,1.1c-0.5,0.1,0.5,0,0.2-0.5c-1-0.4-2-0.5-3.2-0.5c0.2,1.7,2,2.9,3,4.4c0.8,0.4,3.3-0.2,2.3,1.6
	c-0.1,1.2-1.5,0.2-1.8,1.1c-2.2,0.6-3.8-0.1-5.5-0.9c-0.9,1.7,0.3,2.7,0.2,4.6c0.2,1.6,0.6,2.4,0.5,3.9c0.6,1.2,1.6,1.7,2.1,3h0.5
	c0.3,1.8,1.6,0.1,2.5,0.9c0,1.4-1.6,1.9-2.5,2.5c-0.4,0.3-0.9,0.2-1.1-0.2c-1.5,1.9-3.7-2-4.6,1.1c-0.3,4.9-1.6,10-6,12.8
	c-0.8,1.2-2.1,2.3-3.4,2.7c-2,2-4.8,3.1-7.1,5c-3.6,2.9-7,5.9-8.3,10.3c-3.5,7.2-4.1,15.6,0.3,22.6c1.3,1.2,3.1,3.1,4.8,3.2
	c0.7,1.1,1.6-0.2,2.3,0.9c-0.1,2.8-3.9,3.6-3.4,6.4c-1.1,5.6,0.5,10.7,4.8,14.2c1.6,1,3.9,0.1,4.2,2.5c-0.6,1.3-2.3,1.4-2.8,3v0.5
	c-1-0.7-0.7,1-1.4,1.4c-0.1,1.6-1.2,3.6-0.4,5.5c0.6,2,2.3,2.8,3.6,4.1c1.4,1.6,5.7,1.1,4.4,4.1c-2.5,2.8-3,6.3-3,10.1
	c1.5,1.1,2.6-1.8,3.7-1.1c2-1.6,4.2-3.4,6.2-4.6c6.3-3.7,9.1-10.7,13-16.5c1.7-3.9,3.1-7.8,4.3-11.9c0.3-1.6,0.5-3.9,0.7-5.5
	c1-6.1,0.2-12.6-0.2-18.7c-0.8-1.1,0.2-2.8-0.9-3.8c-0.1-3.1-0.8-6.8-0.4-10.1c-1.2-2.5,0.3-4.9,0.4-7.3c0.4-0.8,0.2-1.8,1.1-2.3
	c1.4-0.6,0.3,1.9,0.9,2.3c0.5,4.7,4.1,8.5,6.7,11.9h0.5l0.4-3.7c2.2,0.3,3.3,2.9,5,4.8c2.7,4,4.4,8.6,6.2,13
	c0.4,0.1,0.5-0.3,0.7-0.5c-0.4-1.1,0.6-1.7,0.9-2.5c1.1,1.8,1.6,4.3,2.1,6.6c0.8,3.5,0.2,5.7,0.7,9.6l0.7,0.7l1.3-1.8l0.5,0.5
	c-1.1,9.4,0.1,18.4-5.5,26.5c-0.3,0.9,0.8,1.5,1.4,1.8l0.9-0.3c-0.1,1.6,1.1,0.2,1.8,0.9c1.6,0.7,4,2.3,5.2,1.3c1.6,2-1,3.6-2.1,5.5
	c-0.9,2.9-2.5,4.9-4.6,7.3c1.5,1.2,3.5,2.3,5.3,3.4c2.6,1.7,3.2,4.7,4.8,7.1c0.2,2.5,2.3,4.3,3.4,6.4c0.5,1.1,2.3,0.9,2.5,2.3
	c-0.8,0.1-1.4,2-2.3,0.7c-3,1.2-0.9,3.9-1.1,6.2c-0.3,4.3,3.8,5.7,3.9,9.8c-1.1,0.8-2.2-0.5-3-0.7l-0.2-0.3
	c-2.5,2.2-2.6,5.4-3.4,8.7c0.3,3.4,0.5,7.3-0.9,10.3c-1.5,0.3-0.9-1.4-1.3-2.1l0.2-0.2c-0.3-0.4-0.7-0.5-1.1-0.5
	c-1,2.2-3,4.6-5.2,5.7v0.5c-2.9,1.9-5.8,4-7.8,6.6c-1.6,2.4-2.2,5.5-2.5,8.2c-4.2-4.1-2.6-11.7-2.3-16.9c0.2-0.5,0.9-1.1,0.4-1.6
	c2.7-8.2,7.5-18,1.4-26.5c-4.7-8.3-13.9-8.9-22-8.3c-2.2,0.6-5.1,0.7-7.3,1.1c-1,0.2-1.9,0.9-3,0.9c-0.3,0.7-1.2,0.6-0.9,1.6
	c1.6,2.1,3.9,2.3,5.9,3.4l0.5-0.7c0.6-0.2,0.8,1.5,0.7,2.5c-3.4,1.6-5.1,4.9-5.3,8.7c0.6,4.2,3.1,8.1,7.3,9.6
	c0.4,0.5,0.7,1.3,0.2,1.8c-0.5,0.6-1.1,1-1.8,1.1l-0.3-0.2c-2.5,1.8-4.8,3.9-4.8,7.1c0.4,2.2,1.3,4.4,3.2,5.7
	c-0.3,3-3.8,3.5-4.6,5.8c-0.3,3.8-1.3,7.3-1.9,11c-0.8,0.5-0.1,1.7-0.7,2.3c-2.5,8-6.3,15.4-11.8,21.8h0c-1.5,1.7-3.1,3.4-4.9,5
	c-2.3,1.1-3.7,2.8-6.2,3.6c-1.4,0.8-3.5,2.1-5.5,2.8c-3.9,1.9-7.6,2-11.2,2.5h-6.6c-0.8-0.7-2,0.3-3.2,0c-0.6-0.9-1.3-0.2-2.3-0.7
	c-2.8-0.1-5.8-1.3-8.2-3c-1.6,0-3.5-1-4.8-2c-2.2-0.3-3.3-2.1-5-3c-2.3-1.2-4.2-3-5.7-5.2h0.1l-0.1,0c-1.4-2-2.6-4.3-3.5-6.4
	c-1.5-3.8-2.3-7.9-3.8-11.7c-0.3-1.1,0.6-3.1-0.7-3.4l-0.1-0.2c-0.5,7-2.5,14.5-6,21.7h0c-3.3,6.8-7.8,13.3-13.7,18.8
	c-12.2,11.4-40,27.5-40,27.5c-31.7,16.1-37.4,24.9-44.4,31.7c-7,6.8-5.2,7.8-5.2,7.8c92.1-5.4,132.1-21.5,132.1-21.5
	s-1.8-7.8-2.6-12.5c-0.8-4.7-1-4.7,3.4-10.6c4.4-6,14-7.3,24.4-8.8c10.4-1.6,23.4-0.3,23.4-0.3c4.7-5.7,17.1-8.6,22.1-8.3
	c4.9,0.3,10.4,4.4,10.4,4.4c1.8-0.5,12.7-3.9,12.7-3.9c0-3.5-3.8-16-6.7-24.2h0c-1-2.8-1.8-5-2.4-6.4c-2.3-5.4,2.6-7,2.6-7
	s5.7-3.4,14.3-6.7c8.6-3.4,23.6-6.2,28.8-6c5.2,0.3,10.6,6.5,11.7,9.9c0.5,1.7,2.9,8.4,5.6,16.2h0c2.7,7.8,5.8,16.6,7.9,22.9
	c4.2,12.7,4.7,18.4,4.7,18.4c-1,10.4-10.6,20.5-22.3,29.3c-11.7,8.8-39.5,19.2-39.5,19.2s0-3.6,3.1,9.9
	c3.1,13.5-10.4,20.2-10.4,20.2c-37.9,18.7-111.1,47.2-225.8,47.8c-121,0.6-191.6-32.1-222-45.5c-21.1-9.3-19.7-14.9-20.8-21.1
	c-1-6.2,3.1-13.8,3.1-13.8c-37.7-14.2-51.6-30.1-57.4-38.4C2.9,470.6,6,462.7,6,462.7s7.8-23.3,11.1-32.6h0c0.1-0.3,0.2-0.6,0.3-0.9
	c3.1-8.7,6.2-19.7,12.5-25.6c6.2-5.9,9.3-4.2,22.5-1.7c13.1,2.4,24.6,9.3,27.3,11.4c2.8,2.1,3.8,5.5,3.8,5.5
	C83,420.2,81.3,424.8,79.4,430L79.4,430L79.4,430L79.4,430z M183.9,430h0.3H183.9L183.9,430L183.9,430z M206.5,292.2l-0.7,1.1
	c1.5,3.6,6,5.5,7.5,8.9c0.6-2.5-0.2-4.5-0.4-7.1c0.7-3.6-3.8-1.7-4.8-2.5C207.6,291.9,206.9,293.4,206.5,292.2L206.5,292.2z
	 M197.6,312.8c-0.9,1-2,2.4-2.3,3.9c-5.1,7.1-8.8,15.1-14.6,21.4c-3,3.2-4.6,7-7.5,10.1c-1.3,1.6-3.2,3.5-3.2,5.5
	c2.4,1.2,4.2,3.5,5.9,5.5h0.5c1.1,0.9,1.5,2.8,3,3.4c1.5,3.3,4.8,5.7,5.8,9.2c2.4,3,3.8,6.9,5.5,10.5c1.2,5,3.4,9.8,2.5,15.3h0.4
	c0-5.3,0.8-10.8,1.1-15.8c2-3.6-4.1-3.9-3.6-7.5c0.7-1.2,1.8-0.5,2.8-0.9c1.1-0.4,1.6-1.9,1.6-3.2c-0.7-1-1.5-2.8-2.7-2.8
	c-0.4-0.4-0.8-0.7-0.9-1.1c-0.1-0.6-0.1-1.8,0.9-2.3c0.2,0,0.6,0,0.7,0.2c1.1-0.9,2.4-1,3.6-1.6c0.3-1.4,1.9-0.7,2.5-1.8
	c3.5-9.7,6.1-19.6,8.5-29.7l-2.1-5.2c-1.6-2.8,0.3-5-0.7-7.6C204,314.8,200,314.4,197.6,312.8L197.6,312.8z M155.8,370.3
	c-5.5,4.5-10.7,10.6-15.5,15.8c-2,3.1-4.8,5.6-6,9.3c-1,0.6-0.7,2.1-1.6,3c-0.1,1.8-0.8,3.6,0.3,5.2c1.9,2.5,4.3,5.3,7.5,5.7
	c0.2,1.7,1.4,0,1.8,1.1c1.1,0.6,2,0.3,3,0.5c0.9,0.7,2.7-0.5,3.6,0.2c0.8-1.3,2.3,0.7,2.8-0.9l0.2,0.3c0.3,0.3,1.5,0.3,0.9,0.2
	c0.6-0.8,1.1,0.4,1.6-0.7c2.4-0.4,4.4-1.9,6.6-3c0.1,0.1,0.3,0.2,0.3,0.5c0.6-1.9,2.9-2.3,4.1-3.9c0.7-2.5,3.4-3.5,3.9-6.2
	c0.6-4.5,2-9.4,0.5-14c-0.8-0.6-0.4-2-1.4-2c0,0.4,0.2,0.9-0.2,1.1c-1.1-0.5,0.2-1.1-0.3-1.8c-2.5-2.4-4.2-5.7-7.5-7.1
	C159,372.3,157.2,371.6,155.8,370.3L155.8,370.3z M270.9,100v16.7l1.3,0.9c1-0.6,2.7,1.4,3-0.4c2.6,0.2,3.3-2.9,5.3-4.2
	c1.1,0.1,1.2-0.7,2.3-0.9c0-0.6-0.2-1-0.7-1.4c-1.6-0.5-3.5-0.2-4.6,0.9c-3-0.5-0.8-4.4-1.8-6.4c-1.6,0.2-2.5-1.1-3.9-1.6
	c-0.2-0.6-0.7-2,0.5-2.1c0.5-1.2-0.8-0.6-0.9-1.6L270.9,100L270.9,100z M269.9,218.3c0,0,5.2,0,7.4-1.4c2.2-1.4,2.6-8.8,2.8-10.7
	c0.2-1.9,1-1.9,1-1.9l1.9-0.3c0,0,1.7-11.1,2.1-12.6c0.3-1.6,0.2-1,0.2-1l1.9-0.7c0,0,1.7-27.2,1.9-28c0.2-0.9-0.9-2.6-1.4-2.6
	c-0.5,0-2.8-1-1.2-4.2c0,0-1-1.2-2.8-1.6c-1.7-0.3-4.8-2.9-5.9-5c-1-2.1-4.2-1.6-4.2-1.6c0,0-1.9-6.2,0.2-14l9.2,0l0.5,0.5l-0.3-0.3
	c0.8-0.3,0.5-1.5,0.5-1.6c-0.7-0.2-1.4-0.6-2.3-0.4c-3.1,1.2-6.4,0.4-9.6,0.7c-0.6-1.1-0.8,0.1-1.6,0.2c-0.1,28.4-0.9,58.1-0.5,86.4
	L269.9,218.3L269.9,218.3z M403.5,293.4c-1.2,0.4-1.9,0.2-3.2,0.2c-1.5,2.7-1.8,6.2-1.6,9.3h0.2c1.5-3.3,6.1-5,7.3-8.9
	C405.7,292.1,404.3,294.8,403.5,293.4L403.5,293.4z M414.2,313.7l-0.7,0.7l-0.3-0.3c-2.3,1.2-4.9,2.1-6.4,4.6
	c-0.2,2.3,0.6,5.1-0.7,7.1c-0.1,3-3.8,5.2-1.8,8.2c0.4,2.1,0.9,4.4,1.4,6.2c0.9,1.7,0.9,3.8,1.8,5.5c0.4,2.9,1.4,5.5,2.3,8.2
	c0.6,0.8-0.2,2.1,0.7,2.7c0.5,3.1,1.3,5.7,4.6,6.9c1.6,1,4.4,0.6,4.8,3c-0.2,0.6-0.5,1.6-1.4,1.6c-0.9,1.1-3.1,2.1-2.5,3.9
	c0.5,2,2.4,2.2,4.1,2.5c1.5,3.1-2.4,3.4-3.6,5.7c-0.8,1.3,0.5,2.2,0,3.7c1,3.9,1,9.4,0.9,13.5l0.7,0.2c0-4.1,0.5-9.1,2.3-13
	c0.4-1.3,1.1-2.5,1.4-3.9c4.6-8.7,10-18.2,17.6-24.7c1-0.4,2.4-1.6,2.3-2.5c-1.7-3-4.1-5.3-6.2-8c-4-6.8-9.9-12.5-13-19.4
	C419.7,322.1,417,317.5,414.2,313.7L414.2,313.7z M455.6,371c-2.9,2.3-6.1,4.5-8.7,6.9c-2.3,1.1-2.9,3.6-4.8,4.8
	c-1,4.1-2,8.1-0.9,12.1c0,4.3,2.7,7.7,5.3,10.7c2.1,2.2,5.1,3.4,7.7,4.8c1.1,0.7,2.5,0.7,3.7,1.4l0.4-0.5c1.2,1,3.4-0.1,4.4,0.9
	c6.1,0.2,11.5-2.6,15.1-7.8c1.7-2.7,0-5.6-1.1-8c-0.6-2.5-2.6-4.4-3.9-6.6c-4.5-7.2-11.3-12.6-16.7-18.7H455.6L455.6,371z"/>
<path style="fill-rule:evenodd;clip-rule:evenodd;fill:#FFFFFF;" d="M273.7,8.4c1.5,1.2,1,3.3,1.8,4.8c-0.4,1.9-1.9,3.1-3.2,4.1
	c-0.8-1.6,1.6-2.5,1.4-4.1c0.6-3.1-2.6-4.3-3.7-6.2c-1.4,0.9-1.8-1.9-3.2-0.3c-0.9-1.1-1.7,1.1-3,0.7c-2.4,2-3.6,4.7-2.7,7.8
	c0.3,1.9,3.4,2.9,2.3,5c-2-0.9-3.8-3-4.6-5.2c0.5-2.6-0.3-5,1.6-7.1c0.9-0.5,1.7-1.6,2.5-1.3c1.8-0.7,4.4-2.4,5.9-1.1
	C271.2,5.7,272.1,6.7,273.7,8.4L273.7,8.4z"/>
<path style="fill-rule:evenodd;clip-rule:evenodd;fill:#FFFFFF;" d="M268.7,12.3c0.5,1.2,0.1,2.5-0.5,3.6
	c0.2,17.1,0.6,34.7,0.2,51.4l-2,2l-0.5-0.9c0.7-18.9-0.3-37.5,0-56l0.9-1.1C267.2,12.5,268.1,11.2,268.7,12.3L268.7,12.3z"/>
<path style="fill-rule:evenodd;clip-rule:evenodd;fill:#BBA656;" d="M321.5,68.5c1.2-0.5,0.3-2.4,2-2.1c2.6,2.1,2,5.6,4.4,7.6
	c1,0.4,1.1-1.1,2-0.9l-0.2-0.2h0.5l-0.3,0.2c0.7,0.4,1.1,0.9,0.9,1.8c-1.1,1-2.4,1.7-3.9,2.1c-0.6,0.7-0.8,1.5-0.2,2.3
	c1,2,1.3-1,2.5,0c0.8,1.2,1.2,2.9,0.7,4.3c-0.6,0.8-1.5,0.9-2.3,1.6c-0.2-0.9,0.7-2,0.7-3.2l-1.1-1.1l-1.4,1.4c0-1-0.7-1.1-1.1-2.1
	c0.8,0.3,0.9-0.4,1.1-0.9c0.1-2.1-2.2-1.6-3-3c-1.1-0.3-1,0.9-2.1,0.9c0.5,0.7-0.8-1.1-0.7-1.8c-0.8-2.1-2.2-0.3-3.4,0l-0.9,1.4
	l-0.5-0.7c0.6-2-0.3-4.1,0.7-5.7c-1-1.8-0.2-4.1,0.2-5.9C317.9,65.7,319,68.1,321.5,68.5L321.5,68.5z"/>
<path style="fill-rule:evenodd;clip-rule:evenodd;fill:#BBA656;" d="M271.8,73.7c-0.1,1.2-1.7,0.7-1.6,2.1c0,1.3,1,2.8,0,3.9
	c-1.1,0.6-1,2.4-0.7,3.6c1.4,1.7-1.3,2.7-0.7,4.6h-0.5c-1-3-5.7-5.7-3-9.1c-0.9-1.8,1.7-2.7,1.1-4.6c1.6-0.9,1.8-2.8,2.3-4.4
	C270.1,70.7,270.9,72.4,271.8,73.7L271.8,73.7z"/>
<path style="fill-rule:evenodd;clip-rule:evenodd;fill:#BBA656;" d="M308.2,73l1.6,0.2c0,1.3-1.2,2.9,0.2,3.9
	c0.5,0.1,1.2-0.2,1.6,0.3c0.3,0.9-0.8,0.4-1.1,0.9c-0.1,1.3,0,2.7,1.4,3.2c1,0.4,1.7,0.3,2.7,0c-0.2-0.4,0.3-0.5,0.4-0.7h0.7
	c-0.3,0.4-0.3,0.8-0.7,1.1c-1.5,0.2-2.5,0.4-3.4,1.6c-1.7-1.5-1.9-3.6-2-5.7c-0.2-0.4-0.6-0.8-1.1-0.7c-1.2,1.2-1.5,3.2-1.6,4.6
	c0.1,0.6-0.4,1.2-0.3,2.1c-0.6,0.3-0.6,1.2-0.9,1.8c-1.1,1.8-1.8,4.6-1.1,7.1c-2.4,3.8-7.2,3-10.3,4.4c-0.5-0.1-1.6-0.2-2.1,0.5
	l-0.9,0.9c-1.2-1.1,0.3-2.1,0.4-3.2c1.3-1.4,3.2-2,4.6-2.3c1.6-0.3,2.5-1.2,3.9-1.4c0.6-1.5,3.9-2.6,1.8-4.6c-1.8,0.2-2,1.6-3.4,2.3
	c-0.2,0-0.6,0.1-0.7-0.2c-0.7,1.4-2.9,0.9-3.6,2.3h-0.5c0.1-3,2.3-4.7,4.8-6.2c1.5-0.5,2.3-0.2,3.4,0.7c0.5-0.8,1-2,0.5-3
	c-1.3-0.8-1.4-2.4-1.1-3.6c0.8-0.8,0.4-2.1,0.9-3c1-0.5,0.8,0.7,1.1,1.1c1.1,0.3,1.4,3.2,3,1.6c1.3-1.3-0.5-2.4-0.2-3.8l1.3-3
	C307.7,72.4,308.5,72.4,308.2,73L308.2,73z"/>
<path style="fill-rule:evenodd;clip-rule:evenodd;fill:#BBA656;" d="M273.9,78.5c0,1.8,1.3,3.5,2.1,5.2c1.5,2,3.1,4,5,5.4
	c0.2,0.8,1,1.3,1.1,1.9c2.6,2.8,6.4,6.1,5.3,10c0.4,2.9-1.7,5.9,0.7,8.5c0.6,1.5-1.1,1.1-1.6,1.8c-0.8-1.7-2.6-2.9-4.1-3.8
	c-1.2-0.2-2.2,0.3-3.2,0.9c-0.5-0.9,0.3-4.3-1.6-5.2c-0.8-0.4-1.8-0.2-2.3-1.1c0.3-1.7,2.3-0.5,2.7-1.8c0.5,0.1,0.9-0.1,1.1-0.5
	l-0.2-0.2c0.8-0.1,0.8-1.1,0.5-1.6c-1-0.6-2.1,0-2.7,0.9l-3.7-0.4c0.2-0.4-0.3-0.5-0.4-0.7c-0.5-0.1-0.9,0.1-1.1,0.5v0.3
	c-0.9-0.3-0.2-1.7-0.7-2.3c0.5-3.5-0.3-6.5,1.6-9.4c1.3-2.4-1.6-4.9,0.7-6.9C272.8,79.3,273.2,78.4,273.9,78.5L273.9,78.5z"/>
<path style="fill-rule:evenodd;clip-rule:evenodd;fill:#BBA656;" d="M326.2,92.5c0.4,0.8-0.5,1.1-1.1,1.6c-0.8-0.8-1.6-1.5-1.8-2.8
	c0.2-0.9-0.6-2.4,0.7-2.8C324.4,90,324.7,91.9,326.2,92.5L326.2,92.5z"/>
<path style="fill-rule:evenodd;clip-rule:evenodd;fill:#FFFFFF;" d="M267.9,90c0.3,9-0.5,17.3-0.2,25.8c-0.2-0.1-0.4,0.1-0.5,0.3
	c-0.3-0.8-0.8-0.2-1.3-0.3l0.2-26.7C266.8,88.4,267.7,89.3,267.9,90L267.9,90z"/>
<path style="fill-rule:evenodd;clip-rule:evenodd;fill:#BBA656;" d="M321.2,93.8c0.9,2.1,4,3.2,2.5,5.8c0.3,0.5-0.8,0.9-0.7,1.6
	c-0.1,0.4-0.2,0.7-0.4,0.9c-1.1-2.3-0.4-6.2-3.2-7.5c-1.9,1.5,0.2,3.6,0.2,5.4l-0.9,0c-0.3-2-3.3-1.5-3-3.8c0.5-1,1.2-2.2,2.3-2.8
	c0.5-0.9,1.2-2.4,2.3-2.5L321.2,93.8L321.2,93.8z"/>
<path style="fill-rule:evenodd;clip-rule:evenodd;fill:#231F20;" d="M275.5,95.7c0.6-0.6,1.6-0.8,2.3-0.5c0.4,0.5,0.5,1,0.2,1.6
	c-0.7,0.9-1.6-0.1-2.3,0.9c-1.6-0.1-3.7,0.5-4.1-1.6c0.6-0.5-0.4-1.8,0.9-1.6C273.4,95.2,274.5,95.3,275.5,95.7L275.5,95.7z"/>
<path style="fill-rule:evenodd;clip-rule:evenodd;fill:#BBA656;" d="M309.8,96.8c-0.4,1.7-3,2.2-3,3.9c-1.2,1.4-2,3.2-1.6,5
	c0.5,0.8,1.2,0.9,2.1,0.9l0.2-0.2c-1,2.1-2.8,3.7-5,4.3c-0.4,0.8-1.8,0.3-2.3,1.1l-0.2-0.2c-1.1,0.9-2.6,2.1-3.4,2.8
	c-0.6-5.2,7.2-6.6,7.1-12.1c-0.5-0.2-0.8-0.6-1.4-0.4c-0.9,0.8-1.7,1.6-1.8,2.7c-2.5,2.4-6.3,5.1-6.9,8.7c-1.5,0.7-0.1,2.9-1.1,3.9
	c0.2,0.9-0.6,2.4,0.7,2.7c0,0.3,0,0.6,0.2,0.7c2.7-0.5,2.4-3.9,5.2-3.9c1-1.2,4.3-0.4,5.3-1.6c0.4,0.2,0.6-0.3,0.9-0.5
	c0.9,1-0.6,1.7-0.9,2.5c-2.9,0-4.4,3.3-6.8,4.3c-0.5,0.6-0.7,0.6-1.4,0.9c-0.8-0.3-0.8-2.1-2.3-1.6c-0.5,1.8-1.6,4.4-3.4,5.2
	c0.6-1.5,1.6-3.2,1.1-4.8l-0.9-1.1c-0.6,0.3-0.7,1.1-1.4,1.6c0.6,0.5-0.5,1.2-0.5,1.6c-0.3,0.9-0.9,1.8-1.8,2.5l0.2,0.2h-0.9
	c0.2-1.4,0.7-2.8-0.5-3.9c-2.7,0-0.7,3.9-3.2,4.4c-0.1-0.7-0.5-1.3-1.1-1.8c-1-0.4-0.8,0.8-1.8,0.7c-0.2,1.1-1.9,1.6-2,2.8h-0.9
	c0.5-0.3,0.3-1.6,1.1-2.1c-0.4-0.6,0.1-2.5-1.3-2.5c-0.3,0.2-0.3,0.9-0.9,0.7c-0.5,1.3-1.7,2.1-2.8,2.8c-0.1-1,1.8-2.9-0.2-3.9
	c-2.3,0.7-3.7,3-5.5,3.9c-0.6-2.8,4.4-2.5,3.2-5.2c-1.1-1.1-2.5,0.1-3.2,0.7c-0.6,0.8-1.5,1.2-2.1,1.6c-0.3-2.4,3.1-3,4.8-3.9v-1.4
	h0.5c0.2,1.6,2.1,0.8,3,1.6c0.3-0.2,0.5-0.6,0.9-0.5c0.6,1.6,1-0.6,2.3,0c0.3-0.7,1-0.3,1.6-0.4c1.4-1.2,2.9-2.2,4.2-3.7
	c1.1-0.2,2.5-1.7,3.8-1.1l0.5-0.5c-0.2-0.4,0.3,0.6,0.7,0.3c1.4-0.8,3.5-2.3,5.3-1.1c1.9,0.1,1.5-2.3,2.3-3.4
	c-1-2.4,1.7-2.9,2.8-4.4c1-1.7,3.6-3.8,2.3-6.2l1.4-1.1c0.5,1.1,0.5-0.4,1.3-0.2c1.1-0.4,2.1-1.1,3-2.1
	C306.2,93.1,308.4,96.1,309.8,96.8L309.8,96.8z"/>
<path style="fill-rule:evenodd;clip-rule:evenodd;fill:#BBA656;" d="M296.8,99.3c1.1,4.1-4.7,5.2-5.2,8.5l-0.9,1.6
	c-0.6-1.5-1.7-3.5-0.9-5.5c1.2-1.4,1.1-4.3,3.6-4.1c-0.2-0.4-0.6-0.2-0.9-0.2C293.7,99.2,295.3,99.4,296.8,99.3L296.8,99.3z"/>
<path style="fill-rule:evenodd;clip-rule:evenodd;fill:#BBA656;" d="M316.6,102.3c-0.2,1,0.5,1.7,0.3,2.8c-1-0.6-0.7-2.2-1.4-3.2
	l-1.8-2.5C315.3,99.2,316,101.1,316.6,102.3L316.6,102.3z"/>
<path style="fill-rule:evenodd;clip-rule:evenodd;fill:#BBA656;" d="M350.7,103c0.3,1.4,0.6,3.5-1.1,4.3c-0.7,0.3-1.1,0.9-1.8,1.6
	c-1.1-0.6-1.3,1-2.7,0.5c-1.1,1.1-4,1-3.4,3.4l0.7,0.9c0.4-0.9,1.4,0,1.8-0.4c1.7-1.5,4.5-1.4,6-2.3c-0.1,0.3,0.3,0.4,0.5,0.7
	c0.4-0.1,1-0.9,1.3,0c3.9-1.2,5.5-5.4,6.6-8.7c0.6-1.3,1.9-0.5,2.7-0.5c0.9,0.8-0.7,1.1-0.7,1.8c-2.9,4.2,1.3,11.5-4.3,13.5
	c-1.7,0.8-3.3,0.6-5,0.5c-2-0.9-3.9-2.7-5-4.6c-0.9-0.4-1.1,0.9-1.8,0.9c-0.5,2.8,3.5,3.6,3.6,6.4c0.8,2.3-0.3,5.1-1.6,6.9
	c-1.5,2-4.1,1.4-6.1,1.4l0.2-0.3l-0.7-0.4l2-0.5l-0.2-0.3l0.7,0.5c0-0.7,0.8-0.7,1.4-0.7l1.8-2.5c0.3-4.5-2-8.2-5.2-10.3l-0.3,0.3
	c-0.1-0.9-2.3-0.1-3.2-0.7l-0.5,0.4l-0.5-0.9c-0.6,1.8-2.3,0.1-3,1.6c-1.6-0.3-2,1.2-3.4,1.4c-5.5,3.5-4.7,11.6-4.8,16.5h-0.9
	c-1.1-4.4-2-9,0.2-13.5c1.5-3.7,5-4.9,8-6.9c0-1.4,1.4-2.7,2.5-3.6c2.4-1.1,4.6-1.6,7.1-1.8c2.3-0.9,5-1.1,6.6-3.9l0.9-3
	C349.7,101,350.7,102,350.7,103L350.7,103z"/>
<path style="fill-rule:evenodd;clip-rule:evenodd;fill:#BBA656;" d="M313,102.1c1.1,2.7,1.9,5.8,0.2,8.5c0,0.3,0.2,0.7-0.2,0.9h-0.7
	c0.4-1.8,0.3-3.7-0.9-5.4c-0.5-0.1-0.9-0.6-0.7-1.1c0.8-0.8,1.5-1.5,1.6-2.5C312.6,102.5,312.6,101.9,313,102.1L313,102.1z"/>
<path style="fill-rule:evenodd;clip-rule:evenodd;fill:#BBA656;" d="M309.8,116c0,3.7-1,6.7-0.9,10.7c-0.1,2,1,4.4,1.1,6.2l0.3,0.3
	l-0.5,0.4h-11.9c-0.5,2.4,0,3.7-0.5,5.8c-1.1,0.4-2.4,0.2-3.6,0.2c-0.2-0.1-0.4,0.1-0.5,0.2c-0.8-1.6-0.3-3.8-0.5-5.7
	c-0.7-1.7-4.8,0.9-4.3-2.3c0.5-1.1,0.6-2.3,1.8-2.8c1-0.1,1.9-0.7,2.5-1.1c1.5-0.9,2.6-2.6,4.2-3.6c0.1,0.3,0.4,0.2,0.7,0.2
	c2.5-1.4,3.9-4.6,7.3-4.8c1.8-0.9,2.3-2.8,3.4-4.4C308.1,115.8,309.3,115.8,309.8,116L309.8,116z"/>
<path style="fill-rule:evenodd;clip-rule:evenodd;fill:#FFFFFF;" d="M267.5,131.1c-1,27.3,0.1,52.9-0.9,80.2
	c-0.3,2.4,0.1,4.8-0.7,7.3c-0.4,0.1-0.5-0.3-0.7-0.5c-0.6-22.6,0.3-43.3,0-66c0.6-7.1-0.3-14.7,0.7-21.7
	C266.5,128.7,267.1,130.5,267.5,131.1L267.5,131.1z"/>
<path style="fill-rule:evenodd;clip-rule:evenodd;fill:#BBA656;" d="M159.2,132c1,2-1,4.4-0.5,6.2c-0.9,0.6,0.1,1.9-0.9,2.5
	c-0.1,0.3,0.2,0.7-0.3,0.9h-0.7c0.9-0.6,0.3-1.8,0.7-2.5c-0.3-0.3-0.9-1.1-1.3-0.5c-0.7,0.6-0.1,2.4-1.6,2.1v-0.9
	c0.5-0.5,1-1.7,0.9-2.3c0.4-1.1,1.8-2.4,2.3-3.9c0.3,0.2,0.4-0.3,0.7-0.4l-0.3-0.3l0.7-0.7l-0.3-0.2H159.2L159.2,132z"/>
<path style="fill-rule:evenodd;clip-rule:evenodd;fill:#BBA656;" d="M143.7,132.4c-0.4,2,0.3,5.3,2,7.3c1.2,0.2,1.3,1.5,2.3,2.1
	c0.5,2.8-3.2,2.1-4.6,3c-1.5,0.6-2.9,1.1-4.6,1.8c-2.5,1.7-4.9,3-7.3,4.8c-4.4,4.2-7.8,7.6-9.6,13.5c-1,1.3-0.9,3-1.9,4.3l-2.3,8.7
	c0.8,5.3-1.5,9.7,0.3,15.1c-0.2,2.2,1.2,4,1.3,6.6c0.7,3.2,2.4,7,4.4,9.6c0.6,1.9,1.7,4,0.9,6.1l-1.8,2.5c-3.2,1.2-7.3,0.8-10.1-1.4
	c-0.8,0.7-1.3,2-0.4,2.7c0.7,1.8,2.9,1.2,4.1,2.3c1,0,2-0.1,2.8,0.5c0.6-1.1,1.5,0.4,2.3-0.5c2.5-0.7,5.2-2.2,6.9-4.3
	c1.9-0.5,0.5-2.3,2-2.8c0.4,2.4,0.5,5.4-1.8,7.1c-1.4,0.6-2.3,2.4-3.9,1.4c-1.1,0.8-3.4-0.5-4.1,0.9c-0.7-0.2-2.3-1.4-3.4,0
	c-0.3,2.1,2.1,1.6,3.2,2.3c1.3,0.9,3.3-0.7,4.8,0.5c1.5-0.7,3-1.2,4.4-2c3.3-2.2,3.9-6.2,8-6.9c0.1-0.9,1.1-0.6,1.6-0.9
	c0.2,0,0.6,0.1,0.7-0.3l0.5,0.5c0.3-0.2,0.3-0.6,0.4-0.9l1.9,0.7c-3,2.2-5.3,5.3-6,9.1c-1.1,1.8-3.2,3.3-5.5,3.4c-1.2,0-2.6-1-3.7,0
	c0.2-0.7-1.8-0.4-2.3-0.5c-0.4,0.3-0.2,0.7-0.2,1.1c0.6,1.1,1.9,0.6,2.7,1.4c0.7,0.6,1.6,0.6,2.5,0.9l0.5-0.5
	c1.3,1.4,2.4-0.5,3.9-0.2c4.2-1,5.1-5.6,8.5-8c1.4-0.2,2.1-1.6,3.6-1.1c0.3-0.3,0.7-0.3,0.9-0.7c0.3,1,0.9-0.3,1.3,0.5
	c1.6,0,3.4,0.8,4.8,1.8c-0.3,1-1.2,0-1.8,0v-0.3c-0.4-0.6-0.7,0.2-1.1,0.3c-0.2-0.6-2,0-2.9-0.3c-1.1,0.5-2.8,0.8-4.1,1.4
	c-3.2,2.5-4.6,8.1-9.4,8.5c-0.3-1.1-1.7,0.2-2.8-0.3c0.2-0.3-0.3-0.5-0.4-0.7c-0.8-0.1-1.8,0.9-1.1,1.6c1.4,0.7,2.8,1.6,4.3,2
	c-0.8,0.7-0.4,1.9,0,2.5c1.1,0.9,2.7,1.1,3.9,1.1c1.3,1.8,1.7-1.6,3,0.2c0.4-0.8,1.1,0.8,1.1-0.5c1.6,0,2.4-0.7,3.7-1.1l0.2-0.2
	c0.2,0.5,0.6,0.8,0.9,1.1c0.2-0.4,0.6-0.6,0.5-1.1c1.6,1,3.1-1,4.3-0.2c2.1-0.8,4.6,0.3,6.7,0.9c2,1.5,4.1,3.9,4.1,6.4
	c-1.7-1.5-4.2-3.2-6.2-3.4c-0.4-1.1-2,0.3-2-1.2c-0.6,1.6-2.1-0.5-3,0.7c-1.4-1-2.4,0.8-3.6,0.2l-1.1,1.1l-0.5-0.5
	c-1,0.4-1.9-0.1-2.8,0.5c0-1-1.3-0.7-1.8-0.5c-1.7-0.8-3.4-1.5-5.2-1.8c-0.4,0.3-0.5,0.7-0.5,1.1c0.4,1,1.5,1.5,2.3,1.8
	c-0.1,0.4,0.3,0.5,0.5,0.7c1,0.1,1.2,1.2,2.5,1.1c2,1.2,3.4,1.3,5.5,2.3c1.2,0.6,2.4-0.4,3.2,0.9c1-0.3,2-0.2,3,0.5
	c0.5,1,1,0.1,1.6,0.7c2.6,1.5,3.7,3.8,4.8,6.4c0.9,3.6-0.7,7-3,9.4c-0.7,0.5-1.2,1.1-2.1,1.6c0.2-1.6,1.5-3.2,1.6-5
	c-0.2-5.5-4.3-9.7-9.1-11.7l-0.2,0.3c-0.8-0.9-2.4-1.1-3.2-1.6c-1.9,0.1-2.6-1.8-3.9-2.8c-0.6,0.3-1.7,0.4-1.4,1.4
	c0.6,2.7,3.6,3.6,5.7,4.8c0.2,0,0.6,0.1,0.7-0.2c3.1,1.7,7.4,2.6,8,6.8c0.7,1.8-0.3,4.1-0.9,5.9H151c0.3-4.6-2.7-8.7-6.7-10.7
	c-5-0.9-8.9-5.6-10.1-10.3c-3.1-9.9-14.2-13.1-21-19.9c-2.5-3.5-2.9-8.4-2.3-12.6c2-4.1,3.2-8.9,6.9-11.9c0-1-0.7-1.7-1.8-1.3
	c-0.6,0.2-0.4,1.2-1.1,0.9c-2.4,2.4-3.5,5.3-5.2,8c-1.2,0.3-0.8,1.8-2.1,1.9c-0.6,1.1-1.5,1.1-2.5,1.3l-0.3-0.2
	c2.6-3.9,2.3-9.1,4.4-13.3c0.7-1.1,1.6-2.6,2.7-3.2c1.2-1.2,1.4-1.5,3-1.6c1.1,0.1,0.9-1.2,1.4-1.8c-1.2-3.3-3.4,0.3-5.2,0.2
	l-1.1,0.7l0.3,0.3c-1.7,0.4-2.2,2.3-3.7,3c-0.2,0.3-0.1,1-0.7,0.9h-0.9c1.8-3.3,3.8-6.7,7.3-8.2c1-0.6,2.5-1.5,2.5-2.8
	c-0.5-0.5-1.4-0.9-2.1-0.5c-0.4,1.1-1.1-0.2-1.6,0.5c-0.9,0.9-2.4,0.7-3.2,2.1l-0.3-0.3c-1.6,0.8-2.9,2.1-4.3,3
	c-1-1.6,1.5-4.2,2.3-6.2c1.8-1.8,4.7-2.9,6.1-5c1.3,0.2,1.3-1.2,1.9-1.8c-1.5-1.7-2.1,1.2-4.1,0.2l-0.2,0.7c-2,1.3-4.7,2.7-7.1,2.8
	c0.6-1.4,2.1-2.4,2.5-3.9c2.3-2.2,3.9-2.3,6.6-3.4c0.9,0.1,1.7-0.1,2.3-0.9c0.2-0.7-0.6-0.9-0.9-1.4c-1,0.1-1.4-0.2-2.3,0.3
	c0.1-0.7,1.1-1.1,1.8-1.4l3.9-0.2c-0.2-1.2-1.6-1.5-2.3-2.3c-0.2,0.4-0.7,0.2-1.1,0.2c-1-1.2-2.9,0.3-3.9,0.5v0.2H108
	c0.6-1.9,4.3-0.7,3.9-3.6c-0.7-0.8-1.5-1.3-2.3-1.6c-0.4-0.5,0.2-1.4,0.9-1.4c1,0.3,2.1,0.3,3,0.7c-0.3-0.1-0.4,0.1-0.5,0.2
	c1.8,0.9,4.7,1.6,5.5,3.9c0.4-0.7,1.7-0.8,1.1-2c-0.8-0.5-1.2-1.9-1.6-2.3c-1.4-1.1-2.8-1.4-3.9-2.5c-0.6,0.3-0.7-0.5-1.1-0.7v-0.5
	c2.4-0.5,4.3,1.6,6.2,3.2c1.2,0.2,0.3-1.1,0.9-1.6v-0.9c-2-1.9-4.2-4.3-5.7-6.4c0.2-0.4,0.6-0.2,0.9-0.2v0.2
	c2.4-0.4,4.3,2.1,6.6,3.6c0.4,0.4,0.3,1.4,1.1,1.1c1.4-0.9,0.2-1.5,0.2-2.7c-1.1-2.2-4.3-3.9-5.2-6.4c2.3-0.8,3.6,2.1,5.4,3.2
	c1.1,0.6,1.6,1.6,2.5,2.1c0.9-1.6-0.7-3.3-1.4-4.8c-1.9-0.7-1.5-2.9-3.2-3.6c0.1-0.6-0.6-1,0.2-1.4c3.1,1.6,5.7,3,8,6
	c0.6,0.3,0.6-0.5,0.9-0.7c-1.6-3.6-4.5-7.7-3.7-11.2c3.9,1.3,4.9,5.8,8,8.5h0.5c0.6-3.1-2-5.9-2.3-9.1c-0.1-0.8-0.8-1.6-0.2-2.3h0.5
	l-0.3,0.2c3.8,0.8,5.8,4.4,6.6,8l1.6,1.4c2.2-1.7-0.3-3.9-0.5-6c0.2-1.8,0.3-3.8,1.8-4.8v-0.7H143.7L143.7,132.4z"/>
<path style="fill-rule:evenodd;clip-rule:evenodd;fill:#BBA656;" d="M457.2,137.7c0.4,1.3,2,2.5,1.4,4.1c0.2,0.3,0.6,0.5,0.5,0.9
	c-0.9,0.2-0.7-0.9-1.4-1.1c0.4-0.8-0.6-1-0.7-1.6c-1.6,0.3-0.6,1.8-0.7,2.8c0.2,0.3,0.6,0.5,0.5,0.9c-1.1,0.2-0.7-1.1-1.4-1.6
	c-0.7-2.6-1.4-5.7-1.1-8.5C455.6,134.4,455.9,136.5,457.2,137.7L457.2,137.7z"/>
<path style="fill-rule:evenodd;clip-rule:evenodd;fill:#BBA656;" d="M471.1,135.7c1.5,1.2,0.9,2.4,1.4,4.1c0.4,2.2-2.9,3.8-0.7,6
	c1.9-0.1,1.9-2.3,2.8-3.2c0.3-1.9,1.9-3.4,3-4.8c0.9,0.3,2.1-0.7,2.8-1.1c0.4,3.8-2.3,7.2-2.8,10.7c1.4,1.5,1.5-1.1,2.3-1.4
	c1.5-0.8,1.7-2.5,2.5-3.9c1.1-0.3,1.9-1.7,3.2-1.8l0.7-0.7c0.9,1.6-0.3,2.8-0.3,4.4c-1.1,2-2.4,4.3-3.2,6.6l0.7,0.7
	c2-2.2,3.7-3.5,6.2-4.8v-0.5c0.6-0.3,1.3-0.2,2-0.2c-0.2,2.9-3,4.2-4.3,6.6c0.1,0.8-1.1,1.1-0.7,2.1l0.9,0.7c0.8-1.3,1.7-1.8,3-2.5
	c1.2-1.2,2.6-2.8,4.6-2.8c-1.5,3.5-5.8,4.4-5.7,8.7c1.3,1.1,1.8-0.9,3-1.3l3.4-3c1,2.1,1.7-1.2,3,0.2c-1.8,3.1-4.8,4-6.2,7.1
	l0.2,1.8c1.6,0.3,2.1-1.9,3.7-2.3c0.8,0,1.3-1.1,2-0.7c0.3-0.2,0.3-0.5,0.3-0.7c0.4,0.1,0.9,0.4,1.1,0.9c-1.6,0.2-1.9,1.8-3.4,1.8
	c-1.8,0.5-2.1,2.4-3.2,3.7c0,0.7,0.1,1.3,0.7,1.8c2.2-1.9,4.6-3.7,7.6-4.6c0.5,0.8,1.2-0.7,1.6,0.5v1.1c-0.9-0.4-1.4,0.6-1.8,1.1
	c-0.1,0.9,0.1,1.6,0.7,2.3c0.9,0.6,2.3,0.1,3,1.1h0.2c-0.2,0.2-0.6,0.6-1.1,0.4c-0.1-1.3-1.5-0.3-2.1-0.9c-1.7-0.2-3.7,0.1-5,1.6
	c0.9,1.7,3.4-0.4,4.8,1.6h0.2c-0.8,1-3.1-0.3-2.5,2.1c1,0.8,2.7,0.2,3.2,1.6c2.7-0.5,4.7,1.3,6.4,3.9c0.1,0.7,1.6,1.2,1.3,2.3
	c-1-0.6-1.9,0.2-2.5-0.7c-1.8,0-3.8-1.6-5-2.7c-1,0-2.1,0.1-2.8-0.9l-0.9,0.9c3.1,4,10.4,6.2,10.7,12.3h-1.1c-0.1-1-0.6,0.3-0.9-0.4
	c-2-1.4-3.8-3-6.2-3.4c-0.4-0.6-1.2-0.8-1.6-0.7c-0.4-0.8-1.1-0.4-1.8-0.2c-0.9,2.4,2,2.4,3.2,3.9c1.6,0.6,2.9,2,3.6,3.4
	c1.7,0.7,0.9,2.5,2.1,3.4c0,0.2,0,0.6-0.3,0.7c-1.7-1.4-2.8-3.5-5-4.1c0-1.8-2.2-1-3.2-1.8c-0.4,0,0.7,0.2,0.9-0.3c-0.9,0-2.1-1-3,0
	c0,0.9-0.5,2.3,0.9,3c0.7-0.4,1.5,0.1,2.3,0.3c-0.2,1.2,1.8,1.2,1.8,2.3c4.1,4,2.3,11.1,5.7,15.5c-0.2,0.4-0.7,0.2-1.1,0.3
	c-0.3-0.9-1.2-1.2-2.1-1.4l0.3-0.2c-3.5-3-3.9-8.6-8.5-11l-0.3-0.3c-2.7,2.7,2,3.9,2.5,6.4c0.2,0.9,1.1,1.7,0.7,2.5
	c1.2,0.4,0.4,1.8,1.6,2c0.5,1.6,0.7,3.4,0.9,5.5c0.2,3-0.3,5.8-1.4,8.3c-2.2,2.7-4.7,4.8-7.8,6.4c-1.4,1.2-2.5,1.3-3.8,2.5
	c-4.1,2.4-6.7,6-9.4,9.4c-1.9,4.1-2.9,9.2-7.3,11.6c-0.8,0.7-2.4-0.2-2.7,1.4c-1.1-0.5-1.5,0.9-2.5,0.7c-3.5,2.3-5.9,6.4-5.5,10.3
	c-0.9-0.7-0.9-2.3-1.4-3.4c-0.2-3.5,2.1-6.4,5.2-8.3c1.1,0.5,1.5-0.9,2.5-0.7c1-0.4,2-1.1,3.2-1.1c1.2-1.1,2.8-1.9,3.7-3.4
	c-0.2-0.9-0.5-2.1-1.4-2.3c-0.6,2.6-3,2.4-4.8,3.7l-0.3-0.3c-0.7,1.4-2.3,1.1-3.2,1.4c-3.6,1.2-6.9,5.2-8,9.1
	c-1,2.6,0.8,4.7,1.6,6.9c-3-0.6-4.6-4.1-5.4-7.1c-0.9-1.7,1.1-2.6,0.5-4.6c0.9-1,0.9-2.4,1.8-3.4c2.1-1.9,4.8-2.8,7.1-3.6
	c0.4,0.4,1.1,0.2,1.6,0.2c0.3-0.5,0.7-0.5,1.1-0.2c2.7-1,5.1-2,8-3.2c1-1.1,2.7-1.6,3.2-3c-0.6-3.4-2.9,0.5-4.6,0.2
	c-2.4-0.2-5,1.5-7.8-0.4c-2.3,0.6-5.7-1.5-7.8,0.4c-2.5-0.6-3.7,1.8-5.7,2.5v0.5h-0.2c-1-3.2,2.5-4.2,3.9-6.4
	c0.5,0.1,1.2-0.2,1.6,0.3c0.8-1.7,3.6-0.5,4.8-1.1l0.7,0.7c1.1-1.4,2.3,0.7,3.4,0c0.8,0.3,2,0.3,3,0.5c0.3,0.8,1.3,0.3,1.8,0.7
	c-0.1,0.3,0.3,0.5,0.5,0.7c0.4-1,1.1,0,1.6,0c0.6-0.7,1.1-0.2,1.9,0c1.8-0.1,4.5-0.1,5.2-2.3c0-0.7-1-1.5,0-2.1
	c1.7-0.1,2.5-0.6,3.9-1.8c0-0.5-0.1-0.8-0.5-1.1c-1.6,0.4-3.8,1.4-5.2,0c-4.8-0.5-4.2-6.5-8.7-8.2c-1.2-0.3-2.5-1-3.6-0.5
	c0.1-0.4-0.3-0.5-0.5-0.7c-1.1,1-1.7-0.8-2.8,0.5c-0.7-0.7-1.3,1-2,0.2c2.6-2.9,6.6-2.3,9.8-1.1c4,1.8,3.8,6.9,8.5,8.5
	c1.3-0.2,2.5,1.3,3.6,0.5c2.2,0.7,3.7-0.9,5.3-1.4c0.6,0.3,0.7-0.5,1.1-0.7c0.1-0.5-0.1-0.9-0.5-1.1c-1.3-0.2-2.1,1.3-3.2,0
	c-0.5-0.1-0.8,0-1.1,0.5c-2.4,0-4.8-0.6-6.2-2.7c-1.7-3.5-2.7-7.8-6.4-9.8c1.7-0.8,4.8,0.4,6.9,1.4c2.3,2.9,5.2,6.3,8.5,8
	c2.1,0.6,4.3-0.3,5.5,1.1c1.1-1.7,4-1.1,4.6-3.2c-0.4-0.4-0.8-0.9-1.4-0.7c-1.9,1-4.7,0-7.1,0c-2.3-0.6-4.4-2.6-5-5
	c-0.2-1.2,0.3-2.3,0.5-3.4c0.9,0,0.1,1,0.7,1.4c1.7,2.6,4.4,3.8,6.9,5.5l0.5-0.5c1.2,0.6,1.9,0.6,3.2,0.9c0.7-0.7,2.2,0.6,2.8-0.7
	c0.9,0.1,1.5-1.1,2.3-0.5c0.6-0.9,2.6-1.7,1.6-3.4l-0.7-0.9c-2.5,2-6.2,2.8-9.1,1.8c-1.8-1.1-2.7-2.9-3-5c0.6-1.8,1-3.5,2.5-5.2
	c0.1-0.6,0.7-1.6,1.1-2.3c0.2-0.8,0.6-1.6,0.9-2.1c2-4.4,2.5-9.1,3-13.7l0.5-0.9c-0.3-4.3-0.5-8.2-0.7-12.8
	c-1.2-4.4-2.1-8.9-4.3-12.8c0.3-1.5-1.3-2.3-1.4-3.6c-3-3.8-6.1-7.4-10-10.5c-0.8,0.4-1.5-0.9-2.3-1.1c-1.1-0.4-1.9-0.9-2.8-1.6
	c-1.1-0.9-2.7-1.4-3.9-1.4c-0.4-1.2-1.5-0.5-2.5-0.9c0.1-0.4-0.3-0.5-0.5-0.7c-0.7,0.2-1.2-0.2-1.6-0.7c0.3-2,1.9-3,3.4-4.3
	c0.7-1.8,1.5-4.1,1.1-5.8C471,133.4,470.7,135.1,471.1,135.7L471.1,135.7z"/>
<path style="fill-rule:evenodd;clip-rule:evenodd;fill:#BBA656;" d="M165.2,144.3c-0.8,0.5-0.8,1.4-1.9,1.4c0.3-0.7,1.5-1.7,0.7-2.7
	c-0.3-0.4-0.8-0.2-1.1-0.2c-0.2,0.4-0.7,0.7-0.7,1.1h-0.5c-0.2-2.4,3-3.1,3.9-4.8C167.2,140.5,165.5,142.7,165.2,144.3L165.2,144.3z
	"/>
<path style="fill-rule:evenodd;clip-rule:evenodd;fill:#BBA656;" d="M452.2,145.3c-0.9,0.6-1.6-1.1-2.3-1.1
	c-0.1,0.6-0.6,1.6-0.5,2.5c0.5,0.4,0.8,1,1.3,1.1c0.1,0.4-0.6,0.2-0.9,0.3c-1.1-2.1-3.6-4.6-2.3-7.3
	C449.3,141.7,451,143.4,452.2,145.3L452.2,145.3z"/>
<path style="fill-rule:evenodd;clip-rule:evenodd;fill:#B1B9BF;" d="M164.9,155.3h0.5c3.6,4.2,5.7,9.2,9.6,13
	c2.4,0.6,3.6,3.4,5.7,4.3c4.4,4.4,8,8.6,10.3,14.2c-0.2,2.3,1.3,4.5,0.7,6.6c-1,0.8-2.8,0.2-3.2,1.8c-1.3,0.1-3.4,0.9-4.2-0.7
	c-0.7-0.1-1.2-0.7-1.8-1.1l0.2-0.3c-0.6-0.7-2.5-1.2-2.3-2.3c-0.7,0-1.3-0.8-2-1.1c-1.6-0.3-3.1-0.2-4.4,0.7
	c-1.3,0.7-1.2,2.4-1.8,3.6c1,0.4-0.1,1.1,0.2,1.8c0.9,1.1,1.1,2.5,1.6,3.7c-1.6,0.6-1.6-1.1-2.7-1.1c-0.9-2.2-1.2-4.9-1.3-7.1
	c-1.7-2.2-4.5-2.2-6.4-3.2l-0.5-0.5c-0.1,0.1-0.2,0.3-0.5,0.2c-2-2.5,2.1-5.6-0.9-7.3l-1.1,0.7c-2.5,3.1-2.8,8.9-8,9.1
	c-2.1,0.2-3.2-4.5-5-1.1c-1.5-0.5-2.4-2.2-3.7-3l-1.4,1.1c0-0.4-0.5-0.6-0.7-0.9c-1,0.9-2.2-0.4-3.2-0.9c-1.8-1.2-1-3.5-2.8-4.8
	c-0.8-1.8,0.1-4.8-2.5-5.5c-1.2,1.6,0.3,3.1,0.2,4.8c1.6,4.5,3.8,9.3,8,12.1c0.8,0.5,2.4,1.8,1.8,3c-1.5-0.5-2.2,0.9-3.6,0.2
	c0.2-0.4-0.3-0.6-0.5-0.9c-0.6,0.1-0.6,0.7-0.9,1.1c0.6,0.8,1.5,1,2.3,1.1c0,0.2-0.1,0.6,0.3,0.7c0.4-0.4,2.4,0.2,3.4,0.7
	c0.5-0.6,2.3,0.1,2.7-1.1c0.2,0,0.6-0.1,0.7,0.3c-0.2,1.2-1.4,1-2.1,1.8c-0.7,0-1.7-0.2-2,0.7c-0.2,0.6,0.5,1,0.9,1.1
	c0.7,0.1,1.2-0.2,1.6-0.7c2.3,1.9,5.8-2.8,6.4,0.5c-0.7,0.4-1.8,0.9-1.3,1.8c0.7,1,1.7,0,2.5,0c0.9-0.4,0.8-2,2.1-1.4
	c1.1,1.6,3.4,1.4,4.6,3.2l0.2-0.2c1.7,0.8,3.8,1.9,5.3,3.4c0.6-0.4,1.3,0.4,2,0.5c0,0.2-0.1,0.3-0.2,0.4c0.8,1.1,2.9,0.5,3.2,2.1
	c0.5-0.2,0.9,0.2,1.1,0.5l-0.3,0.2c6.1,3.9,11.8,9.1,16,15.6c4,5.7,7.1,12.2,8.7,19.2c1.8,5.9,6.1,10.1,7.3,16.2
	c2,8.1,2.2,19-0.2,26.9h-0.5c-0.5-1.8-0.1-3.8,0.5-5.4c-0.2-4.6,0.6-9.9-0.7-13.7c0.3-1.7-0.4-2.9-1.1-4.2c-1-0.8-1,0.5-1.6,0.9
	c-0.6,1.7,0.5,2.7,0.5,4.4c-0.6,3.2,0.4,6.9-0.9,10c0.1,0.6,0,1.7-0.7,2.3l-1.1,1.1c0.1-0.3-0.3-0.5-0.5-0.7
	c-0.1,0.3-0.5,0.2-0.7,0.2c-3.7-3.5-1.5-8.7-1.8-12.8c0.2-3.8-0.9-8-3.4-10.5c-2.3,0.7,0.4,2.4,0.2,3.7c0.9,5.8,0.4,10.1-0.5,16
	c-0.1,3.3,2.5,6.1,5,7.8l0.3,0.7c7.2,7.3,13.2,13,19.6,20.8c3.4,3.1,3.2,7.6,4.4,11.6c1.2,5.2-1.2,10.1-1.4,15.3
	c0.5,6.3,1.1,14.6-0.4,20.6c-2.3,3.9-0.5,7.2-0.7,11.7l0.3,8.9c-1,1.7-0.7,3.9-2.1,5.5c-0.1,1.7-1.7,2.3-2.7,3.6l-0.2-0.2l-1.1,0.9
	c0.6-3.7,3.3-7.6,3.6-11.9c0.5-3.3,1-6.9,0.5-10.3c-0.3-0.5-0.8-0.7-1.3-0.7c-1.5,2.4-1.7,5.3-2.5,8c-0.9,1.6-1.3,3.5-2,5.2
	c-0.9,2.4-3,3.7-4.4,5.9c-0.5,1.2-1.8,0.4-2.3,1.6c-0.1-0.1-0.2-0.3-0.5-0.2c0.3-0.9,1.2-1.1,1.8-1.6c3.5-4.1,5.9-8.7,7.1-13.7
	c0.5-2.1,2.1-4.6,0.7-6.4c-0.5-0.1-0.8,0.1-1.1,0.5c-0.3-0.6-0.8-0.5-1.4-0.5c-0.9,1.1-1.1,2.5-1.6,3.7c-2.2,3.4-4.7,8.6-9.4,8.9
	c-0.3,0.9-1.4,0.1-1.8,0.7c-0.4,0.6-1.1-0.3-1.6-0.7c0.2-1.9,2.3-0.4,2.5-1.9c0.2,0.6,0.9,0.8,1.6,0.7c2.7-1,4.3-2.6,5.9-5
	c0.7-2.3,3.3-3.7,3-6.6c-0.5-1.1-1.2-0.4-1.8,0c-1.6,1.1-2.7,3.5-4.6,3.4l-0.5,0.7c-0.9-0.2-1.6,1.1-2.7,0.7c0.2-1.4,2.1-1.6,3-2.7
	c2.5-1.6,4.2-4,6.2-6.4l-0.5-0.9l0.5,0.5c0.9-2.1,3.8,0.5,4.1-2.3c0.4-3.2-2.6-5.1-1.6-8.3c0.2-2.5,2.3-4.2,2.3-6.9
	c0.6-1,0.6-2.2,1.1-3.2c0-3.7,1.3-7.7-1.1-10.7c0.4-1-0.6-1.4-0.9-2.1c0.3-6.8-2.7-12.3-8.7-15.3c-2.6-1.7-5.7-2.8-8.5-4.6
	c-0.8-0.4-0.7,0.7-1.3,0.7l0.2-0.2c-1.1-1-3.1-0.7-3.9-2.1c-1,1-0.8-1-1.8-0.9c-0.8-0.9-2.5-1.2-2.5-2.7c-1.3-0.3-0.3,1.2-1.1,1.6
	v0.9c-1-0.1-1.7-1.5-2.3-2.3l-0.9-0.9c-1.8,0.9-1.6-1.7-2.5-2.5c-0.9-3.7-3.5-7.8-7.3-8.7c-2.1-1.4-3.6,2.4-5.2-0.5
	c-1.8,0.4-2.6-1.7-4.6-1.1c-1.2-0.7-2.1-2.3-3.6-2.3c-0.6,0.6-0.4,2.1,0.2,2.8c1.1,1.3,2.2,3,3.9,3c0.9,1.6,3.2,0.7,4.6,1.6
	c0.8,1.3,3,1.9,3.2,3.6c1.6,1.6,2.2,2.9,3.4,4.6c0.4,1.7,2.3,1.7,2.5,3.2c1.2,1,3.1,1.6,3.7,3c1.9,0.3,2.9,1.2,4.6,1.8
	c1.3,0.5,2.9,0.8,4.1,1.6c0.8-0.3,1.2,0.5,1.8,0.7c1.4-0.2,2.5,0.3,3.4,0.9c0.4,1.8-2.4,1.2-3.4,2.3c-0.9,1.6-3.5,0.6-3.8,1.8
	c-0.9,0.2-2-0.4-2.5,0.5c-0.2-0.4-0.7-0.2-1.1-0.2c-1.4,0.9-2.4,0.2-3.9-0.3l-0.5,0.7c-2.7,0.1-5.5-0.9-8-0.9
	c-2.5,0.3-4.9-1.5-7.7-1.1c-1.9-1.6-3.4,0.3-5-1.6c-1.8,0.1-3.9-1.1-5.2-2.1c-1,0.3-2.1-0.9-3.2-1.1c-4.4-3.4-10.1-5.5-10.5-11.9
	c-0.6-2.8,0.9-5.6,1.4-8c0.2-0.7,0.5-1.3,0.7-2c0.9,2.1,3.2,3.6,4.8,5.4c0.1-0.3,0.4-0.2,0.7-0.2c2.6,2.1,5.7,3.4,8.9,4.1
	c1.2,1.4,2.5,0.5,3.9,1.4c1.1,0.8,3.8,0.2,5.3,1.4c0.1-0.1,0.3-0.2,0.2-0.5c0.4,0.3,1.2,0.8,1.8,0.3c0.4,0.1,0.5-0.3,0.7-0.5
	c-0.1-1-1.1-1.4-1.8-1.8c-0.9,0.7-2.7-0.3-3.4-0.5c-1.6-1.1-3.2,0.5-4.8-1.4c-0.6,0.7-1-0.5-1.6-0.4c-1.7-0.4-4-1-5.5-2.1
	c-0.6-0.2-1.1-0.9-1.6-1.3l-0.2,0.2c-2.3-2.8-6.3-4.4-6.6-8.5c0-4.2,1.8-7.9,1.1-12.1c1-1.3,1.1,0.7,2.1,0.7
	c0.9,0.4,1.7-0.9,2.3,0.2l0.5-0.4l0.5,0.7c0-0.9,1.3-0.3,1.6-0.5v-0.2c2.2,0.2,3.8-0.3,5.7-1.4c1.5,0.3,1.8-1.6,3.2-1.6
	c3.9-2.5,5.5-7.2,5-11.6c0.1-2.2-1.5-4.4-2.5-6.4c-1.6-2.4-4.7-3.8-7.1-4.8c-0.1,0.1-0.2,0.3-0.5,0.3l-0.5-0.5
	c-0.2,0.6-1,0.6-1.3,0.2c-0.3-0.1-0.2-0.5-0.2-0.7c1.2,0.1,2.6-0.6,3.4,0c2.4-0.4,3.3,1.6,5.5,1.8c2.3,1.2,2.8,3.8,4.4,5.2
	c1.4,0.3,1.1-1.3,1.8-2c0.6-4.5-1.3-9.3-5.5-12.1c-1.8-1-3.5-2.5-5.9-2.3c0.2,0.1,0.4-0.1,0.5-0.2l-1.4-0.2c1.7-0.2,3.1,0.1,4.8,0.7
	c2.4,0.8,3.9,3.1,5.5,4.8c1,0.2,0.7-1.1,1.1-1.6c0.8-4.8-6.1-6.3-5.3-10.7c-2.2-4.3-6-8.4-10.7-8.7c-0.4,0.1-0.8-0.1-1.1-0.5
	l-2.5,0.5c0.1-0.6,1-1,1.6-1.1c1-0.5,2.1,1.1,2.8-0.5c0.3-1.3-1.2-1.8-1.9-2.7c-1.4-0.6-3-1-4.6-1.1c0.3,0,0.6,0.1,0.7-0.3
	c-0.8-0.3-2-0.3-2.8,0l0.2,0.3h-1.1c0-0.3,0.1-0.6-0.2-0.7c-0.3,0.2-0.3,0.5-0.3,0.7h-1.6c0.2-1.1-1.5-0.9-1.3-2.1
	c-1.8,0.1-0.4-1.2-2.1-1.3c0.5-1.6-1.8-0.8-1.4-2.3c-1.8-1-2.7-3.2-4.1-4.8c-1.6-2.7-3-5.9-3.7-9.1c-1.1-1.7-0.7-4-1.4-5.9
	c0-7.1-0.2-12.7,1.8-19c0.8-5.7,4.4-10.3,8.7-13.9c1.3-0.9,3-2.9,4.6-2.8c1.3-1,3.6-0.2,5.3-0.7c2.4-0.6,2.7-3.6,5.2-3.9
	c3.5-1.9,7,1.6,10.3,3C161.9,152.8,163.7,153.3,164.9,155.3L164.9,155.3z"/>
<path style="fill-rule:evenodd;clip-rule:evenodd;fill:#B1B9BF;" d="M462.9,149.6c2.5,0.2,3.2,4.1,5.7,3.8c0.6,0.5,2.3,1,2.5,0
	c1.2,1,3.3,0.9,4.8,1.9c1.1,0.6,1.1,2.2,2.5,2c8.8,6.7,9.4,17.9,10.1,28.6c-0.4,4-0.9,8.7-2.3,12.6c-0.6,2.1-1.5,4.3-2.7,5.9
	c-1.6,3-4,4.7-5.7,7.5c-1.3,1.4-3.6,2.4-4.6,3.9l-0.9-0.7l-0.2,0.2c-0.3-0.4-0.7-0.5-1.1-0.4c0-0.3,0.1-0.6-0.3-0.7
	c-0.2,0.5-0.5,0.8-0.5,1.4v-0.3c-1-0.6-2.4,0.3-3.6,0.5c-0.3,0.8-1,0.4-1.6,0.5c-0.9,0.9-2.6,1.6-2,3c0.8,1.5,2.5-0.8,3.4,1.1
	c0.4-0.1,0.8,0.1,1.1,0.5c-2-0.2-3.7-0.7-5.5,0.5c-3.2,0.5-6.4,3.1-8.5,6.2c-1.7,2.5-0.3,4.7-3,6.6c-2,1.5-3.1,4.5-3.2,6.9l0.9,0.9
	l2.5-3c1.5-0.2,2.1-1.8,3.4-1.6c0.8-0.9,2.2-1.1,3.2-0.9l-0.7,0.7c-0.9-0.5-1.7,0.7-2.8,0.7c-3.7,1.9-7.4,6.3-7.8,10.7
	c0.3,1.7,0.2,3.6,1.8,4.8c1.6-1,2-3.8,3.7-4.6c0.9-1.7,3-1.6,4.3-2.8c1.4,0.2,2.8-0.4,4.2,0.5c0.4-1.1,0.9-0.3,1.6,0
	c-1.7,0-3.1,0.9-4.8,0.9c-1.9,1.7-6.3,3.5-6.9,7.3c-1.2,3.7-1.8,7.7,0.5,11.2c3,2.6,6.3,6.6,10.8,6.6c0.2,0,0.6,0.1,0.7-0.2l0.5,0.7
	c0.1-0.1,0.3-0.3,0.2-0.5c1.7,0.6,4.3,0.4,6-0.2c0.2-0.3,0-1,0.7-0.7c0.8,4.3,1.2,8.6,1.4,13c-1,2.2-2.1,4.8-4.6,6
	c-1.5,2.3-4.1,2.8-6.2,4.1l-0.2-0.2c-1.1,0.6-2.4,1.7-3.7,1.4c-2.1,1.8-5.3,1.2-7.7,2.3c-0.7-0.2-1.7,0.3-2.5,0.5l-0.7,0.9
	c0.5,1.9,2.4,0.2,2.8,0.7l0.5-0.5c0.3,0.7,0.7,0.2,1.1,0c0-1,0.8-0.1,1.1,0.2c2.3-1.8,5-0.7,7.3-2.5c1.9-0.7,3-0.6,4.6-1.6
	c3.4-1.5,6.9-3.9,8.7-6.9h0.5c0.5,1.8,0.8,3.9,1.6,5.2c0.8,3.2,0,5.2-0.7,8.3c-2.3,2.5-4.3,4.2-7.1,5.7c-2.2,2.6-5.3,3-7.8,4.3
	c-1.5,0.6-3.1,1.4-4.6,1.4c-2.9,1.3-7,1.2-10.3,2.5c-0.4-0.7-3,0.5-4.1-0.2c-0.9,1.1-2.2,0.8-3.4,0.7c-0.7-0.2-1.6,0.5-2.3-0.5
	c-1.1-0.2-2.1,0.7-3,0.7c-1-0.6-2.2-0.6-3.2-1.1c-1.3,0.8-1,0.3-1.8-0.7c-2.9,0.7-3.8-2-6.4-2c-0.1-0.5-0.9-0.9-0.3-1.4
	c1.5,0.1,2.6-1.1,3.9-0.7c0.4-0.4,0.8-1.2,1.6-0.9c0.8,0,2-0.7,3-1.1c2.4-0.2,4.2-2,6.4-3c0-0.7,1.4-0.5,1.8-1.1
	c1.6-0.6,1.6-2.5,3-3c1.2-2.3,3.6-4.1,4.3-6.6c0.6-0.7,2.2-1.2,2.5-2.3c0.6-0.6,2,0.4,2-0.9c0.5,1.2,1.3-0.4,1.9,0.2
	c2.1-1.3,4.8-2.5,5.5-5.2c0.1-0.8-0.1-1.6-0.9-1.8c-1.2,1.2-2.9,3-4.6,2.7c-0.8,1.5-2-0.1-2.8,1.4c-0.9-0.9-1.4,0.9-2.3,0.7
	c-1-1.7-3.3-0.4-4.6-0.5c-2.9,1.7-5.5,5.3-6,8.5c-0.7,3.1-4.2,3.2-5.2,5.7c-0.7-0.4-0.4-1.7-1.1-2.3c-2.1,1.2-3.6,3.6-5.9,4.4
	c-0.5-0.8-1.5,0.1-1.9,0.5c-3.4-0.7-4.4,1.7-7.3,2.5c-2.6,2.1-6.3,3-8.2,5.9c-2.8,2.5-3.5,6.2-3.4,10.1c-1.2,2.4-2.7,5.4-2.8,8.7
	c-0.5,3.8,0.6,7.1,2.1,10.1c0.6,1.9,1.2,3.9,1.6,6c0.3,2-1.3,3.2-1.4,5c-0.4,0.9-0.7,2.2-0.2,3.2c0.6,0.5,1.5,1,2.3,0.5l0.2-0.3
	c2.5,4.2,6.6,7.4,10.7,10.5v0.5c-3.1,0.2-6.4-2.6-8.7-5.5c-0.6,0.2-1.2,0.5-1.4,1.1c2.2,3.9,3.9,9.4,8.9,11c1.7,1.2,4.1-1.7,4.1,1.6
	c-0.5,0.3-1.1,0.3-1.6,0.7c-0.6-0.8-1.9-0.2-2.5-1.1c-1.6,1.3-1.5-1.4-3-1.1c-2.2-3.5-5.9-5.8-6.2-10c-0.5-0.5-0.7-1.5-1.6-1.4
	c-0.3,1.9-1.4-1.1-2,0.5c-0.3,4.4,1,8.6,3.2,12.4c0.3,2,2.1,2.8,2.5,4.8c1,1.7,3,2.7,3.8,4.4c-3.5,0.5-3.4-4.4-6.1-5.5
	c-0.5-1.6-1.6-3-1.9-4.8c-0.6-2.4-1.6-4.6-2.5-6.9c0.3-1.5-0.4-2.6-1.1-3.7c-2.4,1.5-1.1,5.1-1.1,7.6c0.3,5.5,1.8,10.5,4.4,15.1
	l-0.5,0.5c-4.9-2.3-5.3-7.4-6.2-12.1c-0.5-6.2,2.1-12.8-0.5-19c-2.4-8.1,1-16-0.5-24c-0.9-4.2-1.1-7.4-0.7-11.9
	c0.7-0.8,0.4-1.9,1.1-2.7c-1.1-6.2,5.1-9,8-13.7c6.2-6.4,12-12.8,18.7-18.9c2.3-2.5,1.3-6.1,0.9-9.1c0.1-4.9-0.5-9.7,1.4-14.2
	l-0.9-0.7c-4.9,5.4-3,13.1-3.4,19.7c-0.6,1.3-0.9,3.4-2.5,3.7c-1.5,0.3-2.2-1.2-2.5-2.3l-0.9-11.2c0.6-1.4,1.5-3.3,0.5-4.8
	c-1-1.1-1.5,0.3-2.1,0.9c-1.2,6.9-1.7,13.2-0.5,20.3c0.3,0.7-0.5,1.1-0.2,1.8h-0.5c-0.9-4.7-1.9-10.5-1.8-16.2
	c1-7.2,2.2-16.1,7.5-22.4c1.8-2.8,1.9-6.2,3.2-9.1c3-8.9,8.4-16.8,15.1-23.6c1.3-0.1,1.4-1.7,2.5-2c1.6-2.1,4.2-2.3,5.9-4.6l0.3,0.2
	c0.3-0.1,0.2-0.5,0.2-0.7c2.1,0.3,0.8-1.3,2.8-1.3c0.5-1.4,2.4-1.2,3.6-1.9c-0.2-0.4-0.6-0.2-0.9-0.2c0.8,0,1.7-0.7,2.3-0.7
	c1.6-1.9,4.3-2.1,6.2-3.9c0.9,0.2,1.4-0.9,2.3-0.9c0.8,1.3,2.3,1.7,3.2,2.3c2-1.4-0.6-2.2-1.1-3.2c0.4-0.9,2-1.3,2.8-0.5
	c1.7,1.7,4,0.6,6,1.1c0.6-0.2,0.6-1,0.2-1.4c-0.4-1-1.4,0-1.8-0.5c-0.4-1-2.4-0.8-1.6-2.1c1.1,1.2,3,1.3,4.6,0.9
	c1.3-1.1,3.7-0.6,4.4-2.3c0-0.4-0.5-0.6-0.7-0.9c-0.6,1.2-2,0.5-2.7,0.7c-0.6-0.1-1-0.3-1.6-0.7c0.5-2,3.5-3.4,5-4.8l-0.3-0.3
	c1.5-1.4,2.9-3.7,3.9-5.7c1.2-2.5,2.4-5.9,1.6-8.5c-0.4,0.1-0.9-0.2-1.1,0.3l0.2,0.2c-1.4,2.3-1.7,6.4-3.9,9.1
	c-0.7,1.1-1.9,1.1-2.7,2.1c-0.4-1.5-2.6,1.7-3.2-0.7c-1.4,0.6-2.8,4.6-4.8,1.8c-0.6,0.6-1.7,0.9-2.5,1.4l0.3,0.3
	c-0.3,0.1-2.1,0.9-3,0c0.3,0.1,0.4-0.2,0.5-0.3c-1.2-0.7-2.1-0.5-3.2-1.4c-0.7-2.9-2.9-5.2-4.3-7.8c-1.4-0.1-0.8,1.2-1.6,2.1
	c0.6,1.3,0.8,2.9,0.7,4.6l-1.3,1.3c-1.8-0.6-3.1,1.2-5,0.9c0.3,0.5-0.7,1.1-1.1,1.3l0.2,0.3c-1.3,1.6-0.3,3.4-0.9,5.2
	c-0.4,1.5-2,2.1-2.8,3.2l-0.9-0.5c1-2.1,2.9-4.7,1.1-7.1c0.3-0.9-0.5-1.1-1.1-1.6c-0.4,0.2-0.8-0.3-0.9-0.4l0.2-0.3
	c-1.3-0.8-3.2-0.4-4.6,0c0.2,0.4,0.6,0.2,0.9,0.3c-1.9,0.8-4.4,2.7-5.5,4.6c-1.1-0.4-1.9,1.2-2.8,0c-0.7,1.2-1.2-0.4-2-0.3
	c-1-0.7-3.3,0.1-3.2-1.8c0.5-4.5,2.3-9.2,4.8-13c0.6-0.6,1.7-1.2,1.6-2.3c1.8-0.7,2.2-2.2,3.9-3.2c3.4-4.2,8.9-6.2,11.2-11.4
	c2.2-1.4,2.2-4.4,4.3-5.9c0.8-1.4,2.7-2.7,3.9-3.4c2-1.9,4.5-3.8,7.1-4.4c1.4-0.1,2.7-1.7,3.9-0.9H462.9L462.9,149.6z"/>
<path style="fill-rule:evenodd;clip-rule:evenodd;fill:#231F20;" d="M153.5,159c1.2,0.6,1.9,2.7,3.9,1.6c1.3-0.8,2.1-1.3,3.4-2.1
	c0.7,0.6,1.7,0.6,2.5,0.9c2.7,1.4,3.1,4.5,5.3,6.4c0.1,0.4,0.3,0.7,0.2,1.1c-0.5,0.1-0.7,0.5-1.1,0.7c-0.6-1.2-2.3-0.6-3.2-0.4
	l-0.4,0.4c-0.3-1.3-1.9,0.6-2.5-0.4l-0.7,0.2c-3-0.7-4.4-4-7.5-4.4c-0.5-1.8-5.1,0-4.4-3.2c0.6-0.9,1.9-0.6,2.3-1.6
	C152.2,158,152.7,159.5,153.5,159L153.5,159z"/>
<path style="fill-rule:evenodd;clip-rule:evenodd;fill:#231F20;" d="M454,161.2c1.7,0,2.1,2,3.9,0.9c1.1-1,2.2-1.7,3.9-2.1
	c0.6,1.2,3.6,0.5,2.5,2.8c-1,1.7-3.5,0.4-4.1,2.1c-1.6-0.7-1.7,1-3,1.1c-2.6,3.1-6.7,3.5-10.7,2.7c-0.4,1-1.1,0-1.6,0
	c0.1-2,1.3-3.6,2.5-5.5c1.6-1.1,2.6-2.5,4.4-2.5C452.4,159.1,453,161,454,161.2L454,161.2z"/>
<path style="fill-rule:evenodd;clip-rule:evenodd;fill:#231F20;" d="M185,181.1c0.5,1.2-0.9,2.3-1.4,3.2c1.5,0.9,2.1-2.1,3.7-0.7
	c2.5,1.2,1.7,3.5,1.8,5.9c0.2,1.1-1.3,0.8-1.6,1.3c-0.3-0.7-1-0.3-1.1,0c-1.5-0.3-2.1-2.1-2.8-3.4c-0.7-1.2,1.6-2.4-0.2-2.7
	c-1.7,1.6,0.3,3.2-1.6,4.6c-2-1.7-1.6-4.4-3.7-6l0.5-1.6c0.5,0.6,0.8,1.6,1.6,1.9C182.5,183.7,182.5,180.4,185,181.1L185,181.1z"/>
<path style="fill-rule:evenodd;clip-rule:evenodd;fill:#231F20;" d="M430.7,183.9c0.5,0.9,1.4,0.7,2,1.4l1.6-1.4
	c-0.3-0.6,1.2,0.5,0.7,1.1c-1.9,1.6-2.3,3.6-3.4,5.5c-0.6,0.2-1-0.3-1.1-0.7c1.7-3.8-3.1-4-2-7.3C429.6,182.2,430,183.3,430.7,183.9
	L430.7,183.9z"/>
<path style="fill-rule:evenodd;clip-rule:evenodd;fill:#231F20;" d="M429.1,186.4c0,0.5-0.1,1.1,0.5,1.4c-0.2,1.9-1.3,3-2.5,4.3
	h-2.3c-1.6-1.4-0.8-3.9-0.7-5.7C425.3,184.9,428,184.1,429.1,186.4L429.1,186.4z"/>
<path style="fill-rule:evenodd;clip-rule:evenodd;fill:#FFFFFF;" d="M180.4,197.8c1,1.6,2.5,2.3,3.4,4.2c1,0.8,2.4,3.2,3.9,2
	c0.8-0.3,1.7-0.7,2.3-1.1c0.5,0.9,0.1,2-0.4,2.8c-0.7-0.1-1.3,0-1.9,0.5l-0.4-0.5l-0.5,0.7c-0.6-0.6-2-1-2.7-0.9
	c-2.7-1.7-3.8-6.3-7.5-6.9c-0.4-0.6-1.2-1.7-0.3-2.3C177.9,196.2,178.7,198,180.4,197.8L180.4,197.8z"/>
<path style="fill-rule:evenodd;clip-rule:evenodd;fill:#FFFFFF;" d="M436.9,197.8c0.3,2.4-3.4,3.2-4.4,5c-1.1-0.2-0.6,1.5-1.4,1.6
	c-1.9,1.6-4.4,3.7-6.9,2.8c-1.7,0.4-1.3-1.5-1.9-2.3c0-0.5,0.2-1.2,0.9-0.9c0.2,1.1,1.5,0.6,2.1,1.4c2.1-0.1,4.2-2.2,5-4.1
	c1.1-1.3,3.1-2,4.4-2.8C434.9,197.4,436.1,198,436.9,197.8L436.9,197.8z"/>
<path style="fill-rule:evenodd;clip-rule:evenodd;fill:#B1B9BF;" d="M221.3,215.4l0.3-0.2v0.5c2.9,0.3,5.4,2,7.8,3.2l0.4,0.5
	c0.4-0.7,0.7,0.3,1.1,0.3c0.4,1.2,2.4,0.7,3.4,1.8c1.4,0.4,2.7,1,3.9,1.8l0.3-0.2c1.1,0.7,2.3,1.3,3.6,1.6c0.6,0.8,1.7,0.5,2.5,0.9
	c2.8,2.3,5.8,3.6,7.8,6.9c4.2,4.8,10,6.2,14.2,10.3l0.7,0.7l0.3-0.3c1.1,1.2,3.2,3.1,4.3,4.6c-1.3,0.8-2.3,2.1-3.9,2.3
	c-1-2.8-3.2-5.2-5.4-6.6c-1.2-1.6-3.6-2.4-4.4-4.6c-0.4,0.2-1.1,0.6-0.9,1.1c0,1.3,1.7,2.1,2,3c1.9,1.8,3.6,4.5,5,6.8
	c-0.6,1-2.2,0.7-3,1.8c-1.8-5.2-4.5-10.1-8.5-13.7c-0.5-0.1-0.9,0.1-1.1,0.5c0.7,4.2,2.2,8.1,3.6,12.1c-0.5,0.5,0.3,2.1-1.1,1.6
	c-1.2-3.5-1.3-6.7-2.5-10.3c-0.9-1.5-0.9-3.4-2.5-4.4c-1.3,0.7-0.5,2.3-0.7,3.4c1.7,3.4,2.3,7.2,3,11c-1.1,0.9-2.4-0.7-3.7-0.7
	c0.6-5.4-0.5-11-4.4-14.6c-0.8,0.5-1.4,0.4-2.3,0.3c-0.8-0.7-1.8-1.8-2-3c-3.3-4.1-8-6-12.1-8c-1.2-0.5-2.3,0.1-3.2-0.5
	c-2,1.6-4.2,0.5-6,2.5c-1.3,0.5-2.5,1.5-3.8,1.1c-2.2,1.5-0.7,4.3-0.5,6.2c2,3.3,0,7.2,0,10.7c-1,3.1-0.9,6.5-1.8,9.6
	c0.3,4.6-1.4,9.3-2.5,13.9h-0.5c0.4-5.3-2.3-9.3-3-14.2c-1.3-4-4.4-8.4-1.1-12.3c0.6-2.2,0.5-3.8,1.8-5.7c1.2-5.6,2.4-11.2,4.4-16.5
	c1.1-2.3,3.1-3.7,5.5-4.4C218.2,215.1,219.3,215.5,221.3,215.4L221.3,215.4z"/>
<path style="fill-rule:evenodd;clip-rule:evenodd;fill:#B1B9BF;" d="M396.4,216.8c-0.2,0.2,0.2,0.6,0.4,0.5h0.7
	c0.2,0.9,1.2,0.8,1.8,1.1c3.6,4.1,4.6,9.4,5.7,14.6c0.7,2.8,1.3,5.7,2.5,8.3c0,3.4,2.8,6.3,1.1,9.8c-2.8,5.2-3.8,11.5-5,17.1v2.5
	c-0.6,0.2-0.7-0.6-0.9-0.9c-0.2-0.6,0.4-1.5-0.5-1.8c-1.6-10.3-3.3-20-4.1-30.4c0.8-2.3,2.3-4,1.3-6.4l-1.6-1.3
	c-0.2,0.4-0.6,0.2-0.9,0.2c-2.1-0.7-3.8-3.2-6.2-2.8c-0.8-1.5-2.6-0.7-3.9-0.9l-0.5,0.5c-0.9-0.8-1.5,0.4-2.3,0.7
	c-4.1,1.6-9.2,3.7-11,8c-0.6,0.9-1.5,1.7-2.3,2.5c-0.6-1.5-2.1-0.5-3,0c-2.5,4.3-4.4,8.3-3.2,13.7c-0.3,0.2-0.7,0.7-0.9,0.3
	c-0.7,0.7-2.5,0.3-2.5,1.1c-0.2-4.6,2-9.2,3-14c-0.2-0.4-0.5-1.6-1.1-0.9l-1.6,1.8c-1.5,4.1-1.9,8.6-3.6,12.6h-0.7
	c-0.2-2.9,2-5.6,2.3-8.5c0.2-2,2.6-4.1,0.5-5.9c-4.3,3.7-6.8,8.9-9.2,13.9c-0.6-0.3-1.1-1.9-2.3-1.3c-0.8-1.7,1.8-2.5,1.9-4.1
	c1.5-1.8,3.5-3.9,5-5.8c0-0.6-0.3-1-0.7-1.4c-0.8-0.3-0.5,0.6-0.9,0.9c-3.4,3.2-7.7,5.9-9.9,10.3c-0.9-0.9-2.9-1.8-3.2-3.2
	c1-1.3,2.8-1.3,3.4-3.2c2.2-2,4.7-2.2,6.4-4.8c2.4-1,4.5-2.7,6.9-3.6c0.9-2.5,3.8-2.3,4.1-5c1.6-0.5,2-2.3,3.7-2.5
	c0.8-2.3,2.8-1.7,4.6-2.7l0.2-0.3l0.5,0.5c0.3-0.8,1.9-1.3,3.2-1.3c2.2-1.2,5-2.1,7.3-3.7c2.6-1.4,5.8-2.8,8.4-4.1
	c0.9-0.1,0.2,1.2,1.1,0.9c-0.2-1.9,1.5-0.4,2.3-1.3C394,216.8,395.4,216.4,396.4,216.8L396.4,216.8z"/>
<path style="fill-rule:evenodd;clip-rule:evenodd;fill:#B1B9BF;" d="M155.1,230l4.1,2.8c0,0.2,0,0.6-0.2,0.7
	c-2.8-2.1-6.2-1.9-9.1-0.2l-0.9-0.3c-1.8,1.6-3.8,2.8-5.9,3.4c-2,0.4-2.8,0.5-4.6,0.3c0.3-0.3,1.4-0.5,2.1-0.7
	c0.9-0.9,2.7-0.8,3-2.1c1.7-2.1,4.3-4.8,7.1-4.4C152.2,229.3,153.5,230.1,155.1,230L155.1,230z"/>
<path style="fill-rule:evenodd;clip-rule:evenodd;fill:#BBA656;" d="M461.5,231.8c0.4-1.2,2.1-0.5,3-0.4c2.9,0.9,3.9,4.8,6.6,5.9
	c0.9-0.5,1.7,0.9,2.7,0.7v0.5c-5.4,0.7-9.2-3.6-14-5.2l-0.9,0.7c-1.1-1.2-3.1,0.4-4.4,0.2c-0.3,0.3-0.7,0.3-0.9,0.7
	c-0.4-0.2-0.2-0.6-0.2-0.9c2.2-1.7,4.4-3,7.5-2.8L461.5,231.8L461.5,231.8z"/>
<path style="fill-rule:evenodd;clip-rule:evenodd;fill:#BBA656;" d="M89.7,255.6c-2.2,9.9-3.3,19.7-2.8,30.4
	c0,5.2,2.6,10.5,3.9,15.7c1.6,1.1,0.6,3.6,2.5,4.4c1.8,3.5,3.7,6.9,7.1,9.4v0.4c2.6,3.7,6.7,4.9,9.8,8c-0.6,1.3-1.7-0.6-2.5,0
	l-0.5-0.4c-0.9,1.5-1.8-1.1-2.8,0.4c-1.8-1.4-4.2-0.1-6-1.1l-0.4,0.5c-2.9-0.8-5.5,0.5-7.6,2.3c0.6,0.7-0.8,1.3-0.7,2.3
	c-1.4,3.6,1.5,6.3,3.7,8.3c1.3,1,2.9,2.7,4.3,3.4c0.4-0.4,1.1-0.9,0.5-1.4c-1.9-0.6-2.5-3.2-4.1-4.1c-1.8-1.2-1.5-3.2-1.1-5.2
	c1.1-1.1,1.9-2.6,3.9-2.3l0.7-0.7c0.4,0.8,1.3,0.7,2.1,0.7l0,0.2c0.8,0.2,2.5-0.4,3.4,0.5c0.6-0.5,1.9,0,2.7,0.5
	c1.2,0.2,2.5-0.4,3.7,0.5c0.6-0.9,1.3,0.5,2.3,0c1.1,0.9,2,0.1,3.2,0.7c-0.1,1.2-1.5,2.2-2.3,3c-1.7,1.3-3.4,2-5,3
	c-1-0.4-1.4,0.6-1.9,1.1c0.6,3.6,5.5,4.9,3.7,8.9c-0.5-0.5-2.1-1.6-3.2-0.9c-0.5-1-1.8-0.9-3-0.9c-1.1-1.8-2.4,0.7-3.6-0.9
	c-0.8,0.5-2.1-0.9-2.7,0c-1.3-0.8-2.7,0.4-4.2-0.5l-0.7,0.7c-0.4-1-2.2-0.2-3.2,0c-1-0.2-2.7-0.8-3.4,0.4c-1.6-0.2-3.4,0.5-4.8,1.4
	c-1,0-2.2,0.8-3.2,1.4c-3.2,2.9-6.6,6-8,10.1c-0.9,4.8-2.2,10.3,0.3,14.8c0.8,6.8,4.7,12.6,4.3,19.7c-3.3-7.1-12.5-8-14.6-15.6
	c-2.9-2.4-2-5.7-2.5-9.1c-1.3-2.3-0.9-5.3-3.2-7.3c1.6-3.6,1.4-8,3-11.6c0.8-1-0.5-1.8-0.7-2.8c-1.6-0.6,0.7-2.1,0.7-3.2
	c2.1-6.3,6.8-11.4,13.9-12.1c1.3-0.5,0.7-1.9,0.3-2.5c-2.9-1.3-6-3.9-6.6-7.1c-0.7-0.8-1.4-2-1.1-3c1.3-1.3,3.3-1.7,4.8-1.8
	c1.1-0.9,2.7-0.3,4.1-0.5c0.9,0.6,1.7,1.5,3,1.1c1.2-0.5,0.6-1.9,0.2-2.5c-0.8-0.7-1.3-1.5-2.3-2.3c-1.3,0.1-1.5-1.4-2.3-2.1
	c-2.9-4.2-3.8-9.8-4.1-15.1c0.5-1.5-0.2-3.6,1.6-4.3c0.2-4.8-0.4-9,0.5-13.5l0.5-0.5c0.6,0.2,0.7,1.2,0.7,1.6
	c0.8,0.4,1.1-0.6,1.8-1.1c1.6-5.7,3.9-11.2,7.1-16.2h0.7c-0.3,0.6,0.3,1.4,0.5,2.1c1.1,0.8,1.9-0.4,2.5-1.1c2.3-1.9,5.4-5,7.1-7.5
	C89.6,252.7,90.2,254.4,89.7,255.6L89.7,255.6z"/>
<path style="fill-rule:evenodd;clip-rule:evenodd;fill:#BBA656;" d="M522.6,253.8c2.6,3.9,5,6.6,8.9,9.4c0.3-1,1.5-1.6,1.1-2.8
	c1,0.1,0.8,1.5,1.6,2c3,4.8,4,10.3,6.4,15.3c1.1,0.4,1.1-1.1,1.8-1.4l0.9,3.4c0.6,4.1-1.3,8.6,1.1,12.1c0.2,7.2-0.3,14.8-5.9,19.7
	c-1.5,0.6-2.2,1.7-3.2,3c0.2,0.4,0.2,1.9,1.3,1.8c1.1,0.5,0.8-1,1.6-0.9c0.9-0.3,2-0.3,2.7-0.9c0.4,1,1.3,0,1.8,0.5
	c1.9,0.6,3.6,1.4,5.3,2.5c-0.8,2.6-1.9,5-3.9,7.1c-1,2-5.7,1.9-4.2,5c0.8,0.2,1.7,0.6,2.3,0.4c6.3,1.2,10.6,7.2,11.9,13
	c0.8,0.5,0.9,1.2,0.9,2.1c-3,2.5,0.9,5.7,0,8.7c0.1,2.4,2.9,5.4,0.2,7.3c-1.6,3.9-2.5,8.4-2.7,12.6L552,374c-1.8,4-4.6,8.2-8.7,10
	c-0.8,1.2-1.7,1.9-3,2.3c-1.1,1.8-3,2.6-3.7,4.6h-0.4c-0.4-2,0.7-4,0.7-6.2c0.3-2.3,1.7-4.1,1.8-6.6c1.7-3.6,2.4-7.6,3.6-11.4
	c-0.1-8-2.4-15.8-9.8-20.1c-2.8-0.9-4.4-2.9-7.5-2.8c-1.5-0.8-3.3,0-5-0.9c-3.8,0.6-8.2-0.4-11.6,0.9c-1.6,0.5-3.6,1-4.8,1.1
	c-0.2,0.2-0.3,0.6-0.7,0.5c-0.4-0.2-1.1,0.3-1.6,0.5c-0.8-2.1,1-3.8,1.8-5.5l0.5,0c0.4-1.3,3.1-2.6,1.1-4.1c-1,0.4-1.1-1.1-2-0.9
	c-2.5-0.2-3.6-2.3-5.5-3.7c-0.5-0.5-1.4-1.1-0.7-1.8c2.6-0.1,6.5-0.7,9.1-1.1c1.6,0.8,3.2-1.7,5.2-0.5c0.5-1,1,0.1,1.6-0.5
	c0.5,0.1,2.2-0.8,2.5,0.5c1.5-1.4,2.1,1.1,3.2,1.6c1.7,4.4-3.1,6.7-5.5,9.3c0.1,0.6-0.3,1.4,0.5,1.6c2.1-1.2,3.3-3.1,5.5-4.1
	c1.5-1.8,3.7-4.3,2.5-6.9c0.6-1.5-0.9-2.6-1.4-3.9c-0.7-0.1-1.5-0.7-1.9-1.1c-1.1,0.7-2.3-1.4-3.4,0c-1-0.7-2,0-3.2-0.2l-0.5,0.4
	c-0.2-1.2-1.4-0.4-2.1-0.4c-0.8,1-1.8-0.5-2.5,0.7c-1.8-0.7-3.9,0.4-5.2,0c2.6-1.2,3.6-3.6,6.4-4.4c-0.2-1,1-0.6,1.4-1.3
	c8.4-7.5,13.8-18.2,15.6-29.5c1.1-6.1-0.2-12,0.2-17.8c-1-3.6-0.7-7.8-2-11.2c-0.7-2.5-0.4-4.9-0.5-7.3H522.6L522.6,253.8z"/>
<path style="fill-rule:evenodd;clip-rule:evenodd;fill:#B1B9BF;" d="M147.8,265c-0.6,1.8-2.2,2.9-3.9,3.4c-0.7-0.1-1,0-1.4-0.9
	c0.5-2.9-0.4-7,2.5-9.1C147.3,259.9,148.2,262.5,147.8,265L147.8,265z"/>
<path style="fill-rule:evenodd;clip-rule:evenodd;fill:#B1B9BF;" d="M469.3,269.6c-1.3,0.8-2.3-0.5-3.4-0.9c-2.1-1.2-1.1-3.3-1.4-5
	c0.3-1.3,1.3-2.3,2.1-3.4l-0.2-0.2C470.4,261.2,469,266.4,469.3,269.6L469.3,269.6z"/>
<path style="fill-rule:evenodd;clip-rule:evenodd;fill:#231F20;" d="M85.2,263.6c-1,3.6-1.7,7.6-2.1,11.2c-2,9.7,0.6,19.9,3.7,28.8
	c0.9,2.9,2.5,5.5,3.8,8.2c-0.3,1-1,1.7-2,2.1c-3.2-2-3.1-5.8-4.6-8.7c-3.1-9.2-4.6-19.6-3.2-29.2c0.1-3.6,1.5-7.1,2.1-10.3
	c1-1.3-0.4-4.4,2-5.2C85.3,261.6,85.1,262.3,85.2,263.6L85.2,263.6z"/>
<path style="fill-rule:evenodd;clip-rule:evenodd;fill:#231F20;" d="M528.3,263.9c1.9,9.3,3.8,19.7,2.7,29.2
	c-0.7,2.5-1.4,4.9-1.8,7.5c-1.4,4.7-2.5,9.5-5,13.8c-0.6,0.8-1.9,0.8-2.8,0.4c-0.9-0.7,0-1.8,0-2.7c2.9-3.9,3.7-8.7,5.5-13
	c-0.5-0.6,0.5-1.1,0.5-1.9c2.5-8.4,2-17.8,0.5-26.5c-0.4-2.7-2.5-5.7-0.7-8.5L528.3,263.9L528.3,263.9z"/>
<path style="fill-rule:evenodd;clip-rule:evenodd;fill:#BBA656;" d="M136.3,267c-0.5,5.1,0.1,11.3-1.4,16.2
	c-1.9,11.3-4.8,22.2-9.8,32.2c-2.2,4.4-2.4,8-4.8,12.3v0.7c-0.8,0.1-0.3,1.2-0.9,1.6c-1.6,4.9-3.6,9.7-5,14.6
	c-1.4,4.5-2.2,9.8-4.1,14.4l-0.5,4.1c-1.1-0.4-0.7-2.4-1.1-3.2c-0.6-2-1.9-3.7-2.5-5.7c3.6-1.8,7.1-5.2,7.5-9.4
	c0.5-2.9-1.5-5.4-2.5-8c3.6-3.2,8.4-5.9,9.1-11l0.5-0.5c0.8-4.2-1.3-7.9-2.3-11.6c3.1-2.5,7.6-4.6,8-9.1c-0.6-3-1.2-5.9-3.2-8.3
	c-0.1-1.5,1.9-1.6,2.5-2.5c4.4-4.1,6-10,4.8-15.8c-0.6-1.4-1.6-3-1.8-4.4c2.7-1.1,4.5-3.7,6.6-5.9
	C135.4,267.5,135.6,266.8,136.3,267L136.3,267z"/>
<path style="fill-rule:evenodd;clip-rule:evenodd;fill:#BBA656;" d="M219.8,269.1c9,5.5,12.7,15.8,13.4,26.1
	c0.8,2.4,0.4,5.2,0.5,8.2c-0.2,9.5-1.8,19.5-4.1,29c-1,3.3-1.7,7.3-3,10.7c-0.9,6-3.7,11.2-4.6,17.1c-0.3,1.1-1,2-0.7,3.2
	c-0.4,0.2-0.6-0.2-0.9-0.5c1-5.3,3.6-11.1,2.3-16.2c-0.6-5.1-1-11.4,0.5-16.3c1.7-6.5-0.7-12.8-1.9-19.2c-1-2.7-4.9-3.8-3.4-7.5
	c-0.6-3.3,1.3-6.3-0.7-9.6c0.2-2.3-0.9-4.9-2.5-6.6c-1.6,0.7-3.5,0.8-5.2,0.4c-0.4-1.1-0.9,0.2-1.6-0.2c-0.4-4.3,2.1-7.9,3.2-11.9
	c0.6-2.8,1.5-5.9,2.7-8.7C216,267.5,217.7,268.7,219.8,269.1L219.8,269.1z"/>
<path style="fill-rule:evenodd;clip-rule:evenodd;fill:#BBA656;" d="M399.6,270c0.7,5.8,4,11,5,16.9c0.5,1.6-0.6,2-1.8,2.1
	c-2.1-0.2-3,0.9-4.8-0.5c-2.6,1.6-2.7,5.1-3.6,7.8c-1,4.2,1.2,8.8-1.1,12.8c-4.3,3.2-3,9.1-5,13.5c-0.5,5.7,1.8,11.6,1.6,18.3
	c-0.3,3.6-1.3,7.8-0.9,11.7c0.3,3.9,1.8,7.3,2.1,11.2c-1.4-0.1-0.6-1.9-1.1-2.7c-1.1-2.8-1-6-2.5-8.5c-0.8-3.1-2-6.6-2.5-10.1
	c-1.3-4.2-2-7.9-3-12.4c-1.5-1.5,0.1-4.2-1.4-5.7c-2.3-11.6-2.5-22.1-0.7-33.1c1.2-5.1,2.6-11,6.2-15.3c2.5-2.9,5.5-5.1,8.9-6.9
	l0.4,0.5c0.1-1.7,1.8-0.3,2.3-1.4C398.8,268.1,399.3,269.2,399.6,270L399.6,270z"/>
<path style="fill-rule:evenodd;clip-rule:evenodd;fill:#BBA656;" d="M477.8,270.9c1.4,1.3,2.7,3.1,4.3,3.9c0.9,0.4,1.1,1,0.7,1.8
	c-3,4.8-2.5,11.1,0.9,15.6c0.6,2,3,4.2,4.8,5c0.2,1.4-1.1,1.6-1.4,2.8c-1.6,3.9-3.1,7.9,0.5,11.4c1.2,1.3,3.1,2.2,4.8,3
	c0.8,0.6,0.5,1.8,0.3,2.5c-1.7,3.1-2.5,7.3-1.8,10.5h-0.7c-1.8-9-7.7-16.3-9.3-25.4l-1.8-7.8c-2-8.3-3.9-17.2-2.8-25.3
	C477.2,269,476.9,270.4,477.8,270.9L477.8,270.9z"/>
<path style="fill-rule:evenodd;clip-rule:evenodd;fill:#231F20;" d="M75.1,292c1.2,5.7,2.8,11.3,5.7,16.3c1.6,1.5,3.7,3.5,4.1,5.9
	c-0.6,0.8-1.7,1.7-2.5,0.7c-5.5-4.8-7.3-12.1-8.5-18.7c-0.6-2.5-0.6-4.2-0.9-7.1c-0.2-0.6,0.4-0.9,0.5-1.4
	C75.4,288.5,74.6,290.6,75.1,292L75.1,292z"/>
<path style="fill-rule:evenodd;clip-rule:evenodd;fill:#231F20;" d="M536.3,304c-1.5,4.2-3.5,8.6-6.6,11.7c-0.9,0.2-1.6,0.9-2.3,1.4
	c-0.4-1-1.2-1.6-0.7-2.7c5.3-5.2,8-11.8,9.1-19c1.6-1.9-0.4-5,2.5-5.7C538.7,294.9,536.9,299.3,536.3,304L536.3,304z"/>
<path style="fill-rule:evenodd;clip-rule:evenodd;fill:#B1B9BF;" d="M143.2,307.9h0.9c0.5,1.2,1.9,1.4,2.7,2.3l0.3-0.2
	c2.5,2.5,5.3,2.3,8,4.6c1,0.2,2,0.9,3,0.7c1.1,0.3,1.9,1.8,3.2,0.9c0.5,1.3,1.5,0.3,2.5,0.9c1.8-0.7,2.3,2,3.9,0.3
	c1.3,1,3.9,1,5.7,0.9l0.7,0.7c1.2-0.8,2.8,0.3,4.1-0.7c1.7,0.8,3.4,0,5.3,0.3c1.3-0.7,3.5,0.6,4.6-1.1c1.2,0.4,1.6-0.4,2.7-0.5
	c-0.8,2.5-3,4.9-4.2,7.5c-2.1,3.2-6.3,3.2-8.9,5.3c-0.4-0.5-1.1,0-1.4-0.7c-0.7,1.3-2,0-2.3,1.4l-0.5-0.5l-2.7,0.2
	c0,0.2-1.1-0.7-1.4,0.3l-0.5-0.5c-0.7,1.4-1.4,0.2-2.3,0.7c-0.6,0-0.8-0.8-1.4-0.9c-0.9,0.7-2.3,0.6-3.2,0.4
	c-1.4-0.9-3.1-0.5-4.6-1.6c-0.5,0.7-1-0.6-1.3,0.4c-1.1-1-2.9-0.7-3.7-2c-1.7,0-3.2-1.8-5.2-1.9c-0.8-0.2-1.7-2.1-3-1.1v-0.2
	l-4.8-3.2c-2.1-3-4.8-3.8-5.7-7.3c-1-4.3,1.3-7.7,2.8-11.2C138.6,303.8,141.2,306.2,143.2,307.9L143.2,307.9z"/>
<path style="fill-rule:evenodd;clip-rule:evenodd;fill:#B1B9BF;" d="M476.8,306.8c1.3,2.3,1.4,4.9,0.9,7.3c-0.4,3.8-4.3,5.6-6.4,8
	c-1.4,1-2.7,1.8-4.3,3c-1.7,0.2-3.6,1.1-5.2,2.1c-1.3,1-3.3,0.7-4.4,2.3c-0.6-0.5-1.4-0.1-1.8,0.5c-1-0.9-2,0.6-2.5,0.5
	c-2.3,0.1-5.1,1-7.7,0.7c-0.5,1.7-1.6-0.3-2.5,0l-3.6,0.2c-1-0.9-2,0.1-3-0.9c-1.7-0.5-3.6,0.2-5-1.6l-0.3,0.2
	c-1.4-1.1-3.2-1.2-4.6-2.5c-2.1-2.8-4.2-5.9-5-8.9c0.3,0.1,0.4-0.1,0.5-0.2c0.5,1.6,3.4,0.7,4.8,1.8c1.6-0.1,3.9,0.1,5.2,0.7
	c1.4-0.7,3-0.5,4.3-0.2c0,0.2-0.1,0.6,0.3,0.7c-0.1-1.3,1.1-0.4,1.6-0.7c0.3,0.5,0.7-0.5,1.1-0.5c3.5-0.3,6.3-0.3,9.6-0.9l0.4-0.4
	l0.5,0.4c0.4-0.2,0.6-0.9,1.1-0.7l0.3,0.3c0.8-0.5,1.4-0.9,2.3-1.1c3.6-0.4,6.1-2.8,9.6-3.9c0.4-1.2,1.8-1.1,2.5-1.4
	c1.3-1,2.8-2.5,4.4-3.4l0.2,0.3c1.6-1.5,3.4-3.8,5.3-4.8L476.8,306.8L476.8,306.8z"/>
<path style="fill-rule:evenodd;clip-rule:evenodd;fill:#B1B9BF;" d="M134.3,318.5c3.8,5.7,10.3,8.4,16,11.4c1-0.5,1.3,1,2.3,0.5
	l0.9,1.4c0.6-0.1,0.8-1.1,1.6-0.7c0.8,1,2.5,0.5,3.6,1.1l0.3,0.2c0.7-0.9,1.8,0.8,2.7,0v0.3c1.8-0.3,3.4,0.6,5,0
	c0.9,0.9,1.9-0.1,2.7,0.9c1-1.5,2.8,0.2,3.9-1.1c0.9,0.4,1.8,0.1,2.5,0.7c0.5-0.9,1.7,0,2.1-1.1c1.5,0.2,2.6-1.4,3.9-0.9
	c-1.7,3-4.4,6.4-6.9,8.9c-1.5-0.3-3.3,1.9-4.4,1.4c-0.8-0.1-2.3,1-3.6,0.9c-1.7-1-3,2.1-4.4-0.3c-0.7,0.6-2,1.7-3.2,0.9
	c-0.3-0.5-0.7-0.5-1.1-0.3c-0.8,0-1.2,1-1.6-0.2c-1,0.8-1.9-0.4-3,0c-3.3,0.4-5.5-2.5-8.7-1.8c-2.3-1.3-5.1-1.7-7.3-3.4
	c-2-0.3-2.5-3.1-4.8-3c-3.1-3.2-6.2-7-4.6-11.9c0.7-2.2,2.2-4,3-6.2C132.3,316.8,133,318,134.3,318.5L134.3,318.5z"/>
<path style="fill-rule:evenodd;clip-rule:evenodd;fill:#B1B9BF;" d="M483.5,323.7c1.1,4.9-2.3,9.5-6,12.4c-2,1.1-3.7,3-6.2,3.2
	c-0.3,0.8-1.4,0.5-1.8,1.4c0.6,0.3-0.6,0-0.7-0.5c-0.5,0.7-2.1,1.3-2.3,1.6c-0.2-0.4-0.6-0.2-0.9-0.3c-1.5,0.7-3.5,0.4-4.8,1.6
	c-1-0.1-2.4,0.1-3.4,0.7l-0.5-0.4c-0.7,0.7-1.7,0.2-2.3,0.7c-0.6-0.6-1.9,0.2-2.3-0.5c-0.9-0.5-1,0.9-1.8,0.7
	c0.1-0.3-0.3-0.5-0.5-0.7c-0.4-0.2-0.6,0.2-0.9,0.5c0.1-1.4-1.1-0.4-1.6-0.7c-0.4,0.2-0.6,0.9-1.1,0.7l0.2-0.3
	c-1.3-0.8-3.3-0.2-4.4-1.6c-0.9,0.8-2.5-0.5-3.8-0.7c-0.8-0.8-1.8-0.3-2.8-1.1c-2.6-2.4-3.9-5.8-6-8.7c0.3-0.3,0.9,0,1.1,0.5
	c0.6-0.8,0.8,0.6,1.4,0.5c2.1,0.9,5.3,0.9,7.3,0.9l0.9,1.1c0.1-1.1,1.5-0.7,2.1-0.4l0.2,0.2l1.8-1.1l-0.2,0.2c0.9,0.3,2.4,0.9,3.4,0
	h-0.2v-0.4h0.2c-0.3,0.8,0.6,0.5,0.9,0.9c0.3-0.9,1.3-0.1,1.8-0.7l0.5,0.7c0.2-0.5,0.3-1.2,1.1-0.9l0.2,0.2c1.1-1.1,2.3,0.3,3.2-1.1
	c0.5,1.2,1.1-0.7,1.8,0.2c1.1-0.5,2.3-0.7,3.2-1.6c0.9,0.1,1.8-1.3,3.2-0.9c5-3.1,11.1-6.2,14.4-10.7c1.1,0,1-2.3,2.3-1.6
	L483.5,323.7L483.5,323.7z"/>
<path style="fill-rule:evenodd;clip-rule:evenodd;fill:#B1B9BF;" d="M127.7,332.4c4.4,5.8,12,9.5,18.5,12.4c1.1-0.2,2.6,0.4,3.7,0.2
	c1,1.3,3.5,0.3,5,0.9c1-0.2,2.4,0.4,3.2-0.2l0.5,0.7c0.2-1.6,1.8,0.2,2.3-0.9c0.1-0.3,0.6,0.6,0.9-0.2c0.3,0.2,0.5,0.6,0.9,0.5
	c0.5-0.4,1.7-0.1,2.3-0.9l3.7,0.2c0.8-0.7,2.1-0.9,3.2-0.4c-0.9,1.7-3.1,3.3-3.4,4.8c-1.2,0.6-1.8,3.3-3.9,3
	c-0.9,1.1-2.4,1.1-3.4,2.1l-0.2-0.2c-0.6,0.9-2.1-0.1-2.7,0.9l-0.5-0.5c-0.4,0.2-0.2,0.8-0.7,0.7l-0.2-0.3c-1.9,1-3.1-0.3-5,0
	l-0.5,0.5l-0.5-0.5c-0.3,0.3-0.5,0.6-0.9,0.5l-0.5-0.7c-3.2,0.3-5.6-1.5-8.7-1.4c-0.3-1.2-1-0.2-1.8-0.7c-3.5-1.9-7.4-3.2-10.3-6.2
	c-2.9-1.5-4.3-4.8-5.9-7.5c0.2-1.1-0.4-2.6,0.5-3.4c0.5-1,0.5-2.2,1.1-3.2c0.2-1,0.7-1.9,1.4-2.7
	C125.8,330.9,127.4,331.3,127.7,332.4L127.7,332.4z"/>
<path style="fill-rule:evenodd;clip-rule:evenodd;fill:#BBA656;" d="M493.5,332.7c1.8,2.2,4.2,3.5,6.4,5.4c-1.5,3.4-4,7.8-1.4,11.5
	c0.9,2.4,4.3,4.3,6.4,5.9c0.3,1-1,1.2-1.1,2.1c-1.4,2-2.1,4.6-2.1,6.9c-1.1-0.3-0.7-2-1.1-3c-2.3-10.6-5.1-21.1-9.1-31
	C492.8,330.3,492.6,332,493.5,332.7L493.5,332.7z"/>
<path style="fill-rule:evenodd;clip-rule:evenodd;fill:#B1B9BF;" d="M486,331c2,3.8,4.3,8.4,0.9,12.1c-1.4,2-2.5,4.3-5,5.3
	c-1.8,1.5-3.6,2.4-5.7,3.6c-2.9,1-4.5,1.7-7.3,2.8c-0.9-0.4-2-0.5-2.3,0.5c-0.6-0.7-1,0.5-1.6,0.4c-3,1.1-7.4-0.3-10.3,0.7l-0.5-0.5
	c-0.2,0.4-0.6,0.2-0.9,0.2c-0.9-1.1-2.2,0.3-2.8-1.1l-0.3,0.3c-1.8-0.6-3.3-2.2-5.2-2.5c-1.8-2.3-3.3-4.8-5.2-7.1V345h2.1v0.5
	c2.7,0.3,6.1,1.3,9.1,0.9c0.3,0.7,1.2,0.5,1.6,0.2l0.3-0.2v0.2c2.3,1.4,4.6-0.9,7.3,0.5c0.5-1.4,1.7-0.1,2.5-1.1
	c2-0.5,4,0.2,5.5-1.6l0.2,0.3l0.9-0.9l0.2,0.2c4.1-1.7,7.6-4.8,11.4-7.3c1.8-1.6,3.3-3.6,4.6-5.5H486L486,331z"/>
<path style="fill-rule:evenodd;clip-rule:evenodd;fill:#231F20;" d="M73,335.6c-3.5,3.3-7.2,6.4-8.9,11c-2.5,4-2.8,8.3-3.2,12.8
	l-0.7,1.1l-0.7-0.7c0.5-4.6-0.1-7.7,0.9-12.4c2.5-5.5,6.4-11.2,11.7-14.6C72.6,333.7,73.8,334.5,73,335.6L73,335.6z"/>
<path style="fill-rule:evenodd;clip-rule:evenodd;fill:#231F20;" d="M543.6,338.1c0.5,1.6,1.6,1.6,2.5,3c1.2,2.4,3,4.6,3.6,7.3
	c1.8,1.5,0.4,4.5,1.1,6.1v7.1c-0.7,0.2-0.9-0.7-1.1-1.1c0-9-3.9-16.9-11-22.6c-1-0.8-1.1-2.1-0.2-3
	C540.4,335.5,541.8,337.2,543.6,338.1L543.6,338.1z"/>
<path style="fill-rule:evenodd;clip-rule:evenodd;fill:#B1B9BF;" d="M120.8,341.3c2.7,4.4,6.6,8.7,11.2,10.7
	c0.5,1.2,1.8,0.4,2.3,1.6c1.7,0.3,3.2,1.2,4.6,2.3c0.6-0.1,1.4,0.2,1.8-0.3c1.8,1.4,4.8,1,6.2,2.1c1.6-0.6,4,0.2,5.7,0
	c1.4,0.7,3.6-0.6,5,0.5c0.9-1,1.7,0.1,2.5-0.9l-0.3-0.2h0.7c0,2.4-2.3,3.4-3.8,5.5c-2,1.2-4,1.9-6,3.2c-1.8,0.5-4.5,0.1-6.6,0.5
	l-0.7-0.7c-0.9,0.9-1.7,0-2.7,0.7c-0.6-1.3-1.6-0.3-2.3-1.1c-1.4,0.5-2.7-0.8-4.3-0.7c-0.3-0.5-0.7-0.5-1.1-0.3
	c-4-2.2-8.4-4.1-11.4-8.2c-2-2.9-3.8-5.5-3.2-9.1c0.8-1.8,1.8-3.5,2.1-5.5H120.8L120.8,341.3z"/>
<path style="fill-rule:evenodd;clip-rule:evenodd;fill:#231F20;" d="M74.6,345.2c-4.9,5.1-8.3,12.2-7.7,19.4
	c0.7,7,3.8,13.2,5.2,19.7c-0.3,0.3-0.2,1.2-0.9,0.9c-2.2-5.3-3.8-10.2-5.7-15.7l0.3-0.3c-0.9-1.3-0.2-2.4-1.1-3.6
	c-0.2-4.8,0-9.4,1.6-13.5c1.7-1.8,2-4.4,3.7-6.2c1.6-0.8,2.7-4.6,4.8-3V345.2L74.6,345.2z"/>
<path style="fill-rule:evenodd;clip-rule:evenodd;fill:#B1B9BF;" d="M491.7,344.7c1.1,2.6,2.1,5.2,0.7,8c-1.4,3.9-5.1,5.8-8,8.9
	c-0.5-0.2-0.7,0.3-1.1,0.5c-0.7,1.5-2.9,1.7-4.3,2.5c-1.4,0.1-2.5,1.8-3.4,0.7c-1.4,1.1-4.3,0.6-6,2.1c-0.2-1.7-1.5,0.4-2-0.9
	c-0.1,1.1-1.3,0.4-1.9,0.9c-0.7-0.7-1.3-0.4-2.3-0.7l-0.4,0.4c-0.7-0.6-1.7-0.8-2.3-0.7c-4.2-1.4-7.8-4-10.3-8V358
	c1.9,1.3,3.7,0.5,6,0.7c1.1,0.6,2.3-0.2,3.4-0.3c-0.2,0.4,1.2,0.2,1.8,0.3l0.5-0.5c1.2,0.7,2.3,0.5,3.6,0.2c0.8-0.6,1.9-0.6,2.8-0.9
	c1.8-0.8,4.3-0.2,5.7-1.9c1.7-0.2,2.8-2.1,4.6-2c0.5-1.4,2.3-0.2,2.3-1.8c4.4-1.6,7.1-5.6,9.4-9.2
	C491.4,342.5,491.1,344.1,491.7,344.7L491.7,344.7z"/>
<path style="fill-rule:evenodd;clip-rule:evenodd;fill:#231F20;" d="M545.4,355.7c1.2,3.5,0.6,7.9,0.5,11.7c-0.7,1-0.5,2.3-0.9,3.4
	c-1.6,5.3-3.2,10.6-5.7,15.5h-0.5c0.4-8,5.6-14.7,5.2-23.3c-0.2-6.5-3.5-11.8-7.7-16.7c-0.8-1.2,0.4-1.7,0.7-2.8
	C540.8,347,543.7,350.8,545.4,355.7L545.4,355.7z"/>
<path style="fill-rule:evenodd;clip-rule:evenodd;fill:#B1B9BF;" d="M117.6,354.6c1.9,3.6,4.9,5.5,7.8,8.7c1.5,0,1.7,1.8,3.2,1.8
	c1.8,1.7,4.1,1.3,6,2.5l0.2-0.2l0.5,0.5c0.7-0.7,1.3,0.3,1.8,0.4c1.2-0.5,2.2,1,3.6,0.5l0.5,0.7c0.7-1,1.3-0.4,2.3-0.3
	c1-1.2,2.3,0.4,3.2,0c1.2-0.3,3.2-0.3,4.6-0.9c0.4,0.8-1,1.5-1.1,2.3c-1.8,2.5-4.6,3.6-7.1,5c-1.8,0-3.2,0.9-4.8,1.1l-0.7-0.7
	l-0.5,0.5l-0.5-0.5c-0.2,0.9-1.4,0.1-1.8,0.5c-0.7-1.2-1.7,0.4-2.5-0.2c-0.8-0.4-1.9-1.1-2.7-0.5l-0.3,0.2c0,0.4-0.1-0.6-0.4-0.7
	c-2.5-0.9-5-1.9-7.3-3.2c-2.3-1.3-4.6-3.4-5.7-5.9c-1.3-1-1.1-3.1-1.9-4.6c-0.1-1.7,1-3.1,0.9-4.8c0.9-1.3,1.1-2.9,1.6-4.3
	C117.7,352.5,116.9,354,117.6,354.6L117.6,354.6z"/>
<path style="fill-rule:evenodd;clip-rule:evenodd;fill:#B1B9BF;" d="M496,357.6c0.6,2.7,1.6,5.3,0.2,8c-0.7,1.5-1.8,3.2-3,4.1
	c-3.1,3.3-7.4,5.8-11.6,7.1c-1.3-0.7-3.3,1.3-3.7,0.5c-2.7,0.5-4.5,0-6.9,0.3c-0.4-0.9-1.1-0.2-1.6-0.3c-1.7-1.1-3.7-1.4-5.2-3
	l-0.2,0.2c-1.1-2-3.6-2.6-4.4-5c1.1-0.5,2.2,1,3.4,0.2c0.6,1.1,1.7-0.2,2.3,0.2c0.8-0.2,2.7,0.6,3.4-0.7l-0.2-0.2
	c1.2,2.2,3.4-0.4,5,0.5c0.4-1.5,1.6,0.3,2.3-0.9c3.8-0.6,6.6-2.2,9.9-4.1c1.5-1.5,3-3.2,4.6-4.4c1.4-2,3.4-3.8,3.9-6.2
	C495.5,354.4,495.4,356.3,496,357.6L496,357.6z"/>
<path style="fill-rule:evenodd;clip-rule:evenodd;fill:#B1B9BF;" d="M168.8,357.6c0.7,1.8,1.3,4.3,2.1,6.4c0.6,3.7,1.8,6.9,0.7,10.7
	c-0.2,0.6,0.2,1.1,0.5,1.6c1.4-0.3,1.8-1.9,2.3-3c-0.5-3.7,1.1-7.5-0.5-11.6l0.2-0.3c2.8,3.8,4.4,8.3,5.2,12.6
	c0.7,3.7,1.6,8,0.7,11.8c0.4,0.5,0.8,1.6,1.8,1.1c2.4-4.2,1-8.7,1.1-13.2l-0.5-0.5c0-0.4,0.6-0.2,0.9-0.2c0.4,2.1,1.7,3.9,2.5,5.9
	c1.6,5.6,0.8,9.8,1.1,15.6c-1,0.6-0.7,2.1-0.5,3c0.3,0.4,0.8,0.2,1.1,0.2c1.6-1.9,1.7-3.6,1.6-6.1h0.5c1.2,9.1,0,17.4-2.5,25.6
	c-0.3,0.3-0.5,0.9-0.3,1.1c-0.3-0.1-0.5,0.4-0.9,0.2c0.2-2.1,1.6-4.1,0.4-6.2c0.9-4.4-1.4-7.5-1.6-11.4c-3.4-9.6-9.3-18.9-17.4-25.8
	c-3.2-2.4-6.2-5-9.4-7.1c-0.4-2.7,3.1-3.8,4.2-6.2h0.7c0.5,2.7-1.1,4.6-0.2,7.6c1.6,0.8,1.1-1.4,2-2.1c0.7-3.4-0.6-7.9,1.1-10.5
	c0.9,0.3,0.7-1.1,1.4-0.9L168.8,357.6L168.8,357.6z"/>
<path style="fill-rule:evenodd;clip-rule:evenodd;fill:#B1B9BF;" d="M446.2,364.6c0.5,2.2-0.2,4.1,1.4,6c2.1-2.1-0.3-5.2,1.1-8
	c1.2,2.2,4.8,3.8,4.6,6.2c-7.5,5.3-15.4,11.7-20.6,19.2c-5.8,8.9-9.4,19.3-8.4,30.4v0.7h-0.5c-0.8-2.6-1.7-5.2-2.3-8
	c0.8-1-0.6-1.7-0.5-2.8c0-5.7,0-9.4,0-15.3h0.9c0.2,1.2-0.6,3.5,0.7,4.6l1.3,0.9c0.6-0.5,0.8-1.1,0.7-1.9c-0.9-1.6-1.1-3.8-0.7-5.7
	l0.5-1.4c-0.6-2.2,0.1-5,0.7-7.3c-0.2-3.5,2.5-5.3,3.2-8.5h0.5c-0.3,4.3-1.7,9.4,0.2,13c0.5,0.4,0.8,1.2,1.6,0.9
	c1.9-1.8-1-4,0.7-5.7c-0.6-4.6,0.9-8.9,2.5-12.8c0.7-1.8,1.5-3.6,2.5-5.2c0.3-0.4,0.9-0.7,0.7-1.4h0.5c0.1,4.8-2.3,10.5,1.1,14.6
	c2.6-1.2-0.2-3.5,0.7-5.7c0.7-4.8,1.9-10.2,4.4-14.6C447.1,357.8,446,362.1,446.2,364.6L446.2,364.6z"/>
<path style="fill-rule:evenodd;clip-rule:evenodd;fill:#B1B9BF;" d="M113.5,367.8c1.8,2.8,4.6,4.6,7.1,7.1c1,0.1,1.6,1.5,2.7,1.1
	c-0.2,1.1,1.1,0.8,1.6,0.9c1,0.8,2.3,1.1,3.4,1.6l0.5-0.5c1.3,1.5,4.3,1,5.9,0.7c0.1,0.6,2.2-0.4,2.3,0.9c0.3-0.3,0.3-1,0.9-0.7
	l0.4,0.5c0.8-0.9,2.3-0.1,3.2-0.7c-0.4,1.8-2.4,2.3-2.8,4.1c-1.4,1.2-3.4,1.2-4.6,2.3c-0.7-1.2-2.2-0.5-3.2-0.5h-5.3
	c0.2-0.2-0.2-0.6-0.4-0.4c-0.5-0.1-0.9,0-1.1,0.4c-0.9-0.6-2.2-0.6-2.8-1.6c-0.3,0.6-1,0.6-1.4,0.2c-0.2-0.9-1.4-0.1-1.8-0.9
	c-2.7-1-3.5-3.7-5.9-5.2c-0.9-2.2-1.8-4.3-0.9-6.9c-0.3-1.7,1.5-2.8,1.1-4.1C113.2,366.2,113.2,367.3,113.5,367.8L113.5,367.8z"/>
<path style="fill-rule:evenodd;clip-rule:evenodd;fill:#BBA656;" d="M108.9,367.4c-1.5,3.3-0.9,7.5-2.1,10.7
	c-0.5-1.8-2.7-2.6-3.2-4.6c1.9-1.8,3.9-3.5,4.4-6.2H108.9L108.9,367.4z"/>
<path style="fill-rule:evenodd;clip-rule:evenodd;fill:#B1B9BF;" d="M499.9,374.4c-0.8,1.9-1.5,4.2-3.2,5.3
	c-0.6,1.7-2.3,1.8-3.2,3.2c-1.4,0.1-1.5,1.7-3,1.1c-1.5,0.1-2.3,1.8-4.1,1.1c-0.7,0.9-1.2,0.3-2.3,0.5c-1.5,0.6-3.8,0.5-5.2-0.5
	c-0.7-0.1-1.2,0.9-1.9,0.3c-0.9,1.2-1.6-1.3-3-0.5c-0.5-0.8-1.3-0.9-2-1.1c-0.7-1.6-3-2.9-2.7-4.6c1.1,1,2.6,1,4.1,0.9
	c0.7-0.1,2.2,0.3,2.8-0.7c0.4,0.8,3.5,0.5,5,0.3c2.3-0.5,4.9-1.7,7.3-2.8l0.4-0.5l0.3,0.2c1.8-2.3,5.5-3.5,6.9-6.4
	c1.7-0.5,1.3-2.5,2.5-3L499.9,374.4L499.9,374.4z"/>
<path style="fill-rule:evenodd;clip-rule:evenodd;fill:#BBA656;" d="M503.8,371l3.4,3.7v0.7c-1.3,1.2-3.1,1.9-3,3.9
	c-1.3,0.2-0.3-1.4-0.9-1.8c-0.3-3.3-0.3-5.6-0.9-8.9C503.4,368.8,503.1,370.3,503.8,371L503.8,371z"/>
<path style="fill-rule:evenodd;clip-rule:evenodd;fill:#BBA656;" d="M403.9,374c1.1,1.6,2.2,3.7,4.1,4.6c-0.5,0.8,0.1,2.1-0.5,3
	c-1.6-2.3-2.9-5-4.3-7.5H403.9L403.9,374z"/>
<path style="fill-rule:evenodd;clip-rule:evenodd;fill:#BBA656;" d="M207.6,374.4c-0.7,2.3-3.2,3.8-3.6,6.2
	c-0.2-0.8-0.6-1.6-0.5-2.5C205.1,377.1,205.9,375.2,207.6,374.4L207.6,374.4z"/>
<path style="fill-rule:evenodd;clip-rule:evenodd;fill:#B1B9BF;" d="M116.2,384c1.3,1.5,3.5,2.5,5.5,3c0.9-0.7,1.7,1.4,2.5,0
	c-0.2,0.4,0.3,0.5,0.4,0.7c0.2-0.3,0.5-0.3,0.7-0.3c-0.1,0.3,0.1,0.4,0.2,0.5c1.3-0.9,2.7,0.9,4.1-0.7c0.6,1.2,1.7-0.5,2.3,0.7
	l2.8-0.2c-0.4,2-2.2,3.7-4.1,5c-0.9-1.4-1.4,0.2-2.3,0.2c-0.9,0.3-3.1-0.7-3.7,0.9c-2.4-1.3-4.3-0.4-6.6-1.1c-1.1-0.6-2-0.3-3-0.9
	c-0.7,0.8-0.9-1-1.8-0.5c-1.9-1.3-3.1-2.7-3.9-4.8c-0.3-2.9,0.4-5.5,0.9-8C112.3,380.4,113.5,383.3,116.2,384L116.2,384z"/>
<path style="fill-rule:evenodd;clip-rule:evenodd;fill:#B1B9BF;" d="M500.6,379.7c0.6,3.2,1.9,6.4,0.5,9.3c-2.4,2.9-5.5,4.3-9.4,4.6
	c-1.4,0.9-3.1,0.1-4.1,0.7c-2.6,0.2-4.6-0.6-6.9-1.1l-0.5,0.5c-1.4-1.1-4.1-2.6-4.4-5.2c1.5,0.7,3.4-0.5,4.6,0.2
	c0.7-0.5,1.5,0,2,0.5c2-1.2,5.4-0.4,7.5-1.8c1.6,0.1,2.7-0.9,3.9-1.6c2.2-1.7,4.6-3.4,6.2-5.9L500.6,379.7L500.6,379.7z"/>
<path style="fill-rule:evenodd;clip-rule:evenodd;fill:#B1B9BF;" d="M110.1,391.6c0.2,2,2.5,1,3.4,2.7c1.1-1.1,1.4,1.3,2.5,0.5
	c0.5,1.6,1.7-0.2,2.3,0.9c0.3,0.1,0.7-0.2,0.9,0.2l0.4-0.5c1.2,0.5,2.6,1.4,3.7,0.7c0.9,1,2.3-0.2,3.2,0.2c1.6,0.9,2-1,3.8-0.7
	c0.3,2.3-1.1,4.3-3.2,5.5c-1.9,0.4-4.9,1.1-7.1,1.1l-0.5,0.5c-3.7-0.9-7.5-0.6-9.6-4.3c-1.3-2.2,0.6-4.7-0.7-6.8H110.1L110.1,391.6z
	"/>
<path style="fill-rule:evenodd;clip-rule:evenodd;fill:#B1B9BF;" d="M500.8,394.6c0.3,1.7,0.6,4.7-1.1,5.9c-1.8,2.5-4.9,2.2-7.1,3
	l-0.5-0.4c-0.9,1.9-2.3-0.8-3.2,0.4c-2.2-1-4.2-0.6-6.4-1.8c-1.6-1.1-2.5-3-2.3-5c1.2,0.5,2.9,0.1,4.1,0.5l0.7,0.5l-0.3,0.2
	c0.7,0.9,0.4-0.6,1.1-0.4c0.6,0.7,1.8-0.7,2.1,0.4c1.1-2.5,3.2,0.3,4.8-1.6c3.2-0.3,6-1.9,8.3-3.9
	C502.1,393,500.9,393.8,500.8,394.6L500.8,394.6z"/>
<path style="fill-rule:evenodd;clip-rule:evenodd;fill:#B1B9BF;" d="M115.3,405.1c0.9-0.1,1.9,0.1,2.3,0.7c0.5-0.2,1.7,0.5,2-0.2
	c0.3,0.3,0.7,0.3,0.9,0.7c0.4-0.6,1-0.5,1.4-1.1c-0.2,0.4,0.3,0.5,0.4,0.7c1.4-1.1,3.4-0.5,4.8-1.6c0.6,0.1,0.5-1,1.1-0.7
	c0.3,1.9,0.6,4.3-1.4,5.5c-2.3,0.6-4.4,2.2-7.1,1.6l-0.3-0.3l-0.4,0.7l-0.5-0.5c-1.7,0.5-3.9,0.2-5.2-1.4l-0.3,0.3
	c-1.9-1.4-2-3.8-2.5-6l0.5-0.7C112,404,114.1,404,115.3,405.1L115.3,405.1z"/>
<path style="fill-rule:evenodd;clip-rule:evenodd;fill:#B1B9BF;" d="M498.5,409c-1,1.2-2.7,1.7-4.1,2.5c-2.9-0.2-6.6,0.9-9.1-1.4
	c-1.9,0.5-2.6-1.3-3.4-2.5l0.2-3.2c0.8-0.1,0.6,1.2,1.4,0.5c0.4,1,1.7,0,2,0.9c1.5-0.5,2.2,1,3.7,0.5c0.5,1.3,1.8,0.3,2.5,0
	c2.8,0.1,5.4-0.7,7.3-2.5C500.2,405.5,498.7,407.2,498.5,409L498.5,409z"/>
<path style="fill-rule:evenodd;clip-rule:evenodd;fill:#B1B9BF;" d="M117.3,413.5h0.9c0.5,0.5-0.5,1.5,0.5,1.8
	c0.4-0.3,0.5-0.7,0.5-1.1L119,414l0.3-0.2l0.4,0.4c3-1.4,5.5,0.2,8-2.3c1-0.3,0.7,1.1,1.1,1.6c0.6,1.9-1.1,2.8-1.1,4.4
	c-1.4,2.3-4.5,3-6.9,3c-1.1,0.2-1.8-0.6-3-0.2c-1.7-0.9-2.3-3.9-3.6-5.7c0.2-1.2-1.3-2-0.5-3.2C114.9,412.5,116.2,412.9,117.3,413.5
	L117.3,413.5z"/>
<path style="fill-rule:evenodd;clip-rule:evenodd;fill:#B1B9BF;" d="M485.8,414.2c0.6,0,0.9-0.2,1.3-0.4c0.7,1.8,2.4,0.3,3.7,1.3
	c0.2-0.3,0.7-0.5,0.7-0.9c0.6,0.8,1,0,1.6-0.2c0.6,0.9,1.3-0.5,2-0.7c0.3-0.1,0.8,0.2,0.9-0.3v-0.4h0.7c-0.5,3.1-2.2,6.4-4.1,8.9
	c-1.2-0.4-2,0.9-3.2-0.2c0,0.5-0.7,1-1.1,0.5c-0.3-0.2-0.5,0.3-0.7,0.4c-0.6-1-2.2-0.7-3-1.8c-2-0.3-1.8-2.9-3-4.1
	c0.4-1.2-0.2-2.9,0.7-3.9C483.2,413.8,484.6,412.9,485.8,414.2L485.8,414.2z"/>
<path style="fill-rule:evenodd;clip-rule:evenodd;fill:#B1B9BF;" d="M131.5,423.6c0.7,0.8,1.3,1.6,1.1,2.8c-0.6,1.9-2.3,2.9-4.1,3.4
	c-0.1,0.7,0.2,1.2,0.7,1.6h0.7c-0.1,0.3,0.1,0.4,0.2,0.5c0.2-1.5,1.2,0.2,1.8-0.7c0.8-0.6,2.4-1.7,2.5-3c2.4,0.7,3.5,3.4,6.1,3.6
	c1.2,0.6,2.6,1.9,3.9,0.7c-0.1-1.1-0.6-1.7-1.4-2.3c-2.6-0.3-4.4-3-6.2-4.6c-0.9-1.5-2.3-2.9-2.7-4.6c1.8-0.2,3.5,2.1,5.5,1.6
	c0.5,1.1,2.2,0,3,1.4c0.4,0.1,0.9-0.2,1.1,0.2l0.5-0.5c0.6,1.6,3,0.5,4.4,1.1c1.5,0.9,3.3,0.9,4.8,1.8c0.6-0.4,1.2,0.5,1.8,0.7
	c1.7,0.4,3.1,1.8,4.8,2.3c1.7,1.9,3.3,4.1,2.3,6.9c-1,2-3.6,3.5-6,3.6c-2.5,0.9-5.6-0.3-8.5,0.5c-0.3-0.5-0.8-0.7-1.3-0.7l-0.5,0.5
	c-1.2-0.7-2.4-0.3-3.6-1.1l-0.5,0.4l-0.5-0.4c-0.7,0.5-1.3-1-2.3-0.5c-2.7-1.1-5.2-2-7.5-3.7c-1.4-1.1-3.2-1.5-4.1-3
	c-0.6-0.6-2-0.9-2.1-2.1c-2.3-2.7-5.4-4.3-6.4-7.7c0.4-0.7,0.7,0.3,1.1,0.2c0.5,1.6,1.8-0.3,2.5,0.9c2.2-0.9,5.1-1.1,6.6-3.7
	C131.1,420.4,130.8,422.4,131.5,423.6L131.5,423.6z"/>
<path style="fill-rule:evenodd;clip-rule:evenodd;fill:#B1B9BF;" d="M485.1,423.6c1,1.9,3-0.7,4.3,0.5c0.4-0.5,0.9-0.7,1.4-0.9
	c0.8,1.6-1.3,2.3-1.6,3.6c-3.4,3.6-6.1,5.9-9.9,8.5c-0.6,0.4-0.9,1.5-1.8,1.1c-2.3,2.3-5.7,2-8.2,3.9c-0.1-0.1-0.3-0.3-0.5-0.2
	l-0.5,0.5c-0.7,0.1-1.3-0.1-2.3,0.2c-1.3,0.9-2.6,0-4.1,0.7l-0.5-0.5c-0.8,0.6-2.1-0.2-2.8,0.7l-0.5-0.5l-3.2,0.2v0.5
	c-2-1.9-4.4-0.8-6.2-3c-1.2-2-1.8-4.4-0.2-6.4c1.9-3.9,6.2-3.7,9.3-5.5l0.2,0.2c0.8-1.7,3.1-0.5,4.2-1.8c1.5,1.1,3-0.5,4.3-0.9
	c0.6-0.1,1.3,0.3,1.6-0.4c0.7,0.3,1.7,0.2,2.3-0.5c1.8-0.4,3.5-1.1,5-2.1l0.5,0.7c-1.3,2.4-2.9,4.5-4.8,6.2
	c-1.4,2.1-4.3,2.2-5.7,4.4c-0.2,1.1,1.1,1.4,1.9,0.9c0.6-0.9,1.7-0.5,2.5-0.9c2.4-0.7,3.5-3.1,5.7-4.1c0.5,1.1,0.8,2.4,2.1,3
	c1.1,0.5,2.4,0.1,3.6,0.2c1.5-2.5-2.1-1.2-2.8-2.5c-2.7-3.3,1-6.1,2.1-8.9C481.9,421.7,483.1,423.4,485.1,423.6L485.1,423.6z"/>
<path style="fill-rule:evenodd;clip-rule:evenodd;fill:#FFFFFF;" d="M323.5,467.5V276c0,0,13,7.3,28,7.3v168.7
	C351.6,451.9,336,458.2,323.5,467.5L323.5,467.5z"/>
<path style="fill-rule:evenodd;clip-rule:evenodd;fill:#FFFFFF;" d="M258.1,450.4V283.2c0,0,20.8-2.6,29.1-7.3v191L258.1,450.4
	L258.1,450.4z"/>
<polygon style="fill-rule:evenodd;clip-rule:evenodd;fill:#B1B9BF;" points="293.4,166.6 319.2,166.6 319.2,160 293.4,160 
	293.4,166.6 "/>
<path style="fill-rule:evenodd;clip-rule:evenodd;fill:#B1B9BF;" d="M293.4,169.4c0,0,23-0.3,26,0.2c0,0,1.6,17,0,23.4l-26.6-0.7
	C292.7,192.2,291.7,176.3,293.4,169.4L293.4,169.4z"/>
<path style="fill-rule:evenodd;clip-rule:evenodd;fill:#B1B9BF;" d="M289.3,204.5c0,0-1-0.9-0.9-3.1c0.2-2.3,1.4-6.4,1.4-6.4l32,0.3
	c0,0,1.4,0.9,1.4,9.3L289.3,204.5L289.3,204.5z"/>
<path style="fill-rule:evenodd;clip-rule:evenodd;fill:#B1B9BF;" d="M286.2,208.8l39.5,0.3c0,0,1.4-0.2,1.6,1.6
	c0.2,1.7-0.2,3.8-0.2,3.8s0,0.9-1.4,1c-1.4,0.2-40-0.9-40-0.9s-1.4-0.7-1.4-1.7c0-1-0.5-2.8,0.7-3.5
	C286.2,208.8,286.2,208.8,286.2,208.8L286.2,208.8z"/>
<path style="fill-rule:evenodd;clip-rule:evenodd;fill:#B1B9BF;" d="M319,155.9c0,0-22.5-0.3-24.6-0.2c-2.1,0.2-2.8-0.7-2.8-2.1
	c0-1.4,0.3-3.6-2.8-4.2c-3.1-0.5-5.5-0.2-6.7-4c-1.2-3.8-2.2-3.5-3.5-3.5c-1.2,0-1-0.2-1.2-1.4c-0.2-1.2-0.5-3.5,0.7-3.6
	c1.2-0.2,9-0.2,9-0.2s1.9-0.3,1.9,0.7c0,1,0,3.5,0,3.5s-1.2,1.9,2.1,1.9c3.3,0,6.8,0.3,7.4-0.2c0.7-0.5,2.8-1,2.6-3.1
	c-0.2-2.1-0.7-2.3,1.9-2.4c2.6-0.2,5.4,0,5.4,0s1-0.9,1.4,1.2c0.3,2.1,0.5,3.3,0.5,3.3s-0.7,1,2.2,1c2.9,0,7.1,0,7.1,0
	s1.6-0.3,1.7-1.9c0.2-1.6-0.2-3.3,1.4-3.3c1.6,0,9.3-0.2,9.3-0.2s1.4-0.2,1.6,1c0.2,1.2,0,2.9,0,2.9s0.7,0.9-1.2,0.7
	c-1.9-0.2-2.8-0.7-3.5,1.7c-0.7,2.4-1.9,5.5-4.5,5.9c-2.6,0.3-4.3,0.3-4.3,2.4C320.2,154.1,320.1,155.7,319,155.9L319,155.9z"/>
<path style="fill-rule:evenodd;clip-rule:evenodd;fill:#F05C2F;" d="M319.6,21.8c0,0,28.2,12.8,45.2,15.6c17,2.8,27.5,3.8,38.9,2.1
	c11.4-1.7,14.9-2.6,14.9-2.6l0.3,0.7c0,0-9.5,15.6-38.4,19.2c0,0-15.8,2.6-28.2,1.6c-12.5-1-28.4-4.8-33.7-5.2
	c0,0,0.4-12.1,0.2-15.7C318.5,33.7,318.3,25.4,319.6,21.8L319.6,21.8z"/>
<path style="fill-rule:evenodd;clip-rule:evenodd;fill:#00BAE5;" d="M315.7,52.9c0,0-8-2.2-14-2.4l-0.2-11.6c0,0,0.3-1.7,9.3,0.7
	c0,0,4.2,1.9,5,3.3c0,0-0.3,5.5-0.2,7.1C315.9,51.5,315.7,52.9,315.7,52.9L315.7,52.9z"/>
<path style="fill-rule:evenodd;clip-rule:evenodd;fill:#00BAE5;" d="M271.5,54.8c0,0,5.7-3.8,15.2-4.5l0.2-10.4l-0.9-1.7
	c0,0-3.1,0-6.1,1c-2.9,1-4.7,1.2-8.3,3.8L271.5,54.8L271.5,54.8z"/>
<path style="fill-rule:evenodd;clip-rule:evenodd;fill:#F05C2F;" d="M271.8,38.4c0,0,8.5-4.3,15.4-3.8c0,0,2.9,0,3.1,2.8
	c0.2,2.8-0.5,12.5-0.5,12.5s3.3-0.2,7.8,0.5c0,0,1-10,0.9-13.5c0,0,0-2.6,1.6-2.4c1.6,0.2,10.2,1.2,15.4,3.8c0,0,1.7-3.6,0.7-5.2
	c-1-1.6-7.4-4-13-4.3c-5.5-0.3-4-1-4.2-3.5c-0.2-2.4-0.4-8.6-0.4-8.6c0,0-4.3-0.7-7.8,0c0,0-1.2,5-0.9,10.9c0,0,0.2,0.7-1,0.7
	c-1.2,0-9.2-0.5-17.7,4.7L271.8,38.4L271.8,38.4z"/>
<path style="fill-rule:evenodd;clip-rule:evenodd;fill:#00BAE5;" d="M272.1,28.7c0,0,9.9-4.2,14.5-3.8c0,0,1-1.9,0.7-4.3
	c-0.3-2.4,0.4-2.9-0.7-3.3c-1-0.3-2.6-0.7-5.9,0.3c-3.3,1-6.9,2.4-8,2.9c-1,0.5-1.2,1.6-1.2,1.6C271.6,22.1,271.1,28,272.1,28.7
	L272.1,28.7z"/>
<path style="fill-rule:evenodd;clip-rule:evenodd;fill:#00BAE5;" d="M302.6,25.6c0,0,9.5,0.3,13.1,2.6c0,0,0.7-6.6-0.2-7.8
	c0,0-5.2-3.1-12.1-3.5c0,0-1.7-1-1.7,0.9C301.7,19.7,301.2,24.4,302.6,25.6L302.6,25.6z"/>
<path style="fill-rule:evenodd;clip-rule:evenodd;fill:#BBA656;" d="M125.5,467.5l-4.7-4.7c0,0,16.1,0.3,22.1,1
	c6,0.8,17.1,2.9,20.8,8.3c3.6,5.4,1,9.3-3.6,10.9c-4.7,1.6-16.6,1.3-21.5,0.3c-4.9-1-14-3.6-21-10.9c-7-7.3-14.5-15.3-19.2-12.7
	c-4.7,2.6-2.6,4.9-2.1,6.2c0.5,1.3,7,6.5,16.6,11.2c9.6,4.7,27.5,12.2,43.3,16.6c15.8,4.4,78.6,24.9,148.5,25.4
	c69.8,0.5,153.4-24.1,183.8-36.6c0,0,17.9-7.3,21.8-13.2c3.9-6-0.8-7.5-3.4-7c-2.6,0.5-6.7,1-21,15.8c0,0-6.7,6-18.9,7.5
	c-12.2,1.6-19.5,2.1-23.4-2.3c-3.9-4.4-1.3-11.4,8-14.5c9.3-3.1,24.9-4.4,34.8-3.4l-4.9,4.7c0,0-13.8-0.5-17.9,0.3
	c-4.2,0.8-14.5,3.1-13.2,7.8c1.3,4.7,11.7,5.5,18.7,2.1c7-3.4,12.5-6.7,22.1-14.5c9.6-7.8,17.4-10.6,24.1-7
	c6.7,3.6,3.9,11.2-0.5,15.3c-4.4,4.1-13.8,11.4-29.8,16.9c-16.1,5.5-98.6,34-180.4,33.7c-81.8-0.3-165.1-29.6-183.2-36.6
	c-18.2-7-26.7-13.2-31.4-21c-4.7-7.8,1.6-13.5,8.8-13.2c7.3,0.3,9.3,3.1,14,6.5c4.7,3.4,12.2,10.9,16.9,13.5
	c4.7,2.6,20,9.1,25.4,4.9c5.5-4.2-0.5-7-4.9-8.8C145.5,468,128.1,466,125.5,467.5L125.5,467.5z"/>
<path style="fill-rule:evenodd;clip-rule:evenodd;fill:#00BAE5;" d="M59.8,443.9l7.3-20.5c0,0,0.8-0.8-1-1.8c-1.8-1-11.9-7.3-20-7.3
	c-8,0-8.3,3.4-7.5,7C39.3,424.9,46.9,438.2,59.8,443.9L59.8,443.9z"/>
<path style="fill-rule:evenodd;clip-rule:evenodd;fill:#BBA656;" d="M68.9,448.8l10.4-30.1c0,0-9.1-8-26.2-12.7
	c-17.1-4.7-20.2-2.1-23.6,3.4c-3.4,5.4-3.9,16.4,6,27.8c9.9,11.4,34.3,23.1,48,25.7l1.3-4.2c0,0-22.1-7.3-34.5-17.1
	c-12.5-9.9-18.9-21-14.8-27.3c4.2-6.2,11.2-3.4,16.6-2.1c5.5,1.3,14.5,4.7,18.9,9.1l-8.3,24.4L68.9,448.8L68.9,448.8z"/>
<path style="fill-rule:evenodd;clip-rule:evenodd;fill:#00BAE5;" d="M67.1,513.7c0,0,13.2-37.4,15.6-47.2c0,0-25.4-7.8-35.3-14.8
	c-9.9-7-17.6-11.2-23.6-28c0,0-13,34.3-13.5,37.4c-0.5,3.1-1,8.8-0.3,10.4c0.8,1.6,3.1,7,5.7,9.9C18.3,484.1,30.2,499.4,67.1,513.7
	L67.1,513.7z"/>
<path style="fill-rule:evenodd;clip-rule:evenodd;fill:#00BAE5;" d="M112.3,473c0,0-9.6-5.2-11.4-7.8c-1.8-2.6,1-1.6,2.3-0.8
	C104.5,465.2,112.3,473,112.3,473L112.3,473z"/>
<path style="fill-rule:evenodd;clip-rule:evenodd;fill:#00BAE5;" d="M134.1,471.7c0,0,8.6-1.6,17.6,3.6
	C151.7,475.3,146,478.7,134.1,471.7L134.1,471.7z"/>
<path style="fill-rule:evenodd;clip-rule:evenodd;fill:#00BAE5;" d="M154,488.5l9.1-2.1c0,0,0.5,3.6-1.3,5.5L154,488.5L154,488.5z"
	/>
<path style="fill-rule:evenodd;clip-rule:evenodd;fill:#00BAE5;" d="M86.3,469.9c0,0-16.6,48.3-17.4,50.9c-0.8,2.6-3.4,9.6-1.8,14.3
	c1.6,4.7,5.7,7.8,12.5,11.2c5.2,2.6,91.7,50.1,225.6,48.3c136-1.8,188.7-31.7,225.3-48.3c0,0,10.9-5.4,7.5-16.9
	c-3.4-11.4-17.4-56.1-17.4-56.1c0,0,0,1-1.6,2.6c-1.6,1.6-10.9,9.3-22.6,14c-11.7,4.7-98.1,38.9-192.1,38.4
	c-94-0.5-176.5-33.7-191.5-40C97.7,482,89.9,475.8,86.3,469.9L86.3,469.9z"/>
<path style="fill-rule:evenodd;clip-rule:evenodd;fill:#00BAE5;" d="M454.9,477.6c0,0,4.2-5.2,17.9-3.4
	C472.8,474.3,461.1,480.5,454.9,477.6L454.9,477.6z"/>
<path style="fill-rule:evenodd;clip-rule:evenodd;fill:#00BAE5;" d="M495.1,475.3c0,0,4.4-7.3,10.1-8.3
	C505.2,467,510.2,467.3,495.1,475.3L495.1,475.3z"/>
<path style="fill-rule:evenodd;clip-rule:evenodd;fill:#00BAE5;" d="M444.5,493.5l-0.8-4.2V488c0,0,3.4,2.6,8.6,2.9L444.5,493.5
	L444.5,493.5z"/>
<path style="fill-rule:evenodd;clip-rule:evenodd;fill:#BBA656;" d="M522.3,461c0,0,30.1-6.7,43.9-24.4c0,0,10.1-10.1,6-17.7
	c-4.2-7.5-14.8-3.6-16.6-3.1c-1.8,0.5-14.3,4.2-18.9,8.6v1.6l7.5,23.4c0,0-4.4,2.3-5.5,2.9l-9.3-28.3c0,0-2.3-1.6,0.8-3.6
	c3.1-2.1,8.8-5.2,12.7-6.7c3.9-1.6,12.7-4.9,18.7-5.5c6-0.5,14-2.9,18.2,8.6c4.2,11.4-10.6,27.3-10.6,27.3s-23.9,18.9-45.7,21.8
	L522.3,461L522.3,461z"/>
<path style="fill-rule:evenodd;clip-rule:evenodd;fill:#00BAE5;" d="M538.2,516.3c0,0-11.9-37.1-13.2-42.8l-0.8-4.4
	c0,0,18.4-3.1,36.1-14.3c17.7-11.2,23.1-24.7,23.4-26.7l11.7,33.7c0,0,2.1,4.9,1.3,10.1c-0.8,5.2-6.8,14.5-13.5,20.2
	C576.3,497.9,563.4,507.5,538.2,516.3L538.2,516.3z"/>
<path style="fill-rule:evenodd;clip-rule:evenodd;fill:#BBA656;" d="M305.1,489.6c22.4-26.1,58.9-34.8,77.6-53.7
	c18.7-18.9,14.3-45.4,14.3-45.4s3.9,1.8,6.5,2.3c2.6,0.5,0.3-5.2,0.3-5.2c3.6,3.4,8.3,0.8,8.3,0.8l1,3.6
	c0.3,20.8,3.6,47.2-47.5,74.7c-51.1,27.5-61.3,44.6-61.3,44.6c-10.4-17.1-54.2-42.3-77.6-56.8c-23.4-14.5-26.7-33.5-28.6-41.3
	c-1.8-7.8,0.8-25.4,0.8-25.4s2.3,0.5,3.4,1c1,0.5,3.4-0.8,3.4-0.8l1.3-1.6l0.8,0.5l-1.3,1.6c-1,3.6,1.8,2.9,1.8,2.9s-0.3,0.8,1,0.8
	c1.3,0,4.7-2.1,4.7-2.1s-4.4,36.1,22.1,52.9c0,0,62,33.7,67.7,45.2L305.1,489.6L305.1,489.6z"/>
<path style="fill-rule:evenodd;clip-rule:evenodd;fill:#BBA656;" d="M308.2,251.3c0,0-1.8-14.3,8.6-18.2c10.4-3.9,11.9,6,11.7,8
	c-0.3,2.1-1.6,5.2-2.6,7c0,0,0.5,4.9,5.4,8c4.9,3.1,13.8,7,20.5,7.5c6.7,0.5,21.5-0.3,25.7-2.9c0,0,0.5-1,0.5-1.8
	c0-0.8-2.1-3.4-2.3-4.7c-0.3-1.3-2.1-8.8,4.7-11.7c6.8-2.9,11.2-0.5,13.5,8c2.3,8.6-2.3,15.8-6.2,18.9c-3.9,3.1-20.5,13-43.1,8
	C322,272.9,310.6,263.2,308.2,251.3L308.2,251.3z"/>
<path style="fill-rule:evenodd;clip-rule:evenodd;fill:#BBA656;" d="M286.7,247.4c0,0-3.1-3.4-2.3-8.8c0.8-5.5,6-7.8,10.4-6.2
	c4.4,1.6,10.6,4.7,9.3,17.4c0,0-0.8,6.7-2.9,9.3c-2.1,2.6-17.4,20.8-47.2,19.2c0,0-15.3,1.6-28-8.6c0,0-5.4-3.4-7-8.8
	c-1.6-5.5-2.9-14.3,5.7-19.5c8.6-5.2,12.2,6.5,12.2,6.5s0.3,5.2-1.6,7.8c-1.8,2.6-0.8,3.6,0.3,4.4c1,0.8,11.7,4.2,21.3,3.4
	c9.6-0.8,22.1-4.7,26.5-9.3C287.7,249.5,286.7,247.4,286.7,247.4L286.7,247.4z"/>
<path style="fill-rule:evenodd;clip-rule:evenodd;fill:#BBA656;" d="M277.9,230.8c0,0-11.2,4.7-15.8-1.6c0,0-2.1-6,0.5-6.7
	C265.1,221.7,270.6,219.9,277.9,230.8L277.9,230.8z"/>
<path style="fill-rule:evenodd;clip-rule:evenodd;fill:#BBA656;" d="M284.1,231.1c0,0-7-7.5-8.8-8.3c0,0,7.8-5.5,15.6,5.2
	C290.8,227.9,286.9,226.7,284.1,231.1L284.1,231.1z"/>
<path style="fill-rule:evenodd;clip-rule:evenodd;fill:#BBA656;" d="M310,232.6c0,0-6.5,1-11.4-2.3c0,0-3.6-6-6.5-7.3
	C292.1,223,299.9,214.5,310,232.6L310,232.6z"/>
<path style="fill-rule:evenodd;clip-rule:evenodd;fill:#BBA656;" d="M314.4,230c0,0-3.9-5.7-4.9-6.7c-1-1,7-4.7,13,4.7
	C322.5,227.9,316.8,227.4,314.4,230L314.4,230z"/>
<path style="fill-rule:evenodd;clip-rule:evenodd;fill:#BBA656;" d="M341.7,232.1c0,0-6.2,4.4-11.7-0.8c-5.5-5.2-5.2-7-5.2-7
	s0.3-5.7,10.9,0.8C335.7,225.1,339.9,228.5,341.7,232.1L341.7,232.1z"/>
<path style="fill-rule:evenodd;clip-rule:evenodd;fill:#BBA656;" d="M340.7,223.6c0,0,17.4-5.1,12.2,7.3c0,0-1.8,1.3-3.1,1.3
	C348.4,232.2,342.2,227.8,340.7,223.6L340.7,223.6z"/>
<path style="fill-rule:evenodd;clip-rule:evenodd;fill:#00BAE5;" d="M547.8,447.8l-6.7-20l-0.3-2.1c0,0,8.8-7.3,20.5-7.5
	c11.7-0.3,7.8,8.3,6,11.2C565.4,432.2,560,440.5,547.8,447.8L547.8,447.8z"/>
<path style="fill-rule:evenodd;clip-rule:evenodd;fill:#231F20;" d="M95.8,499.8l9.4,4.5l4.4,24.2l0,0l0.1,0l6.4-13.5
	c0.9-1.9,0.3-3-2.6-4.8l0.7-1.5l9.7,4.6l-0.7,1.5c-2.8-0.9-4-0.7-4.9,1.2l-10.5,22l-3.6-1.7l-5-27.4l-0.2-0.1l-7.8,16.3
	c-0.9,1.9-0.3,3,3.3,4.7l-0.7,1.5l-10.4-5l0.7-1.5c2.8,1.4,4.1,1.2,5-0.7l8.7-18.3c0.9-1.9,0.3-3-2.7-4.4L95.8,499.8L95.8,499.8z"/>
<path style="fill-rule:evenodd;clip-rule:evenodd;fill:#231F20;" d="M144.5,531.8l-1.7-0.6c0.5-5.7-1.7-9.7-6.4-11.4
	c-2.5-0.9-3.5-0.6-4.3,1.3l-2.9,7.7c3.8,1.4,5.5,1,7.9-2.3l1.6,0.6l-4.1,11.1l-1.6-0.6c0.3-4.2-0.7-5.5-4.5-6.9l-3.4,9.1
	c-0.7,2-0.1,2.9,2.4,3.8c5.3,2,9.9-0.2,13.1-5l1.7,0.6l-4.1,10.4l-25.4-9.4l0.6-1.6c3,1.1,4.1,0.8,4.9-1.2l7-19c0.7-2,0-3-2.9-4.1
	l0.6-1.6l24.7,9.1L144.5,531.8L144.5,531.8z"/>
<path style="fill-rule:evenodd;clip-rule:evenodd;fill:#231F20;" d="M176.6,530.3l-0.5,1.6c-2.5-0.7-3.7-0.4-4,0.6
	c-0.2,0.8-0.1,1.8-0.1,3.5l0,13.3l0.1,0l8.2-12c0.4-0.6,0.7-1.1,0.9-1.8c0.4-1.6-1.1-2.6-3.2-3.2l0.5-1.6l9.9,2.8l-0.5,1.6
	c-2.3-0.6-3.5,0.3-4.6,1.9l-14.8,21.3l-3.2-0.9l0-18.8l-0.1,0l-10.8,15.7l-3.2-0.9l0.1-24.6c0-3.5-0.9-4.1-2.5-4.8l0.5-1.6l12.7,3.6
	l-0.5,1.6c-2.2-0.6-3-0.4-3.3,0.8c-0.1,0.5-0.2,1-0.2,2l0.1,14.8l0.1,0l7.3-10.6l0-2.4c0-2.7-0.8-3.8-2.5-4.3l0.5-1.6L176.6,530.3
	L176.6,530.3z"/>
<path style="fill-rule:evenodd;clip-rule:evenodd;fill:#231F20;" d="M210.9,548.7l-1.7-0.3c-1-6.4-2.7-9.9-7.5-10.9
	c-5.2-1.1-8.4,3.2-10.1,11.4c-1.7,8.5,0.2,13.5,5.9,14.7c5.5,1.1,9.4-1.7,11-8l1.8,0.4c-1.5,7.3-6.5,10.9-14.2,9.3
	c-9.8-2-13.9-9.9-12.2-18c1.6-8,9.8-13.5,17.7-11.9c3.1,0.6,5.6,2.3,7.7,4.1l2-1.4l1.7,0.3L210.9,548.7L210.9,548.7z"/>
<path style="fill-rule:evenodd;clip-rule:evenodd;fill:#231F20;" d="M209.6,567.5l0.2-1.7c3.2-0.2,4.4-1.3,6.4-4.6l12.5-21.2
	l2.2,0.3l7.3,26.5c0.6,2.1,1.4,2.9,3.6,3.4l-0.2,1.7l-15.2-2.1l0.2-1.7l1.7,0.2c2.2,0.3,2.6-0.2,2.7-1c0.1-0.6-0.1-1.1-0.2-1.8
	l-1.4-5.1l-9.3-1.3l-1.8,3.1c-0.3,0.5-0.7,1.4-0.9,2.6c-0.2,1.2,0.5,2,2.1,2.3l2.1,0.3l-0.2,1.7L209.6,567.5L209.6,567.5z
	 M226.3,548.8l-4.8,8.4l7.4,1L226.3,548.8L226.3,548.8z"/>
<path style="fill-rule:evenodd;clip-rule:evenodd;fill:#231F20;" d="M244,560.8l1.9,0.2c0.8,4.7,3.2,10.1,8.6,10.5
	c2.9,0.2,5.5-0.9,5.8-4.5c0.5-6.2-16.1-5.4-15.3-15.1c0.5-6.1,5.3-9.2,10.7-8.8c4.6,0.4,6,2.8,7.1,2.9c0.9,0.1,1.3-0.9,1.8-1.6
	l1.8,0.1l-0.8,10.1l-1.7-0.1c-0.8-4.7-3.2-9-7.7-9.3c-2.7-0.2-5,1.1-5.3,3.9c-0.6,6.6,16.4,4.7,15.5,15.7c-0.5,6.3-6.5,9.2-11.2,8.8
	c-5.2-0.4-7-2.8-8.4-2.9c-0.9-0.1-1.6,1-2,1.5L243,572L244,560.8L244,560.8z"/>
<path style="fill-rule:evenodd;clip-rule:evenodd;fill:#231F20;" d="M296.5,545.7l-0.1,10.4l-2-0.1c-1-5-3.4-8.5-8.1-8.7l-0.7,22.8
	c-0.1,2.1,0.9,2.8,4.6,2.9l0,1.7l-16.6-0.5l0.1-1.7c3.7,0.1,4.8-0.5,4.8-2.7l0.7-22.8c-4.7-0.1-7.3,3.2-8.6,8.2l-2-0.1l0.5-10.4
	L296.5,545.7L296.5,545.7z"/>
<path style="fill-rule:evenodd;clip-rule:evenodd;fill:#231F20;" d="M296.8,574.9l0-1.7c3.1-0.1,4.2-0.8,4.1-2.9l-0.4-20.3
	c0-2.1-1.1-2.8-4.2-2.7l0-1.7l15.5-0.3l0,1.7c-3.1,0.1-4.2,0.8-4.1,2.9l0.4,20.2c0,2,0.8,2.6,2.9,2.6c4.3-0.1,7.6-4.6,8.6-9.4l1.8,0
	l-0.1,11.2L296.8,574.9L296.8,574.9z"/>
<path style="fill-rule:evenodd;clip-rule:evenodd;fill:#231F20;" d="M348.4,554.3l-1.8,0.1c-1.8-5.5-5.4-8.2-10.4-8
	c-2.6,0.1-3.5,0.8-3.4,2.9l0.4,8.2c4.1-0.2,5.4-1.2,6.4-5.3l1.7-0.1l0.6,11.8l-1.7,0.1c-1.4-3.9-2.8-4.8-6.9-4.6l0.5,9.7
	c0.1,2.1,1,2.7,3.7,2.5c5.7-0.3,9-4.1,10.1-9.7l1.8-0.1l0.3,11.1l-27,1.4l-0.1-1.7c3.1-0.2,4.1-0.9,4-3l-1.1-20.2
	c-0.1-2.1-1.2-2.8-4.3-2.6l-0.1-1.7l26.3-1.4L348.4,554.3L348.4,554.3z"/>
<path style="fill-rule:evenodd;clip-rule:evenodd;fill:#231F20;" d="M375.1,541.2l0.2,1.7c-3.3,0.4-4.2,1.2-4,3.3l2,17.4
	c0.4,3.9,4,5.4,6.7,5.1c4.7-0.5,6.9-3.3,6.3-8.2l-1.8-15.4c-0.2-2.1-1.3-2.7-4.9-2.7l-0.2-1.7l10.7-1.2l0.2,1.7
	c-2.8,0.8-3.8,1.5-3.5,3.7l1.7,15.1c0.8,6.7-3,10.1-10,10.9c-4.7,0.5-11.1-0.6-11.8-7.1l-1.9-16.7c-0.2-2.1-1.3-2.7-4.4-2.3
	l-0.2-1.7L375.1,541.2L375.1,541.2z"/>
<path style="fill-rule:evenodd;clip-rule:evenodd;fill:#231F20;" d="M389,539.7l10.2-1.8l17.6,17.2l0,0l0.1,0l-2.6-14.8
	c-0.4-2.1-1.5-2.6-5-2.4l-0.3-1.7l10.6-1.9l0.3,1.7c-2.8,0.9-3.7,1.8-3.3,3.9l4.2,24l-3.9,0.7L397,545.2l-0.2,0l3.1,17.8
	c0.4,2.1,1.5,2.6,5.4,1.9l0.3,1.7l-11.4,2l-0.3-1.7c3.1-0.5,4-1.4,3.6-3.5l-3.5-20c-0.4-2.1-1.5-2.6-4.8-2L389,539.7L389,539.7z"/>
<path style="fill-rule:evenodd;clip-rule:evenodd;fill:#231F20;" d="M426.3,562.7l-0.4-1.7c3.1-0.7,3.9-1.6,3.4-3.7l-4.6-19.7
	c-0.5-2.1-1.6-2.5-4.7-1.8l-0.4-1.7l15.1-3.5l0.4,1.7c-3.1,0.7-3.9,1.6-3.4,3.7l4.6,19.7c0.5,2.1,1.6,2.5,4.7,1.8l0.4,1.7
	L426.3,562.7L426.3,562.7z"/>
<path style="fill-rule:evenodd;clip-rule:evenodd;fill:#231F20;" d="M461.1,522.9l3.2,9.9l-1.9,0.6c-2.5-4.4-5.9-7-10.4-5.7
	l6.6,21.8c0.6,2,1.8,2.4,5.3,1.3l0.5,1.6l-15.9,4.8l-0.5-1.6c3.6-1.1,4.4-2,3.8-4.1l-6.6-21.8c-4.5,1.4-5.9,5.4-5.5,10.5l-1.9,0.6
	l-2.8-10L461.1,522.9L461.1,522.9z"/>
<path style="fill-rule:evenodd;clip-rule:evenodd;fill:#231F20;" d="M489.2,522.9l-1.7,0.7c-3.5-4.6-7.8-6.1-12.4-4.2
	c-2.4,1-3,1.9-2.3,3.8l3.1,7.7c3.8-1.5,4.7-2.9,4.3-7.1l1.6-0.6l4.4,11l-1.6,0.6c-2.6-3.3-4.2-3.6-8-2.1l3.6,9
	c0.8,1.9,1.8,2.2,4.3,1.2c5.3-2.1,7.2-6.8,6.4-12.5l1.7-0.7l3.9,10.4l-25.1,10.1l-0.6-1.6c2.9-1.2,3.6-2.2,2.8-4.2l-7.6-18.8
	c-0.8-2-2-2.2-4.9-1l-0.6-1.6l24.4-9.8L489.2,522.9L489.2,522.9z"/>
<path style="fill-rule:evenodd;clip-rule:evenodd;fill:#231F20;" d="M499.3,506.6c9.6-4.5,17.6-1.6,21.3,6.2
	c3.5,7.5,0.7,15.8-7.8,19.8l-13.1,6.1l-0.7-1.5c2.9-1.3,3.5-2.4,2.6-4.3l-8.6-18.4c-0.9-1.9-2.1-2.1-5-0.8l-0.7-1.5L499.3,506.6
	L499.3,506.6z M507.5,529.6c0.9,1.9,2.1,2.3,4.7,1.1c4.1-1.9,5.1-6.7,1.3-14.6c-3.7-8-7.9-10.3-12-8.4c-2.6,1.2-3.1,2.5-2.2,4.3
	L507.5,529.6L507.5,529.6z"/>
<path style="fill-rule:evenodd;clip-rule:evenodd;fill:#B1B9BF;" d="M106.4,343.8c1.1-0.6,2.7,0.5,3.2,0.9c1.8-4-3.1-5.3-3.7-8.9
	c0.5-0.5,0.9-1.5,1.9-1.1c1.6-0.9,3.3-1.7,5-3c0.8-0.8,2.2-1.7,2.3-3c-1.2-0.6-2.1,0.2-3.2-0.7c-0.9,0.5-1.7-0.9-2.3,0
	c-1.2-0.9-2.5-0.3-3.7-0.5c-0.8-0.5-2.1-1-2.7-0.5c-0.9-0.8-2.6-0.3-3.4-0.5l0-0.2c-0.8,0-1.7,0.2-2.1-0.7l-0.7,0.7
	c-2-0.3-2.8,1.2-3.9,2.3c-0.3,2.1-0.6,4,1.1,5.2c1.6,0.9,2.2,3.5,4.1,4.1C98.4,338.1,101.2,342.7,106.4,343.8L106.4,343.8z"/>
<path style="fill-rule:evenodd;clip-rule:evenodd;fill:#B1B9BF;" d="M513.2,340.9c-0.7-0.3-0.4-1-0.5-1.6c2.4-2.6,7.2-4.9,5.5-9.3
	c-1.1-0.5-1.7-3-3.2-1.6c-0.3-1.3-2-0.4-2.5-0.5c-0.6,0.6-1.1-0.6-1.6,0.5c-2-1.2-3.6,1.2-5.2,0.5c-2.6,0.4-6.5,1.1-9.1,1.1
	c-0.7,0.7,0.2,1.3,0.7,1.8c1.9,1.4,3,3.5,5.5,3.7c0.9-0.2,1,1.3,2,0.9c2,1.5-0.7,2.8-1.1,4.1l-0.5,0c-0.8,1.7-2.6,3.4-1.8,5.5
	c0.5-0.2,1.2-0.6,1.6-0.5c0.4,0.1,0.5-0.3,0.7-0.5c1.2-0.2,3.3-0.7,4.8-1.1C508.4,343.8,511.8,342.4,513.2,340.9L513.2,340.9z"/>
</svg>
