<?xml version="1.0" encoding="utf-8"?>
<!-- Generator: Adobe Illustrator 16.0.0, SVG Export Plug-In . SVG Version: 6.00 Build 0)  -->
<!DOCTYPE svg PUBLIC "-//W3C//DTD SVG 1.1//EN" "http://www.w3.org/Graphics/SVG/1.1/DTD/svg11.dtd">
<svg version="1.1" id="Layer_1" xmlns="http://www.w3.org/2000/svg" xmlns:xlink="http://www.w3.org/1999/xlink" x="0px" y="0px"
	 width="600px" height="600px" viewBox="0 0 600 600" style="enable-background:new 0 0 600 600;" xml:space="preserve">
<g>
	<path style="fill:#01A54E;" d="M288.8,588c-10.3-0.9-17.5-2.9-17.5-2.9c-85-29.4-145.3-104.1-183.4-184
		C57.3,333,43,254.6,42.3,176.5V12.2h513.1v164.3c-0.7,78.1-15,156.5-45.6,224.6c-38.1,79.9-98.4,154.6-183.4,184
		C312.7,589,298.9,589,288.8,588"/>
	<path style="fill:#FCED20;" d="M260.4,119.1c-9.3-1.3-18.8-2.9-28.2-4.3c-18.7-2.7-37.3-4.4-55.4,0.2c-1.6,1.5-2.1,2.9-2.4,4.4
		c-0.2,0.8-0.3,1.7-0.4,2.5c-0.1,0.7-0.3,1.4-0.6,2.1c3.3,4.4,8.3,5.7,14.2,5.6c6.1-0.1,12.6-1.6,18-2.3c0.4-0.5,0.8-1.1,1.3-1.6
		l1.5-2.2c1-1.5,2.3-3.1,3.9-4.5l0.7-0.3c7.4-0.2,15.9-0.1,20.3,6.6c19.2-6.3,45.5-3.7,57.6,11.9l0.3,0.8
		c-0.4,12.2-8.7,14.3-17.2,15.4c-4.1,0.5-8.5,0.8-12.5,2c-3.7,1-6.8,2.7-8.8,5.9c0.6,4.9,4.5,8.3,9,9.6c1.8-0.4,3.8-0.9,5.7-1.3
		c2.1-0.4,4.2-0.7,6.3-0.8c4.2-0.1,8.3,1.1,11.3,5.2c1.4,2.8,2,2.3,3.5,1.1l1.3-1.2c0.5-0.4,1-0.9,1.6-1.2c1.1-0.7,2.5-1.3,4.2-0.8
		l0.8,0.9c0.5,2.9-0.3,5.6-1.6,7.9c-0.6,1.2-1.3,2.3-2.1,3.4l-2.3,3.3c-2.9,4.3-4.9,8.4-2.1,14l1,2l-2.2-0.3c-2.4-0.3-4-1.7-5.1-3.3
		c-0.5-0.8-1-1.6-1.4-2.5l-1.2-2.5c-1.5-3-3-4.9-7.8-2.9l-2.3,1l0.7-2.4c0.4-1.6,1.2-3.5,1.5-5.3c0.3-1.7,0.3-3.3-0.4-4.9
		c-2.2-2.7-4.3-3.1-6.6-2.7c-2.6,0.5-5.3,1.8-8.1,2.4c-2.9,2.9-6.7,4.2-10.7,4.8c-4.1,0.6-8.6,0.4-13,0.3c-5.9-3.3-7-7.8-7.2-12.6
		c-0.1-2.2,0.1-4.7,0-7.1c0-2.2-0.2-4.3-0.7-6.3c-11.9-4.7-20.7-0.6-29.3,5.5c-4.4,3.1-8.8,6.7-13.3,9.9c-4.6,3.2-9.5,6-15,7.2
		c-6.1,2.2-13,2.7-19.7,3.1c-3.3,0.2-6.7,0.3-9.9,0.7c-2.6,0.2-5.1,0.6-7.4,1.1c2.2,4.8,3.2,11.1,0.1,14.9c-0.6,2.6-4.5,5-7,2.1
		c-0.8-2.6-2-4.4-3.2-6.3c-0.7,0.2-1.3,0.6-2,1.2c-0.5,0.4-0.9,0.8-1.3,1.3l-1.4,1.5c-1.8,1.9-4.2,4.2-7.9,3.4l-1-0.2l0.1-1
		c0.1-1.6-0.5-2.5-1.4-3.4c-0.5-0.5-1.1-1-1.6-1.5l-0.8-0.8l-1.4,1.6c-0.9,0.9-1.9,2-3.1,2.8c-2.3,1.7-5.2,3-8.7,1.8l-0.8-0.3v-9.4
		c-1.7-0.3-3.5-0.5-5.4-0.6c-2.3-0.1-4.6,0-6.9,0c-4.6,0.1-9.4,0-13.6-1.9l-1.2-0.5l4.2-7.4l-4.5-1.3l0.5-2.3
		c6.9,1,13.8,3.6,20.8,5.4c6.6,1.8,13.2,2.7,19.9,0.8c0.5-2.3,0.5-4.4,0.2-6.7c-0.3-2.5-0.9-4.9-1.4-7.3c-1-4.9-1.5-9.9,2.1-15
		l0.8-0.5c2.3-0.3,4.7,0,7.1,0.4c2.4,0.4,4.8,1.1,7.2,1.8c3.7,1,7.3,1.9,10.8,2.1c-1-0.9-1.9-1.9-2.8-2.9c-1.5-1.8-2.9-3.6-4.5-5.1
		c-2.8-2.9-6-4.9-11.2-4.2l-6.4,6.7l-0.3-2.5c-0.5-3.8,0.2-10.7,2.5-15.2l11.6-0.6c1.4-2.1,0.7-3.7-0.9-5.5c-0.9-1.1-2-2.1-3-3.1
		c-1-1-2-2.3-2.6-3.6l0-1c3.2-6.8,7.3-11.7,13.1-16.6l0.8-0.7l6,6.1c1.5-0.8,3-1.3,4.5-1.8c1.8-0.5,3.6-1,5.2-1.4l1.1-0.3l0.4,1
		c0.2,0.7,0.5,1.7,0.7,2.8c0.2,1,0.5,2,0.8,2.7c0.5,1,0.9,1.6,2.5,0.4c0.4-0.9,1.1-1.3,1.8-1.4c0.3-0.1,0.6-0.1,1-0.1l2.4,0
		l-0.6,1.6c-2.4,6-6.2,13.1-9.3,19.8l-17.1,1.4c0.2,3.3,3.6,7.8,7.5,8.1l3.7,0l-2.4,3.9c40.9-5.8,85.4-5.8,128.4-3.2
		c1.6-0.2,3.3-0.4,5-0.6c1.7-0.2,3.4-0.5,4.9-1c2.9-0.9,5.2-2.5,6-5.9c-0.1-2.6-2.6-6.4-5.4-8.1c-7.1-3-14.4-2.7-22-1.8
		c-3.9,0.5-7.8,1.1-11.7,1.5c-4,0.4-8,0.7-12,0.4c-9.2,0.7-19,2.8-28.7,3.7c-9.8,1-19.7,0.8-29-3.1c-2.5-4.4-4.4-9.6-2.3-14.4
		c1.9-3.6,5-5.4,8.3-6.5c3.1-1.1,6.5-1.6,9.5-2.7c21.8-2,45-0.3,65.1,1.6c9.7-6.5,21-4.1,30.7,0.1l2.7,2c0.8,0.7,1.6,1.3,2.3,2
		c1.4,1.4,2.6,3.1,3.3,5.3l0.4,1.5l-1.6,0C279.1,121.2,269.8,120.3,260.4,119.1"/>
	<path style="fill:#FCED20;" d="M490.2,92.5c-6,11-12.4,18.4-25.3,22.6c-7.6,1-13.9-0.7-19.2-5.2c-5.5-9-5.4-20.5-3.7-30.3
		c3-5.2,9-10.5,15.1-8.5c1.7,2.4,2.7,3.5,4,4.4c0.6,0.5,1.3,0.8,2.1,1.2l2.5,1.2c7.5,1.4,15.9,1.2,21.1-4c3-3,3.9-7.7,2.4-11.5
		c-1.3-3-3.6-4.8-6.6-6c-1.5-0.6-3.1-1.1-4.7-1.5l-4.7-1.1c-1.7,0.4-3.4,0.8-5.1,1.2c-1.8,0.4-3.5,1-5.1,1.6c-3,1.3-5.4,3.2-6.6,6.3
		c0.6,4.1-1.6,5.9-4.2,6.9c-1.2,0.5-2.5,0.8-3.7,1.2c-1.2,0.4-2.2,0.8-2.8,1.3c-4.4,3.1-6.1,7.5-6.4,12.8
		c-0.4,5.4,0.6,11.4,0.9,17.1c0.9,5.1,5.8,10.8,10.2,12.5c7.5,3.2,16.2,2.7,23-0.7c12.1-8.1,19.9-18.8,23.4-31.8l2.3,0.3
		c0,80.7-11.1,164.3-80.1,203.6c-37.4,23.2-88.5,28.2-134.1,18.9l0.1-2.3c7.1-0.9,13.5-3.9,19.5-7.8c3-2,5.9-4.2,8.8-6.6
		c2.6-2.1,5.1-4.4,7.6-6.6c56.9-11.5,112.9-42.9,127.9-102.1l0.8-0.8c7.1-2.2,12.2-7.4,16.8-13.3c-16.4,15.7-40.4,24.6-65.2,18.4
		c-9.5,17.1-33.8,25-53.8,24.7l-11.2-3.1l1-1.4c3.6-5.1,5.9-11.6,8-18.6c2.1-7.1,3.9-14.6,6.4-21.2c18.7-17,32.9-37.9,46.8-58.6
		c7-10.4,13.9-20.6,21.2-30.3c7.3-9.6,15.1-18.6,23.8-26.3c11.4-9.2,31.4-15.2,45.8-6C499.9,58.6,499.2,78.3,490.2,92.5"/>
	<path style="fill:#FCED20;" d="M498,56.9l-1.2,0.3l-3.3-12.9l1.6,0.1c7.5,0.5,16.1,2.2,23.4,5.3l3.2,1.4l-3.4,0.9
		C511.8,53.6,504.9,55.2,498,56.9"/>
	<path style="fill:#FCED20;" d="M518.2,59.4c-1.8,1-3.8,2-5.8,3c-3.9,2.1-7.4,4.3-9.4,7.7l-1.4,2.4l-3.6-12l0.6-0.5
		c3.2-2.4,7.1-3.8,11.1-4.6c4-0.8,8.3-1.2,12.5-1.6l3.4-0.3l-2.5,2.3C521.8,57.2,520.1,58.3,518.2,59.4"/>
	<path style="fill:#FCED20;" d="M485.8,71.8c-0.9,0.6-2,1.2-3,1.8c-0.9,0.6-1.7,1.1-2.1,1.8l-0.3,0.4l-0.5,0.1
		c-6.6,1.4-15.9,1.6-20.6-4l-0.3-0.5c-0.3-1.3-0.9-2.4-1.4-3.6c-0.5-1.3-0.9-2.8-0.6-4.5l0.1-0.3l0.2-0.2c3.8-4.3,9.6-6.6,15.5-7.3
		l0.4,0l0.3,0.2c1,0.5,2.2,0.9,3.5,1.3c1.4,0.4,2.8,0.7,4.1,1.1c2.7,0.9,5.5,2.4,6.5,6C489.3,68,487.9,70.3,485.8,71.8"/>
	<path style="fill:#FCED20;" d="M249,302.7l2.3,1.5l-0.5,1c-4.6,9.1-11.7,16-19.6,21.6c-3.9,2.8-8.1,5.3-12.3,7.6
		c-4.2,2.3-8.4,4.4-12.4,6.5l-1.4-1.8c48.4-57,90.9-108.8,139.4-166.7l3.3-4l-1.3,5c-5.4,21.4-17,39-30.6,55.4
		c-13.6,16.3-29.3,31.4-43,47.7"/>
	<path style="fill:#FCED20;" d="M320,277.5c-7.2,0.9-13.9,0.2-20.4-0.7c-6.4-0.9-12.7-2.1-19.1-2.6l-1.5-0.1l0.5-1.4
		c3.6-10.8,11.3-13.9,19.8-14.2c8.2-0.3,17.6,2,25.6,2.2c43.3-7.4,91.3-28.1,105.8-73.5c1.6-2.5,4-3.3,6.2-3.8
		c1.1-0.2,2.3-0.4,3.4-0.6c1-0.2,2.1-0.4,3-0.7l2.2-0.8l-0.7,2.2C429.1,238.3,375.1,270.1,320,277.5"/>
	<path style="fill:#FCED20;" d="M337.1,233.1l-0.7-0.2c-1.1-0.6-2.5-1-4.2-1.3c-1.7-0.3-3.6-0.5-5.2-0.7c-1.7-0.2-3.4-0.6-4.7-1.2
		c-1.4-0.7-2.5-1.8-2.6-3.6l15.3-18.5l0.7,0.2c24.7,7.2,50.1-0.9,65.4-21.9l0.4-0.6l10.9,2.1l-0.8,1.5
		C396.7,214.6,369,230.5,337.1,233.1"/>
	<path style="fill:#FCED20;" d="M345.2,255.3c-17,4.1-31.4,3.2-48.6,0.8l-2.1-0.3l21.7-25.4l0.8,0.3c34.8,14.8,67.4-9.6,90-30.5
		c1-1.8,2-3.7,3-5.4c1.1-1.8,2.4-3.6,3.9-5.1c3.1-3,7.2-4.7,13-3.4l1.3,0.3l-0.3,1.2C417.2,225.8,379.8,242.3,345.2,255.3"/>
	<path style="fill:#FCED20;" d="M254.9,301.5l-2.2-0.3l24.1-26.1l0.7,0.2c12.6,2.8,25,5.4,39,4.3l3.1-0.3l-2.1,2.2
		C302.6,297.4,278.5,305.1,254.9,301.5"/>
	<path style="fill:#FCED20;" d="M242,347l-1.8-2.7c-4-6.1-4.7-14.5-2.9-21.6l0.3-1.1l1.1-0.5c1.8-0.8,3.4-2.5,5-4.9
		c1.7-2.5,3.2-5.4,4.8-7.8c3.4-5.2,8.3-9.6,16.5-4.6l18.5-1l-4.6,4.5c-11.8,11.4-24.6,25-34.7,37.3"/>
	<path style="fill:#FCED20;" d="M315.3,326.1c-1.9,4.7-2.9,9.5-1.2,15l5.6,16.7l-9.7,2.3l0.1-1.6c0.2-3.8-0.5-7.8-1.5-11.9
		c-1-4.2-2.1-8.4-2.8-12.5c-1.4-8.3-1-16.7,7.3-23.4l0.3-0.3h9l-0.6,1.6C320.2,316.6,317.3,321.2,315.3,326.1"/>
	<path style="fill:#FCED20;" d="M338.9,345.9c1.4,5.9,3.5,11.9,5.4,17.8c1.8,5.6,3.4,11.3,4,16.7c8,0.9,16,1.6,24,2.5l-0.1,2.4
		c-3.9,0.2-8.1-0.2-11.8,0.1c-3.2,0.3-6,1.2-8,3.6c1.3,1.2,2.7,2.2,4.1,3.2c1.7,1.2,3.5,2.3,5.3,3.4c3.6,2.2,7.2,4.6,10.3,8.2l2,2.4
		l-3.1-0.4c-1.5-0.2-2.9-0.9-4.1-1.6c-1.2-0.7-2.3-1.6-3.5-2.3c-2-1.3-4-2.1-6.7-1.4c-0.2,1.1-0.2,2.2,0,3.5c0.2,1.5,0.6,3,0.9,4.5
		c0.7,3.1,1.5,6.7,0.2,10.2l-1,2.7l-1.2-2.6c-2.1-4.6-3.6-10.9-6-16.4c-2.3-5.3-5.2-9.6-10.1-11.2c-9.1,1.7-17.2,6-24.9,10.9
		l-3.2,2.1l1.5-3.5c1.2-2.8,3.4-4.7,5.9-6.3c1.2-0.8,2.6-1.4,4-2.1c1.4-0.6,2.8-1.2,4.2-1.8c5.7-2.4,10.6-4.9,12.4-10.2
		c0.1-4.9-0.7-9.5-2-13.9c-1.3-4.5-3.1-8.8-4.7-13c-3.3-8.5-6.4-17.2-4.4-26.8l0.7-0.8c1.7-0.8,2.4-2.8,3-5.8c0.3-1.5,0.5-3,0.8-4.4
		c0.3-1.4,0.8-2.9,1.7-4.1l14.1-0.5l-2.1,2C336.2,322.9,336.1,334.1,338.9,345.9"/>
	<path style="fill:#FCED20;" d="M195.3,397c-15.1,17.5-29.4,35.9-40.2,56l-1.4,2.6l-0.8-2.8c-1.6-5.5-1.2-11.8-0.2-18
		c0.9-6.1,2.3-12.3,2.8-17.6l0.5-0.8c32.2-26,57.3-56.3,76.7-88.5l1.9-3.2l0.3,3.7c0.5,6.1,1.6,11.8,4.8,16.5l0.5,0.7
		C226.1,362.9,210.4,379.5,195.3,397"/>
	<path style="fill:#FCED20;" d="M141.6,417.8c-2.1,0-4.3-0.1-6.4,0.2c-2,0.2-3.9,0.6-5.6,1.4l-1.2-2.1c13.1-9.3,25.2-21.3,37-34
		c11.8-12.7,23.2-26.2,34.7-38.5c9.4-1.7,16.5-6.8,24.1-12.3l4.7-3.4l-3,4.9c-19.3,32.2-43.4,58.4-71.3,81.5
		C150.7,417.9,146,417.8,141.6,417.8"/>
	<path style="fill:#FCED20;" d="M254.6,426c1.3-5.7,2.7-9,2.7-9c12-32.5,37.6-53.4,72.6-59.6l1,0.3c6.4,5.6,7.3,17.1,5.6,24.2
		c-2.6,3.3-5.6,5.3-8.8,6.9c-3.1,1.6-6.4,3-9.4,4.6c-5.5,2.9-9.7,6.5-10,13.9c1.9-0.7,3.7-1.6,5.6-2.5c2.4-1.3,4.8-2.7,7.3-4.2
		c5-2.9,10.3-5.8,16.6-7.3c5.1-0.3,8.7,5,9.9,8.4l7.9,25.5c4.7-6,6.9-15.2,3.4-22.8l-0.9-1.9l2.1,0.2c4.7,0.5,8.5,3.6,11.9,6.5
		c1.7,1.5,3.3,3,5,4.3c1.1,0.8,2.1,1.6,3.2,2.1c-0.5-5.2-3.4-9.6-7.4-13.6c-2.3-2.2-4.8-4.2-7.4-6.2c-2.6-2-5.3-3.8-7.6-5.7
		l-1.9-1.5l2.3-0.6c2.1-0.6,4.4-0.8,6.7-0.8c2.3-0.1,4.8,0,7.2,0.1c4.5,0.1,8.9,0,12.5-1.3c-0.1-1-0.8-1.5-1.7-1.9
		c-0.7-0.3-1.5-0.6-2.2-0.9c-0.7-0.3-1.5-0.8-2.1-1.4c-9.1-2-19.2-2-28.7-3.2l-0.9-0.1l-3.7-22l1.4,0c40.5,1.2,70,27.7,83,62.3
		c12.3,35.9-0.2,75.1-28.4,99.6c-25.8,22-65.7,24.6-96.2,11.4c-30.5-13.9-53.9-46.9-52.9-81.4C251.9,439.4,253.2,431.6,254.6,426"/>
	<polyline style="fill:#FCED20;" points="95.3,34.5 95.3,46.7 119,46.7 119,34.5 144.6,34.5 144.6,46.7 167.7,46.7 167.7,34.5 
		194.7,34.5 194.7,46.7 216.4,46.7 216.4,34.5 240.1,34.5 240.1,46.7 266.3,46.7 266.3,34.5 295.6,34.5 295.6,93.9 196.2,93.9 
		196.2,72.2 166.2,72.2 166.2,93.9 71.5,93.9 71.5,34.5 	"/>
	<path style="fill:#FCED20;" d="M96.1,112.1l-1.8,2.5c-1.8,2.6-4,5.2-6.1,7.8c-2.1,2.6-4.1,5.1-5.7,7.8c-3.2,5.3-4.8,11.1-2.6,18.4
		c4.4,6.6,10.9,11.2,18.5,10.5l1.5-0.1l-0.2,1.4c-0.2,1.9-0.5,3.8-0.7,5.7c-0.2,1.9-0.3,3.9-0.2,5.9l0.1,1.2l-1.2,0
		c-8.3,0.2-19,0.3-26.9-3.4c-2.9-2.6-6.5-6.3-7.5-10.3l-0.2-0.6l0.4-0.5c0.9-1.1,2-1.4,3.1-1.3c0.5,0,1,0.1,1.4,0.3l1.2,0.4
		c1,0.4,1.6,0.5,2.1,0.1l-2.1-1.3c-1.1-0.7-2.1-1.5-3-2.5c-1.4-3.4-2.6-10.8,0.7-14.4l0.8-0.9l0.9,0.9c0.4,0.4,0.9,0.5,1.7,0.5
		c0.5,0,1-0.1,1.5-0.1c-0.1-1.4-0.9-3-1.9-4.7c-0.6-1.1-1.4-2.1-2-3.2c-0.7-1.1-1.3-2.2-1.8-3.2c-1-1.4-1.2-3.1-1.2-4.6
		c0-1.5,0.2-3,0-4.5l0-0.6l0.4-0.4c0.7-0.6,1.5-1.4,2.3-2.1c0.8-0.8,1.4-1.5,1.9-2.3c0.8-1.3,0.9-2.6-0.8-4l-2.6-2.2l3.4,0.1
		c2,0.1,3.9,1.2,5.7,2.3c1.8,1.2,3.6,2.7,5.3,3.9c3.5,2.4,5.7,2.9,7.6-0.4l0.3-0.5"/>
	<path style="fill:#FCED20;" d="M223.5,177.4c0.6,1.1,1.5,2.1,2.4,3c1,1,2,2,3,2.9c4.1,3.9,8.4,8.5,3.8,16.5
		c-2.4,6.6-7.2,7.4-12.1,6.7c-2.3-0.3-4.8-0.9-7.2-1.4c-2.4-0.5-4.5-0.7-6.3-0.4c-1.9,0.3-3.8,1.1-5.8,2c-2,0.9-4.1,2-6.1,2.8
		c-4.2,1.7-8.8,2.6-13.6-0.7l-2.1-8l-9.9,3l1.2-2.4c1.6-3.4,4.8-5,7.9-6.3c1.5-0.6,3.1-1.2,4.7-1.9c1-0.5,2-0.9,2.9-1.5l-6-5
		l3.7,0.3c3.3,0.3,6.5,1.2,9.7,2.3c3.1,1.1,6.3,2.4,9.4,3.4c5.7,1.8,11,2.4,15.9-1.2l-15-16.6l0.1-0.6c1-4.1,4.2-5.5,7.5-5.9
		c3.1-0.4,6.8,0,9.7-0.2l1.7-0.1l-0.5,1.7C221.7,173,222.3,175.3,223.5,177.4"/>
	<path style="fill:#231F20;" d="M324.5,579.4c82.9-28.7,142-101.6,179.8-180.8c30.2-67.2,44.3-144.8,45-222.1V18.2h-501v158.3
		c0.7,77.4,14.9,154.9,45,222.1c37.8,79.2,96.9,152.1,179.8,180.8C273.1,579.4,299.2,586.5,324.5,579.4 M328.5,596l-0.8,0.3
		c-27.9,8.2-58.6-0.3-58.6-0.3c-150-51.5-206.5-224-206.5-224c-22.9-77.6-31.8-129.1-31.8-235.2V0h535.9v136.8
		c0,106.2-8.9,157.7-31.8,235.2C534.9,372,478.5,544.5,328.5,596"/>
	<path style="fill:#231F20;" d="M72.7,35.7v57H165V71h32.4v21.7h97.1v-57h-27v12.2H239V35.7h-21.4v12.2h-24V35.7h-24.6v12.2h-25.6
		V35.7h-23.1v12.2H94.1V35.7 M68.9,32.7H98v11.6h18.4V32.7h30.9v11.6H165V32.7h32.4v11.6h16.3V32.7h29.1v11.6h20.8V32.7h34.7V96
		H193.5V75.2h-24.6V96h-100V32.7z"/>
	<path style="fill:#231F20;" d="M288.3,119.8c-1.2-4-4.3-5.9-7.6-8.6c-9.7-4.3-20.7-6.4-29.9,0c-20.2-1.9-43.5-3.5-65.1-1.6
		c-5.9,2.1-13.8,2.1-17.1,8.5c-1.9,4.3-0.2,9,1.7,12.8c18,7.6,38.7,0.7,57.2-0.7c15.9,1.2,31.3-6.4,46.3,0c3.1,1.9,5.9,6.2,5.9,9.3
		c-1.9,8.1-10.7,7.6-17.1,8.6c-43.9-2.6-89.3-2.6-130.8,3.6l2.6-4.3h-1.7c-5-0.5-9.3-6.4-8.5-10.5l17.1-0.7
		c3.1-6.6,6.9-13.8,9.2-19.7c-0.7,0-2.1-0.3-2.4,0.9c-5,4-5.2-3.6-6.2-6.2c-3.3,1-7.1,1.7-10.2,3.6l-5.9-5.9
		c-5.7,4.8-9.7,9.5-12.8,16.2c1.9,4.5,10.5,7.8,5.9,13.8h-11.2c-2.1,4.3-2.8,10.9-2.4,14.5l5-5.2c11.9-1.9,14.3,9,22.3,14.5
		c-9.3,1-19.7-5.2-28.3-4.3c-6.6,9.3,1.9,18.5-0.9,29.2c-14.5,4.5-28-4-41.8-5.9l5.9,1.7l-4.3,7.6c7.8,3.6,18.3,0.5,26.6,2.6v9.5
		c5.9,1.9,10.2-4,12.8-6.9c1.9,2.6,5.2,3.6,5,7.6c6,1.2,7.9-6.9,12.8-7.6c1.4,2.1,2.9,4.3,3.6,6.9c1.7,1.9,4.7,0.2,5-1.9
		c3.1-3.6,1.9-10.2-0.7-15.2c11.2-3.1,26.6-1,38.5-5.2c21.4-5,33.5-32.8,58.9-22.3c2.8,9.5-2.9,20,6.9,25.6c8.5,0.3,17.8,0.7,23-5
		c5.9-1.2,11.4-5.7,16.4,0.7c1.9,3.8,0,7.8-1,11.2c11.2-4.8,8.3,10.2,16.2,11.1c-6.4-12.3,9.5-18.5,7.8-29
		c-4.5-1.4-7.6,8.8-11.2,1.7c-5.2-7.3-14.7-4.3-22.3-2.6c-5-1.4-9.7-5.2-10.2-11.2c9-15,37.7-0.7,38.5-23
		c-11.9-15.2-38.2-17.8-57.2-11.1c-3.8-6.9-11.9-7.1-19.7-6.9c-3.1,2.6-4.5,5.9-6.9,8.6c-11.2,1.2-27.1,6.4-34.2-4.3
		c1.7-3.3,0.2-6.7,4.3-10.2C213,104.4,251.7,120.6,288.3,119.8 M89.1,114.8c-5,8.8-13.3-5-19.7-5.2c4.5,3.8-0.5,7.6-3.3,10.2
		c0.2,2.9-0.7,6.4,1,8.6c1.9,4.3,6.4,8.5,5.9,12.8c-1.7,0-3.8,0.7-5.2-0.7c-2.9,3.1-1.9,9.7-0.7,12.8c1.7,1.9,3.8,2.9,5.9,4.3
		c-2.4,4.5-5.9-1.4-8.5,1.7c1,3.6,4.3,7.1,6.9,9.5c7.6,3.6,18,3.6,26.4,3.3c-0.3-4.3,0.5-8.1,0.9-11.9c-8.3,0.7-15.2-4.3-19.7-11.2
		c-4.7-15.7,7.1-24.7,14.5-35.1L89.1,114.8z M221.5,169.5c-5.9,0.5-14.5-1.6-16.1,5.2l15.4,17.1c-11.4,9.5-24.5-2.6-36.8-3.6
		l4.3,3.6c-5.2,4.3-13.5,4.3-16.4,10.2l8.5-2.6l1.9,8.5c8.8,6,16.4-2.8,24.7-4.3c8.3-1.4,20.4,7.6,24.7-4.3
		C240.1,184.9,217.3,183.5,221.5,169.5 M298.5,169.5c3.3,15-15,23.3-5.9,38.5c-11.6,0.2-11.6-13.3-22.3-13.5
		c-8.3-1.9,1.9-8.8-2.4-13.8c-11.2-2.6-17.3,11.6-29.9,7.6c-1.4,3.1-1.2,7.6-1.9,11.2c-2.1,4.7-5.5,8.1-10.2,10.2
		c-18.3-12.8-31.3,15-48.7-0.7v-3.6c-2.6-2.1-10,4.7-9.5-2.4c0.2-4.3,5-8.3,8.5-9.5c1.4,0.5,1.9-1,2.6-1.6l-3.3-3.6
		c13.1-11.6,24.7,8.1,39.2,2.6c-5.2-6.9-16.1-11.4-11.9-20.4c4.3-7.1,13.5-2.6,19.7-5.2c0.7-6.6-7.4-1.4-10.2-4.3
		c-21.6,0.7-30.4,27.1-53.2,24.9c-7.6,2.4-17.3,2.4-24.7,3.3c1.4,3.8,0.9,6.4,0,10.2c-2.4,4.7-4,7.4-9.5,8.5l-6-5.9
		c-3.8,5.5-11.9,7.1-17.8,6.9c-2.1-6.9-15,2.1-18.1-6.9c2.4,1.2,2.4-1.7,3.3-2.6c-3.3-6.2-14.3-2.4-21.4-3.3
		c-2.4-1.9-5.5-3.1-7.6-5.9c5.5-4-1.4-7.1,0.9-12.8c14.3,0.2,25.4,9,40.1,8.6c1.4-2.4,0.5-6,0.7-8.6c-13.5-2.4-31.8-0.7-37.5-14.7
		l-2.6-6.6l3.6-1.9c0-5.5-5-17.1,4.3-17.8c-3.3-5.5-7.8-12.4-3.6-18.8c5.9-2.4,1.7-7.4,0-9.5v-1.7c12.3-4.7,19,15.4,29.9,3.3
		l5.2-0.7c-3.3,15.2-29.5,31.4-8.6,46.1c2.8,1.4,6.9,0.7,10.2,1c3.3-18.5,8.1-40.1,25.6-52.3c3.6,15,18-4.5,20.4,8.6
		c3.6,2.4,6.9-0.7,10.5-1c-2.4,13.1-11.9,23.5-17.1,35.2c43.9-7.4,86.7,0.2,133.2-3.3c1.9-1.4,3.6-5.2,1.7-7.8
		c-12.6-6.9-28.3-1-42.7-1.7c-20.7,2.1-39.2,6.9-60.6,2.6c-3.8-1.4-5.2-5.7-6.9-8.5c-1.9-8.8,2.6-14.3,8.5-18
		c28.5-9.3,55.3,0.5,85.5-5c10.7-3.3,23.3,0.7,30.9,8.6c0.9,3.5,4.8,6.4,3.3,10.9c-3.1,2.1-7.4,0-10.2,1.9
		c5.9,1.2,9.8,7.6,11.9,12.8c1.7,7.1-5.2,13.3-11.2,15.2c-8.8,2.9-19.7,1.4-27.3,7.8c5.7,14.7,24.5-4.5,31.6,10.2
		C289.9,168.3,294.7,169.9,298.5,169.5 M216.6,115.6c-1.4-0.1-2.5,0-3.6,0.3c-9.2,0.3-17.5-2.4-26.3-0.3c-5,0.2-10.7,2.1-9.5,8.6
		c7.6,5.2,18.1,1.4,26.6,0c2.6-3.4,5.1-7.1,9.2-8.3C214.1,115.8,215.4,115.7,216.6,115.6 M226.1,116.8c5.8,6.7,15.5,3.5,20.4,3
		L226.1,116.8z M100.8,204.6c1.1,0,2.9,0.5,2.7-0.9C102.4,203.3,101.7,204.3,100.8,204.6"/>
	<path style="fill:#231F20;" d="M488.2,43.9c-13.8-8.8-33.2-3.1-44.4,5.9c-34.4,30.6-54.4,81.4-91.4,114.7
		c-5,13.3-7.1,29.7-14.5,40.1l9.3,2.6c20.2,0.2,44.4-7.8,53.2-24.9c25.2,6.7,49.4-2.6,65.8-18.8l1.7,1.7
		c-4.8,6.2-10.2,12.1-18.1,14.5c-15.2,59.8-71.7,91.4-128.2,100.9l0.9,1c-11.4,10-22.8,20.2-37.5,22.1c45.4,9.3,96.2,4.3,133.2-18.8
		c68.4-38.9,79.5-121.8,79.5-202.5c-3.6,13.3-11.6,24.2-24,32.5c-7.1,3.6-16.1,4-24,0.7c-4.7-1.9-10-7.8-10.9-13.5
		c-0.7-11.4-3.8-24.2,5.9-30.9c3.3-2.6,11.4-1.4,10.2-8.5c2.6-7.4,10.9-8.5,18-10.2c6.4,1.7,14.3,2.6,17.1,9.5
		c1.7,4.3,0.7,9.5-2.6,12.8c-5.7,5.7-14.7,5.7-22.3,4.3c-3.8-1.9-6.4-2.8-8.5-6.9c-5.2-1.7-10.7,2.9-13.5,7.6
		c-1.7,9.8-1.7,20.9,3.3,29.2c5,4.3,10.9,5.9,18,5c12.6-4,18.8-11.2,24.7-22.1C498,78,498.7,58.8,488.2,43.9 M518.1,50.7
		c-7.1-3.1-15.7-4.7-23-5.2l2.6,10.2C504.6,54.1,511.5,52.4,518.1,50.7 M522.4,55c-8.3,0.7-17.1,1.4-23,5.9l2.6,8.5
		C506.3,62.1,517.2,60,522.4,55 M486.6,64.3c-1.7-5.9-9-5.2-13.5-7.6c-5.7,0.7-11.1,2.8-14.7,6.9c-0.5,2.9,1.2,5,1.9,7.6
		c4.3,5,12.8,5,19.5,3.6C482,71.2,489.4,71.4,486.6,64.3 M272.1,275.6c27.6-32.5,62.7-60.3,73.4-102.6
		c-48.4,57.9-90.9,109.7-139.4,166.7c16.2-8.3,34.7-17.3,43.7-35.1l-2.6-1.7L272.1,275.6z M443.8,183.2c-4,1.4-9.5,0.7-11.9,4.3
		c-14.7,46.1-63.4,67-106.8,74.3c-16.2-0.2-37.5-9.3-44.4,11.2c12.8,0.9,25.2,5,39.2,3.3C374.7,269,428.1,237.4,443.8,183.2
		 M410.6,188.2l-8.5-1.7c-15.7,21.4-41.6,29.7-66.7,22.4L320.8,226c0.2,5,11.2,3.1,16.2,5.9C368.5,229.3,395.8,213.6,410.6,188.2
		 M426.7,187.5c-11-2.4-14.7,6.2-18.8,13.5c-22.5,20.9-55.8,46.1-91.4,30.9L296.8,255c17.1,2.4,31.3,3.3,47.9-0.7
		C379.5,241.2,416.3,224.8,426.7,187.5 M316.5,280.6c-14.3,1.2-26.8-1.4-39.4-4.3l-22.1,24C278.3,303.9,302.1,296.3,316.5,280.6
		 M277.1,305.5l-12.8,0.7c-13.8-9.3-14.9,12.8-24.7,17.1c-1.6,6.7-0.9,14.2,2.6,19.7C252.4,330.7,265.3,316.9,277.1,305.5
		 M320.8,311.5h-6.9c-15.7,12.8-1.9,31.1-2.6,47l6.9-1.7l-5.2-15.4C309.4,329.7,317.3,320.9,320.8,311.5 M345.5,312.2h-10.2
		c-2.8,4-1.2,12.6-5.9,14.7c-3.8,18.5,11.6,33.3,11.2,53.7c-3.8,12.1-22.3,10.7-26.6,20.7c7.8-5,16.2-9.5,25.6-11.2
		c11.2,3.3,12.8,19,17.1,28.3c2.4-6.4-2.6-12.8-0.9-18.7c6.9-2.6,10.2,4.3,15.4,5c-5.9-6.9-14-9.3-20.4-15.5
		c4.7-6.9,13.5-4.5,21.4-5c-8.3-1-16.6-1.7-24.9-2.6C345.3,358.9,324.4,332.8,345.5,312.2 M238.7,345.6c-3.3-5-4.5-10.9-5-17.1
		c-19.5,32.3-44.7,62.7-76.9,88.8c-0.9,10.7-5.7,24.7-2.6,35.2C175.7,411.9,211.8,378.7,238.7,345.6 M154.1,414.7
		c27.8-23,51.8-49.1,71-81.2c-7.6,5.5-15,10.7-24,12.1c-23,24.5-45.6,53.9-71.9,72.7C136.5,414.7,146.8,418.6,154.1,414.7
		 M253.1,448.2c-1,33.9,22.1,66.5,52.2,80.3c30.2,13,69.6,10.4,95-11.2c27.8-24.2,40.1-62.9,28-98.3c-12.8-34.2-42-60.3-81.9-61.5
		l3.3,19.7c9.7,1.2,19.9,1.2,29.2,3.3c2.1,2.6,6.9,1.6,6.7,6.2c-8.1,3.3-19.5,0.2-27.3,2.4c9.5,7.4,23.3,15.2,23,28.3
		c-7.1-2.4-12.8-12.6-21.4-13.5c4,8.8,1,19.5-5,25.7l-8.5-27.6c-1.2-3.3-4.5-7.8-8.6-7.6c-12.1,2.8-20.9,11.4-30.9,14.5
		c-0.5-18.3,19.5-16.9,28.2-27.3c1.7-6.9,0.7-17.8-5.2-23.1c-34.7,6.2-59.8,26.9-71.7,58.9C258.4,417.4,253.1,430.8,253.1,448.2
		 M480.6,37c14.7,9.2,36.1,1.9,48.7,16.4C522.2,66.2,498,64.5,501,84.9c2.1,48-4.5,91.4-20.4,133.2c-19.5,53.7-76,86.9-129.2,93.3
		c-12.6,11.6-12.1,29-6.7,41.8c38.5,1.9,72.9,27.3,87.2,62.4c10.4,29.9,4.5,65.5-14.5,89.8c-21.9,26.8-55.6,38.9-91.7,34.2
		c-34.2-7.8-63.9-33-73.4-67.5c-8.1-30.9,0.7-66,22.1-89c10.4-10.7,20.2-17.1,32.5-22.1c3.3-16.6-14.3-35.4,1.7-49.6
		c-7.6-5-19-1.2-27.3-4.3c-39.2,38.5-76,83.3-110.2,123c-6.9,11.4-14.7,22.3-18,35.1c-6.7-15.7-1.9-28.8-0.7-45.4
		c-11.9-1.4-23.5,2.4-35.1,3.3c46.1-33.7,78.1-79.1,116.4-121.3l160.5-193C415.3,78.7,434.8,30.3,480.6,37 M323.4,354.9
		c2.4,0.7,4-0.9,5.9-1.7c-9.5-11.9-4-27.1-0.9-40.1h-2.6l-7.6,13.8C315.1,337.1,319.4,346.4,323.4,354.9"/>
	<path style="fill:#231F20;" d="M297.9,431.4c-0.3,1.4,0.3-1.8,3.3-0.3c-3.3,7.7-3.3,19.7-3.3,24.8l-2.7-0.1
		C293.4,447.4,294.5,437.8,297.9,431.4"/>
	<path style="fill:#231F20;" d="M290,433.9c-2.8,5-4,13.6-1.7,20.3h-2.6c-3.6-6.4-1.8-15.1,1-20.5
		C289.5,432.8,288.8,433.2,290,433.9"/>
	<path style="fill:#231F20;" d="M280.8,434.9c-1,4.4-1.1,13.8,0.1,17.8l-2.9-0.2c-1.2-4.5-2.6-12.7,0.1-17.7
		C278.8,435.6,280.5,434,280.8,434.9"/>
	<path style="fill:#231F20;" d="M274.4,436.3c-0.9,3.8-0.9,11.7,0.1,15.1l-2.4-0.2c-1-3.8-2.2-10.8,0-15.1
		C272.7,436.8,274.2,435.5,274.4,436.3"/>
	<path style="fill:#231F20;" d="M268.7,437.4c-0.8,3.2-0.8,10,0.1,12.8l-2.1-0.2c-0.9-3.3-1.9-9.2,0-12.8
		C267.2,437.8,268.5,436.7,268.7,437.4"/>
	<path style="fill:#231F20;" d="M264.4,438.4c-0.6,2.7-0.6,8.5,0.1,10.9l-1.8-0.1c-0.7-2.8-1.6-7.8,0-10.9
		C263.1,438.7,264.2,437.8,264.4,438.4"/>
	<path style="fill:#231F20;" d="M260.3,438.9c-0.6,2.5-0.6,7.6,0.1,9.9l-1.6-0.1c-0.7-2.5-1.4-7,0-9.8
		C259.2,439.2,260.2,438.4,260.3,438.9"/>
	<path style="fill:#231F20;" d="M256.8,439.4c-0.5,2.2-0.5,6.9,0.1,8.9l-1.4-0.1c-0.6-2.2-1.3-6.3,0-8.8
		C255.8,439.7,256.6,438.9,256.8,439.4"/>
	<rect x="251.7" y="59.3" style="fill:#231F20;" width="3.6" height="15.9"/>
	<rect x="106" y="59.3" style="fill:#231F20;" width="3.6" height="15.9"/>
	<path style="fill:#231F20;" d="M481.6,63.6c2.1,5.9-3.1,8.3-6.9,10.2c-4-1-9-1.2-11.2-5.2c-1.4-5.2,1.9-7.8,5.9-9.3
		C474.2,59.1,479,58.8,481.6,63.6"/>
</g>
</svg>
