<?xml version="1.0" encoding="utf-8"?>
<!-- Generator: Adobe Illustrator 16.0.0, SVG Export Plug-In . SVG Version: 6.00 Build 0)  -->
<!DOCTYPE svg PUBLIC "-//W3C//DTD SVG 1.1//EN" "http://www.w3.org/Graphics/SVG/1.1/DTD/svg11.dtd">
<svg version="1.1" id="Layer_1" xmlns="http://www.w3.org/2000/svg" xmlns:xlink="http://www.w3.org/1999/xlink" x="0px" y="0px"
	 width="600px" height="600px" viewBox="0 0 600 600" style="enable-background:new 0 0 600 600;" xml:space="preserve">
<g>
	<path style="fill-rule:evenodd;clip-rule:evenodd;fill:#265B9E;" d="M173.1,222v188.2c0,0,0.5,30.2,28,50.2
		c1.3,0.9,2.5,1.8,3.9,2.6l94.9,63.1L395,463c1-0.6,2-1.3,2.9-1.9c28.5-20,29-50.9,29-50.9V222H173.1z"/>
	<polygon style="fill:none;stroke:#8B8E95;stroke-width:13.2313;stroke-miterlimit:2.613;" points="300,526.4 299.7,526.2 
		299.4,526.4 	"/>
	<path style="fill-rule:evenodd;clip-rule:evenodd;fill:#FFFFFF;" d="M148,456.1c9.7,3,18.7,1.7,22.5-3.9c5-7.5-1.4-19.9-14.3-27.8
		c-12.9-7.8-27.4-8.1-32.4-0.6c-4.4,6.6,0.1,17.1,10.1,24.9L131,451c-5.9,2-12.5,11.8-17.6,20.8c3,1,6,2.4,8.9,4.1
		c4.4,2.6,8,5.8,10.7,9.2c7-11.9,11.9-25.1,11.9-25.1C146.4,456.2,148,456.1,148,456.1z"/>
	<path style="fill:none;stroke:#265B9E;stroke-width:19.8469;stroke-miterlimit:2.613;" d="M148,456.1c9.7,3,18.7,1.7,22.5-3.9
		c5-7.5-1.4-19.9-14.3-27.8c-12.9-7.8-27.4-8.1-32.4-0.6c-4.4,6.6,0.1,17.1,10.1,24.9L131,451c-5.9,2-12.5,11.8-17.6,20.8
		c3,1,6,2.4,8.9,4.1c4.4,2.6,8,5.8,10.7,9.2c7-11.9,11.9-25.1,11.9-25.1C146.4,456.2,148,456.1,148,456.1z"/>
	<path style="fill:none;stroke:#265B9E;stroke-width:24.4646;stroke-miterlimit:2.613;" d="M152.3,460.9 M173.4,463.6
		c-8.8,6.6-21.1-2.8-21.1-2.8 M163,476.8l10.4-13.1 M152.3,460.9c-7.5,4.3,8.2,19.5,8.2,19.5c0.6,0.1,1.9-3.7,2.5-3.6"/>
	<path style="fill-rule:evenodd;clip-rule:evenodd;fill:#265B9E;" d="M475,507c2.4-1.7,5.2-4.2,3.7-5.2
		c-13.4-8.7-25.9-42.1-25.9-42.1c-1.6-3.9-3.2-4-3.2-4c-9.7,3-18.7,1.7-22.5-3.9c-5-7.5,1.4-19.9,14.3-27.7
		c12.9-7.8,27.4-8.1,32.4-0.6c4.4,6.6-0.1,17.1-10.1,24.9l2.7,2.3c11.4,4,26,37.4,26,37.4c9.4-4,11.4-13,11.4-13
		c1.2-3.5-1.7-4.5-1.7-4.5c-10.3-6.5-17.6-34.8-17.6-34.8c0.1-3.8-0.9-7.4-3-10.4c-7.3-10.9-25.9-11.6-42.4-1.6
		c-10,6.1-17.1,14.9-19,23.5c-1.2,5.4-0.4,10.5,2.4,14.6c8.8,9.2,22.7-1.3,22.7-1.3c7.2,5.2-11.6,19.9-11.6,19.9
		s-51,57.2-133.9,57.2c-83,0-139.2-57.2-139.2-57.2s-15.7-15.6-8.2-19.9c0,0,13.9,10.6,22.7,1.3c2.8-4.1,3.6-9.2,2.4-14.6
		c-1.9-8.7-9-17.5-19-23.5c-16.5-10-35.1-9.3-42.4,1.6c-2,3.1-3,6.6-2.9,10.4c0,0-7.3,28.3-17.7,34.8c0,0-2.9,1-1.7,4.5
		c0,0,2,9.1,11.4,13c0,0,14.6-33.4,26-37.4l2.7-2.3c-10-7.8-14.5-18.2-10.1-24.9c5-7.5,19.5-7.2,32.4,0.6
		c12.9,7.8,19.3,20.3,14.3,27.7c-3.7,5.6-12.7,6.9-22.5,3.9c0,0-1.6,0-3.1,4c0,0-12.5,33.4-25.9,42.1c-1.5,1,1.2,3.5,3.7,5.2
		c0,0,72.3,76,176,76C402.3,582.9,475,507,475,507z"/>
	<path style="fill:none;stroke:#265B9E;stroke-width:24.4646;stroke-miterlimit:2.613;" d="M475,507c2.4-1.7,5.2-4.2,3.7-5.2
		c-13.4-8.7-25.9-42.1-25.9-42.1c-1.6-3.9-3.2-4-3.2-4c-9.7,3-18.7,1.7-22.5-3.9c-5-7.5,1.4-19.9,14.3-27.7
		c12.9-7.8,27.4-8.1,32.4-0.6c4.4,6.6-0.1,17.1-10.1,24.9l2.7,2.3c11.4,4,26,37.4,26,37.4c9.4-4,11.4-13,11.4-13
		c1.2-3.5-1.7-4.5-1.7-4.5c-10.3-6.5-17.6-34.8-17.6-34.8c0.1-3.8-0.9-7.4-3-10.4c-7.3-10.9-25.9-11.6-42.4-1.6
		c-10,6.1-17.1,14.9-19,23.5c-1.2,5.4-0.4,10.5,2.4,14.6c8.8,9.2,22.7-1.3,22.7-1.3c7.2,5.2-11.6,19.9-11.6,19.9
		s-51,57.2-133.9,57.2c-83,0-139.2-57.2-139.2-57.2s-15.7-15.6-8.2-19.9c0,0,13.9,10.6,22.7,1.3c2.8-4.1,3.6-9.2,2.4-14.6
		c-1.9-8.7-9-17.5-19-23.5c-16.5-10-35.1-9.3-42.4,1.6c-2,3.1-3,6.6-2.9,10.4c0,0-7.3,28.3-17.7,34.8c0,0-2.9,1-1.7,4.5
		c0,0,2,9.1,11.4,13c0,0,14.6-33.4,26-37.4l2.7-2.3c-10-7.8-14.5-18.2-10.1-24.9c5-7.5,19.5-7.2,32.4,0.6
		c12.9,7.8,19.3,20.3,14.3,27.7c-3.7,5.6-12.7,6.9-22.5,3.9c0,0-1.6,0-3.1,4c0,0-12.5,33.4-25.9,42.1c-1.5,1,1.2,3.5,3.7,5.2
		c0,0,72.3,76,176,76C402.3,582.9,475,507,475,507z"/>
	<path style="fill-rule:evenodd;clip-rule:evenodd;fill:#FFFFFF;" d="M449.6,456.1c-9.7,3-18.7,1.7-22.5-3.9
		c-5-7.5,1.4-19.9,14.3-27.8c12.9-7.8,27.4-8.1,32.4-0.6c4.4,6.6-0.1,17.1-10.1,24.9l2.7,2.3c5.8,2,12.5,11.8,17.6,20.8
		c-3,1-5.9,2.4-8.9,4.1c-4.4,2.6-8,5.8-10.7,9.2c-7-11.9-11.9-25.1-11.9-25.1C451.2,456.2,449.6,456.1,449.6,456.1z"/>
	<path style="fill:none;stroke:#265B9E;stroke-width:19.8469;stroke-miterlimit:2.613;" d="M449.6,456.1c-9.7,3-18.7,1.7-22.5-3.9
		c-5-7.5,1.4-19.9,14.3-27.8c12.9-7.8,27.4-8.1,32.4-0.6c4.4,6.6-0.1,17.1-10.1,24.9l2.7,2.3c5.8,2,12.5,11.8,17.6,20.8
		c-3,1-5.9,2.4-8.9,4.1c-4.4,2.6-8,5.8-10.7,9.2c-7-11.9-11.9-25.1-11.9-25.1C451.2,456.2,449.6,456.1,449.6,456.1z"/>
	<path style="fill:none;stroke:#265B9E;stroke-width:24.4646;stroke-miterlimit:2.613;" d="M445.3,460.9 M424.2,463.6
		c8.8,6.6,21.1-2.8,21.1-2.8 M435.7,478.4l-11.6-14.7 M445.3,460.9c7.5,4.3-8.7,17.5-8.7,17.5c-0.6,0.1-0.3,0-0.8,0"/>
	<rect x="180.5" y="269.1" style="fill-rule:evenodd;clip-rule:evenodd;fill:#FFFFFF;" width="239.2" height="39"/>
	<rect x="180.4" y="343.2" style="fill-rule:evenodd;clip-rule:evenodd;fill:#FFFFFF;" width="239.3" height="39"/>
	<path style="fill-rule:evenodd;clip-rule:evenodd;fill:#265B9E;" d="M236,280.1c-4.3,0-6.7,4.3-6.7,9.6c0,6.6,3,8.9,6.5,8.9
		c3.7,0,7-3.1,7-9.9C242.8,283.4,240,280.1,236,280.1z M247.8,289.4c0,4.9-3,8.9-7.9,10.6c3,1.9,6.2,3.8,8.1,4.8
		c-1.4,0.2-2.7,0.8-4.4,1.7c-2.8-2.3-4-3.2-8.1-5.9c-6.1,0-11.4-3.4-11.4-11.1c0-6.1,4.7-11.1,11.9-11.1
		C242.7,278.4,247.8,281.9,247.8,289.4z"/>
	<path style="fill-rule:evenodd;clip-rule:evenodd;fill:#265B9E;" d="M257.4,292.4c0-3.3,0-5,0-7.3c0-3.3,0-5.4-0.1-6.4
		c0.8,0.1,1.7,0.2,2.5,0.2c0.8,0,1.7-0.1,2.6-0.2c-0.4,4-0.4,7.3-0.4,10.9c0,7.6,2.2,8.8,6.2,8.8c5,0,5.3-5.3,5.3-11.1
		c0-2.9-0.1-5.7-0.2-8.5c0.5,0.1,1.1,0.2,1.6,0.2c0.5,0,1-0.1,1.6-0.2c-0.2,1.8-0.4,6.3-0.4,11.6c0,7.2-3.1,10.2-9.2,10.2
		C261.5,300.5,257.4,298.2,257.4,292.4z"/>
	<path style="fill-rule:evenodd;clip-rule:evenodd;fill:#265B9E;" d="M287.4,287.3c0-3.5-0.1-5.9-0.3-8.6c1.8,0,3.7,0.2,5.5,0.2
		c3,0,5.6-0.1,6.5-0.2c-0.1,0.4-0.1,0.7-0.1,1.3c0,0.7,0.1,0.9,0.1,1.4c-2.4-0.2-6.1-0.4-7-0.4c-0.1,2.2-0.1,4.5-0.1,6.8
		c2.7-0.1,4.7-0.1,7-0.3c-0.1,0.7-0.2,1-0.2,1.4c0,0.4,0.1,0.6,0.2,1.3c-2.4-0.2-4.7-0.3-7-0.3c0,1.3,0,2.6,0,4c0,1.3,0,2.7,0.1,3.9
		c2.3,0,4.7-0.1,7.1-0.4c-0.1,0.4-0.1,0.8-0.1,1.4c0,0.7,0.1,1,0.1,1.3c-1.1,0-2.6-0.1-5.4-0.1c-5,0-5.9,0.1-6.6,0.1
		c0.2-2.7,0.3-5.1,0.3-8.6V287.3z"/>
	<path style="fill-rule:evenodd;clip-rule:evenodd;fill:#265B9E;" d="M309.1,287.3c0-3.5-0.1-5.9-0.3-8.6c1.8,0,3.7,0.2,5.5,0.2
		c3,0,5.6-0.1,6.5-0.2c0,0.4-0.1,0.7-0.1,1.3c0,0.7,0.1,0.9,0.1,1.4c-2.3-0.2-6.1-0.4-7-0.4c-0.2,2.2-0.2,4.5-0.2,6.8
		c2.7-0.1,4.7-0.1,7.1-0.3c-0.1,0.7-0.2,1-0.2,1.4c0,0.4,0.1,0.6,0.2,1.3c-2.4-0.2-4.7-0.3-7.1-0.3c0,1.3,0,2.6,0,4
		c0,1.3,0,2.7,0.1,3.9c2.3,0,4.7-0.1,7.1-0.4c0,0.4-0.1,0.8-0.1,1.4c0,0.7,0.1,1,0.1,1.3c-1.1,0-2.6-0.1-5.4-0.1
		c-5.1,0-5.9,0.1-6.6,0.1c0.2-2.7,0.3-5.1,0.3-8.6V287.3z"/>
	<path style="fill-rule:evenodd;clip-rule:evenodd;fill:#265B9E;" d="M331.2,278.8c0.5,0.1,0.9,0.2,1.4,0.2c0.5,0,0.9-0.1,1.4-0.2
		c4.5,4.9,8.9,9.8,13.5,14.8c0-4.9,0-13.4-0.2-14.8c0.5,0.1,0.9,0.2,1.4,0.2c0.5,0,0.9-0.1,1.4-0.2c-0.5,9-0.5,13.2-0.5,21.4
		c-0.4-0.1-0.8-0.1-1.3-0.1c-0.4,0-0.8,0.1-1.2,0.1c-4.3-5-8.8-10-13.6-15.1c-0.1,2.3-0.1,4.9-0.1,7.2c0,5,0.1,6.7,0.2,7.8
		c-0.5-0.1-1-0.1-1.5-0.1c-0.5,0-1,0.1-1.4,0.1c0.1-0.9,0.6-8.9,0.6-15.2C331.4,282.1,331.3,280.2,331.2,278.8z"/>
	<path style="fill-rule:evenodd;clip-rule:evenodd;fill:#265B9E;" d="M370.6,282.9c-0.7-1.8-1.9-2.7-3.7-2.7c-1.9,0-3.2,1.3-3.2,2.8
		c0,4.6,9.4,3.4,9.4,10.5c0,4.2-3.3,7-8.2,7c-2.3,0-4.1-0.6-5-1.3c0.4-1.4,0.7-2.5,0.9-3.9h0.6c0.3,1.8,1.8,3.4,4.3,3.4
		c2.4,0,3.6-1.4,3.6-3.2c0-4.7-9.2-3.4-9.2-10.5c0-4.3,3.3-6.6,7-6.6c2.2,0,3.9,0.6,5.1,1.5c-0.4,1-0.6,1.7-1,3.1H370.6z"/>
	<path style="fill-rule:evenodd;clip-rule:evenodd;fill:#265B9E;" d="M260.8,353.1c-0.5,0-1,0-1.3,0c0,2.9,0,5.8,0,8.7
		c2.1,0,4.7-0.6,4.7-4.6C264.1,354.2,262.6,353.1,260.8,353.1z M254.9,360c0-3.5,0-5.9-0.2-8.6c0.7,0.1,1.5,0.2,2.5,0.2
		c1.5,0,3.1-0.2,4.5-0.2c2.9,0,4.4,0.5,5.4,1.3c1.3,1.1,1.9,2.3,1.9,4.2c0,4.7-3.4,6.7-8,6.7h-1.6c0,3.1,0,6.2,0.2,9.3
		c-0.7-0.1-1.5-0.2-2.5-0.2c-1,0-1.9,0.1-2.5,0.2c0.2-2.7,0.2-5.1,0.2-8.6V360z"/>
	<path style="fill-rule:evenodd;clip-rule:evenodd;fill:#265B9E;" d="M285.9,364.6c-0.9-2.5-1.8-5-2.7-7.4c-1.1,2.4-2,4.9-2.9,7.4
		H285.9z M294.1,372.8c-1-0.1-1.9-0.2-2.7-0.2c-0.9,0-1.8,0.1-2.6,0.2c-0.7-2.1-1.4-4.3-2.1-6.4c-1.4,0-2.6-0.1-4-0.1
		c-1.1,0-2.1,0-3.2,0.1c-0.9,2.1-1.5,4.2-2.1,6.4c-0.5-0.1-1-0.2-1.5-0.2c-0.5,0-1,0.1-1.6,0.2c1.5-3.4,6.2-14.5,8.9-21.6
		c0.4,0.1,0.8,0.2,1.2,0.2c0.4,0,0.8-0.1,1.2-0.2C288.1,358.3,291.8,367.7,294.1,372.8z"/>
	<path style="fill-rule:evenodd;clip-rule:evenodd;fill:#265B9E;" d="M308.2,353.1c0,2.8-0.1,5.6-0.1,8.4c0.2,0,0.5,0.1,0.7,0.1
		c2.7,0,4.2-1.5,4.2-4.4C313,353.5,311.6,353.1,308.2,353.1z M308.4,362.9h-0.3v1.3c0,3.5,0.1,5.9,0.2,8.6c-0.7-0.1-1.5-0.2-2.5-0.2
		c-1,0-1.9,0.1-2.6,0.2c0.2-2.7,0.2-5.1,0.2-8.6V360c0-3.5,0-5.9-0.2-8.6c0.7,0.1,1.5,0.2,2.6,0.2c1.1,0,2.4-0.2,4.6-0.2
		c3.1,0,4.3,0.3,5.4,1.1c1.2,0.9,2,2.2,2,4.1c0,3-1.7,4.9-4.8,5.7c2,3.5,4.3,7.1,6.6,10.6c-1-0.1-1.9-0.2-2.8-0.2
		c-0.9,0-1.9,0.1-2.8,0.2L308.4,362.9z"/>
	<path style="fill-rule:evenodd;clip-rule:evenodd;fill:#265B9E;" d="M333,363c0,4.5,0,7.8,0.3,9.7c-0.7-0.1-1.5-0.2-2.6-0.2
		c-1,0-1.8,0.1-2.5,0.2c0.2-2.7,0.3-5.1,0.3-8.6V360c0-3.5-0.1-5.9-0.3-8.6c0.7,0.1,1.5,0.2,2.5,0.2c1,0,1.9-0.1,2.6-0.2
		c-0.3,1.6-0.3,5.9-0.3,9.9c2.8-3.3,6.8-8.3,7.9-9.9c0.6,0.1,1.2,0.2,1.7,0.2c0.6,0,1.1-0.1,1.9-0.2c-1.4,1.4-6.4,6.9-8,8.9
		c2.7,4,6.8,10.3,8.5,12.5c-1.2-0.1-2.1-0.2-3-0.2c-0.9,0-1.8,0.1-2.7,0.2C337.2,369.5,335.1,366.3,333,363L333,363z"/>
	<path style="fill-rule:evenodd;clip-rule:evenodd;fill:#C5C8CC;" d="M141.8,245c0,0-19.7,0-18.7-14.5c0,0-0.4-10.1,10.7-12.5
		c0,0-11.1-2.4-12.5-7.6c0,0-4.5-3.8-12.1-1.1c0,0,35.7-29.1,55.1,19.7c0,0,17.9,75-65.4,73.2c-1.1-1-2.3-2-3.8-3
		c11.2-1,26.2-5.1,35.9-19.3C131.1,280,142.4,264.9,141.8,245z"/>
	<path style="fill-rule:evenodd;clip-rule:evenodd;fill:#C5C8CC;" d="M54.2,352.9l-0.3-0.1C54,352.9,54.1,352.9,54.2,352.9z"/>
	<path style="fill-rule:evenodd;clip-rule:evenodd;fill:#C5C8CC;" d="M103.9,255.1c-0.3,0.2-0.6,0.4-0.9,0.6
		C103,255.7,103.3,255.5,103.9,255.1z"/>
	<path style="fill-rule:evenodd;clip-rule:evenodd;fill:#C5C8CC;" d="M103.9,255.1c-0.3,0.2-0.6,0.4-0.9,0.6
		C103,255.7,103.3,255.5,103.9,255.1z"/>
	<path style="fill:none;stroke:#265B9E;stroke-width:13.2313;stroke-miterlimit:2.613;" d="M103.9,255.1c-0.3,0.2-0.6,0.4-0.9,0.6
		C103,255.7,103.3,255.5,103.9,255.1z"/>
	<path style="fill-rule:evenodd;clip-rule:evenodd;fill:#C5C8CC;" d="M151.8,163.9c-3.5-3-8.7-8-10.3-13.2l-0.5-1.6l1-1.2
		c0.7-0.9,8.2-4.5,15.4-4.8c-1-2.2-1.7-4.8-1.7-8.1c0-0.4,0-0.8,0.1-1.3c-10.9-0.3-24.8-6.1-15.6-37c0,0-20.8,6.3-20.1,23.9
		c0,0-15.3-22.9-40.5-9.7c0,0,9,2.4,9,9.4c0,0,1,6.9,5.2,11.4c0,0-2.8,3.5-8,1.4c0,0-17.7-6.6-21.8-4.2c0,0-1,5.2,3.4,11.1
		c0,0-4.5,6.6-11.4,1.4c0,0-20.1-13.2-37.7,2.8c0,0,13.5-1.4,16.6,9.7c0,0-0.3,2.8,4.2,5.9c0,0-36.4-5.2-36.4,12.8
		c0,0,11.4-10.4,19.7,6.2c0,0,15.6,21.8,39.2,1.7c0,0-11.1,36,26.7,35.3c0,0,20.4-2.8,21.1-24.6c0,0-28.4,13.8-26.3-13.5
		c0,0,4.5-31.5,37.4-15.6c0,0,9.2,11.1,22.5,11.5C144.6,171.2,147.5,167.4,151.8,163.9z"/>
	<path style="fill:none;stroke:#265B9E;stroke-width:13.2313;stroke-miterlimit:2.613;" d="M103.9,255.1c-0.3,0.2-0.6,0.4-0.9,0.6
		C103,255.7,103.3,255.5,103.9,255.1z"/>
	<path style="fill-rule:evenodd;clip-rule:evenodd;fill:#C5C8CC;" d="M154.8,396.6c8.9-8.7,17.2-25.2-6.4-49.5
		c0,0,3.1-10.4,20.4-6.9c0,0-2.8-10.7-33.6-11.1c0,0,23.9-4.5,25.3-17.7c0,0-3.8,3.8-16,3.8c0,0-4.8-1-8.7-3.8c0,0-22.2-11.4-34,0.4
		c0,0-2.4-10.4-21.1-16c0,0,31.9,5.6,47.8-17.6c-0.3,0.4-5.3,6.5-29.4,3.8c0,0,24.9,0.3,33.2-29.8c0,0-4.8,3.1-16.6,3.1
		c0,0-8.4-2-12-0.2c-0.5,0.4-0.9,0.6-0.9,0.6c0.2-0.2,0.5-0.4,0.9-0.6c4.1-3,21-17.2-3.3-36.8c0,0,13.5,26.3-21.8,30.8
		c0,0,5.5-7.6,1-9c0,0,7.6,0.7,3.5-13.9c0,0-6.2,18.3-24.9,11.4c0,0-12.1-5.2-12.1-21.1c0,0,1.8-13.9,11.1-20.9
		c-0.2-1.4-0.2-2.7-0.2-4c0-1.5,0.1-2.9,0.2-4.3c-6.1,3.7-12.3,5.3-18.3,4.5c-2.8-0.4-5.3-1.1-7.5-2.1
		c-14.9,11.9-39.5,41.5-6.1,92.6c0,0-19.7,5.9-3.8,29.8c0,0,6.2,7.6,2.8,16.3c0,0,11.8-18.7,20.4-21.5c0,0,16.3,2.1,13.5,17
		c0,0,0.7,6.6-8.3,6.2c0,0-11.1-0.7-11.1-11.4c0,0-3.8,5.5-0.4,10c0,0-3.8-0.7-3.8-3.1c0,0-0.7,7.6,4.5,9c0,0-4.9,14.2,15.6,15.2
		c0,0,12.1,0.7,15.9-6.9c0,0-3.8,6.9,5.2,12.5c0,0,8.3,10.1,3.5,18c0,0,8-2.1,9-14.6c0,0,13.5,5.2,13.5,14.9c0,0,9.4-6.9,5.6-22.9
		c0,0,8.3,12.1,28.4,13.9C135.9,364.9,158.7,369.3,154.8,396.6z"/>
	<path style="fill-rule:evenodd;clip-rule:evenodd;fill:#C5C8CC;" d="M108.4,410.6c-9.3-2.8-11.8,5.2-11.8,5.2
		c-6.9-1.7-19,9.7-19,9.7c-4.8,4.5-17.3,8-17.3,8c11.1,10.4,25.3-3.1,25.3-3.1c-2.4,2.1-4.5,8.3-4.5,8.3c-3.5,9,1.4,22.5,1.4,22.5
		c0.7-8.3,14.9-21.1,14.9-21.1c8.7-4.5,6.6-17,6.6-17c7.6,1.1,7.3-8.7,7.3-8.7c1.2-1.5,5.7-3.9,10.5-6.2c-1.4-0.4-2.8-0.9-4.1-1.6
		C112.9,409.7,108.4,410.6,108.4,410.6z"/>
	<path style="fill-rule:evenodd;clip-rule:evenodd;fill:#C5C8CC;" d="M149,380.9c-0.4,1.8-1.3,3.7-2.7,5.8c0,0-20.1,9.4-16.6-14.2
		c0,0-9,0.7-10.7,11.8c0,0-7.3-0.7-4.2-12.1c0,0-5.9,5.5-5.2,9.3c0,0-2.1-4.5-4.2-2.8c0,0-2.4,4.9,0.4,10.7c0,0,8.3,24.9,39.1,14.6
		c0,0,2.6-1.2,5.8-3.6C153.3,394.1,151.3,386.5,149,380.9z"/>
	<path style="fill-rule:evenodd;clip-rule:evenodd;fill:#265B9E;" d="M86.5,269.5c0,0,30.9,10.9,35.1-10.9
		C121.6,258.5,112.1,275.1,86.5,269.5z"/>
	<path style="fill-rule:evenodd;clip-rule:evenodd;fill:#265B9E;" d="M73,171.4c0,0-22.8,35.2,13.8,40
		C86.8,211.4,62.9,206.9,73,171.4z"/>
	<path style="fill-rule:evenodd;clip-rule:evenodd;fill:#265B9E;" d="M22.3,166c0,0,14.7-1.4,21.1,3.1c0,0,8.2,5.4,18.8-6.5
		c0,0-6.7,12.4-20.5,9.3c0,0-6.2-0.6-8.2-2.5C33.6,169.4,27.7,166.3,22.3,166z"/>
	<path style="fill-rule:evenodd;clip-rule:evenodd;fill:#265B9E;" d="M136.1,223.2c0,0,21.4,0.6,15.2,27c0,0-4.5,22-23.9,36.9
		c0,0,26.7-16.3,29.6-42.5C156.9,244.6,160.9,218.4,136.1,223.2z"/>
	<path style="fill-rule:evenodd;clip-rule:evenodd;fill:#265B9E;" d="M121.8,143.5c0,0-26.2-10.4-43.4,9.8c0,0,24.2-16.9,51.8-3.1
		c0,0,5.8,1.8,12.7,3.6c-0.6-1-1.1-2-1.4-3C133.3,148.1,124.9,145.1,121.8,143.5z"/>
	<path style="fill-rule:evenodd;clip-rule:evenodd;fill:#265B9E;" d="M129.9,109.1c-7.9,23.2,4.9,32.5,17.1,36.2
		c0.8-0.3,1.7-0.6,2.7-0.9C128,135,129.9,109.1,129.9,109.1z"/>
	<path style="fill-rule:evenodd;clip-rule:evenodd;fill:#265B9E;" d="M38.5,223.9c0,0,0,44.6,25.6,45.6
		C64.1,269.5,42.3,258.5,38.5,223.9z"/>
	<path style="fill-rule:evenodd;clip-rule:evenodd;fill:#265B9E;" d="M81.7,309.8c0,0-10,15.2,44.6,40.3c0,0,38.5,18.3,30,40.9
		c0,0,13-32.2-26.7-45.6C129.6,345.4,87.4,332.6,81.7,309.8z"/>
	<path style="fill-rule:evenodd;clip-rule:evenodd;fill:#FFFFFF;" d="M393.6,455.1c18-12.6,23.5-29.9,25.1-38.9H181.3
		c1.6,8.9,7,25.8,24.3,38.3l3.5,2.4l0.1,0.1c0,0,0.1,0.1,0.4,0.2h181.1c0.3-0.2,0.5-0.3,0.5-0.3L393.6,455.1z"/>
	<path style="fill-rule:evenodd;clip-rule:evenodd;fill:#265B9E;" d="M218.5,427.7c0,2.8-0.1,5.6-0.1,8.5c0.3,0,0.5,0,0.7,0
		c2.7,0,4.2-1.5,4.2-4.4C223.3,428.1,221.9,427.7,218.5,427.7z M218.7,437.5h-0.3v1.3c0,3.5,0.1,5.9,0.3,8.6
		c-0.7-0.1-1.5-0.1-2.5-0.1c-1,0-1.9,0.1-2.6,0.1c0.2-2.7,0.3-5.1,0.3-8.6v-4.2c0-3.5-0.1-5.9-0.3-8.6c0.7,0,1.5,0.1,2.6,0.1
		c1.1,0,2.4-0.1,4.6-0.1c3.1,0,4.3,0.3,5.3,1c1.3,0.9,2,2.3,2,4.1c0,3-1.7,4.9-4.8,5.7c2,3.5,4.4,7,6.6,10.5
		c-0.9-0.1-1.9-0.1-2.8-0.1c-0.9,0-1.9,0.1-2.8,0.1L218.7,437.5z"/>
	<path style="fill-rule:evenodd;clip-rule:evenodd;fill:#265B9E;" d="M248.3,439.1c-0.9-2.5-1.8-5-2.8-7.4c-1,2.4-2,4.9-2.9,7.4
		H248.3z M256.5,447.3c-1-0.1-1.9-0.1-2.7-0.1c-0.9,0-1.8,0.1-2.7,0.1c-0.6-2.1-1.4-4.3-2.1-6.4c-1.3,0-2.6-0.1-4-0.1
		c-1.1,0-2.2,0-3.2,0.1c-0.8,2.1-1.5,4.2-2.1,6.4c-0.5-0.1-1-0.1-1.5-0.1c-0.5,0-1,0.1-1.5,0.1c1.5-3.4,6.2-14.5,8.8-21.6
		c0.4,0.1,0.8,0.2,1.2,0.2c0.4,0,0.8-0.1,1.2-0.2C250.5,432.8,254.1,442.3,256.5,447.3z"/>
	<path style="fill-rule:evenodd;clip-rule:evenodd;fill:#265B9E;" d="M266,425.9c0.5,0.1,0.9,0.1,1.4,0.1c0.5,0,1,0,1.4-0.1
		c4.5,4.9,8.9,9.8,13.5,14.8c0-4.9,0-13.4-0.2-14.8c0.5,0.1,0.9,0.1,1.4,0.1c0.5,0,0.9,0,1.4-0.1c-0.5,9-0.5,13.1-0.5,21.4
		c-0.4-0.1-0.8-0.1-1.3-0.1c-0.4,0-0.8,0.1-1.2,0.1c-4.2-5-8.8-10-13.6-15.1c-0.1,2.3-0.1,4.9-0.1,7.2c0,5,0.1,6.7,0.2,7.8
		c-0.5-0.1-1-0.1-1.4-0.1c-0.5,0-1,0.1-1.4,0.1c0.2-0.9,0.6-8.9,0.6-15.2C266.2,429.3,266.1,427.4,266,425.9z"/>
	<path style="fill-rule:evenodd;clip-rule:evenodd;fill:#265B9E;" d="M313.9,430.6c-1.3-1.9-3.3-3.1-6.1-3.1c-3.9,0-7.8,3.2-7.8,9.7
		c0,4.9,2.7,8.7,7.5,8.7c1.1,0,2.9-0.2,3.4-0.6c0.1-0.5,0.1-1.3,0.1-2.2c0-3.4-0.2-4.7-0.2-5.3c0.4,0.1,1,0.2,2.3,0.2
		c1.5,0,2.1-0.1,2.5-0.2c-0.1,0.6-0.2,3.2-0.2,5.2c0,1.3,0,3,0.1,3.4c-2.7,0.8-5.6,1.3-8.3,1.3c-7.1,0-12.3-4-12.3-10.4
		c0-7.9,5.6-11.8,12.8-11.8c3.1,0,5.3,0.7,7.5,1.9c-0.3,1-0.7,2.1-0.9,3.2H313.9z"/>
	<path style="fill-rule:evenodd;clip-rule:evenodd;fill:#265B9E;" d="M326.3,434.5c0-3.5-0.1-5.9-0.2-8.6c1.8,0,3.7,0.1,5.5,0.1
		c3,0,5.7,0,6.5-0.1c0,0.4-0.1,0.7-0.1,1.3c0,0.7,0.1,0.9,0.1,1.4c-2.4-0.2-6.1-0.4-7-0.4c-0.2,2.3-0.2,4.5-0.2,6.8
		c2.7-0.1,4.7-0.1,7-0.3c-0.1,0.7-0.2,1-0.2,1.4c0,0.3,0.1,0.6,0.2,1.3c-2.4-0.2-4.7-0.3-7-0.3c0,1.3,0,2.6,0,4c0,1.3,0,2.6,0.1,3.9
		c2.3,0,4.7-0.1,7.1-0.4c0,0.4-0.1,0.7-0.1,1.4c0,0.6,0.1,1,0.1,1.3c-1.1,0-2.6-0.1-5.4-0.1c-5.1,0-5.9,0.1-6.6,0.1
		c0.2-2.7,0.2-5.1,0.2-8.6V434.5z"/>
	<path style="fill-rule:evenodd;clip-rule:evenodd;fill:#265B9E;" d="M353,427.7c-0.1,2.8-0.1,5.6-0.1,8.5c0.2,0,0.5,0,0.7,0
		c2.7,0,4.2-1.5,4.2-4.4C357.8,428.1,356.4,427.7,353,427.7z M353.2,437.5h-0.3v1.3c0,3.5,0.1,5.9,0.2,8.6c-0.7-0.1-1.5-0.1-2.6-0.1
		c-1,0-1.9,0.1-2.5,0.1c0.2-2.7,0.2-5.1,0.2-8.6v-4.2c0-3.5,0-5.9-0.2-8.6c0.7,0,1.5,0.1,2.5,0.1c1.1,0,2.4-0.1,4.6-0.1
		c3.1,0,4.3,0.3,5.4,1c1.2,0.9,2,2.3,2,4.1c0,3-1.7,4.9-4.8,5.7c2,3.5,4.4,7,6.6,10.5c-0.9-0.1-1.9-0.1-2.8-0.1
		c-0.9,0-1.9,0.1-2.8,0.1L353.2,437.5z"/>
	<path style="fill-rule:evenodd;clip-rule:evenodd;fill:#265B9E;" d="M382.6,430.1c-0.6-1.8-1.9-2.7-3.8-2.7c-1.9,0-3.2,1.3-3.2,2.8
		c0,4.6,9.4,3.5,9.4,10.5c0,4.2-3.3,7-8.2,7c-2.2,0-4.1-0.6-5-1.3c0.4-1.4,0.7-2.5,0.9-3.9h0.6c0.4,1.8,1.8,3.3,4.3,3.3
		c2.4,0,3.6-1.4,3.6-3.2c0-4.7-9.2-3.4-9.2-10.5c0-4.3,3.3-6.6,7-6.6c2.2,0,3.9,0.6,5.1,1.5c-0.4,1-0.6,1.7-1,3.1H382.6z"/>
	<path style="fill-rule:evenodd;clip-rule:evenodd;fill:#265B9E;" d="M25.9,259.5c0,0,18.2,14.2,5.6,31c0,0-9.9,8.3-2.2,18.8
		c0,0,0.6-10.7,5.1-16.4C34.5,293,51.9,273.1,25.9,259.5z"/>
	<path style="fill-rule:evenodd;clip-rule:evenodd;fill:#C5C8CC;" d="M238.5,216.3c-1.9-2.4-1.7-5.4-0.3-8.6
		c-2.2-5.4-3.7-11.2-4.4-17.3c-7.1,5.8-10.4,12.1-10.4,12.1c0.4-5,5.1-10,10.2-14.1c-0.2-1.9-0.3-3.8-0.3-5.8c0-1.9,0.1-3.9,0.3-5.8
		c-1.7,0.7-3.4,1.4-5.3,2.1c0,0-29.4,7.4-33.4,15.5c0,0,2.2-7.7,26-16.1c0,0,7.9-3.1,13.2-6c0.1-0.5,0.2-0.9,0.3-1.4
		c-8.4,2.8-28.5,6.9-50.3-6.9c0,0,23,13,50.9,3.7c0.2-1.1,0.5-2.1,0.8-3.2c-15.1,3.1-37.3,2.3-58.2-18.5c0,0,24.2,22.6,59.3,15
		c0.9-2.8,2.1-5.5,3.3-8.2c-22.1,4.7-38,1.2-49.4-5.2v-0.2c-18.7-10.5-25.1-28.7-25.8-31.1c-13.1,21.2-2,29.8-0.4,30.9
		c-0.1,0-0.2-0.1-0.3-0.1c0,0,0,0,0.1,0c-0.4-0.3-0.8-0.5-1.2-0.6c-7-3-18.9,3-18.9,3c2.1,6.9,12.5,14.2,12.5,14.2
		c-8.7,5.5-12.8,13.8-12.8,13.8c-5,5.6-12.8,8.7-14.3,9.3c10.7-0.2,14.9,1.3,16.3,2.1c0.5,0.3,0.8,0.4,0.8,0.4c1,0.6,2,1.1,3,1.6
		c15.7,7.5,29.7,1.4,29.7,1.4c0,0.1,0.5-0.1,0.4,0c0.2-0.1-0.2,0.1-0.2,0.1c-4.8,6-2,17.9-1.5,19.8c2.6-6.4,16.5-7.1,16.5-7.1
		c0,0,0.4-0.1,0.3,0c0.2,0-0.2,0.1-0.2,0.1c-3.7,3.3-3.6,9.1-3.5,10.4c3.4-4.3,17.5-5,17.5-5c0,0,0.4-0.1,0.3-0.1
		c0.1,0-0.1,0.2-0.1,0.2c-1.9,3.1,0.2,6.3,0.6,6.8c17.2-3.5,20.7-13.1,20.7-13.1l0.2-0.4v0.5c-1.3,7.2,3,11.4,7.9,13.9
		c0.1,0,0.1,0,0.2,0.1c0.2,0.1,0.4,0.2,0.6,0.2c0.1,0.1,0.3,0.1,0.4,0.2c0,0,1.8,0.9,5.6,1.6c0,0-0.1-0.1-0.1-0.1
		C241.9,219.6,239.7,218.1,238.5,216.3z"/>
	<path style="fill-rule:evenodd;clip-rule:evenodd;fill:#265B9E;" d="M177.6,146.2c21,20.8,43.1,21.6,58.2,18.5
		c0.3-1.2,0.7-2.3,1.1-3.5C201.9,168.8,177.6,146.2,177.6,146.2z"/>
	<path style="fill-rule:evenodd;clip-rule:evenodd;fill:#265B9E;" d="M184.1,164.2c21.8,13.9,41.9,9.7,50.3,6.9
		c0.2-1.1,0.4-2.1,0.6-3.2C207.1,177.2,184.1,164.2,184.1,164.2z"/>
	<path style="fill-rule:evenodd;clip-rule:evenodd;fill:#265B9E;" d="M195,194.5c4-8.1,33.4-15.5,33.4-15.5c1.9-0.7,3.6-1.4,5.3-2.1
		c0.1-1.5,0.3-3,0.5-4.5c-5.3,2.9-13.2,6-13.2,6C197.1,186.8,195,194.5,195,194.5z"/>
	<path style="fill-rule:evenodd;clip-rule:evenodd;fill:#265B9E;" d="M238.5,216.3c1.2,1.8,3.3,3.3,6.7,4.5c-2.8-4-5.2-8.4-7-13.1
		C236.8,210.9,236.7,213.9,238.5,216.3z"/>
	<path style="fill-rule:evenodd;clip-rule:evenodd;fill:#265B9E;" d="M238.5,216.3c1.2,1.8,3.3,3.3,6.7,4.5c-2.8-4-5.2-8.4-7-13.1
		C236.8,210.9,236.7,213.9,238.5,216.3z"/>
	<path style="fill:none;stroke:#265B9E;stroke-width:13.2313;stroke-miterlimit:2.613;" d="M238.5,216.3c1.2,1.8,3.3,3.3,6.7,4.5
		c-2.8-4-5.2-8.4-7-13.1C236.8,210.9,236.7,213.9,238.5,216.3z"/>
	<path style="fill-rule:evenodd;clip-rule:evenodd;fill:#265B9E;" d="M245.3,220.8c0,0,0,0.1,0.1,0.1c0.2,0.1,0.4,0.1,0.7,0.1
		C245.8,221,245.5,220.9,245.3,220.8z"/>
	<path style="fill-rule:evenodd;clip-rule:evenodd;fill:#265B9E;" d="M419.5,410.1c0,1.4-1.1,27.6-25.9,45l-2.6,1.7
		c0,0-83.5,55.5-91,60.5c-7.3-4.9-90.9-60.4-90.9-60.4l-0.1-0.1l-3.5-2.4c-23.9-17.3-25-43-25-44.3V229.4h76
		c11.5,10.9,27,17.6,44.1,17.6c17.1,0,32.6-6.7,44.1-17.6h74.8V410.1z M351.4,222c8.4-10.9,13.4-24.5,13.4-39.2
		c0-35.4-28.7-64.2-64.2-64.2c-35.4,0-64.2,28.7-64.2,64.2c0,14.8,5,28.4,13.4,39.2h-76.7v188.2c0,0,0.5,30.2,28.1,50.2
		c1.2,0.9,2.5,1.8,3.9,2.6l94.8,63.1v0l0,0l0,0L395,463c1-0.6,2-1.3,2.9-1.9c28.5-20,29-50.9,29-50.9V222H351.4z"/>
	<path style="fill:none;stroke:#265B9E;stroke-width:0.1985;stroke-miterlimit:2.613;" d="M419.5,410.1c0,1.4-1.1,27.6-25.9,45
		l-2.6,1.7c0,0-83.5,55.5-91,60.5c-7.3-4.9-90.9-60.4-90.9-60.4l-0.1-0.1l-3.5-2.4c-23.9-17.3-25-43-25-44.3V229.4h76
		c11.5,10.9,27,17.6,44.1,17.6c17.1,0,32.6-6.7,44.1-17.6h74.8V410.1z M351.4,222c8.4-10.9,13.4-24.5,13.4-39.2
		c0-35.4-28.7-64.2-64.2-64.2c-35.4,0-64.2,28.7-64.2,64.2c0,14.8,5,28.4,13.4,39.2h-76.7v188.2c0,0,0.5,30.2,28.1,50.2
		c1.2,0.9,2.5,1.8,3.9,2.6l94.8,63.1v0l0,0l0,0L395,463c1-0.6,2-1.3,2.9-1.9c28.5-20,29-50.9,29-50.9V222H351.4z"/>
	<path style="fill-rule:evenodd;clip-rule:evenodd;fill:#FFFFFF;" d="M242.8,182.5c0-32,25.9-57.9,57.9-57.9
		c32,0,57.9,25.9,57.9,57.9c0,32-25.9,57.9-57.9,57.9C268.7,240.4,242.8,214.4,242.8,182.5z"/>
	<path style="fill-rule:evenodd;clip-rule:evenodd;fill:#FFFFFF;" d="M290.9,135.8c4.1,0.9,7.2,2.5,8.6,3.3v18.5
		c-7.6,3-17,12.4-19.7,15.2c-5.7-2-11.3-3.4-15.1-4.3c-2.1-0.6-3.6-1-4-1.1c-1-1.6-1.4-3.7-1.4-6c0-0.5,0-1,0-1.5
		c0.4-4.1,1.6-8.5,2.5-10.7c0.1-0.1,0.2-0.3,0.3-0.4c1.1-1.4,4.2-4.9,8.6-8c0.1,0,0.1-0.1,0.2-0.1c0.2-0.2,0.5-0.3,0.7-0.5
		c0.4-0.3,0.8-0.5,1.1-0.7c2.6-1.6,5.6-3,8.8-3.8c0,0,0.1,0,0.1,0c0.5-0.1,1.1-0.1,1.6-0.2C286.1,135.1,288.7,135.4,290.9,135.8z"/>
	<path style="fill:none;stroke:#265B9E;stroke-width:2.5007;stroke-miterlimit:2.613;" d="M290.9,135.8c4.1,0.9,7.2,2.5,8.6,3.3
		v18.5c-7.6,3-17,12.4-19.7,15.2c-5.7-2-11.3-3.4-15.1-4.3c-2.1-0.6-3.6-1-4-1.1c-1-1.6-1.4-3.7-1.4-6c0-0.5,0-1,0-1.5
		c0.4-4.1,1.6-8.5,2.5-10.7c0.1-0.1,0.2-0.3,0.3-0.4c1.1-1.4,4.2-4.9,8.6-8c0.1,0,0.1-0.1,0.2-0.1c0.2-0.2,0.5-0.3,0.7-0.5
		c0.4-0.3,0.8-0.5,1.1-0.7c2.6-1.6,5.6-3,8.8-3.8c0,0,0.1,0,0.1,0c0.5-0.1,1.1-0.1,1.6-0.2C286.1,135.1,288.7,135.4,290.9,135.8z"/>
	<path style="fill-rule:evenodd;clip-rule:evenodd;fill:#FFFFFF;" d="M322.3,134.6c2.3,1,7.8,3.5,12.7,7.9c3.3,3.2,4.7,5.7,4.7,5.8
		l0.4,0.8l0.4,0.1c0,0,0,0.1,0,0.1l0,0c0.1,0.4,0.2,0.7,0.3,1.1c0.6,2.5,1.4,6.2,1.5,9.6c-0.1,3.4-0.8,5.8-1.2,6.8l-18.1,5.5
		c-2.9-2.7-14.1-12.6-20.3-14.8v-18.3c2.7-1.3,11.6-5.2,18.5-5C321.6,134.3,322,134.5,322.3,134.6z"/>
	<path style="fill:none;stroke:#265B9E;stroke-width:2.5007;stroke-miterlimit:2.613;" d="M322.3,134.6c2.3,1,7.8,3.5,12.7,7.9
		c3.3,3.2,4.7,5.7,4.7,5.8l0.4,0.8l0.4,0.1c0,0,0,0.1,0,0.1l0,0c0.1,0.4,0.2,0.7,0.3,1.1c0.6,2.5,1.4,6.2,1.5,9.6
		c-0.1,3.4-0.8,5.8-1.2,6.8l-18.1,5.5c-2.9-2.7-14.1-12.6-20.3-14.8v-18.3c2.7-1.3,11.6-5.2,18.5-5
		C321.6,134.3,322,134.5,322.3,134.6z"/>
	<path style="fill-rule:evenodd;clip-rule:evenodd;fill:#FFFFFF;" d="M344.8,209.3c-2.5,1.5-5,2.5-7.3,3.3c-4.1,1.2-8.2,1.7-10,1.8
		c-2-3.7-8.5-12.8-10.5-15.7c2.4-4.6,5.8-18.4,7-23.1c4-0.9,14-4.2,18.2-5.6c3.7,1.9,8,10.6,10.1,16.1c0,0,0,0.1,0,0.1
		C352.3,187.4,352.5,195.1,344.8,209.3z"/>
	<path style="fill:none;stroke:#265B9E;stroke-width:2.5007;stroke-miterlimit:2.613;" d="M344.8,209.3c-2.5,1.5-5,2.5-7.3,3.3
		c-4.1,1.2-8.2,1.7-10,1.8c-2-3.7-8.5-12.8-10.5-15.7c2.4-4.6,5.8-18.4,7-23.1c4-0.9,14-4.2,18.2-5.6c3.7,1.9,8,10.6,10.1,16.1
		c0,0,0,0.1,0,0.1C352.3,187.4,352.5,195.1,344.8,209.3z"/>
	<path style="fill-rule:evenodd;clip-rule:evenodd;fill:#3F3D6B;" d="M314.1,197.3c-3.7,0.6-16.4,0.5-24.9,0.3
		c-1.6-2.4-4.8-12.9-7.1-22.3c2.5-2.6,12.2-12.3,19.2-14.9c4,1.1,13.5,8.8,19.6,14.4C318.5,184.3,315.5,194.7,314.1,197.3z"/>
	<path style="fill-rule:evenodd;clip-rule:evenodd;fill:#265B9E;" d="M287.3,199c-2-2.9-6.1-15.4-8.3-24.6
		c2.6-3.2,13.7-14.3,21.4-17.1c4.7,1.3,15.8,10,21.7,15.4l0.5,1.6c-2.3,9.5-6.2,21.5-7.9,24.4C310.7,199.2,295.8,199.2,287.3,199z"
		/>
	<path style="fill-rule:evenodd;clip-rule:evenodd;fill:#FFFFFF;" d="M354.6,183c-1.6-4.1-5.5-12.6-10.1-15.5
		c0.9-2.1,1.2-4.7,1.1-7.4c0-0.2,0-0.4,0-0.6c0-2.2-0.4-4.8-1.1-7.7c-0.1-0.6-0.3-1.2-0.4-1.7c0.5,0.1,0.9,0.2,1.4,0.3
		c2.4,0.8,3.5,1.6,3.6,1.6c0.3,0.4,7.3,7.9,8.7,26.9C356.9,180.2,355.7,181.8,354.6,183z"/>
	<path style="fill:none;stroke:#265B9E;stroke-width:2.5007;stroke-miterlimit:2.613;" d="M354.6,183c-1.6-4.1-5.5-12.6-10.1-15.5
		c0.9-2.1,1.2-4.7,1.1-7.4c0-0.2,0-0.4,0-0.6c0-2.2-0.4-4.8-1.1-7.7c-0.1-0.6-0.3-1.2-0.4-1.7c0.5,0.1,0.9,0.2,1.4,0.3
		c2.4,0.8,3.5,1.6,3.6,1.6c0.3,0.4,7.3,7.9,8.7,26.9C356.9,180.2,355.7,181.8,354.6,183z"/>
	<path style="fill-rule:evenodd;clip-rule:evenodd;fill:#FFFFFF;" d="M345.7,147c-0.9-0.3-1.9-0.5-3-0.7c-1.6-2.3-3.4-4.4-5.3-6.1
		c-2.8-2.7-6.8-5.6-12.5-8c-0.9-0.4-1.6-0.7-2-0.9c-0.2-0.3-0.6-1-1.2-1.9C327.3,131.3,338,136.4,345.7,147z"/>
	<path style="fill-rule:evenodd;clip-rule:evenodd;fill:#FFFFFF;" d="M286.5,128.6c0.5-0.6,1.1-1.1,1.6-1.4c0.2,0,10-3.6,28.8,1.4
		c0.3,0.4,0.8,1.3,1.6,2.5c-3.4,0.2-9.3,1.2-16.5,4.8c-0.3,0.2-0.6,0.3-0.9,0.4c-2.2-1.3-8.5-4.6-17.1-4.3
		C284.8,130.8,285.6,129.6,286.5,128.6z"/>
	<path style="fill:none;stroke:#265B9E;stroke-width:2.5007;stroke-miterlimit:2.613;" d="M286.5,128.6c0.5-0.6,1.1-1.1,1.6-1.4
		c0.2,0,10-3.6,28.8,1.4c0.3,0.4,0.8,1.3,1.6,2.5c-3.4,0.2-9.3,1.2-16.5,4.8c-0.3,0.2-0.6,0.3-0.9,0.4c-2.2-1.3-8.5-4.6-17.1-4.3
		C284.8,130.8,285.6,129.6,286.5,128.6z"/>
	<path style="fill-rule:evenodd;clip-rule:evenodd;fill:#FFFFFF;" d="M242.2,179.6c0-0.2,0.1-16.3,8-25.7c0.5-0.3,1.8-1.1,3.5-2
		c0,0,0,0,0,0c0.4-0.2,0.8-0.4,1.2-0.6c0.1,0,0.2,0,0.2-0.1c0.4-0.1,0.7-0.3,1.1-0.4c0.1,0,0.3-0.1,0.4-0.1c0.3-0.1,0.7-0.2,1-0.3
		c0.1,0,0.2,0,0.2-0.1c-0.6,2-1.4,4.9-1.7,8.1c-0.1,1.1-0.2,2.3-0.2,3.4c0,2.1,0.4,4,1.1,5.6c0.1,0.4,0.3,0.7,0.5,1.1
		c-0.1,0.1-0.3,0.3-0.4,0.5c-2.4,2-4.6,4.9-6.5,7.8c-1.6,2.3-3.2,4.8-4.3,7.3c-0.1-0.1-0.3-0.2-0.4-0.3l-3.7-4
		C242.2,179.7,242.2,179.6,242.2,179.6z"/>
	<path style="fill:none;stroke:#265B9E;stroke-width:2.5007;stroke-miterlimit:2.613;" d="M242.2,179.6c0-0.2,0.1-16.3,8-25.7
		c0.5-0.3,1.8-1.1,3.5-2c0,0,0,0,0,0c0.4-0.2,0.8-0.4,1.2-0.6c0.1,0,0.2,0,0.2-0.1c0.4-0.1,0.7-0.3,1.1-0.4c0.1,0,0.3-0.1,0.4-0.1
		c0.3-0.1,0.7-0.2,1-0.3c0.1,0,0.2,0,0.2-0.1c-0.6,2-1.4,4.9-1.7,8.1c-0.1,1.1-0.2,2.3-0.2,3.4c0,2.1,0.4,4,1.1,5.6
		c0.1,0.4,0.3,0.7,0.5,1.1c-0.1,0.1-0.3,0.3-0.4,0.5c-2.4,2-4.6,4.9-6.5,7.8c-1.6,2.3-3.2,4.8-4.3,7.3c-0.1-0.1-0.3-0.2-0.4-0.3
		l-3.7-4C242.2,179.7,242.2,179.6,242.2,179.6z"/>
	<path style="fill-rule:evenodd;clip-rule:evenodd;fill:#FFFFFF;" d="M288.4,238.1c-3.7-0.8-19.8-5.1-31.3-18.8
		c0-0.1-0.1-0.4-0.1-0.5l0,0c0,0-0.1-0.1-0.1-0.3c-0.3-1.1-0.5-2.6-0.5-4c0-0.2,0-0.4,0-0.7c0.1-0.4,0.2-0.8,0.3-1.2
		c0.2,0.1,0.4,0.3,0.7,0.5c5.9,3.7,14.6,5,17.4,5.4c4.8,10.3,12.1,15.3,15.8,17.3C289.6,236.7,288.9,237.5,288.4,238.1z"/>
	<path style="fill:none;stroke:#265B9E;stroke-width:2.5007;stroke-miterlimit:2.613;" d="M288.4,238.1c-3.7-0.8-19.8-5.1-31.3-18.8
		c0-0.1-0.1-0.4-0.1-0.5l0,0c0,0-0.1-0.1-0.1-0.3c-0.3-1.1-0.5-2.6-0.5-4c0-0.2,0-0.4,0-0.7c0.1-0.4,0.2-0.8,0.3-1.2
		c0.2,0.1,0.4,0.3,0.7,0.5c5.9,3.7,14.6,5,17.4,5.4c4.8,10.3,12.1,15.3,15.8,17.3C289.6,236.7,288.9,237.5,288.4,238.1z"/>
	<path style="fill-rule:evenodd;clip-rule:evenodd;fill:#FFFFFF;" d="M344.5,217.4c-1.2,1.3-12,13.3-22.2,16.9
		c-0.6,0.1-3.8,0.3-5.8-1.5c6.8-5.3,10.1-12.4,11.2-15.1c2.3-0.1,7.5-0.6,13.4-2.9c1.2-0.5,2.5-1,3.6-1.6c0,0.6,0.1,1.2,0.1,1.7
		C344.8,215.9,344.7,216.8,344.5,217.4z"/>
	<path style="fill:none;stroke:#265B9E;stroke-width:2.5007;stroke-miterlimit:2.613;" d="M344.5,217.4c-1.2,1.3-12,13.3-22.2,16.9
		c-0.6,0.1-3.8,0.3-5.8-1.5c6.8-5.3,10.1-12.4,11.2-15.1c2.3-0.1,7.5-0.6,13.4-2.9c1.2-0.5,2.5-1,3.6-1.6c0,0.6,0.1,1.2,0.1,1.7
		C344.8,215.9,344.7,216.8,344.5,217.4z"/>
	<path style="fill-rule:evenodd;clip-rule:evenodd;fill:#C5C8CC;" d="M460.8,245c0,0,19.7,0,18.7-14.5c0,0,0.4-10.1-10.7-12.5
		c0,0,11.1-2.4,12.5-7.6c0,0,4.5-3.8,12.1-1.1c0,0-35.7-29.1-55.1,19.7c0,0-17.9,75,65.4,73.2c1.1-1,2.3-2,3.7-3
		c-11.2-1-26.2-5.1-35.9-19.3C471.5,280,460.3,264.9,460.8,245z"/>
	<path style="fill:none;stroke:#265B9E;stroke-width:13.2313;stroke-miterlimit:2.613;" d="M498.8,255.1c0.3,0.2,0.6,0.4,0.9,0.6
		C499.6,255.7,499.3,255.5,498.8,255.1z"/>
	<path style="fill-rule:evenodd;clip-rule:evenodd;fill:#C5C8CC;" d="M450.8,163.9c3.5-3,8.7-8,10.3-13.2l0.5-1.6l-1-1.2
		c-0.7-0.9-8.2-4.5-15.4-4.8c1-2.2,1.7-4.8,1.7-8.1c0-0.4,0-0.8-0.1-1.3c10.9-0.3,24.8-6.1,15.6-37c0,0,20.8,6.3,20.1,23.9
		c0,0,15.2-22.9,40.5-9.7c0,0-9,2.4-9,9.4c0,0-1,6.9-5.2,11.4c0,0,2.8,3.5,8,1.4c0,0,17.7-6.6,21.8-4.2c0,0,1,5.2-3.4,11.1
		c0,0,4.5,6.6,11.4,1.4c0,0,20.1-13.2,37.7,2.8c0,0-13.5-1.4-16.6,9.7c0,0,0.3,2.8-4.2,5.9c0,0,36.4-5.2,36.4,12.8
		c0,0-11.4-10.4-19.8,6.2c0,0-15.6,21.8-39.1,1.7c0,0,11.1,36-26.7,35.3c0,0-20.4-2.8-21.1-24.6c0,0,28.4,13.8,26.3-13.5
		c0,0-4.5-31.5-37.4-15.6c0,0-9.2,11.1-22.5,11.5C458,171.2,455.1,167.4,450.8,163.9z"/>
	<path style="fill-rule:evenodd;clip-rule:evenodd;fill:#C5C8CC;" d="M498.8,255.1c0.3,0.2,0.6,0.4,0.9,0.6
		C499.6,255.7,499.3,255.5,498.8,255.1z"/>
	<path style="fill-rule:evenodd;clip-rule:evenodd;fill:#C5C8CC;" d="M447.8,396.6c-8.9-8.7-17.2-25.2,6.4-49.5
		c0,0-3.1-10.4-20.4-6.9c0,0,2.8-10.7,33.6-11.1c0,0-23.9-4.5-25.3-17.7c0,0,3.8,3.8,16,3.8c0,0,4.8-1,8.7-3.8
		c0,0,22.2-11.4,33.9,0.4c0,0,2.4-10.4,21.1-16c0,0-31.8,5.6-47.8-17.6c0.3,0.4,5.3,6.5,29.4,3.8c0,0-25,0.3-33.3-29.8
		c0,0,4.8,3.1,16.6,3.1c0,0,8.4-2,12-0.2c0.5,0.4,0.9,0.6,0.9,0.6c-0.2-0.2-0.5-0.4-0.9-0.6c-4.1-3-21-17.2,3.3-36.8
		c0,0-13.5,26.3,21.8,30.8c0,0-5.5-7.6-1-9c0,0-7.6,0.7-3.5-13.9c0,0,6.2,18.3,24.9,11.4c0,0,12.1-5.2,12.1-21.1
		c0,0-1.8-13.9-11.1-20.9c0.1-1.4,0.2-2.7,0.2-4c0-1.5-0.1-2.9-0.2-4.3c6.1,3.7,12.3,5.3,18.3,4.5c2.8-0.4,5.3-1.1,7.5-2.1
		c14.9,11.9,39.5,41.5,6.1,92.6c0,0,19.7,5.9,3.8,29.8c0,0-6.2,7.6-2.8,16.3c0,0-11.8-18.7-20.4-21.5c0,0-16.3,2.1-13.5,17
		c0,0-0.7,6.6,8.3,6.2c0,0,11.1-0.7,11.1-11.4c0,0,3.8,5.5,0.4,10c0,0,3.8-0.7,3.8-3.1c0,0,0.7,7.6-4.5,9c0,0,4.8,14.2-15.6,15.2
		c0,0-12.1,0.7-15.9-6.9c0,0,3.8,6.9-5.2,12.5c0,0-8.3,10.1-3.5,18c0,0-8-2.1-9-14.6c0,0-13.5,5.2-13.5,14.9c0,0-9.3-6.9-5.5-22.9
		c0,0-8.3,12.1-28.4,13.9C466.7,364.9,443.9,369.3,447.8,396.6z"/>
	<path style="fill-rule:evenodd;clip-rule:evenodd;fill:#C5C8CC;" d="M494.3,410.6c9.3-2.8,11.8,5.2,11.8,5.2c6.9-1.7,19,9.7,19,9.7
		c4.9,4.5,17.3,8,17.3,8c-11,10.4-25.3-3.1-25.3-3.1c2.4,2.1,4.5,8.3,4.5,8.3c3.5,9-1.4,22.5-1.4,22.5c-0.7-8.3-14.9-21.1-14.9-21.1
		c-8.7-4.5-6.6-17-6.6-17c-7.6,1.1-7.3-8.7-7.3-8.7c-1.2-1.5-5.7-3.9-10.5-6.2c1.4-0.4,2.8-0.9,4.1-1.6
		C489.7,409.7,494.3,410.6,494.3,410.6z"/>
	<path style="fill-rule:evenodd;clip-rule:evenodd;fill:#C5C8CC;" d="M453.6,380.9c0.4,1.8,1.3,3.7,2.7,5.8c0,0,20.1,9.4,16.6-14.2
		c0,0,9,0.7,10.7,11.8c0,0,7.3-0.7,4.2-12.1c0,0,5.9,5.5,5.2,9.3c0,0,2.1-4.5,4.2-2.8c0,0,2.4,4.9-0.4,10.7c0,0-8.3,24.9-39.1,14.6
		c0,0-2.6-1.2-5.8-3.6C449.3,394.1,451.3,386.5,453.6,380.9z"/>
	<path style="fill-rule:evenodd;clip-rule:evenodd;fill:#265B9E;" d="M516.1,269.5c0,0-30.8,10.9-35.1-10.9
		C481,258.5,490.5,275.1,516.1,269.5z"/>
	<path style="fill-rule:evenodd;clip-rule:evenodd;fill:#265B9E;" d="M529.6,171.4c0,0,22.8,35.2-13.8,40
		C515.8,211.4,539.7,206.9,529.6,171.4z"/>
	<path style="fill-rule:evenodd;clip-rule:evenodd;fill:#265B9E;" d="M580.3,166c0,0-14.7-1.4-21.1,3.1c0,0-8.2,5.4-18.9-6.5
		c0,0,6.7,12.4,20.5,9.3c0,0,6.2-0.6,8.2-2.5C569,169.4,574.9,166.3,580.3,166z"/>
	<path style="fill-rule:evenodd;clip-rule:evenodd;fill:#265B9E;" d="M466.5,223.2c0,0-21.4,0.6-15.2,27c0,0,4.5,22,23.9,36.9
		c0,0-26.7-16.3-29.6-42.5C445.7,244.6,441.7,218.4,466.5,223.2z"/>
	<path style="fill-rule:evenodd;clip-rule:evenodd;fill:#265B9E;" d="M480.8,143.5c0,0,26.2-10.4,43.4,9.8c0,0-24.2-16.9-51.8-3.1
		c0,0-5.8,1.8-12.7,3.6c0.6-1,1-2,1.4-3C469.3,148.1,477.7,145.1,480.8,143.5z"/>
	<path style="fill-rule:evenodd;clip-rule:evenodd;fill:#265B9E;" d="M472.7,109.1c8,23.2-4.8,32.5-17.2,36.2
		c-0.8-0.3-1.7-0.6-2.7-0.9C474.6,135,472.7,109.1,472.7,109.1z"/>
	<path style="fill-rule:evenodd;clip-rule:evenodd;fill:#265B9E;" d="M564.1,223.9c0,0,0,44.6-25.6,45.6
		C538.5,269.5,560.3,258.5,564.1,223.9z"/>
	<path style="fill-rule:evenodd;clip-rule:evenodd;fill:#265B9E;" d="M520.9,309.8c0,0,10,15.2-44.6,40.3c0,0-38.5,18.3-30,40.9
		c0,0-12.9-32.2,26.7-45.6C473,345.4,515.2,332.6,520.9,309.8z"/>
	<path style="fill-rule:evenodd;clip-rule:evenodd;fill:#265B9E;" d="M576.7,259.5c0,0-18.2,14.2-5.6,31c0,0,9.9,8.3,2.1,18.8
		c0,0-0.6-10.7-5.1-16.4C568.1,293,550.7,273.1,576.7,259.5z"/>
	<path style="fill-rule:evenodd;clip-rule:evenodd;fill:#C5C8CC;" d="M364.1,216.3c1.9-2.4,1.7-5.4,0.3-8.6
		c2.2-5.4,3.7-11.2,4.4-17.3c7.1,5.8,10.4,12.1,10.4,12.1c-0.4-5-5.1-10-10.2-14.1c0.2-1.9,0.3-3.8,0.3-5.8c0-1.9-0.1-3.9-0.3-5.8
		c1.6,0.7,3.4,1.4,5.3,2.1c0,0,29.4,7.4,33.4,15.5c0,0-2.2-7.7-26-16.1c0,0-7.9-3.1-13.2-6c-0.1-0.5-0.2-0.9-0.3-1.4
		c8.4,2.8,28.5,6.9,50.3-6.9c0,0-23,13-50.9,3.7c-0.2-1.1-0.5-2.1-0.8-3.2c15.1,3.1,37.3,2.3,58.2-18.5c0,0-24.2,22.6-59.3,15
		c-1-2.8-2.1-5.5-3.4-8.2c22.1,4.7,38,1.2,49.4-5.2v-0.2c18.7-10.5,25.1-28.7,25.8-31.1c13.1,21.2,2,29.8,0.4,30.9
		c0.1,0,0.2-0.1,0.3-0.1c0,0,0,0-0.1,0c0.4-0.3,0.8-0.5,1.2-0.6c7-3,18.9,3,18.9,3c-2.1,6.9-12.5,14.2-12.5,14.2
		c8.7,5.5,12.8,13.8,12.8,13.8c5,5.6,12.8,8.7,14.3,9.3c-10.7-0.2-14.9,1.3-16.3,2.1c-0.6,0.3-0.8,0.4-0.8,0.4c-1,0.6-2,1.1-3,1.6
		c-15.7,7.5-29.7,1.4-29.7,1.4c0,0.1-0.5-0.1-0.4,0c-0.2-0.1,0.2,0.1,0.2,0.1c4.8,6,2,17.9,1.5,19.8c-2.7-6.4-16.5-7.1-16.5-7.1
		c0.1,0-0.4-0.1-0.3,0c-0.2,0,0.2,0.1,0.2,0.1c3.7,3.3,3.6,9.1,3.5,10.4c-3.4-4.3-17.5-5-17.5-5c0,0-0.4-0.1-0.3-0.1
		c-0.1,0,0.1,0.2,0.1,0.2c1.9,3.1-0.2,6.3-0.6,6.8c-17.2-3.5-20.7-13.1-20.7-13.1l-0.2-0.4v0.5c1.3,7.2-3,11.4-7.9,13.9
		c-0.1,0-0.1,0-0.2,0.1c-0.2,0.1-0.3,0.2-0.5,0.2c-0.1,0.1-0.3,0.1-0.5,0.2c0,0-1.8,0.9-5.6,1.6c0,0,0.1-0.1,0.1-0.1
		C360.7,219.6,362.9,218.1,364.1,216.3z"/>
	<path style="fill-rule:evenodd;clip-rule:evenodd;fill:#265B9E;" d="M223.5,202.6c0,0,3.3-6.3,10.4-12.1c-0.1-0.7-0.1-1.3-0.2-2
		C228.5,192.6,223.9,197.6,223.5,202.6z"/>
	<path style="fill-rule:evenodd;clip-rule:evenodd;fill:#265B9E;" d="M425.1,146.2c-21,20.8-43.1,21.6-58.2,18.5
		c-0.3-1.2-0.7-2.3-1.1-3.5C400.8,168.8,425.1,146.2,425.1,146.2z"/>
	<path style="fill-rule:evenodd;clip-rule:evenodd;fill:#265B9E;" d="M418.6,164.2c-21.8,13.9-41.9,9.7-50.3,6.9
		c-0.2-1.1-0.4-2.1-0.6-3.2C395.6,177.2,418.6,164.2,418.6,164.2z"/>
	<path style="fill-rule:evenodd;clip-rule:evenodd;fill:#265B9E;" d="M407.7,194.5c-4-8.1-33.4-15.5-33.4-15.5
		c-1.9-0.7-3.6-1.4-5.3-2.1c-0.1-1.5-0.3-3-0.5-4.5c5.3,2.9,13.2,6,13.2,6C405.6,186.8,407.7,194.5,407.7,194.5z"/>
	<path style="fill-rule:evenodd;clip-rule:evenodd;fill:#265B9E;" d="M379.2,202.6c0,0-3.3-6.3-10.4-12.1c0.1-0.7,0.1-1.3,0.2-2
		C374.2,192.6,378.9,197.6,379.2,202.6z"/>
	<path style="fill:none;stroke:#8B8E95;stroke-width:4.3134;stroke-miterlimit:2.613;" d="M506.1,458.3l0.1,0v0
		C506.1,458.3,506.1,458.3,506.1,458.3z M532.9,433.6 M533.1,434.1c0-0.1-0.1-0.3-0.2-0.4c0,0,0,0,0-0.1 M532.9,433.6l0.2,0.5"/>
	<path style="fill-rule:evenodd;clip-rule:evenodd;fill:#265B9E;" d="M234.8,197.1c-9.3,16.1-22,16.4-22,16.4
		c-0.9-1.8,4.6-16.4,4.9-17.3c-5.9,16.6-19.5,15.4-19.5,15.4c-3.1-2.5,6.5-14.2,6.5-14.2c-4.9,5.6-22.6,7.7-22.6,7.7
		c-6.9-6.3,9.2-22.6,11.7-25.1c-27.1,26.7-49.5,3.1-49.5,3.1c0.6-7.6,7.7-13.1,12.3-15.8c4.7-0.1,10.5,1,17.2,4.3
		c-7.5-4.4-20.6-13.1-21.2-19.7c0,0,10.2-6.5,14.5-3.4c0,0-9.6-9.9-1.5-21.4c0,0,11.2,17.2,25.3,20.5
		c-18.7-10.5-25.1-28.7-25.8-31.1c-13.1,21.2-2,29.8-0.4,30.9c0.1,0,0.1,0.1,0.2,0.1c-0.1,0-0.1-0.1-0.2-0.1c-0.1,0-0.2-0.1-0.2-0.1
		c0,0,0,0,0,0c0.1,0,0.1,0.1,0.2,0.1c0,0-0.1-0.1-0.2-0.1c-0.4-0.3-0.8-0.5-1.2-0.7c-7-3-18.9,3-18.9,3c2.1,6.9,12.5,14.2,12.5,14.2
		c-8.7,5.6-12.8,13.9-12.8,13.9c-5,5.6-12.8,8.7-14.3,9.3c10.7-0.2,14.9,1.4,16.3,2.1c0.5,0.3,0.8,0.5,0.8,0.5c1,0.6,2,1.1,3,1.6
		c15.8,7.5,29.7,1.4,29.7,1.4c-0.1,0.1-0.1,0.1-0.2,0.2c0.2-0.1,0.3-0.1,0.3-0.1c-4.8,6-2,17.9-1.5,19.8c2.6-6.4,16.5-7.1,16.5-7.1
		c0,0-0.1,0.1-0.1,0.1c0.2,0,0.3,0,0.3,0c-3.7,3.3-3.6,9.1-3.5,10.4c3.4-4.3,17.5-5,17.5-5c0,0,0,0.1,0,0.1c0.1,0,0.2,0,0.2,0
		c-1.9,3.1,0.2,6.3,0.6,6.8c17.2-3.5,20.7-13.1,20.7-13.1c0,0.2,0,0.4-0.1,0.7c0.2-0.4,0.3-0.6,0.3-0.6c-1.3,7.2,3,11.4,7.9,13.9
		c0.1,0,0.1,0.1,0.2,0.1c0.2,0.1,0.4,0.2,0.5,0.3c0.2,0,0.3,0.1,0.4,0.2l2.3,0.2C231.7,215.7,234.8,197.1,234.8,197.1z"/>
	<path style="fill-rule:evenodd;clip-rule:evenodd;fill:#265B9E;" d="M360.8,219.4l2.3-0.2c0.1,0,0.3-0.1,0.4-0.2
		c0.2-0.1,0.4-0.2,0.6-0.3c0.1,0,0.1-0.1,0.2-0.1c5-2.5,9.2-6.7,8-13.9c0,0,0.1,0.2,0.3,0.6c0-0.2,0-0.4-0.1-0.7
		c0,0,3.5,9.7,20.7,13.1c0.4-0.6,2.5-3.7,0.6-6.8c0,0,0.1,0,0.2,0c0,0,0-0.1-0.1-0.1c0,0,14.1,0.7,17.5,5c0.1-1.3,0.2-7.1-3.5-10.4
		c0,0,0.1,0,0.3,0c0,0,0-0.1-0.1-0.1c0,0,13.9,0.7,16.5,7.1c0.5-1.9,3.3-13.8-1.5-19.8c0,0,0.1,0,0.4,0.1c-0.1-0.1-0.1-0.1-0.2-0.2
		c0,0,14,6.1,29.7-1.4c1-0.5,2-1,3-1.6c0,0,0.2-0.2,0.8-0.5c1.4-0.7,5.6-2.3,16.3-2.1c-1.5-0.6-9.3-3.6-14.3-9.3
		c0,0-4.2-8.3-12.8-13.9c0,0,10.4-7.3,12.5-14.2c0,0-11.9-6-18.9-3c-0.4,0.2-0.8,0.4-1.2,0.7c-0.1,0-0.1,0.1-0.2,0.1
		c0,0,0.1-0.1,0.2-0.1c0,0,0,0,0.1,0c-0.1,0-0.2,0.1-0.3,0.1c-0.1,0-0.1,0.1-0.2,0.1c0.1,0,0.1-0.1,0.2-0.1
		c1.6-1.1,12.6-9.7-0.4-30.9c-0.7,2.4-7.1,20.6-25.8,31.1c14-3.3,25.3-20.5,25.3-20.5c8.1,11.4-1.5,21.4-1.5,21.4
		c4.3-3.1,14.5,3.4,14.5,3.4c-0.7,6.7-13.8,15.3-21.2,19.7c6.7-3.3,12.5-4.3,17.2-4.3c4.6,2.8,11.8,8.2,12.4,15.8
		c0,0-22.4,23.6-49.5-3.1c2.5,2.5,18.6,18.8,11.7,25.1c0,0-17.6-2.2-22.6-7.7c0,0,9.6,11.8,6.5,14.2c0,0-13.6,1.2-19.5-15.4
		c0.4,0.9,5.8,15.5,4.9,17.3c0,0-12.7-0.3-22-16.4C368.3,197.1,371.3,215.7,360.8,219.4z"/>
	<path style="fill-rule:evenodd;clip-rule:evenodd;fill:#265B9E;" d="M103.7,342.9c0,0,4.2,15.2-0.5,21.8c0,0-5.2-7.6-14.2-12.3
		c0,0-4.8-7.6,0-15.7c0,0-8.1,9.5-4.3,18.5c0,0,1.9,6.6-1.4,10c0,0-2.4-14.7-9-17.6c0,0-7.6-20.4,5.7-17.1c0,0-12.4-5.7-13.3,9.5
		c0,0-17.6,16.6-25.2-5.2c0,0,20.4,10.9,24.2-11.4c0,0-9.4,20.9-27.1,4.4c0.1,0.1,0.2,0.3,0.3,0.4c0,0-3.8-0.7-3.8-3.1
		c0,0-0.7,7.6,4.5,9c0,0-4.8,14.2,15.6,15.2c0,0,12.1,0.7,15.9-6.9c0,0-3.8,6.9,5.2,12.5c0,0,8.3,10,3.5,18c0,0,8-2.1,9-14.6
		c0,0,13.5,5.2,13.5,14.9c0,0,9.3-7,5.5-22.9c0,0,2.6,3.8,8.4,7.5C111.4,353.3,105.7,347.4,103.7,342.9z"/>
	<path style="fill-rule:evenodd;clip-rule:evenodd;fill:#265B9E;" d="M103.7,342.9c0,0,4.2,15.2-0.5,21.8c0,0-5.2-7.6-14.2-12.3
		c0,0-4.8-7.6,0-15.7c0,0-8.1,9.5-4.3,18.5c0,0,1.9,6.6-1.4,10c0,0-2.4-14.7-9-17.6c0,0-7.6-20.4,5.7-17.1c0,0-12.4-5.7-13.3,9.5
		c0,0-17.6,16.6-25.2-5.2c0,0,20.4,10.9,24.2-11.4c0,0-9.4,20.9-27.1,4.4c0.1,0.1,0.2,0.3,0.3,0.4c0,0-3.8-0.7-3.8-3.1
		c0,0-0.7,7.6,4.5,9c0,0-4.8,14.2,15.6,15.2c0,0,12.1,0.7,15.9-6.9c0,0-3.8,6.9,5.2,12.5c0,0,8.3,10,3.5,18c0,0,8-2.1,9-14.6
		c0,0,13.5,5.2,13.5,14.9c0,0,9.3-7,5.5-22.9c0,0,2.6,3.8,8.4,7.5C111.4,353.3,105.7,347.4,103.7,342.9z"/>
	<path style="fill-rule:evenodd;clip-rule:evenodd;fill:#265B9E;" d="M30.3,281.5c-33.6-41.6-11.2-75.8,6.6-93.4
		c-0.8-0.2-1.5-0.4-2.2-0.7c-14.2,10.2-44.5,40.2-8.9,94.8c0,0-19.7,5.9-3.8,29.8c0,0,6.2,7.6,2.8,16.3c0,0,1.5-2.4,3.9-5.6
		c0-1.5-0.3-2.7-0.3-4.5c0-4.3-2.4-5.7-2.4-5.7c-18-24.2,5.2-29.9,5.2-29.9L30.3,281.5z"/>
	<path style="fill-rule:evenodd;clip-rule:evenodd;fill:#265B9E;" d="M499.4,343.3c0,0-4.3,15.2,0.5,21.8c0,0,5.2-7.6,14.3-12.3
		c0,0,4.7-7.6,0-15.7c0,0,8,9.5,4.3,18.5c0,0-1.9,6.7,1.4,10c0,0,2.3-14.7,9-17.6c0,0,7.6-20.4-5.7-17.1c0,0,12.3-5.7,13.3,9.5
		c0,0,17.6,16.6,25.1-5.2c0,0-20.4,10.9-24.2-11.4c0,0,9.4,20.9,27.1,4.4c-0.1,0.1-0.2,0.2-0.3,0.4c0,0,3.8-0.7,3.8-3.1
		c0,0,0.7,7.6-4.5,9c0,0,4.9,14.2-15.6,15.2c0,0-12.1,0.7-15.9-6.9c0,0,3.8,6.9-5.2,12.5c0,0-8.3,10-3.4,18c0,0-8-2.1-9-14.6
		c0,0-13.5,5.2-13.5,14.9c0,0-9.3-6.9-5.5-22.9c0,0-2.6,3.8-8.4,7.5C491.7,353.7,497.3,347.8,499.4,343.3z"/>
	<path style="fill-rule:evenodd;clip-rule:evenodd;fill:#265B9E;" d="M572.8,281.5c33.6-41.6,11.1-75.8-6.6-93.4
		c0.8-0.2,1.5-0.4,2.2-0.7c14.2,10.2,44.5,40.2,8.9,94.8c0,0,19.7,5.9,3.8,29.8c0,0-6.2,7.6-2.8,16.3c0,0-1.5-2.4-3.9-5.6
		c0-1.5,0.3-2.7,0.3-4.5c0-4.3,2.4-5.7,2.4-5.7c18-24.2-5.2-29.9-5.2-29.9L572.8,281.5z"/>
	<path style="fill-rule:evenodd;clip-rule:evenodd;fill:#FFFFFF;" d="M314.3,200.5c1,1.5,9.7,14.5,10.5,15.7c-0.3,0.8-1,2.4-2.1,4.3
		c-3.7,5.9-9.6,10.2-9.6,10.3l-1,0.7c-2.9,0.8-10.3,2.6-18.3,1.9c-0.1,0-0.2-0.1-0.4-0.2c-0.8-0.4-2.5-1.2-4.7-2.8
		c-5.5-4.4-9.5-11.2-10.9-13.6l11.3-15.9c0.1-0.1,0.1-0.2,0.2-0.3C293.2,200.9,308.9,201.2,314.3,200.5z"/>
	<path style="fill:none;stroke:#265B9E;stroke-width:2.5007;stroke-miterlimit:2.613;" d="M314.3,200.5c1,1.5,9.7,14.5,10.5,15.7
		c-0.3,0.8-1,2.4-2.1,4.3c-3.7,5.9-9.6,10.2-9.6,10.3l-1,0.7c-2.9,0.8-10.3,2.6-18.3,1.9c-0.1,0-0.2-0.1-0.4-0.2
		c-0.8-0.4-2.5-1.2-4.7-2.8c-5.5-4.4-9.5-11.2-10.9-13.6l11.3-15.9c0.1-0.1,0.1-0.2,0.2-0.3C293.2,200.9,308.9,201.2,314.3,200.5z"
		/>
	<path style="fill-rule:evenodd;clip-rule:evenodd;fill:#FFFFFF;" d="M249.1,188l0.1-0.8l-0.4-0.4c0.5-1,2.2-4.6,4.6-8.2
		c2.1-2.9,4.4-5.5,5.8-7c0.3-0.3,0.6-0.5,0.8-0.7c0.8,0.1,2.2,0.4,4,0.8l14.8,4.3c1.3,5.4,4.7,18.6,7.5,23.1l-6.2,8.7
		c-2.4,3.3-4.6,6.5-5.1,7.2c-10.6-1.7-15.4-4.4-17.1-5.6c-0.3-0.2-0.6-0.5-0.8-0.7C256.4,207.8,247.7,196.9,249.1,188z"/>
	<path style="fill:none;stroke:#265B9E;stroke-width:2.5007;stroke-miterlimit:2.613;" d="M249.1,188l0.1-0.8l-0.4-0.4
		c0.5-1,2.2-4.6,4.6-8.2c2.1-2.9,4.4-5.5,5.8-7c0.3-0.3,0.6-0.5,0.8-0.7c0.8,0.1,2.2,0.4,4,0.8l14.8,4.3c1.3,5.4,4.7,18.6,7.5,23.1
		l-6.2,8.7c-2.4,3.3-4.6,6.5-5.1,7.2c-10.6-1.7-15.4-4.4-17.1-5.6c-0.3-0.2-0.6-0.5-0.8-0.7C256.4,207.8,247.7,196.9,249.1,188z"/>
	<path style="fill-rule:evenodd;clip-rule:evenodd;fill:#265B9E;" d="M298.2,3.7l-2.4,2.2l1,3.5c0,0,5.3,1.5,5.5,1.2
		c0.3-0.3,2.1-3.2,1.9-3.6c-0.2-0.4-1.2-2.5-1.2-2.5l-1.5-0.7l-2.2-0.3L298.2,3.7z"/>
	<path style="fill-rule:evenodd;clip-rule:evenodd;fill:#265B9E;" d="M367.2,50.2c0,0-0.5-0.3-2-0.8c-2.6-0.8-4.8,2.7-2.5,4.9
		c2.4,2.2,3.6,3.2,3.5,5c0,1.7-1,2.5-1.2,2.4c-0.2-0.1-1-1.4-2.3-2.2c-1.2-0.7-3.4-0.6-2.3,2c1.1,2.6,2.6,7.2,0.5,10.7
		c-2.1,3.3-3.7,4-6.3,4.5c0,0-3.4-0.4-5.1,0.8c-1.7,1.2-2,2.8-0.8,2.9c1.2,0.1,4,0.2,3.6,1.5c-0.4,1.3-5.7,6.1-7.7,7.2
		c-1.9,1.1-10.4,2.4-11.7-3.3c-0.7-2.9,0.2-4.9,2.6-6.1c0,0,2-0.4,2.9,0c0.9,0.3,2,0,1.8-1.3c-0.3-1.2-0.4-2.6-2-3.8
		c-1.6-1.2-2.2-0.7-2.3-1.2c-0.1-0.5,0.7-5.2,1.5-6.7c2.2-3.8,3.7,0.2,5,0.2c0.4,0,2.9-2.6,1.4-5.7c-1.5-3-3.8-2.4-4.4-2.4
		c0,0,1.8-11.9-4-20.7c-5.8-8.9-21.2-15.5-21.2-15.5s12.7-5.4,24.2-3.9c22.7,3,27.3,19.6,27.3,19.6s0.4,1.1-1.1,0.2
		c-0.6-0.4-3.7-0.8-2.4,1.1c0.3,0.4,4,4.1,4.7,6C367.6,47.7,367.2,50.2,367.2,50.2z M323.4,63.8c0.5,0.7,4.4-1.7,5.8,2.5
		c0.6,2,1,5.1-0.4,4.5c-5.6-2.5-7.1,2.4-7.2,2.7c-0.2,0.4,1.2,0.7,2.1,0.8c1,0.1,4,2.9,2.3,6.1c-1.8,3.2-5.2,4.3-11,4.3
		s-7.6-5.8-7.9-6.7c-0.3-0.9,0.2-1.4,1.2-1.2c1,0.2,3.7,1.9,4.7,2.5c1.1,0.6,1.2-1.7,1.2-3.6c-0.1-2-2-4.4-3.8-5.1
		c-1.8-0.7-4.7,0-4.7,0s0-0.8,0.1-2.1c0.4-8.5,5-10.1,5.9-10.4c1.2-0.4,0.1-1.8-1-2c-1.7-0.2-1.9,0.5-2.3,0.2c-0.4-0.4-0.1-2,1-3.7
		c1.1-1.7,2.2-1.2,2.2-1.2l0.8,0.6c0,0,0.1,1.2,1.4,2.1c5.3,3.6,8.1-2.1,6.5-5.8c-1.5-3.5-7-3.6-10-1c-1.9,1.6-3.5,4.3-3.6,4.8
		c-0.1,0.5-1.8,0.5-2.6-0.4c-0.9-1-0.2-4.3-0.2-5.8c-0.1-1.4,2.1-1.1,3.8-0.8c1.7,0.3,2.7-1.4,2.2-2.2c-0.5-0.8-1.9-0.7-3.9-0.9
		c-2.1-0.3-3.1-2.4-3.1-2.4s0.1,0.6,3.3-2c3.1-2.6,3.4-6.6,3.3-8.2c-0.1-1.7-1.1-2.3-1.1-2.3s10.6,3.5,12.7,9.3c0,0,0.1,3.1,0.5,5
		c1.2,5.6,7.5,10.8,8.2,13.7c1,3.8-1.5-0.1-4.7,2.1C321.8,59.5,323.2,63.5,323.4,63.8z M273.2,80.5c-1.7-3.2,1.3-6,2.3-6.1
		c1-0.1,2.3-0.4,2.1-0.8c-0.2-0.3-1.7-5.2-7.3-2.7c-1.3,0.6-1-2.5-0.4-4.5c1.4-4.3,5.3-1.8,5.9-2.5c0.2-0.3,1.6-4.3-1.6-6.4
		c-3.2-2.1-5.6,1.8-4.7-2.1c0.7-2.9,7.1-8.1,8.2-13.7c0.4-1.8,0.5-5,0.5-5c2.1-5.7,12.7-9.3,12.7-9.3s-1,0.6-1,2.3
		c-0.1,1.6,0.1,5.6,3.3,8.2c3.1,2.6,3.3,2,3.3,2s-1,2.2-3.1,2.4c-2.1,0.2-3.4,0.1-3.9,0.9c-0.5,0.8,0.5,2.5,2.2,2.2
		c1.7-0.3,3.9-0.7,3.8,0.8c-0.1,1.5,0.7,4.8-0.2,5.8c-0.9,1-2.5,0.9-2.6,0.4c-0.1-0.5-1.7-3.1-3.6-4.8c-3-2.7-8.5-2.5-10,1
		c-1.7,3.7,1.2,9.4,6.5,5.8c1.3-0.9,1.4-2.1,1.4-2.1l0.8-0.6c0,0,1.1-0.6,2.2,1.2c1.1,1.7,1.4,3.3,1,3.7c-0.4,0.3-0.6-0.4-2.3-0.2
		c-1.1,0.1-2.3,1.6-1.1,2c0.9,0.3,5.6,1.9,5.9,10.4c0.1,1.4,0.1,2.1,0.1,2.1s-3-0.7-4.7,0c-1.7,0.7-3.7,3.2-3.8,5.1
		c-0.1,2,0.1,4.2,1.2,3.6c1.1-0.6,3.8-2.4,4.7-2.5c1-0.2,1.5,0.2,1.2,1.2c-0.3,0.9-2.1,6.7-7.9,6.7C278.4,84.8,275,83.8,273.2,80.5z
		 M266.3,85.8c-1.4,5.6-9.8,4.4-11.7,3.3c-1.9-1.1-7.3-5.8-7.7-7.2c-0.4-1.4,2.4-1.4,3.6-1.5c1.2-0.1,0.9-1.7-0.8-2.9
		c-1.7-1.2-5.2-0.8-5.2-0.8c-2.5-0.6-4.1-1.2-6.2-4.5c-2.1-3.4-0.6-8,0.5-10.7c1.1-2.6-1.1-2.8-2.3-2c-1.3,0.8-2.1,2.1-2.3,2.2
		c-0.1,0-1.2-0.8-1.2-2.4c0-1.7,1.2-2.8,3.6-5c2.4-2.2,0.1-5.7-2.4-4.9c-1.5,0.5-2,0.8-2,0.8s-0.4-2.5,0.3-4.3
		c0.8-1.9,4.4-5.6,4.7-6c1.4-1.9-1.7-1.5-2.4-1.1c-1.5,0.9-1.1-0.2-1.1-0.2s4.6-16.7,27.3-19.6c11.4-1.5,24.2,3.9,24.2,3.9
		s-15.4,6.6-21.2,15.5c-5.8,8.8-4,20.7-4,20.7c-0.6-0.1-2.9-0.7-4.4,2.4c-1.5,3,1,5.7,1.4,5.7c1.3,0,2.8-4.1,5-0.2
		c0.8,1.4,1.6,6.2,1.5,6.7c-0.1,0.5-0.7,0-2.3,1.2c-1.6,1.2-1.7,2.5-2,3.8c-0.3,1.3,0.9,1.6,1.8,1.3c0.9-0.4,2.9,0,2.9,0
		C266.1,80.9,267,82.9,266.3,85.8z M299.2,2.3c0,0-4.1,1.1-5.4,3.4c0,0-0.6,1.4,0,3.1c0.6,1.7,2.8,3.1,2.8,3.1s1-8.2,1.2-6.7
		c0.3,1.5-0.5,0.4-0.5,0.4s-1.9,3.1-2,5.1c-0.1,2-0.1,8.6-0.1,8.6l-1.5,0.5c0,0-22.6-11.2-40.7-7.1c-27.5,6.2-28.6,31.5-28.6,31.5
		s-5.9-0.2-7.3,5.4c-1,4.1,0.4,2.6,1.1,2c0.7-0.7,2.7-1.2,4,0.3c1.4,1.5,3.4,6,3.4,6s-5-0.9-5.7,4.2c-0.7,4.5,2.3,7.4,2.5,6
		c0.2-1.8,2.1-5.1,4.1-3.2c1.5,1.4,3.4,3.8,3.4,3.8s-1.1,0.4-1.9,1.8c-0.8,1.4-0.7,3,0,2.6c0.7-0.4,1.8-1.1,4,0.5
		c2.2,1.7,5.8,6.5,5.8,6.5s-3.4-0.1-4.4,2.7c-2,5.4,2.2,7.4,2.6,6.5c0.4-1,0.3-3.8,2.6-4.1c1.6-0.2,3.2,0,5.6,2.8
		c2.3,2.7,11.8,13.3,11.8,13.3s-2.2,1.7-1.9,3.2c0.3,1.5,1,2.5,2.2,3c1.3,0.6,2.1,1.3,2.1,2.7c0,1.4-2.1,3-1.9,4.6
		c0.1,1.7,0.1,2.5,0.7,3.3c0.5,0.8,1.6,0.1,1.6,0.1s15.6-7.1,40.9-7.1c25.3,0,40.9,7.1,40.9,7.1s1.1,0.7,1.6-0.1
		c0.6-0.8,0.6-1.7,0.7-3.3c0.2-1.6-1.9-3.3-1.9-4.6c0-1.4,0.8-2.1,2.1-2.7c1.2-0.5,1.9-1.5,2.2-3c0.3-1.5-1.9-3.2-1.9-3.2
		s9.5-10.5,11.8-13.3c2.3-2.8,4-3,5.6-2.8c2.3,0.3,2.2,3.2,2.6,4.1c0.4,1,4.6-1,2.6-6.5c-1.1-2.9-4.4-2.7-4.4-2.7s3.6-4.8,5.8-6.5
		c2.2-1.6,3.3-1,4-0.5c0.7,0.4,0.8-1.2,0-2.6c-0.8-1.4-1.9-1.8-1.9-1.8s1.9-2.4,3.4-3.8c2.1-1.9,3.9,1.4,4.1,3.2
		c0.2,1.4,3.1-1.5,2.5-6c-0.7-5.1-5.7-4.2-5.7-4.2s2-4.5,3.4-6c1.4-1.5,3.4-1,4.1-0.3c0.7,0.7,2.2,2.2,1.1-2
		c-1.4-5.5-7.3-5.4-7.3-5.4s-1.1-25.3-28.6-31.5c-18.1-4.1-40.8,7.1-40.8,7.1l-1.5-0.5c0,0,0-6.5-0.1-8.6c-0.1-2-2-5.1-2-5.1
		s0,0.1,0.2-1.4c0.3-1.5,0.5,7.7,0.5,7.7s2.2-1.4,2.8-3.1c0.6-1.7,0-3.1,0-3.1c-1.3-2.3-5.4-3.4-5.4-3.4H299.2z"/>
	<path style="fill-rule:evenodd;clip-rule:evenodd;fill:#265B9E;" d="M367.2,50.2c0,0-0.5-0.3-2-0.8c-2.6-0.8-4.8,2.7-2.5,4.9
		c2.4,2.2,3.6,3.2,3.5,5c0,1.7-1,2.5-1.2,2.4c-0.2-0.1-1-1.4-2.3-2.2c-1.2-0.7-3.4-0.6-2.3,2c1.1,2.6,2.6,7.2,0.5,10.7
		c-2.1,3.3-3.7,4-6.3,4.5c0,0-3.4-0.4-5.1,0.8c-1.7,1.2-2,2.8-0.8,2.9c1.2,0.1,4,0.2,3.6,1.5c-0.4,1.3-5.7,6.1-7.7,7.2
		c-1.9,1.1-10.4,2.4-11.7-3.3c-0.7-2.9,0.2-4.9,2.6-6.1c0,0,2-0.4,2.9,0c0.9,0.3,2,0,1.8-1.3c-0.3-1.2-0.4-2.6-2-3.8
		c-1.6-1.2-2.2-0.7-2.3-1.2c-0.1-0.5,0.7-5.2,1.5-6.7c2.2-3.8,3.7,0.2,5,0.2c0.4,0,2.9-2.6,1.4-5.7c-1.5-3-3.8-2.4-4.4-2.4
		c0,0,1.8-11.9-4-20.7c-5.8-8.9-21.2-15.5-21.2-15.5s12.7-5.4,24.2-3.9c22.7,3,27.3,19.6,27.3,19.6s0.4,1.1-1.1,0.2
		c-0.6-0.4-3.7-0.8-2.4,1.1c0.3,0.4,4,4.1,4.7,6C367.6,47.7,367.2,50.2,367.2,50.2z M323.4,63.8c0.5,0.7,4.4-1.7,5.8,2.5
		c0.6,2,1,5.1-0.4,4.5c-5.6-2.5-7.1,2.4-7.2,2.7c-0.2,0.4,1.2,0.7,2.1,0.8c1,0.1,4,2.9,2.3,6.1c-1.8,3.2-5.2,4.3-11,4.3
		s-7.6-5.8-7.9-6.7c-0.3-0.9,0.2-1.4,1.2-1.2c1,0.2,3.7,1.9,4.7,2.5c1.1,0.6,1.2-1.7,1.2-3.6c-0.1-2-2-4.4-3.8-5.1
		c-1.8-0.7-4.7,0-4.7,0s0-0.8,0.1-2.1c0.4-8.5,5-10.1,5.9-10.4c1.2-0.4,0.1-1.8-1-2c-1.7-0.2-1.9,0.5-2.3,0.2c-0.4-0.4-0.1-2,1-3.7
		c1.1-1.7,2.2-1.2,2.2-1.2l0.8,0.6c0,0,0.1,1.2,1.4,2.1c5.3,3.6,8.1-2.1,6.5-5.8c-1.5-3.5-7-3.6-10-1c-1.9,1.6-3.5,4.3-3.6,4.8
		c-0.1,0.5-1.8,0.5-2.6-0.4c-0.9-1-0.2-4.3-0.2-5.8c-0.1-1.4,2.1-1.1,3.8-0.8c1.7,0.3,2.7-1.4,2.2-2.2c-0.5-0.8-1.9-0.7-3.9-0.9
		c-2.1-0.3-3.1-2.4-3.1-2.4s0.1,0.6,3.3-2c3.1-2.6,3.4-6.6,3.3-8.2c-0.1-1.7-1.1-2.3-1.1-2.3s10.6,3.5,12.7,9.3c0,0,0.1,3.1,0.5,5
		c1.2,5.6,7.5,10.8,8.2,13.7c1,3.8-1.5-0.1-4.7,2.1C321.8,59.5,323.2,63.5,323.4,63.8z M273.2,80.5c-1.7-3.2,1.3-6,2.3-6.1
		c1-0.1,2.3-0.4,2.1-0.8c-0.2-0.3-1.7-5.2-7.3-2.7c-1.3,0.6-1-2.5-0.4-4.5c1.4-4.3,5.3-1.8,5.9-2.5c0.2-0.3,1.6-4.3-1.6-6.4
		c-3.2-2.1-5.6,1.8-4.7-2.1c0.7-2.9,7.1-8.1,8.2-13.7c0.4-1.8,0.5-5,0.5-5c2.1-5.7,12.7-9.3,12.7-9.3s-1,0.6-1,2.3
		c-0.1,1.6,0.1,5.6,3.3,8.2c3.1,2.6,3.3,2,3.3,2s-1,2.2-3.1,2.4c-2.1,0.2-3.4,0.1-3.9,0.9c-0.5,0.8,0.5,2.5,2.2,2.2
		c1.7-0.3,3.9-0.7,3.8,0.8c-0.1,1.5,0.7,4.8-0.2,5.8c-0.9,1-2.5,0.9-2.6,0.4c-0.1-0.5-1.7-3.1-3.6-4.8c-3-2.7-8.5-2.5-10,1
		c-1.7,3.7,1.2,9.4,6.5,5.8c1.3-0.9,1.4-2.1,1.4-2.1l0.8-0.6c0,0,1.1-0.6,2.2,1.2c1.1,1.7,1.4,3.3,1,3.7c-0.4,0.3-0.6-0.4-2.3-0.2
		c-1.1,0.1-2.3,1.6-1.1,2c0.9,0.3,5.6,1.9,5.9,10.4c0.1,1.4,0.1,2.1,0.1,2.1s-3-0.7-4.7,0c-1.7,0.7-3.7,3.2-3.8,5.1
		c-0.1,2,0.1,4.2,1.2,3.6c1.1-0.6,3.8-2.4,4.7-2.5c1-0.2,1.5,0.2,1.2,1.2c-0.3,0.9-2.1,6.7-7.9,6.7C278.4,84.8,275,83.8,273.2,80.5z
		 M266.3,85.8c-1.4,5.6-9.8,4.4-11.7,3.3c-1.9-1.1-7.3-5.8-7.7-7.2c-0.4-1.4,2.4-1.4,3.6-1.5c1.2-0.1,0.9-1.7-0.8-2.9
		c-1.7-1.2-5.2-0.8-5.2-0.8c-2.5-0.6-4.1-1.2-6.2-4.5c-2.1-3.4-0.6-8,0.5-10.7c1.1-2.6-1.1-2.8-2.3-2c-1.3,0.8-2.1,2.1-2.3,2.2
		c-0.1,0-1.2-0.8-1.2-2.4c0-1.7,1.2-2.8,3.6-5c2.4-2.2,0.1-5.7-2.4-4.9c-1.5,0.5-2,0.8-2,0.8s-0.4-2.5,0.3-4.3
		c0.8-1.9,4.4-5.6,4.7-6c1.4-1.9-1.7-1.5-2.4-1.1c-1.5,0.9-1.1-0.2-1.1-0.2s4.6-16.7,27.3-19.6c11.4-1.5,24.2,3.9,24.2,3.9
		s-15.4,6.6-21.2,15.5c-5.8,8.8-4,20.7-4,20.7c-0.6-0.1-2.9-0.7-4.4,2.4c-1.5,3,1,5.7,1.4,5.7c1.3,0,2.8-4.1,5-0.2
		c0.8,1.4,1.6,6.2,1.5,6.7c-0.1,0.5-0.7,0-2.3,1.2c-1.6,1.2-1.7,2.5-2,3.8c-0.3,1.3,0.9,1.6,1.8,1.3c0.9-0.4,2.9,0,2.9,0
		C266.1,80.9,267,82.9,266.3,85.8z M299.2,2.3c0,0-4.1,1.1-5.4,3.4c0,0-0.6,1.4,0,3.1c0.6,1.7,2.8,3.1,2.8,3.1s1-8.2,1.2-6.7
		c0.3,1.5-0.5,0.4-0.5,0.4s-1.9,3.1-2,5.1c-0.1,2-0.1,8.6-0.1,8.6l-1.5,0.5c0,0-22.6-11.2-40.7-7.1c-27.5,6.2-28.6,31.5-28.6,31.5
		s-5.9-0.2-7.3,5.4c-1,4.1,0.4,2.6,1.1,2c0.7-0.7,2.7-1.2,4,0.3c1.4,1.5,3.4,6,3.4,6s-5-0.9-5.7,4.2c-0.7,4.5,2.3,7.4,2.5,6
		c0.2-1.8,2.1-5.1,4.1-3.2c1.5,1.4,3.4,3.8,3.4,3.8s-1.1,0.4-1.9,1.8c-0.8,1.4-0.7,3,0,2.6c0.7-0.4,1.8-1.1,4,0.5
		c2.2,1.7,5.8,6.5,5.8,6.5s-3.4-0.1-4.4,2.7c-2,5.4,2.2,7.4,2.6,6.5c0.4-1,0.3-3.8,2.6-4.1c1.6-0.2,3.2,0,5.6,2.8
		c2.3,2.7,11.8,13.3,11.8,13.3s-2.2,1.7-1.9,3.2c0.3,1.5,1,2.5,2.2,3c1.3,0.6,2.1,1.3,2.1,2.7c0,1.4-2.1,3-1.9,4.6
		c0.1,1.7,0.1,2.5,0.7,3.3c0.5,0.8,1.6,0.1,1.6,0.1s15.6-7.1,40.9-7.1c25.3,0,40.9,7.1,40.9,7.1s1.1,0.7,1.6-0.1
		c0.6-0.8,0.6-1.7,0.7-3.3c0.2-1.6-1.9-3.3-1.9-4.6c0-1.4,0.8-2.1,2.1-2.7c1.2-0.5,1.9-1.5,2.2-3c0.3-1.5-1.9-3.2-1.9-3.2
		s9.5-10.5,11.8-13.3c2.3-2.8,4-3,5.6-2.8c2.3,0.3,2.2,3.2,2.6,4.1c0.4,1,4.6-1,2.6-6.5c-1.1-2.9-4.4-2.7-4.4-2.7s3.6-4.8,5.8-6.5
		c2.2-1.6,3.3-1,4-0.5c0.7,0.4,0.8-1.2,0-2.6c-0.8-1.4-1.9-1.8-1.9-1.8s1.9-2.4,3.4-3.8c2.1-1.9,3.9,1.4,4.1,3.2
		c0.2,1.4,3.1-1.5,2.5-6c-0.7-5.1-5.7-4.2-5.7-4.2s2-4.5,3.4-6c1.4-1.5,3.4-1,4.1-0.3c0.7,0.7,2.2,2.2,1.1-2
		c-1.4-5.5-7.3-5.4-7.3-5.4s-1.1-25.3-28.6-31.5c-18.1-4.1-40.8,7.1-40.8,7.1l-1.5-0.5c0,0,0-6.5-0.1-8.6c-0.1-2-2-5.1-2-5.1
		s0,0.1,0.2-1.4c0.3-1.5,0.5,7.7,0.5,7.7s2.2-1.4,2.8-3.1c0.6-1.7,0-3.1,0-3.1c-1.3-2.3-5.4-3.4-5.4-3.4H299.2z"/>
	<path style="fill-rule:evenodd;clip-rule:evenodd;fill:#FFFFFF;" d="M446.1,510.4l5.3-4.1l1,1.4l-7.4,5.8c-0.5-0.7-0.8-1.5-0.9-2.4
		c-0.1-0.9-0.1-1.9,0.2-2.9c0.1-0.5,0.3-1.2,0.6-2.1c0.3-0.9,0.4-1.5,0.5-1.9c0.1-0.5,0-1,0-1.5c-0.1-0.4-0.3-0.8-0.6-1.2
		c-0.4-0.5-1-0.8-1.6-0.9c-0.6-0.1-1.2,0.1-1.8,0.5c-0.6,0.5-0.9,1-1,1.7c0,0.7,0.2,1.4,0.7,2l0.1,0.2l-1.8,1.4l-0.1-0.1
		c-0.9-1.1-1.2-2.2-1.1-3.4c0.2-1.1,0.9-2.2,2-3.1c1.1-0.9,2.3-1.3,3.5-1.2c1.2,0.1,2.2,0.6,3,1.6c0.4,0.5,0.7,1.1,0.8,1.8
		c0.1,0.7,0.1,1.3,0,1.8l-0.3,0.9C446.2,507.9,445.9,509.8,446.1,510.4z M432.1,508.1c-0.6,0.4-0.9,1-1,1.6c-0.1,0.6,0,1.2,0.4,1.7
		c0.4,0.5,0.9,0.8,1.5,0.8c0.7,0,1.2-0.2,1.8-0.6c0.6-0.5,1-1,1.1-1.6c0.1-0.6,0-1.2-0.4-1.7c-0.4-0.5-0.9-0.8-1.5-0.8
		C433.3,507.4,432.7,507.6,432.1,508.1z M437.3,510.5c0.7-0.3,1.4-0.3,2.1-0.1c0.7,0.2,1.3,0.6,1.8,1.2c0.8,1,1.1,2.1,0.9,3.3
		c-0.2,1.1-0.9,2.2-2.2,3.1c-1.2,1-2.4,1.4-3.5,1.3c-1.2,0-2.1-0.6-3-1.6c-0.5-0.6-0.7-1.3-0.8-2c0-0.7,0.2-1.4,0.6-2.1
		c-0.7,0.3-1.3,0.3-1.9,0.1c-0.6-0.2-1.1-0.5-1.5-1.1c-0.7-0.9-0.9-1.9-0.7-3c0.3-1.1,0.9-2.1,2-2.9c1.1-0.9,2.2-1.3,3.3-1.3
		c1.1,0,2,0.5,2.7,1.4c0.4,0.5,0.6,1.1,0.6,1.7C437.9,509.3,437.7,509.9,437.3,510.5z M435.8,512.7c-0.6,0.5-1,1.1-1.1,1.8
		c-0.1,0.7,0,1.3,0.5,1.9c0.5,0.6,1.1,1,1.8,1c0.7,0.1,1.3-0.2,2-0.7c0.7-0.5,1-1.1,1.2-1.8c0.1-0.7-0.1-1.3-0.6-2
		c-0.5-0.6-1-0.9-1.7-0.9C437.1,512,436.4,512.2,435.8,512.7z M423,515.3c-0.5,0.4-0.9,1-1,1.6c-0.1,0.6,0,1.2,0.4,1.7
		c0.4,0.5,0.9,0.8,1.6,0.8c0.6,0,1.2-0.2,1.8-0.6c0.6-0.5,0.9-1,1-1.6c0.1-0.6,0-1.2-0.4-1.7c-0.4-0.5-0.9-0.8-1.5-0.8
		C424.1,514.6,423.5,514.8,423,515.3z M428.1,517.7c0.7-0.3,1.5-0.3,2.2-0.1c0.7,0.2,1.3,0.6,1.7,1.2c0.8,1,1.1,2.1,0.9,3.3
		c-0.2,1.1-0.9,2.2-2.2,3.1c-1.2,1-2.4,1.4-3.5,1.4c-1.2,0-2.1-0.6-3-1.6c-0.5-0.6-0.7-1.3-0.8-2c0-0.7,0.2-1.4,0.6-2.1
		c-0.7,0.3-1.3,0.3-1.9,0.1c-0.6-0.2-1.1-0.5-1.5-1.1c-0.7-0.9-0.9-1.8-0.7-3c0.2-1.1,0.9-2,2-2.9c1.1-0.9,2.2-1.3,3.3-1.2
		c1.1,0,2,0.5,2.7,1.3c0.4,0.6,0.6,1.1,0.6,1.7C428.7,516.5,428.5,517.1,428.1,517.7z M426.6,519.9c-0.6,0.5-1,1.1-1.1,1.8
		c-0.1,0.7,0,1.3,0.5,1.9c0.5,0.6,1.1,1,1.8,1c0.7,0.1,1.4-0.2,2-0.7c0.7-0.5,1.1-1.1,1.2-1.8c0.1-0.7-0.1-1.4-0.6-2
		c-0.4-0.6-1-0.9-1.7-0.9C427.9,519.2,427.3,519.4,426.6,519.9z M412.4,521.7l1.6-1.2l8.4,10.7l-1.7,1.4l-6.8-8.7l-0.3,2.7l-1.6-0.3
		L412.4,521.7z"/>
	<path style="fill:none;stroke:#FFFFFF;stroke-width:0.2249;stroke-miterlimit:2.613;" d="M446.1,510.4l5.3-4.1l1,1.4l-7.4,5.8
		c-0.5-0.7-0.8-1.5-0.9-2.4c-0.1-0.9-0.1-1.9,0.2-2.9c0.1-0.5,0.3-1.2,0.6-2.1c0.3-0.9,0.4-1.5,0.5-1.9c0.1-0.5,0-1,0-1.5
		c-0.1-0.4-0.3-0.8-0.6-1.2c-0.4-0.5-1-0.8-1.6-0.9c-0.6-0.1-1.2,0.1-1.8,0.5c-0.6,0.5-0.9,1-1,1.7c0,0.7,0.2,1.4,0.7,2l0.1,0.2
		l-1.8,1.4l-0.1-0.1c-0.9-1.1-1.2-2.2-1.1-3.4c0.2-1.1,0.9-2.2,2-3.1c1.1-0.9,2.3-1.3,3.5-1.2c1.2,0.1,2.2,0.6,3,1.6
		c0.4,0.5,0.7,1.1,0.8,1.8c0.1,0.7,0.1,1.3,0,1.8l-0.3,0.9C446.2,507.9,445.9,509.8,446.1,510.4z M432.1,508.1c-0.6,0.4-0.9,1-1,1.6
		c-0.1,0.6,0,1.2,0.4,1.7c0.4,0.5,0.9,0.8,1.5,0.8c0.7,0,1.2-0.2,1.8-0.6c0.6-0.5,1-1,1.1-1.6c0.1-0.6,0-1.2-0.4-1.7
		c-0.4-0.5-0.9-0.8-1.5-0.8C433.3,507.4,432.7,507.6,432.1,508.1z M437.3,510.5c0.7-0.3,1.4-0.3,2.1-0.1c0.7,0.2,1.3,0.6,1.8,1.2
		c0.8,1,1.1,2.1,0.9,3.3c-0.2,1.1-0.9,2.2-2.2,3.1c-1.2,1-2.4,1.4-3.5,1.3c-1.2,0-2.1-0.6-3-1.6c-0.5-0.6-0.7-1.3-0.8-2
		c0-0.7,0.2-1.4,0.6-2.1c-0.7,0.3-1.3,0.3-1.9,0.1c-0.6-0.2-1.1-0.5-1.5-1.1c-0.7-0.9-0.9-1.9-0.7-3c0.3-1.1,0.9-2.1,2-2.9
		c1.1-0.9,2.2-1.3,3.3-1.3c1.1,0,2,0.5,2.7,1.4c0.4,0.5,0.6,1.1,0.6,1.7C437.9,509.3,437.7,509.9,437.3,510.5z M435.8,512.7
		c-0.6,0.5-1,1.1-1.1,1.8c-0.1,0.7,0,1.3,0.5,1.9c0.5,0.6,1.1,1,1.8,1c0.7,0.1,1.3-0.2,2-0.7c0.7-0.5,1-1.1,1.2-1.8
		c0.1-0.7-0.1-1.3-0.6-2c-0.5-0.6-1-0.9-1.7-0.9C437.1,512,436.4,512.2,435.8,512.7z M423,515.3c-0.5,0.4-0.9,1-1,1.6
		c-0.1,0.6,0,1.2,0.4,1.7c0.4,0.5,0.9,0.8,1.6,0.8c0.6,0,1.2-0.2,1.8-0.6c0.6-0.5,0.9-1,1-1.6c0.1-0.6,0-1.2-0.4-1.7
		c-0.4-0.5-0.9-0.8-1.5-0.8C424.1,514.6,423.5,514.8,423,515.3z M428.1,517.7c0.7-0.3,1.5-0.3,2.2-0.1c0.7,0.2,1.3,0.6,1.7,1.2
		c0.8,1,1.1,2.1,0.9,3.3c-0.2,1.1-0.9,2.2-2.2,3.1c-1.2,1-2.4,1.4-3.5,1.4c-1.2,0-2.1-0.6-3-1.6c-0.5-0.6-0.7-1.3-0.8-2
		c0-0.7,0.2-1.4,0.6-2.1c-0.7,0.3-1.3,0.3-1.9,0.1c-0.6-0.2-1.1-0.5-1.5-1.1c-0.7-0.9-0.9-1.8-0.7-3c0.2-1.1,0.9-2,2-2.9
		c1.1-0.9,2.2-1.3,3.3-1.2c1.1,0,2,0.5,2.7,1.3c0.4,0.6,0.6,1.1,0.6,1.7C428.7,516.5,428.5,517.1,428.1,517.7z M426.6,519.9
		c-0.6,0.5-1,1.1-1.1,1.8c-0.1,0.7,0,1.3,0.5,1.9c0.5,0.6,1.1,1,1.8,1c0.7,0.1,1.4-0.2,2-0.7c0.7-0.5,1.1-1.1,1.2-1.8
		c0.1-0.7-0.1-1.4-0.6-2c-0.4-0.6-1-0.9-1.7-0.9C427.9,519.2,427.3,519.4,426.6,519.9z M412.4,521.7l1.6-1.2l8.4,10.7l-1.7,1.4
		l-6.8-8.7l-0.3,2.7l-1.6-0.3L412.4,521.7z"/>
	<polygon style="fill-rule:evenodd;clip-rule:evenodd;fill:#FFFFFF;" points="154.8,492.1 157,494.3 149,502.5 153.9,507.3 
		152,509.2 144.9,502.2 	"/>
	<path style="fill-rule:evenodd;clip-rule:evenodd;fill:#FFFFFF;" d="M160.1,513.3c2.1,1.8,4.4,0.7,6-1c1.6-1.9,2.4-4.3,0.3-6.2
		c-2.1-1.8-4.4-0.7-6.1,1.1C158.8,509,158,511.5,160.1,513.3z M168.1,504.2c3.3,2.9,3.1,7,0.3,10.2c-2.7,3.1-6.8,3.8-10,1
		c-3.3-2.9-3.1-7-0.4-10.1C160.8,502.1,164.8,501.3,168.1,504.2z"/>
	<polygon style="fill-rule:evenodd;clip-rule:evenodd;fill:#FFFFFF;" points="175.6,510.9 183.5,517 181.9,519.1 176.5,514.9 
		174.5,517.5 179.2,521.1 177.7,523 173.1,519.4 169.5,524 167.1,522.1 	"/>
	<polygon style="fill-rule:evenodd;clip-rule:evenodd;fill:#FFFFFF;" points="187,522.6 183.6,520.3 185,518.1 194.6,524.6 
		193.1,526.8 189.6,524.4 183.1,533.9 180.6,532.1 	"/>
	<path style="fill-rule:evenodd;clip-rule:evenodd;fill:#FFFFFF;" d="M202.7,539.7c-1.9,3.3-4.8,3.7-8.1,1.8
		c-3.2-1.9-4.2-4.6-2.3-7.9l4.5-7.6l2.7,1.6l-4.5,7.6c-0.8,1.3-1.2,2.8,0.9,4.1c1.9,1.1,3,0.7,4.1-1.2l4.5-7.6l2.7,1.6L202.7,539.7z
		"/>
	<path style="fill-rule:evenodd;clip-rule:evenodd;fill:#FFFFFF;" d="M208,543.2c-0.8,1.7,0.1,3,1.6,3.7c1,0.5,2.6,1,3.2-0.3
		c0.7-1.4-1.1-2.5-2.7-4c-1.6-1.4-3.1-3.1-2-5.5c1.3-2.6,4.3-2.6,6.6-1.5c2.6,1.3,4.5,3.7,3,6.6l-2.7-1.3c0.7-1.6-0.2-2.5-1.5-3.2
		c-0.9-0.4-2.1-0.6-2.6,0.5c-0.5,1,0,1.4,2.8,3.8c0.8,0.7,3.3,2.7,1.9,5.5c-1.1,2.3-3.8,3.1-7.3,1.4c-2.8-1.4-4.7-4.1-3.1-7.2
		L208,543.2z"/>
	<path style="fill-rule:evenodd;clip-rule:evenodd;fill:#FFFFFF;" d="M229.8,549.7l3.2,1.2c1.3,0.5,2.2,0.2,2.7-1.2
		c0.5-1.3,0-2.1-1.3-2.6l-3.2-1.2L229.8,549.7z M229.1,542.7l7.1,2.7c2.4,0.9,3.3,3.1,2.5,5.1c-0.6,1.6-1.6,2.5-3.3,2.5l0,0
		c1.3,0.9,1.2,2.4,0.8,3.8c-0.2,0.9-0.9,2.4-0.6,3.3l-2.9-1.1c0-1,0.5-2.2,0.7-3.3c0.3-1.5,0-2.3-1.4-2.8l-2.9-1.1l-1.9,5.2
		l-2.9-1.1L229.1,542.7z"/>
	<path style="fill-rule:evenodd;clip-rule:evenodd;fill:#FFFFFF;" d="M246.2,560.9c2.7,0.8,4.3-1.3,5-3.5c0.6-2.4,0.3-4.9-2.4-5.7
		c-2.7-0.7-4.3,1.3-5,3.6C243.2,557.6,243.5,560.2,246.2,560.9z M249.5,549.2c4.2,1.2,5.8,5,4.6,9.1c-1.1,3.9-4.4,6.4-8.7,5.2
		c-4.2-1.2-5.8-5-4.7-8.9C241.9,550.5,245.3,548,249.5,549.2z"/>
	<path style="fill-rule:evenodd;clip-rule:evenodd;fill:#FFFFFF;" d="M260.8,561.2l3.6,0.7l-0.8-5.4h0L260.8,561.2z M262.7,552.7
		l3.1,0.6l2.5,14.8l-3.1-0.6l-0.5-3.3l-5.2-1l-1.7,2.9l-3.1-0.6L262.7,552.7z"/>
	<path style="fill-rule:evenodd;clip-rule:evenodd;fill:#FFFFFF;" d="M274.8,566.3l2.7,0.3c1.8,0.2,3.6-0.7,4-3.8
		c0.3-2.8-0.5-4.7-3.6-5.1l-2.2-0.2L274.8,566.3z M272.9,554.6l6.1,0.6c3.6,0.4,6.1,3,5.6,7.6c-0.4,4.1-2.8,6.9-7.1,6.4l-6-0.6
		L272.9,554.6z"/>
	<polygon style="fill-rule:evenodd;clip-rule:evenodd;fill:#FFFFFF;" points="309.2,555.8 312.3,555.5 313.3,567 320.1,566.4 
		320.4,569 310.4,569.9 	"/>
	<path style="fill-rule:evenodd;clip-rule:evenodd;fill:#FFFFFF;" d="M329.9,565.3c2.7-0.5,3.4-3,3-5.3c-0.4-2.4-1.8-4.6-4.6-4.2
		c-2.8,0.5-3.4,3-3,5.4C325.8,563.6,327.2,565.7,329.9,565.3z M327.9,553.3c4.3-0.7,7.4,2.1,8.1,6.2c0.6,4-1.4,7.7-5.6,8.3
		c-4.3,0.7-7.4-2.1-8-6.1C321.6,557.6,323.6,554,327.9,553.3z"/>
	<polygon style="fill-rule:evenodd;clip-rule:evenodd;fill:#FFFFFF;" points="337.8,551.8 340.8,551.1 348.7,558.9 348.8,558.9 
		346.5,549.7 349.4,549 352.7,562.7 349.7,563.5 341.8,555.7 341.7,555.7 344,564.9 341.1,565.6 	"/>
	<path style="fill-rule:evenodd;clip-rule:evenodd;fill:#FFFFFF;" d="M359.4,558l2.6-0.8c1.7-0.5,3-2.1,2.1-5.1
		c-0.9-2.7-2.4-4.1-5.3-3.2l-2.1,0.7L359.4,558z M352.9,548l5.8-1.8c3.5-1.1,6.8,0.2,8.2,4.7c1.2,3.9,0.2,7.5-3.9,8.7l-5.8,1.8
		L352.9,548z"/>
	<path style="fill-rule:evenodd;clip-rule:evenodd;fill:#FFFFFF;" d="M378,551.8c2.6-1,2.7-3.6,1.8-5.8c-0.9-2.3-2.8-4.1-5.3-3.1
		c-2.6,1-2.7,3.6-1.8,5.9C373.6,551.1,375.4,552.9,378,551.8z M373.5,540.5c4.1-1.6,7.7,0.5,9.2,4.4c1.5,3.8,0.3,7.7-3.7,9.3
		c-4,1.6-7.6-0.5-9.1-4.2C368.3,546.1,369.5,542.1,373.5,540.5z"/>
	<polygon style="fill-rule:evenodd;clip-rule:evenodd;fill:#FFFFFF;" points="382.9,537 385.7,535.7 395.1,541.7 395.2,541.7 
		391.1,533.2 393.7,531.9 399.8,544.6 397,545.9 387.6,540 387.6,540 391.6,548.5 389,549.7 	"/>
	<path style="fill-rule:evenodd;clip-rule:evenodd;fill:#FFFFFF;" d="M298.4,563.6c-0.1,0.8-0.9,1.4-1.8,1.3
		c-0.8-0.1-1.4-0.9-1.3-1.8c0.1-0.8,0.9-1.4,1.8-1.3C297.9,561.9,298.5,562.7,298.4,563.6z"/>
	<path style="fill-rule:evenodd;clip-rule:evenodd;fill:#FFFFFF;" d="M405.2,534c-0.1,0.8-0.9,1.4-1.8,1.3c-0.8-0.1-1.4-0.9-1.3-1.8
		c0.1-0.8,0.9-1.4,1.8-1.3C404.8,532.4,405.3,533.2,405.2,534z"/>
</g>
</svg>
