<?xml version="1.0" encoding="utf-8"?>
<!-- Generator: Adobe Illustrator 16.0.0, SVG Export Plug-In . SVG Version: 6.00 Build 0)  -->
<!DOCTYPE svg PUBLIC "-//W3C//DTD SVG 1.1//EN" "http://www.w3.org/Graphics/SVG/1.1/DTD/svg11.dtd">
<svg version="1.1" id="Layer_1" xmlns="http://www.w3.org/2000/svg" xmlns:xlink="http://www.w3.org/1999/xlink" x="0px" y="0px"
	 width="600px" height="600px" viewBox="0 0 600 600" style="enable-background:new 0 0 600 600;" xml:space="preserve">
<g id="g3" transform="matrix(0.25,0,0,0.25,0,-1.1962891e-5)">
	<g id="g5">
		<path id="path7" style="fill:#DB2F36;" d="M1195,2399c660.3,0,1195.6-535.2,1195.6-1195.6C2390.6,542.9,1855.3,7.7,1195,7.7
			C534.7,7.7-0.6,542.9-0.6,1203.4C-0.6,1863.8,534.7,2399,1195,2399"/>
		<path id="path9" d="M1195,2364.7c641.5,0,1161.7-519.8,1161.7-1161.3c0-641.5-520.2-1161.6-1161.7-1161.6
			C553.4,41.8,33.4,561.9,33.4,1203.4C33.4,1844.8,553.4,2364.7,1195,2364.7"/>
		<path id="path11" style="fill:#FFFFFF;" d="M1195,2330.9c622.8,0,1127.6-505,1127.6-1127.5c0-622.8-504.8-1127.5-1127.6-1127.5
			C572.3,75.8,67.3,580.6,67.3,1203.4C67.4,1825.9,572.3,2330.9,1195,2330.9"/>
		<path id="path13" d="M1195,2005.2c442.9,0,802-358.9,802-801.8c0-442.9-359.1-802.1-802-802.1c-443,0-801.9,359.2-801.9,802.1
			C393.1,1646.3,752,2005.2,1195,2005.2"/>
		<path id="path15" style="fill:#DD9300;" d="M1195,1976.1c426.8,0,772.8-346,772.8-772.7c0-426.8-346-772.7-772.8-772.7
			c-426.8,0-772.8,346-772.8,772.7C422.2,1630.1,768.2,1976.1,1195,1976.1"/>
		<path id="path17" style="fill:#DD1740;" d="M1009.7,1203.4V1914c59.2,15.1,121.2,23.4,181.8,23.4v-734H1009.7z"/>
		<path id="path19" style="fill:#DD1740;" d="M1009.7,1203.4H824.5v634.9c57.3,33.2,119.5,58.8,185.2,75.8V1203.4L1009.7,1203.4z"/>
		<path id="path21" style="fill:#DD1740;" d="M639.3,1203.4v483c53,60.1,115.6,111.5,185.2,151.9v-634.9H639.3z"/>
		<path id="path23" style="fill:#DD1740;" d="M639.3,1203.4H454.1c0.8,183.1,70.6,353.1,185.2,483V1203.4z"/>
		<path id="path25" style="fill:#DD1740;" d="M1375.6,1203.4l1.3-717.5c-59.3-15.4-121.3-23.4-185.4-23.4v740.9H1375.6
			L1375.6,1203.4z"/>
		<path id="path27" style="fill:#DD1740;" d="M1375.6,1203.4h183.2V561.6c-57.5-33.2-136.9-67.3-181.8-75.8L1375.6,1203.4z"/>
		<path id="path29" style="fill:#DD1740;" d="M1743.9,1203.6V713.2c-53-59.9-115.5-111.2-185.2-151.6v642H1743.9L1743.9,1203.6z"/>
		<path id="path31" style="fill:#DD1740;" d="M1743.9,1203.4H1929c-0.8-190-70.6-360.3-185.1-490.2V1203.4z"/>
		<path id="path33" style="fill:#004494;" d="M1191.8,1382.9h713.9c15.2-59,23.3-121.1,23.3-179.6h-737.2V1382.9z"/>
		<path id="path35" style="fill:#FFFFFF;" d="M1191.8,1382.9l-0.1,185.9h638.2c33.2-57.7,59-120,75.8-185.9H1191.8z"/>
		<path id="path37" style="fill:#FFFFFF;" d="M1191.8,1753.7v184.3c186.2-0.8,356.5-69.7,486.3-184.3H1191.8z"/>
		<path id="path39" style="fill:#004494;" d="M1191.5,1018H477.3c-15.2,59.3-23.3,121.4-23.3,185.4h737.5V1018z"/>
		<path id="path41" style="fill:#FFFFFF;" d="M1191.5,1018V832.9H553.1c-33.1,57.4-59,119.4-75.9,185.1H1191.5L1191.5,1018
			L1191.5,1018z"/>
		<path id="path43" style="fill:#004494;" d="M1191.5,647.6H704.9c-60.1,53-111.4,115.6-151.8,185.4h638.4V647.6z"/>
		<path id="path45" style="fill:#FFFFFF;" d="M1191.5,647.6V462.5c-186.4,0.6-356.8,70.6-486.6,185.1H1191.5z"/>
		<path id="path47" style="fill:#004494;" d="M1191.8,1753.7h486.3c60-53,111.4-115.6,151.8-185.4l-638.2,0.6L1191.8,1753.7z"/>
		<path id="path49" style="fill:#FFFFFF;" d="M1191.5,1494.7c161.1,0,291.7-130.4,291.7-291.3c0-161.2-130.6-291.6-291.7-291.6
			c-161.1,0-291.6,130.4-291.6,291.6C899.9,1364.3,1030.4,1494.7,1191.5,1494.7"/>
		<path id="path51" style="fill:#EAB300;" d="M1402.4,1235.2c-5.7,6.6-63.2,26.4-212.2,26.4"/>
		<path id="path53" d="M1190.2,1251.7v19.6c142.3,0,209.3-17.8,219.7-29.8l-14.4-13.4C1389.5,1232.9,1334,1251.7,1190.2,1251.7"/>
		<path id="path55" style="fill:#EAB300;" d="M978,1235.2c5.6,6.6,63.1,26.4,212.2,26.4"/>
		<path id="path57" d="M970.5,1241.6c10.3,12,77.2,29.8,219.7,29.8v-19.6c-143.9,0-199.3-18.8-205.3-23.5L970.5,1241.6z"/>
		<path id="path59" style="fill:#EAB300;" d="M1402.4,1171.2c-5.7-6.6-63.2-26.4-212.2-26.4"/>
		<path id="path61" d="M1190.2,1154.7c143.8,0,199.3,18.8,205.3,23.5l14.4-13.3c-10.3-12-77.4-29.8-219.7-29.8L1190.2,1154.7
			L1190.2,1154.7z"/>
		<path id="path63" style="fill:#EAB300;" d="M978,1171.2c5.6-6.6,63.1-26.4,212.2-26.4"/>
		<path id="path65" d="M970.5,1164.8l14.4,13.3c6-4.7,61.4-23.5,205.3-23.5V1135C1047.7,1135,980.8,1152.9,970.5,1164.8"/>
		<path id="path67" style="fill:#DD9300;" d="M930.4,1203.4c0,143.3,116.3,259.8,259.8,259.8c143.4,0,259.8-116.4,259.8-259.8"/>
		<path id="path69" d="M1440.1,1203.4c0,137.8-112.1,250-250,250c-137.8,0-250-112.2-250-250h-19.6c0,148.6,121,269.6,269.6,269.6
			c148.7,0,269.6-120.9,269.6-269.6H1440.1z"/>
		<path id="path71" style="fill:#DD9300;" d="M1402.4,1235.2c2.6,2.5,7.7,29.7,5.8,37.1c-1.7,7.7-50,77.4-56.6,78.8
			c-6.6,1.7-64.1-21.1-78.7-21.1c-14.7,0-37.8,18.7-44.4,19.2c-3.3,0.3-22.3,1.4-38.3,1.4c-16.1,0-35-1.1-38.3-1.4
			c-6.6-0.6-29.8-19.2-44.4-19.2c-14.7,0-72.2,22.8-78.7,21.1c-6.7-1.4-54.7-71.1-56.5-78.8c-1.8-7.4,3.3-34.6,5.8-37.1"/>
		<path id="path73" d="M1394.2,1240.4c1.8,3.9,4.6,20.2,4.6,27.2c0,1,0,1.7-0.2,2.3c-3.1,8.3-40.1,61.4-50,70.8
			c-3.8-1.1-27.6-8-27.6-8c-23.5-7.6-39.5-12.6-48.1-12.6c-11.7,0-25.1,7.8-35.9,14c0,0-10,5.4-10,5.4c-0.1-0.1-36.8,1.2-36.8,1.2
			s-37.5-1.3-37.5-1.3h0c0-0.3-9.4-5.3-9.4-5.3c-10.8-6.2-24.2-14-35.8-14c-8.7,0-24.8,5-48.3,12.6c0,0-23.6,6.9-27.4,8
			c-9.9-9.3-46.8-62.5-50.1-71.2c-0.1-0.4-0.1-1-0.1-1.7c0-6.4,2.9-23.4,4.8-27.4l-15.2-12.2c-6.2,6.1-10.6,37.8-8.4,46.4
			c1.2,5.1,49.7,83.1,64.1,86.1c4.9,1.2,11.7-0.6,38.5-9.3c14.3-4.6,36.1-11.6,42.3-11.6c6.4,0,18.2,6.8,26,11.4l17.6,7.9l39.1,1.4
			l39.1-1.4l17.5-7.8c7.8-4.5,19.7-11.4,26.1-11.4c6.1,0,27.7,7,42.1,11.6c26.9,8.7,33.7,10.6,39,9.3c13.6-2.8,62.7-81.2,63.8-86.2
			c2.1-8.4-2.2-40.2-8.5-46.3L1394.2,1240.4z"/>
		<path id="path75" style="fill:#DD9300;" d="M1228.5,1349.2c0,0,15,73,20.7,106.3"/>
		<polygon id="polygon77" points="1218.9,1351.1 1239.5,1457.1 1258.9,1453.8 1238.1,1347.2 		"/>
		<path id="path79" style="fill:#DD9300;" d="M1351.6,1351.1c2.5,9.1-19.8,65.1-18.4,68.7"/>
		<path id="path81" d="M1342,1352.9c0.3,5.2-7.3,27.9-11.3,40.2c-7.3,21.9-8.4,25.7-6.6,30.3l18.9-3.5l6.4-20.7
			c10.5-31.9,13.7-43.6,11.7-50.7L1342,1352.9L1342,1352.9z"/>
		<path id="path83" style="fill:#DD9300;" d="M1028.7,1351.1c-2.5,9.1,19.6,64.5,18.1,68.4"/>
		<path id="path85" d="M1030.5,1398l6.5,21.3l18.9,3.7c1.9-4.8,0.6-9-6.7-31.2c-3.9-11.9-11.1-33.9-10.9-39l-19.1-4.5
			C1017.2,1355.4,1020.3,1367,1030.5,1398"/>
		<path id="path87" style="fill:#DD9300;" d="M1151.9,1349.2c0,0-15.7,73-21.3,106.3"/>
		<polygon id="polygon89" points="1120.9,1453.8 1140.2,1457.1 1161.5,1351.2 1142.2,1347.1 		"/>
		<path id="path91" style="fill:#DD9300;" d="M1190.2,1261.6c149.1,0,206.5-19.8,212.2-26.4"/>
		<path id="path93" d="M1190.2,1251.7v19.6c142.3,0,209.3-17.8,219.7-29.8l-14.4-13.4C1389.5,1232.9,1334,1251.7,1190.2,1251.7"/>
		<path id="path95" style="fill:#DD9300;" d="M930.4,1203.4c0-143.4,116.3-259.8,259.8-259.8c143.4,0,259.8,116.4,259.8,259.8"/>
		<path id="path97" d="M920.6,1203.4h19.6c0-137.8,112.2-250,250-250c137.8,0,250,112.1,250,250h19.6
			c0-148.7-120.9-269.6-269.6-269.6C1041.5,933.7,920.6,1054.7,920.6,1203.4"/>
		<path id="path99" style="fill:#DD9300;" d="M1402.4,1171.2c2.6-2.5,7.7-29.7,5.8-37.1c-1.7-7.7-50-77.2-56.6-78.8
			c-6.6-1.4-64.1,21.2-78.7,21.2c-14.7,0-37.8-18.7-44.4-19.2c-3.3-0.3-22.3-1.1-38.3-1.1c-16.1,0-35,0.8-38.3,1.1
			c-6.6,0.5-29.8,19.2-44.4,19.2c-14.7,0-72.2-22.5-78.7-21.2c-6.7,1.7-54.7,71.1-56.5,78.8c-1.8,7.4,3.3,34.6,5.8,37.1"/>
		<path id="path101" d="M1026.7,1045.7c-14,3.5-62.9,81.2-64.1,86.2c-2.1,8.5,2.3,40.2,8.4,46.3l15.2-12.2
			c-1.8-3.9-4.7-20.4-4.7-27.4c0-0.9,0.1-1.7,0.2-2.2c2.9-7.6,40.2-61.2,50-70.7c4.1,1.2,26.5,7.7,26.5,7.7
			c24.1,7.7,40.5,12.8,49.3,12.8c11.7,0,25.1-7.7,35.8-14c0,0,10.1-5.3,10.1-5.3c0.1,0.1,36.8-1,36.8-1s37.5,1.1,37.5,1.1
			c0,0,0,0,0,0c0,0.3,9.4,5.2,9.4,5.2c10.8,6.2,24.2,14,35.9,14c8.7,0,25.1-5.1,49-12.7c0,0,22.5-6.6,26.6-7.8
			c9.9,9.5,47.1,63.1,50.2,71.1c0.1,0.4,0.1,1.1,0.1,1.8c0,6.5-2.9,23.3-4.7,27.2l15.1,12.3c6.3-6.1,10.6-37.8,8.5-46.5
			c-1-4.7-49.7-82.4-63.7-85.9c-5.4-1.1-12.5,0.8-38,9.1c-14.6,4.7-36.8,11.8-43,11.8c-6.4,0-18.2-6.9-26.1-11.4l-17.5-7.8
			l-39.1-1.1l-39.1,1.1l-17.6,7.8c-7.8,4.5-19.6,11.4-26,11.4c-6.3,0-28.5-7.1-43.2-11.8C1038.7,1046.6,1031.7,1044.7,1026.7,1045.7
			"/>
		<path id="path103" style="fill:#DD9300;" d="M1228.5,1057.3c0,0,15-73.6,20.7-106.8"/>
		<polygon id="polygon105" points="1218.9,1055.3 1238.1,1059.2 1258.9,952.1 1239.5,948.8 		"/>
		<path id="path107" style="fill:#DD9300;" d="M1351.6,1055.3c2.5-9.1-19.6-66.2-18.1-69.5"/>
		<path id="path109" d="M1330.8,1012.8c4,12.4,11.5,35.5,11.2,40.8l19.1,4.5c1.9-7.1-1.2-19-11.6-51.3l-6.3-20.9l-18.7-4
			C1322.5,986.4,1323.3,989.6,1330.8,1012.8"/>
		<path id="path111" style="fill:#DD9300;" d="M1028.7,1055.3c-2.5-9.1,19.6-65.1,18.1-68.6"/>
		<path id="path113" d="M1037,986.7l-6.4,21c-10.3,31.5-13.4,43.2-11.4,50.3l19.1-4.5c-0.3-5.2,7.1-27.6,11-39.7
			c7.3-22.4,8.5-26.3,6.5-31L1037,986.7z"/>
		<path id="path115" style="fill:#DD9300;" d="M1151.9,1057.3c0,0-15.7-73.3-21.3-106.6"/>
		<polygon id="polygon117" points="1120.9,952.3 1142.2,1059.3 1161.5,1055.2 1140.2,949.1 		"/>
		<path id="path119" style="fill:#DD9300;" d="M1190.2,1144.9c149.1,0,206.5,19.8,212.2,26.4"/>
		<path id="path121" d="M1190.2,1154.7c143.8,0,199.3,18.8,205.3,23.5l14.4-13.3c-10.3-12-77.4-29.8-219.7-29.8L1190.2,1154.7
			L1190.2,1154.7z"/>
		<path id="path123" style="fill:#DD9300;" d="M1190.2,1144.9c-149.2,0-206.6,19.8-212.2,26.4c0,0,2.2,14.5,2.2,32.1
			c0,17.3-2.2,31.8-2.2,31.8c5.6,6.6,63.1,26.4,212.2,26.4"/>
		<path id="path125" d="M970.5,1164.8l-2.6,3.1l2.5,35.5c0,0-2.4,34.3-2.4,34.3l2.5,3.9c10.3,12,77.2,29.8,219.7,29.8v-19.6
			c-131.3,0-188.4-15.5-202.1-21.8c0.6-8.6,1.8-26.6,1.8-26.6c0,0-1.2-17.1-1.8-26.8c13.6-6.3,70.8-21.8,202.1-21.8V1135
			C1047.7,1135,980.8,1152.9,970.5,1164.8"/>
		<path id="path127" style="fill:#DD9300;" d="M1402.4,1171.2c0,0-2.3,14.5-2.3,32.1c-0.1,17.3,2.3,31.8,2.3,31.8"/>
		<path id="path129" d="M1390.4,1203.4l2.3,33.4l19.4-3.2l-2.1-30.2c0-0.1,2.1-30.7,2.1-30.7l-19.4-3L1390.4,1203.4z"/>
		<path id="path131" d="M1661.5,715.4c-1.9-6-4.9-12.1-4.9-12.1s4.4-1.7,8.4-1.7c4.3,0,8.5,1.4,8.5,1.4s-1.8,4.9-2.9,10.7
			c-1.2,7.1-1.6,15.6-1.6,15.6s-1.2-0.3-2.1-0.3h-2.1C1664.7,729.1,1663.6,722.3,1661.5,715.4 M1656.6,731c4-1.4,7.2-1.7,7.2-1.7
			s-0.1-4.7-2.8-11.5c-2.3-5.8-7.5-12.7-7.5-12.7s-3.2,1.7-6.4,3.9c-3.5,2.7-6.6,6.3-6.6,6.3s6.1,0.5,9.6,3.8
			C1654.4,723.1,1656.6,731,1656.6,731 M1673.2,730.2c0,0,0.2,0,1,0.3c0.4,0.3,0.9,0.3,0.9,0.3s2.5-4.4,7-8.5
			c4.9-5,10.3-4.4,10.3-4.4s-1.7-2.8-3.5-4.7c-1.4-1.4-4.4-3.3-4.4-3.3s-2.8,2.5-5.2,6.6C1675.9,722,1673.2,730.2,1673.2,730.2
			 M1669.2,743.1c-1.5,0-2.3,0.8-3.4,0.8s-1.9-0.8-3.5-0.5c-2.9,0.3-4.1,1.4-3.8,1.9c0.4,0.8,1.7,1.6,3.6,3.9c2.3,2.5,3.2,4.9,4,4.9
			c0.8,0,1.4-2.8,3.4-4.9c3.1-3.6,3.1-2.7,3.9-4.1C1673.8,744.5,1671.9,743.4,1669.2,743.1 M1673.8,759.9c-0.2-0.5-4.2-1.9-7.7-1.6
			c-4.3,0-6.8,1.1-7.5,1.6c-0.7,0.8,0,4.7,0,4.7s-1.6-1.7-2.6-4.1c-1.1-2.5-1.7-3.6-2.1-3.9c-1.1-0.8-0.8,4.7,0,9.4
			c0.8,4.4,3.7,8.5,3.7,8.5s0.7-3,0.7-5.8c0-1.4,0.6-2.2,0.6-2.2s0.3,1.4,0.8,2.5c0.7,1.4,1.7,3,1.7,3s0.5-0.3,1.8-0.6
			c2.1-0.8,4.4-0.5,6,0.3c1.1,0.3,2-0.8,2-0.8s0.6-0.6,1.1-1.7c0.4-1.1,0.8-2.5,0.8-2.5s0.2,1.1,0.8,2.2c1,2.2,1.2,5.2,1.2,5.2
			s2.3-3,3.1-7.1c1-4.4,1.3-11.8,0.3-10.4c-0.9,1.4-0.5,2.5-1.7,4.9c-1.1,1.9-3.2,3.8-3.2,3.8S1674.1,760.2,1673.8,759.9
			 M1669.6,729.7c0,0,0.5,0,1.2,0.3c0.5,0,1.4,0.3,1.4,0.3s2.2-7.7,5.2-13.7c2-4.1,5.4-8.2,5.4-8.2s-1.9-1.4-3.6-2.5
			c-1.3-0.6-2.2-0.8-2.2-0.8s-3.3,3.3-4.9,9.3C1670.4,720.9,1669.6,729.7,1669.6,729.7 M1699.3,748.3c0,0,7.8,20,6.6,34.3
			c-2,23.9-13.6,36.2-13.6,36.2s2.7-7.7,2.9-11.3c0.6-7.1-1.7-14.5-1.7-14.5s0.8,12.4-2.2,21.7c-3.6,11.5-12.8,17-12.8,17l-4.8,3
			c0,0,2.1-6.1,2.3-9.3c0.5-8-2.5-11-2.5-11s1.3,5.5,0.5,11.8c-0.2,3-1.7,8-1.3,7.1c-2.3,5.8-5.4,9.9-5.4,9.9s-3.1-4.7-4.8-9.1
			c-2.1-6-2.1-14.3-2.1-14.3s-2.4,4.4-1.5,10.7c0.7,4.1,5.1,12.3,5.1,12.3s-14.2-3-25.9-17.9c-12.4-15.4-13.2-36.8-13.2-36.8
			s-1.2,6.9-0.2,14.6c1.2,8.5,6.4,17.3,6.4,17.3s-11.5-4.4-17.5-18.1c-3.9-8.2-5-23-5-23s-0.6,5.5-0.3,10.7c0.4,5.8,1.2,9.3,1.2,9.3
			s-6-0.3-9.2-6c-2.5-4.4-3.4-13.4-3.4-13.4s-0.7,4.4-0.7,5.7c0,1.4,0.4,6.9,0.4,6.9s-4.2-0.9-8.8-3.6c-3.5-2.2-6.8-5.5-6.8-5.5
			s5.2-6.3,13.4-11.3c7.4-4.7,15-5.2,15-5.2l-7.5-1.4c0,0,4.3-11.5,11.1-20.3c4.7-6.3,14-10.4,14-10.4s-2.4,0.3-3.8,0.5
			c-1,0.3-3.2,1.4-3.2,1.4s5.3-19.2,17-20c14.5-0.8,18.3,13.2,18.3,13.2l0.6,1.7c-1.4,0.5-2.7,1.1-4.5,2.2c-3.5,1.9-5.3,4.1-6.3,6.3
			c1.6-0.8,5.1-2.5,8.6-3.3c3.9-0.8,7.6-1.1,7.2-0.3c-0.4,0.8-2.1,1.4-3.9,3c-1.5,1.4-2.2,3.6-3,3.8c-0.9,0-2.7-2.7-6.1-2.7
			c-1.2,0-2.7,0.9-3.6,1.1c-0.4,1.4-0.5,2.5-0.5,2.5s0,3.3,1.7,5.8c2.7,3.8,6.4,5.8,6.4,5.8s0,5.8,0.7,10.4c0.9,5.5,6,11.3,6,11.3
			s3.7-3,8.2-3.3c3.8,0,7.6,3,7.6,3s2.7-2.2,4.7-8.2c2.7-8.5,1.2-13.2,1.2-13.2s4.2-2.2,6.6-5.8c1.7-2.5,1.3-5.8,1.3-5.8l-0.1-1.6
			c0,0,0-0.3-0.3-1.1c-0.8-0.3-1.9-0.9-2.9-0.9c-3.2,0-5.6,2.8-6.1,2.8c-0.6,0-1.4-2.5-2.8-3.8c-1.8-1.7-3.5-2.2-3.9-3
			c-0.4-0.8,3.1-0.5,7.2,0.3c2.8,0.6,5.6,1.7,7.5,2.8c-0.6-1.1-1.6-2.2-2.9-3.3c-3.1-2.5-7.5-4.7-7.5-4.7s9.2-17.3,21.9-9.3
			c15.2,9,9.9,47.8,9.9,47.8s-1.1-8.5-3.3-14C1702.6,750.3,1699.3,748.3,1699.3,748.3 M1666.3,779.4c-10.7,0.5-10.3,19.2-10.3,19.2
			s0.9-4.7,2.7-8.2c1.9-3.3,4.7-5.5,4.7-5.5s0.5-0.3,0.9,0c0.4,0.3,0.4,0.5,0.4,0.5s-2.5,2.5-3.5,5.5c-1.3,3.8-1.3,8.8-1.3,8.8
			s3.2,0.8,6.6,0.8c3.9,0,7.3-1.1,7.3-1.1s0-4.4-1.3-8c-1.1-3.3-3.3-5.5-3.3-5.5s-0.2-0.3,0-0.9c0.1-0.3,0.6-0.3,0.6-0.3
			s2.7,1.6,4.1,4.1c2.4,3.6,3.6,9.1,3.6,9.1S1678.2,779.1,1666.3,779.4 M1456.7,851.3c-7.9-16.7-7.1-32.9-7.1-32.9
			s-12.5,15.9-15.5,34.9c-2.6,18.1-5.2,21.1-5.2,21.1s3.6-0.3,6.7-0.9c3.2-0.8,5.8-2.5,5.8-2.5s-1.6,1.6-4.6,3.5
			c-3.7,2.2-8.4,4.2-8.8,4.4c-0.4,0.3-4.8,9.1-7.4,11c-4,3.3-8.3,5.8-9.9,7.7c-1.6,2.2-1.6,2.7-4.4,12.1c-2.6,8.2-4.1,12.4-4.1,12.4
			s2.4,1.1,2.9,3.3c0.6,2.2-0.8,4.9-0.8,4.9s10.3,2.2,18.8,1.9c6.6-0.3,13.2-1.6,13.2-1.6s-1.2-6.6-6.3-8.2
			c-6.9-2-14.2-0.3-14.2-0.3s2.7-5,9.2-13.7c5.1-6.9,11.3-9.6,12.8-10.2c1.9-0.8,12.4-4.9,19.8-9.3c9-5.2,16.9-12.9,16.9-12.9
			S1463.8,865.9,1456.7,851.3 M1601.2,886.7c0,0-3.8-5.8-5.2-11.5c-1.7-7.1-1.7-14.5-1.7-14.5s-2.8,3.8-7.1,6.3
			c-4.8,3-11.5,4.4-11.5,4.4s1.9,10.2-1.4,23.6c-3.7,14-11.8,23.3-11.8,23.3s4.1,1.4,4.9,4.7c0.8,3.3-1.3,8.8-1.3,8.8
			s4.6,1.4,16.6,1.4c10.5,0,17.6-2.8,17.6-2.8s-0.5-4.1-4.8-6.6c-4-2.2-11.7-2.5-11.7-2.5s-0.3-11.3,4.2-22
			C1592.2,890.6,1601.2,886.7,1601.2,886.7 M1676.3,847.8c1.6-5.8,1.8-12.7,1.8-12.7s-1.9,3-4.5,6.3c-2.4,3-5.7,6.6-5.7,6.6
			s-3.8-0.5-8.1-1.9c-5.3-1.6-8.3-3.9-8.3-3.9s0.2,5.8,2,13.5c1.8,7.7,5.9,17.6,5.9,17.6s3.9-4.4,7.2-9.6c2.5-4.7,4.2-10.7,4.2-10.7
			s0.2,0,0.3,1.6c0.2,2.5-0.6,5.5-0.6,5.5S1674.6,854.1,1676.3,847.8 M1387,838.4c7.8-10.1,22.8-18.1,22.8-18.1s6.8-3.6,17.5-6
			c9.5-2.2,22.9-3,22.9-3l5.1-11c0,0-19.8,0.3-43.2,11c-20.1,8.8-31.7,26.1-31.7,26.1s-8.2,11.6-7.9,29.1c0,7.4,6.5,23.6,7.8,28
			c-0.2,1.6,2.9,7.1-4.4,12.1c-3.2,1.9-8.6,1.9-9,1.6c-1.6-1.1-3.7-7.4-10.1-13.7c-5.8-5.5-14-7.7-14-7.7s4.4,3.6,6.7,6.6
			c2.3,2.7,3.6,5.8,3.6,5.8s-9-3-17.8-3.3c-11.3,0-19.8,5.7-19.8,5.7s5.8-0.8,12.6,0.6c6.1,1.3,11.4,4.6,11.4,4.6s-2.4,1.4-3.9,3
			c-1.8,1.9-2.6,4.9-2.6,4.9s4.6-2.5,8-2.5c6.2-0.5,8.2,0.6,8.2,0.6s13,6.6,22.9,4.1c16.5-4.1,15.3-15.4,14.8-18.7
			c-0.7-3.3-5.4-12.4-7.3-23.9c-1.7-10.7-0.9-12.6-0.9-12.6S1379.3,848.9,1387,838.4 M1703.8,922.7c-6.1-3.6-17.4-4.7-17.4-4.7
			s-16.4-19.8-27-40.4c-10.3-20.3-10.9-37.6-10.9-37.6s-4-3.3-7.7-6.6c-3.3-3.3-6.1-6.6-6.1-6.6s-9.5-3-16-9.1
			c-8.3-7.7-8.9-15.9-8.9-15.9s-3.1,0.3-5.3-0.6c-3.5-1.9-5.4-4.6-5.4-4.6s-3.4-0.3-7.4-2c-13.8-6-12.1-9.6-20.7-10.7
			c-11.7-1.7-20.8-1.4-28.4,0.3c-10.9,1.9-18.8,4.9-32.1,5.8c-10.5,0.3-12.2-2.8-23.1-3.3c-6-0.3-26-1.9-32.4,25.8
			c-5.8,25.5,10.9,48.1,12.8,50.5c13.1,15.7,15.2,16.8,16.4,26.1c1.5,9.3-7,10.7-7,10.7s4.2,7.4,10.8,13.4c5.1,4.9,12,8.5,15.9,12.6
			c3.6,3.9,4,7.4,4,7.4s10.8,4.4,20,4.1c3.7-0.2,7.3-0.8,10.2-1.3c0-1.7,0-3-0.6-4.7c-0.4-0.5-2.1-4.4-2.1-4.4s4.3,2.8,5,8.2
			c3.6-1.1,5.8-2.2,5.8-2.2s-0.8-5.5-7.4-9.1c-5.4-2.7-14.7-2.7-14.7-2.7s-7.4-4.7-12.4-12.6c-5.1-8.2-9-17-7.8-20
			c2.2-5.2,11.2-13.2,12.8-33.5c1.1-17-6.7-37.9-6.7-37.9s5.4,8,8.2,20.3c2.7,11.5,1.1,21.1,2.2,21.1c1.2,0,8.8,0.6,14.3,3.9
			c5.5,3.6,15.4,5.5,15.4,5.5s5.4,0.8,12.7,0.3c8-0.3,14.8,0.6,24.2-5.2c10.9-6.9,3-20.9,3-20.9s6.9,5.5,6.7,11.8
			c-0.4,5.7,0.1,11.2,1.1,15.9c2.6,11,7.9,17.9,7.9,17.9s-2.4-7.7-2.5-14c-0.3-5.5,2.1-11.8,2.1-11.8s-1.4,6.3,1.1,14
			c2.7,8.5,9.9,14.3,9.9,14.3s-2.9-5.5-3.4-12.6c-0.6-7.7,0-8.2,0-8.2s2.5,8,6.1,13.5c3.6,6.3,9,11.8,9,11.8s-1.7-4.4-2.7-8.3
			c-0.8-3-0.8-4.9-0.8-4.9s15.4,11,25.1,24.7c8.7,12.6,3.4,18.9,3.4,18.9s7-4.1,13.5-1.6c5.6,2.2,4.5,9.3,4.5,9.3s9.6,3.8,19.3,3.5
			c2.9,0,6-0.2,8.8-0.8v-0.3c0.3-2.2,0.7-4.9-0.3-7.1c-0.2-0.5-2-4.6-2-4.6s5.5,3.5,5,10.7c0,0.3-0.1,0.6-0.1,0.6
			c4.3-0.8,7.5-1.9,7.5-1.9S1709.9,926.3,1703.8,922.7"/>
		<path id="path133" d="M703.3,1628.7c7,0,12.5-5.8,12.5-12.6c0-6.8-5.5-12.6-12.5-12.6c-6.9,0-12.6,5.8-12.6,12.6
			C690.7,1622.9,696.3,1628.7,703.3,1628.7"/>
		<path id="path135" d="M761.2,1608.7c6.9,0,12.5-5.5,12.5-12.6c0-6.8-5.6-12.3-12.5-12.3c-6.9,0-12.6,5.5-12.6,12.3
			C748.6,1603.2,754.3,1608.7,761.2,1608.7"/>
		<path id="path137" d="M778.2,1483.2c6,0,10.8-4.9,10.8-11c0-6-4.8-11-10.8-11c-6,0-11,4.9-11,11S772.2,1483.2,778.2,1483.2"/>
		<path id="path139" d="M729.8,1464.5c6,0,11-4.7,11-10.7c0-6.1-4.9-11-11-11c-6,0-10.8,4.9-10.8,11
			C719,1459.8,723.8,1464.5,729.8,1464.5"/>
		<path id="path141" d="M703.3,1461.2c6.1,0,11-5,11-11c0-6-4.9-10.7-11-10.7c-6,0-10.8,4.7-10.8,10.7
			C692.5,1456.3,697.3,1461.2,703.3,1461.2"/>
		<path id="path143" d="M678.2,1469.2c5.9,0,10.8-4.9,10.8-11c0-6-4.9-11-10.8-11c-6.1,0-11.1,4.9-11.1,11
			C667.1,1464.2,672,1469.2,678.2,1469.2"/>
		<path id="path145" d="M656.6,1486.5c6.1,0,10.9-4.9,10.9-11c0-6-4.9-11-10.9-11c-6,0-10.9,4.9-10.9,11
			C645.7,1481.5,650.6,1486.5,656.6,1486.5"/>
		<path id="path147" d="M651.4,1513.6c5.9,0,10.9-4.9,10.9-11c0-6.1-5-10.7-10.9-10.7c-6.1,0-10.8,4.6-10.8,10.7
			C640.6,1508.7,645.3,1513.6,651.4,1513.6"/>
		<path id="path149" d="M752.8,1475.5c6.1,0,11.1-4.6,11.1-11c0-5.8-5-10.7-11.1-10.7c-5.9,0-10.8,4.9-10.8,10.7
			C742.1,1470.8,746.9,1475.5,752.8,1475.5"/>
		<path id="path151" d="M657.7,1541.1c6.1,0,11-5,11-11c0-6-4.9-10.7-11-10.7c-5.9,0-10.8,4.7-10.8,10.7
			C646.9,1536.2,651.8,1541.1,657.7,1541.1"/>
		<path id="path153" d="M668.5,1566.7c6,0,10.9-5,10.9-11c0-6-4.9-11-10.9-11c-6,0-10.9,5-10.9,11
			C657.6,1561.7,662.5,1566.7,668.5,1566.7"/>
		<path id="path155" d="M816.5,1574.6c52,0,99.5,14.6,136.3,36l17.5-36c0,0-30.5,12.4-51.6,4.1c-20.9-8.5-29.3-35.7-29.3-35.7
			s-16.4,21.4-41.5,17.8c-25.3-3.6-31.5-39.3-31.5-39.3s-6.3,35.7-31.6,39.3c-25.2,3.6-41.6-17.8-41.6-17.8s-8.2,27.2-29.3,35.7
			c-21,8.3-51.5-4.1-51.5-4.1l17.6,36C717,1589.2,764.3,1574.6,816.5,1574.6"/>
		<path id="path157" d="M816.5,1623.5c46.9,0,83.9,11.5,113.4,32.7l8.6-15.6c-30.4-20.9-76.2-34.9-122-34.9
			c-45.9-0.3-91.7,14-121.9,34.9l8.4,15.6C732.6,1635,769.7,1623.5,816.5,1623.5"/>
		<path id="path159" d="M929.8,1628.7c-6.9,0-12.5-5.8-12.5-12.6c0-6.8,5.7-12.6,12.5-12.6c7,0,12.5,5.8,12.5,12.6
			C942.2,1622.9,936.7,1628.7,929.8,1628.7"/>
		<path id="path161" d="M871.8,1608.7c-6.9,0-12.5-5.5-12.5-12.6c0-6.8,5.6-12.3,12.5-12.3c7,0,12.7,5.5,12.7,12.3
			C884.4,1603.2,878.8,1608.7,871.8,1608.7"/>
		<path id="path163" d="M816.5,1603.2c6.9,0,12.5-5.8,12.5-12.9c0-6.6-5.6-12.4-12.5-12.4c-6.9,0-12.6,5.8-12.6,12.4
			C803.9,1597.4,809.6,1603.2,816.5,1603.2"/>
		<path id="path165" d="M816.5,1504.9c0,0,5,48.6,32.3,52.4c25.3,3.3,42.4-22.3,42.4-22.3s11.3,39.8,38.2,42.3
			c0,0,42.1-59.9,4.3-85.1c-31.7-21.2-84.5,3.3-117.1,3.3c-32.8,0-85.5-24.4-117.3-3.3c-37.8,25.3,4.5,85.1,4.5,85.1
			c26.8-2.5,38-42.3,38-42.3s17.2,25.5,42.4,22.3C811.5,1553.5,816.5,1504.9,816.5,1504.9"/>
		<path id="path167" d="M854.7,1483.2c-6,0-10.8-4.9-10.8-11c0-6,4.9-11,10.8-11c6,0,10.9,4.9,10.9,11S860.7,1483.2,854.7,1483.2"/>
		<path id="path169" d="M903.2,1464.5c-6,0-10.9-4.7-10.9-10.7c0-6.1,4.9-11,10.9-11c6,0,10.9,4.9,10.9,11
			C914.1,1459.8,909.2,1464.5,903.2,1464.5"/>
		<path id="path171" d="M929.6,1461.2c-6,0-11-5-11-11c0-6,5-10.7,11-10.7c6,0,10.9,4.7,10.9,10.7
			C940.5,1456.3,935.6,1461.2,929.6,1461.2"/>
		<path id="path173" d="M954.9,1469.2c-6.1,0-11-4.9-11-11c0-6,4.9-11,11-11c5.9,0,10.9,4.9,10.9,11
			C965.8,1464.2,960.9,1469.2,954.9,1469.2"/>
		<path id="path175" d="M976.4,1486.5c-6.1,0-11.1-4.9-11.1-11c0-6,4.9-11,11.1-11c6,0,10.9,4.9,10.9,11
			C987.3,1481.5,982.5,1486.5,976.4,1486.5"/>
		<path id="path177" d="M981.7,1513.6c-6,0-11-4.9-11-11c0-6.1,4.9-10.7,11-10.7c5.9,0,10.8,4.6,10.8,10.7
			C992.5,1508.7,987.5,1513.6,981.7,1513.6"/>
		<path id="path179" d="M880.1,1475.5c-6.2,0-10.9-4.6-10.9-11c0-5.8,4.8-10.7,10.9-10.7c6.1,0,11,4.9,11,10.7
			C891,1470.8,886.1,1475.5,880.1,1475.5"/>
		<path id="path181" d="M975.2,1541.1c-6.1,0-10.8-5-10.8-11c0-6,4.7-10.7,10.8-10.7c6.1,0,11,4.7,11,10.7
			C986.2,1536.2,981.3,1541.1,975.2,1541.1"/>
		<path id="path183" d="M964.4,1566.7c-6,0-10.8-5-10.8-11c0-6,4.8-11,10.8-11c6.1,0,11,5,11,11
			C975.5,1561.7,970.6,1566.7,964.4,1566.7"/>
		<path id="path185" d="M794,1467.8c0-12.7,10.1-22.5,22.5-22.5c12.3,0,22.4,9.9,22.4,22.5c0,12.3-10.1,22.2-22.4,22.2
			C804.1,1490.1,794,1480.2,794,1467.8 M816.5,1484c3.5,0,6.2-2.7,6.2-6.3c0-3.6-2.8-6.3-6.2-6.3c-3.6,0-6.3,2.8-6.3,6.3
			C810.2,1481.3,813,1484,816.5,1484"/>
		<polygon id="polygon187" points="844.2,1406.8 824.1,1419.8 839.4,1396.7 816.5,1396.7 793.6,1396.7 808.8,1419.8 788.7,1406.8 
			788.7,1449.7 808.8,1436.5 808.8,1454 816.5,1454 824.1,1454 824.1,1436.5 844.2,1449.7 		"/>
		<path id="path189" style="fill:#004494;" d="M1845.6,605.8l-90.3-82.9l3.3-3.9c9.9,9.3,19.2,7.7,33.3-8l72-78.3
			c13.2-14.3,12.5-22,2.4-31l3.5-3.8l44.6,41.2l-3.4,3.6c-10.5-9.6-19.8-6.6-31.9,6.9l-76.5,83.2c-9.1,9.9-7.4,15.7,3.1,25
			l24.9,22.8c15,14,22.1,14.3,43.9,1.6l3.7,3.3L1845.6,605.8L1845.6,605.8z"/>
		<path id="path191" style="fill:#004494;" d="M2209,1311.6c21.3,3.3,27.5-0.5,29.8-14.6l4.9,0.8l-10.3,62.9
			c-6.8,40.1-29.2,54.7-50.5,51.1c-18.4-2.7-28.6-15.4-32.4-39.5l-0.5-0.3c-9.5,25-31.7,39.3-54.1,35.4c-25-4.1-37.1-28.9-32-60.4
			l12.8-76.9l4.9,0.8c-2.4,14,2.9,20.1,23.4,23.3L2209,1311.6L2209,1311.6z M2156.8,1343.1c-3.9,24.7,7.5,41.7,28.6,45.3
			c21,3.3,37.9-6.9,42.4-34.1l2.8-16.7l-70.9-11.5L2156.8,1343.1z M2104.3,1316.7c-22.5-3.5-28.7-0.2-31,12.6l-2.1,13.8
			c-2.8,17,5.9,34.9,30.4,39c24.5,3.8,44.2-11.8,49-41.5l2.7-15.6L2104.3,1316.7L2104.3,1316.7z"/>
		<path id="path193" style="fill:#004494;" d="M291.9,1353c20.5-2.5,25.9-8.8,24.2-22.5l5-0.5l7.8,60.4l-5,0.6
			c-1.6-12.9-6.5-18.4-29.1-15.7l-105.2,13.4c-22.1,3-25.5,9.1-23.7,22.5l-5.1,0.5l-8.8-68.6c-4.8-37.9,14.5-58.8,36.8-61.8
			c18.5-2.5,35.3,5.8,45.8,29.4c16.1-34.1,70.2-51.6,68.8-79.9l5-0.5l4.3,34.3c-34,36.3-72.4,50-68.5,81l1.8,13.5L291.9,1353
			L291.9,1353z M238.8,1359.9l-2.6-20.6c-3.7-28.3-24.4-37.1-43.8-34.3c-22.3,2.8-36,21.4-32.7,47.3l2.4,17.6L238.8,1359.9z"/>
		<path id="path195" style="fill:#004494;" d="M253.6,1099l-0.3,5.2c-14.7,2.5-16.7,4.9-17.9,22.5l-2.8,41.8l60.5,4.1
			c8.2,0.5,11.6-2.2,12.4-11.5l2-29.7c1.7-24.7,0.8-31-20.5-42.5l0.3-5l31,9.9l-8.1,121.6l-5.1-0.2c0.9-13.2-2.8-19.5-25.2-20.9
			l-105.5-7.1c-21-1.6-27.2,2.7-28.2,17.3l-5-0.3l8.2-121.9l28.3,1.9l-0.2,3.3c-18.7,2.5-20.6,8.2-21.9,26.9l-3.4,48.6l72.2,4.9
			l3.2-46.9c0.8-11.5-0.9-16.2-15.3-19.5l0.3-5.2L253.6,1099z"/>
		<path id="path197" style="fill:#004494;" d="M277,955.4l-13.2,53l30.1,19.5c14.7,9.6,26.3,15.4,30.9-1.7l4.9,1.1l-10.7,42.6
			l-4.8-1.4c1.7-15.9-5.8-21.7-19.6-30.7l-123.8-79.4l4.2-16.7l153.3-12.1c16.4-1.1,22.1-4.1,25.6-18.7l4.9,1.4l-14.5,57.7l-4.9-1.1
			c2.9-11.3-0.6-17.8-12.8-17L277,955.4z M190.8,961.7l-0.3,0.5l64,40.6l11.6-46.1L190.8,961.7z"/>
		<path id="path199" style="fill:#004494;" d="M248.7,818.4c-18.2-8.8-26.2-7.1-32.4,5.5l-4.7-2.2l34.6-70.3
			c28.6-58.2,81.1-66.7,120.7-47.2c38.2,19,61.7,60.4,32.2,120l-35.5,72.2l-4.5-2.2c6-12.4,3.2-19.8-15.7-29.1L248.7,818.4z
			 M348,842.2c23.7,11.5,30.7,8.5,37.7-5.5l7.6-15.6c18.6-37.9,3.8-73-37.7-93.4c-36.3-17.8-81.9-17.5-105.5,30.5l-14.3,28.8
			L348,842.2z"/>
		<path id="path201" style="fill:#004494;" d="M449.8,676.4c16.9,11.8,24.9,11.2,33-0.3l4.1,3l-35.2,49.7l-4-3
			c8.1-11.3,6.7-18.7-10.8-31l-86.2-60.9c-17.4-12.1-24.7-11.6-33.1,0.3l-4-2.8l35-50l4.2,3c-8.2,11.5-5.8,19.5,10.7,31L449.8,676.4
			z"/>
		<path id="path203" style="fill:#004494;" d="M606.1,546l-3.4,3.6l-189.1-13.5l-0.4,0.3l86.6,81.3c12.5,11.8,21.8,11,32.2,0
			l3.7,3.3l-35.1,37.6l-3.7-3.6c9.6-10.2,11.1-18.4-6.9-35.2l-72.2-67.6c-13.8-12.9-25.1-16.8-40-3.3l-3.7-3.5l29.7-31.6l168.6,12.9
			l0.4-0.3l-72.3-67.8c-16.1-15.1-24.2-14.6-34.4-3.8l-3.8-3.3l35-37.4l3.7,3.3c-11.3,12-9.9,20.6,4.5,34.3L606.1,546z"/>
		<path id="path205" style="fill:#004494;" d="M742.9,444.3c-6.2,7.7-30.2,25.8-36.6,30.2c-61.5,42-107.3,19-129.4-13.2
			c-33.8-49.4-15.3-103,19.1-126.6c19.8-13.5,31.9-12.1,42.6-19.5c4.2-3,5.5-5.5,4.7-9.9l4.4-3l28.1,41.2l-3.9,2.7
			c-21.8-24.1-53.2-19.2-72.3-6c-28.8,19.5-33.2,59.6-7.1,97.7c28,41.2,73.1,54.7,106.3,31.9c10-6.8,21.8-18.4,13.2-30.7L701.8,424
			c-11.7-17-19.8-20.6-31.2-12.9l-5.4,3.8l-2.8-4.1l56.6-38.7l2.8,4.1c-13.6,9.4-12.8,18.4-4.5,30.8L742.9,444.3z"/>
		<path id="path207" style="fill:#004494;" d="M861.4,354c7.1,19.2,13.9,23.6,27.2,18.7l1.7,4.6l-57.2,20.6l-1.7-4.7
			c13.3-4.6,16-12,8.8-31.8l-35.8-99.1c-7.2-20-13.8-23.6-27.1-18.7l-1.8-4.9l109.2-39.3l10.3,28.3l-3.5,1.4
			c-11-18.1-16-17.6-33.3-11.3l-40.7,14.5l24.1,66.7l41.6-14.8c11.8-4.4,14.1-12.1,10.8-25.5l4.5-1.7l16.2,45l-4.6,1.6
			c-4.5-11.2-12.5-15.9-23.6-12.1l-41.9,15.4L861.4,354z"/>
		<path id="path209" style="fill:#004494;" d="M1019.3,164.5c49.8-5.8,93.7,28,99.5,76.9c5.8,50-29.2,93.6-79.5,99.7
			c-50.1,5.8-94.1-28.5-99.9-78.5C933.5,212.6,967.8,170.6,1019.3,164.5 M1038.3,334.5c42.3-5,59.6-47.8,54.7-88.4
			c-6.2-53-37.9-79.4-72.4-75.3c-39.6,4.7-61,40.4-55.3,89C971,309,1000.4,338.9,1038.3,334.5"/>
		<path id="path211" style="fill:#004494;" d="M1245.1,148.9c50.3,1.9,88.4,42,86.6,91.4c-1.8,50.3-43,87.9-93.7,86.2
			c-50.4-1.9-88.6-42.6-86.8-92.8C1153,183.5,1193.4,147.2,1245.1,148.9 M1238,320c42.5,1.7,66.2-38.2,67.6-79.1
			c2.1-53.3-25.2-84-60.1-85.4c-39.9-1.4-66.4,30.5-68.3,79.6C1175.4,284.3,1199.8,318.6,1238,320"/>
		<path id="path213" style="fill:#004494;" d="M1413.7,319.4c-4.7,19.8-2.2,26.1,11.8,29.4l-1.1,4.9L1366,340l1.1-4.9
			c11.9,2.7,19.6,1.1,24.9-21.7l29.4-125.8l-23.9-5.5c-22.3-5.2-33.8-1.4-39.3,15.6l-4.8-1.1l8.9-37.6l4.8,0.8
			c1.9,2.7,4.1,4.7,7.8,6.9c3.7,1.9,8.7,3.6,15.6,5.2l86.3,20c14.5,3.3,21.4,3.3,27.6,0l5.2,1.4l-8.8,37.6l-3.1-0.8
			c0.2-14.6-3.1-25.6-29.3-31.6l-25.1-5.8L1413.7,319.4z"/>
		<path id="path215" style="fill:#004494;" d="M1549.4,248.6c8.6-20,5.9-26.9-7.2-32.4l2-4.7l58.7,24.7
			c37.7,15.9,46.6,41.2,38.2,61.2c-7.2,17-21.8,24.2-46.3,22.2l-0.2,0.3c21.9,15.1,30.6,40.1,21.8,61c-9.9,23.3-36.9,29.4-66.3,17
			l-71.7-30.5l1.8-4.7c13.2,5.5,20.2,1.9,28.4-17.3L1549.4,248.6L1549.4,248.6z M1568.2,306.8c22.9,9.6,42.2,2.5,50.6-17.3
			c8.3-19.5,2.1-38.5-23.3-49.2l-15.4-6.6l-27.9,66.2L1568.2,306.8L1568.2,306.8z M1530.3,351.6c-8.9,20.9-7.3,27.7,5,33l12.8,5.5
			c15.8,6.6,35.2,2.5,45-20.6c9.6-22.8-1.3-45.6-28.8-57.4l-14.6-6.1L1530.3,351.6L1530.3,351.6z"/>
		<path id="path217" style="fill:#004494;" d="M1731.7,421.3l-45.1-31l-28.8,21.4c-14,10.4-23.6,19.2-9.2,29.7l-2.8,4.1l-36.1-24.7
			l2.9-4.1c14.5,6.9,22.5,2,35.7-8l117.5-88.4l14.4,9.9l-42.2,147.7c-4.7,15.9-3.9,22.2,8.5,30.8l-2.8,4.1l-49.2-33.8l2.8-4.1
			c9.4,6.3,17,5.5,20.4-6.3L1731.7,421.3L1731.7,421.3z M1755.8,338.1l-0.5-0.3l-60.2,45.9l39.3,26.9L1755.8,338.1L1755.8,338.1z"/>
		<path id="path219" style="fill:#004494;" d="M1845.6,605.8l-90.3-82.9l3.3-3.9c9.9,9.3,19.2,7.7,33.3-8l72-78.3
			c13.2-14.3,12.5-22,2.4-31l3.5-3.8l44.6,41.2l-3.4,3.6c-10.5-9.6-19.8-6.6-31.9,6.9l-76.5,83.2c-9.1,9.9-7.4,15.7,3.1,25
			l24.9,22.8c15,14,22.1,14.3,43.9,1.6l3.7,3.3L1845.6,605.8L1845.6,605.8z"/>
		<path id="path221" style="fill:#004494;" d="M1930.5,717.3l-73.1-98.6l4-3c8.1,11,17.4,11,34.2-1.4l85.4-63.4
			c15.7-11.5,16.3-19.2,8.2-30.2l4.1-3l36.1,48.9l-4,3c-8.5-11.5-18.1-10.2-32.7,0.5l-90.9,67.6c-10.7,8-10,13.7-1.6,25l20.2,27.2
			c12,16.2,19.1,18.1,42.9,9.6l2.9,4.1L1930.5,717.3z"/>
		<path id="path223" style="fill:#004494;" d="M2144.2,883.7c26.9-19.2,33.8-40.4,23.5-67.6c-14.3-38.5-52.7-47.5-93.4-32.1
			c-47.6,17.8-69.7,54.3-56.2,90.1c9.3,25,27.9,39,55.6,42.3l-2.4,5.5c-29-1.1-54.3-20.3-65.7-50.8c-14.3-37.9-3.3-87.9,49.5-107.7
			c50.3-18.7,100.4,1.9,118.1,49.2c7.5,20,6.5,37.3,10,46.7c1.6,4.4,4.3,6.3,8.3,6.9l1.6,4.4l-47.3,17.9L2144.2,883.7L2144.2,883.7z
			"/>
		<path id="path225" style="fill:#004494;" d="M2069.4,1072.1l-26.6-119.4l5-1.4c2.8,13.5,11.3,17.3,31.7,12.9l103.8-23.1
			c19.1-4.4,22.7-11,19.8-24.4l5-1.1l13.2,59.3l-5,1.1c-3-14-12.4-16.5-30-12.6l-110.5,24.7c-13,2.7-14.8,8.2-11.8,22.2l7.3,32.7
			c4.5,20.1,10,24.4,35.4,26.4l0.9,4.9L2069.4,1072.1L2069.4,1072.1z"/>
		<path id="path227" style="fill:#004494;" d="M2098.5,1210.5c-19.7-15.4-29.4-32.7-30.4-55.2c-2.1-40.9,26.2-59.1,55.4-60.4
			l83.3-3.9c22.3-1.1,26.6-7.1,25.8-20.6h5.1l2.9,60.9l-5,0.3c-0.8-14-6-19.2-27.6-18.1l-85.6,4.1c-25.9,1.1-43.8,16.5-42.5,45
			c0.8,19.5,11.5,36.2,30.4,47.3l101.9-5c19.4-1.1,26-5.7,25.9-19.5h5.1l2.7,59.6l-4.9,0.2c-0.7-14.3-7.4-18.9-27.7-17.8l-105.4,4.9
			c-22.1,1.1-26.6,7.4-25.9,20.6h-5.1l-2-41.7L2098.5,1210.5L2098.5,1210.5z"/>
		<path id="path229" style="fill:#004494;" d="M762.2,2093.6l-4.4-2.4c3.8-14.3,2.3-17-13-25.5l-36.9-20.1l-29,53.3
			c-4,7.1-3,11.3,5.3,15.9l26,14.3c21.8,11.8,27.8,13.7,47.2-0.8l4.4,2.5l-21.8,23.9l-107.1-58.5l2.3-4.4
			c11.7,6.3,18.7,5.5,29.5-14.3l50.8-92.5c10-18.7,8.8-26.1-3.9-33l2.4-4.4l107.1,58.5l-13.5,25l-3-1.6c5.6-18.2,1.1-22.3-15.2-31.3
			l-42.8-23.4l-34.7,63.7l41.5,22.5c10,5.5,15,5.8,24-5.8l4.5,2.5L762.2,2093.6z"/>
		<path id="path231" style="fill:#004494;" d="M921.1,2083.5l-4.9-1.7c5.8-24.7-7.8-39.8-23.9-45.3c-16.8-5.8-32-0.8-37.2,14
			c-10.2,29.7,27.8,51.6,42.7,82.4c7.3,15.1,6.5,26.1,2.9,36.8c-8.7,25.3-36.2,38.4-61.3,29.7c-17-6-28.4-19.2-33.7-21.1
			c-2.7-1.1-5.4,0.3-8.2,3.8l-4.7-1.4l15-43.4l4.7,1.7c-10,29.7,11,47.8,24.9,52.7c19.3,6.6,36,0,41.9-17.3
			c9.7-27.7-28.9-55.2-40.4-79.4c-6.5-13.2-6.5-25.8-2.2-38.5c8.6-24.4,31.9-35.1,57.8-26.1c17.2,5.7,23,14.8,29.2,17
			c2.5,0.8,3.3,0.5,5.8-3l4.4,1.7L921.1,2083.5L921.1,2083.5z"/>
		<path id="path233" style="fill:#004494;" d="M1018.8,2210.9c-3.6,20-0.9,26.1,13.3,28.8l-0.8,4.9l-59-10.7l0.9-5
			c11.9,2.2,19.6-0.3,23.8-23l23.2-127.2l-24.1-4.4c-22.5-4.1-33.8,0.6-38.5,17.6l-4.9-0.8l7.1-37.9l4.7,0.8c2.1,2.5,4.4,4.1,8.2,6
			c3.7,1.6,8.8,3.3,15.9,4.7l87.1,15.7c14.4,2.7,21.6,2.5,27.6-1.1l5.1,1.1l-6.9,37.9l-3.2-0.5c-0.6-14.6-4.3-25.5-30.8-30.2
			l-25.2-4.7L1018.8,2210.9z"/>
		<path id="path235" style="fill:#004494;" d="M1121,2252.1c0,8-6.2,14.6-14,14.6c-7.6,0-14.2-6.6-14.2-14.6
			c0-7.7,6.6-13.7,14.2-13.7C1114.8,2238.3,1121,2244.4,1121,2252.1"/>
		<path id="path237" style="fill:#004494;" d="M1291.8,2232.8c1.2,15.6,4.5,18.4,19,17.3l0.4,4.4l-54.6,4.1l-0.2-4.4
			c13.8-0.8,17.1-3.8,15.8-19.8l-9.1-116.5c-0.4-5.2-1.4-6-2.9-6c-2.1,0.5-10.8,6.3-22.7,8l-0.4-4.9c18.1-11.3,32.9-22.8,37.9-31.8
			l5-0.3L1291.8,2232.8z"/>
		<path id="path239" style="fill:#004494;" d="M1391.6,2059.9c24.7-4.9,46.4,7.7,50.6,29.6c2.6,12.9-0.7,28.3-20.9,45.3
			c25.6,11,39,25.5,42.7,44.5c5.1,25.5-12.8,48.9-40.2,54.4c-27.9,5.2-51-7.4-55.6-31.3c-3.5-18.7,4.8-34.3,27.4-53
			c-22.8-6.6-37.1-21.2-40.7-39.8C1350.3,2085.4,1365.2,2065.1,1391.6,2059.9 M1415.4,2132.3c13.6-10.7,15-23.6,12.5-36.5
			c-4-20.9-19.1-32.7-37-29.4c-15.4,3.3-24.9,16.5-22,30.8C1371.6,2111.7,1384.7,2121.6,1415.4,2132.3 M1424.2,2225.2
			c17.2-3.6,27.6-18.1,24.3-34.6c-3.3-16.8-20.2-29.4-46.7-37.4c-15.1,11.3-21.2,25.5-18,42.6
			C1387.9,2215.8,1405.1,2228.7,1424.2,2225.2"/>
		<path id="path241" style="fill:#004494;" d="M1462.2,2040.6l4.7-1.9c1.6,1.6,2.6,3,4.2,3c1.7,0.3,3.8,0,6.5-1.1l87.3-33.5l2.1,5.8
			l4.8,175.5l-19.8,7.7l5.8-168.3l-69.3,26.4c-10.1,3.9-12.1,8.5-14.8,28.6l-4.7,1.9L1462.2,2040.6z"/>
		<path id="path243" style="fill:#004494;" d="M1702.1,2101.6c7.4,13.7,11.4,15.1,24.1,7.9l2.1,4.1l-47.8,25.5l-2.1-3.6
			c12.2-6.6,14-10.7,6.4-24.7l-55.2-102.2c-2.4-4.7-3.6-4.9-4.9-4.1c-1.8,0.8-7.4,9.9-17.4,15.9l-2.4-4.4
			c11.6-17.3,20.7-33.8,21.4-44.2l4.5-2.4L1702.1,2101.6z"/>
	</g>
</g>
</svg>
