<?xml version="1.0" encoding="utf-8"?>
<!-- Generator: Adobe Illustrator 16.0.0, SVG Export Plug-In . SVG Version: 6.00 Build 0)  -->
<!DOCTYPE svg PUBLIC "-//W3C//DTD SVG 1.1//EN" "http://www.w3.org/Graphics/SVG/1.1/DTD/svg11.dtd">
<svg version="1.1" id="Layer_1" xmlns="http://www.w3.org/2000/svg" xmlns:xlink="http://www.w3.org/1999/xlink" x="0px" y="0px"
	 width="600px" height="600px" viewBox="0 0 600 600" style="enable-background:new 0 0 600 600;" xml:space="preserve">
<g>
	<path style="fill:#211E1F;" d="M489.8,430.6c-45.2,53.7-112.8,87.8-188.5,87.8c-74.9,0-141.9-33.4-187.1-86.2l-53.5,64.4
		c60.1,64.5,145.8,105,241,105c95.7,0,181.9-40.9,242-106.1L489.8,430.6"/>
	<path style="fill:none;stroke:#FFFFFF;stroke-width:2.356;" d="M489.8,430.6c-45.2,53.7-112.8,87.8-188.5,87.8
		c-74.9,0-141.9-33.4-187.1-86.2l-53.5,64.4c60.1,64.5,145.8,105,241,105c95.7,0,181.9-40.9,242-106.1L489.8,430.6z"/>
	<path style="fill:#211E1F;" d="M447.5,184.1v285.8c0,8.3-5.2,15.4-12.6,18.2l-132.7,51.5L169.4,488c-7.3-2.7-12.6-9.9-12.6-18.2
		l0-285.8H447.5"/>
	<path style="fill:none;stroke:#FFFFFF;stroke-width:2.356;" d="M447.5,184.1v285.8c0,8.3-5.2,15.4-12.6,18.2l-132.7,51.5L169.4,488
		c-7.3-2.7-12.6-9.9-12.6-18.2l0-285.8H447.5z"/>
	<polyline style="fill:#FFFFFF;" points="163.8,404.7 163.8,228.6 440.5,228.6 440.5,404.7 163.8,404.7 	"/>
	<path style="fill:#ED1A3B;" d="M440.5,388.2c-2.4,3.9-8.4,6.6-15.3,6.6c-7,0-13-2.7-15.4-6.7c-2.4,4-8.4,6.7-15.4,6.7
		c-7,0-12.9-2.7-15.4-6.6c-2.5,3.9-8.4,6.6-15.4,6.6c-7,0-13-2.7-15.4-6.7h-0.1c-2.4,4-8.4,6.7-15.3,6.7c-7,0-12.9-2.7-15.3-6.6
		c-2.5,3.9-8.5,6.6-15.4,6.6c-7,0-13-2.7-15.4-6.7h0.1c-2.5,4-8.4,6.7-15.4,6.7c-7,0-13-2.7-15.4-6.6c-2.4,3.9-8.4,6.6-15.4,6.6
		c-6.9,0-12.9-2.7-15.4-6.7h-0.1c-2.4,4-8.4,6.7-15.3,6.7c-7,0-13-2.7-15.4-6.6v0.1c-2.4,3.9-8.4,6.5-15.3,6.5
		c-7.1,0-13-2.7-15.4-6.7v-0.3l0.1,77.9c0,7.9,5,14.6,12,17.2L302.2,532l126.3-49.1c7-2.6,12-9.3,12-17.2v-77.8L440.5,388.2"/>
	<path style="fill:#00AEEF;" d="M440.5,380c-2.4,3.9-8.4,6.6-15.3,6.6c-7,0-13-2.8-15.4-6.6c-2.4,3.8-8.4,6.6-15.4,6.6
		c-7,0-12.9-2.8-15.4-6.6c-2.5,3.9-8.4,6.6-15.4,6.6c-7,0-13-2.8-15.4-6.6h-0.1c-2.4,3.8-8.4,6.6-15.3,6.6c-7,0-12.9-2.8-15.3-6.6
		c-2.5,3.9-8.5,6.6-15.4,6.6c-7,0-13-2.8-15.4-6.6h0.1c-2.5,3.8-8.4,6.6-15.4,6.6c-7,0-13-2.8-15.4-6.6c-2.4,3.9-8.4,6.6-15.4,6.6
		c-6.9,0-12.9-2.8-15.4-6.6h-0.1c-2.4,3.8-8.4,6.6-15.3,6.6c-7,0-13-2.8-15.4-6.6v0.1c-2.4,3.9-8.4,6.5-15.3,6.5
		c-7.1,0-13-2.8-15.4-6.6v-9.6c2.4,3.9,8.3,6.7,15.4,6.7c6.9,0,12.9-2.7,15.3-6.6c2.5,3.9,8.4,6.6,15.4,6.6c6.9,0,12.9-2.8,15.3-6.7
		h0.1c2.4,3.9,8.4,6.7,15.4,6.7c7,0,13-2.7,15.4-6.6c2.4,3.9,8.4,6.6,15.4,6.6c7,0,12.9-2.8,15.4-6.7h-0.1c2.4,3.9,8.4,6.7,15.4,6.7
		c6.9,0,12.9-2.7,15.4-6.6c2.4,3.9,8.3,6.6,15.3,6.6c7,0,12.9-2.8,15.3-6.7h0.1c2.4,3.9,8.4,6.7,15.4,6.7c7,0,12.9-2.7,15.4-6.6
		c2.5,3.9,8.4,6.6,15.4,6.6c7,0,13-2.8,15.4-6.7c2.4,3.9,8.4,6.7,15.4,6.7c6.9,0,12.9-2.7,15.3-6.6V380"/>
	<path style="fill:#00AEEF;" d="M440.5,362.7c-2.4,3.9-8.4,6.6-15.3,6.6c-7,0-13-2.7-15.4-6.6c-2.4,3.8-8.4,6.6-15.4,6.6
		c-7,0-12.9-2.7-15.4-6.6c-2.5,3.9-8.4,6.6-15.4,6.6c-7,0-13-2.7-15.4-6.6h-0.1c-2.4,3.8-8.4,6.6-15.3,6.6c-7,0-12.9-2.7-15.3-6.6
		c-2.5,3.9-8.5,6.6-15.4,6.6c-7,0-13-2.7-15.4-6.6h0.1c-2.5,3.8-8.4,6.6-15.4,6.6c-7,0-13-2.7-15.4-6.6c-2.4,3.9-8.4,6.6-15.4,6.6
		c-6.9,0-12.9-2.7-15.4-6.6h-0.1c-2.4,3.8-8.4,6.6-15.3,6.6c-7,0-13-2.7-15.4-6.6v0.1c-2.4,3.9-8.4,6.5-15.3,6.5
		c-7.1,0-13-2.7-15.4-6.6V353c2.4,3.9,8.3,6.7,15.4,6.7c6.9,0,12.9-2.7,15.3-6.6c2.5,3.9,8.4,6.6,15.4,6.6c6.9,0,12.9-2.8,15.3-6.7
		h0.1c2.4,3.9,8.4,6.7,15.4,6.7c7,0,13-2.7,15.4-6.6c2.4,3.9,8.4,6.6,15.4,6.6c7,0,12.9-2.8,15.4-6.7h-0.1c2.4,3.9,8.4,6.7,15.4,6.7
		c6.9,0,12.9-2.7,15.4-6.6c2.4,3.9,8.3,6.6,15.3,6.6c7,0,12.9-2.8,15.3-6.7h0.1c2.4,3.9,8.4,6.7,15.4,6.7c7,0,12.9-2.7,15.4-6.6
		c2.5,3.9,8.4,6.6,15.4,6.6c7,0,13-2.8,15.4-6.7c2.4,3.9,8.4,6.7,15.4,6.7c6.9,0,12.9-2.7,15.3-6.6V362.7"/>
	<path style="fill:#211E1F;" d="M322.5,476.8c0,0,13.6,21.2,6.4,15.2c-5.2-4.5-12.3-14.8-17.5-23.3l-27.8,10.8
		c0,0-16,19.4-12.4,10.9c2.6-6.2,10.4-16.3,16.9-23.9l-19.1-23c0,0-23.5-9.1-14.2-8.4c6.1,0.5,18.8,5,27.9,8.7l15.9-25.3
		c0,0,1.5-25.2,3.7-16.1c1.5,6.2,1.1,19.6,0.3,29.6l29.1,7.1c0,0,24.4-6.4,16.4-1.5c-5.6,3.5-17.7,7.1-27.4,9.5L322.5,476.8"/>
	<path style="fill:none;stroke:#211E1F;stroke-width:1.441;" d="M322.5,476.8c0,0,13.6,21.2,6.4,15.2c-5.2-4.5-12.3-14.8-17.5-23.3
		l-27.8,10.8c0,0-16,19.4-12.4,10.9c2.6-6.2,10.4-16.3,16.9-23.9l-19.1-23c0,0-23.5-9.1-14.2-8.4c6.1,0.5,18.8,5,27.9,8.7l15.9-25.3
		c0,0,1.5-25.2,3.7-16.1c1.5,6.2,1.1,19.6,0.3,29.6l29.1,7.1c0,0,24.4-6.4,16.4-1.5c-5.6,3.5-17.7,7.1-27.4,9.5L322.5,476.8z"/>
	<path style="fill:#FFFFFF;" d="M300.3,471.2c0.2,0.4,0.5,0.7,0.8,0.7c0.3,0,0.6-0.3,0.8-0.7c0.3-0.7,0.6-2.4,0.5-5.9
		c0,0,0.2-11.9,9.1,0.9c24.9,35.8-10.5,36-10.5,36h0.3c0,0-35.4-0.2-10.5-36c8.9-12.8,9-0.9,9-0.9
		C299.7,468.8,299.9,470.5,300.3,471.2L300.3,471.2"/>
	<path style="fill:none;stroke:#211E1F;stroke-width:1.441;" d="M300.3,471.2l0.8,0.7l0.8-0.7c0.3-0.7,0.5-2.4,0.5-5.9
		c0,0,0.2-11.9,9.1,0.9c24.9,35.8-10.5,36-10.5,36h0.3c0,0-35.4-0.2-10.5-36c8.9-12.8,9-0.9,9-0.9
		C299.7,468.8,299.9,470.5,300.3,471.2L300.3,471.2L300.3,471.2z"/>
	<path style="fill:#FFFFFF;" d="M282.1,456.9c-0.3,0.3-0.5,0.6-0.3,0.9c0.1,0.3,0.4,0.6,0.9,0.6h0c0.8,0.1,2.5-0.1,5.8-1.3
		c0,0,11.4-3.5,2,8.8c-26.4,34.7-37.5,1.2-37.5,1.2v0.2c0,0-10.7-33.7,31.1-21.1c14.9,4.4,3.6,8.3,3.6,8.3
		C284.1,455.5,282.6,456.3,282.1,456.9"/>
	<path style="fill:none;stroke:#211E1F;stroke-width:1.441;" d="M282.1,456.9c-0.3,0.3-0.3,0.9-0.3,0.9l0.9,0.6h0
		c0,0,2.5-0.1,5.8-1.3c0,0,11.4-3.5,2,8.8c-26.4,34.7-37.5,1.2-37.5,1.2v0.2c0,0-10.7-33.7,31.1-21.1c14.9,4.4,3.6,8.3,3.6,8.3
		C284.1,455.5,282.6,456.3,282.1,456.9z"/>
	<path style="fill:#FFFFFF;" d="M290,435c-0.4-0.2-0.8-0.2-1,0c-0.3,0.2-0.4,0.5-0.3,1v0c0.2,0.9,0.9,2.4,3.1,5.2
		c0,0,6.8,9.7-7.9,4.6c-41.1-14.4-12.7-35.3-12.7-35.3l-0.2,0.1c0,0,28.7-20.6,29.7,23c0.3,15.5-6.8,5.9-6.8,5.9
		C291.9,436.6,290.7,435.4,290,435"/>
	<path style="fill:none;stroke:#211E1F;stroke-width:1.441;" d="M290,435h-1l-0.3,1v0c0,0,0.9,2.4,3.1,5.2c0,0,6.8,9.7-7.9,4.6
		c-41.1-14.4-12.7-35.3-12.7-35.3l-0.2,0.1c0,0,28.7-20.6,29.7,23c0.3,15.5-6.8,5.9-6.8,5.9C291.9,436.6,290.7,435.4,290,435z"/>
	<path style="fill:#FFFFFF;" d="M313.3,435.9c0.1-0.4,0-0.8-0.3-1c-0.3-0.1-0.7-0.1-1.1,0.1c-0.7,0.3-1.9,1.5-4,4.4
		c0,0-7.1,9.5-6.8-6c1-43.6,29.7-23,29.7-23l-0.2-0.2c0,0,28.5,20.9-12.7,35.3c-14.6,5.1-7.7-4.6-7.7-4.6
		C312.5,438.2,313.2,436.7,313.3,435.9"/>
	<path style="fill:none;stroke:#211E1F;stroke-width:1.441;" d="M313.3,435.9l-0.3-1L312,435c-0.7,0.3-1.9,1.5-4,4.4
		c0,0-7.1,9.5-6.8-6c1-43.6,29.7-23,29.7-23l-0.2-0.2c0,0,28.5,20.9-12.7,35.3c-14.6,5.1-7.7-4.6-7.7-4.6
		C312.5,438.2,313.3,435.9,313.3,435.9z"/>
	<path style="fill:#FFFFFF;" d="M319.7,458.4c0.4,0,0.8-0.3,0.8-0.6c0.2-0.3,0-0.6-0.4-0.9c-0.6-0.6-2.1-1.4-5.5-2.4
		c0,0-11.3-3.9,3.6-8.3c41.8-12.6,31.1,21.1,31.1,21.1l0.1-0.2c0,0-11.1,33.5-37.5-1.2c-9.5-12.3,1.9-8.8,1.9-8.8
		C317.2,458.3,318.9,458.4,319.7,458.4"/>
	<path style="fill:none;stroke:#211E1F;stroke-width:1.441;" d="M319.7,458.4l0.8-0.6c0,0,0-0.6-0.4-0.9c-0.6-0.6-2.1-1.4-5.5-2.4
		c0,0-11.3-3.9,3.6-8.3c41.8-12.6,31.1,21.1,31.1,21.1l0.1-0.2c0,0-11.1,33.5-37.5-1.2c-9.5-12.3,1.9-8.8,1.9-8.8
		C317.2,458.3,319.7,458.4,319.7,458.4z"/>
	<path style="fill:#211E1F;" d="M276.8,418.2c0,0-2.7,1.8-5,2.6c-2.3,0.7-3.3,2.4-3.6,2.8c0,0-1.3,3-2.2,1.8
		c-0.9-1.2,0.9-3.5,0.9-3.5c0.3-0.5,1.3-2.1,3.6-2.9c2.3-0.7,4.9-2.5,4.9-2.5c0,0,2.6-2,4-4c1.4-2,3.3-2.4,3.9-2.5
		c0,0,2.7-1,3.6,0.2c0.9,1.3-2.4,1.5-2.4,1.5c-0.6,0.2-2.5,0.6-3.9,2.5C279.4,416.2,276.8,418.2,276.8,418.2"/>
	<path style="fill:#211E1F;" d="M325.2,418.2c0,0-2.5-2-3.9-3.9c-1.4-1.9-3.4-2.4-3.8-2.5c0,0-3.3-0.2-2.4-1.5
		c0.9-1.2,3.6-0.2,3.6-0.2c0.5,0.1,2.5,0.5,3.8,2.5c1.4,1.9,4,4,4,4c0,0,2.7,1.8,5,2.5c2.2,0.7,3.3,2.4,3.5,2.9c0,0,1.8,2.3,1,3.6
		c-0.9,1.2-2.1-1.8-2.1-1.8c-0.3-0.5-1.3-2.2-3.6-2.8C327.9,420,325.2,418.2,325.2,418.2"/>
	<path style="fill:#211E1F;" d="M340.3,464.2c0,0,1.1-3,2.5-5c1.5-1.8,1.2-3.9,1.2-4.4c0,0-0.7-3.2,0.7-2.7c1.4,0.5,1.4,3.3,1.4,3.3
		c0,0.5,0.2,2.5-1.2,4.5c-1.5,1.9-2.6,5-2.6,5s-0.8,3.1-0.8,5.5c0,2.4-1.4,3.9-1.6,4.3c0,0-1.7,2.4-3.1,2c-1.5-0.5,1-2.6,1-2.6
		c0.3-0.4,1.6-2,1.6-4.3C339.4,467.4,340.3,464.2,340.3,464.2"/>
	<path style="fill:#211E1F;" d="M301.1,492.6c0,0,3.3,0.1,5.5,0.9c2.3,0.7,4.1-0.1,4.6-0.2c0,0,2.8-1.7,2.7-0.2
		c0,1.4-2.7,2.3-2.7,2.3c-0.5,0.2-2.3,1-4.6,0.2c-2.2-0.8-5.5-0.9-5.5-0.9s-3.3,0.2-5.5,0.9c-2.3,0.8-4-0.1-4.6-0.2
		c0,0-2.8-0.9-2.8-2.3c0-1.5,2.8,0.2,2.8,0.2c0.6,0.2,2.3,1,4.6,0.2C297.8,492.7,301.1,492.6,301.1,492.6"/>
	<path style="fill:#211E1F;" d="M262,464.2c0,0,0.9,3.2,0.9,5.5c0,2.4,1.3,3.8,1.6,4.3c0,0,2.5,2.2,1.1,2.6c-1.4,0.4-3.1-2-3.1-2
		c-0.3-0.5-1.6-1.9-1.6-4.3c0-2.3-0.8-5.5-0.8-5.5s-1.1-3.1-2.6-5c-1.4-1.9-1.2-3.9-1.2-4.5c0,0,0-2.8,1.4-3.3
		c1.4-0.5,0.6,2.7,0.6,2.7c-0.1,0.5-0.2,2.5,1.2,4.4C260.9,461.2,262,464.2,262,464.2"/>
	<path style="fill:#FFC40D;" d="M300.9,443.4c-4.4,0-7.9,3.6-7.9,8c0,4.5,3.6,8,7.9,8c4.5,0,8-3.5,8-8
		C308.9,447,305.3,443.4,300.9,443.4"/>
	<path style="fill:none;stroke:#FFC40D;stroke-width:0.571;" d="M300.9,443.4c-4.4,0-7.9,3.6-7.9,8c0,4.5,3.6,8,7.9,8
		c4.5,0,8-3.5,8-8C308.9,447,305.3,443.4,300.9,443.4z"/>
	<path style="fill:#211E1F;" d="M316,298.8l1.1,21.5l18.2-11.8l5.7,9.3l-21.5,12.4v4.5c0,0,25,14-5.5,13.5l0,0.2
		c-10.7,8.9-20.7,0.1-20.7,0.1c-30.4,0.5-5.5-13.4-5.5-13.4v-4.5l-19-14.7l4.5-9.8l17,14.5l1-21.5L316,298.8"/>
	<path style="fill:#22B24C;" d="M338.7,317.3c17.6,20.2,30.6-1.1,30.6-1.1c22.3-5.4,9.1-21.2,9.1-21.2c23.2-15.2-4.1-27.2-4.1-27.2
		c-0.2-20.2-17.4-18.7-17.4-18.7c-18-15.7-35.2,1.7-35.2,1.7c-27-22.5-47.5,3.5-47.5,3.5s-17.2-12-25,6.8c0,0-27.5-0.8-17.2,27
		c0,0-21.2,21.2,6.5,31.7c0,0,14.7,27.3,35,1.3c0,0,12.4,0.7,10.5-16.8c0,0,15.8,6.6,30.7-0.7c0,0,4.8,10.7,15,4.7
		c0,0-1.6,6.9,8.3,8.3L338.7,317.3"/>
	<path style="fill:none;stroke:#211E1F;stroke-width:5.901;" d="M338.7,317.3c17.6,20.2,30.6-1.1,30.6-1.1
		c22.3-5.4,9.1-21.2,9.1-21.2c23.2-15.2-4.1-27.2-4.1-27.2c0-20.2-17.4-18.7-17.4-18.7c-18-15.7-35.2,1.7-35.2,1.7
		c-27-22.5-47.5,3.5-47.5,3.5s-17.2-12-25,6.8c0,0-27.5-0.8-17.2,27c0,0-21.2,21.2,6.5,31.7c0,0,14.7,27.3,35,1.3
		c0,0,12.4,0.7,10.5-16.8c0,0,15.8,6.6,30.7-0.7c0,0,4.8,10.7,15,4.7c0,0-1.6,6.9,8.3,8.3L338.7,317.3z"/>
	<path style="fill:#FFC20E;" d="M102.5,491.2l1.3,1.1c-4.5,8.2-5.2,14-2,16.7c2.3,2,5.3,1.2,8-1.9c1.2-1.3,1.9-2.9,1.9-4.1
		c0-1.7-1.3-3.6-2.7-6.5c-2.7-5.5-2.6-10,2.2-15.6c4.8-5.5,11.2-7.4,15.2-3.9c1.7,1.6,2.7,3.7,2.8,6.6l3.1-0.9l1.1,0.9l-9.7,11.7
		l-1.2-1.1c3.8-7.8,4.6-12.5,1.7-14.9c-2.2-2-5-1.3-7.5,1.6c-3.2,3.6-1.3,5.7,1.1,10.2c1.3,2.5,2.3,4.4,1.7,7.4
		c-0.5,2.6-2.1,5.7-4.6,8.7c-5.3,6-11.3,7.8-15.5,4.1c-2.1-1.9-3.1-4.1-2.9-7.5l-3.8,1.3l-1.1-1L102.5,491.2"/>
	<path style="fill:#FFC20E;" d="M138.7,495.2c4.4-2.1,8.1-2,11.3,0.2c3.3,2.3,4.7,5.6,4.2,10.7c-0.4,4.5-2.5,9.5-6,14.6
		c-3.5,5-6.9,8.3-11.3,10.3c-4.6,2.2-8.6,2.2-11.7,0c-3.2-2.2-4.5-5.6-4.1-10.8c0.4-4.9,2.2-9.3,5.8-14.3
		C130.5,500.8,134.6,497.1,138.7,495.2 M127,528.4c3.4,2.4,8.5-1.5,15.6-11.7c7.1-10.2,9-16.3,5.6-18.7c-3.4-2.3-8.4,1.5-15.6,11.7
		C125.6,519.9,123.6,526,127,528.4z"/>
	<path style="fill:#FFC20E;" d="M174.3,515l-1.5-0.8c-1.3-0.7-1.9-0.2-3,1.9l-9.9,18.4c-3.5,6.6-3.7,10.5,0.1,12.5
		c1.7,0.9,3.5,0.8,5.1,0c2.5-1.4,4.2-4.3,6.6-8.9l7.1-13.3c2-3.9,2.5-6.1-0.1-7.4c0-0.1-0.2-0.1-0.2-0.1l1.4-2.7l8.4,4.5l-1.4,2.6
		c-2.6-0.9-4,0.4-6,4.2l-7.3,13.7c-2.1,4-3.8,7-6.2,9.1c-3.7,3.1-7.2,3.5-11.1,1.3c-6-3.2-6.7-8.9-2.5-17l10.6-19.8
		c1.1-2.1,1.2-2.8-0.1-3.5l-1.5-0.8l1.4-2.6l11.6,6.2L174.3,515"/>
	<path style="fill:#FFC20E;" d="M206.5,529.3c-1.2-0.4-1.8,0.1-2.6,2.1l-10.9,27.7c-0.9,2.1-0.9,2.9,0.5,3.4l1.6,0.7l-1.1,2.8
		l-12.1-4.8l1.1-2.8l1.6,0.7c1.4,0.5,1.8,0,2.7-2.2l11-27.6c0.8-2.1,0.8-2.8-0.3-3.3c-2.5-1.1-6.3,2.4-9.9,9.9l-1.7-0.6l6.3-14.3
		l21.1,8.4l-5.3,14.7l-1.5-0.6C209.3,535.5,209,530.3,206.5,529.3"/>
	<path style="fill:#FFC20E;" d="M224.6,572.4c1.4,0.4,1.8-0.2,2.4-2.4l3.5-13.1l-8.8-2.4l-3.5,13c-0.6,2.2-0.5,2.9,0.9,3.3l1.7,0.5
		l-0.8,2.9l-12.6-3.4l0.8-2.9l1.7,0.4c1.4,0.4,1.8-0.2,2.4-2.4l7.6-28.3c0.6-2.2,0.6-3-0.9-3.4l-1.7-0.4l0.8-2.9l12.6,3.4l-0.8,2.9
		l-1.7-0.5c-1.4-0.4-1.8,0.3-2.5,2.5l-3.1,11.8l8.8,2.4l3.1-11.8c0.6-2.2,0.6-3-0.9-3.4l-1.7-0.4l0.7-2.9l12.6,3.5l-0.7,2.8
		l-1.7-0.5c-1.4-0.4-1.8,0.3-2.4,2.5l-7.6,28.3c-0.6,2.2-0.6,3,0.9,3.3l1.6,0.5l-0.7,2.9l-12.7-3.4l0.9-2.9L224.6,572.4"/>
	<path style="fill:#FFC20E;" d="M258,579.2l1.7,0.1c0.7,0.1,1-0.3,1.2-1.2c0-0.4,0-0.9,0-1.6l-0.6-6.6l-8.7-1.3l-1.2,2.9
		c-0.4,0.9-0.7,2.1-0.8,2.8c-0.4,2.6,0.5,3.5,3,4.1l-0.4,2.9l-9.7-1.4l0.4-3c2.2-0.3,3.6-2.6,5.5-7l12.6-29.9l2.5,0.4l4.1,37.6
		c0.2,1.8,0.6,2.5,1.9,2.7l-0.4,3l-11.4-1.7L258,579.2 M253,565.2l7,1.1l-1.4-14.3L253,565.2z"/>
	<path style="fill:#FFC20E;" d="M283.4,574.5c-0.2,5.3,0.5,7.3,3.7,7.4l-0.1,3.1l-9.9-0.3v-3.1c3.1-0.1,3.7-2.1,3.8-7.3l0.6-24.9
		c0.1-2.2-0.2-3.1-1.6-3.2l-1.8,0l0.1-3l11.1,0.3l4.8,24.9l5.6-24.6l10.9,0.3l-0.1,3L309,547c-1.4,0-1.8,0.7-1.8,3l-0.7,29.4
		c-0.1,2.3,0.2,3,1.6,3l1.8,0l-0.1,3l-12.8-0.3l0.1-3h1.5c1.5,0.1,1.8-0.7,1.9-2.9l0.8-31l-8.4,36.8l-1.7,0l-7-37L283.4,574.5"/>
	<path style="fill:#FFC20E;" d="M330.1,580.9l2.2-0.2l0.3,3L319,585l-0.3-3.1l1.8-0.1c1.5-0.2,1.6-0.9,1.5-3.2l-2.8-29.2
		c-0.2-2.3-0.5-3-2-2.9l-1.8,0.2l-0.3-3l15.1-1.4c6.3-0.6,9.8,3.1,10.6,10.8c0.8,8.2-2.6,12.2-10.2,13c-1,0.2-2.2,0.2-3.5,0.3
		l1.2,11.7C328.4,580.4,328.7,581,330.1,580.9 M326.7,563.1c0.4,0.1,0.9,0.1,1.7,0c4.6-0.4,6.3-2.5,5.7-9.3
		c-0.6-6.6-2.4-8.6-6.4-8.3c-2.2,0.2-2.5,0.7-2.3,3.9L326.7,563.1z"/>
	<path style="fill:#FFC20E;" d="M360.6,540.1c-1.2,0.2-1.4,0.9-0.9,3.1l6,29.2c0.5,2.2,0.9,2.8,2.3,2.5l1.7-0.3l0.6,3l-12.8,2.6
		l-0.6-2.9l1.7-0.4c1.5-0.3,1.5-1.1,1.1-3.3l-6.1-29.1c-0.5-2.2-0.9-2.8-2.1-2.6c-2.7,0.6-3.9,5.6-2.8,13.8l-1.7,0.3l-2.6-15.3
		l22.2-4.6l3.7,15.2l-1.7,0.3C366.4,543.7,363.3,539.5,360.6,540.1"/>
	<path style="fill:#FFC20E;" d="M376.8,538.6c1-4.7,3.3-7.6,7.1-8.8c3.8-1.3,7.3-0.3,11.1,3c3.3,3,6.1,7.7,8,13.5
		c1.9,5.8,2.4,10.6,1.5,15.3c-1,5-3.5,8.2-7.1,9.4c-3.7,1.2-7.2,0.2-11-3.3c-3.7-3.3-6.1-7.3-7.9-13.2
		C376.4,548.6,375.9,543.1,376.8,538.6 M396.3,568c3.9-1.3,3.9-7.7,0.1-19.5c-3.8-11.8-7.5-17-11.6-15.7c-3.9,1.3-3.9,7.7-0.1,19.5
		C388.7,564.1,392.4,569.4,396.3,568z"/>
	<path style="fill:#FFC20E;" d="M417.1,559.9c2.6-1.7,2.3-3.7,0.2-8.2l-10.5-22.6l-1.1-0.8c-1.1-0.8-1.9-1.4-3.2-0.8l-0.4,0.2
		l-1.3-2.7l7.9-3.7l22.7,17.9l-6.5-14c-2.3-5.1-3.7-6.3-6.8-4.9l-1.2-2.8l9.1-4.2l1.3,2.7c-2.6,1.4-2.4,3.3-0.1,8.2l13.4,28.7
		l-2,0.9l-28.1-22.2l8.8,19.1c2.2,4.8,3.7,6.2,6.7,5l1.3,2.7l-9,4.2L417.1,559.9"/>
	<path style="fill:#FFC20E;" d="M469,503.7l-1.4,1c-6.1-6.5-9.7-7.7-14.1-4.7c-1.7,1.1-2,1.6-0.3,4l6.9,10.1
		c0.2-0.1,0.3-0.2,0.5-0.3c2.5-1.7,2.3-4.3-0.5-9.4l1.4-1l10.8,15.7l-1.4,1c-3.7-4.5-6-5.5-8.5-3.8c-0.1,0.1-0.3,0.2-0.4,0.3
		l7.7,11.4c1.3,1.9,1.8,2.3,3.1,1.5l2-1.4l1.7,2.5l-11.4,7.8l-1.7-2.5l1.4-1c1.3-0.8,1-1.6-0.2-3.4l-16.6-24.2
		c-1.3-1.9-1.9-2.4-3.1-1.5l-1.5,1l-1.7-2.4l18.5-12.7L469,503.7"/>
	<path style="fill:#FFC20E;" d="M502.3,512.1c-2.3,1.9-5.1,2.5-8.5,1.9c-5.1-1-10.4-4.6-15.3-10.3c-3.8-4.4-6.2-9.1-7.2-13.5
		c-1.2-5-0.1-8.6,3-11.3c1.9-1.6,4.1-2.2,7-1.7l-0.5-3.5l1.1-0.9l11.3,12.3l-1.2,1.4c-7.3-6.2-12.5-8.1-15.4-5.6
		c-3.5,3-1.2,8.6,7.1,18.2c8.2,9.7,13.3,12.7,17.1,9.4c2.9-2.5,2.3-7.4-2-14.5l2.1-0.4C506.3,501.8,506.8,508.3,502.3,512.1"/>
	<path style="fill:#FFFFFF;" d="M60.6,164l6.6,13.6l-18.4,5l5.7,11.5l18.5-5l5.8,11.5l-18.5,5l5.7,11.4l18.5-5l5.8,11.5l-18.6,5
		l5.8,11.4l18.6-4.9l8.3,15.9c3.5-1,6.9-2.2,10.2-3.6L71.3,161C68.2,162.3,64.7,163.3,60.6,164"/>
	<path style="fill:#FFFFFF;" d="M111.3,168.8c-1.3-6.1,12.6-13.4,23.8-22.4l-14.8-29.5c-5.8,3.2-12.3,8.2-18.8,15.5
		c-1.7,1.8-3.3,3.7-4.7,5.5L111.3,168.8"/>
	<path style="fill:#ED1A3B;" d="M144.4,116.2c-3.6-4.9-12.8-5.5-24.1,0.6l14.8,29.5C145.3,138,153.2,128.2,144.4,116.2"/>
	<path style="fill:#ED1A3B;" d="M71.3,161l43.2,86.1c12.1-5,22.1-12.1,25.4-17.3l-18.6-39.5l-9.2-19.6c-0.5-0.6-0.7-1.2-0.9-1.8
		l-14.5-30.9C89.5,146.9,83.2,155.9,71.3,161"/>
	<path style="fill:#ED1A3B;" d="M60.6,164c-5.8,1-12.6,1.3-20.9,0.6l9,18l18.4-5L60.6,164"/>
	<polyline style="fill:#ED1A3B;" points="73,189 54.5,194 60.3,205.5 78.7,200.5 73,189 	"/>
	<polyline style="fill:#ED1A3B;" points="84.5,211.9 66,216.9 71.7,228.3 90.3,223.4 84.5,211.9 	"/>
	<path style="fill:#ED1A3B;" d="M77.5,239.7l6.7,13.6c6.5,0.4,13.4-0.7,20.1-2.6L96,234.8L77.5,239.7"/>
	<path style="fill:#FFFFFF;" d="M134.8,146.6L143,163c5.8-4.9,12-10.7,18.7-16.3l-15.4-27.4C151.8,129.9,144.3,138.9,134.8,146.6"/>
	<path style="fill:#ED1A3B;" d="M112.1,170.6c0.4,0.6,1,1.2,1.9,1.7c8.3,5.8,18-0.1,29-9.3l-8.2-16.4
		C122.6,156.5,107.1,164.2,112.1,170.6"/>
	<path style="fill:none;stroke:#211E1F;stroke-width:4.704;" d="M112.1,170.6c-9.3-11.9,51.5-28.2,32.2-54.4
		c-5.4-7.4-23.8-5.2-42.9,16.1c-14.8,16.3-21.3,35.7-61.7,32.3l44.4,88.7c22.4,1.2,49.8-14.2,55.7-23.6L112.1,170.6z"/>
	<path style="fill:none;stroke:#211E1F;stroke-width:4.704;" d="M161.7,146.7c-19,16-35,34.5-47.6,25.6c-0.8-0.6-1.5-1.1-1.9-1.7
		c-8.9-11.5,46.8-26.9,34.2-51.3L161.7,146.7z"/>
	<path style="fill:#FFFFFF;" d="M537.9,164l-6.6,13.6l18.3,5L544,194l-18.5-5l-5.7,11.5l18.5,5l-5.7,11.4l-18.5-5l-5.8,11.5l18.5,5
		l-5.8,11.4l-18.6-4.9l-8.3,15.9c-3.5-1-6.9-2.2-10.2-3.6l43.2-86.1C530.3,162.3,533.8,163.3,537.9,164"/>
	<path style="fill:#FFFFFF;" d="M487.2,168.8c1.3-6.1-12.6-13.4-23.7-22.4l14.8-29.5c5.8,3.2,12.3,8.2,18.9,15.5
		c1.6,1.8,3.2,3.7,4.7,5.5L487.2,168.8"/>
	<path style="fill:#ED1A3B;" d="M454.1,116.2c3.6-4.9,12.8-5.5,24.2,0.6l-14.8,29.5C453.2,138,445.3,128.2,454.1,116.2"/>
	<path style="fill:#ED1A3B;" d="M527.2,161L484,247.1c-12.1-5-22.1-12.1-25.4-17.3l27.8-59.2c0.5-0.6,0.7-1.2,0.8-1.8l14.5-30.9
		C509.1,146.9,515.3,155.9,527.2,161"/>
	<path style="fill:#ED1A3B;" d="M537.9,164c5.8,1,12.6,1.3,20.9,0.6l-9.1,18l-18.3-5L537.9,164"/>
	<polyline style="fill:#ED1A3B;" points="525.5,189 544,194 538.2,205.5 519.8,200.5 525.5,189 	"/>
	<polyline style="fill:#ED1A3B;" points="514.1,211.9 532.5,216.9 526.8,228.3 508.3,223.4 514.1,211.9 	"/>
	<path style="fill:#ED1A3B;" d="M521.1,239.7l-6.8,13.6c-6.5,0.4-13.4-0.7-20.1-2.6l8.3-15.9L521.1,239.7"/>
	<path style="fill:#FFFFFF;" d="M463.7,146.6l-8.2,16.4c-5.8-4.9-12.1-10.7-18.6-16.3l15.3-27.4
		C446.7,129.9,454.2,138.9,463.7,146.6"/>
	<path style="fill:#ED1A3B;" d="M486.4,170.6c-0.5,0.6-1.1,1.2-1.9,1.7c-8.3,5.8-17.9-0.1-29-9.3l8.2-16.4
		C475.9,156.5,491.4,164.2,486.4,170.6"/>
	<path style="fill:none;stroke:#211E1F;stroke-width:4.704;" d="M486.4,170.6c9.2-11.9-51.5-28.2-32.3-54.4
		c5.5-7.4,23.9-5.2,43,16.1c14.7,16.3,21.2,35.7,61.7,32.3l-44.5,88.7c-22.4,1.2-49.8-14.2-55.7-23.6L486.4,170.6z"/>
	<path style="fill:none;stroke:#211E1F;stroke-width:4.704;" d="M436.9,146.7c19,16,34.9,34.5,47.6,25.6c0.8-0.6,1.4-1.1,1.9-1.7
		c8.9-11.5-46.8-26.9-34.2-51.3L436.9,146.7z"/>
	<path style="fill:#FFFFFF;" d="M354.8,143.7c-4,3.2-10.9,7.8-18.6,12.5v61.4c8.7-5.3,17.5-10.9,25.8-15.4v-63.6
		C359.2,140.5,356.6,142.3,354.8,143.7"/>
	<path style="fill:#FFFFFF;" d="M396.1,127.1c-0.4,0-0.7,0.1-1.1,0.1l-8.8,66.3c0.3,0,0.7-0.1,1.1-0.1c7.2,0,13.8,2.4,20.1,6
		l19.6-60.2C417.5,132.2,407.2,127.1,396.1,127.1"/>
	<path style="fill:#FFFFFF;" d="M484.5,172.3c-8.2,5.8-17.8,0-28.7-9.1l-25.5,53.4c10.4,9,19.6,16.4,28.3,13.1l27.8-59.1
		C485.9,171.2,485.3,171.8,484.5,172.3"/>
	<path style="fill:#FFFFFF;" d="M114,172.3c-0.8-0.6-1.5-1.1-1.9-1.7l27.8,59.1c8.7,3.3,18-4.1,28.3-13.1l-25.6-53.4
		C131.8,172.3,122.2,178.1,114,172.3"/>
	<path style="fill:#FFFFFF;" d="M299.3,172.2c-2.6,0-6-0.9-9.8-2.3v61.7c3.6,1.2,6.9,2,9.8,2c2.9,0,6.3-0.7,9.8-2v-61.7
		C305.2,171.3,301.8,172.2,299.3,172.2"/>
	<path style="fill:#FFFFFF;" d="M202.3,127.1c-11,0-21.3,5.1-30.9,12l19.6,60.2c6.2-3.5,12.9-6,20.1-6c0.3,0,0.7,0.1,1,0.1
		l-8.7-66.3C203.1,127.2,202.7,127.1,202.3,127.1"/>
	<path style="fill:#FFFFFF;" d="M243.7,143.7c-1.8-1.5-4.3-3.2-7.2-5.1v63.6c8.3,4.5,17.2,10.1,25.8,15.4v-61.4
		C254.6,151.6,247.7,146.9,243.7,143.7"/>
	<path style="fill:#ED1A3B;" d="M262.3,156.3v61.4c9.7,5.9,19.1,11.3,27.1,14.1v-61.7C281.4,167.1,271.3,161.7,262.3,156.3"/>
	<path style="fill:#ED1A3B;" d="M203.4,127.2l8.7,66.3c6.9,0.3,15.2,3.8,24.3,8.7v-63.6C228.2,133.3,216.2,127.5,203.4,127.2"/>
	<path style="fill:#ED1A3B;" d="M142.7,163.2l25.6,53.4c7-6,14.4-12.6,22.8-17.3l-19.6-60.2C161,146.5,151.4,155.9,142.7,163.2"/>
	<path style="fill:#ED1A3B;" d="M309,169.9v61.7c8.1-2.7,17.5-8.2,27.2-14.1v-61.4C327.3,161.7,317.1,167.1,309,169.9"/>
	<path style="fill:#ED1A3B;" d="M362,138.6v63.6c9.1-4.9,17.4-8.4,24.3-8.7l8.8-66.3C382.3,127.5,370.3,133.3,362,138.6"/>
	<path style="fill:#ED1A3B;" d="M427.1,139.1l-19.6,60.2c8.3,4.6,15.8,11.2,22.8,17.3l25.5-53.4
		C447.1,155.9,437.5,146.5,427.1,139.1"/>
	<path style="fill:none;stroke:#211E1F;stroke-width:4.704;" d="M299.3,233.7c22.2,0,64.8-40.3,88.1-40.3c31,0,52.2,43.5,71.2,36.4
		l27.8-59.1c-0.5,0.6-1.1,1.2-1.9,1.7c-20.9,14.7-50.6-45.3-88.4-45.3c-17.6,0-34,11-41.4,16.7c-11,8.7-43,28.4-55.5,28.4
		c-12.4,0-44.6-19.7-55.5-28.4c-7.3-5.7-23.8-16.7-41.4-16.7c-37.7,0-67.5,60-88.3,45.3c-0.8-0.6-1.5-1.1-1.9-1.7l27.8,59.1
		c19,7.1,40.2-36.4,71.2-36.4C234.5,193.4,277.1,233.7,299.3,233.7z"/>
	<path style="fill:#211E1F;" d="M300.2,111.9c57.4,0,103.9-25.2,103.9-56.2c0-31.1-46.5-56.3-103.9-56.3
		c-57.3,0-103.9,25.2-103.9,56.3C196.3,86.7,242.9,111.9,300.2,111.9"/>
	<path style="fill:none;stroke:#FFFFFF;stroke-width:2.356;" d="M300.2,111.9c57.4,0,103.9-25.2,103.9-56.2
		c0-31.1-46.5-56.3-103.9-56.3c-57.3,0-103.9,25.2-103.9,56.3C196.3,86.7,242.9,111.9,300.2,111.9z"/>
	<path style="fill:#FFC20E;" d="M300.3,102.7c51,0,92.4-21.1,92.4-47.1c0-26-41.4-47.1-92.4-47.1c-51.1,0-92.3,21.1-92.3,47.1
		C208,81.6,249.3,102.7,300.3,102.7"/>
	<path style="fill:none;stroke:#211E1F;stroke-width:2.000000e-003;" d="M300.3,102.7c51,0,92.4-21.1,92.4-47.1
		c0-26-41.4-47.1-92.4-47.1c-51.1,0-92.3,21.1-92.3,47.1C208,81.6,249.3,102.7,300.3,102.7z"/>
	<path style="fill:#FFFFFF;" d="M300.4,91.4c41.5,0,75.2-13.5,75.2-30.1c0-16.6-33.7-30-75.2-30c-41.5,0-75.2,13.5-75.2,30
		C225.2,78,258.9,91.4,300.4,91.4"/>
	<path style="fill:none;stroke:#211E1F;stroke-width:9.436;" d="M300.4,91.4c41.5,0,75.2-13.5,75.2-30.1c0-16.6-33.7-30-75.2-30
		c-41.5,0-75.2,13.5-75.2,30C225.2,78,258.9,91.4,300.4,91.4z"/>
	<path style="fill:#FFFFFF;" d="M300.2,40c-40,0-72.3,32.4-72.3,72.4c0,40,32.3,72.4,72.3,72.4h-0.9c39.9,0,72.4-32.4,72.4-72.4
		c0-39.9-32.4-72.4-72.4-72.4H300.2"/>
	<path style="fill:none;stroke:#211E1F;stroke-width:4.704;" d="M300.2,40c-40,0-72.3,32.4-72.3,72.4c0,40,32.3,72.4,72.3,72.4h-0.9
		c39.9,0,72.4-32.4,72.4-72.4c0-39.9-32.4-72.4-72.4-72.4H300.2z"/>
	<path style="fill:#211E1F;" d="M288.1,172.2l-14.9-25.3l-27.3-4.5l-6.8,8.7c0.3,0.4,0.5,0.9,0.8,1.3l1.2,1.7
		c9.1,12.9,22.3,22.7,37.7,27.4l2.8,0.5L288.1,172.2"/>
	<polyline style="fill:#211E1F;" points="269.5,102.3 281.2,138.4 318.2,138.4 329.9,102.3 299.7,80.4 269.5,102.3 	"/>
	<path style="fill:#211E1F;" d="M299.7,65.8L299.7,65.8L322.2,51v-7.3c-7.1-2.4-14.6-3.7-22.5-3.8c-7.8,0.1-15.4,1.4-22.5,3.8V51
		L299.7,65.8"/>
	<path style="fill:#211E1F;" d="M258,90.8l0.8-28.7l-5.8-4.5c-3.1,2.6-5.9,5.5-8.5,8.6l-0.3,0.3c-8.2,10.1-13.7,22.4-15.6,35.9
		l6.5,2.8L258,90.8"/>
	<path style="fill:#211E1F;" d="M326.2,146.9l-14.9,25.3l6.4,9.9l2.7-0.5c15.7-4.8,29.1-14.9,38.3-28.1l0.6-0.9
		c0.4-0.5,0.6-1.1,1-1.5l-6.9-8.7L326.2,146.9"/>
	<path style="fill:#211E1F;" d="M341.5,90.8l22.9,14.4l6.5-2.8c-1.9-13.6-7.4-26-15.7-36.1l-0.1,0c-2.6-3.2-5.5-6-8.6-8.7l-5.8,4.5
		L341.5,90.8"/>
</g>
</svg>
