<?xml version="1.0" encoding="utf-8"?>
<!-- Generator: Adobe Illustrator 16.0.0, SVG Export Plug-In . SVG Version: 6.00 Build 0)  -->
<!DOCTYPE svg PUBLIC "-//W3C//DTD SVG 1.1//EN" "http://www.w3.org/Graphics/SVG/1.1/DTD/svg11.dtd">
<svg version="1.1" id="Layer_1" xmlns="http://www.w3.org/2000/svg" xmlns:xlink="http://www.w3.org/1999/xlink" x="0px" y="0px"
	 width="600px" height="600px" viewBox="0 0 600 600" style="enable-background:new 0 0 600 600;" xml:space="preserve">
<g>
	<path style="fill-rule:evenodd;clip-rule:evenodd;fill:#FFFFFF;" d="M549.5,410l-0.2-0.2l-24.8-21.7l-5.3-4.8
		c-5-5-12.7-11.1-25.9-10.7c-2.2,0-4.4,0.2-6.5,0.6c2.3-10.5,4-21.6,5-33.3c0.7-8.1,1.1-16.1,1.1-23.9c0-0.2,0-3.1,0-3.1l-0.2-6.3
		l0,0.5V-0.4H111.2v307.5l0-0.5l-0.2,6.3l0,3.1c0,7.8,0.4,15.8,1.1,23.9c1,11.7,2.7,22.8,5,33.3c-2.1-0.4-4.1-0.6-6.2-0.5
		c-13.2-0.4-20.9,5.7-25.9,10.7l-5.3,4.8L55,409.8l-0.2,0.2c-8.5,8.5-9.4,16.8-8.6,22.3c2.3,15.6,22,27.1,24,28.1l11.6-9.1
		c8.2-3.2,12.9,1.3,12.9,1.3c0.8,0.5,3.6,2.7,5.3,11.8l1,5.3c-6.4,5.6-11,9.5-11,9.5l3.9,5.7c11.4,16.6,15.8,21.7,23.2,30.1
		c49.5,55.7,113.2,85.2,184.3,85.2h1.1c71.1,0,134.8-29.5,184.3-85.2c7.4-8.3,11.8-13.5,23.2-30.1l3.9-5.7c0,0-4.4-3.8-10.8-9.3
		l1-5.5c1.7-9.1,4.5-11.3,5.3-11.8c0,0,4.7-4.5,12.9-1.3l11.6,9.1c2-1.1,21.8-12.6,24-28.1C558.9,426.8,558.1,418.5,549.5,410
		L549.5,410z"/>
	<path style="fill-rule:evenodd;clip-rule:evenodd;fill:#1C449B;" d="M519.8,392.4c0,0,12.5,26.8-25.5,29.6l39.2,30.7
		c0,0,31.4-18.3,11.6-38.1L519.8,392.4L519.8,392.4z"/>
	<path style="fill-rule:evenodd;clip-rule:evenodd;fill:#E03A3E;" d="M511.9,409.8c6.9-7.3,0.3-19.6,0.3-19.6s-6-11.3-18.2-10.7
		c-3-0.1-6,0.5-9,1.4c-2.5,9.9-5.5,19.2-9.2,27.8l0,0c-0.5,1.3-4.8,11.7-13.3,25.9c1,0.9,2.6,2.2,4.6,4l29.4,25.4
		c3.6-24.9,17.6-18.8,17.6-18.8l-33-26.3C506.3,417.9,511.9,409.8,511.9,409.8L511.9,409.8z"/>
	<path style="fill-rule:evenodd;clip-rule:evenodd;fill:#1C449B;" d="M84.3,392.7c0,0-12.5,26.8,25.5,29.6L70.6,453
		c0,0-31.4-18.3-11.6-38.1L84.3,392.7L84.3,392.7z"/>
	<path style="fill-rule:evenodd;clip-rule:evenodd;fill:#E03A3E;" d="M92.1,410.1c-6.9-7.3-0.3-19.6-0.3-19.6s6-11.3,18.2-10.7
		c3-0.1,6,0.5,9,1.4c2.5,9.9,5.5,19.2,9.2,27.8l0,0c0.5,1.3,4.8,11.7,13.3,25.9c-1,0.9-2.6,2.2-4.6,4l-29.4,25.4
		c-3.6-24.9-17.6-18.8-17.6-18.8l33-26.3C97.7,418.2,92.1,410.1,92.1,410.1L92.1,410.1z"/>
	<path style="fill-rule:evenodd;clip-rule:evenodd;fill:#1C449B;" d="M452.6,436.2c10.8-16.8,15.9-29.5,16.2-30.3l-0.2,0.4
		c8.1-19.1,13.4-41.7,15.6-67.1c0.7-7.8,1.1-15.7,1.1-23.2c0-1.1,0-2.1,0-3c0-2.2,0-4.1-0.2-5.8c0-0.6,0-299.8,0-299.8H118.9
		c0,0,0,299.2,0,299.8c-0.1,1.7-0.1,3.6-0.1,5.8c0,1,0,2,0,3c0,7.6,0.4,15.4,1.1,23.2c2.2,25.3,7.4,47.7,15.5,66.8
		c0.6,1.6,5.7,14,16.1,30.3l-51.1,44.2c11.4,16.6,15.6,21.4,22.6,29.3c48,54,109.7,82.6,178.5,82.6h1.1
		c68.8,0,130.5-28.6,178.5-82.6c7-7.9,11.3-12.8,22.6-29.3L452.6,436.2L452.6,436.2z"/>
	<path style="fill-rule:evenodd;clip-rule:evenodd;fill:#FFFFFF;" d="M302,24.2H135.7v283.2c0,0-2.7,50.2,15.2,92.3
		c0,0,42.6,108.7,150.5,108.7h0.6c107.9,0,151.1-108.7,151.1-108.7c17.9-42.1,15.2-92.3,15.2-92.3V24.2H302L302,24.2z"/>
	<polygon style="fill-rule:evenodd;clip-rule:evenodd;fill:#E03A3E;" points="271.2,185.2 332.6,185.2 332.6,425.2 271.2,425.2 
		271.2,185.2 	"/>
	<path style="fill-rule:evenodd;clip-rule:evenodd;fill:#E03A3E;" d="M220.8,94.4V54c-8.3,0.4-16,2.4-23.5,5.8l4.8-15h59.6
		l-6.4,13.3c-5.1-2.6-10.8-3.9-17.6-4.1v40.4c0,6.4,0.9,12.1,3.4,17.5h-23.7C219.9,106.5,220.8,100.8,220.8,94.4L220.8,94.4z"/>
	<path style="fill-rule:evenodd;clip-rule:evenodd;fill:#E03A3E;" d="M335.5,94.4V62.3c0-6.4-0.9-12.1-3.4-17.5h23.7
		c-2.6,5.4-3.4,11.1-3.4,17.5v12.9L372.9,52c2-2.3,3.1-4.3,3.1-6.4c0-0.3-0.1-0.5-0.1-0.8h26.5c-6.3,3.9-11.2,7.5-14.4,10.9
		l-17.6,19.1l23.9,28.2c2.2,2.7,5.3,5.6,9.3,9h-26.5c0.1-0.8,0.2-1.6,0.2-2.3c0-2.7-1.2-4.8-3.3-7.4l-21.6-25.9v18.1
		c0,6.4,0.9,12.1,3.4,17.5h-23.7C334.7,106.5,335.5,100.8,335.5,94.4L335.5,94.4z"/>
	<path style="fill-rule:evenodd;clip-rule:evenodd;fill:#E03A3E;" d="M410,94.4V62.3c0-6.4-0.8-12.1-3.4-17.5h45.8l-7.6,13.1
		c-4.8-1.9-10.7-2.8-17.9-3v18.5h23.2l-8.6,12.2c-3.3-2-7.7-2.9-13-2.9c-0.5,0-1,0-1.5,0v19.2c2.2,0.1,4.5,0.2,6.6,0.2
		c9.6,0,17.6-1.1,24.3-3.6l-6.4,13.4h-44.8C409.2,106.5,410,100.8,410,94.4L410,94.4z"/>
	<path style="fill-rule:evenodd;clip-rule:evenodd;fill:#E03A3E;stroke:#E03A3E;stroke-width:0.6565;" d="M251.7,133.7
		c-9.2,0-15.7,6.1-15.7,15.6c0,9.7,6.8,15.9,16.9,15.9c5.7,0,9.9-1.9,13.8-6l-1.5,10.2c-4.9,1.8-10,2.8-15.6,2.8
		c-6.2,0-11.5-1.4-15.8-4.3c-6.4-4.2-9.5-9.8-9.5-16.9c0-7.4,3.5-13.9,9.8-18.4c5.6-3.9,12.3-6,19.8-6c3.7,0,7.8,0.6,12,1.8v11.1
		C261.4,135.6,256.8,133.7,251.7,133.7L251.7,133.7L251.7,133.7z"/>
	<path style="fill-rule:evenodd;clip-rule:evenodd;fill:#E03A3E;stroke:#E03A3E;stroke-width:0.6565;" d="M275.3,160v-21.4
		c0-4.3-0.5-8-2.2-11.6h15.2c-1.6,3.6-2.2,7.4-2.2,11.6V160c0,4.2,0.6,8,2.2,11.6h-15.2C274.7,168,275.3,164.2,275.3,160L275.3,160
		L275.3,160z"/>
	<path style="fill-rule:evenodd;clip-rule:evenodd;fill:#E03A3E;stroke:#E03A3E;stroke-width:0.6565;" d="M307.4,160v-26.9
		c-5.4,0.3-10.3,1.6-15.1,3.8l3.1-10h38.3l-4.1,8.8c-3.3-1.7-6.9-2.6-11.3-2.7V160c0,4.2,0.5,8,2.2,11.6h-15.2
		C306.8,168,307.4,164.2,307.4,160L307.4,160L307.4,160z"/>
	<path style="fill-rule:evenodd;clip-rule:evenodd;fill:#E03A3E;stroke:#E03A3E;stroke-width:0.6565;" d="M367.1,171.6h-15.2
		c1.6-3.6,2.2-7.4,2.2-11.6v-9.3l-11.5-16.3c-1.9-2.6-3.9-5.1-6.2-7.4h15.2c-0.1,0.4-0.1,0.7-0.1,1c0,1.1,0.3,2.1,0.8,2.8l7.8,11.5
		l6.5-10.7c0.6-1.1,1-2.2,1-3.3c0-0.5-0.1-0.9-0.1-1.4h13.9c-2.6,2.3-4.8,4.8-6.7,7.6l-9.6,14.3V160
		C364.9,164.2,365.5,168,367.1,171.6L367.1,171.6L367.1,171.6z"/>
	<path style="fill-rule:evenodd;clip-rule:evenodd;fill:#E03A3E;" d="M292.6,52.4c-10.9,0-15.9,12.6-15.9,25.8
		c0,13.2,5,25.8,15.9,25.8c10.8,0,15.9-12.6,15.9-25.8C308.5,64.9,303.5,52.4,292.6,52.4L292.6,52.4z M327.7,78.4
		c0,22.2-15.7,34.1-35,34.1c-19.3,0-35-11.3-35-34.1c0-18.9,15.7-34.1,35-34.1C312,44.3,327.7,59.6,327.7,78.4L327.7,78.4
		L327.7,78.4z"/>
	<path style="fill-rule:evenodd;clip-rule:evenodd;fill:#1C449B;" d="M275.6,474c0-7.7,1.7-11.5,5.4-11.5c3.6,0,5.4,3.8,5.4,11.5
		c0,7.6-1.9,11.4-5.4,11.4C277.1,485.5,275.6,481.8,275.6,474L275.6,474z M287.5,459.9c4.9-1.6,7.5-5.6,7.5-11.1
		c0-7.9-4.8-12.3-13.6-12.3c-9.1,0-14.5,4.9-14.5,12.3c0,5.6,2.7,9.6,7.5,11v0.5c-6.1,1.6-9.3,6.5-9.3,14.1
		c0,9.4,5.7,13.5,15.8,15.4c10.1,2,15.8-2.9,15.8-12.4c0-6.9-3.3-15.6-9.3-17.1V459.9L287.5,459.9z M275.9,449.6
		c0-5.9,1.7-8.9,5.1-8.9c3.6,0,5,2.8,5,8.9c0,5.9-1.7,8.8-5,8.8C277.6,458.5,275.9,455.6,275.9,449.6L275.9,449.6L275.9,449.6z"/>
	<path style="fill:none;stroke:#1C449B;stroke-width:0.7493;" d="M275.6,474c0-7.7,1.7-11.5,5.4-11.5c3.6,0,5.4,3.8,5.4,11.5
		c0,7.6-1.9,11.4-5.4,11.4C277.1,485.5,275.6,481.8,275.6,474L275.6,474L275.6,474z M287.5,459.9c4.9-1.6,7.5-5.6,7.5-11.1
		c0-7.9-4.8-12.3-13.6-12.3c-9.1,0-14.5,4.9-14.5,12.3c0,5.6,2.7,9.6,7.5,11v0.5c-6.1,1.6-9.3,6.5-9.3,14.1
		c0,9.4,5.7,13.5,15.8,15.4c10.1,2,15.8-2.9,15.8-12.4c0-6.9-3.3-15.6-9.3-17.1V459.9L287.5,459.9z M275.9,449.6
		c0-5.9,1.7-8.9,5.1-8.9c3.6,0,5,2.8,5,8.9c0,5.9-1.7,8.8-5,8.8C277.6,458.5,275.9,455.6,275.9,449.6L275.9,449.6L275.9,449.6z"/>
	<path style="fill-rule:evenodd;clip-rule:evenodd;fill:#1C449B;" d="M312.3,462c0-0.1,0-0.2,0-0.2c0-12.8,2.7-20.3,8.5-20.3
		c2.8,0,4.9,1.5,6.8,4.6l0.4-0.2c0.1-2.4,0.5-4.9,0.9-7.6c-2.6-1.2-8-1.8-10.7-1.8c-12.7,0-16.9,14.4-16.9,34.1
		c0,15,5.7,22.2,16.2,20.6c9.6-1.5,15.5-6.9,15.5-18.3c0-9.4-4.6-14.9-11.8-14.9C317.2,457.9,314,459.5,312.3,462L312.3,462z
		 M322.2,474.9c0,8.1-1.6,12.1-4.8,12.1c-3.3,0-5-4.1-5-12.4c0-7.4,1.6-11,4.9-11C320.9,463.6,322.2,467.2,322.2,474.9L322.2,474.9
		L322.2,474.9z"/>
	<path style="fill:none;stroke:#1C449B;stroke-width:0.7567;" d="M312.3,462v-0.2c0-12.8,2.7-20.3,8.5-20.3c2.8,0,4.9,1.5,6.8,4.6
		l0.4-0.2c0.1-2.4,0.5-4.9,0.9-7.6c-2.6-1.2-8-1.8-10.7-1.8c-12.7,0-16.9,14.4-16.9,34.1c0,15,5.7,22.2,16.2,20.6
		c9.6-1.5,15.5-6.9,15.5-18.3c0-9.4-4.6-14.9-11.8-14.9C317.2,457.9,314,459.5,312.3,462L312.3,462L312.3,462z M322.2,474.9
		c0,8.1-1.6,12.1-4.8,12.1c-3.3,0-5-4.1-5-12.4c0-7.4,1.6-11,4.9-11C320.9,463.6,322.2,467.2,322.2,474.9L322.2,474.9L322.2,474.9z"
		/>
	<path style="fill-rule:evenodd;clip-rule:evenodd;fill:#1C449B;stroke:#1C449B;stroke-width:0.6274;" d="M339.3,477
		c1.7,3.2,6.2,3.5,6.2,3.5c9.3-0.4,8.2-15,8.2-15c-1-7.6-6.7-6.6-11.3-6.2c-0.8,0.1-1.9,0.2-2.6,0.3l0.2-5.5c0.5,0,1,0,1.5,0
		c4.9-0.5,8.3-1.9,9.2-6.8c0.6-3,0-7.6-5-7.4c-5.7,0.2-6.5,4.3-8.2,6.5l-0.7-0.4l-0.6-6.5c2.9-3.5,10.3-4,10.3-4
		c7.6-0.7,13.5,3.5,14,9.5c0.4,4.4-1.2,6.2-6.6,8.7l0,0.4c6.3-0.4,8.8,1.7,10.3,6.2c2.4,7.1,1.6,25.5-29.6,26.9c0,0,2.5-2.8,3.4-9.8
		L339.3,477L339.3,477z"/>
	<path style="fill-rule:evenodd;clip-rule:evenodd;fill:#1C449B;stroke:#1C449B;stroke-width:0.6755;" d="M260.1,484.4
		c-5.2-2-13.1-6.2-13.1-6.2c0.4-4.2,1.4-13.2,1.4-28.1c0-1.7-0.1-2.8-0.3-5.2c-2.5,1-1.5,0.2-4,1.6l-2.7-4.2c6.6-2.2,9.4-2.5,15.9-6
		l1.3,0.7c-0.2,13.4-0.1,20.9-0.1,25.3c0,5.5,0.7,14.4,1.2,19.9C259.9,483.4,260.1,484.4,260.1,484.4L260.1,484.4z"/>
	<path style="fill-rule:evenodd;clip-rule:evenodd;fill:#E03A3E;" d="M212.9,457.5c-4.8-4.2-9.4-8.8-13.9-13.9
		c-22.2-24.6-32.3-49.9-32.4-50.2l-0.1-0.2l-0.1-0.2c-12.6-29.7-14-64.7-14-78.7c0-3.8,0.1-6.1,0.1-6.2l0-0.5c0,0,0-52,0-181.7h60.3
		L212.9,457.5L212.9,457.5z"/>
	<path style="fill-rule:evenodd;clip-rule:evenodd;fill:#E03A3E;" d="M391.1,457.5c4.8-4.2,9.4-8.8,13.9-13.9
		c22.2-24.6,32.3-49.9,32.4-50.2l0.1-0.2l0.1-0.2c12.6-29.7,14-64.7,14-78.7c0-3.8-0.1-6.1-0.1-6.2l0-0.5c0,0,0-52,0-181.7h-60.3
		L391.1,457.5L391.1,457.5z"/>
	<path style="fill-rule:evenodd;clip-rule:evenodd;fill:#FFFFFF;" d="M251,549.9c0.6,0.2,1.2,0.4,1.8,0.5c9,2.3,14.5-0.4,16.6-8.4
		c1.8-7.1-1.1-11-8.7-13c-3.2-0.8-6.2-1.3-9-2c-1-0.3-2.3-0.7-3.7-1.3c-1.3,7-2.8,13.4-4.3,18.9c-1.3,5-2.9,11.2-5.4,18.5
		c1.9,0.3,3.5,0.6,4.7,0.9c1.3,0.3,2.7,0.8,4.5,1.5c0.8-4.7,1.4-7.4,1.6-8.3L251,549.9L251,549.9z M252,546l2.2-8.4
		c0.4-1.4,0.6-2.5,0.8-3.1c0.1-0.3,0.3-1.1,0.7-2.5c0.9,0.1,1.5,0.2,1.8,0.3c3.6,0.9,4.9,3.7,3.7,8C259.7,545.8,257.1,547.3,252,546
		L252,546L252,546z"/>
	<path style="fill-rule:evenodd;clip-rule:evenodd;fill:#FFFFFF;" d="M276,553.6c0,12.6,6.8,19.5,18.9,19.5c12.5,0,19.7-7.7,19.7-21
		c0-12.3-7-19.2-18.8-19.2C283.5,532.9,276,540.4,276,553.6L276,553.6z M285.1,553c0-10.5,4-16.5,10.2-16.5
		c6.1,0,10.2,5.8,10.2,16.4c0,10.5-4.1,16.4-10.2,16.4C289.2,569.4,285.1,563.6,285.1,553L285.1,553L285.1,553z"/>
	<path style="fill-rule:evenodd;clip-rule:evenodd;fill:#FFFFFF;" d="M336.5,535.5c0.3,3.1,0.8,5.8,1.2,7.9c0.1,0.8,0.3,1.6,0.4,2.3
		c1.4,8.1,2.7,15.8,4.6,23.2c-2.2,0.2-3.8,0.4-4.8,0.5c-1.2,0.2-2.7,0.6-4.7,1.1c-0.6-7-1.6-13.3-2.6-19.1
		c-0.5-3.1-1.5-7.9-2.8-14.3c-3,0.5-6,1.3-8.8,2.2c-0.1-1.1-0.2-2.1-0.3-2.9c-0.1-0.5-0.3-1.3-0.6-2.4c5.4-0.7,9.9-1.3,13.3-1.9
		c3.3-0.6,7.6-1.5,13.1-2.7c0.1,1.2,0.2,2,0.3,2.5c0.1,0.8,0.4,1.8,0.6,2.9C342.6,534.7,339.5,535,336.5,535.5L336.5,535.5z"/>
	<path style="fill-rule:evenodd;clip-rule:evenodd;fill:#FFFFFF;" d="M368.7,526.1c0.9,3.1,1.7,5.6,2.4,7.6c0.3,0.8,0.5,1.6,0.8,2.2
		c2.7,7.8,5.3,15.2,8.3,22.1c-2.1,0.6-3.7,1-4.6,1.3c-1.2,0.4-2.6,1-4.4,1.8c-1.8-6.8-3.8-12.9-5.7-18.5c-1-2.9-2.8-7.5-5.1-13.7
		c-2.9,1-5.7,2.2-8.4,3.6c-0.3-1-0.5-2-0.8-2.8c-0.2-0.5-0.5-1.2-1-2.3c5.2-1.6,9.6-2.9,12.8-4.1c3.1-1.1,7.3-2.7,12.5-4.8
		c0.3,1.2,0.5,1.9,0.7,2.4c0.3,0.8,0.7,1.7,1.1,2.7C374.5,524.3,371.6,525.1,368.7,526.1L368.7,526.1z"/>
	<path style="fill-rule:evenodd;clip-rule:evenodd;fill:#FFFFFF;" d="M393.6,534.3c-0.6-1.1-1.3-2.3-1.9-3.4
		c-0.4-0.7-0.8-1.4-1.1-2.1c-2.7-5-5.5-9.9-8.7-14.6c4.3-2.1,7.2-3.6,8.7-4.5c2.4-1.3,5.5-3.1,9.1-5.3c0.4,1,0.8,1.8,1,2.3
		c0.3,0.5,0.8,1.2,1.4,2.1c-2.6,1.1-4.9,2.2-7.1,3.5c-1,0.5-1.9,1.1-2.8,1.6c1.3,2.5,2.6,5,3.9,7.4l1.4,2.6c2.4-1.4,5.5-3.3,9.4-5.7
		c0.4,1.1,0.8,1.9,1.1,2.4c0.2,0.4,0.7,1.1,1.4,2.2c-3.4,1.6-6.7,3.2-9.9,4.8l3,5.4c1.4,2.5,2.6,4.6,3.8,6.5c3-1.7,6.1-3.5,9.3-5.8
		c0.4,1,0.8,1.8,1.1,2.4c0.2,0.4,0.8,1.2,1.5,2.2c-5.1,2.6-8.9,4.5-11.2,5.8c-1.7,0.9-3.9,2.2-6.5,3.9
		C398.4,543.1,396,538.6,393.6,534.3L393.6,534.3z"/>
	<path style="fill-rule:evenodd;clip-rule:evenodd;fill:#FFFFFF;" d="M429.8,529.4c1.4-1.3,2.5-2.3,3.4-3c0.9-0.7,2.1-1.5,3.7-2.5
		c-2.4-2.6-4.7-5.4-6.9-8.2l-4.6-5.8c8.9,3.5,15.1,6.4,18.6,8.5c1.4-1.3,2.6-2.4,3.7-3.3c0.9-0.7,2.5-1.8,4.5-3.1
		c-5.7-2-12.6-4.7-20.6-8.4c3.5-3.3,3.7-8,0.3-12.3c-4.4-5.6-9.1-5.6-15-1c-2.9,2.3-5.3,4.6-7.7,6.5c-0.9,0.7-2,1.4-3.1,2.2
		c4.9,5.3,9,10.4,12.4,14.9c0.4,0.5,0.8,1,1.2,1.6C422.6,519.1,426.1,523.7,429.8,529.4L429.8,529.4z M423.6,507.5l-4.8-6.2
		c-1-1.2-2.3-2.9-3.8-5.1c0.6-0.4,0.9-0.6,1-0.7c3.6-2.8,6.5-2.6,9.4,1.1c3.2,4.2,2.7,7.4-1.7,10.8
		C423.7,507.4,423.7,507.5,423.6,507.5L423.6,507.5L423.6,507.5z"/>
	<path style="fill-rule:evenodd;clip-rule:evenodd;fill:#FFFFFF;" d="M452.3,495.3l0.6-0.6c4.2,2.6,7.6,2.3,10.4-0.9
		c2.6-2.9,2.5-6.1-0.1-8.3c-2.5-2.2-5-1.3-9.4,0.4c-6.4,2.5-10.5,3.4-15.1-0.7c-5.4-4.8-5.9-11.5-0.4-17.7c2.2-2.5,4.7-4.3,7.7-5.2
		c1.3,2.3,2.7,4.4,4.2,6.4l-0.4,0.5c-4-1.7-6.9-1.3-9.2,1.3c-2.4,2.7-2.1,5.7,0,7.5c2.5,2.2,5,0.8,10.1-1.1c5.9-2.2,9.8-3.3,14.7,1
		c6,5.2,6.2,12.4,0.1,19.3c-2.3,2.6-4.8,4.4-7.3,5.5C456.1,500,454.1,497.6,452.3,495.3L452.3,495.3z"/>
	<path style="fill-rule:evenodd;clip-rule:evenodd;fill:#E03A3E;" d="M190,77.6c-2.3-1.7-8-4.4-14.6-8.1c-5.2-3-9.2-5.6-9.1-9.2
		c0.1-3.9,3.7-7.3,9.8-7.1c6.2,0.2,12.6,4.3,17.3,10.1l-0.2-16.8c-4.2-1.3-8.5-2-13-2.1c-18.2-0.6-29.5,7-30,19
		c-0.3,7.7,4.7,12.7,14.2,18c8.6,4.8,15.8,7,16.1,13h0c-0.2,4.4-4.2,8.2-10.6,7.9c-6.5-0.2-13.1-4.7-18-11.1l0.2,18.9
		c4.4,1.4,10,2.2,14.7,2.4c19.1,0.6,30.6-7.9,31.1-21.4C197.9,85.6,195.4,81.4,190,77.6L190,77.6z"/>
	<path style="fill-rule:evenodd;clip-rule:evenodd;fill:#FFFFFF;" d="M162.8,473.5c-2.4,2.1-4.3,4-5.9,5.4c-0.6,0.6-1.2,1.1-1.7,1.6
		c-5.9,5.8-11.5,11.2-16.5,16.9c-1.4-1.7-2.5-2.9-3.1-3.6c-0.9-0.9-2-1.9-3.5-3.2c5.4-4.5,10.1-8.8,14.3-13
		c2.2-2.2,5.7-5.7,10.3-10.4c-2.1-2.2-4.4-4.2-6.8-6c0.8-0.7,1.6-1.3,2.2-1.9c0.4-0.4,0.9-1,1.6-1.9c3.7,4.1,6.7,7.4,9.1,9.9
		c2.3,2.4,5.5,5.5,9.6,9.3c-0.9,0.8-1.5,1.3-1.9,1.6c-0.6,0.6-1.3,1.3-2,2.2C166.9,478,164.9,475.7,162.8,473.5L162.8,473.5z"/>
	<path style="fill-rule:evenodd;clip-rule:evenodd;fill:#FFFFFF;" d="M164.5,499.7c0.5-0.6,1-1.2,1.4-1.7c3.6-4.3,7.6-9.3,11.9-15.3
		c1.4,1.5,2.5,2.6,3.3,3.2c1,0.8,2.3,1.7,3.9,2.7c-2.1,2.2-4.1,4.5-6,6.8l-3.9,4.8c2.4,2.2,4.1,3.6,5,4.4c1.6,1.3,3.5,2.7,5.7,4.4
		l3.9-4.8c1.9-2.3,3.7-4.7,5.4-7.3c1.5,1.5,2.7,2.7,3.4,3.3c0.8,0.7,2.1,1.5,3.8,2.6c-5,5.2-9.1,10.2-12.7,14.6
		c-0.4,0.5-0.9,1.1-1.4,1.7c-2.9,3.5-6.5,7.9-10.4,13.5c-1.4-1.3-2.5-2.4-3.4-3.2c-1-0.8-2.2-1.7-3.9-2.8c2-2,3.9-4.1,5.7-6.3
		l6.4-7.8c-2.1-1.9-3.9-3.4-5.4-4.7c-1-0.9-2.8-2.2-5.2-4.1l-6.4,7.8c-1.8,2.2-3.5,4.4-5.1,6.7c-1.4-1.4-2.5-2.5-3.5-3.3
		c-0.9-0.8-2.2-1.7-3.7-2.7C157.9,507.6,161.6,503.3,164.5,499.7L164.5,499.7z"/>
	<path style="fill-rule:evenodd;clip-rule:evenodd;fill:#FFFFFF;" d="M199.6,528.7c0.6-1.1,1.2-2.3,1.9-3.4c0.4-0.7,0.8-1.4,1.1-2.1
		c2.7-5,5.3-9.9,7.5-15.2c4.1,2.4,6.9,4.1,8.5,4.9c2.4,1.3,5.6,2.9,9.4,4.8c-0.6,0.9-1.1,1.6-1.4,2.1c-0.3,0.5-0.6,1.3-1,2.3
		c-2.3-1.6-4.5-2.9-6.8-4.1c-1-0.5-1.9-1.1-2.9-1.5c-1.4,2.4-2.8,4.9-4.1,7.2l-1.4,2.6c2.5,1.2,5.8,2.8,9.9,4.8
		c-0.7,1-1.2,1.8-1.4,2.3c-0.2,0.4-0.6,1.2-1.1,2.4c-3.2-2-6.3-3.9-9.4-5.7l-2.9,5.4c-1.4,2.5-2.5,4.7-3.4,6.7
		c3,1.6,6.3,3.2,9.9,4.6c-0.6,0.9-1,1.6-1.4,2.3c-0.2,0.4-0.6,1.3-1.1,2.4c-5-2.9-8.7-5-10.9-6.2c-1.7-0.9-4-2.1-6.8-3.4
		C194.8,537.5,197.2,533,199.6,528.7L199.6,528.7z"/>
</g>
</svg>
