<?xml version="1.0" encoding="utf-8"?>
<!-- Generator: Adobe Illustrator 16.0.0, SVG Export Plug-In . SVG Version: 6.00 Build 0)  -->
<!DOCTYPE svg PUBLIC "-//W3C//DTD SVG 1.1//EN" "http://www.w3.org/Graphics/SVG/1.1/DTD/svg11.dtd">
<svg version="1.1" id="Layer_1" xmlns="http://www.w3.org/2000/svg" xmlns:xlink="http://www.w3.org/1999/xlink" x="0px" y="0px"
	 width="600px" height="600px" viewBox="0 0 600 600" style="enable-background:new 0 0 600 600;" xml:space="preserve">
<g>
	<polygon style="fill-rule:evenodd;clip-rule:evenodd;fill:#FFFFFF;" points="-0.2,0 599.8,0 599.8,600 -0.2,600 -0.2,0 	"/>
	<polygon style="fill-rule:evenodd;clip-rule:evenodd;fill:#231F20;" points="264.3,215.4 259.6,215.4 259.6,160.9 264.3,160.9 
		264.3,215.4 	"/>
	<polygon style="fill-rule:evenodd;clip-rule:evenodd;fill:#231F20;" points="338.5,215.4 333.9,215.4 333.9,160.9 338.5,160.9 
		338.5,215.4 	"/>
	<path style="fill-rule:evenodd;clip-rule:evenodd;fill:#231F20;" d="M245,178.1c0,0,13,5.5,12.8,13c-0.2,7.7-17.6,20.6-30-0.4v8.4
		c0,0,9.7,13.1,21,11.5c11.1-1.6,15.5-9.2,14.3-19.6c-1.1-10.2-5.2-12.5-10.7-15.8L245,178.1L245,178.1z"/>
	<path style="fill-rule:evenodd;clip-rule:evenodd;fill:#231F20;" d="M353.8,178.1c0,0-13,5.5-12.8,13c0.2,7.7,17.6,20.6,30-0.4v8.4
		c0,0-9.7,13.1-21,11.5c-11.1-1.6-15.5-9.2-14.3-19.6c1.1-10.2,5.2-12.5,10.7-15.8L353.8,178.1L353.8,178.1z"/>
	<path style="fill-rule:evenodd;clip-rule:evenodd;fill:#231F20;" d="M228.9,153.1c0,0-9.5,0.9-12.6,10.9c5.3-0.9,8.6-1.3,8.6-1.3
		S223.8,158.8,228.9,153.1L228.9,153.1z"/>
	<path style="fill-rule:evenodd;clip-rule:evenodd;fill:#FFFFFF;" d="M218,163.9c0,0,2-6.7,8.2-9.1c-2.1,3.4-2.5,6.3-2.5,8.3
		L218,163.9L218,163.9z"/>
	<path style="fill-rule:evenodd;clip-rule:evenodd;fill:#EC1C24;" d="M228.7,193.8c0,0,7.2,10.9,17.1,9.3
		c9.1-1.5,15.2-8.9,12.7-15.3c-2.4-6.1-10.6-9.8-10.6-9.8l4.7-1.5c0,0,9.2,3.4,9.6,16c0.3,10.9-6,17.3-15.6,16.9
		c-9.6-0.4-16.1-8.6-18.1-10.7L228.7,193.8L228.7,193.8z"/>
	<path style="fill-rule:evenodd;clip-rule:evenodd;fill:#231F20;" d="M369.9,153.1c0,0,9.5,0.9,12.6,10.9c-5.3-0.9-8.6-1.3-8.6-1.3
		S375,158.8,369.9,153.1L369.9,153.1z"/>
	<path style="fill-rule:evenodd;clip-rule:evenodd;fill:#FFFFFF;" d="M380.9,163.9c0,0-2-6.7-8.2-9.1c2.1,3.4,2.5,6.3,2.5,8.3
		L380.9,163.9L380.9,163.9z"/>
	<path style="fill-rule:evenodd;clip-rule:evenodd;fill:#EC1C24;" d="M370.1,193.8c0,0-7.2,10.9-17.1,9.3
		c-9.1-1.5-15.2-8.9-12.7-15.3c2.4-6.1,10.6-9.8,10.6-9.8l-4.7-1.5c0,0-9.2,3.4-9.6,16c-0.3,10.9,6,17.3,15.6,16.9
		c9.6-0.4,16.1-8.6,18.1-10.7L370.1,193.8L370.1,193.8z"/>
	<path style="fill-rule:evenodd;clip-rule:evenodd;fill:#231F20;" d="M337.7,146.4c8.9,21.3-1.2,45.8-22.6,54.6
		c-21.4,8.9-45.9-1.2-54.8-22.5c-8.9-21.3,1.2-45.8,22.6-54.6C304.3,115,328.8,125.1,337.7,146.4L337.7,146.4L337.7,146.4z
		 M297,158.6c0,0-2.2-15.9-3.5-29.5c-6.5-0.8-14.5,5.6-14.5,5.6L297,158.6L297,158.6L297,158.6z M301.3,169.3c0,0,2.2,15.9,3.5,29.5
		c6.5,0.8,14.5-5.6,14.5-5.6L301.3,169.3L301.3,169.3L301.3,169.3z M294,165.4c0,0-15.9,2.2-29.6,3.4c-0.8,6.5,5.6,14.5,5.6,14.5
		L294,165.4L294,165.4L294,165.4z M304.8,161.2c0,0,15.9-2.2,29.6-3.4c0.8-6.5-5.6-14.5-5.6-14.5L304.8,161.2L304.8,161.2
		L304.8,161.2z M294.1,161.9c0,0-12.8-9.7-23.4-18.4c-5.2,4-6.3,14.2-6.3,14.2L294.1,161.9L294.1,161.9L294.1,161.9z M304.7,166.5
		c0,0,12.8,9.7,23.4,18.4c5.2-4,6.3-14.2,6.3-14.2L304.7,166.5L304.7,166.5L304.7,166.5z M296.8,168.9c0,0-9.7,12.8-18.5,23.3
		c4,5.2,14.2,6.3,14.2,6.3L296.8,168.9L296.8,168.9L296.8,168.9z M301.5,158.3c0,0,9.7-12.8,18.5-23.3c-4-5.2-14.2-6.3-14.2-6.3
		L301.5,158.3L301.5,158.3z"/>
	<path style="fill-rule:evenodd;clip-rule:evenodd;fill:#231F20;" d="M298.3,73.4c-3.1,0-2.4,4.7-1.8,8.6c0.5,3.8,4.1,13-1.8,16.4
		c-4.6,2.7-7.7,1.1-12.6-0.2c-4.6-1.2-4.5,2.6-4,4.2c0.6,1.9,6.2,5.5,12.6,7.5c6.4,2,4.8,6.9,2.2,9.5c-2.6,2.6-7.1,2-9.3,2
		s-9.5-1.8-12.6-1.8c-3.1,0-7.3-0.5-10.1,1.8c7.1-1.8,20.7,0.8,21.4,1.1c5.6,2.8,6,5.3,6.6,8.9c0.6,4.6-4.6,12.2-14.3,13.1
		c-9.7,0.9-15.4-7.5-19-11.9c-4.8,2.6-9.1,5.7-9.1,10.8c0,5.1,5.1,5.3,15.7,5.7c10.6,0.4,12.4,7.7,12.4,7.7l-18.5,1.8
		c0,0-2-2.4-5.3-5.1c-3.3-2.7-8.2-6.6-9.3-15.5c-1.1-8.9,7-11.7,12.8-14.8c2-9.9,9.5-10.4,15-10.6c5.5-0.2,11.7,5.5,15.9,6.8
		c4.2,1.3,3.3-3.5,2.7-5.5c-0.5-2-4.1-4-10.7-6.9c-2.9-1.3-4.3-5.3-2.5-8.4c1.9-3.2,4.4-3.1,8.6-3.5c4.2-0.4,5.9-0.2,7.7-1.4
		c2.3-1.6,3-2.9,2.5-11.9c-0.5-10,4.6-10,4.6-10L298.3,73.4L298.3,73.4L298.3,73.4z M278.3,136.9c4.1-0.9,8.2-2.9,7.5-5.3
		c-0.7-2.4-4.2-3.3-12.4-3.5c-8.2-0.2-14.3,3.1-14.3,3.1C270.1,139.3,276.7,137.3,278.3,136.9L278.3,136.9z"/>
	<path style="fill-rule:evenodd;clip-rule:evenodd;fill:#EC1C24;" d="M245.9,146.9c0,0-6.3-9.9-1.1-16.1c5.2-6.2,14-8,17.7-8.4
		c3.8-0.4,14.7-0.4,18.2,1.1c3.5,1.5,6.6,3.7,7,7.4c-3.4-2.5-8-4.2-15.2-3.8c-7.3,0.4-14.8,1.9-19.8,5.7
		C247.7,136.6,244,139.5,245.9,146.9L245.9,146.9z"/>
	<path style="fill-rule:evenodd;clip-rule:evenodd;fill:#FFFFFF;" d="M247,147.8c0,0,3.7,2.2,7.9,2.2c4.2,0,14.9-0.8,17.6,5.8
		c-3.5,0.4-15.8,1.5-15.8,1.5s-2.5-3.3-4.7-4.6C249.7,151.6,248.7,150.2,247,147.8L247,147.8z"/>
	<path style="fill-rule:evenodd;clip-rule:evenodd;fill:#FFFFFF;" d="M256.7,132.2l1.3-0.7c0,0,8.3,7.9,16.3,7
		c8-0.9,12.4-2.6,12.6-6.9c0.5,0.6,0.9,0.6,0.9,0.6s-1,10.2-14,11C263.8,143.9,256.7,132.2,256.7,132.2L256.7,132.2z"/>
	<path style="fill-rule:evenodd;clip-rule:evenodd;fill:#FFFFFF;" d="M255.7,122.7l3.4-1c0,0,3.1-3.7,7.8-3.3
		c4.7,0.4,8.3,0.6,11.6,1.4c3.3,0.8,3.8,1,6.7,0.7c-4.3-1.8-8.4-4.3-10.1-5.4c-1.7-1.1-6.2-1.7-9.8-1.3
		C261.6,114.2,257.1,116.5,255.7,122.7L255.7,122.7z"/>
	<path style="fill-rule:evenodd;clip-rule:evenodd;fill:#EC1C24;" d="M284.5,109c0,0,4.4,1.4,6.3,2.1c2.1,0.8,3.5,2.3,3.2,4.2
		c-0.3,1.9-2.5,5.1-6.7,5.1c2.8-2.8,2.6-4.6,1.9-6.3C288.4,112.3,287.2,110.8,284.5,109L284.5,109z"/>
	<path style="fill-rule:evenodd;clip-rule:evenodd;fill:#FFFFFF;" d="M282,107.5c0,0-5.8-3-5-6.4c0.8-3.4,1.3-3.8,1.3-3.8
		s-3.3,0.4-3.3,3.3S276.3,106.6,282,107.5L282,107.5z"/>
	<path style="fill-rule:evenodd;clip-rule:evenodd;fill:#EC1C24;" d="M280.2,96.6c0,0,2.5-0.9,6.1-0.8c3.6,0.1,8.4-1.2,8.4-6.2
		c0-5-0.6-11.4,0.3-12.8c0,0,0.4,5.4,1.2,8.5c0.8,3,1.3,10.4-1.6,12c-2.9,1.5-5.3,2.1-8.9,0.8C282,96.8,281.1,96.3,280.2,96.6
		L280.2,96.6z"/>
	<path style="fill-rule:evenodd;clip-rule:evenodd;fill:#231F20;" d="M300.9,71.8c0,0,4.7,0,4.2,10c-0.4,8.9,0.2,10.3,2.5,11.9
		c1.8,1.3,3.5,1.1,7.7,1.4c4.2,0.4,6.7,0.2,8.6,3.5c1.8,3.1,0.5,7.1-2.5,8.4c-6.6,2.9-10.2,4.9-10.7,6.9c-0.5,2-1.5,6.7,2.7,5.5
		c4.2-1.3,10.4-6.9,15.9-6.8c5.5,0.2,13,0.7,15,10.6c5.9,3.1,13.9,5.8,12.8,14.8c-1.1,8.9-6,12.8-9.3,15.5c-3.3,2.7-5.3,5.1-5.3,5.1
		l-18.5-1.8c0,0,1.8-7.3,12.4-7.7c10.6-0.4,15.7-0.5,15.7-5.7c0-5.1-4.4-8.2-9.1-10.8c-3.7,4.4-9.3,12.8-19,11.9
		c-9.7-0.9-14.9-8.6-14.3-13.1c0.6-3.6,1-6.2,6.6-8.9c0.7-0.3,14.3-2.9,21.4-1.1c-2.7-2.4-7-1.8-10.1-1.8c-3.1,0-10.4,1.8-12.6,1.8
		c-2.2,0-6.8,0.5-9.3-2c-2.6-2.6-4.2-7.5,2.2-9.5c6.4-2,12-5.6,12.6-7.5c0.5-1.6,0.6-5.3-4-4.2c-4.9,1.2-8,2.9-12.6,0.2
		c-5.9-3.4-2.4-12.6-1.8-16.4c0.5-3.8,0.7-8.6-1.5-8.6L300.9,71.8L300.9,71.8L300.9,71.8z M339.5,131.2c0,0-6-3.3-14.3-3.1
		c-8.2,0.2-11.7,1.1-12.4,3.5c-0.7,2.4,3.4,4.4,7.5,5.3C321.9,137.3,328.5,139.3,339.5,131.2L339.5,131.2z"/>
	<path style="fill-rule:evenodd;clip-rule:evenodd;fill:#EC1C24;" d="M352.7,146.9c0,0,6.3-9.9,1.1-16.1c-5.2-6.2-14-8-17.7-8.4
		c-3.8-0.4-14.7-0.4-18.2,1.1c-3.5,1.5-6.6,3.7-7,7.4c3.4-2.5,8-4.2,15.2-3.8c7.3,0.4,14.8,1.9,19.8,5.7
		C350.9,136.6,354.6,139.5,352.7,146.9L352.7,146.9z"/>
	<path style="fill-rule:evenodd;clip-rule:evenodd;fill:#FFFFFF;" d="M351.6,147.8c0,0-3.7,2.2-7.9,2.2c-4.2,0-14.9-0.8-17.6,5.8
		c3.5,0.4,15.8,1.5,15.8,1.5s2.5-3.3,4.7-4.6C348.9,151.6,349.9,150.2,351.6,147.8L351.6,147.8z"/>
	<path style="fill-rule:evenodd;clip-rule:evenodd;fill:#FFFFFF;" d="M341.9,132.2l-1.3-0.7c0,0-8.3,7.9-16.3,7
		c-8-0.9-12.4-2.6-12.6-6.9c-0.5,0.6-0.9,0.6-0.9,0.6s1,10.2,14,11C334.8,143.9,341.9,132.2,341.9,132.2L341.9,132.2z"/>
	<path style="fill-rule:evenodd;clip-rule:evenodd;fill:#FFFFFF;" d="M342.9,122.7l-3.4-1c0,0-3.1-3.7-7.8-3.3
		c-4.7,0.4-8.3,0.6-11.6,1.4c-3.3,0.8-3.8,1-6.7,0.7c4.3-1.8,8.4-4.3,10.1-5.4c1.7-1.1,6.2-1.7,9.8-1.3
		C337,114.2,341.5,116.5,342.9,122.7L342.9,122.7z"/>
	<path style="fill-rule:evenodd;clip-rule:evenodd;fill:#EC1C24;" d="M314.1,109c0,0-4.4,1.4-6.3,2.1c-2.1,0.8-3.5,2.3-3.2,4.2
		c0.3,1.9,2.5,5.1,6.7,5.1c-2.8-2.8-2.6-4.6-1.9-6.3C310.2,112.3,311.4,110.8,314.1,109L314.1,109z"/>
	<path style="fill-rule:evenodd;clip-rule:evenodd;fill:#FFFFFF;" d="M316.6,107.5c0,0,5.8-3,5-6.4c-0.8-3.4-1.3-3.8-1.3-3.8
		s3.3,0.4,3.3,3.3S322.3,106.6,316.6,107.5L316.6,107.5z"/>
	<path style="fill-rule:evenodd;clip-rule:evenodd;fill:#EC1C24;" d="M318.4,96.6c0,0-2.5-0.9-6.1-0.8c-3.6,0.1-8.4-1.2-8.4-6.2
		c0-5,0.6-11.4-0.3-12.8c0,0-0.4,5.4-1.2,8.5c-0.8,3-1.3,10.4,1.6,12c2.9,1.5,5.3,2.1,8.9,0.8C316.5,96.8,317.5,96.3,318.4,96.6
		L318.4,96.6z"/>
	<path style="fill-rule:evenodd;clip-rule:evenodd;fill:#231F20;" d="M300.2,153.3c35.9,0,92.4,6.8,106.9,12.9
		c6.1,2.6,10.3,3.9,10.3,9.7c0,5.8,0,8.2,0,8.2s1.9-0.9,7.7-0.9c4.1,0,7.9,1,10.3,3.1c0.9,0.8,1.4,1.8,1.4,3.3c0,5.2,0,17.5,0,20.4
		c0,2.9-1.6,2.9-3.9,4.2c-2.3,1.3-3.8,2.1-3.8,2.1L429,228c0,0-6.8-0.3-12.3-4.2c-4.3-3.1-1.8-11.6,1.6-14.4c2-1.6,2-2,2-2
		s-1.3,0.4-2.6,0.8c-4.3,1.6-13.1,6.5-19.5,6.6c-7.8,0.1-23.4,0.1-27.9-11.8l-0.3-22.1c0,0-23.4-4.6-69.9-4.6h0.7
		c-46.5,0-69.9,4.6-69.9,4.6l-0.3,22.1c-4.5,11.9-20.2,11.9-27.9,11.8c-6.3-0.1-15.1-5-19.4-6.6c-1.3-0.5-2.6-0.8-2.6-0.8s0,0.4,2,2
		c3.5,2.8,6,11.4,1.6,14.4c-5.5,3.9-12.3,4.2-12.3,4.2l-0.1-11.7c0,0-1.5-0.8-3.8-2.1c-2.3-1.3-3.9-1.3-3.9-4.2c0-2.9,0-15.2,0-20.4
		c0-1.5,0.5-2.6,1.4-3.3c2.4-2.1,6.2-3.1,10.3-3.1c5.8,0,7.7,0.9,7.7,0.9s0-2.4,0-8.2c0-5.8,4.2-7.1,10.3-9.7
		c14.4-6.1,71-12.9,106.9-12.9H300.2L300.2,153.3z"/>
	<path style="fill-rule:evenodd;clip-rule:evenodd;fill:#231F20;" d="M307.6,536.7c86.6,0,122.1-19.1,131.1-23.7
		c4.9-2.5,8.5-7.3,8.5-11.1c0-3.8,0.3-16.5,0.3-16.5s8.6,0.6,14.3,0.2c5.7-0.5,10.9-4.8,10.9-11.4s-0.5-39.2-0.5-49.1
		c0-3.4-9.3-5.8-9.3-5.8v-21.6c0,0-21.9,6.7-21.9,16.6c0,9.9,0,17.2,0,17.2s-26.8-3.7-35.8-4.2c-8.9-0.5-14.1,5.2-14.1,13.1
		c0,8,0,35.5,0,35.5s-24.8,8.2-83.5,8.2h-15.7c-58.6,0-83.5-8.2-83.5-8.2s0-27.5,0-35.5c0-8-5.2-13.6-14.1-13.1
		c-8.9,0.5-35.8,4.2-35.8,4.2s0-7.4,0-17.2c0-9.9-21.9-16.6-21.9-16.6v21.6c0,0-9.3,2.5-9.3,5.8c0,9.9-0.5,42.5-0.5,49.1
		s5.3,10.9,10.9,11.4c5.7,0.5,14.3-0.2,14.3-0.2s0.3,12.8,0.3,16.5c0,3.8,3.6,8.6,8.5,11.1c9,4.6,35.9,23.7,131.1,23.7H307.6
		L307.6,536.7z"/>
	<path style="fill-rule:evenodd;clip-rule:evenodd;fill:#EC1C24;" d="M138.4,400.2c0,0,18.6,6.9,17.1,13.5c0,0-10.3,3.4-17.1,4.8
		V400.2L138.4,400.2z"/>
	<path style="fill-rule:evenodd;clip-rule:evenodd;fill:#D7B382;" d="M157.2,415v16.9c0,0-18.7,2.4-23.8-1.2
		c-3.6-2.6-6.3-5.1-1.2-7.7C137.3,420.3,152.1,417.4,157.2,415L157.2,415z"/>
	<path style="fill-rule:evenodd;clip-rule:evenodd;fill:#EC1C24;" d="M128.8,428.5c0,0,2.7,5.3,9.7,5.8c10.6,0.7,17.5-0.5,28.1-1.9
		c11.6-1.6,21.8-3.4,28.9-3.1c7,0.2,10.4,3.9,10.4,9.4c0,5.6-7.3,8.2-13.1,8.2c-5.8,0-12.7-5.1-19.9-6.3c-7.3-1.2-21.1-1.2-20.9,6.2
		c0.2,7.5,0,37,0,37s-11.4,1-15.3,0c-3.9-1-8.5-3.9-8.5-8.9C128.3,469.8,128.8,428.5,128.8,428.5L128.8,428.5z"/>
	<path style="fill-rule:evenodd;clip-rule:evenodd;fill:#D7B382;" d="M164.7,441.8c6.3,0,11.9,1.5,17.7,3.9
		c6.2,2.6,7.8,3.3,11.2,3.3c3.4,0,12.1-2.4,13.5-8.2v34.6c0,0-17.6-2.2-37.9-12.4c-3.1-1.5-16.9-7.6-15.7-16.2
		C154.3,441.1,164.7,441.8,164.7,441.8L164.7,441.8z"/>
	<path style="fill-rule:evenodd;clip-rule:evenodd;fill:#EC1C24;" d="M307.6,534.9c83.7,0,115.8-16.4,127-21.5s11.4-11.8,11.4-11.8
		v-47.1c0,0-19,31.4-138.4,31.4h-15.7c-119.3,0-138.4-31.4-138.4-31.4v47.1c0,0,0.2,6.8,11.4,11.8c11.2,5.1,42.7,21.5,127,21.5
		H307.6L307.6,534.9z"/>
	<path style="fill-rule:evenodd;clip-rule:evenodd;fill:#EC1C24;" d="M461.1,400.2c0,0-18.6,6.9-17.1,13.5c0,0,10.3,3.4,17.1,4.8
		V400.2L461.1,400.2z"/>
	<path style="fill-rule:evenodd;clip-rule:evenodd;fill:#D7B382;" d="M442.3,415v16.9c0,0,18.7,2.4,23.8-1.2
		c3.6-2.6,6.3-5.1,1.2-7.7C462.2,420.3,447.4,417.4,442.3,415L442.3,415z"/>
	<path style="fill-rule:evenodd;clip-rule:evenodd;fill:#EC1C24;" d="M470.7,428.5c0,0-2.7,5.3-9.7,5.8c-10.6,0.7-17.5-0.5-28.1-1.9
		c-11.6-1.6-21.8-3.4-28.9-3.1c-7,0.2-10.4,3.9-10.4,9.4c0,5.6,7.3,8.2,13.1,8.2c5.8,0,12.7-5.1,19.9-6.3c7.3-1.2,21.1-1.2,20.9,6.2
		c-0.2,7.5,0,37,0,37s11.4,1,15.3,0c3.9-1,8.5-3.9,8.5-8.9C471.2,469.8,470.7,428.5,470.7,428.5L470.7,428.5z"/>
	<path style="fill-rule:evenodd;clip-rule:evenodd;fill:#D7B382;" d="M434.8,441.8c-6.3,0-11.9,1.5-17.7,3.9
		c-6.2,2.6-7.8,3.3-11.2,3.3c-3.4,0-12.1-2.4-13.5-8.2v34.6c0,0,17.6-2.2,37.9-12.4c3.1-1.5,16.9-7.6,15.7-16.2
		C445.2,441.1,434.8,441.8,434.8,441.8L434.8,441.8z"/>
	<path style="fill-rule:evenodd;clip-rule:evenodd;fill:#FFFFFF;" d="M166.3,472.5c0.9,0.3,1.7,0.9,2.6,1.7c0.3,0.3,0.6,0.7,0.9,1
		c0.4,0.4,0.7,0.7,0.9,0.7c0.1,0,0.3,0,0.4,0c0.2-0.1,0.4-0.2,0.5-0.3c0.1,0,0.2-0.1,0.2,0c0.2,0.1,0.3,0.4,0.3,0.9c0,0.7,0,1.3,0,2
		c0,0.3,0,0.6,0,0.9c0.1,0.8,0.1,1.7,0.2,2.5c0.1,0.8,0.1,1.5,0.2,2.3c0,0.2,0,0.4,0,0.5c0,0.7-0.1,1-0.3,1c-0.2-0.1-0.3-0.4-0.4-1
		c-0.3-2.4-1-4.5-2.1-6.6c-1.1-2-2.3-3.2-3.5-3.6c-0.8-0.3-1.6,0-2.2,0.8c-0.6,0.8-0.9,1.8-0.9,3.2c0,1.2,0.3,2.4,0.8,3.5
		c0.4,0.7,1.5,2,3.3,4c2.2,2.3,3.7,4.3,4.4,6.1c0.9,2.1,1.3,4.4,1.3,7c0,2.9-0.6,5.2-1.8,6.9c-1.2,1.7-2.6,2.4-4.2,1.8
		c-0.6-0.2-1.7-0.9-3.1-2.1c-0.7-0.6-1.1-1-1.4-1.2c-0.4-0.3-0.7-0.5-0.8-0.7c-0.1-0.2-0.1-0.6-0.2-1.3c0-0.8-0.2-2-0.4-3.5
		c-0.4-2.4-0.5-3.9-0.5-4.5c0-0.8,0.1-1.1,0.4-1c0.1,0,0.2,0.3,0.3,0.7c0.5,3,1.3,5.6,2.4,7.9c1.1,2.3,2.3,3.6,3.6,4
		c1,0.3,1.8,0,2.6-1.1c0.8-1,1.1-2.3,1.1-4c0-1.3-0.2-2.4-0.6-3.4c-0.4-1-1.1-1.9-2-3c-0.7-0.8-1.4-1.6-2.1-2.4
		c-2-2.2-3.4-4.2-4.1-5.8c-0.7-1.6-1.1-3.6-1.1-6c0-2.7,0.5-4.8,1.5-6.3C163.6,472.5,164.8,472,166.3,472.5L166.3,472.5z"/>
	<path style="fill-rule:evenodd;clip-rule:evenodd;fill:#FFFFFF;" d="M189.7,479.9c0.1,0,0.2,0.1,0.3,0.2c0.2,0.1,0.5,0.3,1.1,0.5
		c0.5,0.2,1,0.4,1.5,0.5c0.5,0.1,0.9,0.2,1.4,0.3c0.5,0.1,0.9,0.1,1.3,0.1c0.2,0,0.3,0,0.5,0.1c0.3,0.1,0.4,0.3,0.4,0.8
		c0,0.3-0.1,0.5-0.4,0.5c-0.2,0-0.4,0-0.5,0c-0.7,0-1.1,1.3-1.1,3.8c0,0.7,0,1.4,0,2.1c0,1,0,2,0,3c0,4.7-0.1,8.5-0.4,11.3
		s-0.7,4.9-1.3,6.3c-1.4,3.4-3.8,4.7-7.2,3.8c-2.4-0.7-4.3-2-5.6-3.9c-1.8-2.7-2.7-7-2.7-13.2c0.1-3.1,0.1-6.3,0.2-9.4
		c0-1.5,0-3,0-4.4c0-1.1-0.1-1.9-0.2-2.4c-0.1-0.5-0.4-1-0.8-1.4c-0.5-0.5-1-0.9-1.5-1.2c-0.4-0.2-0.5-0.5-0.5-1
		c0-0.5,0.2-0.6,0.5-0.5c0.1,0,0.3,0.1,0.6,0.3c1.2,0.6,2.1,0.9,2.8,1.1c0.9,0.3,1.9,0.5,3.1,0.6c0.5,0.1,0.8,0.1,1,0.2
		c0.5,0.1,0.7,0.4,0.7,0.9c0,0.3,0,0.4-0.1,0.5c-0.1,0.1-0.3,0.1-0.5,0.1c-0.6,0-1,0.3-1.2,0.8c-0.2,0.5-0.3,1.5-0.4,3.1
		c-0.1,2-0.2,4.1-0.2,6.1c0,1.4,0,2.9,0,4.3c0,4,0.1,6.8,0.4,8.5c0.2,1.7,0.7,3.3,1.5,4.7c1.1,2.1,2.6,3.4,4.3,3.9
		c1.8,0.5,3.3-0.1,4.4-1.6c0.7-1.1,1.3-2.8,1.6-5.1c0.3-2.3,0.5-5.8,0.5-10.3c0-0.7,0-1.3,0-2c0-1.7,0-3.4-0.1-5
		c-0.1-1.5-0.3-2.8-0.8-3.7c-0.5-1-1.2-1.6-2-1.8c-0.4-0.1-0.6-0.4-0.6-0.9C189.5,480.1,189.6,479.9,189.7,479.9L189.7,479.9z"/>
	<path style="fill-rule:evenodd;clip-rule:evenodd;fill:#FFFFFF;" d="M205.6,489.6c2.5,5.4,5,10.8,7.5,16.1c0.2,0.3,0.3,0.7,0.5,1
		c0.6,1.4,1.1,2.1,1.3,2.1c0.2,0,0.3-0.4,0.3-1.4c0.1-3.6,0.1-7,0.1-10.3c0-3.8-0.2-6.5-0.7-8c-0.5-1.5-1.4-2.4-2.7-2.8
		c-0.3-0.1-0.5-0.3-0.5-0.7c0-0.5,0.1-0.6,0.4-0.6c0.3,0.1,0.9,0.3,1.7,0.7c0.5,0.2,0.9,0.4,1.2,0.4c0.7,0.1,1.7,0.2,3.2,0.1
		c0.2,0,0.3,0,0.4,0c0.3,0.1,0.5,0.3,0.5,0.8c0,0.4-0.2,0.6-0.5,0.7c-1.2,0.2-1.8,1.9-1.8,5.3c0,0.4,0,0.8,0,1.2
		c-0.1,5.1-0.1,10.2-0.2,15.3c0,0.7,0,1.4-0.1,2.1c0,0.9,0,1.8,0,2.7c0,0.6,0,1.3,0,1.9c0,1,0,2.1,0.1,3.1c0,0.5-0.1,0.7-0.3,0.6
		c-0.2-0.1-0.3-0.3-0.5-0.6c-4.3-9.2-8.7-18.4-13-27.7c-0.2-0.5-0.4-0.7-0.5-0.7c-0.2-0.1-0.3,0.3-0.3,1c0,0.2,0,0.5,0,0.7
		c0,3.2,0,6.4,0,9.5c0,5.1,0.1,8.5,0.4,10.3c0.3,1.9,1.3,3.2,2.8,3.8c0.3,0.1,0.4,0.4,0.4,0.7c0,0.5-0.1,0.7-0.4,0.6
		c-0.1,0-0.3-0.1-0.6-0.2c-0.8-0.4-1.7-0.8-2.7-1c-1-0.2-1.8-0.3-2.6-0.3c-0.3,0-0.6,0-0.7,0c-0.3-0.1-0.4-0.3-0.4-0.7
		c0-0.4,0.1-0.6,0.4-0.6c0.7-0.2,1.2-0.8,1.5-1.7c0.3-1,0.5-2.5,0.5-4.5c0-1.9,0.1-3.8,0.1-5.8c0-3.5,0-7,0-10.6
		c0-5-1.1-7.9-3.2-8.7c-0.3-0.1-0.4-0.4-0.4-0.8c0-0.5,0.2-0.7,0.5-0.6c0.3,0.1,0.7,0.2,1,0.4c0.2,0,0.4,0.1,0.6,0.1
		c0.7,0.2,1.5,0.3,2.4,0.3c0.3,0,0.6,0.1,0.8,0.1c0.3,0.1,0.5,0.2,0.7,0.5c0.2,0.3,0.5,1,1.1,2.3c0.3,0.7,0.7,1.5,1,2.2
		C205.3,488.9,205.5,489.4,205.6,489.6L205.6,489.6z"/>
	<path style="fill-rule:evenodd;clip-rule:evenodd;fill:#FFFFFF;" d="M222.9,494c0-1.6-0.3-2.8-0.8-3.8c-0.5-0.9-1.2-1.5-2.2-1.7
		c-0.3-0.1-0.4-0.3-0.4-0.7c0-0.3,0.1-0.5,0.2-0.6c0.1-0.1,0.4-0.1,0.8,0c0.7,0.2,1.5,0.3,2.2,0.5c0.5,0.1,0.9,0.2,1.3,0.2
		c0.6,0,1.4,0.1,2.5,0.1c1.4,0,2.6,0.1,3.4,0.2c3.3,0.5,5.9,2.3,7.9,5.5c2,3.1,3,7,3,11.8c0,6.1-1.3,10.7-4,14
		c-1.9,2.4-4.1,3.3-6.6,2.9c-0.4-0.1-1.2-0.3-2.4-0.6c-0.7-0.2-1.4-0.3-2.1-0.5c-1.7-0.3-2.8-0.4-3.4-0.3c-0.4,0.1-0.7,0.1-0.9,0.1
		c-0.2,0-0.3-0.3-0.3-0.8c0-0.3,0.1-0.5,0.4-0.6c0.6-0.1,1-0.4,1.2-1c0.2-0.6,0.3-1.7,0.3-3.2C222.9,508.2,222.9,501.1,222.9,494
		L222.9,494L222.9,494z M226.3,493.2c0,7.2,0,14.3,0,21.5c0.1,0.8,0.1,1.5,0.2,2.3c0.3,1.9,1.5,3.1,3.5,3.4c2.2,0.4,4-0.7,5.3-3.1
		c1.3-2.4,2-5.9,2-10.3c0-4.7-0.8-8.6-2.3-11.8c-1.6-3.2-3.6-5-6.1-5.4c-1-0.2-1.7-0.1-2.1,0.3C226.4,490.5,226.3,491.5,226.3,493.2
		L226.3,493.2z"/>
	<path style="fill-rule:evenodd;clip-rule:evenodd;fill:#FFFFFF;" d="M248.6,497c0,1.8,0,3.5,0,5.3c0,1.5,0.1,2.5,0.2,2.9
		c0.1,0.4,0.4,0.7,0.9,0.7c0.1,0,0.3,0,0.4,0c0.2,0,0.4,0,0.6,0c0.4,0,0.8,0.1,1.2,0.1c1,0.1,1.7-0.7,2.2-2.4
		c0.1-0.4,0.2-0.8,0.3-1.2c0.1-0.3,0.2-0.4,0.4-0.4c0.2,0,0.3,0.2,0.3,0.7c0,0.1,0,0.5,0,1.1c0,0.4,0,0.8,0,1.1
		c0,0.5,0.1,1.8,0.2,3.7c0.1,1.3,0.1,2.4,0.1,3.3c0,0.4,0,0.8,0,1.3c0,0.2,0,0.4,0,0.5c0,0.1-0.1,0.1-0.3,0.1c-0.3,0-0.4-0.3-0.5-1
		c-0.1-1.4-0.4-2.5-0.9-3.2c-0.2-0.4-0.6-0.7-0.9-0.9c-0.4-0.2-1-0.3-2-0.4c-0.3,0-0.6-0.1-1-0.1c-0.5-0.1-0.8,0-0.9,0.2
		c-0.2,0.2-0.3,0.7-0.3,1.4c-0.1,0.8-0.1,2.1-0.1,3.9c0,0.7,0,1.5,0,2.2c0,2.3,0.1,4,0.3,5c0.2,0.8,0.4,1.3,0.6,1.6
		c0.2,0.3,0.6,0.5,1,0.5c3.9,0.4,6.4-1.3,7.7-5.3c0.1-0.2,0.1-0.3,0.2-0.3c0.1,0,0.2,0,0.3,0.2c0.1,0.1,0.1,0.3,0.1,0.5
		c0,1.6-0.3,3.1-0.8,4.6c-0.4,1.2-1,2.1-1.6,2.6c-0.6,0.5-1.5,0.7-2.5,0.6c-0.6-0.1-1.3-0.2-2.1-0.4c-0.6-0.2-1.1-0.3-1.7-0.5
		c-0.6-0.2-1.4-0.3-2.5-0.4c-0.7-0.1-1.8-0.1-3.2-0.2c-0.4,0-0.7,0-0.9,0c-0.2,0-0.4-0.2-0.4-0.6c0-0.3,0.1-0.5,0.3-0.7
		c0.5-0.3,0.9-0.6,1.1-1c0.2-0.4,0.4-1.1,0.5-2.1c0.1-0.8,0.2-2,0.2-3.5c0-6.5,0-12.9,0-19.4c0-1.8-0.2-3.1-0.5-3.8
		c-0.3-0.7-1.1-1.2-2.2-1.7c-0.3-0.1-0.4-0.4-0.4-0.8c0-0.4,0.2-0.6,0.5-0.5c0.1,0,0.2,0,0.4,0.1c0.2,0,0.4,0.1,0.7,0.1
		c0.5,0.1,1,0.2,1.5,0.3c1.8,0.3,3.6,0.5,5.5,0.8c3.1,0.4,5.1,0.5,5.8,0.4c0.1,0,0.1,0,0.2,0c0.3,0,0.4,0.3,0.4,0.9
		c0,0.4,0,1.1,0.1,2c0.1,1.4,0.1,2.5,0.1,3.1c0,1.2-0.2,1.9-0.6,1.9c-0.2,0-0.3-0.4-0.3-1.1c0-1.6-0.3-2.8-1-3.6
		c-0.7-0.8-1.8-1.3-3.4-1.5c-0.6-0.1-1.2-0.1-1.8-0.2c-0.3,0-0.6,0-1,0.1c-0.5,0.2-0.7,1-0.7,2.4C248.6,496.4,248.6,496.7,248.6,497
		L248.6,497z"/>
	<path style="fill-rule:evenodd;clip-rule:evenodd;fill:#FFFFFF;" d="M266.1,517.1c0,3.1,0.2,5.2,0.5,6.3c0.3,1.1,1,1.8,2,2
		c0.4,0.1,0.6,0.4,0.6,0.9c0,0.5-0.2,0.7-0.5,0.7c-0.1,0-0.3-0.1-0.6-0.1c-0.8-0.2-1.6-0.3-2.4-0.4c-0.7-0.1-1.2-0.1-1.7,0
		c-0.4,0-0.8,0.1-1.2,0.1c-0.3,0-0.6,0-1,0.1c-0.3,0-0.5,0-0.6,0c-0.3,0-0.5-0.3-0.5-0.7c0-0.4,0.1-0.6,0.3-0.7
		c0.7-0.3,1.1-0.7,1.4-1.3c0.3-0.6,0.4-1.4,0.4-2.6c0-0.8,0-1.6,0-2.3c0-0.3,0-0.6,0-1c0-5.9,0-11.8,0-17.8c0-2-0.1-3.3-0.4-4
		c-0.5-1.1-1.2-1.9-2.3-2.2c-0.4-0.1-0.6-0.4-0.6-0.9c0-0.5,0.1-0.7,0.4-0.7c0.1,0,0.3,0.1,0.5,0.1c0.7,0.2,1.6,0.4,2.5,0.4
		c1,0.1,2.2,0.1,3.6,0.1c1.6,0,2.8-0.1,3.4,0c1.8,0.1,3.4,1.1,4.6,2.8c1.2,1.8,1.8,3.9,1.8,6.5c0,1.6-0.3,3.1-0.8,4.4
		c-0.5,1.3-1.3,2.3-2.2,2.9c-0.2,0.1-0.3,0.3-0.3,0.5c0,0.2,0.1,0.4,0.1,0.6c0.1,0.2,0.2,0.6,0.4,1.2c0.4,1.3,0.9,2.6,1.3,4
		c0.5,1.5,1,3,1.5,4.6c0.5,1.6,1,2.6,1.4,3.2c0.4,0.6,0.9,0.9,1.4,1c0.2,0,0.4,0,0.6-0.1c0.1,0,0.2-0.1,0.3-0.1
		c0.2,0,0.3,0.2,0.3,0.6c0,0.5-0.4,1-1.2,1.6c-0.8,0.6-1.5,0.9-2.1,0.8c-1-0.1-1.9-0.9-2.7-2.6c-0.8-1.7-1.9-4.9-3.2-9.6
		c-0.5-1.9-0.9-3-1.3-3.5c-0.3-0.5-0.9-0.8-1.6-0.8c-0.3,0-0.6,0-0.9-0.1c-0.2,0-0.4,0.1-0.6,0.1c-0.1,0.1-0.2,0.5-0.2,1.2
		C266.1,513.8,266.1,515.4,266.1,517.1L266.1,517.1L266.1,517.1z M266.1,498c0,2.8,0,5.7,0,8.5c0,1,0.1,1.7,0.2,2
		c0.2,0.3,0.5,0.5,1.1,0.5c1.7,0.1,2.8,0.1,3.2,0.1c0.4-0.1,0.8-0.4,1.2-0.9c0.7-1,1.1-2.5,1.1-4.4c0-2.5-0.5-4.5-1.4-6.2
		c-1-1.7-2.2-2.6-3.6-2.7c-0.7,0-1.1,0.1-1.4,0.6C266.2,495.9,266.1,496.7,266.1,498L266.1,498z"/>
	<path style="fill-rule:evenodd;clip-rule:evenodd;fill:#FFFFFF;" d="M286.7,520.1c0,3.1,0.2,4.8,0.6,5.2c0.2,0.2,0.7,0.3,1.4,0.4
		c3.3,0.1,5.6-1.5,6.9-4.8c0.4-1,0.7-1.5,0.8-1.5c0.2,0,0.3,0.3,0.3,1c0,2.1-0.4,3.9-1.2,5.6c-0.7,1.4-1.7,2.1-2.9,2.1
		c-0.3,0-0.7-0.1-1.4-0.1c-0.2,0-0.8-0.1-1.7-0.2c-0.5-0.1-1.1-0.1-1.6-0.2c-0.5-0.1-1.1-0.1-1.8-0.1c-1.1,0-2.3,0-3.6,0.2
		c-0.4,0.1-0.7,0.1-0.8,0.1c-0.3,0-0.4-0.2-0.4-0.7c0-0.3,0.1-0.5,0.4-0.6c0.6-0.3,1-0.8,1.3-1.7c0.2-0.8,0.4-2.2,0.4-4.1
		c0-6.8,0-13.7,0-20.5c0-2.6-0.6-4.1-1.9-4.5c-0.3-0.1-0.6-0.2-0.9-0.3c-0.4-0.1-0.6-0.4-0.6-0.8c0-0.5,0.1-0.8,0.4-0.8
		c0.1,0,0.2,0,0.4,0.1c0.1,0,0.3,0.1,0.6,0.1c0.2,0,0.4,0.1,0.6,0.1c0.6,0.1,1,0.2,1.3,0.2c0.5,0,1.2-0.1,2.2-0.2
		c0.8-0.1,1.5-0.1,2.3-0.1c0.6,0,0.9,0.3,0.9,0.7c0,0.4-0.2,0.6-0.6,0.6c-1,0.1-1.5,1.2-1.5,3.4C286.7,505.9,286.7,513,286.7,520.1
		L286.7,520.1z"/>
	<path style="fill-rule:evenodd;clip-rule:evenodd;fill:#FFFFFF;" d="M307.8,497c2.2,8.5,4.4,16.9,6.6,25.4c0.3,1.3,0.7,2.2,1.2,2.8
		c0.4,0.6,1,1,1.7,1.2c0.2,0,0.3,0.3,0.3,0.7c0,0.5-0.1,0.7-0.3,0.7c-0.1,0-0.3,0-0.5-0.1c-0.7-0.2-1.9-0.3-3.6-0.2
		c-1.7,0-2.8,0.2-3.4,0.5c-0.1,0.1-0.3,0.1-0.4,0.1c-0.3,0-0.4-0.2-0.4-0.7c0-0.2,0.1-0.4,0.3-0.6c0.5-0.2,0.8-0.7,1.1-1.2
		c0.3-0.6,0.5-1.2,0.5-1.9c0-0.9-0.4-2.9-1.3-6c-0.3-0.9-0.5-1.5-0.9-1.6c-0.3-0.1-1.4-0.2-3.3-0.1c-0.7,0-1.3,0-2,0
		c-0.4,0.1-0.9,0.3-1.3,0.4c-0.4,0.3-0.8,1.4-1.2,3.3c-0.1,0.6-0.3,1.3-0.4,1.9c-0.1,0.5-0.2,1.1-0.2,1.7c0,2.1,0.9,3.3,2.6,3.6
		c0.4,0.1,0.6,0.3,0.5,0.7c0,0.4-0.2,0.7-0.5,0.7c-0.2,0-0.4,0-0.8-0.1c-0.7-0.2-1.2-0.3-1.7-0.3c-0.5,0-1.2,0.1-2.2,0.2
		c-0.8,0.1-1.2,0.2-1.4,0.2c-0.3,0-0.4-0.2-0.4-0.6c0-0.3,0.1-0.6,0.4-0.8c0.5-0.3,1-0.8,1.3-1.5c0.3-0.7,0.8-2.3,1.4-4.7
		c1.3-5.1,2.6-10.3,4-15.4c0.3-1.2,0.5-2.1,0.7-2.5c0.5-1.6,0.9-3.1,1.3-4.7c0.2-0.8,0.5-1.5,0.7-2.3c0,0,0,0.1,0,0.1
		c0.3-1.3,0.5-1.9,0.6-1.9c0.2,0,0.4,0.7,0.8,2C307.5,496.1,307.7,496.5,307.8,497L307.8,497L307.8,497z M308.3,512.3
		c-0.6-2.5-1.3-5-1.9-7.4c-0.5-1.8-0.8-2.7-1-2.7c-0.1,0-0.3,0.6-0.6,1.7c-0.1,0.3-0.2,0.7-0.3,1c-0.6,2.2-1.1,4.4-1.7,6.5
		c-0.1,0.2-0.1,0.4-0.2,0.6c-0.1,0.2-0.1,0.5-0.1,0.6c0,0.6,0.3,0.8,1,0.8c1.4,0,2.9,0,4.3-0.1c0.4,0,0.5-0.2,0.5-0.5
		c0-0.1,0-0.2-0.1-0.4C308.4,512.5,308.3,512.4,308.3,512.3L308.3,512.3z"/>
	<path style="fill-rule:evenodd;clip-rule:evenodd;fill:#FFFFFF;" d="M325.7,499.2c2.6,4.7,5.1,9.3,7.7,14c0.2,0.3,0.3,0.6,0.5,0.9
		c0.7,1.2,1.1,1.8,1.3,1.8c0.2,0,0.3-0.5,0.3-1.5c0.1-3.6,0.1-7.1,0.1-10.4c0-3.8-0.2-6.4-0.7-7.8c-0.5-1.3-1.4-2-2.7-2.1
		c-0.3,0-0.5-0.2-0.5-0.6c0-0.5,0.1-0.7,0.4-0.7c0.4,0,0.9,0,1.7,0.2c0.5,0.1,0.9,0.1,1.3,0.1c0.7-0.1,1.7-0.3,3.2-0.8
		c0.2-0.1,0.3-0.1,0.4-0.1c0.3,0,0.5,0.2,0.5,0.7c0,0.4-0.2,0.7-0.5,0.8c-1.2,0.5-1.9,2.4-1.9,5.8c0,0.4,0,0.8,0,1.2
		c-0.1,5.1-0.1,10.3-0.2,15.4c0,0.7,0,1.4-0.1,2.1c0,0.9,0,1.8,0,2.7c0,0.6,0,1.2,0,1.9c0,1,0,2,0.1,3.1c0,0.5-0.1,0.7-0.3,0.7
		c-0.2,0-0.4-0.2-0.5-0.5c-4.4-7.9-8.8-15.9-13.2-24c-0.2-0.4-0.4-0.6-0.5-0.6c-0.2,0-0.3,0.4-0.3,1.1c0,0.2,0,0.5,0,0.7
		c0,3.2,0,6.4,0,9.5c0,5.1,0.2,8.5,0.5,10.2c0.3,1.8,1.3,2.8,2.9,3c0.3,0,0.4,0.2,0.4,0.6c0,0.5-0.2,0.8-0.5,0.8
		c-0.1,0-0.3,0-0.6-0.1c-0.8-0.2-1.7-0.3-2.7-0.2c-1,0.1-1.9,0.2-2.6,0.5c-0.3,0.1-0.6,0.2-0.7,0.2c-0.3,0-0.4-0.2-0.4-0.6
		c0-0.4,0.1-0.6,0.4-0.8c0.7-0.4,1.2-1.1,1.5-2.2c0.3-1.1,0.5-2.6,0.5-4.6c0-1.9,0.1-3.9,0.1-5.8c0-3.5,0-7,0-10.6
		c0-5-1.1-7.6-3.3-7.7c-0.3,0-0.4-0.2-0.4-0.6c0-0.5,0.2-0.7,0.5-0.7c0.3,0,0.7,0.1,1,0.1c0.2,0,0.4,0,0.6-0.1
		c0.8,0,1.6-0.1,2.4-0.3c0.3-0.1,0.6-0.1,0.8-0.1c0.3,0,0.5,0.1,0.7,0.3c0.2,0.2,0.5,0.9,1.1,2c0.3,0.6,0.7,1.3,1,1.9
		C325.4,498.6,325.7,499.1,325.7,499.2L325.7,499.2z"/>
	<path style="fill-rule:evenodd;clip-rule:evenodd;fill:#FFFFFF;" d="M343.3,498.6c0-1.6-0.3-2.8-0.8-3.6c-0.5-0.8-1.3-1.2-2.2-1.1
		c-0.3,0-0.5-0.2-0.5-0.6c0-0.3,0.1-0.5,0.2-0.6c0.1-0.1,0.4-0.2,0.8-0.2c0.7-0.1,1.5-0.1,2.2-0.2c0.5-0.1,1-0.1,1.4-0.2
		c0.6-0.1,1.4-0.3,2.5-0.6c1.4-0.4,2.6-0.6,3.4-0.7c3.3-0.4,5.9,0.7,7.9,3.3c2,2.6,3,6.2,3,10.9c0,6.1-1.3,11.1-4,15.1
		c-1.9,2.9-4.1,4.5-6.6,4.8c-0.4,0-1.2,0.1-2.5,0.1c-0.7,0-1.4,0.1-2.1,0.1c-1.7,0.2-2.9,0.4-3.4,0.6c-0.4,0.2-0.7,0.3-0.9,0.3
		c-0.2,0-0.3-0.2-0.3-0.7c0-0.3,0.1-0.6,0.4-0.7c0.6-0.3,1-0.7,1.2-1.4c0.2-0.7,0.3-1.8,0.3-3.3
		C343.3,512.9,343.3,505.8,343.3,498.6L343.3,498.6L343.3,498.6z M346.6,497c0,7.2,0,14.3,0,21.5c0.1,0.7,0.1,1.5,0.2,2.2
		c0.3,1.9,1.5,2.7,3.6,2.4c2.2-0.3,4-1.8,5.3-4.6c1.3-2.8,2-6.4,2-10.9c0-4.7-0.8-8.4-2.4-11.1c-1.6-2.7-3.6-3.9-6.1-3.7
		c-1,0.1-1.7,0.4-2.1,0.9C346.8,494.2,346.6,495.3,346.6,497L346.6,497z"/>
	<path style="fill-rule:evenodd;clip-rule:evenodd;fill:#FFFFFF;" d="M380.6,489.4c2.2,8.1,4.3,16.2,6.5,24.3
		c0.3,1.2,0.7,2.1,1.1,2.7c0.4,0.5,1,0.9,1.7,0.9c0.2,0,0.3,0.2,0.3,0.7c0,0.5-0.1,0.7-0.3,0.7c-0.1,0-0.3,0-0.5,0
		c-0.7-0.1-1.9,0-3.5,0.4c-1.6,0.3-2.7,0.7-3.3,1.1c-0.1,0.1-0.3,0.2-0.4,0.2c-0.3,0.1-0.4-0.2-0.4-0.7c0-0.2,0.1-0.4,0.3-0.6
		c0.5-0.3,0.8-0.8,1.1-1.4c0.3-0.6,0.5-1.3,0.5-1.9c0-0.9-0.4-2.8-1.3-5.8c-0.3-0.9-0.5-1.4-0.8-1.5c-0.3-0.1-1.4,0.1-3.3,0.4
		c-0.6,0.1-1.3,0.2-1.9,0.4c-0.4,0.2-0.9,0.4-1.3,0.6c-0.3,0.3-0.7,1.5-1.2,3.5c-0.1,0.7-0.3,1.3-0.4,2c-0.1,0.6-0.2,1.1-0.2,1.7
		c0,2.1,0.8,3.1,2.6,3.2c0.4,0,0.5,0.2,0.5,0.6c0,0.4-0.2,0.7-0.5,0.7c-0.2,0-0.4,0-0.7,0c-0.6-0.1-1.2-0.1-1.7,0
		c-0.5,0.1-1.2,0.3-2.2,0.6c-0.8,0.2-1.2,0.4-1.4,0.4c-0.3,0-0.4-0.1-0.4-0.5c0-0.3,0.1-0.6,0.4-0.8c0.5-0.4,0.9-0.9,1.3-1.7
		c0.3-0.8,0.8-2.4,1.4-4.9c1.3-5.4,2.6-10.7,3.9-16.1c0.3-1.3,0.5-2.2,0.7-2.6c0.4-1.6,0.9-3.3,1.3-4.9c0.2-0.8,0.5-1.6,0.7-2.4
		c0,0,0,0,0,0.1c0.3-1.4,0.5-2,0.6-2.1c0.2,0,0.4,0.6,0.8,1.9C380.4,488.5,380.5,489,380.6,489.4L380.6,489.4L380.6,489.4z
		 M381.1,504.6c-0.6-2.4-1.3-4.7-1.9-7.1c-0.4-1.7-0.8-2.5-1-2.5c-0.1,0-0.3,0.6-0.6,1.8c-0.1,0.4-0.2,0.7-0.3,1.1
		c-0.6,2.3-1.1,4.5-1.7,6.8c-0.1,0.2-0.1,0.4-0.2,0.6c-0.1,0.3-0.1,0.5-0.1,0.7c0,0.6,0.3,0.8,1,0.6c1.4-0.3,2.8-0.5,4.2-0.8
		c0.4-0.1,0.5-0.3,0.5-0.6c0-0.1,0-0.2-0.1-0.4C381.2,504.8,381.2,504.7,381.1,504.6L381.1,504.6z"/>
	<path style="fill-rule:evenodd;clip-rule:evenodd;fill:#FFFFFF;" d="M394.1,509.5c0.2-0.1,0.6,0.2,1,0.9c0.3,0.5,0.6,0.9,0.8,1.4
		c0.2,0.3,0.4,0.6,0.6,0.9c0.1,0.2,0.1,0.4,0.1,0.7c0,0.4-0.2,0.9-0.6,1.7c-0.2,0.4-0.5,0.9-0.8,1.6c-0.5,1-0.8,1.5-1,1.5
		c-0.2,0-0.4-0.2-0.8-0.7c-0.4-0.7-0.8-1.2-1-1.5c-0.5-0.6-0.7-1.1-0.7-1.5c0-0.4,0.2-0.9,0.6-1.6c0.2-0.4,0.5-1,0.9-1.8
		C393.6,510,393.9,509.6,394.1,509.5L394.1,509.5z"/>
	<path style="fill-rule:evenodd;clip-rule:evenodd;fill:#FFFFFF;" d="M404.8,493.6c0,0.9,0.1,1.5,0.2,1.8c0.1,0.3,0.4,0.4,0.8,0.3
		c0.2-0.1,0.4-0.1,0.5-0.2c0.5-0.1,1-0.3,1.6-0.4c0.7-0.2,1.2-0.6,1.6-1.2c0.4-0.6,0.7-1.7,1.1-3.4c0.1-0.4,0.2-0.6,0.3-0.6
		c0.3-0.1,0.4,0.1,0.4,0.5c0,0.1,0,0.3,0,0.6c0,0.2,0,0.5,0,0.8c0,0.9,0,2,0.1,3.3c0.1,1.5,0.1,3,0.2,4.6c0,0.5,0,0.8,0,1
		c0,0.3-0.1,0.6-0.4,0.7c-0.2,0.1-0.3-0.1-0.3-0.6c-0.2-1.7-0.5-2.7-0.9-3.2c-0.4-0.5-1.2-0.6-2.3-0.3c-1.4,0.4-2.2,0.7-2.4,1.1
		c-0.2,0.4-0.3,1.6-0.3,3.6c0,0.7,0,1.3,0,2c0,1,0,1.9,0,2.9c0,2.4,0.2,4.2,0.7,5.1c0.4,0.7,1.1,1,2.2,0.9c0.3,0,0.5,0.2,0.5,0.6
		c0,0.5-0.1,0.7-0.3,0.8c-0.2,0-0.5,0.1-0.8,0.1c-0.3,0-1,0.2-2.1,0.4c-0.5,0.1-1.1,0.3-1.6,0.4c-0.7,0.2-1.3,0.4-1.8,0.7
		c-0.7,0.4-1.2,0.6-1.4,0.6c-0.3,0.1-0.5-0.1-0.5-0.5c0-0.3,0.1-0.6,0.4-0.8c0.6-0.5,1-1.1,1.2-2c0.2-0.8,0.3-2.3,0.3-4.2
		c0-6.7,0-13.4,0-20.2c0-2.1-0.2-3.4-0.6-3.9c-0.5-0.6-1.2-0.8-2.1-0.7c-0.3,0-0.4-0.2-0.4-0.5c0-0.5,0.2-0.8,0.5-0.9
		c0.1,0,0.4-0.1,0.7-0.1c0.6-0.1,1.2-0.2,1.8-0.3c0.8-0.2,1.6-0.5,2.5-0.7c1.3-0.3,2.5-0.7,3.8-1c1.3-0.3,2.6-0.8,3.9-1.3
		c0.5-0.2,0.9-0.3,1.1-0.4c0.2-0.1,0.4,0.3,0.4,1.2c0,1,0.1,1.6,0.1,1.8c0,0.6,0.1,1.2,0.1,1.9c0,0.4,0,0.7,0,1
		c0,1.4-0.2,2.1-0.6,2.2c-0.2,0.1-0.3-0.1-0.3-0.6c0-0.3,0-0.6,0-0.8c0-0.3,0-0.6-0.1-0.8c-0.4-2.1-1.6-2.8-3.7-2.3
		c-0.6,0.2-1.2,0.3-1.8,0.5c-0.2,0.1-0.4,0.1-0.6,0.2c-0.5,0.1-0.9,0.4-1.1,0.8c-0.2,0.4-0.3,1-0.3,1.9
		C404.8,488.4,404.8,491,404.8,493.6L404.8,493.6z"/>
	<path style="fill-rule:evenodd;clip-rule:evenodd;fill:#FFFFFF;" d="M416.4,503.9c0.2-0.1,0.6,0.2,0.9,0.8c0.3,0.4,0.6,0.9,0.8,1.3
		c0.2,0.3,0.4,0.6,0.5,0.8c0.1,0.2,0.1,0.4,0.1,0.7c0,0.4-0.2,1-0.6,1.7c-0.2,0.4-0.5,0.9-0.8,1.6c-0.5,1-0.8,1.5-1,1.6
		c-0.2,0.1-0.4-0.2-0.8-0.7c-0.4-0.7-0.8-1.2-1-1.5c-0.5-0.6-0.7-1.1-0.7-1.5c0-0.4,0.2-0.9,0.6-1.7c0.2-0.4,0.5-1,0.9-1.8
		C415.8,504.4,416.1,504,416.4,503.9L416.4,503.9z"/>
	<path style="fill-rule:evenodd;clip-rule:evenodd;fill:#FFFFFF;" d="M431,473.2c1.7-0.6,3.3-0.4,4.6,0.5c0.3,0.2,0.6,0.4,0.9,0.6
		c0.2,0.1,0.4,0.2,0.5,0.1c0.2-0.1,0.3-0.2,0.4-0.5c0.1-0.3,0.2-0.6,0.3-0.9c0-0.1,0.1-0.2,0.3-0.3c0.3-0.1,0.4,0.4,0.4,1.5
		c0,0.6,0,1.2,0,1.8c0,0.7,0,1.5,0,2.2c0,0.6,0.1,1.2,0.1,1.8c0,0.4,0.1,0.7,0.1,1.1c0.1,0.5,0.1,1,0.1,1.4c0,0.6-0.1,1-0.4,1.1
		c-0.1,0-0.3-0.1-0.3-0.5c-0.1-0.6-0.3-1.5-0.8-2.6c-0.4-1.1-0.9-2-1.3-2.6c-1.6-2.5-3.4-3.5-5.4-2.8c-1.8,0.6-3.2,2.3-4.3,5.2
		c-1.1,2.9-1.7,6.3-1.7,10.4c0,5.3,0.9,9.2,2.7,11.8c1.4,1.9,2.8,2.6,4.4,2.1c0.9-0.3,1.9-1,3-2.2c1.1-1.1,1.9-2.4,2.5-3.8
		c0.3-0.7,0.6-1.4,0.9-2c0.1-0.3,0.2-0.5,0.4-0.5c0.2-0.1,0.3,0.1,0.3,0.5c0,0.7-0.4,1.9-1.1,3.6c-1.9,4.5-4.3,7.2-7.1,8.1
		c-2.7,0.9-5,0-6.7-2.5c-1.7-2.6-2.6-6.3-2.6-11.2c0-2.7,0.3-5.4,1-8.2c0.6-2.8,1.5-5.1,2.6-7.1C426.5,475.9,428.6,473.9,431,473.2
		L431,473.2z"/>
	<path style="fill-rule:evenodd;clip-rule:evenodd;fill:#D7B382;" d="M185.7,198.1c-0.2-3.2,3.3-6.2,8.3-8.2
		c9.8-3.9,23.8-7.2,34.9-8.5v18.2c0,0-8-2.9-16.8-1C206.2,200,186,203.9,185.7,198.1L185.7,198.1z"/>
	<path style="fill-rule:evenodd;clip-rule:evenodd;fill:#EC1C24;" d="M183.8,185.2c0,0,0.1,9.7,0.1,12.2c0,2.6,3,5.2,8.2,5.4
		c3.2,0.1,13.1-1,18.4-2.3c6.2-1.5,17.4-1.6,17.4,2.9c0,5.6-10.5,9.7-20.8,9.7c-10.3,0-17.9-4.6-21.8-5.9
		c-3.9-1.3-17.1-4.2-19.4,1.9c0-10.6,0-21.6,0-21.6s3.3-3.4,9.6-3.3C179.4,184.6,183.8,185.2,183.8,185.2L183.8,185.2z"/>
	<path style="fill-rule:evenodd;clip-rule:evenodd;fill:#EC1C24;" d="M173.3,216.8c0,0,4.5,3.5,8.4,6.4c-5.2,2.3-8.4,2.9-8.4,2.9
		V216.8L173.3,216.8z"/>
	<path style="fill-rule:evenodd;clip-rule:evenodd;fill:#D7B382;" d="M166.8,211.6c-2.7-1.4,5-5.9,9.7-4.5c4.2,1.3,9.6,6.5,8.9,11.6
		c-0.6,5.2-2.4,3.7-2.4,3.7S176.2,216.4,166.8,211.6L166.8,211.6z"/>
	<path style="fill-rule:evenodd;clip-rule:evenodd;fill:#D7B382;" d="M415.4,198.1c0.2-3.2-3.3-6.2-8.3-8.2
		c-9.8-3.9-23.8-7.2-34.9-8.5v18.2c0,0,8-2.9,16.8-1C394.8,200,415.1,203.9,415.4,198.1L415.4,198.1z"/>
	<path style="fill-rule:evenodd;clip-rule:evenodd;fill:#EC1C24;" d="M417.2,185.2c0,0-0.1,9.7-0.1,12.2c0,2.6-3,5.2-8.2,5.4
		c-3.2,0.1-13.1-1-18.4-2.3c-6.2-1.5-17.4-1.6-17.4,2.9c0,5.6,10.5,9.7,20.8,9.7c10.3,0,17.9-4.6,21.8-5.9
		c3.9-1.3,17.1-4.2,19.4,1.9c0-10.6,0-21.6,0-21.6s-3.3-3.4-9.6-3.3C421.7,184.6,417.2,185.2,417.2,185.2L417.2,185.2z"/>
	<path style="fill-rule:evenodd;clip-rule:evenodd;fill:#EC1C24;" d="M427.7,216.8c0,0-4.5,3.5-8.4,6.4c5.2,2.3,8.4,2.9,8.4,2.9
		V216.8L427.7,216.8z"/>
	<path style="fill-rule:evenodd;clip-rule:evenodd;fill:#D7B382;" d="M434.2,211.6c2.7-1.4-5-5.9-9.7-4.5c-4.2,1.3-9.6,6.5-8.9,11.6
		c0.6,5.2,2.4,3.7,2.4,3.7S424.9,216.4,434.2,211.6L434.2,211.6z"/>
	<path style="fill-rule:evenodd;clip-rule:evenodd;fill:#EC1C24;" d="M300.2,174.2c75,0,107.4,11.6,115.3,18.7v-18.4
		c0,0,0.1-5.6-19.4-9.7c-17.2-3.6-54.8-9.6-95.9-9.6h0.7c-41,0-78.7,6-95.9,9.6c-19.5,4.1-19.4,9.7-19.4,9.7v18.4
		c7.8-7.1,40.3-18.7,115.3-18.7H300.2L300.2,174.2z"/>
	<path style="fill-rule:evenodd;clip-rule:evenodd;fill:#FFFFFF;" d="M198.5,168.6c0.9-0.2,1.7-0.1,2.3,0.3c0.2,0.1,0.3,0.2,0.5,0.3
		c0.1,0.1,0.2,0.1,0.3,0.1c0.1,0,0.2-0.1,0.2-0.2c0.1-0.1,0.1-0.2,0.2-0.3c0-0.1,0.1-0.1,0.1-0.1c0.1,0,0.2,0.2,0.2,0.6
		c0,0.2,0,0.5,0,0.7c0,0.3,0,0.6,0,0.9c0,0.2,0,0.5,0.1,0.7c0,0.1,0,0.3,0.1,0.4c0,0.2,0,0.4,0,0.6c0,0.3-0.1,0.4-0.2,0.4
		c-0.1,0-0.1-0.1-0.1-0.2c0-0.2-0.2-0.6-0.4-1.1c-0.2-0.5-0.4-0.8-0.6-1.1c-0.8-1.1-1.7-1.5-2.8-1.3c-0.9,0.2-1.6,0.9-2.2,2
		c-0.6,1.1-0.8,2.5-0.8,4.1c0,2.1,0.5,3.7,1.4,4.8c0.7,0.8,1.4,1.1,2.2,0.9c0.5-0.1,1-0.4,1.5-0.8c0.5-0.4,1-0.9,1.3-1.4
		c0.2-0.3,0.3-0.5,0.5-0.8c0.1-0.1,0.1-0.2,0.2-0.2c0.1,0,0.1,0,0.1,0.2c0,0.3-0.2,0.7-0.6,1.4c-1,1.7-2.2,2.7-3.6,3
		c-1.4,0.3-2.5-0.1-3.4-1.1c-0.9-1-1.3-2.5-1.3-4.5c0-1.1,0.2-2.2,0.5-3.3c0.3-1.1,0.8-2,1.3-2.8
		C196.3,169.6,197.3,168.9,198.5,168.6L198.5,168.6z"/>
	<path style="fill-rule:evenodd;clip-rule:evenodd;fill:#FFFFFF;" d="M208.7,166.6c1.5-0.3,2.7,0.1,3.6,1.1c0.9,1,1.4,2.5,1.4,4.4
		c0,2.1-0.5,4-1.4,5.6c-0.9,1.6-2.2,2.5-3.8,2.8c-1.5,0.3-2.8-0.1-3.7-1.1c-0.9-1.1-1.4-2.6-1.4-4.7c0-0.9,0.1-1.8,0.3-2.7
		c0.2-0.9,0.5-1.7,0.9-2.4c0.5-0.8,1-1.5,1.8-2C207.1,167.1,207.9,166.7,208.7,166.6L208.7,166.6L208.7,166.6z M208.1,167.4
		c-1,0.2-1.7,0.8-2.2,1.9c-0.5,1.1-0.8,2.5-0.8,4.2c0,2.1,0.3,3.7,1,4.8c0.7,1.2,1.5,1.6,2.6,1.4c1-0.2,1.7-0.9,2.3-2
		c0.6-1.2,0.9-2.6,0.9-4.4c0-1-0.1-2-0.4-2.9c-0.3-0.9-0.6-1.6-1.1-2.1C209.8,167.5,209,167.2,208.1,167.4L208.1,167.4z"/>
	<path style="fill-rule:evenodd;clip-rule:evenodd;fill:#FFFFFF;" d="M218.4,167.3c1.3,1.7,2.5,3.5,3.8,5.2c0.1,0.1,0.2,0.2,0.2,0.3
		c0.3,0.4,0.5,0.7,0.6,0.6c0.1,0,0.2-0.2,0.2-0.6c0-1.5,0.1-2.8,0.1-4.1c0-1.5-0.1-2.6-0.3-3.1c-0.2-0.5-0.7-0.7-1.3-0.7
		c-0.2,0-0.2-0.1-0.2-0.2c0-0.2,0.1-0.3,0.2-0.3c0.2,0,0.5,0,0.8,0c0.2,0,0.5,0,0.6,0c0.3-0.1,0.9-0.2,1.6-0.4c0.1,0,0.2,0,0.2-0.1
		c0.2,0,0.2,0.1,0.2,0.2c0,0.2-0.1,0.3-0.2,0.3c-0.6,0.3-0.9,1.1-0.9,2.4c0,0.2,0,0.3,0,0.5c0,2-0.1,4.1-0.1,6.1c0,0.3,0,0.6,0,0.8
		c0,0.4,0,0.7,0,1.1c0,0.2,0,0.5,0,0.7c0,0.4,0,0.8,0,1.2c0,0.2,0,0.3-0.1,0.3c-0.1,0-0.2-0.1-0.3-0.2c-2.2-3-4.3-5.9-6.5-8.9
		c-0.1-0.2-0.2-0.2-0.2-0.2c-0.1,0-0.2,0.2-0.2,0.5c0,0.1,0,0.2,0,0.3c0,1.3,0,2.5,0,3.8c0,2,0.1,3.4,0.2,4c0.2,0.7,0.6,1,1.4,1
		c0.1,0,0.2,0.1,0.2,0.2c0,0.2-0.1,0.3-0.2,0.3c-0.1,0-0.1,0-0.3,0c-0.4,0-0.8,0-1.3,0.1c-0.5,0.1-0.9,0.2-1.3,0.4
		c-0.2,0.1-0.3,0.1-0.4,0.1c-0.1,0-0.2,0-0.2-0.2c0-0.1,0.1-0.2,0.2-0.3c0.3-0.2,0.6-0.5,0.8-1c0.2-0.5,0.2-1.1,0.2-1.9
		c0-0.8,0-1.6,0-2.3c0-1.4,0-2.8,0-4.2c0-2-0.5-3-1.6-2.9c-0.1,0-0.2-0.1-0.2-0.2c0-0.2,0.1-0.3,0.2-0.3c0.2,0,0.3,0,0.5-0.1
		c0.1,0,0.2,0,0.3-0.1c0.4-0.1,0.8-0.2,1.2-0.3c0.2,0,0.3-0.1,0.4-0.1c0.1,0,0.3,0,0.3,0.1c0.1,0.1,0.3,0.3,0.5,0.7
		c0.2,0.2,0.3,0.5,0.5,0.7C218.2,167.1,218.3,167.3,218.4,167.3L218.4,167.3z"/>
	<path style="fill-rule:evenodd;clip-rule:evenodd;fill:#FFFFFF;" d="M228.5,163.2c0.4-0.1,0.9,0,1.3,0.2c0.2,0.1,0.3,0.1,0.5,0.2
		c0.2,0.1,0.4,0.1,0.5,0.1c0.1,0,0.1,0,0.2-0.1c0.1-0.1,0.2-0.1,0.3-0.2c0,0,0.1-0.1,0.1-0.1c0.1,0,0.2,0.1,0.2,0.3
		c0,0.3,0,0.5,0,0.8c0,0.1,0,0.2,0,0.3c0,0.3,0.1,0.6,0.1,0.9c0,0.3,0,0.6,0.1,0.9c0,0.1,0,0.1,0,0.2c0,0.3-0.1,0.4-0.2,0.4
		c-0.1,0-0.1-0.1-0.2-0.3c-0.1-0.9-0.5-1.6-1-2.2c-0.6-0.6-1.1-0.8-1.8-0.7c-0.4,0.1-0.8,0.3-1.1,0.8c-0.3,0.4-0.5,0.9-0.5,1.5
		c0,0.5,0.1,0.9,0.4,1.2c0.2,0.2,0.7,0.5,1.7,0.9c1.1,0.5,1.9,1,2.2,1.5c0.4,0.7,0.7,1.5,0.7,2.6c0,1.1-0.3,2.2-0.9,3.1
		c-0.6,0.9-1.3,1.5-2.1,1.6c-0.3,0-0.8,0-1.6-0.2c-0.3-0.1-0.6-0.2-0.7-0.2c-0.2,0-0.3-0.1-0.4-0.1c0-0.1-0.1-0.2-0.1-0.5
		c0-0.3-0.1-0.7-0.2-1.3c-0.2-0.9-0.3-1.4-0.3-1.7c0-0.3,0.1-0.5,0.2-0.5c0.1,0,0.1,0.1,0.1,0.2c0.2,1.1,0.6,2,1.2,2.7
		c0.6,0.7,1.2,1,1.8,0.9c0.5-0.1,0.9-0.4,1.3-0.9c0.4-0.6,0.6-1.2,0.6-1.8c0-0.5-0.1-0.9-0.3-1.2c-0.2-0.3-0.5-0.6-1-0.8
		c-0.4-0.2-0.7-0.3-1.1-0.5c-1-0.5-1.7-1-2.1-1.5c-0.4-0.5-0.5-1.2-0.5-2.2c0-1.1,0.3-2,0.8-2.8
		C227.1,163.8,227.7,163.4,228.5,163.2L228.5,163.2z"/>
	<path style="fill-rule:evenodd;clip-rule:evenodd;fill:#FFFFFF;" d="M235.8,164.7c0,0.7,0,1.4,0,2.1c0,0.6,0,1,0.1,1.1
		c0.1,0.2,0.2,0.2,0.5,0.2c0.1,0,0.1,0,0.2,0c0.1,0,0.2,0,0.3-0.1c0.2,0,0.4-0.1,0.6-0.1c0.5-0.1,0.8-0.5,1.1-1.2
		c0.1-0.2,0.1-0.3,0.2-0.5c0-0.1,0.1-0.2,0.2-0.2c0.1,0,0.2,0.1,0.2,0.2c0,0.1,0,0.2,0,0.4c0,0.2,0,0.3,0,0.4c0,0.2,0,0.7,0.1,1.5
		c0,0.5,0,0.9,0,1.3c0,0.2,0,0.3,0,0.5c0,0.1,0,0.2,0,0.2c0,0-0.1,0.1-0.1,0.1c-0.1,0-0.2-0.1-0.2-0.3c-0.1-0.5-0.2-0.9-0.4-1.2
		c-0.1-0.1-0.3-0.2-0.5-0.2c-0.2,0-0.5,0-1,0.1c-0.2,0-0.3,0-0.5,0.1c-0.2,0-0.4,0.1-0.5,0.2c-0.1,0.1-0.1,0.3-0.2,0.6
		c0,0.3,0,0.8,0,1.6c0,0.3,0,0.6,0,0.9c0,0.9,0.1,1.6,0.2,2c0.1,0.3,0.2,0.5,0.3,0.6c0.1,0.1,0.3,0.1,0.5,0.1
		c1.9-0.3,3.2-1.2,3.8-2.9c0-0.1,0.1-0.1,0.1-0.1c0,0,0.1,0,0.1,0c0,0.1,0.1,0.1,0.1,0.2c0,0.6-0.1,1.3-0.4,1.9
		c-0.2,0.5-0.5,0.9-0.8,1.2c-0.3,0.3-0.7,0.4-1.3,0.5c-0.3,0-0.6,0.1-1,0.1c-0.3,0-0.6,0-0.8,0c-0.3,0-0.7,0-1.2,0.1
		c-0.3,0-0.9,0.1-1.6,0.3c-0.2,0-0.3,0.1-0.4,0.1c-0.1,0-0.2,0-0.2-0.2c0-0.1,0-0.2,0.2-0.3c0.3-0.2,0.5-0.4,0.5-0.5
		c0.1-0.2,0.2-0.5,0.2-0.9c0.1-0.4,0.1-0.8,0.1-1.4c0-2.6,0-5.2,0-7.7c0-0.7-0.1-1.2-0.3-1.5c-0.2-0.2-0.5-0.4-1.1-0.4
		c-0.1,0-0.2-0.1-0.2-0.3c0-0.2,0.1-0.2,0.2-0.3c0,0,0.1,0,0.2,0c0.1,0,0.2,0,0.4,0c0.2,0,0.5,0,0.7-0.1c0.9-0.1,1.8-0.2,2.7-0.3
		c1.6-0.2,2.5-0.3,2.9-0.5c0,0,0.1,0,0.1,0c0.1,0,0.2,0.1,0.2,0.3c0,0.1,0,0.4,0,0.8c0,0.6,0.1,1,0.1,1.2c0,0.5-0.1,0.8-0.3,0.8
		c-0.1,0-0.1-0.1-0.1-0.4c0-0.7-0.2-1.1-0.5-1.4c-0.3-0.2-0.9-0.3-1.7-0.2c-0.3,0-0.6,0.1-0.9,0.1c-0.2,0-0.3,0.1-0.5,0.1
		c-0.2,0.1-0.4,0.5-0.4,1C235.8,164.5,235.8,164.6,235.8,164.7L235.8,164.7z"/>
	<path style="fill-rule:evenodd;clip-rule:evenodd;fill:#FFFFFF;" d="M246.5,160.9c0.9-0.1,1.7,0.1,2.3,0.5c0.2,0.1,0.3,0.2,0.5,0.3
		c0.1,0.1,0.2,0.1,0.3,0.1c0.1,0,0.2-0.1,0.2-0.2c0.1-0.1,0.1-0.2,0.2-0.3c0-0.1,0.1-0.1,0.1-0.1c0.1,0,0.2,0.2,0.2,0.6
		c0,0.2,0,0.5,0,0.7c0,0.3,0,0.6,0,0.9c0,0.2,0,0.5,0.1,0.7c0,0.1,0,0.3,0.1,0.4c0,0.2,0,0.4,0,0.6c0,0.2-0.1,0.4-0.2,0.4
		c-0.1,0-0.1-0.1-0.1-0.2c0-0.2-0.2-0.6-0.4-1.1c-0.2-0.5-0.4-0.9-0.7-1.1c-0.8-1.1-1.8-1.6-2.8-1.5c-0.9,0.1-1.6,0.7-2.2,1.8
		c-0.6,1.1-0.8,2.4-0.8,4c0,2.1,0.5,3.7,1.4,4.9c0.7,0.9,1.4,1.2,2.3,1.2c0.5-0.1,1-0.3,1.5-0.6c0.5-0.4,1-0.8,1.3-1.3
		c0.2-0.2,0.3-0.5,0.5-0.7c0.1-0.1,0.1-0.2,0.2-0.2c0.1,0,0.1,0.1,0.1,0.2c0,0.3-0.2,0.7-0.6,1.3c-1,1.6-2.2,2.5-3.7,2.7
		c-1.4,0.2-2.5-0.3-3.4-1.5c-0.9-1.1-1.3-2.7-1.3-4.6c0-1.1,0.2-2.2,0.5-3.2c0.3-1.1,0.8-2,1.3-2.7
		C244.3,161.7,245.3,161.1,246.5,160.9L246.5,160.9z"/>
	<path style="fill-rule:evenodd;clip-rule:evenodd;fill:#FFFFFF;" d="M256.4,162.6c0,2.5,0,4.9,0,7.4c0,1.1,0.1,1.9,0.4,2.3
		c0.2,0.4,0.6,0.7,1.2,0.7c0.2,0,0.3,0.1,0.3,0.3c0,0.2-0.1,0.2-0.2,0.2c0,0-0.1,0-0.2,0c-0.2,0-0.4,0-0.5,0c-0.3,0-0.6,0-0.9,0
		c-0.1,0-0.2,0-0.3,0c-0.3,0-0.5,0.1-0.7,0.1c-0.5,0.1-1.1,0.2-1.6,0.3c-0.2,0-0.3,0.1-0.3,0.1c-0.1,0-0.2-0.1-0.2-0.2
		c0-0.1,0-0.2,0.1-0.3c0,0,0.1-0.1,0.3-0.1c0.4-0.1,0.7-0.3,0.9-0.6c0.2-0.4,0.3-0.8,0.3-1.4c0-0.2,0-0.3,0-0.5c0-2.9,0-5.8,0-8.7
		c0-0.5-0.2-0.8-0.6-0.7c-1,0.1-1.6,0.2-2,0.5c-0.3,0.2-0.4,0.3-0.5,0.5c-0.1,0.2-0.2,0.6-0.3,1.4c0,0.1,0,0.2-0.1,0.3
		c-0.1,0.3-0.1,0.4-0.2,0.4c-0.2,0-0.2-0.1-0.2-0.3c0-0.2,0-0.4,0.1-0.8c0-0.3,0-0.6,0.1-0.9c0-0.3,0.1-0.6,0.1-0.9
		c0-0.2,0-0.4,0.1-0.6c0-0.3,0.1-0.4,0.3-0.4c0,0,0.1,0,0.2,0c0.2,0,0.5,0,0.8-0.1c0.5,0,1-0.1,1.5-0.1c0.6,0,1.2-0.1,1.7-0.1
		c1.1-0.1,2.3-0.2,3.6-0.4c0.2,0,0.4-0.1,0.5-0.1c0.3,0,0.4,0.1,0.4,0.4c0,0.2,0,0.5,0,0.7c0,0.1,0,0.4,0.1,0.8
		c0,0.3,0.1,0.6,0.1,0.8c0,0.2-0.1,0.3-0.2,0.3c-0.1,0-0.2-0.1-0.2-0.4c-0.1-0.6-0.3-1-0.6-1.3c-0.3-0.2-0.7-0.3-1.2-0.3
		c-0.7,0.1-1.2,0.2-1.4,0.3C256.5,161.6,256.4,162,256.4,162.6L256.4,162.6z"/>
	<path style="fill-rule:evenodd;clip-rule:evenodd;fill:#FFFFFF;" d="M265.4,160.6c1.1,3.3,2.2,6.7,3.3,10c0.2,0.5,0.4,0.9,0.6,1.1
		c0.2,0.2,0.5,0.4,0.9,0.5c0.1,0,0.1,0.1,0.1,0.3c0,0.2-0.1,0.3-0.2,0.3c-0.1,0-0.2,0-0.3,0c-0.4-0.1-1-0.1-1.8,0
		c-0.8,0.1-1.4,0.1-1.7,0.3c-0.1,0-0.1,0.1-0.2,0.1c-0.1,0-0.2-0.1-0.2-0.3c0-0.1,0.1-0.2,0.2-0.2c0.2-0.1,0.4-0.3,0.6-0.5
		c0.1-0.2,0.2-0.5,0.2-0.8c0-0.4-0.2-1.2-0.6-2.4c-0.1-0.4-0.3-0.6-0.4-0.6c-0.2,0-0.7,0-1.6,0c-0.3,0-0.6,0-1,0.1
		c-0.2,0.1-0.4,0.1-0.6,0.2c-0.2,0.1-0.4,0.6-0.6,1.3c-0.1,0.3-0.1,0.5-0.2,0.8c-0.1,0.2-0.1,0.4-0.1,0.7c0,0.8,0.4,1.3,1.3,1.3
		c0.2,0,0.3,0.1,0.3,0.3c0,0.2-0.1,0.3-0.3,0.3c-0.1,0-0.2,0-0.4,0c-0.3-0.1-0.6-0.1-0.8-0.1c-0.2,0-0.6,0.1-1.1,0.2
		c-0.4,0.1-0.6,0.1-0.7,0.1c-0.1,0-0.2-0.1-0.2-0.2c0-0.1,0.1-0.2,0.2-0.3c0.3-0.1,0.5-0.4,0.6-0.7c0.2-0.3,0.4-1,0.7-1.9
		c0.7-2.1,1.3-4.2,2-6.3c0.2-0.5,0.3-0.8,0.3-1c0.2-0.6,0.4-1.3,0.7-1.9c0.1-0.3,0.2-0.6,0.3-0.9c0,0,0,0,0,0
		c0.2-0.5,0.3-0.8,0.3-0.8c0.1,0,0.2,0.3,0.4,0.8C265.3,160.2,265.3,160.4,265.4,160.6L265.4,160.6L265.4,160.6z M265.6,166.7
		c-0.3-1-0.6-1.9-0.9-2.9c-0.2-0.7-0.4-1-0.5-1c-0.1,0-0.2,0.2-0.3,0.7c0,0.1-0.1,0.3-0.1,0.4c-0.3,0.9-0.6,1.8-0.8,2.7
		c0,0.1-0.1,0.2-0.1,0.2c0,0.1-0.1,0.2-0.1,0.3c0,0.2,0.2,0.3,0.5,0.3c0.7-0.1,1.4-0.1,2.1-0.2c0.2,0,0.3-0.1,0.3-0.2
		c0,0,0-0.1,0-0.2C265.7,166.7,265.7,166.7,265.6,166.7L265.6,166.7z"/>
	<path style="fill-rule:evenodd;clip-rule:evenodd;fill:#FFFFFF;" d="M275,161.3c0,2.5,0,4.9,0,7.4c0,1.1,0.1,1.9,0.3,2.3
		c0.2,0.4,0.6,0.7,1.2,0.7c0.2,0,0.3,0.1,0.3,0.3c0,0.2-0.1,0.2-0.2,0.2c0,0-0.1,0-0.2,0c-0.2,0-0.4,0-0.5,0c-0.3,0-0.6,0-0.9,0
		c-0.1,0-0.2,0-0.3,0c-0.3,0-0.5,0-0.7,0.1c-0.5,0.1-1.1,0.1-1.6,0.2c-0.2,0-0.3,0.1-0.3,0.1c-0.1,0-0.2-0.1-0.2-0.2
		c0-0.1,0-0.2,0.1-0.3c0,0,0.1-0.1,0.3-0.1c0.4-0.1,0.7-0.3,0.9-0.6c0.2-0.3,0.3-0.8,0.3-1.4c0-0.2,0-0.3,0-0.5c0-2.9,0-5.8,0-8.7
		c0-0.5-0.2-0.8-0.6-0.7c-1,0.1-1.6,0.2-2,0.4c-0.3,0.2-0.4,0.3-0.5,0.5c-0.1,0.2-0.2,0.6-0.3,1.4c0,0.1,0,0.2-0.1,0.3
		c-0.1,0.3-0.1,0.4-0.2,0.4c-0.2,0-0.2-0.1-0.2-0.3c0-0.2,0-0.4,0.1-0.8c0-0.3,0.1-0.6,0.1-0.9c0-0.3,0.1-0.6,0.1-0.9
		c0-0.2,0-0.4,0-0.6c0-0.3,0.1-0.4,0.3-0.4c0,0,0.1,0,0.2,0c0.2,0,0.5,0,0.8,0c0.5,0,1,0,1.5-0.1c0.6,0,1.2,0,1.7-0.1
		c1.1-0.1,2.3-0.2,3.6-0.3c0.2,0,0.4,0,0.5,0c0.3,0,0.4,0.1,0.4,0.4c0,0.2,0,0.5,0,0.7c0,0.1,0,0.4,0.1,0.8c0,0.3,0.1,0.6,0.1,0.8
		c0,0.2-0.1,0.3-0.2,0.3c-0.1,0-0.2-0.1-0.2-0.4c-0.1-0.6-0.3-1-0.6-1.3c-0.3-0.3-0.7-0.4-1.2-0.3c-0.7,0-1.2,0.1-1.4,0.3
		C275.1,160.3,275,160.7,275,161.3L275,161.3z"/>
	<path style="fill-rule:evenodd;clip-rule:evenodd;fill:#FFFFFF;" d="M282.3,168.9c0,0.3,0,0.7,0.1,1c0.1,0.5,0.2,0.9,0.4,1.1
		c0.2,0.3,0.5,0.4,0.9,0.4c0.2,0,0.4,0.1,0.4,0.3c0,0.2-0.2,0.3-0.5,0.3c-0.1,0-0.3,0-0.6,0c-0.6-0.1-1.1-0.1-1.5-0.1
		c-0.5,0-0.9,0.1-1.1,0.1c-0.2,0.1-0.4,0.1-0.5,0.1c-0.1,0-0.2-0.1-0.2-0.2c0,0,0-0.1,0-0.1c0.1-0.1,0.1-0.2,0.2-0.2
		c0.3-0.2,0.6-0.4,0.7-0.6c0.1-0.2,0.2-0.7,0.2-1.2c0-0.3,0-0.6,0-0.9c0-2.6,0-5.2,0-7.8c0-0.6-0.1-1-0.2-1.3
		c-0.2-0.2-0.4-0.4-0.8-0.5c-0.2,0-0.4-0.1-0.5-0.1c-0.1,0-0.1-0.1-0.1-0.2c0-0.2,0.1-0.3,0.2-0.3c0.1,0,0.2,0,0.4,0.1
		c0.2,0,0.5,0.1,0.9,0c0.3,0,0.6,0,1-0.1c0.2,0,0.3,0,0.5-0.1c0.5-0.1,0.9-0.1,1.1-0.1c0.2,0,0.2,0.1,0.2,0.2c0,0.1,0,0.2,0,0.2
		c0,0-0.1,0.1-0.2,0.1c-0.3,0.1-0.6,0.2-0.7,0.4c-0.1,0.2-0.1,0.6-0.1,1.1C282.3,163.4,282.3,166.2,282.3,168.9L282.3,168.9z"/>
	<path style="fill-rule:evenodd;clip-rule:evenodd;fill:#FFFFFF;" d="M289.9,158.1c1.5,0,2.7,0.5,3.6,1.7c0.9,1.2,1.4,2.7,1.4,4.7
		c0,2.1-0.5,3.9-1.4,5.3c-0.9,1.4-2.2,2.2-3.8,2.2c-1.6,0-2.8-0.6-3.7-1.8c-0.9-1.2-1.4-2.9-1.4-4.9c0-0.9,0.1-1.8,0.4-2.7
		c0.2-0.9,0.6-1.6,1-2.2c0.5-0.7,1.1-1.3,1.8-1.7C288.3,158.4,289.1,158.1,289.9,158.1L289.9,158.1L289.9,158.1z M289.4,158.9
		c-1,0-1.7,0.5-2.3,1.5c-0.5,1-0.8,2.4-0.8,4.1c0,2.1,0.3,3.7,1,5c0.7,1.3,1.6,1.9,2.6,1.9c1,0,1.8-0.6,2.4-1.6
		c0.6-1.1,0.9-2.5,0.9-4.3c0-1-0.1-2-0.4-3c-0.3-1-0.6-1.7-1.1-2.3C291,159.3,290.3,158.8,289.4,158.9L289.4,158.9z"/>
	<path style="fill-rule:evenodd;clip-rule:evenodd;fill:#FFFFFF;" d="M302.5,160.5c0,0.7,0,1.4,0,2.1c0,0.6,0,1,0.1,1.2
		c0.1,0.2,0.2,0.2,0.5,0.2c0.1,0,0.1,0,0.2,0c0.1,0,0.2,0,0.3,0c0.2,0,0.4,0,0.6,0c0.5,0,0.8-0.3,1.1-1.1c0.1-0.2,0.1-0.3,0.2-0.5
		c0-0.1,0.1-0.2,0.2-0.2c0.1,0,0.2,0.1,0.2,0.3c0,0.1,0,0.2,0,0.4c0,0.2,0,0.3,0,0.4c0,0.2,0,0.7,0.1,1.5c0,0.5,0,0.9,0,1.3
		c0,0.2,0,0.3,0,0.5c0,0.1,0,0.2,0,0.2c0,0-0.1,0.1-0.1,0.1c-0.1,0-0.2-0.1-0.2-0.4c-0.1-0.6-0.2-1-0.4-1.3
		c-0.1-0.2-0.3-0.3-0.5-0.3c-0.2,0-0.5-0.1-1-0.1c-0.2,0-0.3,0-0.5,0c-0.2,0-0.4,0-0.5,0.1c-0.1,0.1-0.1,0.3-0.2,0.6
		c0,0.3,0,0.8,0,1.5c0,0.3,0,0.6,0,0.9c0,0.9,0.1,1.6,0.2,2c0.1,0.3,0.2,0.5,0.3,0.6c0.1,0.1,0.3,0.2,0.5,0.2c1.9,0,3.2-0.8,3.8-2.4
		c0-0.1,0.1-0.1,0.1-0.1c0.1,0,0.1,0,0.1,0.1c0,0.1,0.1,0.1,0.1,0.2c0,0.6-0.1,1.3-0.4,1.9c-0.2,0.5-0.5,0.9-0.8,1.1
		c-0.3,0.2-0.7,0.3-1.3,0.3c-0.3,0-0.6,0-1-0.1c-0.3,0-0.6-0.1-0.8-0.1c-0.3,0-0.7-0.1-1.2-0.1c-0.3,0-0.9,0-1.6,0.1
		c-0.2,0-0.3,0-0.4,0c-0.1,0-0.2-0.1-0.2-0.2c0-0.1,0-0.2,0.2-0.3c0.3-0.1,0.5-0.3,0.6-0.5c0.1-0.2,0.2-0.4,0.2-0.9
		c0.1-0.3,0.1-0.8,0.1-1.4c0-2.6,0-5.2,0-7.7c0-0.7-0.1-1.2-0.3-1.5c-0.2-0.3-0.5-0.4-1.1-0.5c-0.1,0-0.2-0.1-0.2-0.3
		c0-0.2,0.1-0.2,0.2-0.2c0,0,0.1,0,0.2,0c0.1,0,0.2,0,0.4,0c0.2,0,0.5,0,0.7,0c0.9,0,1.8,0,2.7,0c1.6,0,2.5,0,2.9-0.1
		c0,0,0.1,0,0.1,0c0.1,0,0.2,0.1,0.2,0.3c0,0.1,0,0.4,0,0.8c0,0.6,0.1,1,0.1,1.2c0,0.5-0.1,0.8-0.3,0.8c-0.1,0-0.1-0.1-0.1-0.4
		c0-0.7-0.2-1.1-0.5-1.4c-0.3-0.3-0.9-0.5-1.7-0.5c-0.3,0-0.6,0-0.9,0c-0.2,0-0.3,0.1-0.5,0.1c-0.2,0.1-0.4,0.4-0.4,1
		C302.5,160.3,302.5,160.4,302.5,160.5L302.5,160.5z"/>
	<path style="fill-rule:evenodd;clip-rule:evenodd;fill:#FFFFFF;" d="M314.5,158.5c0.1,0,0.1,0,0.3,0c0.5,0.1,0.9,0.1,1.3,0.1
		c0.2,0,0.4,0,0.7,0c0.3,0,0.6,0,0.9-0.1c0.2,0,0.3,0,0.5,0c0.1,0,0.2,0.1,0.2,0.3c0,0.2-0.1,0.3-0.2,0.3c-0.4,0.1-0.7,0.2-1,0.4
		c-0.6,0.6-1.3,1.6-2.1,2.8c-0.6,0.9-0.9,1.4-0.9,1.5c-0.2,0.3-0.3,0.5-0.3,0.6c0,0.1,0.1,0.4,0.4,0.9c0.1,0.2,0.4,0.8,0.9,1.8
		c0.8,1.6,1.5,2.7,2,3.5c0.3,0.5,0.8,0.8,1.3,0.8c0.2,0,0.2,0.1,0.2,0.3c0,0.2-0.1,0.3-0.3,0.3c-0.1,0-0.2,0-0.3,0
		c-0.3,0-0.6-0.1-0.9-0.1c-0.4-0.1-0.8-0.1-1.1-0.1c-0.2,0-0.4,0-0.6,0c-0.3,0-0.5,0-0.8,0c-0.3,0-0.5,0-0.6,0
		c-0.2,0-0.2-0.1-0.2-0.2c0-0.2,0.1-0.3,0.3-0.3c0.4,0,0.6-0.3,0.6-0.7c0-0.2-0.1-0.6-0.4-1.1c-0.2-0.5-0.7-1.3-1.3-2.4
		c-0.1-0.2-0.2-0.4-0.4-0.6c-0.1-0.1-0.1-0.2-0.1-0.2c0,0-0.1,0.1-0.2,0.2c-0.1,0.2-0.3,0.4-0.4,0.7c-1.1,1.7-1.6,2.7-1.6,3.2
		c0,0.5,0.4,0.8,1.1,0.9c0.2,0,0.2,0.1,0.2,0.3c0,0.2-0.1,0.3-0.2,0.3c-0.1,0-0.1,0-0.3,0c-0.6-0.1-1.2-0.1-1.8-0.2
		c-0.2,0-0.4,0-0.7,0c-0.2,0-0.4,0-0.6,0c-0.1,0-0.2,0-0.3,0c-0.1,0-0.1,0-0.2-0.1c0,0-0.1-0.1-0.1-0.2c0-0.1,0.1-0.2,0.2-0.3
		c0.4-0.1,0.7-0.4,1.1-0.8c0.4-0.4,0.9-1.1,1.5-2.2c0.6-0.9,0.9-1.5,1.2-1.8c0.3-0.5,0.5-0.8,0.5-1c0-0.1-0.2-0.5-0.5-1.2
		c-0.2-0.4-0.5-0.9-0.8-1.6c-0.9-1.7-1.5-2.8-1.8-3.1c-0.3-0.4-0.6-0.6-1.1-0.8c-0.2,0-0.3-0.2-0.3-0.3c0-0.2,0.1-0.3,0.2-0.3
		c0.1,0,0.2,0,0.4,0c0.8,0.1,1.4,0.1,1.7,0.1c0.4,0,0.7,0,0.9,0c0.2,0,0.4-0.1,0.7-0.1c0.2,0,0.3,0,0.5,0c0.1,0,0.2,0.1,0.2,0.3
		c0,0.2-0.1,0.3-0.3,0.3c-0.2,0-0.3,0.1-0.4,0.3c-0.1,0.1-0.2,0.3-0.2,0.5c0,0.4,0.2,0.9,0.5,1.6c0.2,0.3,0.3,0.6,0.5,0.9
		c0.2,0.3,0.4,0.7,0.5,1c0.2,0.3,0.3,0.4,0.4,0.4c0,0,0.1-0.1,0.2-0.2c0.1-0.2,0.2-0.3,0.3-0.5c0.3-0.4,0.5-0.8,0.7-1.2
		c0.4-0.6,0.6-1,0.7-1.2c0.1-0.2,0.1-0.4,0.1-0.7c0-0.4-0.2-0.7-0.6-0.8c-0.1,0-0.2-0.1-0.3-0.1c-0.2,0-0.3-0.1-0.2-0.3
		C314.3,158.5,314.4,158.4,314.5,158.5L314.5,158.5z"/>
	<path style="fill-rule:evenodd;clip-rule:evenodd;fill:#FFFFFF;" d="M323.3,158.6c0.9,0,1.7,0.3,2.3,0.9c0.2,0.1,0.3,0.3,0.5,0.4
		c0.1,0.1,0.2,0.1,0.3,0.1c0.1,0,0.2,0,0.2-0.1c0.1-0.1,0.1-0.2,0.2-0.3c0-0.1,0.1-0.1,0.1-0.1c0.1,0,0.2,0.2,0.2,0.7
		c0,0.2,0,0.5,0,0.7c0,0.3,0,0.6,0,0.9c0,0.3,0,0.5,0.1,0.8c0,0.1,0,0.3,0.1,0.4c0,0.2,0,0.4,0,0.6c0,0.3-0.1,0.4-0.2,0.4
		c-0.1,0-0.1-0.1-0.1-0.2c0-0.2-0.2-0.6-0.4-1.2c-0.2-0.5-0.4-0.9-0.7-1.2c-0.8-1.3-1.8-1.9-2.8-2c-0.9,0-1.6,0.4-2.2,1.4
		c-0.6,1-0.8,2.3-0.8,3.9c0,2.1,0.5,3.8,1.4,5.1c0.7,1,1.5,1.5,2.3,1.5c0.5,0,1-0.1,1.5-0.4c0.5-0.3,1-0.7,1.3-1.1
		c0.2-0.2,0.3-0.4,0.5-0.7c0.1-0.1,0.1-0.2,0.2-0.2c0.1,0,0.1,0.1,0.1,0.2c0,0.3-0.2,0.7-0.6,1.2c-1,1.5-2.2,2.2-3.7,2.1
		c-1.4-0.1-2.5-0.7-3.4-2c-0.9-1.3-1.3-2.9-1.3-4.8c0-1.1,0.2-2.1,0.5-3.1c0.3-1,0.8-1.8,1.3-2.5C321,159,322.1,158.6,323.3,158.6
		L323.3,158.6z"/>
	<path style="fill-rule:evenodd;clip-rule:evenodd;fill:#FFFFFF;" d="M331,161.6c0,0.7,0,1.4,0,2.1c0,0.6,0,1,0.1,1.2
		c0.1,0.2,0.2,0.3,0.5,0.3c0.1,0,0.1,0,0.2,0c0.1,0,0.2,0,0.3,0c0.2,0,0.4,0,0.6,0c0.5,0,0.8-0.3,1.1-1c0.1-0.2,0.1-0.3,0.2-0.5
		c0-0.1,0.1-0.2,0.2-0.2c0.1,0,0.2,0.1,0.2,0.3c0,0.1,0,0.2,0,0.4c0,0.2,0,0.3,0,0.4c0,0.2,0,0.7,0.1,1.5c0,0.5,0,0.9,0,1.3
		c0,0.2,0,0.3,0,0.5c0,0.1,0,0.2,0,0.2c0,0-0.1,0.1-0.1,0.1c-0.1,0-0.2-0.1-0.2-0.4c-0.1-0.6-0.2-1-0.4-1.3
		c-0.1-0.2-0.3-0.3-0.5-0.3c-0.2-0.1-0.5-0.1-1-0.1c-0.2,0-0.3,0-0.5,0c-0.2,0-0.4,0-0.5,0.1c-0.1,0.1-0.1,0.3-0.2,0.6
		c0,0.3,0,0.8,0,1.5c0,0.3,0,0.6,0,0.9c0,0.9,0.1,1.6,0.2,2c0.1,0.3,0.2,0.5,0.3,0.6c0.1,0.1,0.3,0.2,0.5,0.2
		c1.9,0.1,3.2-0.6,3.8-2.2c0-0.1,0.1-0.1,0.1-0.1c0,0,0.1,0,0.1,0.1c0,0.1,0.1,0.1,0.1,0.2c0,0.6-0.1,1.3-0.4,1.8
		c-0.2,0.5-0.5,0.8-0.8,1c-0.3,0.2-0.7,0.3-1.3,0.2c-0.3,0-0.6-0.1-1-0.1c-0.3-0.1-0.6-0.1-0.8-0.2c-0.3-0.1-0.7-0.1-1.2-0.1
		c-0.3,0-0.9,0-1.6,0c-0.2,0-0.3,0-0.4,0c-0.1,0-0.2-0.1-0.2-0.2c0-0.1,0-0.2,0.2-0.3c0.3-0.1,0.5-0.3,0.6-0.4
		c0.1-0.2,0.2-0.4,0.2-0.8c0.1-0.3,0.1-0.8,0.1-1.4c0-2.6,0-5.2,0-7.7c0-0.7-0.1-1.2-0.3-1.5c-0.2-0.3-0.5-0.5-1.1-0.6
		c-0.1,0-0.2-0.1-0.2-0.3c0-0.2,0.1-0.2,0.2-0.2c0,0,0.1,0,0.2,0c0.1,0,0.2,0,0.4,0c0.2,0,0.5,0.1,0.7,0.1c0.9,0.1,1.8,0.1,2.7,0.2
		c1.6,0.1,2.5,0.1,2.9,0.1c0,0,0.1,0,0.1,0c0.1,0,0.2,0.1,0.2,0.3c0,0.2,0,0.4,0,0.8c0,0.6,0.1,1,0.1,1.2c0,0.5-0.1,0.7-0.3,0.7
		c-0.1,0-0.1-0.1-0.1-0.4c0-0.7-0.2-1.1-0.5-1.5c-0.4-0.3-0.9-0.5-1.7-0.6c-0.3,0-0.6,0-0.9-0.1c-0.2,0-0.3,0-0.5,0
		c-0.2,0.1-0.4,0.4-0.4,1C331,161.3,331,161.4,331,161.6L331,161.6z"/>
	<path style="fill-rule:evenodd;clip-rule:evenodd;fill:#FFFFFF;" d="M339.7,170.3c0,1.2,0.1,1.9,0.3,2.1c0.1,0.1,0.4,0.2,0.7,0.2
		c1.6,0.1,2.8-0.4,3.4-1.7c0.2-0.4,0.3-0.6,0.4-0.6c0.1,0,0.1,0.1,0.1,0.4c0,0.8-0.2,1.6-0.6,2.2c-0.3,0.5-0.8,0.8-1.4,0.7
		c-0.1,0-0.4,0-0.7-0.1c-0.1,0-0.4-0.1-0.9-0.1c-0.3,0-0.5-0.1-0.8-0.1c-0.3,0-0.6-0.1-0.9-0.1c-0.6,0-1.2,0-1.8,0
		c-0.2,0-0.3,0-0.4,0c-0.1,0-0.2-0.1-0.2-0.3c0-0.1,0.1-0.2,0.2-0.2c0.3-0.1,0.5-0.3,0.6-0.6c0.1-0.3,0.2-0.9,0.2-1.6
		c0-2.7,0-5.5,0-8.2c0-1-0.3-1.7-1-1.8c-0.1,0-0.3-0.1-0.4-0.1c-0.2-0.1-0.3-0.2-0.3-0.3c0-0.2,0.1-0.3,0.2-0.3c0,0,0.1,0,0.2,0
		c0.1,0,0.2,0,0.3,0.1c0.1,0,0.2,0,0.3,0.1c0.3,0.1,0.5,0.1,0.7,0.1c0.2,0,0.6,0,1.1,0c0.4,0,0.8,0,1.1,0c0.3,0,0.4,0.1,0.4,0.3
		c0,0.2-0.1,0.2-0.3,0.2c-0.5,0-0.7,0.4-0.7,1.3C339.7,164.6,339.7,167.5,339.7,170.3L339.7,170.3z"/>
	<path style="fill-rule:evenodd;clip-rule:evenodd;fill:#FFFFFF;" d="M348,171.1c0,1.2,0.1,1.9,0.3,2.1c0.1,0.1,0.4,0.2,0.7,0.2
		c1.6,0.2,2.8-0.4,3.4-1.6c0.2-0.4,0.3-0.6,0.4-0.6c0.1,0,0.1,0.2,0.1,0.4c0,0.8-0.2,1.6-0.6,2.2c-0.4,0.5-0.8,0.8-1.4,0.7
		c-0.1,0-0.4-0.1-0.7-0.1c-0.1,0-0.4-0.1-0.9-0.2c-0.3,0-0.5-0.1-0.8-0.1c-0.3,0-0.6-0.1-0.9-0.1c-0.6-0.1-1.1-0.1-1.8,0
		c-0.2,0-0.3,0-0.4,0c-0.1,0-0.2-0.1-0.2-0.3c0-0.1,0.1-0.2,0.2-0.2c0.3-0.1,0.5-0.3,0.6-0.6c0.1-0.3,0.2-0.9,0.2-1.6
		c0-2.7,0-5.5,0-8.2c0-1-0.3-1.7-0.9-1.9c-0.1,0-0.3-0.1-0.4-0.1c-0.2-0.1-0.3-0.2-0.3-0.3c0-0.2,0.1-0.3,0.2-0.3c0,0,0.1,0,0.2,0
		c0.1,0,0.2,0,0.3,0.1c0.1,0,0.2,0,0.3,0.1c0.3,0.1,0.5,0.1,0.7,0.1c0.2,0,0.6,0,1.1,0c0.4,0,0.8,0,1.1,0c0.3,0,0.4,0.1,0.4,0.3
		c0,0.2-0.1,0.2-0.3,0.2c-0.5,0-0.7,0.4-0.7,1.3C348,165.4,348,168.2,348,171.1L348,171.1z"/>
	<path style="fill-rule:evenodd;clip-rule:evenodd;fill:#FFFFFF;" d="M356.2,163.9c0,0.7,0,1.4,0,2.1c0,0.6,0,1,0.1,1.2
		c0.1,0.2,0.2,0.3,0.5,0.3c0.1,0,0.1,0,0.2,0c0.1,0,0.2,0,0.3,0c0.2,0,0.4,0,0.6,0.1c0.5,0.1,0.8-0.3,1.1-0.9
		c0.1-0.2,0.1-0.3,0.2-0.5c0-0.1,0.1-0.2,0.2-0.2c0.1,0,0.2,0.1,0.2,0.3c0,0.1,0,0.2,0,0.4c0,0.2,0,0.3,0,0.4c0,0.2,0,0.7,0.1,1.5
		c0,0.5,0,1,0,1.3c0,0.2,0,0.3,0,0.5c0,0.1,0,0.2,0,0.2c0,0-0.1,0.1-0.1,0.1c-0.1,0-0.2-0.1-0.2-0.4c-0.1-0.6-0.2-1-0.4-1.3
		c-0.1-0.2-0.3-0.3-0.5-0.4c-0.2-0.1-0.5-0.1-1-0.2c-0.2,0-0.3,0-0.5-0.1c-0.2,0-0.4,0-0.5,0.1c-0.1,0.1-0.1,0.3-0.2,0.6
		c0,0.3,0,0.8,0,1.5c0,0.3,0,0.6,0,0.9c0,0.9,0.1,1.6,0.2,2c0.1,0.3,0.2,0.5,0.3,0.6c0.1,0.1,0.3,0.2,0.5,0.2c1.9,0.2,3.2-0.4,3.8-2
		c0-0.1,0.1-0.1,0.1-0.1c0,0,0.1,0,0.1,0.1c0,0.1,0.1,0.1,0.1,0.2c0,0.6-0.1,1.2-0.4,1.8c-0.2,0.5-0.5,0.8-0.8,1
		c-0.3,0.2-0.7,0.2-1.3,0.2c-0.3,0-0.6-0.1-1-0.2c-0.3-0.1-0.6-0.1-0.8-0.2c-0.3-0.1-0.7-0.1-1.2-0.2c-0.3,0-0.9-0.1-1.6-0.1
		c-0.2,0-0.3,0-0.4,0c-0.1,0-0.2-0.1-0.2-0.2c0-0.1,0-0.2,0.2-0.2c0.3-0.1,0.5-0.2,0.6-0.4c0.1-0.1,0.2-0.4,0.2-0.8
		c0.1-0.3,0.1-0.8,0.1-1.4c0-2.6,0-5.2,0-7.7c0-0.7-0.1-1.2-0.3-1.5c-0.2-0.3-0.5-0.5-1.1-0.7c-0.1,0-0.2-0.1-0.2-0.3
		c0-0.2,0.1-0.2,0.2-0.2c0,0,0.1,0,0.2,0c0.1,0,0.2,0,0.4,0c0.2,0,0.5,0.1,0.7,0.1c0.9,0.1,1.8,0.2,2.7,0.4c1.6,0.2,2.5,0.3,2.9,0.3
		c0,0,0.1,0,0.1,0c0.1,0,0.2,0.1,0.2,0.4c0,0.1,0,0.4,0,0.8c0,0.6,0.1,1,0.1,1.2c0,0.5-0.1,0.7-0.3,0.7c-0.1,0-0.1-0.2-0.1-0.5
		c0-0.7-0.2-1.1-0.5-1.5c-0.3-0.3-0.9-0.6-1.7-0.6c-0.3,0-0.6-0.1-0.9-0.1c-0.2,0-0.3,0-0.5,0c-0.2,0.1-0.4,0.4-0.4,0.9
		C356.2,163.6,356.2,163.7,356.2,163.9L356.2,163.9z"/>
	<path style="fill-rule:evenodd;clip-rule:evenodd;fill:#FFFFFF;" d="M365.7,165c1.3,2.1,2.5,4.2,3.8,6.3c0.1,0.1,0.2,0.3,0.2,0.4
		c0.3,0.5,0.5,0.8,0.6,0.8c0.1,0,0.2-0.2,0.2-0.6c0-1.4,0.1-2.8,0.1-4.1c0-1.5-0.1-2.6-0.3-3.2c-0.2-0.6-0.7-0.9-1.3-1.1
		c-0.2,0-0.2-0.1-0.2-0.3c0-0.2,0.1-0.2,0.2-0.2c0.2,0,0.5,0.1,0.8,0.2c0.2,0.1,0.5,0.1,0.6,0.2c0.3,0,0.9,0.1,1.6,0
		c0.1,0,0.2,0,0.2,0c0.2,0,0.2,0.1,0.2,0.3c0,0.2-0.1,0.3-0.2,0.3c-0.6,0.1-0.9,0.8-0.9,2.1c0,0.2,0,0.3,0,0.5c0,2-0.1,4.1-0.1,6.1
		c0,0.3,0,0.6,0,0.8c0,0.4,0,0.7,0,1.1c0,0.2,0,0.5,0,0.7c0,0.4,0,0.8,0,1.2c0,0.2,0,0.3-0.1,0.2c-0.1,0-0.2-0.1-0.3-0.3
		c-2.2-3.6-4.3-7.2-6.5-10.8c-0.1-0.2-0.2-0.3-0.2-0.3c-0.1,0-0.2,0.1-0.2,0.4c0,0.1,0,0.2,0,0.3c0,1.3,0,2.5,0,3.8
		c0,2,0.1,3.4,0.2,4.1c0.2,0.8,0.6,1.2,1.4,1.4c0.1,0,0.2,0.1,0.2,0.3c0,0.2-0.1,0.3-0.2,0.3c-0.1,0-0.2,0-0.3-0.1
		c-0.4-0.2-0.9-0.3-1.3-0.3c-0.5-0.1-0.9-0.1-1.3,0c-0.2,0-0.3,0-0.4,0c-0.1,0-0.2-0.1-0.2-0.3c0-0.1,0.1-0.2,0.2-0.3
		c0.3-0.1,0.6-0.3,0.8-0.7c0.2-0.4,0.2-1,0.2-1.8c0-0.8,0-1.5,0.1-2.3c0-1.4,0-2.8,0-4.2c0-2-0.5-3.1-1.6-3.4
		c-0.1,0-0.2-0.1-0.2-0.3c0-0.2,0.1-0.3,0.2-0.2c0.2,0,0.3,0.1,0.5,0.1c0.1,0,0.2,0,0.3,0c0.4,0,0.8,0.1,1.2,0.1c0.2,0,0.3,0,0.4,0
		c0.1,0,0.3,0.1,0.3,0.2c0.1,0.1,0.3,0.4,0.5,0.9c0.2,0.3,0.3,0.6,0.5,0.9C365.5,164.7,365.6,164.9,365.7,165L365.7,165z"/>
	<path style="fill-rule:evenodd;clip-rule:evenodd;fill:#FFFFFF;" d="M378.1,167c0,2.5,0,4.9,0,7.4c0,1.1,0.1,1.9,0.3,2.4
		c0.2,0.5,0.6,0.8,1.2,1c0.2,0,0.3,0.2,0.3,0.4c0,0.2-0.1,0.2-0.2,0.2c0,0-0.1,0-0.2,0c-0.2,0-0.4-0.1-0.5-0.1
		c-0.3-0.1-0.6-0.1-0.9-0.2c-0.1,0-0.2,0-0.3-0.1c-0.3,0-0.5-0.1-0.7-0.1c-0.5,0-1-0.1-1.6-0.1c-0.2,0-0.3,0-0.3,0
		c-0.1,0-0.2-0.1-0.2-0.3c0-0.1,0-0.2,0.1-0.3c0,0,0.1-0.1,0.3,0c0.4,0,0.7-0.1,0.9-0.4c0.2-0.3,0.3-0.7,0.3-1.3c0-0.2,0-0.3,0-0.5
		c0-2.9,0-5.8,0-8.7c0-0.5-0.2-0.8-0.6-0.9c-1-0.2-1.6-0.2-1.9,0c-0.3,0.1-0.4,0.2-0.5,0.4c-0.1,0.2-0.2,0.6-0.3,1.3
		c0,0.1,0,0.2-0.1,0.3c-0.1,0.3-0.1,0.4-0.2,0.4c-0.2,0-0.2-0.1-0.2-0.3c0-0.2,0-0.4,0.1-0.8c0-0.3,0-0.6,0.1-0.8
		c0-0.3,0.1-0.6,0.1-0.9c0-0.2,0-0.4,0.1-0.6c0-0.3,0.1-0.4,0.3-0.3c0,0,0.1,0,0.2,0.1c0.2,0,0.4,0.1,0.8,0.2c0.5,0.1,1,0.2,1.5,0.2
		c0.6,0.1,1.2,0.2,1.7,0.3c1.1,0.2,2.3,0.3,3.5,0.5c0.2,0,0.4,0,0.5,0.1c0.3,0,0.4,0.2,0.4,0.5c0,0.2,0,0.5,0,0.7
		c0,0.1,0,0.4,0.1,0.8c0,0.4,0.1,0.6,0.1,0.8c0,0.2-0.1,0.3-0.2,0.3c-0.1,0-0.2-0.2-0.2-0.4c-0.1-0.6-0.3-1.1-0.6-1.4
		c-0.3-0.3-0.7-0.5-1.2-0.6c-0.7-0.1-1.2-0.1-1.4,0C378.2,166.1,378.1,166.4,378.1,167L378.1,167z"/>
	<path style="fill-rule:evenodd;clip-rule:evenodd;fill:#FFFFFF;" d="M385.3,176.2c0,0.3,0,0.7,0.1,1c0.1,0.5,0.2,0.9,0.4,1.2
		c0.2,0.3,0.5,0.5,0.9,0.6c0.2,0,0.3,0.2,0.3,0.4c0,0.2-0.2,0.3-0.5,0.2c-0.1,0-0.3-0.1-0.6-0.2c-0.6-0.2-1.1-0.3-1.5-0.4
		c-0.5-0.1-0.8-0.1-1.1-0.1c-0.2,0-0.4,0-0.5,0c-0.1,0-0.2-0.1-0.2-0.2c0,0,0-0.1,0-0.1c0.1-0.1,0.1-0.1,0.2-0.2
		c0.3-0.1,0.6-0.3,0.7-0.5c0.1-0.2,0.2-0.6,0.2-1.2c0-0.3,0-0.6,0-0.9c0-2.6,0-5.2,0-7.8c0-0.6-0.1-1-0.2-1.3
		c-0.2-0.3-0.4-0.5-0.8-0.7c-0.2-0.1-0.4-0.2-0.5-0.2c-0.1-0.1-0.1-0.2-0.1-0.3c0-0.2,0.1-0.3,0.2-0.2c0.1,0,0.2,0.1,0.4,0.2
		c0.2,0.1,0.5,0.2,0.9,0.2c0.3,0,0.6,0.1,1,0.1c0.2,0,0.3,0,0.5,0c0.5,0,0.9,0.1,1.1,0.1c0.2,0,0.2,0.1,0.2,0.3c0,0.1,0,0.2,0,0.2
		c0,0-0.1,0.1-0.2,0.1c-0.3,0-0.6,0.1-0.7,0.3c-0.1,0.2-0.1,0.5-0.1,1.1C385.3,170.7,385.3,173.5,385.3,176.2L385.3,176.2z"/>
	<path style="fill-rule:evenodd;clip-rule:evenodd;fill:#FFFFFF;" d="M392.5,168.3c1.1,3.6,2.2,7.2,3.2,10.9c0.2,0.5,0.4,1,0.6,1.3
		c0.2,0.3,0.5,0.5,0.8,0.7c0.1,0,0.1,0.1,0.1,0.3c0,0.2-0.1,0.3-0.2,0.2c-0.1,0-0.2-0.1-0.3-0.1c-0.4-0.2-1-0.4-1.8-0.5
		c-0.8-0.2-1.4-0.2-1.7-0.2c-0.1,0-0.1,0-0.2,0c-0.1,0-0.2-0.1-0.2-0.3c0-0.1,0.1-0.2,0.2-0.2c0.2,0,0.4-0.2,0.6-0.4
		c0.2-0.2,0.2-0.4,0.2-0.7c0-0.4-0.2-1.2-0.6-2.5c-0.1-0.4-0.3-0.7-0.4-0.7c-0.2-0.1-0.7-0.2-1.6-0.4c-0.3-0.1-0.6-0.1-1-0.2
		c-0.2,0-0.4,0-0.6,0c-0.2,0.1-0.4,0.5-0.6,1.2c-0.1,0.2-0.1,0.5-0.2,0.7c-0.1,0.2-0.1,0.4-0.1,0.6c0,0.8,0.4,1.4,1.3,1.7
		c0.2,0.1,0.3,0.2,0.3,0.3c0,0.2-0.1,0.2-0.3,0.2c-0.1,0-0.2-0.1-0.4-0.1c-0.3-0.1-0.6-0.2-0.8-0.3c-0.2,0-0.6-0.1-1.1-0.1
		c-0.4,0-0.6,0-0.7-0.1c-0.1,0-0.2-0.1-0.2-0.3c0-0.1,0.1-0.2,0.2-0.3c0.3-0.1,0.5-0.2,0.6-0.5c0.2-0.3,0.4-0.8,0.7-1.7
		c0.7-1.9,1.3-3.9,1.9-5.8c0.2-0.5,0.3-0.8,0.3-0.9c0.2-0.6,0.4-1.2,0.7-1.7c0.1-0.3,0.2-0.6,0.3-0.9c0,0,0,0,0,0
		c0.2-0.5,0.3-0.7,0.3-0.7c0.1,0,0.2,0.3,0.4,0.9C392.4,168,392.5,168.1,392.5,168.3L392.5,168.3L392.5,168.3z M392.8,174.5
		c-0.3-1.1-0.6-2.1-0.9-3.2c-0.2-0.8-0.4-1.1-0.5-1.2c-0.1,0-0.2,0.2-0.3,0.6c0,0.1-0.1,0.3-0.1,0.4c-0.3,0.8-0.5,1.6-0.8,2.4
		c0,0.1-0.1,0.2-0.1,0.2c0,0.1-0.1,0.2-0.1,0.2c0,0.2,0.2,0.4,0.5,0.4c0.7,0.1,1.4,0.3,2.1,0.4c0.2,0,0.3,0,0.3-0.2c0,0,0-0.1,0-0.2
		C392.8,174.6,392.8,174.5,392.8,174.5L392.8,174.5z"/>
	<path style="fill-rule:evenodd;clip-rule:evenodd;fill:#FFFFFF;" d="M400.5,171.1c0,0.7,0,1.4,0,2.1c0,0.6,0,1,0.1,1.2
		c0.1,0.2,0.2,0.3,0.5,0.3c0.1,0,0.1,0,0.2,0c0.1,0,0.2,0,0.3,0.1c0.2,0,0.4,0.1,0.6,0.1c0.5,0.1,0.8-0.2,1.1-0.8
		c0.1-0.1,0.1-0.3,0.2-0.4c0-0.1,0.1-0.2,0.2-0.1c0.1,0,0.2,0.1,0.2,0.3c0,0.1,0,0.2,0,0.4c0,0.2,0,0.3,0,0.4c0,0.2,0,0.7,0.1,1.5
		c0,0.5,0,1,0,1.3c0,0.2,0,0.3,0,0.5c0,0.1,0,0.2,0,0.2c0,0-0.1,0.1-0.1,0c-0.1,0-0.2-0.2-0.2-0.4c-0.1-0.6-0.2-1-0.4-1.4
		c-0.1-0.2-0.3-0.3-0.5-0.4c-0.2-0.1-0.5-0.2-1-0.3c-0.2,0-0.3-0.1-0.5-0.1c-0.2,0-0.4,0-0.5,0c-0.1,0.1-0.1,0.3-0.2,0.5
		c0,0.3,0,0.8,0,1.5c0,0.3,0,0.6,0,0.9c0,0.9,0.1,1.6,0.2,2c0.1,0.3,0.2,0.5,0.3,0.7c0.1,0.1,0.3,0.2,0.5,0.3
		c1.9,0.4,3.2-0.1,3.8-1.6c0-0.1,0.1-0.1,0.1-0.1c0,0,0.1,0,0.1,0.1c0,0.1,0.1,0.1,0.1,0.2c0,0.6-0.1,1.2-0.4,1.8
		c-0.2,0.5-0.5,0.8-0.8,0.9c-0.3,0.2-0.7,0.2-1.2,0.1c-0.3-0.1-0.6-0.2-1-0.3c-0.3-0.1-0.6-0.2-0.8-0.3c-0.3-0.1-0.7-0.2-1.2-0.3
		c-0.3-0.1-0.9-0.1-1.6-0.2c-0.2,0-0.3,0-0.4-0.1c-0.1,0-0.2-0.1-0.2-0.3c0-0.1,0-0.2,0.2-0.2c0.3-0.1,0.5-0.2,0.5-0.3
		c0.1-0.1,0.2-0.4,0.2-0.8c0.1-0.3,0.1-0.8,0.1-1.4c0-2.6,0-5.2,0-7.7c0-0.7-0.1-1.2-0.3-1.5c-0.2-0.3-0.5-0.6-1.1-0.8
		c-0.1-0.1-0.2-0.2-0.2-0.3c0-0.2,0.1-0.2,0.2-0.2c0,0,0.1,0,0.2,0.1c0.1,0,0.2,0,0.3,0.1c0.2,0.1,0.5,0.1,0.7,0.2
		c0.9,0.2,1.8,0.4,2.7,0.6c1.6,0.3,2.5,0.5,2.9,0.5c0,0,0.1,0,0.1,0c0.1,0,0.2,0.2,0.2,0.4c0,0.2,0,0.4,0,0.8c0,0.6,0.1,1,0.1,1.2
		c0,0.5-0.1,0.7-0.3,0.7c-0.1,0-0.1-0.2-0.1-0.5c0-0.7-0.2-1.2-0.5-1.5c-0.3-0.4-0.9-0.6-1.7-0.8c-0.3-0.1-0.6-0.1-0.9-0.2
		c-0.2,0-0.3,0-0.5,0c-0.2,0.1-0.4,0.4-0.4,0.9C400.5,170.8,400.5,171,400.5,171.1L400.5,171.1z"/>
	<path style="fill-rule:evenodd;clip-rule:evenodd;fill:#231F20;" d="M298,121.9V70.7c0,0-4.3-1.6-3.8-5.9c0.5-4.3,2.7-7.8,3.2-11.9
		c0.5-4,0.3-6.5,1.4-6.5c1.1,0,1.3,4.1,1.6,6.8c0.5,4,2.8,6.3,3.1,11.1c0.3,4.8-2.6,6.1-2.6,6.1v51.4H298L298,121.9z"/>
	<path style="fill-rule:evenodd;clip-rule:evenodd;fill:#EC1C24;" d="M181.1,211.3h241.4c0,0-14.5,15.5-14.5,43.2
		c0,27.7,1.4,133.3,1.4,147.4c0,14.1-5.2,40.8-33,48.8c-27.8,8-28,8.1-42.7,8.1s-32.1,21.9-32.6,24.2c0,0-19.8-23-31.5-22.5
		c-11.8,0.5-46.1-5.6-56.5-16.4c-10.4-10.8-20.2-13.1-20.2-48.8s0-150.2,0-160.1C192.9,225.4,183,216.5,181.1,211.3L181.1,211.3z"/>
	<polygon style="fill-rule:evenodd;clip-rule:evenodd;fill:#D7B382;" points="218.2,261.8 273,238.4 301.7,249.9 301.7,261.8 
		218.2,261.8 	"/>
	<polygon style="fill-rule:evenodd;clip-rule:evenodd;fill:#D7B382;" points="212.6,264.8 301.4,264.8 301.4,268.5 212.2,268.5 
		212.6,264.8 	"/>
	<path style="fill-rule:evenodd;clip-rule:evenodd;fill:#D7B382;" d="M300.6,375.6c31.3-2.2,72.7,0,107,20.4l0.4,2.6
		c0,0-39.5-26-107-20.8L300.6,375.6L300.6,375.6z"/>
	<path style="fill-rule:evenodd;clip-rule:evenodd;fill:#D7B382;" d="M305.8,376.7c0,0,3.7-0.7,3.7,9.3c0,10,0,85.9,0,85.9l3.4-3.7
		c0,0,0.4-79.9,0.4-84.4c0-4.5,0-7.1,2.2-7.8L305.8,376.7L305.8,376.7z"/>
	<path style="fill-rule:evenodd;clip-rule:evenodd;fill:#D7B382;" d="M337.5,377.1c0,0-3.7-0.7-3.7,9.3c0,10,0,72.5,0,72.5l-3.4,1.1
		c0,0-0.4-71.4-0.4-75.8c0-4.5,0-7.1-2.2-7.8L337.5,377.1L337.5,377.1z"/>
	<path style="fill-rule:evenodd;clip-rule:evenodd;fill:#D7B382;" d="M358.4,379.3c0,0-3.7-0.7-3.7,9.3s0,68,0,68l-3.4,1.5
		c0,0-0.4-67.3-0.4-71.7c0-4.5,0-7.1-2.2-7.8L358.4,379.3L358.4,379.3z"/>
	<path style="fill-rule:evenodd;clip-rule:evenodd;fill:#D7B382;" d="M379.3,384.1c0,0-3.7-0.7-3.7,9.3c0,10,0,57.6,0,57.6l-3.4,2.6
		c0,0-0.4-58-0.4-62.4c0-4.5,0-7.1-2.2-7.8L379.3,384.1L379.3,384.1z"/>
	<path style="fill-rule:evenodd;clip-rule:evenodd;fill:#D7B382;" d="M400.6,393.4c0,0-3.7-4.1-3.7,5.9s0,37.2,0,37.2l-3.4,3.7
		c0,0-0.4-38.7-0.4-43.1c0-4.5,0-7.1-2.2-7.8L400.6,393.4L400.6,393.4z"/>
	<path style="fill-rule:evenodd;clip-rule:evenodd;fill:#B07925;" d="M301.4,364.4c44.7-1.5,72,0.4,106.7,17.8v2.6
		c0,0-41-23.8-106.3-17.5L301.4,364.4L301.4,364.4z"/>
	<path style="fill-rule:evenodd;clip-rule:evenodd;fill:#B07925;" d="M301.4,369.6c0,0,60-8.2,106.7,17.5v5.9
		c0,0-33.6-24.5-107-19.7L301.4,369.6L301.4,369.6z"/>
	<path style="fill-rule:evenodd;clip-rule:evenodd;fill:#FFFFFF;" d="M194.3,344h23.1v103.3c0,0-25-14.1-24.2-40.5
		C194,380.4,194.3,344,194.3,344L194.3,344z"/>
	<path style="fill-rule:evenodd;clip-rule:evenodd;fill:#FFFFFF;" d="M237.4,343.6h22.2v115.6c0,0-15.1,0.4-22.2-4.1V343.6
		L237.4,343.6z"/>
	<path style="fill-rule:evenodd;clip-rule:evenodd;fill:#FFFFFF;" d="M279.6,344H301v136.4c0,0-10.6-13-21.4-17.1V344L279.6,344z"/>
	<polygon style="fill-rule:evenodd;clip-rule:evenodd;fill:#FFFFFF;" points="321.9,328.2 301.4,328.2 301.4,211.3 321.9,211.3 
		321.9,328.2 	"/>
	<polygon style="fill-rule:evenodd;clip-rule:evenodd;fill:#FFFFFF;" points="363.6,328.2 343.1,328.2 343.1,210.2 363.6,210.2 
		363.6,328.2 	"/>
	<path style="fill-rule:evenodd;clip-rule:evenodd;fill:#FFFFFF;" d="M384.9,212v116.5h24.2c0,0-1.5-76.8-1.1-86.1
		c0.4-9.3,7.1-24.2,14.5-30.9L384.9,212L384.9,212z"/>
	<path style="fill-rule:evenodd;clip-rule:evenodd;fill:#FFEE90;" d="M217.1,283.7c-10.5-5.2-17.6-16-17.6-28.5
		c0-17.7,14.4-32,32.1-32c12.6,0,23.5,7.3,28.8,17.8l-52.3,22v8.2h9L217.1,283.7L217.1,283.7z"/>
	<path style="fill-rule:evenodd;clip-rule:evenodd;fill:#FFEE90;" d="M246.5,283v-11.5h-9.7l0,15.2c3.5-0.6,6.7-1.7,9.7-3.3
		L246.5,283L246.5,283z"/>
	<polygon style="fill-rule:evenodd;clip-rule:evenodd;fill:#D7B382;" points="279.6,271.5 293.9,271.5 293.9,325.6 409.3,325.6 
		409.3,345.1 192.7,345.1 192.7,325.6 219.7,325.6 219.7,271.5 233.9,271.5 233.9,325.6 249.5,325.6 249.5,325.6 249.5,271.5 
		263.7,271.5 263.7,325.6 279.6,325.6 279.6,271.5 	"/>
	<path style="fill-rule:evenodd;clip-rule:evenodd;fill:#231F20;" d="M176.8,211.3l2-2.9h245.5l1.6,2.9c0,0-15.6,9-15.6,33.5
		s0,147.1,0,162.6c0,15.5-16.4,38-31.6,44.5c-15.2,6.5-27.9,6.9-42.2,8.6c-14.3,1.6-29.9,14.3-32.4,22.5h-6.1c0,0-11.5-20-28.7-21.6
		c-17.2-1.6-36.5-0.4-53.3-12.7c-16.8-12.3-25-23.7-25-44.1s0-147.5,0-160.1C191.1,231.7,187.5,219.9,176.8,211.3L176.8,211.3
		L176.8,211.3z M194,241.5c0,15.9,0,137.3,0,160.1c0,25.3,12.7,38,27.9,47c15.2,9,29.2,5.4,51.2,9.8c18.4,3.7,26.6,22.1,26.6,22.1h2
		c0,0,7-11.4,21.3-19.6c14.3-8.2,32-2.9,51.2-10.6c19.3-7.8,33.2-30.6,33.2-43.3s0-144.6,0-165c0-20.4,12.7-30.2,12.7-30.2H183
		C183,211.7,194,221.1,194,241.5L194,241.5z"/>
	<path style="fill:none;stroke:#B07925;stroke-width:0.8635;stroke-miterlimit:2.6131;" d="M125.8,226.9c0,0,1.2-3.4,5.5-5.5
		c0,3.7,0,7.5,0,7.5s5,0.2,9.2,0.3c4.1,0.2,6.1,4,8.1,8.4c4.3-0.5,12.4,0.5,12.4,0.5s0,6.4-0.9,9.3c-0.9,2.9-0.9,5-3.5,5
		c-2.6,0-7.3-0.8-10.2,1.2c-2.9,2-4.6,4.7-4.1,7.2c0.5,2.4,0.9,2.4,4.1,2.9c3.2,0.5,7,0.5,8.7-1.5c1.7-2,3.2-3.7,4.3-2.1
		c1.1,1.5,2.1,6.1,1.8,9c-0.3,2.9-2.3,5.3-5.3,4.1c-3.1-1.2-8.1-4-10.1-0.3c-2,3.7-1.2,9.4,1.4,11.4c2.6,2,6,2,11.1-2.1
		c5.2-4.1,15-9.9,19.6-11.7c-0.2-8.4-0.2-24.5,12.1-26.8c0.5,2.7,0.5,6.1,0.5,6.1s-6.4,0.3-8.3,5.2c0.3,0.9,0.8,1.2,0.8,1.2
		s2.7-5,8.6-5c0.3,1.8,0.5,5.2,0.5,5.2s-7-1.4-9.9,6.2c0.3,0.6,0.8,1.4,0.8,1.4s4-7.6,9.8-5.3c0.9,3.3,0.3,9,0.3,9s-2.3,3.2-3.7,5.6
		c-1.4,2.4-1.8,2.4-2.3,4.1c-0.5,1.7-3.1,3.2-4.9,4.3c-1.8,1.1-7.9,7.2-9.9,9.7c2.4,1.2,2.9,0.8,4,0.5c-2.4,2.6-3.4,3.2-6.3,3.2
		c-0.2,3.2-1.4,4-0.2,5.6c-3.2-0.2-7.2,0.6-7.2,0.6s-3.2,3.2-3.2,3.8c0,0.6,0.5,1.4,0.5,1.4s22.6,6.7,29.5,10.7
		c2.7-9.6,7.6-15.5,13.1-16.8c1.8,7.5,3.1,15.8,3.1,20.7c0,4.9-1.2,8.7-4.6,7.3c-3.4-1.4-5-3.7-7-2.9c-2,0.8-6.4,2.6-6.7,3
		c-0.3,0.5-3.1-1.4-3.1-1.4l-8.1-0.3c0,0-1.7,1.5-0.6,3.2c-2.3-0.8-3.5-3.2-3.5-3.2l-1.5,0.3c0,0-1.1,2.9-1.1,4.7
		c-2.4-0.8-4.6-2.6-6.1-3.8c-1.5-1.2-6.3-1.1-6.3-1.1l0.6,1.2l4.9,3.7c0,0-6,19.2-22.2,28c2.4,0.5,3.1,0.5,6-0.3
		c2.9-0.8,9.6-5.8,16.8-6.4c7.2-0.6,15.6-0.6,19.1,6.1c3.5,6.7,7.5,22.4-18.9,44.9c1.7,4.4,4.1,9,6.6,10.8c6.3,0,17-3.3,19.6,14
		c-2,0.2-4.6,0-4.6,0s-0.5-7.9-6-11.9c-0.8,0.2-1.5,0.6-1.5,0.6s3.8,1.4,4.7,11.3c-1.8,0.3-3.5,0.2-3.5,0.2s0.5-7.6-6.6-11
		c-0.9,0.8-1.2,1.2-1.2,1.2s4.7,1.5,5.3,10.2c-6.9,1.2-12.8,1.2-12.8,1.2s-7.5-22.7-18-22.2c-0.5-1.4,0.8-2.3,0.8-2.3l0.2-5.6
		l-3.8,1.5c0,0,5-5.9,3.8-13.1c-3.5,2.7-12.8,10-24,9.4c-4.6,12.3-7.5,21.8-17.7,28.2C93.9,433,81.2,441,77.3,445.8
		c-0.6,4.4-0.6,7.8,0.5,9.6c1.1,1.8,2.6,2.7,5,2.7c2.4,0,14.4,1.8,15.1,12.9c-1.2,0.3-4.9-0.3-4.9-0.3s-0.3-7.3-7.2-9.7
		c-0.5,0.6-0.8,1.4-0.8,1.4s5.3,2,5.5,8.5c-1.2,0-4.9,0-4.9,0s-0.9-6.1-5.5-8.2c-0.8,0.9-0.9,1.4-0.9,1.4s5.7,3.4,4.6,9.3
		c-4.6,0.2-16.5-0.3-16.5-0.3s-4.1-16.8-9.9-20.1c-2.1-1.2-0.6-2-0.2-2.7c0.5-0.8,0.6-2.1-0.9-3c-1.5-0.9-1.4-1.5,0.3-3.2
		c1.7-1.7,1.8-6.1,0.6-7.2s-2-2,1.1-2.7c3.1-0.8,8.4-5.5,10.8-9.1c2.4-3.7,4.7-11.1,5.8-15.5c1.1-4.4,1.8-11.4,5.7-20.3
		c-5.7-1.1-9.8-2.9-9.8-2.9s-0.5,2.7,0.5,5.6c-2.6-3-5.2-5.2-4-8.5c-2,3.7-2,3.7-2,3.7s-4.3-4.9-3.2-15.7c1.1-10.8,3.1-23.8,5-28.5
		c2-4.7,16.8-35.2,10.8-41.6c-6-6.4-15.4,2.3-18.3,9.7c-2.9,7.5-7.9,21.8-9.2,38.4c3.5,0.8,11,15.1-4.9,29.8
		c-0.2-3.3-0.2-7.6-0.2-7.6s-4.7,12.6-19.2,11.7c6.6-5.5,9.3-10.8,10.5-15.2c-5,1.7-6.9,0.8-8.1,0.8c5.8-5.2,7.3-10,8.1-12.8
		c0.8-2.7,2.6-7.5,7.3-7.3c1.1-13.9,4.6-39.9,15-48c-7.2,3.2-6.9,2.3-6.9,2.3s5.3-9.9,15.4-10.5c-2.4-0.3-3.5-1.1-3.5-1.1
		s10.8-5.3,16.2-0.5c5.3,4.9,11.8,11.4,3.4,32.4c-8.4,21-12.4,32.6-11.9,39.6c0.5,7,5.5,14.6,15.3,10.1c9.8-4.6,21.4-14.3,21.7-25.7
		c0.3-11.4-6.1-22.1-7-29.4c-0.9-7.3-4-18.1-3.5-23.9c-2.9,6.9-4.3,10.1-4.9,15.2c-0.9-16.1-0.3-29.2,3.1-35.6
		c-4,4.4-5.5,7.9-5.5,7.9s0.5-22.4,12.1-35.6c-4.7,1.4-7,0.8-8.9,3.2c4.7-9.3,12.2-14.5,17.6-16.6c-8.4,0.9-10.1,1.1-10.1,1.1
		S111.6,223,125.8,226.9L125.8,226.9z"/>
	<path style="fill-rule:evenodd;clip-rule:evenodd;fill:#231F20;" d="M125.8,226.9c0,0,1.2-3.4,5.5-5.5c0,3.7,0,7.5,0,7.5
		s5,0.2,9.2,0.3c4.1,0.2,6.1,4,8.1,8.4c4.3-0.5,12.4,0.5,12.4,0.5s0,6.4-0.9,9.3c-0.9,2.9-0.9,5-3.5,5c-2.6,0-7.3-0.8-10.2,1.2
		c-2.9,2-4.6,4.7-4.1,7.2c0.5,2.4,0.9,2.4,4.1,2.9c3.2,0.5,7,0.5,8.7-1.5c1.7-2,3.2-3.7,4.3-2.1c1.1,1.5,2.1,6.1,1.8,9
		c-0.3,2.9-2.3,5.3-5.3,4.1c-3.1-1.2-8.1-4-10.1-0.3c-2,3.7-1.2,9.4,1.4,11.4c2.6,2,6,2,11.1-2.1c5.2-4.1,15-9.9,19.6-11.7
		c-0.2-8.4-0.2-24.5,12.1-26.8c0.5,2.7,0.5,6.1,0.5,6.1s-6.4,0.3-8.3,5.2c0.3,0.9,0.8,1.2,0.8,1.2s2.7-5,8.6-5
		c0.3,1.8,0.5,5.2,0.5,5.2s-7-1.4-9.9,6.2c0.3,0.6,0.8,1.4,0.8,1.4s4-7.6,9.8-5.3c0.9,3.3,0.3,9,0.3,9s-2.3,3.2-3.7,5.6
		c-1.4,2.4-1.8,2.4-2.3,4.1c-0.5,1.7-3.1,3.2-4.9,4.3c-1.8,1.1-7.9,7.2-9.9,9.7c2.4,1.2,2.9,0.8,4,0.5c-2.4,2.6-3.4,3.2-6.3,3.2
		c-0.2,3.2-1.4,4-0.2,5.6c-3.2-0.2-7.2,0.6-7.2,0.6s-3.2,3.2-3.2,3.8c0,0.6,0.5,1.4,0.5,1.4s22.6,6.7,29.5,10.7
		c2.7-9.6,7.6-15.5,13.1-16.8c1.8,7.5,3.1,15.8,3.1,20.7c0,4.9-1.2,8.7-4.6,7.3c-3.4-1.4-5-3.7-7-2.9c-2,0.8-6.4,2.6-6.7,3
		c-0.3,0.5-3.1-1.4-3.1-1.4l-8.1-0.3c0,0-1.7,1.5-0.6,3.2c-2.3-0.8-3.5-3.2-3.5-3.2l-1.5,0.3c0,0-1.1,2.9-1.1,4.7
		c-2.4-0.8-4.6-2.6-6.1-3.8c-1.5-1.2-6.3-1.1-6.3-1.1l0.6,1.2l4.9,3.7c0,0-6,19.2-22.2,28c2.4,0.5,3.1,0.5,6-0.3
		c2.9-0.8,9.6-5.8,16.8-6.4c7.2-0.6,15.6-0.6,19.1,6.1c3.5,6.7,7.5,22.4-18.9,44.9c1.7,4.4,4.1,9,6.6,10.8c6.3,0,17-3.3,19.6,14
		c-2,0.2-4.6,0-4.6,0s-0.5-7.9-6-11.9c-0.8,0.2-1.5,0.6-1.5,0.6s3.8,1.4,4.7,11.3c-1.8,0.3-3.5,0.2-3.5,0.2s0.5-7.6-6.6-11
		c-0.9,0.8-1.2,1.2-1.2,1.2s4.7,1.5,5.3,10.2c-6.9,1.2-12.8,1.2-12.8,1.2s-7.5-22.7-18-22.2c-0.5-1.4,0.8-2.3,0.8-2.3l0.2-5.6
		l-3.8,1.5c0,0,5-5.9,3.8-13.1c-3.5,2.7-12.8,10-24,9.4c-4.6,12.3-7.5,21.8-17.7,28.2C93.9,433,81.2,441,77.3,445.8
		c-0.6,4.4-0.6,7.8,0.5,9.6c1.1,1.8,2.6,2.7,5,2.7c2.4,0,14.4,1.8,15.1,12.9c-1.2,0.3-4.9-0.3-4.9-0.3s-0.3-7.3-7.2-9.7
		c-0.5,0.6-0.8,1.4-0.8,1.4s5.3,2,5.5,8.5c-1.2,0-4.9,0-4.9,0s-0.9-6.1-5.5-8.2c-0.8,0.9-0.9,1.4-0.9,1.4s5.7,3.4,4.6,9.3
		c-4.6,0.2-16.5-0.3-16.5-0.3s-4.1-16.8-9.9-20.1c-2.1-1.2-0.6-2-0.2-2.7c0.5-0.8,0.6-2.1-0.9-3c-1.5-0.9-1.4-1.5,0.3-3.2
		c1.7-1.7,1.8-6.1,0.6-7.2s-2-2,1.1-2.7c3.1-0.8,8.4-5.5,10.8-9.1c2.4-3.7,4.7-11.1,5.8-15.5c1.1-4.4,1.8-11.4,5.7-20.3
		c-5.7-1.1-9.8-2.9-9.8-2.9s-0.5,2.7,0.5,5.6c-2.6-3-5.2-5.2-4-8.5c-2,3.7-2,3.7-2,3.7s-4.3-4.9-3.2-15.7c1.1-10.8,3.1-23.8,5-28.5
		c2-4.7,16.8-35.2,10.8-41.6c-6-6.4-15.4,2.3-18.3,9.7c-2.9,7.5-7.9,21.8-9.2,38.4c3.5,0.8,11,15.1-4.9,29.8
		c-0.2-3.3-0.2-7.6-0.2-7.6s-4.7,12.6-19.2,11.7c6.6-5.5,9.3-10.8,10.5-15.2c-5,1.7-6.9,0.8-8.1,0.8c5.8-5.2,7.3-10,8.1-12.8
		c0.8-2.7,2.6-7.5,7.3-7.3c1.1-13.9,4.6-39.9,15-48c-7.2,3.2-6.9,2.3-6.9,2.3s5.3-9.9,15.4-10.5c-2.4-0.3-3.5-1.1-3.5-1.1
		s10.8-5.3,16.2-0.5c5.3,4.9,11.8,11.4,3.4,32.4c-8.4,21-12.4,32.6-11.9,39.6c0.5,7,5.5,14.6,15.3,10.1c9.8-4.6,21.4-14.3,21.7-25.7
		c0.3-11.4-6.1-22.1-7-29.4c-0.9-7.3-4-18.1-3.5-23.9c-2.9,6.9-4.3,10.1-4.9,15.2c-0.9-16.1-0.3-29.2,3.1-35.6
		c-4,4.4-5.5,7.9-5.5,7.9s0.5-22.4,12.1-35.6c-4.7,1.4-7,0.8-8.9,3.2c4.7-9.3,12.2-14.5,17.6-16.6c-8.4,0.9-10.1,1.1-10.1,1.1
		S111.6,223,125.8,226.9L125.8,226.9z"/>
	<path style="fill:none;stroke:#B07925;stroke-width:0.8635;stroke-miterlimit:2.6131;" d="M473.7,226.9c0,0-1.2-3.4-5.5-5.5
		c0,3.7,0,7.5,0,7.5s-5,0.2-9.2,0.3c-4.1,0.2-6.1,4-8.1,8.4c-4.3-0.5-12.4,0.5-12.4,0.5s0,6.4,0.9,9.3c0.9,2.9,0.9,5,3.5,5
		c2.6,0,7.3-0.8,10.2,1.2c2.9,2,4.6,4.7,4.1,7.2c-0.5,2.4-0.9,2.4-4.1,2.9c-3.2,0.5-7,0.5-8.7-1.5c-1.7-2-3.2-3.7-4.3-2.1
		c-1.1,1.5-2.1,6.1-1.8,9c0.3,2.9,2.3,5.3,5.3,4.1c3.1-1.2,8.1-4,10.1-0.3c2,3.7,1.2,9.4-1.4,11.4c-2.6,2-6,2-11.2-2.1
		c-5.2-4.1-15-9.9-19.6-11.7c0.2-8.4,0.2-24.5-12.1-26.8c-0.5,2.7-0.5,6.1-0.5,6.1s6.4,0.3,8.3,5.2c-0.3,0.9-0.8,1.2-0.8,1.2
		s-2.8-5-8.6-5c-0.3,1.8-0.5,5.2-0.5,5.2s7-1.4,9.9,6.2c-0.3,0.6-0.8,1.4-0.8,1.4s-4-7.6-9.8-5.3c-0.9,3.3-0.3,9-0.3,9
		s2.3,3.2,3.7,5.6c1.4,2.4,1.8,2.4,2.3,4.1c0.5,1.7,3.1,3.2,4.9,4.3c1.8,1.1,7.9,7.2,9.9,9.7c-2.4,1.2-2.9,0.8-4,0.5
		c2.4,2.6,3.4,3.2,6.3,3.2c0.2,3.2,1.4,4,0.2,5.6c3.2-0.2,7.2,0.6,7.2,0.6s3.2,3.2,3.2,3.8c0,0.6-0.5,1.4-0.5,1.4
		s-22.6,6.7-29.5,10.7c-2.8-9.6-7.6-15.5-13.1-16.8c-1.8,7.5-3.1,15.8-3.1,20.7c0,4.9,1.2,8.7,4.6,7.3c3.4-1.4,5-3.7,7-2.9
		c2,0.8,6.4,2.6,6.7,3c0.3,0.5,3.1-1.4,3.1-1.4l8.1-0.3c0,0,1.7,1.5,0.6,3.2c2.3-0.8,3.5-3.2,3.5-3.2l1.5,0.3c0,0,1.1,2.9,1.1,4.7
		c2.4-0.8,4.6-2.6,6.1-3.8c1.5-1.2,6.3-1.1,6.3-1.1l-0.6,1.2l-4.9,3.7c0,0,6,19.2,22.2,28c-2.4,0.5-3.1,0.5-6-0.3
		c-2.9-0.8-9.6-5.8-16.8-6.4c-7.2-0.6-15.6-0.6-19.1,6.1c-3.5,6.7-7.5,22.4,18.9,44.9c-1.7,4.4-4.1,9-6.6,10.8
		c-6.3,0-17-3.3-19.6,14c2,0.2,4.6,0,4.6,0s0.5-7.9,6-11.9c0.8,0.2,1.5,0.6,1.5,0.6s-3.8,1.4-4.7,11.3c1.8,0.3,3.5,0.2,3.5,0.2
		s-0.5-7.6,6.6-11c0.9,0.8,1.2,1.2,1.2,1.2s-4.7,1.5-5.4,10.2c6.9,1.2,12.8,1.2,12.8,1.2s7.5-22.7,18-22.2c0.5-1.4-0.8-2.3-0.8-2.3
		l-0.2-5.6l3.8,1.5c0,0-5-5.9-3.8-13.1c3.5,2.7,12.8,10,24,9.4c4.6,12.3,7.5,21.8,17.7,28.2c10.2,6.4,22.9,14.5,26.9,19.2
		c0.6,4.4,0.6,7.8-0.5,9.6c-1.1,1.8-2.6,2.7-5,2.7s-14.4,1.8-15.1,12.9c1.2,0.3,4.9-0.3,4.9-0.3s0.3-7.3,7.2-9.7
		c0.5,0.6,0.8,1.4,0.8,1.4s-5.3,2-5.5,8.5c1.2,0,4.9,0,4.9,0s0.9-6.1,5.5-8.2c0.8,0.9,0.9,1.4,0.9,1.4s-5.6,3.4-4.6,9.3
		c4.6,0.2,16.5-0.3,16.5-0.3s4.1-16.8,9.9-20.1c2.1-1.2,0.6-2,0.2-2.7c-0.5-0.8-0.6-2.1,0.9-3c1.5-0.9,1.4-1.5-0.3-3.2
		c-1.7-1.7-1.8-6.1-0.6-7.2s2-2-1.1-2.7c-3.1-0.8-8.4-5.5-10.8-9.1c-2.4-3.7-4.7-11.1-5.8-15.5c-1.1-4.4-1.8-11.4-5.7-20.3
		c5.7-1.1,9.8-2.9,9.8-2.9s0.5,2.7-0.5,5.6c2.6-3,5.2-5.2,4-8.5c2,3.7,2,3.7,2,3.7s4.3-4.9,3.2-15.7c-1.1-10.8-3.1-23.8-5-28.5
		c-2-4.7-16.8-35.2-10.8-41.6c6-6.4,15.4,2.3,18.3,9.7c2.9,7.5,7.9,21.8,9.2,38.4c-3.5,0.8-11,15.1,4.9,29.8
		c0.2-3.3,0.2-7.6,0.2-7.6s4.7,12.6,19.2,11.7c-6.6-5.5-9.3-10.8-10.5-15.2c5,1.7,6.9,0.8,8.1,0.8c-5.8-5.2-7.3-10-8.1-12.8
		c-0.8-2.7-2.6-7.5-7.3-7.3c-1.1-13.9-4.6-39.9-15-48c7.2,3.2,6.9,2.3,6.9,2.3s-5.3-9.9-15.4-10.5c2.4-0.3,3.5-1.1,3.5-1.1
		s-10.8-5.3-16.2-0.5c-5.3,4.9-11.8,11.4-3.4,32.4c8.4,21,12.4,32.6,11.9,39.6c-0.5,7-5.5,14.6-15.3,10.1
		c-9.8-4.6-21.4-14.3-21.7-25.7c-0.3-11.4,6.1-22.1,7-29.4c0.9-7.3,4-18.1,3.5-23.9c2.9,6.9,4.3,10.1,4.9,15.2
		c0.9-16.1,0.3-29.2-3.1-35.6c4,4.4,5.5,7.9,5.5,7.9s-0.5-22.4-12.1-35.6c4.7,1.4,7,0.8,8.9,3.2c-4.7-9.3-12.2-14.5-17.6-16.6
		c8.4,0.9,10.1,1.1,10.1,1.1S487.9,223,473.7,226.9L473.7,226.9z"/>
	<path style="fill-rule:evenodd;clip-rule:evenodd;fill:#231F20;" d="M473.7,226.9c0,0-1.2-3.4-5.5-5.5c0,3.7,0,7.5,0,7.5
		s-5,0.2-9.2,0.3c-4.1,0.2-6.1,4-8.1,8.4c-4.3-0.5-12.4,0.5-12.4,0.5s0,6.4,0.9,9.3c0.9,2.9,0.9,5,3.5,5c2.6,0,7.3-0.8,10.2,1.2
		c2.9,2,4.6,4.7,4.1,7.2c-0.5,2.4-0.9,2.4-4.1,2.9c-3.2,0.5-7,0.5-8.7-1.5c-1.7-2-3.2-3.7-4.3-2.1c-1.1,1.5-2.1,6.1-1.8,9
		c0.3,2.9,2.3,5.3,5.3,4.1c3.1-1.2,8.1-4,10.1-0.3c2,3.7,1.2,9.4-1.4,11.4c-2.6,2-6,2-11.2-2.1c-5.2-4.1-15-9.9-19.6-11.7
		c0.2-8.4,0.2-24.5-12.1-26.8c-0.5,2.7-0.5,6.1-0.5,6.1s6.4,0.3,8.3,5.2c-0.3,0.9-0.8,1.2-0.8,1.2s-2.8-5-8.6-5
		c-0.3,1.8-0.5,5.2-0.5,5.2s7-1.4,9.9,6.2c-0.3,0.6-0.8,1.4-0.8,1.4s-4-7.6-9.8-5.3c-0.9,3.3-0.3,9-0.3,9s2.3,3.2,3.7,5.6
		c1.4,2.4,1.8,2.4,2.3,4.1c0.5,1.7,3.1,3.2,4.9,4.3c1.8,1.1,7.9,7.2,9.9,9.7c-2.4,1.2-2.9,0.8-4,0.5c2.4,2.6,3.4,3.2,6.3,3.2
		c0.2,3.2,1.4,4,0.2,5.6c3.2-0.2,7.2,0.6,7.2,0.6s3.2,3.2,3.2,3.8c0,0.6-0.5,1.4-0.5,1.4s-22.6,6.7-29.5,10.7
		c-2.8-9.6-7.6-15.5-13.1-16.8c-1.8,7.5-3.1,15.8-3.1,20.7c0,4.9,1.2,8.7,4.6,7.3c3.4-1.4,5-3.7,7-2.9c2,0.8,6.4,2.6,6.7,3
		c0.3,0.5,3.1-1.4,3.1-1.4l8.1-0.3c0,0,1.7,1.5,0.6,3.2c2.3-0.8,3.5-3.2,3.5-3.2l1.5,0.3c0,0,1.1,2.9,1.1,4.7
		c2.4-0.8,4.6-2.6,6.1-3.8c1.5-1.2,6.3-1.1,6.3-1.1l-0.6,1.2l-4.9,3.7c0,0,6,19.2,22.2,28c-2.4,0.5-3.1,0.5-6-0.3
		c-2.9-0.8-9.6-5.8-16.8-6.4c-7.2-0.6-15.6-0.6-19.1,6.1c-3.5,6.7-7.5,22.4,18.9,44.9c-1.7,4.4-4.1,9-6.6,10.8
		c-6.3,0-17-3.3-19.6,14c2,0.2,4.6,0,4.6,0s0.5-7.9,6-11.9c0.8,0.2,1.5,0.6,1.5,0.6s-3.8,1.4-4.7,11.3c1.8,0.3,3.5,0.2,3.5,0.2
		s-0.5-7.6,6.6-11c0.9,0.8,1.2,1.2,1.2,1.2s-4.7,1.5-5.4,10.2c6.9,1.2,12.8,1.2,12.8,1.2s7.5-22.7,18-22.2c0.5-1.4-0.8-2.3-0.8-2.3
		l-0.2-5.6l3.8,1.5c0,0-5-5.9-3.8-13.1c3.5,2.7,12.8,10,24,9.4c4.6,12.3,7.5,21.8,17.7,28.2c10.2,6.4,22.9,14.5,26.9,19.2
		c0.6,4.4,0.6,7.8-0.5,9.6c-1.1,1.8-2.6,2.7-5,2.7s-14.4,1.8-15.1,12.9c1.2,0.3,4.9-0.3,4.9-0.3s0.3-7.3,7.2-9.7
		c0.5,0.6,0.8,1.4,0.8,1.4s-5.3,2-5.5,8.5c1.2,0,4.9,0,4.9,0s0.9-6.1,5.5-8.2c0.8,0.9,0.9,1.4,0.9,1.4s-5.6,3.4-4.6,9.3
		c4.6,0.2,16.5-0.3,16.5-0.3s4.1-16.8,9.9-20.1c2.1-1.2,0.6-2,0.2-2.7c-0.5-0.8-0.6-2.1,0.9-3c1.5-0.9,1.4-1.5-0.3-3.2
		c-1.7-1.7-1.8-6.1-0.6-7.2s2-2-1.1-2.7c-3.1-0.8-8.4-5.5-10.8-9.1c-2.4-3.7-4.7-11.1-5.8-15.5c-1.1-4.4-1.8-11.4-5.7-20.3
		c5.7-1.1,9.8-2.9,9.8-2.9s0.5,2.7-0.5,5.6c2.6-3,5.2-5.2,4-8.5c2,3.7,2,3.7,2,3.7s4.3-4.9,3.2-15.7c-1.1-10.8-3.1-23.8-5-28.5
		c-2-4.7-16.8-35.2-10.8-41.6c6-6.4,15.4,2.3,18.3,9.7c2.9,7.5,7.9,21.8,9.2,38.4c-3.5,0.8-11,15.1,4.9,29.8
		c0.2-3.3,0.2-7.6,0.2-7.6s4.7,12.6,19.2,11.7c-6.6-5.5-9.3-10.8-10.5-15.2c5,1.7,6.9,0.8,8.1,0.8c-5.8-5.2-7.3-10-8.1-12.8
		c-0.8-2.7-2.6-7.5-7.3-7.3c-1.1-13.9-4.6-39.9-15-48c7.2,3.2,6.9,2.3,6.9,2.3s-5.3-9.9-15.4-10.5c2.4-0.3,3.5-1.1,3.5-1.1
		s-10.8-5.3-16.2-0.5c-5.3,4.9-11.8,11.4-3.4,32.4c8.4,21,12.4,32.6,11.9,39.6c-0.5,7-5.5,14.6-15.3,10.1
		c-9.8-4.6-21.4-14.3-21.7-25.7c-0.3-11.4,6.1-22.1,7-29.4c0.9-7.3,4-18.1,3.5-23.9c2.9,6.9,4.3,10.1,4.9,15.2
		c0.9-16.1,0.3-29.2-3.1-35.6c4,4.4,5.5,7.9,5.5,7.9s-0.5-22.4-12.1-35.6c4.7,1.4,7,0.8,8.9,3.2c-4.7-9.3-12.2-14.5-17.6-16.6
		c8.4,0.9,10.1,1.1,10.1,1.1S487.9,223,473.7,226.9L473.7,226.9z"/>
</g>
</svg>
