<?xml version="1.0" encoding="utf-8"?>
<!-- Generator: Adobe Illustrator 16.0.0, SVG Export Plug-In . SVG Version: 6.00 Build 0)  -->
<!DOCTYPE svg PUBLIC "-//W3C//DTD SVG 1.1//EN" "http://www.w3.org/Graphics/SVG/1.1/DTD/svg11.dtd">
<svg version="1.1" id="Layer_1" xmlns="http://www.w3.org/2000/svg" xmlns:xlink="http://www.w3.org/1999/xlink" x="0px" y="0px"
	 width="600px" height="600px" viewBox="0 0 600 600" style="enable-background:new 0 0 600 600;" xml:space="preserve">
<g>
	<path style="fill:#FFFFFF;" d="M591.1,300c0,160.8-130.8,291.6-291.6,291.6C138.8,591.6,8,460.8,8,300C8,139.2,138.8,8.4,299.6,8.4
		C460.3,8.4,591.1,139.2,591.1,300z"/>
	<g>
		<path style="fill:#060000;" d="M583.8,300c0,156.7-127.5,284.2-284.2,284.2C142.8,584.3,15.3,456.7,15.3,300
			c0-156.7,127.5-284.2,284.2-284.2C456.3,15.8,583.8,143.3,583.8,300z M299.6,1.5C134.9,1.5,1,135.4,1,300
			c0,164.6,133.9,298.6,298.6,298.6c164.6,0,298.6-133.9,298.6-298.6C598.1,135.4,464.2,1.5,299.6,1.5z"/>
	</g>
	<path style="fill:#060000;" d="M241.5,351.2c-25.4,41.9-79.4,44.7-133.9,23.5c0,0,21.7-0.6,40.9-11.2c16.9-9.3,18.5-14.4,35.2-34.9
		c47.7-58.7,91-85.1,135.3-42.8C318.9,285.7,279.1,289.2,241.5,351.2z"/>
	<path style="fill:#060000;" d="M299.4,387.3C274,429.2,220,432,165.5,410.7c0,0,21.7-0.6,40.9-11.2c16.8-9.3,18.5-14.4,35.1-34.9
		c47.7-58.6,91-85,135.3-42.8C376.8,321.9,337,325.3,299.4,387.3z"/>
	<path style="fill:#060000;" d="M487.8,327.4c2.3,23.7-12.4,45-60.1,73.3c0,0,73.4-62.4-16.6-106.4c-56.1-27.4-98.6-51-113.6-86.1
		c-10.4-24.3-0.4-65.1,30.2-78.9c0,0,33.7-16.4,94.7,6c0,0,33.9,12,15.6,35.2c0,0,4.7,8,9.4,17.8c3.6,7.5,2.6,11.3-5.3,6.5
		c0,0-88.5-77.3-112.1-31.8c0,0-8.5,16.3,2.5,36.2c9.1,12.1,16.2,15.5,30.5,23.6c21.9,11.5,36.7,19.4,63.9,34.5
		C426.8,257.3,483.8,285.3,487.8,327.4z"/>
	<path style="fill:#060000;" d="M362.2,420.5c-25.4,41.9-79.4,44.7-134,23.5c0,0,21.7-0.6,40.9-11.2c16.9-9.3,18.6-14.4,35.2-34.9
		c47.7-58.6,91-85,135.2-42.8C439.6,355.1,399.8,358.6,362.2,420.5z"/>
	<path style="fill:#060000;" d="M98.1,407.5c-0.2-3-0.5-4.6-1.7-7.1c-1.3-2.8-3.9-5.5-7.5-3.8c-6.6,3.2,2.1,17.2-9.2,22.8
		c-7.3,3.6-13-0.7-16.3-7.6c-1.2-2.4-1.6-5.1-2-7.7l4.8-1.8c0.1,2,0.6,5.5,1.8,8c1.4,2.8,4.9,6,8.9,4c7.7-3.7-1.6-17.5,9.1-22.7
		c6.1-3,11.7,0.3,14.7,6.5c1.1,2.3,2,5.2,2.3,7.9L98.1,407.5z"/>
	<path style="fill:#060000;" d="M105.4,411.8l3.6,4.8l-20.7,26.9l0.1,0.1l31-13.1l4.7,6.2L102.8,463l0.1,0.1l31.6-12.3l3.5,4.6
		l-37.6,13.5l-4.2-5.7l21.7-26.7l-0.1-0.1l-31.7,13.3l-4.4-5.9L105.4,411.8z"/>
	<path style="fill:#060000;" d="M152.3,466.8l4.3,3.7L143.9,510l-4.5-3.9l3.3-9.8l-14.2-12.2l-9.2,4.8l-4.4-3.8L152.3,466.8z
		 M150.9,472.4l-18.1,9.4l11.5,9.9L150.9,472.4z"/>
	<path style="fill:#060000;" d="M174.8,484.8l6.4,3.7l-0.8,35.1l0.1,0.1l15.4-26.6l4.7,2.7l-19.2,33l-6-3.5l0.8-35.9l-0.1,0
		l-15.8,27.2l-4.7-2.8L174.8,484.8z"/>
	<path style="fill:#060000;" d="M224.9,515.8c-2.2-2-3.4-3-6.1-4.1c-2.9-1.1-6.7-1.4-8.1,2.3c-2.6,6.8,13.3,11.2,8.7,22.9
		c-2.9,7.6-10,8.4-17.1,5.6c-2.5-1-4.7-2.6-6.7-4.3l2.3-4.5c1.5,1.4,4.1,3.6,6.7,4.6c2.9,1.1,7.6,1.1,9.2-3.1
		c3.1-7.9-13.1-11.7-8.8-22.8c2.5-6.3,8.8-7.8,15.2-5.3c2.3,0.9,5,2.4,7.1,4.2L224.9,515.8z"/>
	<path style="fill:#060000;" d="M237.9,513.9l20.8,5l-1.1,4.7l-15.5-3.7l-2.6,10.8l14.1,3.4l-1.1,4.7l-14.1-3.4l-2.9,12.3l15.5,3.7
		l-1.1,4.7l-20.8-5L237.9,513.9z"/>
	<path style="fill:#060000;" d="M280.7,521.7l5.7,0.4l13.3,39.3l-5.9-0.4l-3.2-9.9l-18.6-1.4l-4.6,9.3l-5.7-0.4L280.7,521.7z
		 M283,527l-9,18.3l15.2,1.1L283,527z"/>
	<path style="fill:#060000;" d="M352.4,523c-2.6-1-5.4-1.2-8.1-0.8c-8.7,1.5-13.4,8.7-11.9,17.2c1.5,8.8,8.9,13.6,16.7,12.3
		c2.7-0.5,6.2-1.8,7.9-3.2l1.2,5.2c-2.7,1.7-6.2,2.4-8.4,2.8c-11.9,2-21.1-4.3-23.2-16.2c-2-11.6,5.1-20.8,16.6-22.7
		c2.9-0.5,5.9-0.6,8.8,0.2L352.4,523z"/>
	<path style="fill:#060000;" d="M359,514.4l5.2-1.5l10.7,36.7l-5.3,1.5L359,514.4z"/>
	<path style="fill:#060000;" d="M383.3,511.3l-11,4.5l-1.8-4.5l27.1-11.1l1.8,4.4l-11,4.5L401,540l-5.1,2.1L383.3,511.3z"/>
	<path style="fill:#060000;" d="M424.2,510.5l-24.3-11.3l5.5-3.3l18.6,8.7l0.6-20.4l5.5-3.3l-1.2,26.7l8.3,13.7l-4.7,2.8
		L424.2,510.5z"/>
	<path style="fill:#060000;" d="M456.3,457.9l4-4.1l38.6,15.3l-4.2,4.3l-9.6-4l-13.1,13.3l4.1,9.5l-4,4.1L456.3,457.9z M461.8,459.6
		l8.1,18.7l10.7-10.8L461.8,459.6z"/>
	<path style="fill:#060000;" d="M475.2,436.8l11.8-16.5l3.9,2.8l-8.6,12.1l9.1,6.5l8.3-11.5l3.9,2.8l-8.3,11.5l14.2,10.1l-3.2,4.5
		L475.2,436.8z"/>
	<path style="fill:#060000;" d="M509.3,392.4c-2.4,1.5-4.2,3.5-5.5,6c-4.1,7.8-1.1,15.9,6.5,19.9c8,4.1,16.2,1.1,19.9-5.9
		c1.2-2.4,2.3-6,2.2-8.2l4.9,2.1c-0.3,3.1-1.8,6.4-2.8,8.3c-5.6,10.8-16.1,14.3-26.9,8.7c-10.4-5.4-13.5-16.6-8.2-26.9
		c1.4-2.6,3.1-5,5.4-6.9L509.3,392.4z"/>
</g>
</svg>
