<?xml version="1.0" encoding="utf-8"?>
<!-- Generator: Adobe Illustrator 16.0.0, SVG Export Plug-In . SVG Version: 6.00 Build 0)  -->
<!DOCTYPE svg PUBLIC "-//W3C//DTD SVG 1.1//EN" "http://www.w3.org/Graphics/SVG/1.1/DTD/svg11.dtd">
<svg version="1.1" id="Layer_1" xmlns="http://www.w3.org/2000/svg" xmlns:xlink="http://www.w3.org/1999/xlink" x="0px" y="0px"
	 width="600px" height="600px" viewBox="0 0 600 600" style="enable-background:new 0 0 600 600;" xml:space="preserve">
<g>
	<path style="fill:#001C58;" d="M242.1,377.3c-1-0.2-3.1-0.1-5,2c-3.2,3.4-4.6,8.1-4.4,13.8c0,1.5,0.3,2.3,0.7,3.4
		c0.7,2.1,2.4,3.4,3.7,3.7c1.6,0.2,3.3-0.6,4.9-2.5c3.6-4.3,5.1-12,3.4-16.9C244.6,378.8,243.5,377.6,242.1,377.3 M317,434
		c1.8,3.8,4.9,6.1,7.3,6.8c3,1,10.9,2.7,17.4,3.5c7.2,0.7,12.9-3.2,16.1-11.4c-2.4-0.1-5-0.5-7.7-0.9c-0.5,1.7-1.1,3.3-2,4.8
		c-0.6,1-2,1.5-3,0.9c-1.2-0.7-1.5-2.1-0.9-3.2c0.5-0.9,1-2,1.4-3.1c-1.5-0.2-2.9-0.5-4.3-0.9c-0.5,2-1,3.7-1.6,5.1
		c-0.4,1.1-1.8,1.7-3,1.3c-1.1-0.6-1.7-1.8-1.1-3.1c0.4-1,0.9-2.5,1.3-4.1c-0.8-0.1-1.5-0.4-2.2-0.5c-0.8-0.2-1.6-0.4-2.4-0.5
		c-0.4,1.2-0.9,2.6-1.5,4.1c-0.5,1.1-1.9,1.6-3,1.1c-1.1-0.5-1.7-1.7-1.2-3c0.5-1.1,0.9-2.2,1.2-3.3c-3.8-1-7.8-2.1-11.8-3.2
		C315.2,428.6,316,431.8,317,434z M359.2,428.4c0.9-4.6-0.1-7.8-1.2-9.8c-1.4-2.5-3.8-4.3-6.4-4.9l-2.9-0.6
		c-2.6-0.5-6.6-1.2-12.6-2.7c-7.9-2-14.7,1.6-18.5,9.7c3.8,1.1,7.7,2.1,11.3,3.1c0.6-2.8,0.8-4.9,0.8-4.9c0-1.2,1.1-2.2,2.4-2.1
		c1.3,0,2.3,1.1,2.2,2.4c0,0.3-0.2,2.5-0.9,5.8c0.7,0.2,1.5,0.4,2.2,0.5c0.8,0.1,1.5,0.4,2.2,0.5c0.7-3.2,1.1-5.9,1.1-6.1
		c0.2-1.2,1.3-2.1,2.5-1.8c1.3,0.2,2.1,1.4,1.9,2.6c0,0.2-0.4,3-1.1,6.2c1.6,0.4,3,0.6,4.4,0.9c0.5-2.9,0.6-4.9,0.6-5
		c0.1-1.3,1.1-2.2,2.4-2.1c1.2,0,2.2,1.1,2.2,2.3c0,0.1-0.2,2.5-0.7,5.4C354.3,428.1,357,428.4,359.2,428.4z M372.5,399.6
		c-0.3-8.3-2-16.3-4.8-23.5c-3.5-9.1-15-15.4-30.2-18.9c-28-6.4-64.9,4.1-88.3,23.8c0.9,3.6,0.6,7.9-0.6,11.9
		c16.9,9,41.4,18.9,64.6,25.9c5.5-12.5,15.9-15,24.1-12.8c5.8,1.5,9.6,2.2,12.3,2.7l3,0.6c3.9,1,7.2,3.6,9.3,7.2
		c1.5,2.5,2.8,6.5,1.9,12c2.8-0.1,4.2-0.6,4.5-1C371.4,418.8,372.9,409.4,372.5,399.6z M341.2,448.9c-6.4-0.7-14.8-2.5-18.6-3.7
		c-4.1-1.5-7.8-5-9.8-9.3c-0.9-1.9-1.6-4.2-1.7-7.2c-0.1-1.7,0.1-3.6,0.6-5.7c-23.2-7-47.8-16.9-64.9-26c-0.6,1.1-1.3,2.1-2.1,3.1
		c-1.3,1.5-2.7,2.6-4.2,3.2c1.6,14.2,6.5,28.3,14.4,40.3c10.5,16.2,24.7,27.3,40,30.7c5.5,1.3,12.6,2.7,19,1.4
		c23.6-5.3,42.8-21.6,52.3-43.2c-1.1,0.2-2.4,0.4-3.7,0.4C357.2,448.7,345.9,449.3,341.2,448.9z M231.5,382.2
		c0.7-1.7,1.7-3.3,2.9-4.8c0.9-1,1.9-1.8,3-2.6c2.8-13,8.5-24.4,17.1-33.2c-12.8,9-22.4,21.8-27.6,36.8
		C227.6,379.4,229.4,380.8,231.5,382.2z M230,386.7c-1.8-1.4-3.4-2.6-4.5-3.7c-1.9,7.3-2.9,14.9-2.5,22.7c0.1,1.6,0.2,3.2,0.4,4.7
		c1.1-4.6,3.3-9.4,6.5-14.4C229.3,393.1,229.3,389.8,230,386.7z M236,403.7c-1.7-0.4-3.1-1.4-4.2-3c-5.6,8.6-8,16.3-5.8,23.2
		c8.5,29,34.1,50.3,64.6,53.2C261.4,468.2,239.8,437.9,236,403.7"/>
	<path style="fill:#FFFFFF;" d="M265.3,3.3c-29.3,0-36.2,15-36.2,15s33.8-2.5,33.8,31c0,15-8.1,25.2-16.8,35.9
		c-10,12.6-21.4,26.8-21.4,50.6c0,39.5,25.4,57.9,47.7,74.3c19.5,14.2,37.9,27.6,37.9,52.9c0,25.4-11.2,45-16.2,50.2
		c-8.5,8.5-16.2,10-22.4,11.4c-6.4,1.2-12.4,2.5-13.6,11.6c-23.5,14-37.7,39.1-37.7,66.4c0,1.1,0,2.1,0.1,3.2
		c0.8,20.7,9.7,39.8,24.9,53.9c15.3,14.1,35.1,21.2,55.7,20.5c20.7-0.9,39.9-9.8,53.9-24.9c14-15.3,21.3-35,20.4-55.8
		c-1.2-31.6-21.3-59-51-69.8l0.1,0.1l-0.4-0.2l-0.7-0.1c-3.8-1.4-8-2.8-8-12.4c0-9.4,4.3-10.3,12.7-11.7c5.1-1,11.2-2.1,17.3-5.8
		c10.7-6.5,12.7-14.4,10.8-16.4c-2.7-2.7-5.7,3-16.5,6.1c-3.8,1.3-7.8,1.9-10.5,1.9c-2.2,0-3.8-0.1-5.1-0.4
		c5.7-10.6,12-19.4,12.1-19.5l1.4-1.8l-1.7-1.7c-2.2-2.1-3.5-6.7-3.5-12.8c0-7.6,1.9-17.5,6.5-28.4c5.2-12.7,26.2-54.3,74.3-54.3
		h2.7v-2.7c0-17.3-1.6-33.1-4.6-47l-0.6-2.7c0,0-4.7,1.2-8.6,2.1c-0.5,0.1-4.1,1-4.3,0.2c-0.2-0.6,2.6-2.1,3.6-2.6
		c3.6-1.7,8.2-3.7,8.2-3.7l-0.7-2.2c-3.4-12-6.8-17.6-7-17.9l-1.1-1.9l-2,0.6c-40.1,12.7-48.7,39.2-53.7,55.1
		c-2.5,7.8-4.1,12.1-6.9,12.1c-8.2,0-15.1-6.9-17.3-9.1c-25-24.9-23.1-42.9-20.2-70.2c1.1-9.6,2.2-20.5,2.2-33
		C302.8,17.9,290.9,3.3,265.3,3.3"/>
	<path style="fill:none;stroke:#FFFFFF;stroke-width:0.343;" d="M265.3,3.3c-29.3,0-36.2,15-36.2,15s33.8-2.5,33.8,31
		c0,15-8.1,25.2-16.8,35.9c-10,12.6-21.4,26.8-21.4,50.6c0,39.5,25.4,57.9,47.7,74.3c19.5,14.2,37.9,27.6,37.9,52.9
		c0,25.4-11.2,45-16.2,50.2c-8.5,8.5-16.2,10-22.4,11.4c-6.4,1.2-12.4,2.5-13.6,11.6c-23.5,14-37.7,39.1-37.7,66.4
		c0,1.1,0,2.1,0.1,3.2c0.8,20.7,9.7,39.8,24.9,53.9c15.3,14.1,35.1,21.2,55.7,20.5c20.7-0.9,39.9-9.8,53.9-24.9
		c14-15.3,21.3-35,20.4-55.8c-1.2-31.6-21.3-59-51-69.8l0.1,0.1l-0.4-0.2l-0.7-0.1c-3.8-1.4-8-2.8-8-12.4c0-9.4,4.3-10.3,12.7-11.7
		c5.1-1,11.2-2.1,17.3-5.8c10.7-6.5,12.7-14.4,10.8-16.4c-2.7-2.7-5.7,3-16.5,6.1c-3.8,1.3-7.8,1.9-10.5,1.9c-2.2,0-3.8-0.1-5.1-0.4
		c5.7-10.6,12-19.4,12.1-19.5l1.4-1.8l-1.7-1.7c-2.2-2.1-3.5-6.7-3.5-12.8c0-7.6,1.9-17.5,6.5-28.4c5.2-12.7,26.2-54.3,74.3-54.3
		h2.7v-2.7c0-17.3-1.6-33.1-4.6-47l-0.6-2.7c0,0-4.7,1.2-8.6,2.1c-0.5,0.1-4.1,1-4.3,0.2c-0.2-0.6,2.6-2.1,3.6-2.6
		c3.6-1.7,8.2-3.7,8.2-3.7l-0.7-2.2c-3.4-12-6.8-17.6-7-17.9l-1.1-1.9l-2,0.6c-40.1,12.7-48.7,39.2-53.7,55.1
		c-2.5,7.8-4.1,12.1-6.9,12.1c-8.2,0-15.1-6.9-17.3-9.1c-25-24.9-23.1-42.9-20.2-70.2c1.1-9.6,2.2-20.5,2.2-33
		C302.8,17.9,290.9,3.3,265.3,3.3"/>
	<path style="fill:#001C58;" d="M242.1,377.3c-1-0.2-3.1-0.1-5,2c-3.2,3.4-4.6,8.1-4.4,13.8c0,1.5,0.3,2.3,0.7,3.4
		c0.7,2.1,2.4,3.4,3.7,3.7c1.6,0.2,3.3-0.6,4.9-2.5c3.6-4.3,5.1-12,3.4-16.9C244.6,378.8,243.5,377.6,242.1,377.3 M359.2,428.4
		c0.9-4.6-0.1-7.8-1.2-9.8c-1.4-2.5-3.8-4.3-6.4-4.9l-2.9-0.6c-2.6-0.5-6.6-1.2-12.6-2.7c-7.9-2-14.7,1.6-18.5,9.7
		c3.8,1.1,7.7,2.1,11.3,3.1c0.6-2.8,0.8-4.9,0.8-4.9c0-1.2,1.1-2.2,2.4-2.1c1.3,0,2.3,1.1,2.2,2.4c0,0.3-0.2,2.5-0.9,5.8
		c0.7,0.2,1.5,0.4,2.2,0.5c0.8,0.1,1.5,0.4,2.2,0.5c0.7-3.2,1.1-5.9,1.1-6.1c0.2-1.2,1.3-2.1,2.5-1.8c1.3,0.2,2.1,1.4,1.9,2.6
		c0,0.2-0.4,3-1.1,6.2c1.6,0.4,3,0.6,4.4,0.9c0.5-2.9,0.6-4.9,0.6-5.1c0.1-1.2,1.1-2.2,2.4-2.1c1.2,0,2.2,1.1,2.2,2.3
		c0,0.1-0.2,2.5-0.7,5.4C354.3,428.1,357,428.4,359.2,428.4z M317,434c1.8,3.8,4.9,6.1,7.3,6.8c3,1,10.9,2.7,17.4,3.5
		c7.2,0.7,12.9-3.2,16.1-11.4c-2.4-0.1-5-0.5-7.7-0.9c-0.5,1.7-1.1,3.3-2,4.8c-0.6,1-2,1.5-3,0.9c-1.2-0.7-1.5-2.1-0.9-3.2
		c0.5-0.9,1-2,1.4-3.1c-1.5-0.2-2.9-0.5-4.3-0.9c-0.5,2-1,3.7-1.6,5.1c-0.4,1.1-1.8,1.7-3,1.3c-1.1-0.6-1.7-1.8-1.1-3.1
		c0.4-1,0.9-2.5,1.3-4.1c-0.8-0.1-1.5-0.4-2.2-0.5c-0.8-0.2-1.6-0.4-2.4-0.5c-0.4,1.2-0.9,2.6-1.5,4.1c-0.5,1.1-1.9,1.6-3,1.1
		c-1.1-0.5-1.7-1.7-1.2-3c0.5-1.1,0.9-2.2,1.2-3.3c-3.8-1-7.8-2.1-11.8-3.2C315.2,428.6,316,431.8,317,434z M367.7,376.1
		c-3.5-9.1-15-15.4-30.2-18.9c-28-6.4-64.9,4.1-88.3,23.8c0.9,3.6,0.6,7.9-0.6,11.8c16.9,9,41.4,18.9,64.6,25.9
		c5.5-12.5,15.9-15,24.1-12.8c5.8,1.5,9.6,2.2,12.3,2.7l3,0.6c3.9,1,7.2,3.6,9.3,7.2c1.5,2.5,2.8,6.5,1.9,12c2.8-0.1,4.2-0.6,4.5-1
		c3.1-8.6,4.6-18,4.1-27.8C372.1,391.4,370.5,383.3,367.7,376.1z M341.2,448.9c-6.4-0.7-14.8-2.5-18.6-3.7c-4.1-1.5-7.8-5-9.8-9.3
		c-0.9-1.9-1.6-4.2-1.7-7.2c-0.1-1.7,0.1-3.6,0.6-5.7c-23.2-7-47.8-16.9-64.9-26c-0.6,1.1-1.3,2.1-2.1,3.1c-1.3,1.5-2.7,2.6-4.2,3.2
		c1.6,14.2,6.5,28.3,14.4,40.3c10.5,16.2,24.7,27.3,40,30.7c5.5,1.3,12.6,2.7,19,1.4c23.6-5.3,42.8-21.6,52.3-43.2
		c-1.1,0.2-2.4,0.4-3.7,0.4C357.2,448.7,345.9,449.3,341.2,448.9z M231.5,382.2c0.7-1.7,1.7-3.3,2.9-4.8c0.9-1,1.9-1.8,3-2.6
		c2.8-13,8.5-24.4,17.1-33.2c-12.8,9-22.4,21.8-27.6,36.8C227.6,379.4,229.4,380.8,231.5,382.2z M230,386.7
		c-1.8-1.4-3.4-2.6-4.5-3.7c-1.9,7.3-2.9,14.9-2.5,22.7c0.1,1.6,0.2,3.2,0.4,4.7c1.1-4.6,3.3-9.4,6.5-14.4
		C229.3,393.1,229.3,389.8,230,386.7z M236,403.7c-1.7-0.4-3.1-1.4-4.2-3c-5.6,8.6-8,16.3-5.8,23.2c8.5,29,34.1,50.3,64.6,53.2
		C261.4,468.2,239.8,437.9,236,403.7z M272.1,49.4c0-4.2-0.5-8-1.3-11.3c0,0,6.7-0.4,6.7-8.6c0-6.7-4.4-11.4-5.7-11.4
		c-1,0-1.2,1.1-3.3,1.1c-5.1,0-5.6-6.5-5.6-6.5c0.8-0.1,1.6-0.1,2.4-0.1c14.7,0,28.4,4.4,28.4,36.9c0,12-1.2,22.6-2.1,32
		c-1,9.2-1.9,17.9-1.7,26.3c0,0-25.6-2.9-25.6-22.2C264.2,72.8,272.1,69.7,272.1,49.4z M312.8,263c0,25.3-10.8,45.9-17,52.1
		c-19.4,19.4-35.4,5.3-35.5,24.7c-8.7,8-15.1,20-18.1,33.8c0.2,0,0.3,0.1,0.5,0.1c1.8,0.4,3.4,1.4,4.6,3
		c24.5-20,62.4-30.5,91.2-23.9c9.2,2.1,16.9,5.4,22.8,10.6c-8.9-14.3-22.4-25.4-38.5-31.2c-3.8-1.4-10.5-2.9-10.5-15.2
		c0-23.1,25.2-5.2,41.8-30.3c0.8-1.2-0.4-2.3-1.3-1.3c-5,4.9-17.3,8.4-23.9,8.4c-6.5,0-9-1.5-9-1.5c6.2-12.2,13.9-22.7,13.9-22.7
		c-15.4-15.4,10.5-100.2,79.2-100.2c0-19.8-2.1-35.1-4.6-46.5c-1.6,0.5-14.6,3.5-15.2,0.7c-0.5-2.4,9.6-7.6,13-9.2
		c-3.3-11.9-6.7-17.3-6.7-17.3c-58.9,18.5-47,67.2-61.4,67.2c-9.3,0-16.6-7.3-19.3-9.9c-35.2-35.1-18.8-58.5-18.8-105.1
		c0-31.6-12.2-43.3-34.8-43.3c-22.5,0-30.6,9.7-30.6,9.7s31,1,31,33.5c0,33.9-38.3,43.3-38.3,86.5
		C227.3,207.7,312.8,206.3,312.8,263"/>
	<path style="fill:#FFFFFF;" d="M183.2,468.1c5.8,3.8,11.9,7.1,11.9,7.1l-2.2,5.6c-0.8-3.3-4.1-5.2-8.4-7.8l-13.9,20.2
		c-1.7,2.5-5.1,7.8-5.3,9.9c0,0-2.4-1.5-4.5-3c-2.2-1.7-4.3-3.2-4.3-3.2c2.1-0.5,5.7-5.8,7.9-8.8l13.6-19.5
		c-5.1-3.9-7.2-4.7-10.7-4.8l4.9-3.7C172.2,460.2,176.8,463.9,183.2,468.1"/>
	<g>
		<defs>
			<rect id="SVGID_1_" x="153.2" width="293.7" height="600"/>
		</defs>
		<clipPath id="SVGID_2_">
			<use xlink:href="#SVGID_1_"  style="overflow:visible;"/>
		</clipPath>
		
			<path style="clip-path:url(#SVGID_2_);fill:none;stroke:#FFFFFF;stroke-width:0.343;stroke-linecap:round;stroke-linejoin:round;" d="
			M183.2,468.1c5.8,3.8,11.9,7.1,11.9,7.1l-2.2,5.6c-0.8-3.3-4.1-5.2-8.4-7.8l-13.9,20.2c-1.7,2.5-5.1,7.8-5.3,9.9
			c0,0-2.4-1.5-4.5-3c-2.2-1.7-4.3-3.2-4.3-3.2c2.1-0.5,5.7-5.8,7.9-8.8l13.6-19.5c-5.1-3.9-7.2-4.7-10.7-4.8l4.9-3.7
			C172.2,460.2,176.8,463.9,183.2,468.1"/>
	</g>
	<path style="fill:#FFFFFF;" d="M405,536.7l0.4,0.5c-0.3,0-0.7,0.1-1.1,0.4l1.2,2.4c0.2,0.5,0.6,1.1,0.8,1.3c0,0-0.3,0.1-0.5,0.2
		c-0.2,0.1-0.5,0.2-0.5,0.2c0-0.2-0.1-0.5-0.5-1.2l-1.3-2.4c-0.5,0.2-0.9,0.5-1.1,0.8l-0.1-0.7c0,0,0.6-0.3,1.3-0.6
		C404.5,537,405,536.7,405,536.7"/>
	<path style="fill:none;stroke:#FFFFFF;stroke-width:0.343;stroke-linecap:round;stroke-linejoin:round;" d="M405,536.7l0.4,0.5
		c-0.3,0-0.7,0.1-1.1,0.4l1.2,2.4c0.2,0.5,0.6,1.1,0.8,1.3c0,0-0.3,0.1-0.5,0.2c-0.2,0.1-0.5,0.2-0.5,0.2c0-0.2-0.1-0.5-0.5-1.2
		l-1.3-2.4c-0.5,0.2-0.9,0.5-1.1,0.8l-0.1-0.7c0,0,0.6-0.3,1.3-0.6C404.5,537,405,536.7,405,536.7"/>
	<path style="fill:#FFFFFF;" d="M208.3,484.8c-6.2-3-11.1,4.1-14.8,11.7c-3.6,7.8-6.1,16,0.2,19c6.2,3,11.1-4.1,14.8-11.9
		C212.1,496,214.5,487.7,208.3,484.8 M192.3,518.3c-9.7-4.6-11-15.3-6.2-25.4c4.8-10,13.9-15.7,23.6-11.1c9.7,4.7,11,15.3,6.2,25.4
		C211.1,517.2,202,523,192.3,518.3"/>
	<path style="fill:none;stroke:#FFFFFF;stroke-width:0.343;stroke-linecap:round;stroke-linejoin:round;" d="M208.3,484.8
		c-6.2-3-11.1,4.1-14.8,11.7c-3.6,7.8-6.1,16,0.2,19c6.2,3,11.1-4.1,14.8-11.9C212.1,496,214.5,487.7,208.3,484.8z M192.3,518.3
		c-9.7-4.6-11-15.3-6.2-25.4c4.8-10,13.9-15.7,23.6-11.1c9.7,4.7,11,15.3,6.2,25.4C211.1,517.2,202,523,192.3,518.3"/>
	<path style="fill:#FFFFFF;" d="M235.8,492.2c6.6,1.8,12,3.1,12,3.1l-0.6,5.9c-1.7-2.5-2.5-3.2-8.2-4.6l-6.8,22.8
		c-0.5,2.1-3.2,10.1-2.4,11.6c0,0-1.9-0.5-5-1.2c-3.4-1-5.1-1.6-5.1-1.6c1.8-1.2,4-8,4.7-10.8l6.9-23c-5.8-1.8-7.2-2.1-9.9-0.7
		l3.3-5C224.7,488.6,228.5,490.2,235.8,492.2"/>
	<path style="fill:none;stroke:#FFFFFF;stroke-width:0.343;stroke-linecap:round;stroke-linejoin:round;" d="M235.8,492.2
		c6.6,1.8,12,3.1,12,3.1l-0.6,5.9c-1.7-2.5-2.5-3.2-8.2-4.6l-6.8,22.8c-0.5,2.1-3.2,10.1-2.4,11.6c0,0-1.9-0.5-5-1.2
		c-3.4-1-5.1-1.6-5.1-1.6c1.8-1.2,4-8,4.7-10.8l6.9-23c-5.8-1.8-7.2-2.1-9.9-0.7l3.3-5C224.7,488.6,228.5,490.2,235.8,492.2"/>
	<path style="fill:#FFFFFF;" d="M262.9,498.3c6.5,1,12.6,1.5,12.6,1.5l0.3,5.9c-2.5-2.2-3.3-2.8-9.8-3.7l-3.6,23.5
		c-0.3,2.1-1.7,10.3-0.6,11.6c0,0-2.2-0.2-5.3-0.6c-3.1-0.5-5-0.9-5-0.9c1.5-1.2,2.8-9,3-11.1l3.8-23.8c-5.5-1.1-6.7-0.6-9.3,0.9
		l2.4-5.6C251.3,496.1,256.5,497.3,262.9,498.3"/>
	<path style="fill:none;stroke:#FFFFFF;stroke-width:0.343;stroke-linecap:round;stroke-linejoin:round;" d="M262.9,498.3
		c6.5,1,12.6,1.5,12.6,1.5l0.3,5.9c-2.5-2.2-3.3-2.8-9.8-3.7l-3.6,23.5c-0.3,2.1-1.7,10.3-0.6,11.6c0,0-2.2-0.2-5.3-0.6
		c-3.1-0.5-5-0.9-5-0.9c1.5-1.2,2.8-9,3-11.1l3.8-23.8c-5.5-1.1-6.7-0.6-9.3,0.9l2.4-5.6C251.3,496.1,256.5,497.3,262.9,498.3"/>
	<path style="fill:#FFFFFF;" d="M286.9,520.7l-0.4,15.8c8.3,0.1,14-0.5,16.5-4.1l-1.3,7.2c0,0-4.6,0.1-11.3,0
		c-7.4-0.1-13.2-0.5-13.2-0.5c1.2-1.2,1.5-9,1.5-11.1l0.7-15.5c0-4.1,0.4-10.7-1-12.2c6,0.5,5.2,0.5,10.7,0.6
		c7.2,0.4,11.3,0.1,11.3,0.1l0.9,5.9c-2.8-2.3-7.1-2.6-14-2.7l-0.3,13.3h10.5c1,0,1,0.6,1,1.6c0,1.1,0,1.6-1,1.6H286.9"/>
	<path style="fill:none;stroke:#FFFFFF;stroke-width:0.343;stroke-linecap:round;stroke-linejoin:round;" d="M286.9,520.7l-0.4,15.8
		c8.3,0.1,14-0.5,16.5-4.1l-1.3,7.2c0,0-4.6,0.1-11.3,0c-7.4-0.1-13.2-0.5-13.2-0.5c1.2-1.2,1.5-9,1.5-11.1l0.7-15.5
		c0-4.1,0.4-10.7-1-12.2c6,0.5,5.2,0.5,10.7,0.6c7.2,0.4,11.3,0.1,11.3,0.1l0.9,5.9c-2.8-2.3-7.1-2.6-14-2.7l-0.3,13.3h10.5
		c1,0,1,0.6,1,1.6c0,1.1,0,1.6-1,1.6H286.9"/>
	<path style="fill:#FFFFFF;" d="M333.2,525.3c0.6,5.8,1.1,9.9,2.4,10.6c-0.3,0.6-1.3,1.5-2.7,1.6c-1.7,0.1-2.9-0.6-4.1-1.9
		L310.1,514l0.7,13.7c0.3,2.2,0.5,10.4,1.8,11.5l-6.3,0.3c1.1-1.4,0.9-9.2,0.6-11.2l-0.9-15.6c-0.3-2.1-0.6-10.7-2-11.7l5.8-0.2
		l19.2,22.8l-1.6-13.1c-0.3-2.2-1.4-10-2.7-11.1c0,0,0.7-0.1,3.1-0.4c2.4-0.4,3.1-0.5,3.1-0.5c-1.1,1.3,0.2,9.4,0.5,11.5
		L333.2,525.3"/>
	<path style="fill:none;stroke:#FFFFFF;stroke-width:0.343;stroke-linecap:round;stroke-linejoin:round;" d="M333.2,525.3
		c0.6,5.8,1.1,9.9,2.4,10.6c-0.3,0.6-1.3,1.5-2.7,1.6c-1.7,0.1-2.9-0.6-4.1-1.9L310.1,514l0.7,13.7c0.3,2.2,0.5,10.4,1.8,11.5
		l-6.3,0.3c1.1-1.4,0.9-9.2,0.6-11.2l-0.9-15.6c-0.3-2.1-0.6-10.7-2-11.7l5.8-0.2l19.2,22.8l-1.6-13.1c-0.3-2.2-1.4-10-2.7-11.1
		c0,0,0.7-0.1,3.1-0.4c2.4-0.4,3.1-0.5,3.1-0.5c-1.1,1.3,0.2,9.4,0.5,11.5L333.2,525.3"/>
	<path style="fill:#FFFFFF;" d="M368.5,517.2c0.6,2.7,2,9.6,3.9,10.9c0,0-3,0.9-4.8,1.5c-1.6,0.5-5.1,1.4-5.1,1.4
		c0.9-1.5-1.1-9.6-1.6-11.7l-1.8-7.2l-11.9,3l1.4,7.3c0.4,2.4,1.6,10.2,3.2,11.2c0,0-1.6,0.4-5.1,1c-3,0.6-5,1-5,1
		c0.9-1.5-0.3-8.9-0.7-11.2l-2.9-15.4c-0.5-2.8-1.8-10.1-3.4-11c0,0,1.5-0.2,5-1c3.4-0.6,5.1-1.1,5.1-1.1c-0.9,1.7,0.6,8.7,1,11.2
		l0.9,4.8l11.8-2.8l-1.3-4.9c-0.7-2.7-2.1-9-3.7-10.2c0,0,1.6-0.5,4.9-1.3c3.2-1,4.6-1.5,4.6-1.5c-0.6,1.7,1.2,8,1.9,11.1
		L368.5,517.2"/>
	<path style="fill:none;stroke:#FFFFFF;stroke-width:0.343;stroke-linecap:round;stroke-linejoin:round;" d="M368.5,517.2
		c0.6,2.7,2,9.6,3.9,10.9c0,0-3,0.9-4.8,1.5c-1.6,0.5-5.1,1.4-5.1,1.4c0.9-1.5-1.1-9.6-1.6-11.7l-1.8-7.2l-11.9,3l1.4,7.3
		c0.4,2.4,1.6,10.2,3.2,11.2c0,0-1.6,0.4-5.1,1c-3,0.6-5,1-5,1c0.9-1.5-0.3-8.9-0.7-11.2l-2.9-15.4c-0.5-2.8-1.8-10.1-3.4-11
		c0,0,1.5-0.2,5-1c3.4-0.6,5.1-1.1,5.1-1.1c-0.9,1.7,0.6,8.7,1,11.2l0.9,4.8l11.8-2.8l-1.3-4.9c-0.7-2.7-2.1-9-3.7-10.2
		c0,0,1.6-0.5,4.9-1.3c3.2-1,4.6-1.5,4.6-1.5c-0.6,1.7,1.2,8,1.9,11.1L368.5,517.2"/>
	<path style="fill:#FFFFFF;" d="M388.1,505.6l-10.3-14.3l0.7,18L388.1,505.6 M390.3,508.1l-11.7,4.6l0.5,6.4
		c0.3,2.2,0.3,4.2,0.7,5.3c0.3,0.5,0.7,1,1.1,1.1c0,0-1.2,0.5-3.2,1.1c-2,0.6-3.1,1-3.1,1c0.7-1.2,0.9-2.9,0.8-4.9l-1.1-30.4
		c-0.1-1.1-0.2-2.1-0.6-2.9c-0.3-0.7-0.9-1.3-1.2-1.5c1.3-0.9,3-1.8,4.7-2.6c2.6-1.1,3.8-1.1,5.8,1.2l17,21.2
		c3.1,3.9,5.8,6.7,7.7,7.3c0,0-1.7,0.7-5,2.2c-3.2,1.5-5.4,2.3-5.4,2.3c0.2-0.7,0.2-1.5-0.2-2.6c-0.5-1.1-2.1-3.1-3.2-4.7
		L390.3,508.1"/>
	<path style="fill:none;stroke:#FFFFFF;stroke-width:0.343;stroke-linecap:round;stroke-linejoin:round;" d="M388.1,505.6
		l-10.3-14.3l0.7,18L388.1,505.6z M390.3,508.1l-11.7,4.6l0.5,6.4c0.3,2.2,0.3,4.2,0.7,5.3c0.3,0.5,0.7,1,1.1,1.1
		c0,0-1.2,0.5-3.2,1.1c-2,0.6-3.1,1-3.1,1c0.7-1.2,0.9-2.9,0.8-4.9l-1.1-30.4c-0.1-1.1-0.2-2.1-0.6-2.9c-0.3-0.7-0.9-1.3-1.2-1.5
		c1.3-0.9,3-1.8,4.7-2.6c2.6-1.1,3.8-1.1,5.8,1.2l17,21.2c3.1,3.9,5.8,6.7,7.7,7.3c0,0-1.7,0.7-5,2.2c-3.2,1.5-5.4,2.3-5.4,2.3
		c0.2-0.7,0.2-1.5-0.2-2.6c-0.5-1.1-2.1-3.1-3.2-4.7L390.3,508.1"/>
	<path style="fill:#FFFFFF;" d="M439,497.1c-2.4,1.6-4.1,2.8-4.1,2.8c-0.2-2.4-4.6-8-5.9-9.8L419,477.1l8,25.8
		c-0.3,0.5-0.9,1.3-1.4,1.6c-1.6,1.2-3.1,1-4.6-0.1L402,488.6l6.7,12.2c1.6,3.2,4.7,9.6,6.9,10.2c0,0-1.3,0.7-3,1.6
		c-1.7,0.7-2.7,1.2-2.7,1.2c0.4-1.8-2.7-7.2-4.5-10.6l-7.5-14.1c-2.2-4.2-4.7-8.5-6.8-9.3c1.7-0.8,2.1-1.1,4.4-2.2c2-1,3.8-2,3.8-2
		l21.5,18.3l-8.4-25.9c0,0,1.2-0.8,3.3-2.2c2.2-1.4,4.1-2.8,4.1-2.8c0.2,2.4,4.6,8.3,6.3,10.4l9.2,12c2,2.4,5.7,7.9,8.3,8.5
		C443.5,493.9,441.4,495.5,439,497.1"/>
	<path style="fill:none;stroke:#FFFFFF;stroke-width:0.343;stroke-linecap:round;stroke-linejoin:round;" d="M439,497.1
		c-2.4,1.6-4.1,2.8-4.1,2.8c-0.2-2.4-4.6-8-5.9-9.8L419,477.1l8,25.8c-0.3,0.5-0.9,1.3-1.4,1.6c-1.6,1.2-3.1,1-4.6-0.1L402,488.6
		l6.7,12.2c1.6,3.2,4.7,9.6,6.9,10.2c0,0-1.3,0.7-3,1.6c-1.7,0.7-2.7,1.2-2.7,1.2c0.4-1.8-2.7-7.2-4.5-10.6l-7.5-14.1
		c-2.2-4.2-4.7-8.5-6.8-9.3c1.7-0.8,2.1-1.1,4.4-2.2c2-1,3.8-2,3.8-2l21.5,18.3l-8.4-25.9c0,0,1.2-0.8,3.3-2.2
		c2.2-1.4,4.1-2.8,4.1-2.8c0.2,2.4,4.6,8.3,6.3,10.4l9.2,12c2,2.4,5.7,7.9,8.3,8.5C443.5,493.9,441.4,495.5,439,497.1"/>
	<path style="fill:#FFFFFF;" d="M409.8,535.6l1.1,1.4c0.3,0.4,0.6,0.7,0.9,1c0,0-0.3,0.1-0.5,0.4c-0.3,0.1-0.4,0.3-0.4,0.3
		c-0.1-0.4-0.5-0.9-0.7-1.1l-1.1-1.5l0.9,3c-0.1,0-0.2,0.1-0.2,0.1c-0.3,0.2-0.4,0.1-0.6,0l-2.2-1.7l0.9,1.4c0.2,0.4,0.5,1,0.9,1.1
		c0,0-0.2,0.1-0.4,0.2c-0.2,0.1-0.3,0.3-0.3,0.3c0-0.4-0.4-1.1-0.6-1.4l-0.9-1.6c-0.3-0.4-0.6-0.9-0.9-1c0,0,0.3-0.1,0.5-0.3
		c0.2-0.1,0.4-0.2,0.5-0.4l2.4,2.1l-1-3c0.1,0,0.3-0.1,0.4-0.2c0.3-0.1,0.5-0.3,0.5-0.3C409.2,534.7,409.6,535.2,409.8,535.6"/>
	<path style="fill:none;stroke:#FFFFFF;stroke-width:0.343;stroke-linecap:round;stroke-linejoin:round;" d="M409.8,535.6l1.1,1.4
		c0.3,0.4,0.6,0.7,0.9,1c0,0-0.3,0.1-0.5,0.4c-0.3,0.1-0.4,0.3-0.4,0.3c-0.1-0.4-0.5-0.9-0.7-1.1l-1.1-1.5l0.9,3
		c-0.1,0-0.2,0.1-0.2,0.1c-0.3,0.2-0.4,0.1-0.6,0l-2.2-1.7l0.9,1.4c0.2,0.4,0.5,1,0.9,1.1c0,0-0.2,0.1-0.4,0.2
		c-0.2,0.1-0.3,0.3-0.3,0.3c0-0.4-0.4-1.1-0.6-1.4l-0.9-1.6c-0.3-0.4-0.6-0.9-0.9-1c0,0,0.3-0.1,0.5-0.3c0.2-0.1,0.4-0.2,0.5-0.4
		l2.4,2.1l-1-3c0.1,0,0.3-0.1,0.4-0.2c0.3-0.1,0.5-0.3,0.5-0.3C409.2,534.7,409.6,535.2,409.8,535.6"/>
	<path style="fill:#FFFFFF;" d="M218.9,544.2c2,0.8,4.6,1.6,4.6,1.6c-2.2,1.6-4.2,7.8-5.4,11.2l-5.1,13.8c-1.3,3.8-3.6,9.3-2.8,11.2
		c0,0-2.8-1-5-1.8c-1.9-0.6-2.9-1-5-1.9c2.5-0.6,4.8-8.8,5.6-10.9l2.3-6.4l-12-5l-3.5,7.4c-1.1,2.6-3.8,8.4-3.2,10.2
		c0,0-2.1-0.9-5.2-2.2c-3.6-1.7-4.4-2.2-4.4-2.2c2.5-1.2,4.1-5.4,6-9.5l6.3-13.9c2.1-4.7,4-8.9,3.8-11.6c0,0,1.1,0.7,4.2,2.1
		c2.5,1.1,3.8,1.6,5.1,2.2c-2,0.7-4.7,7.8-6.1,10.9l-1.8,3.9l11.7,4.8l1.7-4.5c0.9-2.2,3.8-9,3.1-11.4
		C213.9,542.4,216.3,543.2,218.9,544.2"/>
	<path style="fill:none;stroke:#FFFFFF;stroke-width:0.343;stroke-linecap:round;stroke-linejoin:round;" d="M218.9,544.2
		c2,0.8,4.6,1.6,4.6,1.6c-2.2,1.6-4.2,7.8-5.4,11.2l-5.1,13.8c-1.3,3.8-3.6,9.3-2.8,11.2c0,0-2.8-1-5-1.8c-1.9-0.6-2.9-1-5-1.9
		c2.5-0.6,4.8-8.8,5.6-10.9l2.3-6.4l-12-5l-3.5,7.4c-1.1,2.6-3.8,8.4-3.2,10.2c0,0-2.1-0.9-5.2-2.2c-3.6-1.7-4.4-2.2-4.4-2.2
		c2.5-1.2,4.1-5.4,6-9.5l6.3-13.9c2.1-4.7,4-8.9,3.8-11.6c0,0,1.1,0.7,4.2,2.1c2.5,1.1,3.8,1.6,5.1,2.2c-2,0.7-4.7,7.8-6.1,10.9
		l-1.8,3.9l11.7,4.8l1.7-4.5c0.9-2.2,3.8-9,3.1-11.4C213.9,542.4,216.3,543.2,218.9,544.2"/>
	<path style="fill:#FFFFFF;" d="M241.7,554c-6.6-1.7-10.1,5.8-12.2,13.9c-2.2,8.1-3,16.5,3.7,18.3c6.6,1.7,10.1-5.9,12.2-14.1
		C247.7,564.1,248.3,555.7,241.7,554 M232.5,589.1c-10.5-2.7-13.8-12.8-11-23.3c2.8-10.6,10.6-17.6,21-14.9
		c10.4,2.7,13.8,12.8,11,23.3C250.7,584.8,242.9,592,232.5,589.1"/>
	<path style="fill:none;stroke:#FFFFFF;stroke-width:0.343;stroke-linecap:round;stroke-linejoin:round;" d="M241.7,554
		c-6.6-1.7-10.1,5.8-12.2,13.9c-2.2,8.1-3,16.5,3.7,18.3c6.6,1.7,10.1-5.9,12.2-14.1C247.7,564.1,248.3,555.7,241.7,554z
		 M232.5,589.1c-10.5-2.7-13.8-12.8-11-23.3c2.8-10.6,10.6-17.6,21-14.9c10.4,2.7,13.8,12.8,11,23.3
		C250.7,584.8,242.9,592,232.5,589.1"/>
	<path style="fill:#FFFFFF;" d="M260.6,593c0,0,0.7-0.8,1.1-2.2c0.6-2.1,1.1-6,1.6-9.1l2.9-22.6c-6.2-0.7-7.8-0.2-10.5,1.3l2.5-5.8
		c1.9,0.4,6.2,0.9,11.4,1.6c3.5,0.4,13.9,1.4,13.9,1.4l0.4,5.8c-2.4-2.7-4.7-3-9.9-3.3l-3,22.6c-0.3,2.1-1.4,9.5-0.3,11.6
		c-1.2-0.1-3.3-0.4-5.1-0.5C264,593.4,261.7,593.1,260.6,593"/>
	<path style="fill:none;stroke:#FFFFFF;stroke-width:0.343;stroke-linecap:round;stroke-linejoin:round;" d="M260.6,593
		c0,0,0.7-0.8,1.1-2.2c0.6-2.1,1.1-6,1.6-9.1l2.9-22.6c-6.2-0.7-7.8-0.2-10.5,1.3l2.5-5.8c1.9,0.4,6.2,0.9,11.4,1.6
		c3.5,0.4,13.9,1.4,13.9,1.4l0.4,5.8c-2.4-2.7-4.7-3-9.9-3.3l-3,22.6c-0.3,2.1-1.4,9.5-0.3,11.6c-1.2-0.1-3.3-0.4-5.1-0.5
		C264,593.4,261.7,593.1,260.6,593"/>
	<path style="fill:#FFFFFF;" d="M310.2,585.1c0.1,6.8-5.4,11.7-13.9,11.6c-6.6-0.1-10.1-2.8-11.4-3.9l1.4-6.4c2,4.1,5.4,7,9.2,7.1
		c4,0,7.2-2.4,7.2-6.3c0-2.8-1.6-4.6-8.2-8.2c-6.5-3.2-8.8-6.5-8.8-11.5c0-6.6,5.8-10.1,12.7-10.1c5,0,8.5,1.6,10.7,2.7l-1.4,5.9
		c-3.1-4.1-5.8-5.5-9.2-5.5c-3.2-0.1-5.6,1.7-5.6,5.1c0,3.7,4.1,5.7,9.5,8.8C308.8,577.8,310.2,581.4,310.2,585.1"/>
	<path style="fill:none;stroke:#FFFFFF;stroke-width:0.343;stroke-linecap:round;stroke-linejoin:round;" d="M310.2,585.1
		c0.1,6.8-5.4,11.7-13.9,11.6c-6.6-0.1-10.1-2.8-11.4-3.9l1.4-6.4c2,4.1,5.4,7,9.2,7.1c4,0,7.2-2.4,7.2-6.3c0-2.8-1.6-4.6-8.2-8.2
		c-6.5-3.2-8.8-6.5-8.8-11.5c0-6.6,5.8-10.1,12.7-10.1c5,0,8.5,1.6,10.7,2.7l-1.4,5.9c-3.1-4.1-5.8-5.5-9.2-5.5
		c-3.2-0.1-5.6,1.7-5.6,5.1c0,3.7,4.1,5.7,9.5,8.8C308.8,577.8,310.2,581.4,310.2,585.1"/>
	<path style="fill:#FFFFFF;" d="M341.2,564.2c0.3,0.9,0.4,1.8,0.5,2.6c0,0.6,0.1,1.6,0,2.5c-0.2,2.2-1.2,4.8-2.9,6.6
		c-2.6,2.8-6.1,4.2-10.7,4.3c-1.7,0.1-2.2-0.4-2.3-1.6l-0.1-0.4c0,0,0-0.5,0.4-0.5h0.4c1.4-0.1,3.4-0.6,5-2.6c1.6-2,2.1-4.7,1.8-7.5
		c-0.3-2.9-1.2-5-3.2-6.6c-1.7-1.4-3.8-1.7-5.8-1.6c0,0-0.9,0.1-1.8,0.2c0,0-0.5,0-0.4,0.6l2.3,23.3c0.2,2.1,0.7,9.4,2.4,10.8
		c0,0-1.9,0.3-5.6,0.5c-2.8,0.2-4.9,0.2-4.9,0.2c0.7-1.7,0.6-4.4,0.5-7.5l-1.8-18.4c-0.2-2.2-0.5-9.4-2.3-11.2c0,0,4.6-0.6,13.2-1.5
		c4.5-0.4,8.1,0.1,11.3,2.3C339.2,560.1,340.6,562.1,341.2,564.2"/>
	<path style="fill:none;stroke:#FFFFFF;stroke-width:0.343;stroke-linecap:round;stroke-linejoin:round;" d="M341.2,564.2
		c0.3,0.9,0.4,1.8,0.5,2.6c0,0.6,0.1,1.6,0,2.5c-0.2,2.2-1.2,4.8-2.9,6.6c-2.6,2.8-6.1,4.2-10.7,4.3c-1.7,0.1-2.2-0.4-2.3-1.6
		l-0.1-0.4c0,0,0-0.5,0.4-0.5h0.4c1.4-0.1,3.4-0.6,5-2.6c1.6-2,2.1-4.7,1.8-7.5c-0.3-2.9-1.2-5-3.2-6.6c-1.7-1.4-3.8-1.7-5.8-1.6
		c0,0-0.9,0.1-1.8,0.2c0,0-0.5,0-0.4,0.6l2.3,23.3c0.2,2.1,0.7,9.4,2.4,10.8c0,0-1.9,0.3-5.6,0.5c-2.8,0.2-4.9,0.2-4.9,0.2
		c0.7-1.7,0.6-4.4,0.5-7.5l-1.8-18.4c-0.2-2.2-0.5-9.4-2.3-11.2c0,0,4.6-0.6,13.2-1.5c4.5-0.4,8.1,0.1,11.3,2.3
		C339.2,560.1,340.6,562.1,341.2,564.2"/>
	<path style="fill:#FFFFFF;" d="M376.2,571.7c1.8,8.2-1.9,15.1-10.4,17.2c-5.9,1.5-14.5-0.6-16.8-11.1l-3-12.2
		c-0.7-3.5-2-9.5-4-11.1c0,0,2.3-0.4,5.8-1c3.5-0.6,5.1-1.1,5.1-1.1c-1,1.5,0,7.2,1,11.4l3.7,15.7c0.7,2.8,1.5,4.8,3.2,5.9
		c1.1,0.9,2.8,1.1,4.5,0.9c1.5-0.4,3-1.2,3.8-2.7c0.9-1.6,0.9-4,0.3-6.8l-4.2-15.6c-1.1-4.3-2.4-9.7-3.8-10.6c0,0,1.7-0.5,4.9-1.3
		c2.4-0.7,3.8-1.1,4.9-1.5c-1,2.4,1.4,9.5,1.8,11.6L376.2,571.7"/>
	<path style="fill:none;stroke:#FFFFFF;stroke-width:0.343;stroke-linecap:round;stroke-linejoin:round;" d="M376.2,571.7
		c1.8,8.2-1.9,15.1-10.4,17.2c-5.9,1.5-14.5-0.6-16.8-11.1l-3-12.2c-0.7-3.5-2-9.5-4-11.1c0,0,2.3-0.4,5.8-1
		c3.5-0.6,5.1-1.1,5.1-1.1c-1,1.5,0,7.2,1,11.4l3.7,15.7c0.7,2.8,1.5,4.8,3.2,5.9c1.1,0.9,2.8,1.1,4.5,0.9c1.5-0.4,3-1.2,3.8-2.7
		c0.9-1.6,0.9-4,0.3-6.8l-4.2-15.6c-1.1-4.3-2.4-9.7-3.8-10.6c0,0,1.7-0.5,4.9-1.3c2.4-0.7,3.8-1.1,4.9-1.5c-1,2.4,1.4,9.5,1.8,11.6
		L376.2,571.7"/>
	<path style="fill:#FFFFFF;" d="M414.2,568.7c0.8,0.2,1.7,0.5,2.4,0.1c-0.1,0.5-0.6,1.6-1.4,2.4c-3.4,3.6-6.6,2.9-7.7,2.5
		c-5.9-2.2-15.7-11-16.1-11.9c0,0-0.1-0.2,0.2-0.4l0.3-0.1c1.5-0.8,3.2-2.5,3.9-4.1c1.1-2.5,1-4.6-0.2-7.3c-1.1-2.7-3.2-4.4-4.8-4.9
		c-2.4-0.8-4.1-0.1-5.1,0.2c0,0-1.4,0.6-1.8,1c0,0-0.3,0.2,0.1,1.2l7.4,21.3c1.1,3.1,3.1,9.2,4.9,10.2c0,0-2,0.8-5.1,1.9
		c-3.1,1.1-4.9,1.7-4.9,1.7c0.6-2.5-1.8-8.9-2.4-10.8l-4.8-14.3c-1.2-3.5-3.4-9.6-5.1-10.6c0,0,3.5-1,11.4-4.3
		c4.2-1.7,8.3-2.5,11.9-1.5c2.3,0.7,3.7,1.9,5,3.6c0.4,0.7,0.8,1.4,1.1,2.1c0.3,0.6,0.5,1.3,0.5,2.1c0.5,2.2,0.1,4.5-1.1,6.7
		c0,0-1.1,2.2-3.6,3.8C399.3,559.3,407,565.9,414.2,568.7"/>
	<path style="fill:none;stroke:#FFFFFF;stroke-width:0.343;stroke-linecap:round;stroke-linejoin:round;" d="M414.2,568.7
		c0.8,0.2,1.7,0.5,2.4,0.1c-0.1,0.5-0.6,1.6-1.4,2.4c-3.4,3.6-6.6,2.9-7.7,2.5c-5.9-2.2-15.7-11-16.1-11.9c0,0-0.1-0.2,0.2-0.4
		l0.3-0.1c1.5-0.8,3.2-2.5,3.9-4.1c1.1-2.5,1-4.6-0.2-7.3c-1.1-2.7-3.2-4.4-4.8-4.9c-2.4-0.8-4.1-0.1-5.1,0.2c0,0-1.4,0.6-1.8,1
		c0,0-0.3,0.2,0.1,1.2l7.4,21.3c1.1,3.1,3.1,9.2,4.9,10.2c0,0-2,0.8-5.1,1.9c-3.1,1.1-4.9,1.7-4.9,1.7c0.6-2.5-1.8-8.9-2.4-10.8
		l-4.8-14.3c-1.2-3.5-3.4-9.6-5.1-10.6c0,0,3.5-1,11.4-4.3c4.2-1.7,8.3-2.5,11.9-1.5c2.3,0.7,3.7,1.9,5,3.6c0.4,0.7,0.8,1.4,1.1,2.1
		c0.3,0.6,0.5,1.3,0.5,2.1c0.5,2.2,0.1,4.5-1.1,6.7c0,0-1.1,2.2-3.6,3.8C399.3,559.3,407,565.9,414.2,568.7"/>
	<path style="fill:#001C58;" d="M183.2,468.1c5.8,3.8,11.9,7.1,11.9,7.1l-2.2,5.6c-0.8-3.3-4.1-5.2-8.4-7.8l-13.9,20.2
		c-1.7,2.5-5.1,7.8-5.3,9.9c0,0-2.4-1.5-4.5-3c-2.2-1.7-4.3-3.2-4.3-3.2c2.1-0.5,5.7-5.8,7.9-8.8l13.6-19.5
		c-5.1-3.9-7.2-4.7-10.7-4.8l4.9-3.7C172.2,460.2,176.8,463.9,183.2,468.1"/>
	<path style="fill:#001C58;" d="M405,536.7l0.4,0.5c-0.3,0-0.7,0.1-1.1,0.4l1.2,2.4c0.2,0.5,0.6,1.1,0.8,1.3c0,0-0.3,0.1-0.5,0.2
		c-0.2,0.1-0.5,0.2-0.5,0.2c0-0.2-0.1-0.5-0.5-1.2l-1.3-2.4c-0.5,0.2-0.9,0.5-1.1,0.8l-0.1-0.7c0,0,0.6-0.3,1.3-0.6
		C404.5,537,405,536.7,405,536.7"/>
	<path style="fill:#001C58;" d="M208.3,484.8c-6.2-3-11.1,4.1-14.8,11.7c-3.6,7.8-6.1,16,0.2,19c6.2,3,11.1-4.1,14.8-11.9
		C212.1,496,214.5,487.7,208.3,484.8 M192.3,518.3c-9.7-4.6-11-15.3-6.2-25.4c4.8-10,13.9-15.7,23.6-11.1c9.7,4.7,11,15.3,6.2,25.4
		C211.1,517.2,202,523,192.3,518.3"/>
	<path style="fill:#001C58;" d="M235.8,492.2c6.6,1.8,12,3.1,12,3.1l-0.6,5.9c-1.7-2.5-2.5-3.2-8.2-4.6l-6.8,22.8
		c-0.5,2.1-3.2,10.1-2.4,11.6c0,0-1.9-0.5-5-1.2c-3.4-1-5.1-1.6-5.1-1.6c1.8-1.2,4-8,4.7-10.8l6.9-23c-5.8-1.8-7.2-2.1-9.9-0.7
		l3.3-5C224.7,488.6,228.5,490.2,235.8,492.2"/>
	<path style="fill:#001C58;" d="M262.9,498.3c6.5,1,12.6,1.5,12.6,1.5l0.3,5.9c-2.5-2.2-3.3-2.8-9.8-3.7l-3.6,23.5
		c-0.3,2.1-1.7,10.3-0.6,11.6c0,0-2.2-0.2-5.3-0.6c-3.1-0.5-5-0.9-5-0.9c1.5-1.2,2.8-9,3-11.1l3.8-23.8c-5.5-1.1-6.7-0.6-9.3,0.9
		l2.4-5.6C251.3,496.1,256.5,497.3,262.9,498.3"/>
	<path style="fill:#001C58;" d="M286.9,520.7l-0.4,15.8c8.3,0.1,14-0.5,16.5-4.1l-1.3,7.2c0,0-4.6,0.1-11.3,0
		c-7.4-0.1-13.2-0.5-13.2-0.5c1.2-1.2,1.5-9,1.5-11.1l0.7-15.5c0-4.1,0.4-10.7-1-12.2c6,0.5,5.2,0.5,10.7,0.6
		c7.2,0.4,11.3,0.1,11.3,0.1l0.9,5.9c-2.8-2.3-7.1-2.6-14-2.7l-0.3,13.3h10.5c1,0,1,0.6,1,1.6c0,1.1,0,1.6-1,1.6H286.9"/>
	<path style="fill:#001C58;" d="M333.2,525.3c0.6,5.8,1.1,9.9,2.4,10.6c-0.3,0.6-1.3,1.5-2.7,1.6c-1.7,0.1-2.9-0.6-4.1-1.9
		L310.1,514l0.7,13.7c0.3,2.2,0.5,10.4,1.8,11.5l-6.3,0.3c1.1-1.4,0.9-9.2,0.6-11.2l-0.9-15.6c-0.3-2.1-0.6-10.7-2-11.7l5.8-0.2
		l19.2,22.8l-1.6-13.1c-0.3-2.2-1.4-10-2.7-11.1c0,0,0.7-0.1,3.1-0.4c2.4-0.4,3.1-0.5,3.1-0.5c-1.1,1.3,0.2,9.4,0.5,11.5
		L333.2,525.3"/>
	<path style="fill:#001C58;" d="M368.5,517.2c0.6,2.7,2,9.6,3.9,10.9c0,0-3,0.9-4.8,1.5c-1.6,0.5-5.1,1.4-5.1,1.4
		c0.9-1.5-1.1-9.6-1.6-11.7l-1.8-7.2l-11.9,3l1.4,7.3c0.4,2.4,1.6,10.2,3.2,11.2c0,0-1.6,0.4-5.1,1c-3,0.6-5,1-5,1
		c0.9-1.5-0.3-8.9-0.7-11.2l-2.9-15.4c-0.5-2.8-1.8-10.1-3.4-11c0,0,1.5-0.2,5-1c3.4-0.6,5.1-1.1,5.1-1.1c-0.9,1.7,0.6,8.7,1,11.2
		l0.9,4.8l11.8-2.8l-1.3-4.9c-0.7-2.7-2.1-9-3.7-10.2c0,0,1.6-0.5,4.9-1.3c3.2-1,4.6-1.5,4.6-1.5c-0.6,1.7,1.2,8,1.9,11.1
		L368.5,517.2"/>
	<path style="fill:#001C58;" d="M388.1,505.6l-10.3-14.3l0.7,18L388.1,505.6 M390.3,508.1l-11.7,4.6l0.5,6.4
		c0.3,2.2,0.3,4.2,0.7,5.3c0.3,0.5,0.7,1,1.1,1.1c0,0-1.2,0.5-3.2,1.1c-2,0.6-3.1,1-3.1,1c0.7-1.2,0.9-2.9,0.8-4.9l-1.1-30.4
		c-0.1-1.1-0.2-2.1-0.6-2.9c-0.3-0.7-0.9-1.3-1.2-1.5c1.3-0.9,3-1.8,4.7-2.6c2.6-1.1,3.8-1.1,5.8,1.2l17,21.2
		c3.1,3.9,5.8,6.7,7.7,7.3c0,0-1.7,0.7-5,2.2c-3.2,1.5-5.4,2.3-5.4,2.3c0.2-0.7,0.2-1.5-0.2-2.6c-0.5-1.1-2.1-3.1-3.2-4.7
		L390.3,508.1"/>
	<path style="fill:#001C58;" d="M439,497.1c-2.4,1.6-4.1,2.8-4.1,2.8c-0.2-2.4-4.6-8-5.9-9.8L419,477.1l8,25.8
		c-0.3,0.5-0.9,1.3-1.4,1.6c-1.6,1.2-3.1,1-4.6-0.1L402,488.6l6.7,12.2c1.6,3.2,4.7,9.6,6.9,10.2c0,0-1.3,0.7-3,1.6
		c-1.7,0.7-2.7,1.2-2.7,1.2c0.4-1.8-2.7-7.2-4.5-10.6l-7.5-14.1c-2.2-4.2-4.7-8.5-6.8-9.3c1.7-0.8,2.1-1.1,4.4-2.2c2-1,3.8-2,3.8-2
		l21.5,18.3l-8.4-25.9c0,0,1.2-0.8,3.3-2.2c2.2-1.4,4.1-2.8,4.1-2.8c0.2,2.4,4.6,8.3,6.3,10.4l9.2,12c2,2.4,5.7,7.9,8.3,8.5
		C443.5,493.9,441.4,495.5,439,497.1"/>
	<path style="fill:#001C58;" d="M409.8,535.6l1.1,1.4c0.3,0.4,0.6,0.7,0.9,1c0,0-0.3,0.1-0.5,0.4c-0.3,0.1-0.4,0.3-0.4,0.3
		c-0.1-0.4-0.5-0.9-0.7-1.1l-1.1-1.5l0.9,3c-0.1,0-0.2,0.1-0.2,0.1c-0.3,0.2-0.4,0.1-0.6,0l-2.2-1.7l0.9,1.4c0.2,0.4,0.5,1,0.9,1.1
		c0,0-0.2,0.1-0.4,0.2c-0.2,0.1-0.3,0.3-0.3,0.3c0-0.4-0.4-1.1-0.6-1.4l-0.9-1.6c-0.3-0.4-0.6-0.9-0.9-1c0,0,0.3-0.1,0.5-0.3
		c0.2-0.1,0.4-0.2,0.5-0.4l2.4,2.1l-1-3c0.1,0,0.3-0.1,0.4-0.2c0.3-0.1,0.5-0.3,0.5-0.3C409.2,534.7,409.6,535.2,409.8,535.6"/>
	<path style="fill:#001C58;" d="M218.9,544.2c2,0.8,4.6,1.6,4.6,1.6c-2.2,1.6-4.2,7.8-5.4,11.2l-5.1,13.8c-1.3,3.8-3.6,9.3-2.8,11.2
		c0,0-2.8-1-5-1.8c-1.9-0.6-2.9-1-5-1.9c2.5-0.6,4.8-8.8,5.6-10.9l2.3-6.4l-12-5l-3.5,7.4c-1.1,2.6-3.8,8.4-3.2,10.2
		c0,0-2.1-0.9-5.2-2.2c-3.6-1.7-4.4-2.2-4.4-2.2c2.5-1.2,4.1-5.4,6-9.5l6.3-13.9c2.1-4.7,4-8.9,3.8-11.6c0,0,1.1,0.7,4.2,2.1
		c2.5,1.1,3.8,1.6,5.1,2.2c-2,0.7-4.7,7.8-6.1,10.9l-1.8,3.9l11.7,4.8l1.7-4.5c0.9-2.2,3.8-9,3.1-11.4
		C213.9,542.4,216.3,543.2,218.9,544.2"/>
	<path style="fill:#001C58;" d="M241.7,554c-6.6-1.7-10.1,5.8-12.2,13.9c-2.2,8.1-3,16.5,3.7,18.3c6.6,1.7,10.1-5.9,12.2-14.1
		C247.7,564.1,248.3,555.7,241.7,554 M232.5,589.1c-10.5-2.7-13.8-12.8-11-23.3c2.8-10.6,10.6-17.6,21-14.9
		c10.4,2.7,13.8,12.8,11,23.3C250.7,584.8,242.9,592,232.5,589.1"/>
	<path style="fill:#001C58;" d="M260.6,593c0,0,0.7-0.8,1.1-2.2c0.6-2.1,1.1-6,1.6-9.1l2.9-22.6c-6.2-0.7-7.8-0.2-10.5,1.3l2.5-5.8
		c1.9,0.4,6.2,0.9,11.4,1.6c3.5,0.4,13.9,1.4,13.9,1.4l0.4,5.8c-2.4-2.7-4.7-3-9.9-3.3l-3,22.6c-0.3,2.1-1.4,9.5-0.3,11.6
		c-1.2-0.1-3.3-0.4-5.1-0.5C264,593.4,261.7,593.1,260.6,593"/>
	<path style="fill:#001C58;" d="M310.2,585.1c0.1,6.8-5.4,11.7-13.9,11.6c-6.6-0.1-10.1-2.8-11.4-3.9l1.4-6.4c2,4.1,5.4,7,9.2,7.1
		c4,0,7.2-2.4,7.2-6.3c0-2.8-1.6-4.6-8.2-8.2c-6.5-3.2-8.8-6.5-8.8-11.5c0-6.6,5.8-10.1,12.7-10.1c5,0,8.5,1.6,10.7,2.7l-1.4,5.9
		c-3.1-4.1-5.8-5.5-9.2-5.5c-3.2-0.1-5.6,1.7-5.6,5.1c0,3.7,4.1,5.7,9.5,8.8C308.8,577.8,310.2,581.4,310.2,585.1"/>
	<path style="fill:#001C58;" d="M341.2,564.2c0.3,0.9,0.4,1.8,0.5,2.6c0,0.6,0.1,1.6,0,2.5c-0.2,2.2-1.2,4.8-2.9,6.6
		c-2.6,2.8-6.1,4.2-10.7,4.3c-1.7,0.1-2.2-0.4-2.3-1.6l-0.1-0.4c0,0,0-0.5,0.4-0.5h0.4c1.4-0.1,3.4-0.6,5-2.6c1.6-2,2.1-4.7,1.8-7.5
		c-0.3-2.9-1.2-5-3.2-6.6c-1.7-1.4-3.8-1.7-5.8-1.6c0,0-0.9,0.1-1.8,0.2c0,0-0.5,0-0.4,0.6l2.3,23.3c0.2,2.1,0.7,9.4,2.4,10.8
		c0,0-1.9,0.3-5.6,0.5c-2.8,0.2-4.9,0.2-4.9,0.2c0.7-1.7,0.6-4.4,0.5-7.5l-1.8-18.4c-0.2-2.2-0.5-9.4-2.3-11.2c0,0,4.6-0.6,13.2-1.5
		c4.5-0.4,8.1,0.1,11.3,2.3C339.2,560.1,340.6,562.1,341.2,564.2"/>
	<path style="fill:#001C58;" d="M376.2,571.7c1.8,8.2-1.9,15.1-10.4,17.2c-5.9,1.5-14.5-0.6-16.8-11.1l-3-12.2
		c-0.7-3.5-2-9.5-4-11.1c0,0,2.3-0.4,5.8-1c3.5-0.6,5.1-1.1,5.1-1.1c-1,1.5,0,7.2,1,11.4l3.7,15.7c0.7,2.8,1.5,4.8,3.2,5.9
		c1.1,0.9,2.8,1.1,4.5,0.9c1.5-0.4,3-1.2,3.8-2.7c0.9-1.6,0.9-4,0.3-6.8l-4.2-15.6c-1.1-4.3-2.4-9.7-3.8-10.6c0,0,1.7-0.5,4.9-1.3
		c2.4-0.7,3.8-1.1,4.9-1.5c-1,2.4,1.4,9.5,1.8,11.6L376.2,571.7"/>
	<path style="fill:#001C58;" d="M414.2,568.7c0.8,0.2,1.7,0.5,2.4,0.1c-0.1,0.5-0.6,1.6-1.4,2.4c-3.4,3.6-6.6,2.9-7.7,2.5
		c-5.9-2.2-15.7-11-16.1-11.9c0,0-0.1-0.2,0.2-0.4l0.3-0.1c1.5-0.8,3.2-2.5,3.9-4.1c1.1-2.5,1-4.6-0.2-7.3c-1.1-2.7-3.2-4.4-4.8-4.9
		c-2.4-0.8-4.1-0.1-5.1,0.2c0,0-1.4,0.6-1.8,1c0,0-0.3,0.2,0.1,1.2l7.4,21.3c1.1,3.1,3.1,9.2,4.9,10.2c0,0-2,0.8-5.1,1.9
		c-3.1,1.1-4.9,1.7-4.9,1.7c0.6-2.5-1.8-8.9-2.4-10.8l-4.8-14.3c-1.2-3.5-3.4-9.6-5.1-10.6c0,0,3.5-1,11.4-4.3
		c4.2-1.7,8.3-2.5,11.9-1.5c2.3,0.7,3.7,1.9,5,3.6c0.4,0.7,0.8,1.4,1.1,2.1c0.3,0.6,0.5,1.3,0.5,2.1c0.5,2.2,0.1,4.5-1.1,6.7
		c0,0-1.1,2.2-3.6,3.8C399.3,559.3,407,565.9,414.2,568.7"/>
</g>
</svg>
