<?xml version="1.0" encoding="utf-8"?>
<!-- Generator: Adobe Illustrator 16.0.0, SVG Export Plug-In . SVG Version: 6.00 Build 0)  -->
<!DOCTYPE svg PUBLIC "-//W3C//DTD SVG 1.1//EN" "http://www.w3.org/Graphics/SVG/1.1/DTD/svg11.dtd">
<svg version="1.1" id="Layer_1" xmlns="http://www.w3.org/2000/svg" xmlns:xlink="http://www.w3.org/1999/xlink" x="0px" y="0px"
	 width="600px" height="600px" viewBox="0 0 600 600" style="enable-background:new 0 0 600 600;" xml:space="preserve">
<g>
	<g>
		<path style="fill:#FFFFFF;" d="M60,19.9l-9.7,1.9v292.3c0,2.3,0.1,56.6,30.6,119.1c17.9,36.7,42.7,68.5,73.6,94.5
			c38.4,32.4,86.5,55.8,142.7,69.6l1.1,0.3c0.1,0,2,0.5,2,0.5l2.6-0.4l1.4-0.3c56.3-13.8,104.3-37.2,142.7-69.6
			c30.9-26,55.7-57.8,73.6-94.5c30.4-62.3,30.6-116.8,30.6-119.1V21.8l-9.7-1.9c-1.1-0.2-109.2-20.5-240.7-20.5
			C169.3-0.5,61.1,19.7,60,19.9"/>
		<path style="fill:#002E6E;" d="M540.2,26.2C539.1,26,432.4,5.8,300.7,5.8C169,5.8,62.3,26,61.2,26.2L56.6,27v287.1
			c0,2.2,0.1,55.2,29.9,116.3c17.5,35.9,41.7,67,72,92.4c37.7,31.7,84.8,54.7,140.1,68.3l1.1,0.3l0.7,0.2l1.1-0.2l1.1-0.3
			c55.3-13.5,102.5-36.5,140.1-68.3c30.2-25.4,54.4-56.5,72-92.4c29.8-61.1,29.9-114.1,29.9-116.3V76.4V27L540.2,26.2"/>
		<path style="fill:#FFFFFF;" d="M435.5,514.1c-0.7,0.6-1.5,1.2-2.3,1.9V202.7h-55.3v349c-15.2,7.6-31.4,14.3-48.5,19.9V202.7H270
			v368.2c-17.7-5.9-34.3-12.9-49.9-20.9V202.7h-55.3v310.4c-18.6-15.9-34.9-34-48.5-54.2V202.7H68.1V36.5
			C89.9,32.7,186,17.2,300.7,17.2c114.7,0,210.8,15.5,232.6,19.3v166.2h-50.2v259.2C469.6,481.3,453.7,498.8,435.5,514.1"/>
		<path style="fill:#002E6E;" d="M116.9,93.8h13.4l37.6,85.9h-17.7l-8.1-19.7h-37.8l-7.9,19.7H78.9L116.9,93.8z M136.6,147
			L123.2,112L109.5,147H136.6z"/>
		<polygon style="fill:#002E6E;" points="174,93.8 189.5,93.8 189.5,165.9 226.6,165.9 226.6,179.7 174,179.7 		"/>
		<path style="fill:#002E6E;" d="M234.2,93.8h34c13.2,0,26.7,5.9,26.7,21.6c0,9.7-6.2,16.1-15.2,18.8v0.2c11,1.2,18.9,9.7,18.9,20.7
			c0,18.7-16.5,24.5-33,24.5h-31.4V93.8 M249.8,128.8h14.2c10.4,0,15.5-4.4,15.5-10.8c0-7.4-5.2-11-16.9-11h-12.8V128.8z
			 M249.8,166.6h14.3c8,0,19.1-1.3,19.1-12.6c0-9-5.9-12.1-18.5-12.1h-14.9V166.6z"/>
		<rect x="306.3" y="93.8" style="fill:#002E6E;" width="15.5" height="85.9"/>
		<path style="fill:#002E6E;" d="M376.2,91.6c27.2-0.5,46.5,17.5,46.5,45c0,26.8-19.2,44.8-46.5,45.3c-26.9,0-46.1-18-46.1-44.8
			C330.1,109.6,349.4,91.6,376.2,91.6 M376.4,168.1c18.1,0,30.1-13.6,30.1-31.9c0-17.1-12-30.7-30.1-30.7c-18,0-30,13.6-30,30.7
			C346.4,154.5,358.4,168.1,376.4,168.1"/>
		<polygon style="fill:#002E6E;" points="431.3,93.8 451.9,93.8 494.2,157.6 494.4,157.9 494.2,157.9 494.4,157.6 494.4,93.8 
			510,93.8 510,179.7 490.2,179.7 447.1,113.8 446.8,113.8 446.8,179.7 431.3,179.7 		"/>
		<polygon style="fill:#002E6E;" points="80.5,47.9 87.2,47.9 93.6,72.2 93.7,72.2 101.4,47.9 107.4,47.9 115,72.2 115.1,72.2 
			121.8,47.9 128,47.9 118,81.6 112.2,81.6 104.3,55.9 104.2,55.9 96.2,81.6 90.6,81.6 		"/>
		<polygon style="fill:#002E6E;" points="133,47.9 155.8,47.9 155.8,53.3 139.1,53.3 139.1,61.6 154.9,61.6 154.9,67.1 139.1,67.1 
			139.1,76.2 156.6,76.2 156.6,81.6 133,81.6 		"/>
		<path style="fill:#002E6E;" d="M180.6,55.1c-1.3-1.8-3.6-2.7-6-2.7c-2.8,0-5.6,1.2-5.6,4.3c0,6.8,16.3,2.9,16.3,14.9
			c0,7.3-5.8,10.8-12.5,10.8c-4.3,0-8.4-1.3-11.2-4.6l4.6-4.4c1.5,2.2,4.1,3.5,6.8,3.5c2.8,0,6-1.5,6-4.6c0-7.4-16.3-3.1-16.3-15.2
			c0-7,6.3-10.2,12.6-10.2c3.6,0,7.2,1,9.8,3.5L180.6,55.1"/>
		<polygon style="fill:#002E6E;" points="199.9,53.3 189.4,53.3 189.4,47.9 216.5,47.9 216.5,53.3 206,53.3 206,81.6 199.9,81.6 		
			"/>
		<path style="fill:#002E6E;" d="M237.4,47.9h13.4c5.2,0,10.5,2.3,10.5,8.5c0,3.8-2.4,6.3-6,7.4v0.1c4.3,0.5,7.4,3.8,7.4,8.2
			c0,7.3-6.5,9.6-13,9.6h-12.3V47.9 M243.5,61.6h5.6c4.1,0,6.1-1.7,6.1-4.2c0-2.9-2-4.3-6.6-4.3h-5V61.6z M243.5,76.5h5.6
			c3.2,0,7.5-0.5,7.5-5c0-3.5-2.3-4.8-7.3-4.8h-5.9V76.5z"/>
		<path style="fill:#002E6E;" d="M269.3,47.9h11.9c6.6,0,12.8,2.1,12.8,9.7c0,4.9-2.9,8.4-7.9,9.2l9.1,14.9h-7.4l-7.9-14.3h-4.5
			v14.3h-6.1V47.9 M280.1,62.2c3.4,0,7.5-0.3,7.5-4.7c0-4-3.8-4.5-6.9-4.5h-5.3v9.1H280.1z"/>
		<path style="fill:#002E6E;" d="M316,47c10.7-0.2,18.3,6.9,18.3,17.7c0,10.5-7.6,17.6-18.3,17.8c-10.6,0-18.1-7.1-18.1-17.6
			C297.9,54.1,305.5,47,316,47 M316.1,77.1c7.1,0,11.8-5.3,11.8-12.5c0-6.7-4.7-12.1-11.8-12.1c-7.1,0-11.8,5.3-11.8,12.1
			C304.3,71.7,309,77.1,316.1,77.1"/>
		<polygon style="fill:#002E6E;" points="340,47.9 349.3,47.9 358.5,71.5 367.7,47.9 376.9,47.9 376.9,81.6 371.1,81.6 371.1,53.6 
			371,53.6 360.6,81.6 356.3,81.6 345.9,53.6 345.8,53.6 345.8,81.6 340,81.6 		"/>
		<polygon style="fill:#002E6E;" points="382.1,47.9 388.8,47.9 395.2,72.2 395.3,72.2 403,47.9 409,47.9 416.6,72.2 416.7,72.2 
			423.4,47.9 429.6,47.9 419.6,81.6 413.8,81.6 405.9,55.9 405.8,55.9 397.9,81.6 392.2,81.6 		"/>
		<rect x="434.3" y="47.9" style="fill:#002E6E;" width="6.1" height="33.8"/>
		<path style="fill:#002E6E;" d="M471.4,55.8c-2.5-2.6-4.8-3.3-7.2-3.3c-7.1,0-11.8,5.3-11.8,12.1c0,7.2,4.7,12.5,11.8,12.5
			c2.8,0,5.4-1.2,7.7-4.1l5,3.5c-3.1,4.2-7.8,6-12.8,6c-10.6,0-18.1-7.1-18.1-17.6c0-10.8,7.5-17.9,18.1-17.9c4.7,0,8.6,1.5,12,5.3
			L471.4,55.8"/>
		<polygon style="fill:#002E6E;" points="482.3,47.9 488.4,47.9 488.4,61.3 504.4,61.3 504.4,47.9 510.5,47.9 510.5,81.6 
			504.4,81.6 504.4,66.8 488.4,66.8 488.4,81.6 482.3,81.6 		"/>
		<path style="fill:#FFFFFF;" d="M402.2,489.6l-0.2-1c-0.7-2.6-3.2-10.2-7.1-15c10.3-1.5,22.8-5.3,28.6-13.9l1.4-2.2l-1.5-2.1
			c-6.4-8.5-19.5-11.9-29.8-13.2c3.8-5.1,5.4-11.5,5.6-12.4l1.1-5.1c0,0-3,0.8-5.5,0.7c-0.5,0.1-2.1,0-3.2-0.1
			c-4.7-0.6-11,0-12.2,0.1c-4.1,0.4-7.8,1.5-10.9,2.7c1.2-3.9,1.8-7.9,1.8-10.6c0-0.5,0-0.9-0.1-1.3c-0.3-3.2-3.6-13.8-4.2-15.7
			l-1.2-2.2c3.7,0,9.4,0.3,16.7,2c1.7,0.5,24.9,7.6,50,19.5c0.9,0.5,27.1,14,46.2,3.2c0,0,2.4-2,3.3-4.3l-14.2-7.4
			c0,0,9.8,1.3,16-1.1c-2.4-10.4-10.4-14.1-10.4-14.1c6.4,0.8,10.4-1.5,10.4-1.5c-0.6-1.6-1.7-3.8-1.7-3.8
			c-0.4-0.5-6.2-11.1-24.6-19c0.3-0.6,0.5-1.1,0.6-1.8c0,0.2-0.1,0.5-0.1,0.5c0.2-0.5,0.4-1,0.4-1.7c0-3.1-3.9-11.6-31.9-24.7
			l-0.2-0.1l-0.2-0.1c-0.8-0.4-18.7-8.4-32.1-11.6c-7.8-6.4-66.4-52.7-140.1-67.9c-2.9-4.2-11.3-16-15.6-20.6
			c-1.5-2-15.6-19.8-37.3-19.5c-0.3,0-10.4,0-19.7,4.5c-2.4,0.1-4.5-1.1-4.5-1.1c-11.4-6.3-20.2-10.7-20.2-10.8l-0.5-0.2l-0.5-0.2
			c-4.5-1.1-6.5,1.7-7,2.5c-1.7,2.9-0.4,5.3,0.1,6.3l0,0c1.1,2.1,5,7.4,8.7,12.2c-7.8-0.6-12-0.3-14.4,0.3l0,0c-0.1,0-0.1,0-0.2,0.1
			c0,0-0.1,0-0.1,0c-2.6,0.6-3.8,2.3-4.2,3.3c-0.4,0.8-0.5,1.6-0.5,2.3c0,1.7,0.7,3,1,3.5l-0.1-0.2c0.4,0.7,1.5,2.8,8.2,5.8
			c7,3.2,18.1,9.9,19.1,10.5c5.3,3.7,10.3,19.2,12.2,28.1l0,0.2c4.6,17.9,9,31.7,10.1,35.5c4.5,15,14.2,43.5,41.3,63.1l-0.3,8.7
			c-0.1,2.6-0.4,9.9-0.8,12.2v0c-0.1,0.8-0.2,1.7-0.2,2.8c0,2.5,0.4,5.7,1,8.9c-2.7-1.3-5.9-2.5-9.5-3.1c-0.3,0-6.7-1.1-11.4-0.7
			c-1.1,0-2.4,0-2.8-0.1c-2.1-0.2-5.3-1.9-5.3-1.9l0.6,5.9c0.1,0.9,1.2,7.4,4.5,12.7c-9.6,0.8-22,3.5-28.5,11.6l-1.5,1.9l1.2,2.1
			c4.9,9.2,16.4,13.5,25.6,15.6c-4,4.6-6.1,10.5-6.4,11.4l-1.3,4.2c0,0,3.6,0.2,5.7,0.6c0.4,0,1.2,0.2,2.3,0.4
			c4.5,1.2,11,1.2,11.3,1.2c4.1,0,8.2-0.7,11.4-1.7c-0.1,0.9-0.2,1.8-0.2,2.7c0,2.3,0.3,4.5,0.6,6.3l0.3,2.8
			c-0.1,2.4-0.5,9.4-1,11.9l0.2,7.7l4.7-4.2c1.3-1,6.1-2.9,9.8-4c6.9-2.2,12-5.1,15.9-8.3c-0.7,3.4-1.2,6.9-1.2,10.9
			c0,2.2,0.1,4.6,0.4,7c0.4,2.7,0.7,5.9,0.7,8.1c0,1-0.1,1.8-0.2,2.3l-0.8,7.6l6.3-3.6c2.3-1.5,8.7-5.7,10.7-6.8
			c2.4-1.2,6.2-4,9.5-7.5c0.5,3,1.3,6.2,2.9,9.4c0.1,0.2,2.8,6,5.9,9.6c0.6,0.9,1.4,1.9,1.5,2.3c1.2,2.2,2.2,5,2.2,5l3.7-3.4
			c0.7-0.6,5.6-5.3,8.2-11.1c6.2,7.3,15.6,15.8,26.2,16.4l2.3,0.1l1.1-2.1c1.9-3.5,2.6-7.5,2.6-11.4c0-6.4-2-12.9-4.2-18.2
			c6.2,0.6,12.4-0.9,13.3-1.2l6-1.7c0,0,1.6,0.3,1.3,0c2,0.9,1.9,0.9,4.2,1.7c3.3,1.1,8.6,3.2,10.1,4.4l5.9,3.6l0.1-6.7
			c-0.2-2.4-0.8-8.9-0.8-11.7c0-0.2,0-0.4,0-0.5c0-0.1,0-0.3,0-0.4c0-2.6-0.8-7-2.4-11.3c3.2,1.1,6.8,1.9,10.9,2.1
			c0.3,0,7.3,0.3,12.2-0.6c1.2-0.2,1.8-0.3,2.2-0.3C395.8,489.8,399.4,489.3,402.2,489.6 M273,440.5c-2.5-9.4-7.3-27-29.3-38.6
			l-0.1,0l-0.1,0c-3.3-1.5-7.5-3.9-8.5-5.1l-4.6-5.4c13,9.1,30,16.1,52.1,18.7c2.8,0.5,11.9,2.1,19.6,3.2
			c-5.6,5.4-14.3,14.4-21.5,25l-1.6,2.4c-2,0.3-3.8,0.9-5.4,1.9C273.4,441.9,273.2,441.3,273,440.5 M295.9,454.2
			c-0.3-2.9-1.4-5.6-3.1-7.8c1.4-1.3,7.7-7.1,14.4-12.9c-2.2,6.6-4.8,13.6-6.5,17.3l-1.4,3C298,454,296.9,454.1,295.9,454.2
			 M359.8,400.8c-2.2,3.5-5.7,5.3-5.7,5.4c-7.6,3.2-13.4,7.2-18,11.3c1.8-2.6,3.5-5,5.1-7c0,0,3-3.2,3.6-3.8c2.1-2.1,8.8-7.8,14.4-8
			l0.3,0l0.3-0.1c0,0,0.7-0.1,1.8-0.2L359.8,400.8z"/>
		<path style="fill:#FFFFFF;" d="M184.8,263.1c26.4,9.1,4.2-6.7,4.2-6.2C197.9,264.1,184.8,263.1,184.8,263.1"/>
		<path style="fill:none;stroke:#FFFFFF;stroke-width:1.04;" d="M184.8,263.1c26.4,9.1,4.2-6.7,4.2-6.2
			C197.9,264.1,184.8,263.1,184.8,263.1z"/>
		<path style="fill:#FFFFFF;" d="M195.9,255c0,0-0.4-5.6,5.8-6.2c6.2-0.6,9.9,3.6,11.1,5.6c1.1,2,2.5,5.9,3.1,8.3
			c0,0,0.9,2.5-1.4,1.4c-2.4-1.2-5.5-3.1-12.8-3.6C196.2,260.1,195.9,255,195.9,255"/>
		<path style="fill:none;stroke:#FFFFFF;stroke-width:1.04;" d="M195.9,255c0,0-0.4-5.6,5.8-6.2c6.2-0.6,9.9,3.6,11.1,5.6
			c1.1,2,2.5,5.9,3.1,8.3c0,0,0.9,2.5-1.4,1.4c-2.4-1.2-5.5-3.1-12.8-3.6C196.2,260.1,195.9,255,195.9,255z"/>
		<path style="fill:#FFFFFF;" d="M203.9,254.3c0.1,1.2-0.8,2.2-1.9,2.2c-1.1,0.1-2.1-0.9-2.1-2c-0.1-1.2,0.8-2.2,1.9-2.3
			C202.8,252.2,203.8,253.1,203.9,254.3"/>
		<path style="fill:none;stroke:#FFFFFF;stroke-width:1.04;" d="M203.9,254.3c0.1,1.2-0.8,2.2-1.9,2.2c-1.1,0.1-2.1-0.9-2.1-2
			c-0.1-1.2,0.8-2.2,1.9-2.3C202.8,252.2,203.8,253.1,203.9,254.3z"/>
		<path style="fill:#FFFFFF;" d="M355.2,349.3c28.8,4.3,19.4-8.7,19.2-8.9c15.2,3.7,16.5,10,16.7,10.1
			C372.5,358.1,355.2,349.3,355.2,349.3"/>
		<path style="fill:none;stroke:#FFFFFF;stroke-width:1.04;" d="M355.2,349.3c28.8,4.3,19.4-8.7,19.2-8.9
			c15.2,3.7,16.5,10,16.7,10.1C372.5,358.1,355.2,349.3,355.2,349.3z"/>
		<path style="fill:#FFFFFF;" d="M211.7,292.7c1.1,2.6,1.1,5,0.1,5.5c-1.1,0.4-2.8-1.3-3.9-3.9c-1.1-2.6-1.1-5-0.1-5.5
			C208.8,288.3,210.6,290.1,211.7,292.7"/>
		<path style="fill:none;stroke:#FFFFFF;stroke-width:1.04;" d="M211.7,292.7c1.1,2.6,1.1,5,0.1,5.5c-1.1,0.4-2.8-1.3-3.9-3.9
			c-1.1-2.6-1.1-5-0.1-5.5C208.8,288.3,210.6,290.1,211.7,292.7z"/>
		<path style="fill:#FFFFFF;" d="M221.4,309c1.9,2.7,2.6,5.4,1.5,6.1c-1.1,0.7-3.5-0.9-5.4-3.5c-1.9-2.7-2.6-5.4-1.5-6.1
			C217.1,304.8,219.5,306.4,221.4,309"/>
		<path style="fill:none;stroke:#FFFFFF;stroke-width:1.04;" d="M221.4,309c1.9,2.7,2.6,5.4,1.5,6.1c-1.1,0.7-3.5-0.9-5.4-3.5
			c-1.9-2.7-2.6-5.4-1.5-6.1C217.1,304.8,219.5,306.4,221.4,309z"/>
		<path style="fill:#FFFFFF;" d="M233.7,326.4c2.6,3.5,3.7,7.1,2.4,8c-1.3,0.9-4.5-1.2-7.1-4.7c-2.6-3.5-3.7-7.1-2.4-8.1
			C228,320.7,231.1,322.8,233.7,326.4"/>
		<path style="fill:none;stroke:#FFFFFF;stroke-width:1.04;" d="M233.7,326.4c2.6,3.5,3.7,7.1,2.4,8c-1.3,0.9-4.5-1.2-7.1-4.7
			c-2.6-3.5-3.7-7.1-2.4-8.1C228,320.7,231.1,322.8,233.7,326.4z"/>
		<path style="fill:#FFFFFF;" d="M248.7,344.7c2.6,3.5,3.7,7.1,2.4,8c-1.3,0.9-4.5-1.2-7.1-4.7c-2.6-3.5-3.7-7.1-2.4-8
			C242.9,339.1,246.1,341.2,248.7,344.7"/>
		<path style="fill:none;stroke:#FFFFFF;stroke-width:1.04;" d="M248.7,344.7c2.6,3.5,3.7,7.1,2.4,8c-1.3,0.9-4.5-1.2-7.1-4.7
			c-2.6-3.5-3.7-7.1-2.4-8C242.9,339.1,246.1,341.2,248.7,344.7z"/>
		<path style="fill:#FFFFFF;" d="M271.4,382c4.7,2.4,7.9,5.7,7,7.4c-0.9,1.7-5.5,1.1-10.2-1.3c-4.8-2.4-7.9-5.7-7-7.4
			C262,379,266.6,379.6,271.4,382"/>
		<path style="fill:none;stroke:#FFFFFF;stroke-width:1.04;" d="M271.4,382c4.7,2.4,7.9,5.7,7,7.4c-0.9,1.7-5.5,1.1-10.2-1.3
			c-4.8-2.4-7.9-5.7-7-7.4C262,379,266.6,379.6,271.4,382z"/>
		<path style="fill:#FFFFFF;" d="M268.6,360.4c4.2,3.3,6.6,7.1,5.4,8.6c-1.2,1.5-5.6,0-9.7-3.2c-4.2-3.3-6.6-7.1-5.4-8.6
			C260,355.7,264.4,357.2,268.6,360.4"/>
		<path style="fill:none;stroke:#FFFFFF;stroke-width:1.04;" d="M268.6,360.4c4.2,3.3,6.6,7.1,5.4,8.6c-1.2,1.5-5.6,0-9.7-3.2
			c-4.2-3.3-6.6-7.1-5.4-8.6C260,355.7,264.4,357.2,268.6,360.4z"/>
		<path style="fill:#FFFFFF;" d="M292.7,373.6c4.7,2.5,7.7,5.9,6.8,7.6c-0.9,1.6-5.5,0.9-10.2-1.6c-4.7-2.5-7.7-5.9-6.8-7.6
			C283.5,370.4,288,371.1,292.7,373.6"/>
		<path style="fill:none;stroke:#FFFFFF;stroke-width:1.04;" d="M292.7,373.6c4.7,2.5,7.7,5.9,6.8,7.6c-0.9,1.6-5.5,0.9-10.2-1.6
			c-4.7-2.5-7.7-5.9-6.8-7.6C283.5,370.4,288,371.1,292.7,373.6z"/>
	</g>
	<g>
		<defs>
			<path id="SVGID_1_" d="M170.8,245.6l-26.7-1.5l25.4,14.5l7.7,10.4l14.8,53.3c0,0,4.8,28.2,27.1,52l79.5,32.2c0.4,0,0.7,0,1.1,0
				c22.9,0.1,21.7-2.7,21.7-2.7l1.8-0.7c0,0,13.5-5.1,13.7-5.8c0.2-0.7,8.5-9.5,8.5-9.5l32.5-22.8l-69.4-6.5l-35-14l-16.1-17.5
				l-7.2-12.9l-3.8-13.5l-8.5-41.7l-17.1-17.1l-14.6-2.5l-20.8,2l-7.1-4.1l-23.2-11.4L170.8,245.6z"/>
		</defs>
		<clipPath id="SVGID_2_">
			<use xlink:href="#SVGID_1_"  style="overflow:visible;"/>
		</clipPath>
		<g style="clip-path:url(#SVGID_2_);">
			<defs>
				<polygon id="SVGID_3_" points="102.3,328.7 366.1,435.6 440.8,251.2 177,144.3 				"/>
			</defs>
			<clipPath id="SVGID_4_">
				<use xlink:href="#SVGID_3_"  style="overflow:visible;"/>
			</clipPath>
			<g transform="matrix(1 -2.980232e-008 -2.980232e-008 1 0 0)" style="clip-path:url(#SVGID_4_);">
				
					<image style="overflow:visible;" width="73" height="51" xlink:href="A6FE3C88.jpg"  transform="matrix(3.6139 1.4645 -1.4649 3.615 177.0127 144.2944)">
				</image>
			</g>
		</g>
	</g>
	<g>
		<defs>
			<path id="SVGID_5_" d="M298.5,406.5L219,374.3C235,391.3,259.9,406,298.5,406.5"/>
		</defs>
		<clipPath id="SVGID_6_">
			<use xlink:href="#SVGID_5_"  style="overflow:visible;"/>
		</clipPath>
		<g style="clip-path:url(#SVGID_6_);">
			<defs>
				
					<rect id="SVGID_7_" x="81.6" y="378.5" transform="matrix(-0.9268 -0.3756 0.3756 -0.9268 278.2976 869.4351)" width="284.7" height="58.1"/>
			</defs>
			<clipPath id="SVGID_8_">
				<use xlink:href="#SVGID_7_"  style="overflow:visible;"/>
			</clipPath>
			<g style="clip-path:url(#SVGID_8_);">
				
					<image style="overflow:visible;" width="73" height="15" xlink:href="A6FE3C89.jpg"  transform="matrix(3.6139 1.4645 -1.4549 3.5902 102.8882 327.2168)">
				</image>
			</g>
		</g>
	</g>
	<g>
		<path style="fill:#785531;" d="M184.8,263.1c26.4,9.1,4.2-6.7,4.2-6.2C197.9,264.1,184.8,263.1,184.8,263.1"/>
		<path style="fill:#3B170B;" d="M195.9,255c0,0-0.4-5.6,5.8-6.2c6.2-0.6,9.9,3.6,11.1,5.6c1.1,2,2.5,5.9,3.1,8.3
			c0,0,0.9,2.5-1.4,1.4c-2.4-1.2-5.5-3.1-12.8-3.6C196.2,260.1,195.9,255,195.9,255"/>
		<path style="fill:#FFFFFF;" d="M203.9,254.3c0.1,1.2-0.8,2.2-1.9,2.2c-1.1,0.1-2.1-0.9-2.1-2c-0.1-1.2,0.8-2.2,1.9-2.3
			C202.8,252.2,203.8,253.1,203.9,254.3"/>
		<path style="fill:#3B170B;" d="M206,308.9c1.4,3.2,1.4,6.3,0.1,6.8c-1.3,0.5-3.5-1.6-4.9-4.9c-1.4-3.2-1.4-6.3-0.1-6.8
			C202.4,303.5,204.6,305.7,206,308.9"/>
		<path style="fill:#3B170B;" d="M211.7,292.7c1.1,2.6,1.1,5,0.1,5.5c-1.1,0.4-2.8-1.3-3.9-3.9c-1.1-2.6-1.1-5-0.1-5.5
			C208.8,288.3,210.6,290.1,211.7,292.7"/>
		<path style="fill:#3B170B;" d="M221.4,309c1.9,2.7,2.6,5.4,1.5,6.1c-1.1,0.7-3.5-0.9-5.4-3.5c-1.9-2.7-2.6-5.4-1.5-6.1
			C217.1,304.8,219.5,306.4,221.4,309"/>
		<path style="fill:#3B170B;" d="M215.8,329.9c2.2,3.8,2.7,7.5,1.4,8.3c-1.4,0.8-4.3-1.7-6.4-5.5c-2.1-3.8-2.7-7.5-1.3-8.3
			C210.8,323.6,213.7,326.1,215.8,329.9"/>
		<path style="fill:#3B170B;" d="M233.7,326.4c2.6,3.5,3.7,7.1,2.4,8c-1.3,0.9-4.5-1.2-7.1-4.7c-2.6-3.5-3.7-7.1-2.4-8.1
			C228,320.7,231.1,322.8,233.7,326.4"/>
		<path style="fill:#3B170B;" d="M248.7,344.7c2.6,3.5,3.7,7.1,2.4,8c-1.3,0.9-4.5-1.2-7.1-4.7c-2.6-3.5-3.7-7.1-2.4-8
			C242.9,339.1,246.1,341.2,248.7,344.7"/>
		<path style="fill:#3B170B;" d="M211.8,353.9c2.5,4.1,3.5,7.9,2.4,8.6c-1.1,0.6-4-2.2-6.4-6.3c-2.4-4.1-3.5-8-2.4-8.6
			C206.5,347,209.3,349.8,211.8,353.9"/>
		<path style="fill:#3B170B;" d="M227.9,374c3.5,3.3,5.5,6.9,4.4,7.9c-1,1-4.7-0.9-8.1-4.2c-3.5-3.3-5.4-6.9-4.4-7.9
			C220.8,368.8,224.5,370.7,227.9,374"/>
		<path style="fill:#3B170B;" d="M248.7,389c4.3,2.2,7.3,5,6.6,6.2c-0.7,1.3-4.7,0.5-9-1.7c-4.3-2.2-7.3-5-6.6-6.2
			C240.4,386.1,244.4,386.8,248.7,389"/>
		<path style="fill:#3B170B;" d="M271.4,382c4.7,2.4,7.9,5.7,7,7.4c-0.9,1.7-5.5,1.1-10.2-1.3c-4.8-2.4-7.9-5.7-7-7.4
			C262,379,266.6,379.6,271.4,382"/>
		<path style="fill:#3B170B;" d="M229,349.9c3.5,4,5.1,8.2,3.6,9.4c-1.5,1.2-5.5-1-8.9-5c-3.4-4-5.1-8.2-3.6-9.4
			C221.6,343.7,225.5,346,229,349.9"/>
		<path style="fill:#3B170B;" d="M247.7,368.9c4.1,3.4,6.4,7.2,5.2,8.7c-1.2,1.5-5.6-0.1-9.7-3.4c-4.1-3.3-6.4-7.2-5.2-8.7
			C239.3,364,243.6,365.6,247.7,368.9"/>
		<path style="fill:#3B170B;" d="M268.6,360.4c4.2,3.3,6.6,7.1,5.4,8.6c-1.2,1.5-5.6,0-9.7-3.2c-4.2-3.3-6.6-7.1-5.4-8.6
			C260,355.7,264.4,357.2,268.6,360.4"/>
		<path style="fill:#3B170B;" d="M292.7,373.6c4.7,2.5,7.7,5.9,6.8,7.6c-0.9,1.6-5.5,0.9-10.2-1.6c-4.7-2.5-7.7-5.9-6.8-7.6
			C283.5,370.4,288,371.1,292.7,373.6"/>
		<path style="fill:#3B170B;" d="M296.9,389.7c4.6,0.9,8.1,2.9,7.7,4.4c-0.3,1.6-4.3,2.1-8.9,1.2c-4.6-0.9-8.1-2.9-7.7-4.4
			C288.4,389.3,292.4,388.8,296.9,389.7"/>
		<path style="fill:#3B170B;" d="M274.3,397.5c4.7,0.6,8.2,2.3,8,3.8c-0.2,1.5-4.1,2.1-8.8,1.5c-4.6-0.6-8.2-2.4-8-3.8
			C265.7,397.5,269.7,396.8,274.3,397.5"/>
		<path style="fill:#3B170B;" d="M317.9,385.4c4.1,0.8,7.2,2.4,7,3.7c-0.3,1.2-3.8,1.6-7.9,0.8c-4.1-0.8-7.2-2.4-7-3.7
			C310.2,385,313.8,384.6,317.9,385.4"/>
		<path style="fill:#3B170B;" d="M201.2,331.8c1.4,3.6,1.7,6.8,0.7,7.2c-1,0.4-2.9-2.3-4.3-5.9c-1.4-3.6-1.7-6.8-0.7-7.2
			C197.9,325.6,199.8,328.2,201.2,331.8"/>
		<path style="fill:#00A562;" d="M379.3,445c1.5-1.6,7.9-1.5,7.9-1.5c6.1-4.2,8.5-14.5,8.5-14.5c-0.8,0.3-4.4,0-4.4,0
			c-4.6-0.6-11.5,0.1-11.5,0.1c-13.6,1.3-21.5,9.9-21.5,9.9c1-3.7,4.3-6,4.3-6c3.1-5.3,4-13.1,4-16.4c0-4.3-3.7-13.8-3.7-13.8
			c-2.8,4.5-7.2,6.7-7.2,6.7c-21.6,9.1-27.8,23.3-32,34.7c-1.4,3.8-2.9,6.5-4.3,8.4c3.7,0.4,7.8,1.1,12,2.5
			c17.6-1.2,44.8-1.7,72.3,3.3c0,0-35.6-2.3-64.1,0.2c2.7,1.4,5.5,3.1,8.3,5.2l0.2,0.2l0.2,0.2c2.3,2,5.8,4,7.3,5.2l6.9,3.5
			l-6.4,3.7c-2.1,1.1-8,4.1-10.1,5.4c-2.1,1.4-6.5,3-11.1,4.1c2.3,1.8,4.6,4.2,6.5,7c0.1,0.2,3.4,4.9,5.1,8.9
			c3.6,2.2,7.7,4.2,12.5,6c0,0,8.5,2.8,11.2,5c0,0-0.9-9.5-0.8-12.7c0.1-3.3-1.6-11-5.1-16.1c0,0-3.5-2.1-4.7-5.8
			c0,0,8.4,8.1,22.1,8.7c0,0,7,0.4,11.5-0.5c0,0,3.5-0.5,4.4-0.2c0,0-3.1-10.2-9.4-14c0,0-5.8,0.2-7.5-1.3c0,0,30.5,0.7,39.8-13.4h0
			C410.2,444.1,379.3,445,379.3,445"/>
		<path style="fill:#00A562;" d="M338.3,495.2c-7.1-10.2-18.3-12.6-18.3-12.6c3.8-0.9,7.3,0.7,7.3,0.7c6.1,0,13.8-2.7,16.6-4.5
			c2.8-1.8,11.3-5.8,11.3-5.8c-3.3-0.9-9.6-6.2-9.6-6.2c-17.6-13-33.2-11.4-45.3-9.4c-1.7,0.3-3.2,0.5-4.5,0.5
			c-0.5,3.1-1.9,6-4.2,8.3c-0.8,0.8-1.8,1.5-2.8,2.1c9.4,24.6,35,58.8,35,58.8c-18.9-20-32.1-42.9-39.3-57.1c-0.7,0.2-1.4,0.3-2,0.4
			c1,2.1,1.7,4.3,1.7,6.6c0,8.3-6.7,15-15,15c-2.9,0-5.6-0.9-7.9-2.3c-2.9,6.8-4.6,15.1-3.4,25.7c0,0,1.3,8.6,0.4,11.7
			c0,0,8.4-5.6,11.1-7c3-1.5,9.2-6.5,12.4-11.6c0,0,0.4-3.8,3.2-6.5c0,0-3.7,10.5,1.7,21.7c0,0,2.7,5.7,5.5,8.9c0,0,2,2.6,2.1,3.4
			c0,0,7.9-7.2,8.6-14.1c0,0-3.2-4.8-2.5-6.8c0,0,14.2,24.4,31,25.3l0,0c7.8-14.5-7.5-37.8-7.5-37.8c2.1,0.5,4.7,5.1,4.7,5.1
			c6.4,2.9,16.8,0,16.8,0c-0.6-0.5-1.9-3.5-1.9-3.5C341.9,500.4,338.3,495.2,338.3,495.2"/>
		<path style="fill:#00A562;" d="M254.1,477c0-2.4,0.8-4.7,1.9-6.8c-7.7-0.6-13.8-7-13.8-14.9c0-0.6,0-1.2,0.1-1.7
			c-23.4-2.4-47.6-2.2-47.6-2.2c17.3-2.3,34.2-2.2,48.4-1.3c2.1-5.7,7.6-9.8,14.1-9.8c4.8,0,9.1,2.4,11.9,6.2
			c0.4-0.5,0.9-1.1,1.4-1.5c-0.4-1-0.7-2.2-1.1-3.4c-3.1-11.6-8.1-26.1-27.5-36.3c0,0-7.6-3.5-9.7-6c0,0-0.4,9.6-0.8,12.5
			c-0.5,3.3,0.2,11.1,2.7,16.6c0,0,2.9,2.5,3.6,6.2c0,0-6.8-9-19.2-11c0,0-6.3-1.1-10.6-0.7c0,0-3.3,0.1-4-0.3c0,0,1.6,10.4,7,14.9
			c0,0,5.8,0.2,7.2,1.9c0,0-28.5-2.5-38.8,10.4l0,0c7.8,14.5,36,15.5,36,15.5c-1.6,1.5-7,0.9-7,0.9c-6.1,3.5-9.6,13.5-9.6,13.5
			c0.8-0.2,4,0.5,4,0.5c4.1,1.1,10.6,1.2,10.6,1.2c12.6,0.1,20.9-7.5,20.9-7.5c-1.4,3.6-4.7,5.5-4.7,5.5c-3.5,4.9-0.3,13.9-0.4,17.4
			c0,1.3,0.1,2.9-2.1,10.8c2.6-2.1,11-4.7,11-4.7c11.1-3.6,17.1-8.9,20.9-14.7C256,485.3,254.1,481.4,254.1,477"/>
		<path style="fill:#A9383A;" d="M245,455.3c0,6.8,5.5,12.3,12.3,12.3l0.4,0l3.7-0.4l-2,2.6c-1.6,2.2-2.5,4.7-2.5,7.4
			c0,6.8,5.5,12.3,12.3,12.3c6.8,0,12.3-5.5,12.3-12.3c0-2.5-0.8-5-2.3-7.1l-1.7-2.5l3.3,0.4c6.9,0,12.4-5.5,12.4-12.3
			c0-6.8-5.5-12.3-12.3-12.3c-4.4,0-8.3,2.3-10.6,6.1l-1.2,2.1l-1.2-2.1c-2.2-3.9-6.3-6.4-10.7-6.4C250.5,443,245,448.5,245,455.3"
			/>
		<path style="fill:#FFFFFF;" d="M254.2,451.5c-1.5,2.1-3.6,3.1-4.6,2.4c-1-0.8-0.6-3.1,0.9-5.2c1.5-2.1,3.6-3.1,4.6-2.3
			C256.1,447.1,255.7,449.5,254.2,451.5"/>
		<path style="fill:#FFFFFF;" d="M277.6,452c-1.5,2.1-3.6,3.1-4.6,2.3c-1-0.8-0.6-3.1,0.9-5.2c1.5-2.1,3.6-3.1,4.6-2.3
			C279.5,447.6,279.1,449.9,277.6,452"/>
		<path style="fill:#FFFFFF;" d="M266.3,472.7c-1.5,2.1-3.6,3.1-4.6,2.3c-1-0.8-0.6-3.1,0.9-5.2c1.5-2.1,3.6-3.1,4.6-2.4
			C268.2,468.3,267.8,470.6,266.3,472.7"/>
		<path style="fill:#7A593A;" d="M479.7,409.3c0,0-2.1-10.5-19.9-17.2c0,0,9.5,3,20.1,1.3c0,0-8.3-10.7-27.5-18.2
			c0,0-26.4-10.3-29.4-11.5c0,0,20.2,5,26.5,6.2c0,0,3.2,0.9,3.1-0.7c0,0,0.3-6.1-29.4-20.9c0,0-19.1-8.6-32.4-11.5
			c0,0-62.5-52.5-140.7-68.1c0,0-11.5-16.6-16.4-21.7c0,0-13.3-18.1-33.7-17.9c0,0-9.9-0.1-18.6,4.5c-4.3,0.5-8-1.7-8-1.7
			c-11.3-6.3-19.9-10.6-19.9-10.6c-3.4-0.8-1.7,2.1-1.7,2.1c1.9,3.6,14.9,20,14.9,20c-20.1-2.5-23.8-0.9-23.8-0.9
			c-2.1,0.4-0.9,2.4-0.9,2.4c0.8,1.5,6.1,3.9,6.1,3.9c7.6,3.5,19.7,10.9,19.7,10.9c8.9,6,14.1,31,14.1,31
			c5.1,20,10.6,34.7,10.6,34.7c0.9,1.5-0.6-5.7-0.6-5.7c-0.5-1.7-2-7.2-2-7.2c-2.3-9.6-5-22.8-5-22.8c-4-23.1-12.1-30.6-12.1-30.6
			c-3.1-3.9-24.1-13.7-24.1-13.7c5.9-0.7,28.5,3.3,28.5,3.3l-17-19.7l11.4,6.6c3.2,1.9,6.4,3,6.4,3s1.2,1,2.3,5.1
			c0,0,0.5,3.8,6.2,3.8c0,0,5-0.4,9.7-1.9c0,0,10.5-2.6,20.7,1.7c0,0,9.5,2.8,12.2,7.8c0,0,1.5,2.4-1.3,2.8c0,0-6.2,0.9-9.5-0.8
			l0.3,0.7c0,0,15.8,4.8,13.9,22c0,0-0.7,7.4-0.9,9.9c0,0-3.1,16,8.7,25.6c0,0-2.4-6.8,1.6-14.3c0,0,0.8,33,34.6,49.9
			c0,0,42.1,23.2,88,16.9c0,0-24,7.1-50.3,2.3c0,0-11.4-2-13.7-2.5c0,0-13.8-2.5-19.6-2.6c0,0-0.4,0.4,0.8,0.7c0,0,18,6.7,37.7,11.4
			c0,0,14.1,3.8,17.2,4.8c0,0,5.5,1.2,3.9,4.8c0,0-9.8,18.9-58.2,18.9c0,0,10.5,2,20,3.4c0,0,6.3,0.9,8.7,2.8
			c0,0-15.2,12.9-26.4,29.4c0,0,4,1.2,5,2.4c0,0,17.4-16.2,27.1-23.5c0,0-7.8,24.4-11.7,32.9c0,0,6.2-0.5,6.8-0.5
			c0,0,19.3-39.2,29.9-48.5c0,0,8.7-9,17.4-9.4c0,0,8.9-1.7,23.7,1.7c0,0,24.3,7.2,50.8,19.8c0,0,24.8,13,42,3.4
			c0,0-25.6-13.1-30.3-15.7C445.2,403.5,460.4,410.3,479.7,409.3"/>
		<path style="fill:#FFFFFF;" d="M252.1,301.7c0,0,6.3,5.7,10.9,1.1c0.1-0.1,2.3,12,10.6,20.5C273.6,323.3,260.1,322.5,252.1,301.7"
			/>
		<path style="fill:#FFFFFF;" d="M328.2,334.4c4.9,3,10.4,11.2,10.8,11.2c-12.2,0.6-30-8.3-30-8.3c8.8,5.5,13.4,18,13.2,18
			c-28.4-0.7-50.9-20.2-50.9-20.2l0.8-0.2c18.9,10.8,31.1,10.6,31,10.2c-4.9-11.5-13.3-20.7-13.5-20.7c27.6,11,36.9,4.5,37.1,4.5
			c2.1-5.7-2-12.8-1.9-12.8c4.8,8.2,32.6,17.4,33.2,17.6C343,337.5,328.2,334.2,328.2,334.4"/>
		<path style="fill:#FFFFFF;" d="M355.2,349.3c28.8,4.3,19.4-8.7,19.2-8.9c15.2,3.7,16.5,10,16.7,10.1
			C372.5,358.1,355.2,349.3,355.2,349.3"/>
	</g>
</g>
</svg>
