<?xml version="1.0" encoding="utf-8"?>
<!-- Generator: Adobe Illustrator 16.0.0, SVG Export Plug-In . SVG Version: 6.00 Build 0)  -->
<!DOCTYPE svg PUBLIC "-//W3C//DTD SVG 1.1//EN" "http://www.w3.org/Graphics/SVG/1.1/DTD/svg11.dtd">
<svg version="1.1" id="Layer_1" xmlns="http://www.w3.org/2000/svg" xmlns:xlink="http://www.w3.org/1999/xlink" x="0px" y="0px"
	 width="600px" height="600px" viewBox="0 0 600 600" style="enable-background:new 0 0 600 600;" xml:space="preserve">
<g>
	<path id="path3" style="fill:#5299C6;" d="M330.1,472c63.2-8.9,99.7-30.2,130.4-50.3l-13.7-17.1c-3.4,2.2-8.2,5.1-11.8,7.1
		L330.1,472 M142.5,421.7c31.4,21.1,77.1,44.5,131.7,50.7l-107.9-61.7c-3.5-1.9-6.8-4-10.1-6.1L142.5,421.7z M601.6,325.6l-3.3,16.5
		c-0.4,2.3-8,51.1-43.4,89.9l27.7,35.1l-3.5,4.1c-1,1.2-28,32.7-74.5,60.5c-42.8,25.5-107.3,55.5-203.1,55.5
		c-92.4,0-161.8-30.4-203.8-55.9c-45.6-27.7-73.4-58.4-74.3-59.6l-3.4-4.1l3.1-4.3l24.2-30.1C12,393.9,4.5,341.1,4,338.7l-2.5-13.1
		L64,355.4l22.1-64.6L86.1,9H517l-0.1,267.9c0,3.8-0.1,8.2-0.3,11.9l22.5,66.6L601.6,325.6z"/>
	<path id="path5" style="fill:#60223B;" d="M430.2,398.9l-128.6,73.5l-128.7-73.5c-46.5-26.1-73.2-70.7-73.2-122.6L99.7,22.5h403.8
		l-0.1,254.4C503.4,330.6,476.1,373.6,430.2,398.9"/>
	<path id="path7" style="fill:#60223B;" d="M302.5,487.5c107.3,0,187.3-68.6,208.7-88.3l54.1,68.1
		c-18.3,16.9-106.2,106.5-263.7,106.5c-151.7,0-245.3-87.3-263.8-106.6L92,399.2c8.8,8.3,28.3,25.2,54.9,41.7
		c34.3,21.2,88.8,46.4,153.6,46.6H302.5"/>
	<path id="path9" style="fill:#60223B;" d="M511.3,377.6l-35.9,4c16.9-17,30.5-40.2,36.2-64.5l19.6,57.1l51.1-24.4
		c-6.8,24-17.5,48.9-36.2,71.2L511.3,377.6"/>
	<path id="path11" style="fill:#60223B;" d="M498.2,392.4c-6.7,5.3-13.6,12.5-26.6,21.5l-13.7-17.2L498.2,392.4"/>
	<path id="path13" style="fill:#60223B;" d="M145.1,396.8L131.4,414c-11.7-8.5-20.7-16.2-26.6-21.5L145.1,396.8"/>
	<path id="path15" style="fill:#60223B;" d="M55.9,422.1c-21.4-24.8-30-54.8-35.2-72.3l44.3,21.1l6.9,3.3l2.5-7.2l17.1-49.9
		c6.3,23.2,18.8,46.3,36.2,64.5l-35.9-4L55.9,422.1"/>
	<path id="path17" style="fill:#FFFFFF;" d="M104.2,431.4L89.4,460c8-7.6,23.4-21.7,23.4-21.7l7.6,5.8l-14,29.6l0.1,0.1
		c-0.1-0.1,23.2-23.2,23.2-23.2l9,5.8l-42,39.1l-8-5.7c6.1-11.4,16.9-33.8,16.9-33.8c-8.8,8.4-17.9,16-28.3,25.4l-7.7-6.2l26.7-50.6
		L104.2,431.4"/>
	<polyline id="polyline19" style="fill:#FFFFFF;" points="142,458.5 160.4,468.9 155.1,477.7 145.8,472.6 139.8,482.8 147.7,487.4 
		142.2,496.6 134.3,491.9 128,502.7 137.6,508.3 132.4,517.1 113.7,506.4 142,458.5 	"/>
	<path id="path21" style="fill:#FFFFFF;" d="M146.5,508.6c0.8,2.5,2.5,4.8,4.7,5.8c3.2,1.5,6.7,0.4,7.9-2.2c3.5-7.4-8-16.1-2.4-28.1
		c3.9-8.2,11.6-12,19.1-8.4c2.3,1.1,4.9,3.1,6.8,5.6l-4.8,10.2c-1.2-2.1-3.2-4.4-4.9-5.2c-2.3-1.1-4.6-1-6.1,2.3
		c-2.8,6.1,9,14.6,2.6,28.4c-4.5,9.6-12.7,12-21.1,8c-2.9-1.4-5-3.1-6.6-6L146.5,508.6"/>
	<polyline id="polyline23" style="fill:#FFFFFF;" points="200.3,496.8 184.9,539.6 175,536.1 190.5,493.3 184,491 187.5,481.4 
		210.2,489.5 206.7,499.1 200.3,496.8 	"/>
	<polyline id="polyline25" style="fill:#FFFFFF;" points="246.6,554.7 236.4,552.9 240.3,530.6 231.2,528.8 226.5,551.1 
		216.2,548.8 227.6,494.1 237.7,496.4 233.1,519.2 242.1,520.9 246.5,498.2 256.8,499.9 246.6,554.7 	"/>
	<path id="path27" style="fill:#FFFFFF;" d="M281.1,502.5l5.9,56l-9.9-0.5l-1.3-10.7l-10.4-0.8l-2.8,10.3l-9.9-1.1l18.1-54
		L281.1,502.5 M275.2,538.7l-1.5-18.7l-5.5,18.2L275.2,538.7z"/>
	<polyline id="polyline29" style="fill:#FFFFFF;" points="307.4,503.2 314.3,535.4 314.4,535.4 318.7,502.8 329.9,502 338.1,557 
		328,557.9 323.4,524.3 323.3,524.3 318.9,558.5 311.7,558.7 304.6,525.1 304.5,525.1 302.8,558.8 292.5,558.6 296.2,503.1 
		307.4,503.2 	"/>
	<path id="path31" style="fill:#FFFFFF;" d="M363,497l8.1,39.4c0.8,3.8,2.8,4.9,4.8,4.5c2-0.4,3.4-2.2,2.6-6l-8.1-39.5l10.2-2.3
		l8.3,40.5c1.8,8.5-0.9,15.8-10.8,17.9c-9.8,2-15.3-3.7-17-12.1l-8.3-40.5L363,497"/>
	<polyline id="polyline33" style="fill:#FFFFFF;" points="395.1,488.6 416.5,515.3 416.7,515.2 406.5,484.8 415.7,481.3 
		433.6,534.1 425,537.3 403.4,511.2 403.2,511.2 412.5,541.6 403.1,544.5 386.4,491.4 395.1,488.6 	"/>
	<polyline id="polyline35" style="fill:#FFFFFF;" points="444,529.8 421.2,479 430.8,474.8 453.6,525.7 444,529.8 	"/>
	<polyline id="polyline37" style="fill:#FFFFFF;" points="455.3,473.4 477.1,513.7 467.8,518.6 446.1,478.5 440,481.6 435.3,472.5 
		456.7,461.2 461.8,470 455.3,473.4 	"/>
	<polyline id="polyline39" style="fill:#FFFFFF;" points="461.1,458.5 478.5,447.3 484.3,455.5 475.5,461.6 481.6,471.4 
		489.1,466.4 495,475.1 487.1,480.1 494.6,490.7 503.7,484.6 509.5,493.4 490.7,505.6 461.1,458.5 	"/>
	<path id="path41" style="fill:#FFFFFF;" d="M483.1,443.7l8.5-6.2c11.1-8.1,22.4-2.2,31.8,10.8c9.5,13,12,26.3,0.9,34.4l-8.5,6.2
		L483.1,443.7 M518.1,474.5l0.8-0.6c4.5-3.3,1.6-11-4.3-19.2c-5.9-8.2-11.8-12.7-16.3-9.4l-0.8,0.5L518.1,474.5z"/>
	<path id="path43" style="fill:#F7C240;" d="M200.7,60.9l15.7,18l-13.8,15.9l-17.3,15.6c0,0-24.6,15.9-26.4,17
		c-1.8,1.1-3.3,1.1-4.7,0c-1.3-1.1-1-3.5,0.3-5l13.3-19.1c2.5-3.9,1.4-8.1,1-10.7c-0.3-2.5,0.4-3.4,1.8-4.8
		C172,86.6,194.5,66.4,200.7,60.9"/>
	<polyline id="polyline45" style="fill:#F7C240;" points="288.9,218.2 193.7,111.2 202.9,102.7 297.5,209 288.9,218.2 	"/>
	<path id="path47" style="fill:#F7C240;" d="M314,227.7l117.3,131.7c0,0-0.1,3-3.2,5.9c-2.6,2.5-6,2.6-6,2.6L305.7,237.2L314,227.7"
		/>
	<path id="path49" style="fill:#F7C240;" d="M386.3,79.1l14.4,15.6l17.3,15.6c0,0,24.6,15.9,26.4,17c1.8,1.2,3.3,1.1,4.7,0
		c1.3-1.1,1-3.5-0.4-5l-13.3-19.1c-2.5-3.9-1.4-8.1-1.1-10.7c0.3-2.5-0.4-3.5-1.8-4.8c-1.2-1.2-24.2-21.3-30.2-26.8L386.3,79.1"/>
	<path id="path51" style="fill:#F7C240;" d="M181,367.9l228.6-256.7l-9.2-8.5L171.8,359.4c0,0,0.1,3,3.2,5.9
		C177.6,367.8,181,367.9,181,367.9"/>
	<path id="path53" style="fill:#F7C240;" d="M227.3,392.9c0.3-0.4,28.7-41.1,74.2-41.1c46.1,0,73.3,41.3,73.5,41.7l6.1-3.9
		c-1.2-1.8-29.5-45-79.6-45c-49.4,0-79,42.5-80.2,44.3L227.3,392.9"/>
	<polyline id="polyline55" style="fill:#F7C240;" points="157,187.9 157,165.7 168.6,165.7 168.6,175.6 179,175.6 179,165.7 
		190.6,165.7 190.6,175.6 200.8,175.6 200.8,165.8 212.6,165.8 212.6,187.9 157,187.9 	"/>
	<polyline id="polyline57" style="fill:#F7C240;" points="390.6,187.9 390.6,165.8 402.4,165.8 402.4,175.6 412.6,175.6 
		412.6,165.7 424.2,165.7 424.2,175.6 434.6,175.6 434.6,165.7 446.2,165.7 446.2,187.9 390.6,187.9 	"/>
	<path id="path59" style="fill:#F7C240;" d="M318.1,222.9l19-21.7h9v-9.2h11.6v9.2h10.4v-9.4h11.6v9.4h9.8l-10.2,86.5H458l8.5,41.3
		c0,0-15.9-9.5-39.2-9.5c-6.8,0-13.7,1-20.6,3.1L318.1,222.9"/>
	<path id="path61" style="fill:#F7C240;" d="M196.4,322.6c-6.7-2-13.9-3-20.5-3c-23.3,0-39.2,9.5-39.2,9.5l8.5-41.3h78.6l-10.2-86.5
		h9.8v-9.4H235v9.4h10.4v-9.2H257v9.2h8.3l19.2,22.2L196.4,322.6"/>
	<polyline id="polyline63" style="fill:#F7C240;" points="270.8,100.8 270.8,76.2 283.5,76.2 283.5,87.3 294.9,87.3 294.9,76.2 
		307.7,76.2 307.7,87.3 318.9,87.3 318.9,76.5 331.8,76.5 331.8,100.8 270.8,100.8 	"/>
	<path id="path65" style="fill:#F7C240;" d="M278.7,341c0,0,0-41.2,0-41.2c0-7.9,4.8-22.9,22.9-22.9c18.1,0,22.9,15,23,22.9V341
		l0-0.1c23.5,5.5,36.2,17.9,36.2,17.9c6.6-10.3,14.5-18.5,23.1-24.6l-82.2-92.5l-82.2,92.5c8.6,6.1,16.5,14.3,23.1,24.6
		c0,0,12.7-12.3,36-17.8L278.7,341"/>
	<path id="path67" style="fill:#F7C240;" d="M284.7,339.7v-40.5c0-1.6,1.2-16.3,16.9-16.3c15.7,0,16.9,14.6,16.9,16.3
		c0,0,0,40.4,0,40.4l0,0c-5.2-0.9-10.9-1.4-17-1.4h0.2C295.5,338.3,289.8,338.8,284.7,339.7L284.7,339.7"/>
	<path id="path69" style="fill:#F7C240;" d="M216.4,281.7h-63.1l10.6-87.8h42.3L216.4,281.7 M195.5,224h-7.4v-10.3h-6.2V224h-7.6
		v6.1h7.6v16.2h6.2v-16.2h7.4V224z"/>
	<path id="path71" style="fill:#F7C240;" d="M396.9,193.9h42.4l10.6,87.8h-63.1L396.9,193.9 M428.1,224h-7.4v-10.3h-6.2V224h-7.6
		v6.1h7.6v16.2h6.2v-16.2h7.4V224z"/>
	<path id="path73" style="fill:#F7C240;" d="M268.8,167.2l12.1-60.6h41.4l12.3,60.8l-32.8,36.7L268.8,167.2 M312.3,133.1h-7.4v-10.3
		h-6.2v10.3h-7.6v6.1h7.6v16.2h6.2v-16.2h7.4V133.1z"/>
</g>
</svg>
