<?xml version="1.0" encoding="utf-8"?>
<!-- Generator: Adobe Illustrator 16.0.0, SVG Export Plug-In . SVG Version: 6.00 Build 0)  -->
<!DOCTYPE svg PUBLIC "-//W3C//DTD SVG 1.1//EN" "http://www.w3.org/Graphics/SVG/1.1/DTD/svg11.dtd">
<svg version="1.1" id="Layer_1" xmlns="http://www.w3.org/2000/svg" xmlns:xlink="http://www.w3.org/1999/xlink" x="0px" y="0px"
	 width="600px" height="600px" viewBox="0 0 600 600" style="enable-background:new 0 0 600 600;" xml:space="preserve">
<g>
	<path style="fill-rule:evenodd;clip-rule:evenodd;fill:#0079BB;" d="M301.2,1.2c165.3,0,299.3,134,299.3,299.3
		c0,165.3-134,299.3-299.3,299.3c-165.3,0-299.3-134-299.3-299.3C1.9,135.3,135.9,1.2,301.2,1.2L301.2,1.2z M301.2,10.1
		c160.4,0,290.5,130.1,290.5,290.5c0,160.4-130.1,290.5-290.5,290.5C140.8,591.1,10.8,461,10.8,300.6
		C10.8,140.2,140.8,10.1,301.2,10.1L301.2,10.1z"/>
	<path style="fill-rule:evenodd;clip-rule:evenodd;fill:#DFDDD8;" d="M301.2,112.3c104,0,188.3,84.3,188.3,188.3
		c0,104-84.3,188.3-188.3,188.3c-104,0-188.3-84.3-188.3-188.3C112.9,196.6,197.2,112.3,301.2,112.3L301.2,112.3z M301.2,122.9
		c-98.1,0-177.7,79.6-177.7,177.7s79.6,177.7,177.7,177.7s177.7-79.6,177.7-177.7C478.9,202.5,399.4,122.9,301.2,122.9L301.2,122.9z
		"/>
	<path style="fill-rule:evenodd;clip-rule:evenodd;fill:#0079BB;" d="M301.2,108.3c106.2,0,192.3,86.1,192.3,192.3
		c0,106.2-86.1,192.3-192.3,192.3c-106.2,0-192.3-86.1-192.3-192.3C108.9,194.4,195,108.3,301.2,108.3L301.2,108.3z M301.2,114.5
		c50,0,95.4,19.7,128.9,51.8v268.5c-33.4,32.1-78.8,51.8-128.9,51.8c-50.2,0-95.7-19.9-129.1-52.1l0-267.9
		C205.5,134.3,251.1,114.5,301.2,114.5L301.2,114.5z"/>
	<path style="fill-rule:evenodd;clip-rule:evenodd;fill:#DFDDD8;" d="M214.8,326l38.3,98c37.9-9.7,78-10.5,116.8,0l37.5-97.2
		c-15.4,0.3-22.3,8.3-23.7,24.5c-4-5.6-9.9-10-15.6-9.8c-6.1,0.2-9.9,3.7-11.1,9.6c-0.9,4.3-0.2,10.2,2.4,15.4
		c4.3-6.8,8.5-6,11.5-4.8c6.9,2.8,5.8,12.8,5.2,15.3c-2.2,9.3-9.9,14.6-18,13.8c-5-0.5-10.3-3-12.8-11.3c-2.7,4.4-7.2,7.7-12.1,7.8
		c-8.5,0.2-14-5.5-14.5-17c-0.5-11.4,2.1-16.3,7.2-16.5c2-0.1,9.7,1.5,6.3,12.3c8.9-3.5,11.5-11.1,11.2-15.2
		c-0.4-5.8-4.1-10.3-10.2-11.2c-2.6-0.4-6.9,0-10.6,4.4c1.9-12.6-1.8-23.2-12.3-30.1c-9.7,6.5-14.4,18.3-11.5,30.1
		c-3.9-3.9-8.1-4.3-11.3-3.8c-6.3,1-10.6,8.2-9,14.8c1.3,5.3,6.2,9.2,10.9,11.4c-1.1-5,1.9-11.9,7.2-11.9c7.2,0.1,8.1,7.9,8.2,15.3
		c0.2,11.3-3,16.5-10.3,17.7c-7.1,1.1-13.4-3.3-17.7-9.3c-2.8,6.5-6.3,10.5-10.4,11.5c-7.1,1.8-12.8-1.6-15.8-6.1
		c-4.6-6.8-6.7-16.2-1.6-20.1c2.5-1.9,7.5,0.7,8.1,7.7c10.2-9.9,8.4-17.5,6.3-22.1c-2.2-4.9-11.4-11.2-23.2,1.1
		C238.7,337.6,229.5,329.1,214.8,326L214.8,326z"/>
	<path style="fill-rule:evenodd;clip-rule:evenodd;fill:#BDA16C;" d="M206.7,318.8l38.3,98c37.9-9.7,78-10.5,116.8,0l37.5-97.2
		c-15.4,0.3-22.3,8.3-23.7,24.5c-4-5.6-9.9-10-15.6-9.8c-6.1,0.2-9.9,3.8-11.1,9.6c-0.9,4.3-0.2,10.2,2.4,15.4
		c4.3-6.8,8.5-6,11.5-4.8c6.9,2.8,5.8,12.8,5.2,15.3c-2.2,9.3-9.9,14.6-18,13.8c-5-0.5-10.3-3-12.8-11.3c-2.7,4.4-7.2,7.7-12.1,7.8
		c-8.5,0.2-14-5.5-14.4-17c-0.5-11.4,2.1-16.3,7.2-16.5c2-0.1,9.7,1.5,6.3,12.3c8.9-3.5,11.5-11.1,11.2-15.2
		c-0.4-5.8-4.1-10.3-10.2-11.2c-2.6-0.4-6.9,0-10.6,4.4c1.9-12.6-1.8-23.2-12.3-30.1c-9.7,6.5-14.4,18.3-11.5,30.1
		c-3.9-3.9-8.1-4.3-11.3-3.8c-6.3,1-10.6,8.2-9,14.8c1.3,5.3,6.2,9.2,10.9,11.4c-1.1-5,1.9-11.9,7.2-11.9c7.2,0.1,8.1,7.9,8.2,15.3
		c0.2,11.3-3,16.5-10.3,17.7c-7.1,1.1-13.4-3.3-17.7-9.3c-2.8,6.5-6.3,10.5-10.4,11.5c-7.1,1.8-12.8-1.6-15.8-6.1
		c-4.6-6.8-6.7-16.2-1.6-20.1c2.5-1.9,7.5,0.7,8.1,7.7c10.2-9.9,8.4-17.5,6.3-22.1c-2.2-4.9-11.4-11.2-23.2,1.1
		C230.6,330.3,221.4,321.8,206.7,318.8L206.7,318.8z"/>
	<path style="fill-rule:evenodd;clip-rule:evenodd;fill:#DFDDD8;" d="M252.6,265.1c8.2,2.5,15.1,5.3,20.8,8.1
		c9.2,4.4,16.9,7.6,19,12c4.5,9.6-2.3,28.9-4,47.9c0.9,0,1.8,0.1,2.7,0.2c0.8-10.1,6-19.4,14.8-25.3l3.2-2.1l3.2,2.1
		c9.3,6.1,14.2,14.8,15.2,24.9c1.1-0.2,2.2-0.3,3.3-0.3c-1.6-16.3-7.8-35.5-7.1-40.1c0.6-3.4,4.2-7.8,10.1-11.6
		c5.1-3.3,11.9-8.3,17.6-12.8c1.4,1,2.9,1.4,4.3,1.5c5.3,0.5,8.7-1.7,10.5-2.7c5.8,3.3,11.1,3.3,15.8,1.9c4.6-1.4,6.6-4.9,7.7-8.1
		c4.3,4,17.5,2.5,19-3c1.6-6-5.8-4.8-6-8c-0.2-2.3,3.2-1.6,3.7-3.8c0.3-1.1-0.2-1.9-0.7-3c4.3-1,7.4-1.7,8.2-4.1
		c1.8-5.4-3.1-7.7-10.5-10.9c3.1-6.7,7.5-2.7,12.4-6.7c2.1-1.7,2.2-8.4-1.3-10.3c1.2-1.9,2.1-4.4,0-6.6c-1.7-1.9-8.8-1-10.2-2.8
		c-1.2-1.5-0.3-3.8-1-5.9c-0.7-2-1.8-3.6-3.8-4.2c-1.6-0.5-3.3-0.9-4.6-1.1c-1.4-0.3-1.7-0.8-3.3-1c-2.6-0.5-4-0.1-6,0.2
		c-3.4,0.4-7.5,1.7-11.1,1.2c-1-0.1,1.5-1.9,0-3.7c-0.4-0.5-1.5-1-2.1-1.1c-1.2-0.3,1.1-4.9-1-6.8c-2.6-2.3-4.4-1.4-6.4-2.3
		c-2.3-1.1-1.8-4.5-5.3-7c-3.4-2.5-9.4-1.5-9.9-1.8c-0.3-4.3-3.4-5.5-6.9-4.7c0.5-3.3-1-6.2-5.1-7.1c-1.5-2.8-3.6-5.2-9.2-4.2
		c-1-4.2-4.9-4.9-9-6c-4-1.1-8.1-2.4-11.5-2.4c-5.9-0.1-11.9,1.9-15.6,5.9c-5,0.3-8.8,1.4-11.4,3.6c-1.5,1.3-1.9,2.9-2.8,4.9
		c-1.8-0.4-4.4,0-5.8,2.1c-1,1.5-0.4,3.8-3.2,5c-1.8,0.8-6.1-0.1-10.4,0.7c-6,1.1-9.7,3.1-12,6.9c-3.9,6.4,0.7,12.3-1,13.5
		c-4.8,3.8-13.5,0.2-19.2,3.8c-3.1,2-4.8,6.1-4.2,10.2c0.8,5.5,5.1,7.3,2,7.6c-18.6,1.8-23,9.9-21.3,16.4c1.5,5.9,7.2,6.8,7.2,8.4
		c0,1.6-1.5,1.6-3.3,2.3c-1.6,0.6-3.6,1.7-3.8,3.9c-0.4,4,3.2,4.6,3.2,6.3c0,1.3-1.6,1.8-3.1,2.9c-1.5,1-3.1,3.1-2.6,5.7
		c0.5,2.4,2.2,3.8,3.9,4.7c1.7,1,3.8,1.5,5.3,2.1c2.4,1,1.3,6.1,10.7,9.6c5.1,1.9,12,0.8,17.7-0.7c2.4-0.6,3.6-0.5,6.1-1.4
		c2.7-1,2.9-2.2,5.4-2.6C250.7,265.4,251.6,265.3,252.6,265.1L252.6,265.1z M346.5,263.4c-8.5,5.9-19.2,11.7-22.1,11.3
		c-5-0.7-3.5-6.6-1.5-13.1c2.1-0.7,3.8-1.7,5-2.4C329.3,263.4,339,265.8,346.5,263.4L346.5,263.4z M314.2,262.2
		c-2.3,6.3-5.4,11.9-9.1,12.4c-3.3,0.4-5.3-9.2-7.4-17.4c2.2-0.5,4.4-1.4,5.5-2.2C308.3,259.8,310.5,261.3,314.2,262.2L314.2,262.2z
		 M290.9,256.9c1.5,5.8,2,11.1-0.9,13c-3.4,2.2-8.7-0.2-13-1.7c-5.3-1.8-10-3.8-14.5-5.4c1.6-0.7,2.7-1.9,4.5-2.3
		c4.1-0.9,6.2,1.8,11.5-0.6c3.3-1.5,6.6-5.8,7.3-6C286.3,253.9,288.1,255.9,290.9,256.9L290.9,256.9z"/>
	<path style="fill-rule:evenodd;clip-rule:evenodd;fill:#804C30;" d="M235,256.2c13.1,3,23.4,7,31.5,10.9c9.2,4.4,16.9,7.6,19,12
		c4.5,9.6-2.3,28.9-4,47.9c0.9,0,1.8,0.1,2.7,0.2c0.8-10.1,6-19.4,14.8-25.3l3.2-2.1l3.2,2.1c9.3,6.1,14.2,14.8,15.2,24.9
		c1.1-0.2,2.2-0.3,3.3-0.3c-1.6-16.3-7.9-35.5-7.1-40.1c0.6-3.4,4.2-7.8,10.1-11.6c7.9-5.1,19.6-14,25.1-19.4l-6.1-2.9
		c-8.3,7.1-24.6,16.6-28.3,16.1c-8.3-1.1,1.3-16.4,1.3-25.1l-7.7-1c-2,8.6-6.6,25-13,25.8c-4.6,0.6-6.5-17.7-10-25.3l-6.9-0.8
		c2.8,8,6.1,18.6,1.7,21.4c-3.4,2.2-8.7-0.2-13-1.7c-10.1-3.4-17.8-7.3-26.4-8.6L235,256.2L235,256.2z"/>
	<path style="fill-rule:evenodd;clip-rule:evenodd;fill:#C17331;" d="M284.5,317.7c2.5-7,7.2-13,13.5-17.3l4.1-2.8l4.2,2.7
		c7.8,5.1,12.9,12.2,15,20.8c-0.2-1.3-0.4-2.6-0.7-3.9c-1.1-6.3-2.6-12.6-4-18.9c-0.6-2.9-2.2-9.4-1.7-12.3
		c0.9-5.2,6.8-10.1,10.9-12.8c3.9-2.5,7.7-5.3,11.5-8.1c3.8-2.9,7.9-6,11.5-9.3l-2.8-1.3c-5.9,4.8-23.3,16.5-28.8,15.8
		c-1.4-0.2-3.5-1.2-4.4-2.3c-2.2,3.5-5.2,7-7.3,12.7c-0.8,2.3-3.2,3.8-2.2-0.8c1.2-5.1,6.7-9.9,9.6-19.9c1.1-5,3.4-10.9,4-15
		l-4.4-0.6c-1.9,7.8-6.5,24.6-14.1,25.6c-5.3,0.7-7.6-11.9-8.5-15.5c-0.8-3.1-1.6-6.8-2.9-9.8l-3.1-0.3c2.2,6.5,5.4,17.4,0.1,20.9
		c-4.3,2.8-10.2,0-14.6-1.5c-8.3-2.8-17.1-7.1-25.7-8.5l-2.2,0.7c8.8,2.4,17.4,5.5,25.7,9.5c5.4,2.6,17.2,7.3,19.8,12.9
		c2.6,5.5,1.6,13.6,0.8,19.4C286.9,304.4,285.5,311.1,284.5,317.7L284.5,317.7z"/>
	<path style="fill-rule:evenodd;clip-rule:evenodd;fill:#055D3A;" d="M301.3,137.5c-5.9-0.1-11.9,1.9-15.6,5.9
		c-5,0.3-8.8,1.4-11.4,3.6c-1.5,1.3-1.9,2.9-2.8,4.9c-1.8-0.4-4.4,0-5.8,2.1c-1,1.5-0.4,3.8-3.2,5c-1.8,0.8-6.1-0.1-10.4,0.7
		c-6,1.1-9.7,3.1-12,6.9c-3.9,6.4,0.7,12.3-1,13.5c-4.8,3.8-13.5,0.2-19.2,3.8c-3.1,2-4.8,6.1-4.2,10.2c0.8,5.5,5.1,7.3,2,7.6
		c-18.6,1.8-23,9.9-21.3,16.4c1.5,5.9,7.2,6.8,7.2,8.4c0,1.6-1.5,1.6-3.3,2.3c-1.6,0.6-3.6,1.7-3.8,3.9c-0.4,4,3.2,4.6,3.2,6.3
		c0,1.3-1.6,1.8-3.1,2.9c-1.5,1-3.1,3.1-2.6,5.7c0.5,2.4,2.2,3.8,3.9,4.7c1.7,1,3.8,1.5,5.3,2.1c2.4,1,1.2,6.1,10.7,9.6
		c5.1,1.9,12,0.8,17.7-0.7c2.4-0.6,3.6-0.5,6.1-1.4c2.7-1,2.9-2.2,5.4-2.6c3-0.5,9.3-1.5,12.1-2.6c1.7-0.6,2.9-2,4.7-2.4
		c4.1-0.9,6.2,1.8,11.5-0.6c3.3-1.5,6.6-5.8,7.3-6c0.8-0.1,3.9,3.5,8.6,3.5c3.1,0,7.2-1.3,8.9-2.6c5.7,5.4,7.7,6.7,12.3,7.5
		c5,0.9,10.1-1.7,12.5-3.2c1.5,4.5,12.7,6.9,20.3,3.5c0.8,5,4.5,6.6,7.4,6.9c5.3,0.5,8.7-1.7,10.5-2.7c5.8,3.3,11.1,3.3,15.8,1.9
		c4.6-1.4,6.6-4.9,7.7-8.1c4.3,4,17.5,2.5,19-3c1.6-6-5.8-4.8-6-8c-0.2-2.3,3.2-1.6,3.7-3.8c0.3-1.1-0.2-1.9-0.7-3
		c4.3-1,7.4-1.7,8.2-4.1c1.8-5.4-3.1-7.7-10.5-10.9c3.1-6.7,7.5-2.7,12.4-6.7c2.1-1.7,2.2-8.4-1.3-10.3c1.2-1.9,2.1-4.4,0-6.6
		c-1.7-1.9-8.8-1-10.2-2.8c-1.2-1.5-0.3-3.8-1-5.9c-0.7-2-1.8-3.6-3.8-4.2c-1.6-0.5-3.3-0.9-4.6-1.1c-1.4-0.3-1.7-0.8-3.3-1
		c-2.6-0.5-4-0.1-6,0.2c-3.4,0.4-7.5,1.7-11.1,1.2c-1-0.1,1.5-1.9,0-3.7c-0.4-0.5-1.5-1-2.1-1.1c-1.2-0.3,1.1-4.9-1-6.8
		c-2.6-2.3-4.4-1.4-6.4-2.3c-2.3-1.1-1.8-4.5-5.3-7c-3.4-2.5-9.4-1.5-9.9-1.8c-0.3-4.3-3.4-5.5-6.9-4.7c0.5-3.3-1-6.2-5.1-7.1
		c-1.5-2.8-3.6-5.2-9.2-4.2c-1-4.2-4.9-4.9-9-6C308.7,138.8,304.7,137.5,301.3,137.5L301.3,137.5z"/>
	<path style="fill-rule:evenodd;clip-rule:evenodd;fill:#25824C;" d="M273.8,150.8c-0.3,0.6-0.5,1.2-0.7,1.8l-0.6,1.3l-1.1-0.2
		c-5,0.7-2.5,4.7-5.6,6.1c-0.8,0.4-1.7,0.7-2.7,0.9c-0.3,0.1-0.7,0.2-1.1,0.3c-0.5,0.1-1.1,0.2-1.6,0.3c3.2,0.9,5.2,2.8,7.3,4.5
		c8.7-1.5,16.7-0.2,20.2,4.7c1.8,2.5,1.1,4.1,0.8,3.5c-4.4-7-11.8-8-22-6.2c-1.8-4.5-10.4-5.2-14.1-5.1c-4.1,1-7.7,2.6-9.8,6.5
		c-2.8,5.4-0.1,7.9-0.8,9.9c-0.2,0.6-0.6,1.2-1.1,1.6c-0.2,0.3-0.4,0.5-0.6,0.8c-4.1,3.2-9.8,2-14.6,2.5c-1.1,0.3-2.1,0.7-3,1.3
		c-3.1,2-5.1,4.4-4.6,8.5c0.8,5.3,4.8,7,2.6,7.7c0,0.2-0.1,0.3-0.1,0.5c-0.4,1.1-1.5,1.4-2.6,1.5c-3,0.3-6.5,0.8-9.8,1.9
		c-4.9,2.5-7.5,5.8-6.5,9.7c0.9,3.3,3.9,4,4.3,5.9c1,5.6,1.5,6.3,2.8,8c3,3.7-4.2,4.2-4.5,7.5c-0.3,2.5,4.4,4.7,4.9,5.3
		c4.5,7,3.5,11.9,23.6,11.6c9.3-0.1,13.8,3.1,23.2-1.4c6-2.9,10.7,0.4,16.1-0.6c2.5-1.7,5.1-5.1,6.4-5.4l0.1,0l0.1,0
		c1.8-0.3,4.9,3.5,8.9,3.5c2.1,0,6.1-0.9,7.8-2.2l1.2-1l1.1,1.1c3.7,3.6,6.2,6.1,11.4,7c3.8,0.7,8-1,11.3-3l1.9-1.1l0.6,2
		c1.8,0.1,4.6,1.8,8.1,2.4c3.3,0.6,7.8-0.5,10.9-1.8c0.1,0.5,0.3,0.9,0.5,1.3l0.5-0.2l0.2,1.3c3.2,4.4,10.2,4.7,14,4.6
		c0.5-0.2,0.9-0.5,1.4-0.8l0.9-0.5l0.9,0.5c0.5,0.3,1.1,0.6,1.6,0.8c19.1,0.1,16.4-10.8,19.1-9c0.4,0.2,0.7,0.4,1.1,0.6l0.1-0.3
		l0.6,0.6c4.2,1.5,7.6-1.7,6.9-4.2c-0.6-2.1-2.5-2.7-1.5-3.8c0.8-0.9,2.4-1.1,3.4-1.9c1.1-0.8,0.4-3.2,0.7-4.3c0.2-0.7,2.3-1,4.1-2
		l-0.1-0.1l0.4-0.1c0.9-0.5,1.7-1.3,2.1-2.3c2.9-0.6,4.4-1.3,4.8-2c0.9-1.6,0.5-2.9-0.4-4c-2.3-1.7-5.7-3-7.4-3.8l-1.6-0.7l0.7-1.6
		c3.5-7.7,8.4-3.8,12.8-7.2c0.7-1.8,0.8-4.7-0.2-6.8c-0.2-0.3-0.4-0.5-0.7-0.6l-1.7-0.9l0.4-0.7l0,0c0.9-1.5,1.8-3.3,1.1-5.1
		c-0.1-0.1-0.2-0.2-0.3-0.3c-1.2-1.2-8.3-0.3-10.3-2.9c-1.7-2.1-0.6-4.4-1.3-6.4c-0.2-0.5-0.4-1-0.6-1.4c-0.6-0.8-1.4-1.3-2.4-1.6
		c-1.6-0.4-3.3-0.9-4.6-1.1c-1.4-0.3-1.7-0.8-3.3-1c-0.4-0.1-0.7-0.1-1-0.1c-1.3,0-2.3,0.2-3.8,0.4c-3.8,0.5-7.7,1.7-11.6,1.2
		c-0.6-0.1-1.1-0.1-1.6-1c-0.8-1.5,0.9-2.8,0.5-3.3c-0.2-0.2-0.9-0.5-1.2-0.5c-3.3-0.9-0.4-6-1.7-7.2c-2.1-1.9-3.7-1-6-2
		c-3.1-1.4-2.7-5.1-5.6-7.2c-3.1-2.2-8.3-0.8-9.8-1.7l-0.8-0.5l-0.1-0.9c-0.2-3-2-3.7-4.8-3.1l-2.5,0.6l0.4-2.6
		c0.3-1.9-0.3-3.2-1.5-4.1c-0.7-0.3-1.5-0.6-2.5-0.8l-0.1-0.3l-0.5-0.1l-0.4-0.7c-0.8-1.5-1.6-2.4-2.6-2.9c-1.2-0.5-2.7-0.6-4.9-0.2
		l0-0.1l-1.5,0.3l-0.4-1.7c-0.2-1.1-0.8-1.9-1.6-2.5c-2-0.9-4.4-1.4-6.6-2c-4-1.1-6.9-2.3-10.3-2.3c-4.1,0-8.7,2.4-11,4.5
		c2.8,0.1,6.1,1.4,8.5,3c2.4,1.6,3.1,2.8,0,1.1c-1.2-0.6-4.4-2.8-9.9-2.5C286.1,145.7,278.1,145.9,273.8,150.8L273.8,150.8z
		 M362.5,218.6c4.5,7.3-2.8,12.2-2,17.3c0.5,3,4.5,1.3,8.3,2.3c3.4,0.9,2.1,2.8-2.3,2.6c-1.5-0.1-9.5,0.4-9.8-2.5
		c-0.4-4.5,5.4-11.4,4.4-15.7c-1.1-4.8-6.3-6.5-11.2-9.2c-3.5-1.9-3.2-3.2-0.4-2C353.5,213,359.9,214.6,362.5,218.6L362.5,218.6z
		 M264,209.3c5.1,4.1,13.7,3.3,17.5,6.2c5.1,3.9,1.6,8.4,2.4,13.4c0.5,3,3.2,4.9,6.7,6.5c4,1.8,1.5,4.1-2.3,1.9
		c-1.7-1-5-2.9-6.1-5.6c-2.3-5.5,1.2-12-1.2-14.2c-2.8-2.5-14.1-1.3-19.4-6.5c-5.1-5-4-18.9-2.7-22.1c1.1-2.8,1-1.1,0.8,1.3
		C259.2,194.9,258.7,205.1,264,209.3L264,209.3z M323.8,194.2c-2.7,7.9-6.6,8.1-11.1,9.9c-0.6,0.3-0.5,1.4,2.5,0.6
		c4.9-1.4,9.3-4.4,9.9-7.7c6.1-0.3,7.9-3.8,8.8-5.1c1.3-1.7-0.4-4.4-2.3-2.3C330.5,190.9,328.7,193.9,323.8,194.2L323.8,194.2z"/>
	<path style="fill-rule:evenodd;clip-rule:evenodd;fill:#BDA16C;" d="M542.3,269.4c2.2,0,4.4,0.2,6.6,0.7c4.6,3.4,8,8.4,10,13.7
		c3.2,8.7,2.7,18.1,0,26.8l-0.1,0.2c-4.8-1.7-9.2-4.5-12.5-8.3c1.6-12.7-1-24.1-9.7-32.6C538.4,269.5,540.3,269.4,542.3,269.4
		L542.3,269.4z M560.3,274.8c8.7,5.8,14.5,15.8,14.5,27.1c0,3.9-0.7,7.7-2,11.2c-3,0-6-0.3-9-0.9l0-0.1c3.1-9.9,3.6-20.5,0-30.3
		C562.9,279.4,561.7,277.1,560.3,274.8L560.3,274.8z M570.3,318.4c-1.1,1.9-2.4,3.7-3.9,5.4c-4.8,1.6-10.3,1.9-15,1.3
		c-8.8-1.2-16.5-5.4-22-12.4l-0.3-0.4c3.8-3,8.3-5,13.2-6.3C549,313.9,559.8,317.9,570.3,318.4L570.3,318.4z M557.6,330.6
		c-4.6,2.5-9.8,3.8-15.4,3.8c-9,0-17.1-3.6-22.9-9.5c0.7-1.7,1.6-3.4,2.5-4.9c1-1.5,2.1-3,3.2-4.3l0.1,0.1
		c6.3,8.1,15.4,13,25.5,14.4C552.9,330.6,555.3,330.7,557.6,330.6L557.6,330.6z M515.6,320.5c-1.8-2.6-3.2-5.5-4.2-8.5
		c0.9-4.2,2.6-8.3,5-11.7c5.5-7.8,13.8-12.1,23-13.9l0.8-0.2c1.2,4.5,1.5,9.4,0.9,14.6c-9.9,2.4-18.2,7.9-23.7,16.5
		C516.7,318.3,516.1,319.4,515.6,320.5L515.6,320.5z M509.8,300.8c0.4-13.3,8.9-24.6,20.7-29.2c3.5,2.8,6.1,6,7.8,9.5
		c-10.5,2.1-20,7.2-26.2,16.1C511.2,298.3,510.4,299.6,509.8,300.8L509.8,300.8z"/>
	<path style="fill-rule:evenodd;clip-rule:evenodd;fill:#BDA16C;" d="M60.2,269.4c-2.2,0-4.4,0.2-6.6,0.7c-4.6,3.4-8,8.4-10,13.7
		c-3.2,8.7-2.7,18.1,0,26.8l0.1,0.2c4.8-1.7,9.2-4.5,12.5-8.3c-1.6-12.7,1-24.1,9.7-32.6C64.1,269.5,62.2,269.4,60.2,269.4
		L60.2,269.4z M42.1,274.8c-8.7,5.8-14.5,15.8-14.5,27.1c0,3.9,0.7,7.7,2,11.2c3,0,6-0.3,9-0.9l0-0.1c-3.1-9.9-3.6-20.5,0-30.3
		C39.6,279.4,40.7,277.1,42.1,274.8L42.1,274.8z M32.1,318.4c1.1,1.9,2.4,3.7,3.9,5.4c4.8,1.6,10.3,1.9,15,1.3
		c8.8-1.2,16.5-5.4,22-12.4l0.3-0.4c-3.8-3-8.3-5-13.2-6.3C53.5,313.9,42.7,317.9,32.1,318.4L32.1,318.4z M44.8,330.6
		c4.6,2.5,9.8,3.8,15.4,3.8c9,0,17.1-3.6,22.9-9.5c-0.7-1.7-1.6-3.4-2.5-4.9c-1-1.5-2.1-3-3.2-4.3l-0.1,0.1
		c-6.3,8.1-15.4,13-25.5,14.4C49.6,330.6,47.2,330.7,44.8,330.6L44.8,330.6z M86.9,320.5c1.8-2.6,3.2-5.5,4.2-8.5
		c-0.9-4.2-2.6-8.3-5-11.7c-5.5-7.8-13.8-12.1-23-13.9l-0.8-0.2c-1.2,4.5-1.5,9.4-0.9,14.6c9.9,2.4,18.2,7.9,23.7,16.5
		C85.7,318.3,86.4,319.4,86.9,320.5L86.9,320.5z M92.7,300.8c-0.4-13.3-8.9-24.6-20.7-29.2c-3.5,2.8-6.1,6-7.8,9.5
		c10.5,2.1,20,7.2,26.2,16.1C91.3,298.3,92,299.6,92.7,300.8L92.7,300.8z"/>
	<path style="fill-rule:evenodd;clip-rule:evenodd;fill:#0079BB;" d="M155.9,154.3c-18.2-14.8-37.9-29.4-59.1-43.8
		c1.3-0.7,2.8-1.7,4.6-2.8c1.7-1.2,2.7-1.9,3-2.1l0.9-0.6c1-0.7,2.1-1.5,3.1-2.4c1-0.8,2-1.7,2.9-2.6c13.2,11.3,27,22.3,41.6,33.1
		c-1.6-5.5-3.3-11.1-4.9-16.7c-1.4-4.7-3.1-10.5-5.2-17.3c-3.4-11.3-5.3-17.3-5.5-18.1c1.4-0.6,3-1.6,4.6-2.7c1.7-1.2,3-2.4,4.1-3.6
		c14.1,10.6,28.7,20.9,43.6,30.9c-2.4-8.2-5.1-16.7-8.1-25.5c-2.8-8.2-5.8-16.4-9.1-24.6c0.4-0.2,1-0.5,1.8-0.9
		c0.8-0.4,1.6-0.9,2.4-1.5c1.5-1.1,2.7-2.2,3.6-3.2c3.5,12,6.9,23.3,10.1,33.9c3.7,12.1,7.7,24.4,11.8,37c-1.8,0.9-3.4,1.9-4.8,2.9
		c-1.2,0.9-2.6,2.1-4.2,3.6c-13.4-10-27.7-20.1-43-30.2c3.8,15.3,8.6,32.3,14.5,50.9c-1.1,0.6-1.9,1-2.4,1.3
		c-0.5,0.3-1.3,0.8-2.2,1.5C158.7,151.7,157.3,152.9,155.9,154.3L155.9,154.3z"/>
	<path style="fill-rule:evenodd;clip-rule:evenodd;fill:#0079BB;" d="M226.9,37.2c0.8,2.7,2.4,8.2,4.6,16.8
		c2.3,8.5,3.9,14.2,4.8,17.1c1.3,4.3,2.9,9.3,4.7,14.9c1.8,5.6,4.1,11.7,6.7,18.2c-2.9,0.6-4.9,1.1-6.1,1.4
		c-1.2,0.3-2.1,0.6-2.8,0.8c-1.1,0.3-2,0.6-2.7,0.8c-0.7,0.2-2.6,1-5.6,2.2c-1.1-3.5-3-10.5-5.8-21c-1.6-6-2.8-10.2-3.5-12.7
		c-2.1-6.9-4.1-13-5.9-18.3c-1.8-5.3-3.6-10.3-5.6-15c2.6-0.5,5.4-1.2,8.6-2.2l1.1-0.4c1.3-0.4,2.5-0.8,3.8-1.3
		C224.5,38.3,225.7,37.8,226.9,37.2L226.9,37.2z"/>
	<path style="fill-rule:evenodd;clip-rule:evenodd;fill:#0079BB;" d="M327.4,93.5c-5.8,1.8-11.2,3.2-16.4,4.2
		c-5.2,1-10.3,1.5-15.3,1.7c-12,0.4-21.5-2.6-28.5-8.8c-7-6.3-10.7-15.1-11.1-26.4c-0.4-11.2,3-20.2,10.2-27
		c7.1-6.8,17.3-10.3,30.4-10.8c5.5-0.2,10.4,0.2,14.9,1c4.5,0.9,8.6,2.3,12.4,4.3c-1.5,4.4-2.4,8.5-2.9,12.4l-0.8,0
		c-4.8-8.1-12.5-11.9-23.1-11.6c-8,0.3-14.1,3-18.3,8.3c-4.2,5.3-6.1,12.9-5.8,22.7c0.3,9.8,2.7,17.2,7.2,22.3
		c4.5,5,10.8,7.4,18.8,7.2c2.7-0.1,5-0.3,6.7-0.7c1.8-0.3,3.6-1,5.5-1.9l0-9.4c-0.1-4.1-0.3-6.9-0.4-8.5c-0.2-1.6-0.4-3.8-0.9-6.7
		c2.6,0.2,5.5,0.2,8.7,0.1c1.2,0,2.4-0.1,3.7-0.1c1.7-0.3,3-0.4,3.9-0.5c0.1,2.2,0.1,5.2,0,9c0,3.8-0.1,6.1,0,7
		c0.1,2.2,0.2,4.3,0.4,6.3C327.1,89.7,327.2,91.7,327.4,93.5L327.4,93.5z"/>
	<path style="fill-rule:evenodd;clip-rule:evenodd;fill:#0079BB;" d="M360.4,78.4l9.1,2.8l9,2.8c-0.1-8.1-0.8-16.5-1.8-25.2
		C371,64.9,365.6,71.4,360.4,78.4L360.4,78.4z M333.2,98.5c8.2-9,16.6-18.7,25.3-29.2c8.2-9.9,16.3-20,24.2-30.3l3.9,1.5l3.7,0.8
		c0.7,12,1.6,24.7,2.9,37.8c1.1,12.2,2.5,25.3,4.2,39.2c-2.5-1-5.3-2.1-8.6-3.1c-1.5-0.5-2.7-0.8-3.6-1.1c-1-0.3-2.7-0.7-5.2-1.2
		c-0.1-8.6-0.2-16-0.5-22l-11.9-3.7l-11.9-3.7c-2.4,3.2-4.7,6.3-6.9,9.2c-2.9,3.8-5,6.6-6.5,8.4c-1.3-0.7-2.7-1.2-4.2-1.7
		C336.2,99,334.6,98.6,333.2,98.5L333.2,98.5z"/>
	<path style="fill-rule:evenodd;clip-rule:evenodd;fill:#0079BB;" d="M404.6,120.9c2.8-3.5,5.5-6.8,8-9.6
		c8.7-10.2,13.6-15.9,14.6-17.1c3.3-4.2,6.2-7.9,8.6-11.1c8.3-11.2,12.5-16.9,12.6-17c0.7,0.8,1.5,1.6,2.3,2.4
		c0.5,0.4,1,0.8,1.6,1.2c1.4,1.1,3,2.2,4.8,3.2c0.5,7.1,1,14.2,1.6,21.3c0.7,9.4,1.3,16.5,1.7,21.5c0.6,7.3,1.2,14.5,1.9,21.7
		l7.4-9.3c1-1.3,4.1-5.4,9.2-12.2c5.1-6.8,9.1-12.1,12.1-15.8c0.4,0.5,0.9,1,1.5,1.6c0.6,0.6,1.3,1.2,2,1.8c0.6,0.5,1.2,0.9,1.8,1.3
		s1.3,0.8,2.1,1.2c-2.2,2.3-5.6,6.1-10,11.5c-4.5,5.4-8.7,10.5-12.6,15.5l-8.3,10.4c-3.3,4.2-5.9,7.4-7.6,9.7
		c-1.7,2.3-3.5,4.9-5.3,7.7c-0.8-1-1.9-2.1-3.2-3.2c-0.6-0.5-1.2-0.9-1.9-1.4c-0.7-0.5-1.4-0.8-2.1-1.2c-0.3-5.5-0.8-12.9-1.5-22.2
		c-0.5-6.3-1.1-13.9-1.9-22.6c-0.7-8.7-1.4-16.2-2.1-22.6L433,98.8c-2.7,3.4-5.3,6.8-7.7,10c-8.3,11.2-12.8,17.1-13.4,17.9
		c-0.4-0.6-0.9-1.1-1.6-1.7c-0.6-0.6-1.3-1.2-2.1-1.8C407,122.2,405.8,121.5,404.6,120.9L404.6,120.9z"/>
	<path style="fill-rule:evenodd;clip-rule:evenodd;fill:#0079BB;" d="M116.4,461.9l5.5,6.8l6.5,6.2c3.8-7.3,7.3-14.8,10.4-21.7
		C132.3,455.1,124.7,458.5,116.4,461.9L116.4,461.9z M87.9,466.7c10.3-3.8,22.2-8.1,33.7-12.6c10.6-4.1,18.5-6.9,29.3-11.7l2.3,2.6
		l2.4,2c-4.4,9.3-9.3,18.7-14.4,29.1c-4.7,9.6-9.7,19.9-14.8,31c-1.4-1.7-3.1-3.5-5.1-5.4c-0.9-0.9-1.7-1.6-2.2-2.1
		c-0.6-0.6-1.7-1.5-3.4-2.8c3.9-6.5,7.8-12.5,10.3-17.1l-6.9-8.2L112,464c-3.3,1.6-6.6,2.6-9.7,4.1c-3.9,1.8-6.9,3.2-8.8,4
		c-0.7-1-1.5-1.9-2.4-2.8C89.9,468.1,88.9,467.3,87.9,466.7L87.9,466.7z"/>
	<path style="fill-rule:evenodd;clip-rule:evenodd;fill:#0079BB;" d="M169.5,462c2.1,1.4,5.3,3.7,9.5,6.7c4.2,3.1,7.4,5.3,9.5,6.8
		c2.1,1.4,5.4,3.5,9.8,6.1c4.4,2.7,7.7,4.7,9.8,6.1l-2.3,3.1l-2.2,3.8c-3.2-3-7-6-11.6-9.1l-1.4-1c-1.3,1.9-3.9,5.7-7.8,11.3
		c-3.9,5.6-5.9,8.6-6.2,8.9c-2.3,3.4-4.8,7.3-7.7,11.7c-2.9,4.4-5.9,9.4-9,14.9c-1.9-1.5-3.2-2.6-4-3.1c-0.8-0.6-1.5-1-2-1.4
		c-0.8-0.5-1.4-0.9-1.9-1.3c-0.5-0.3-1.9-1.1-4.3-2.4c1.8-2.8,5.6-8.1,11.4-16c3.3-4.5,5.6-7.7,6.8-9.7c1.8-2.7,4.3-6.5,7.4-11.5
		c3.2-5,5.1-8.1,5.8-9.1l-1.5-1c-4.5-3-8.8-5.4-12.8-7.2l2.6-3.5L169.5,462L169.5,462z"/>
	<path style="fill-rule:evenodd;clip-rule:evenodd;fill:#0079BB;" d="M225.2,495.4c-0.8,1.9-2.3,5.7-4.5,11.4
		c-2.2,5.7-3.8,9.9-4.6,12.5c1.7,0.6,4.1,1.5,6.9,2.6c2.9,1.1,6.3,2.2,6.9,2.4l1.6,0.6l1.5,0.5l1.3,0.5l1.2,0.4l1,0.3l0.8,0.3
		c2.3,0.8,4,1.2,5,1.3c1.5-4.5,3-9,4.5-13.7c1.5-4.6,2.4-8.2,3-10.8c1.9,1,4.1,1.9,6.6,2.7l0.9,0.3c1,0.4,2.1,0.7,3.1,1
		c1,0.3,2.1,0.5,3.1,0.7c-0.8,2.4-2.6,7.2-5.5,14.6c-2.8,7.4-4.7,12.3-5.6,14.9c-1.3,3.8-2.8,8.2-4.5,13.3c-1.7,5-3.3,10.5-4.9,16.6
		c-2.2-1-3.7-1.7-4.6-2c-0.9-0.3-1.7-0.6-2.2-0.8c-0.9-0.3-1.6-0.5-2.2-0.7c-0.6-0.2-2.2-0.6-4.8-1.2c2.7-5.9,6.2-15.4,10.7-28.4
		c-4.1-1.4-8.1-3.1-12.1-4.5c-1.4-0.5-5.5-1.6-8.8-2.6c-3.3-1-5.1-1.6-5.3-1.6c-1.7,4.9-3,8.9-4.1,12.2c-1.6,5.6-3.3,11.2-4.9,16.8
		c-2.2-1-3.7-1.7-4.6-2c-0.9-0.3-1.7-0.6-2.2-0.8c-0.9-0.3-1.6-0.5-2.2-0.7c-0.6-0.2-2.2-0.6-4.8-1.2c1.1-3.1,3.4-9.2,6.9-18.3
		c2-5.2,3.4-8.9,4.1-11c2.1-6.1,3.9-11.5,5.4-16.3c1.5-4.7,2.8-9.3,4-13.8c1.9,1,4.1,1.9,6.6,2.7l0.9,0.3c1,0.4,2.1,0.7,3.1,1
		C223.2,495,224.2,495.2,225.2,495.4L225.2,495.4z"/>
	<path style="fill-rule:evenodd;clip-rule:evenodd;fill:#0079BB;" d="M287.6,508.8c-0.1,2.5-0.5,7.6-1.2,15.5
		c-0.7,7.9-1.1,13.1-1.2,15.8c-0.2,4.1-0.4,9-0.4,14.8c-0.1,5.8-0.2,9.1-0.2,9.9c2.7,0.1,5.7,0.2,9.1,0.1c3.4-0.1,7-0.2,10.6-0.4
		l-0.4,3.9l0.1,3.9c-2.2-0.1-5.5-0.3-10.1-0.7c-4.5-0.4-7.1-0.6-7.8-0.6c-2.4-0.1-5.6-0.2-9.7-0.3c-4.1-0.1-6.2-0.1-6.4-0.1
		c0.2-3.3,0.7-9.8,1.5-19.4c0.5-5.5,0.8-9.4,0.9-11.7c0.3-6.5,0.5-12.2,0.7-17.1c0.1-5,0.1-9.7,0-14.3c2.1,0.4,4.5,0.7,7.1,0.8
		l1,0.1c1.1,0.1,2.2,0.1,3.3,0.1C285.5,509,286.5,508.9,287.6,508.8L287.6,508.8z"/>
	<path style="fill-rule:evenodd;clip-rule:evenodd;fill:#0079BB;" d="M358.7,566.5c-3.4,0.5-6.9,0.9-10.5,1.4c-3.6,0.4-7,0.8-10,1.1
		c-1.8,0.2-4.1,0.7-7.1,1.2c-3,0.6-4.7,0.9-5.1,0.9c-0.5-3.2-1.2-9.6-2.1-19.1c-0.5-5.5-1-9.3-1.3-11.6c-0.9-6.3-1.7-11.9-2.5-16.7
		c-0.8-4.8-1.7-9.5-2.7-13.9c2.2-0.3,5.3-0.7,9.2-1.1c3.9-0.4,6.3-0.7,7.1-0.8c2.5-0.4,4.5-0.7,6-0.9c6.2-1.1,9.6-1.7,10.2-1.8
		c-0.1,1.2,0,2.4,0.2,3.8c0.1,0.6,0.2,1.3,0.4,2.1c0.2,0.8,0.4,1.4,0.5,1.9c-5.6,0.1-10.8,0.5-15.6,1.2l-3.5,0.5
		c0,0.7,0.2,2.4,0.6,5.1c0.3,2.7,0.6,4.8,0.8,6.1l1.2,8.3c3-0.4,6-0.9,9.1-1.6c3.1-0.6,6.2-1.3,9.2-2.1l0.3,3.8l0.8,3.7
		c-1.8,0.3-4,0.5-6.6,0.7c-6.1,0.5-10.1,0.8-11.9,1.1c0.6,4.2,1.2,8.6,1.9,13.2c0.7,4.6,1.2,7.9,1.7,10c2.9-0.4,5.9-0.9,9.1-1.6
		c3.2-0.7,6.4-1.5,9.6-2.5c-0.1,1.1,0,2.3,0.2,3.6c0.1,1,0.3,1.7,0.4,2.3C358.3,565.2,358.5,565.8,358.7,566.5L358.7,566.5z"/>
	<path style="fill-rule:evenodd;clip-rule:evenodd;fill:#0079BB;" d="M354.3,504.4c2.4-0.9,6-2.2,10.9-3.9c4.9-1.7,8.6-3,11-3.9
		c2.4-0.9,5.9-2.4,10.6-4.5c4.7-2.1,8.2-3.6,10.6-4.5l1.2,3.7l1.8,4c-4.3,0.9-9,2.3-14,4.3l-1.6,0.6c0.8,2.2,2.5,6.4,4.8,12.8
		c2.4,6.4,3.7,9.8,3.8,10.1c1.5,3.8,3.2,8.1,5.2,13c2,4.9,4.4,10.2,7.1,15.9c-2.3,0.7-3.9,1.2-4.9,1.5c-0.9,0.3-1.7,0.6-2.2,0.8
		c-0.9,0.3-1.6,0.6-2.1,0.8c-0.6,0.2-2,1-4.4,2.2c-1.2-3.1-3.4-9.2-6.6-18.4c-1.8-5.3-3.2-9-4-11.1c-1.2-3-2.9-7.2-5.2-12.7
		c-2.3-5.5-3.7-8.8-4.1-10l-1.7,0.7c-5.1,2-9.5,4.1-13.2,6.4l-1.4-4.1L354.3,504.4L354.3,504.4z"/>
	<path style="fill-rule:evenodd;clip-rule:evenodd;fill:#0079BB;" d="M416.4,475c1.3,2.1,4,6.5,8.1,13.3c4,6.8,6.8,11.3,8.2,13.6
		c2.2,3.4,4.8,7.3,7.7,11.7c2.9,4.4,6.3,9.1,10.1,14.1c-2.2,1.1-3.8,1.8-4.6,2.3c-0.9,0.5-1.6,0.9-2.1,1.2c-0.8,0.5-1.5,0.9-2,1.2
		c-0.5,0.3-1.9,1.3-4,2.9c-1.8-2.8-5.1-8.3-10.1-16.7c-2.8-4.8-4.9-8.1-6.1-10.1c-3.5-5.4-6.7-10.2-9.5-14.4
		c-2.8-4.1-5.6-8-8.4-11.6c2-0.9,4.2-2,6.5-3.4l0.9-0.5c1-0.6,1.9-1.2,2.8-1.8C414.8,476.3,415.6,475.7,416.4,475L416.4,475z"/>
	<path style="fill-rule:evenodd;clip-rule:evenodd;fill:#0079BB;" d="M500.6,470.3l4,7c-2.2,6.1-5.4,11.3-9.9,16.1
		c-6.1,6.5-15.5,11.4-23.8,11.5c-8.3,0.1-16-3.4-23.3-10.7c-6.9-6.9-10.2-14.7-9.8-23.4c0.4-8.7,4.4-16.8,12.1-24.4
		c4.8-4.8,10.1-8.2,17-10.9c1.7,3.3,3.8,6.5,6.1,9.5l-0.8,1c-3-1.6-6.1-2-9.5-1.2c-3.4,0.8-6,2.5-9,5.6c-4.6,4.6-6.6,9.9-6,15.7
		c0.6,5.9,3.9,11.8,9.8,17.7c6.3,6.3,12.4,9.8,18.4,10.5c6,0.7,11.5-1.5,16.5-6.5c4.1-4.1,6.5-11.2,7-16.9L500.6,470.3L500.6,470.3z
		"/>
	<path style="fill-rule:evenodd;clip-rule:evenodd;fill:#BDA16C;" d="M250.8,457.6c0.5-1.8,1.4-4.4,2.6-8s2.1-6.3,2.7-8.1
		c0.3-1.1,0.7-2.3,1.1-3.6c0.4-1.3,0.8-3,1.2-5.1c-1.2,0.1-2.1,0.3-2.8,0.4c-0.7,0.1-1.7,0.3-2.9,0.6l-1.3-3.2
		c2.5-0.1,4.9-0.2,7.2-0.5c2.3-0.3,4.8-0.7,7.4-1.2l0.8,0.7c-0.5,1.3-1.3,3.4-2.2,6.3c-1,2.9-1.9,5.8-2.8,8.8
		c-0.8,2.5-1.5,5-2.2,7.4c-0.7,2.4-1.4,5-2.1,7.7c-1.2-0.5-2.3-0.9-3.4-1.3c-0.4-0.1-0.8-0.2-1-0.3
		C252.9,458,252.1,457.8,250.8,457.6L250.8,457.6z"/>
	<path style="fill-rule:evenodd;clip-rule:evenodd;fill:#BDA16C;" d="M289.8,448.5c-1.8,2-4,3-6.8,3c-2.7,0-4.9-0.8-6.5-2.5
		c-1.6-1.6-2.4-3.9-2.4-6.8c0-2.9,1.1-5.3,3.2-7.2c2.1-1.9,4.8-2.9,8.2-2.9c3.5,0,6.2,1.2,8.1,3.5c1.9,2.3,2.9,5.7,2.9,10
		c0,5.7-1.4,10.2-4.3,13.5c-2.8,3.3-6.5,5-11.1,5c-1.4,0-2.7-0.2-3.7-0.5l-0.4-2.8c0.6,0.4,1.2,0.7,1.8,0.9c0.6,0.2,1.3,0.3,2,0.3
		c2.7,0,4.9-1.2,6.5-3.6C289,456.1,289.8,452.7,289.8,448.5L289.8,448.5z M289.8,441.4c0-4.9-1.4-7.3-4.3-7.3
		c-1.5,0-2.6,0.6-3.2,1.8c-0.6,1.2-1,3-1,5.5c0,2.5,0.3,4.4,1,5.6c0.7,1.2,1.7,1.8,3.2,1.8c1.6,0,2.7-0.6,3.4-1.8
		C289.5,445.8,289.8,444,289.8,441.4L289.8,441.4z"/>
	<path style="fill-rule:evenodd;clip-rule:evenodd;fill:#BDA16C;" d="M307.8,450l-0.2-2.3l1,0c1.8-0.2,3.1-0.8,3.8-1.9
		c0.7-1.1,1-2.7,0.8-4.9c-0.4-3.9-1.9-5.7-4.5-5.4c-1.2,0.1-2.1,0.8-2.8,1.9c-0.7,1.2-0.9,2.7-0.7,4.4l0.1,0.1l-4.5-3.2
		c1.8-3.3,4.8-5.1,9-5.5c3-0.3,5.3,0.2,7.1,1.3c1.8,1.2,2.8,3,3,5.3c0.2,1.7-0.2,3.2-1.1,4.3c-0.9,1.2-2.4,2.2-4.6,3.3l0,0.4
		c2.6,0.1,4.6,0.7,6,1.7c1.4,1,2.2,2.6,2.4,4.7c0.3,2.9-0.5,5.4-2.5,7.4c-2,2-4.7,3.2-8.4,3.5c-3.8,0.4-7-0.3-9.5-2.1
		c1-1.7,2-3.7,2.9-5.8c0.2,2.1,0.8,3.7,1.9,4.7c1.1,1,2.4,1.4,4.1,1.2c1.6-0.2,2.8-0.9,3.6-2.1c0.8-1.3,1-3,0.8-5.1
		c-0.4-4.5-2.5-6.6-6-6.2L307.8,450L307.8,450z"/>
	<path style="fill-rule:evenodd;clip-rule:evenodd;fill:#BDA16C;" d="M333.7,462.6l-0.7-2.4c7-9.7,9.7-17.4,8.1-23.1
		c-1.2-4.3-3.3-6-6.3-5.2c-1.6,0.4-2.8,1.4-3.5,2.9c-0.7,1.5-0.8,3.3-0.2,5.4c-1.4-1.1-2.8-1.9-4.5-2.3c0.5-2.3,1.4-4.1,2.8-5.4
		c1.4-1.4,3.2-2.4,5.7-3.1c3.4-0.9,6.3-0.9,8.5,0c2.3,1,3.8,2.8,4.5,5.4c0.4,1.5,0.5,2.9,0.2,4.3c-0.3,1.4-0.8,2.9-1.8,4.5
		c-0.5,0.9-1.6,2.5-3.3,4.9c-1.7,2.4-3,4.4-3.9,6.1l4.5-1.1c1-0.3,2.5-0.7,4.5-1.4c2-0.7,3.6-1.2,4.6-1.5c0.2,1,0.4,2,0.7,3.1
		c0.3,1.1,0.6,2.1,1,3c-1.5,0.4-3.5,0.9-6.1,1.6c-2.6,0.6-4.1,1-4.6,1.2c-1.7,0.5-3.8,1.1-6.3,1.9
		C335,462.1,333.7,462.5,333.7,462.6L333.7,462.6z"/>
</g>
</svg>
